<svg xmlns="http://www.w3.org/2000/svg" width="90" height="60" fill="none" xmlns:v="https://vecta.io/nano"><style><![CDATA[.B{stroke:#8796a1}.C{fill-rule:evenodd}.D{fill:#d8dadb}.E{stroke-width:.285}.F{fill:#3a4953}]]></style><rect x=".6" y=".6" width="88.8" height="58.8" rx="1.4" fill="#fff"/><rect x=".6" y=".6" width="88.8" height="58.8" rx="1.4" stroke-width="1.2" class="B"/><rect x="8.42" y="13.809" width="21.615" height="8.756" rx=".33" class="D"/><rect x="8.42" y="13.809" width="21.615" height="8.756" rx=".33" class="B E"/><g class="F"><path d="M9.815 14.89h8.433c.172 0 .314.141.314.314v5.967c0 .173-.142.314-.314.314H9.815c-.172 0-.314-.141-.314-.314v-5.967c0-.173.142-.314.314-.314zm1.811 1.614c.461 0 .836.374.836.835s-.374.836-.836.836-.835-.375-.835-.836.374-.835.835-.835zm-1.399-.888h7.608v4.237c-1.517-.265-2.314-2.396-3.266-2.396-1.015 0-2.361 2.396-3.087 2.396-.617 0-.675-.634-1.255-.921v-3.316z" class="C"/><rect x="19.893" y="15.762" width="9.061" height="1.331" rx=".665"/><rect x="19.893" y="18.226" width="6.222" height="1.331" rx=".665"/></g><rect x="8.42" y="25.289" width="21.615" height="8.756" rx=".33" class="D"/><rect x="8.42" y="25.289" width="21.615" height="8.756" rx=".33" class="B E"/><g class="F"><path d="M9.815 26.37h8.433c.172 0 .314.141.314.314v5.967c0 .173-.142.314-.314.314H9.815c-.172 0-.314-.141-.314-.314v-5.967c0-.173.142-.314.314-.314zm1.811 1.614c.461 0 .836.374.836.835s-.374.836-.836.836-.835-.375-.835-.836.374-.835.835-.835zm-1.399-.888h7.608v4.237c-1.517-.265-2.314-2.396-3.266-2.396-1.015 0-2.361 2.396-3.087 2.396-.617 0-.675-.635-1.255-.922v-3.316z" class="C"/><rect x="19.893" y="27.242" width="9.061" height="1.331" rx=".665"/><rect x="19.893" y="29.706" width="6.222" height="1.331" rx=".665"/></g><rect x="8.42" y="36.771" width="21.615" height="8.756" rx=".33" class="D"/><rect x="8.42" y="36.771" width="21.615" height="8.756" rx=".33" class="B E"/><g class="F"><path d="M9.815 37.852h8.433c.172 0 .314.141.314.314v5.967c0 .173-.142.314-.314.314H9.815c-.172 0-.314-.141-.314-.314v-5.967c0-.173.142-.314.314-.314zm1.811 1.614c.461 0 .836.374.836.835s-.374.836-.836.836-.835-.375-.835-.836.374-.835.835-.835zm-1.399-.888h7.608v4.237c-1.517-.265-2.314-2.396-3.266-2.396-1.015 0-2.361 2.396-3.087 2.396-.617 0-.675-.635-1.255-.921v-3.316z" class="C"/><rect x="19.893" y="38.724" width="9.061" height="1.331" rx=".665"/><rect x="19.893" y="41.188" width="6.222" height="1.331" rx=".665"/></g><g fill="#58707f"><path d="M79.178 15h-44c-.368 0-.667.299-.667.667v28.002c0 .368.298.667.667.667h44c.368 0 .667-.298.667-.667V15.666c0-.368-.298-.667-.667-.667zm-44-1.333a2 2 0 0 0-2 2v28.002a2 2 0 0 0 2 2h44a2 2 0 0 0 2-2V15.666a2 2 0 0 0-2-2h-44z" class="C"/><path d="M48.862 23.389c0-2.459-1.984-4.452-4.427-4.452s-4.422 1.992-4.422 4.452 1.979 4.457 4.422 4.457 4.427-1.997 4.427-4.457zM37.503 35.113c-.869-.897-1.805-1.863-3.325-2.499v12.105h46.667V37.39c-4.996-.737-8.72-4.264-12.001-7.373-2.83-2.681-5.33-5.05-8.035-5.05-3.372 0-7.34 3.647-10.978 6.989-3.076 2.826-5.915 5.435-7.955 5.435-2.165 0-3.209-1.077-4.372-2.278z"/></g><path d="M79.178 13.666h-44a2 2 0 0 0-2 2v28.002a2 2 0 0 0 2 2h44a2 2 0 0 0 2-2V15.666a2 2 0 0 0-2-2z" fill="#000" fill-opacity=".6"/><path d="M75.651 32.335l2.516-2.667-2.516-2.667m-36.671.001l-2.516 2.667 2.516 2.667" stroke="#fff" stroke-width="1.067" stroke-linecap="round" stroke-linejoin="round"/><g fill="#fff"><rect x="47.186" y="25.002" width="20" height="2" rx="1"/><rect x="43.519" y="28.669" width="27.333" height="1.333" rx=".667"/><rect x="52.186" y="31.669" width="10" height="2.667" rx=".533"/></g><rect x="53.852" y="32.498" width="6.667" height="1" rx=".5" fill="#58707f"/></svg>