<svg width="20" height="20" viewBox="0 0 20 20" fill="none" xmlns="http://www.w3.org/2000/svg">
<g clip-path="url(#clip0_48_1322)">
<path d="M13.3672 15.4699C11.6308 15.4699 9.89929 15.4699 8.17258 15.4699C7.70784 15.4875 7.24849 15.3664 6.85439 15.1223C6.65644 15.0014 6.49707 14.8278 6.39467 14.6212C6.29226 14.4147 6.25098 14.1838 6.2756 13.9551C6.31842 13.5352 6.48552 13.1372 6.75599 12.8108C7.05841 12.4346 7.3753 12.0698 7.69363 11.7065C7.72326 11.6778 7.74257 11.6403 7.74858 11.5997C7.75459 11.5592 7.74698 11.5178 7.72691 11.4819C7.33623 10.5636 6.94121 9.64526 6.55197 8.72551C6.18878 7.86726 5.82849 7.00901 5.47109 6.15077C5.20918 5.52139 4.93281 4.90059 4.66802 4.27693C4.40322 3.65327 4.14132 3.01674 3.87653 2.38736C3.77958 2.15849 3.69131 1.92533 3.5799 1.70362C3.55638 1.66896 3.52586 1.6395 3.49024 1.61709C3.45463 1.59469 3.4147 1.57983 3.37298 1.57345C2.73342 1.50336 2.09097 1.44472 1.44851 1.38178C1.15767 1.35031 0.853808 1.32456 0.55718 1.28737C0.392386 1.26192 0.243409 1.17585 0.1401 1.0464C0.0367918 0.916949 -0.0132163 0.753689 9.69386e-05 0.589331C0.00313345 0.43174 0.0686979 0.281641 0.182654 0.171397C0.296609 0.0611541 0.449827 -0.000401896 0.609271 1.97486e-06C0.933392 1.97486e-06 1.25607 0.0414839 1.58019 0.0700921C2.06492 0.113004 2.54966 0.161638 3.03584 0.213133C3.39034 0.246033 3.7463 0.27178 4.09936 0.317553C4.21235 0.331321 4.31943 0.375196 4.40915 0.444484C4.49886 0.513772 4.56784 0.605866 4.60869 0.710916C4.83297 1.23015 5.04278 1.75225 5.26996 2.27292C5.34809 2.45888 5.43202 2.64197 5.50581 2.82935C5.52245 2.88147 5.55666 2.92638 5.60275 2.95657C5.64883 2.98677 5.70399 3.00043 5.75903 2.99528C6.23074 2.99528 6.70246 3.00959 7.17417 3.02532C8.36936 3.06537 9.56456 3.11114 10.7598 3.1512C11.5353 3.17694 12.3124 3.19125 13.0879 3.21843C14.6236 3.27087 16.1594 3.32571 17.6951 3.38292C18.2092 3.40104 18.7224 3.41725 19.2346 3.43156C19.5414 3.44014 19.8134 3.51738 19.9408 3.82349C19.9905 3.9424 20.0094 4.07172 19.9958 4.19969C19.8872 5.08368 19.7657 5.96767 19.6514 6.85024C19.6007 7.23645 19.5588 7.62266 19.5067 8.00887C19.4358 8.55243 19.362 9.09741 19.2882 9.64097C19.239 10.0172 19.1898 10.3919 19.1435 10.7667C19.1366 10.8894 19.0956 11.0077 19.0248 11.1087C18.9541 11.2097 18.8564 11.2894 18.7427 11.3389C18.6854 11.3644 18.6243 11.3803 18.5618 11.3861C17.874 11.4585 17.1857 11.5296 16.497 11.5992C15.5637 11.6936 14.6289 11.7852 13.6957 11.8853C12.6321 11.994 11.5686 12.1084 10.5123 12.22C10.0319 12.2686 9.55154 12.3115 9.06536 12.363C8.97898 12.3642 8.89527 12.3928 8.82661 12.4446C8.47065 12.8451 8.12483 13.2542 7.779 13.6633C7.74352 13.7142 7.713 13.7683 7.68784 13.8249C7.59379 14.0009 7.63286 14.0867 7.83254 14.111C7.94721 14.1255 8.06276 14.1322 8.17836 14.131H18.6443C18.9626 14.131 19.2231 14.2354 19.3562 14.543C19.4019 14.6425 19.4215 14.7518 19.4132 14.8608C19.4049 14.9698 19.3689 15.075 19.3086 15.1667C19.2484 15.2583 19.1657 15.3335 19.0683 15.3852C18.9709 15.437 18.8619 15.4636 18.7514 15.4627C17.9425 15.4627 17.1351 15.4627 16.3277 15.4627L13.3672 15.4699ZM6.62721 4.33272V4.32127H6.42319C6.18444 4.32127 6.15261 4.36561 6.24377 4.57732C6.48975 5.14948 6.73332 5.72164 6.97449 6.29381C7.20455 6.83879 7.42883 7.38521 7.6589 7.92877C7.87161 8.42941 8.09299 8.93005 8.30136 9.42927C8.50538 9.90559 8.7094 10.3834 8.90329 10.8597C8.9183 10.917 8.95561 10.9662 9.0071 10.9964C9.05859 11.0267 9.12009 11.0357 9.17822 11.0213C9.91135 10.9374 10.6454 10.8578 11.3805 10.7824C12.1199 10.7052 12.8608 10.6394 13.6016 10.5636C14.5031 10.4735 15.4045 10.3791 16.306 10.2875C16.7488 10.2417 17.193 10.2017 17.6357 10.1559C17.8528 10.1345 17.8904 10.0987 17.9251 9.87985C17.9497 9.70963 17.9555 9.53798 17.9772 9.36919C18.0887 8.53812 18.2059 7.70705 18.3158 6.87599C18.4012 6.23373 18.475 5.58862 18.5575 4.94779C18.5835 4.75326 18.5705 4.72894 18.3752 4.72179C17.3623 4.6846 16.3494 4.64454 15.3365 4.61022C14.0159 4.56444 12.6953 4.52058 11.3747 4.47862L6.62721 4.33272Z" fill="white"/>
<path d="M8.31863 19.9987C7.91694 19.9877 7.52744 19.8599 7.19887 19.6312C6.8703 19.4025 6.61724 19.0831 6.47135 18.713C6.32546 18.3428 6.29322 17.9384 6.37866 17.5502C6.46411 17.1621 6.66344 16.8074 6.95173 16.5307C7.24001 16.254 7.60445 16.0674 7.99943 15.9944C8.39442 15.9214 8.80243 15.9651 9.17241 16.1201C9.54238 16.2751 9.8579 16.5346 10.0795 16.866C10.3011 17.1974 10.4189 17.586 10.4182 17.9832C10.4201 18.2535 10.3667 18.5214 10.2611 18.7708C10.1555 19.0201 9.99989 19.2458 9.80371 19.4341C9.60753 19.6224 9.37482 19.7695 9.11959 19.8666C8.86436 19.9636 8.5919 20.0085 8.31863 19.9987ZM9.07973 17.9961C9.0809 17.9019 9.06298 17.8083 9.02703 17.721C8.99109 17.6337 8.93784 17.5544 8.87042 17.4878C8.80301 17.4212 8.72279 17.3685 8.63448 17.333C8.54618 17.2975 8.45158 17.2797 8.35625 17.2809C8.16904 17.2902 7.99229 17.369 7.86136 17.5017C7.73044 17.6343 7.65499 17.8109 7.65013 17.9961C7.65503 18.1825 7.73342 18.3597 7.86857 18.4898C8.00372 18.62 8.18494 18.6928 8.37361 18.6927C8.56128 18.6916 8.74088 18.6171 8.87318 18.4855C9.00548 18.3539 9.07973 18.1759 9.07973 17.9904V17.9961Z" fill="white"/>
<path d="M15.2221 17.9644C15.2233 17.6956 15.2786 17.4297 15.3847 17.1823C15.4909 16.9348 15.6459 16.7107 15.8405 16.5231C16.0352 16.3354 16.2657 16.1879 16.5186 16.0892C16.7716 15.9905 17.0418 15.9426 17.3137 15.9482C17.5855 15.9538 17.8535 16.0128 18.1021 16.1219C18.3506 16.2309 18.5747 16.3877 18.7613 16.5833C18.9479 16.7788 19.0933 17.009 19.1889 17.2607C19.2846 17.5123 19.3286 17.7802 19.3185 18.0488C19.2984 18.5798 19.068 19.0818 18.677 19.4465C18.286 19.8111 17.7657 20.0093 17.2283 19.9982C16.6909 19.9872 16.1794 19.7677 15.8041 19.3873C15.4288 19.0068 15.2198 18.4958 15.2221 17.9644ZM17.9713 17.9887C17.9727 17.8944 17.9549 17.8008 17.919 17.7135C17.8832 17.6261 17.8299 17.5467 17.7625 17.48C17.695 17.4133 17.6147 17.3607 17.5263 17.3252C17.4379 17.2898 17.3432 17.2722 17.2479 17.2735C17.0756 17.3 16.9189 17.387 16.8064 17.5185C16.6939 17.6501 16.6332 17.8174 16.6355 17.9897C16.6377 18.1619 16.7029 18.3276 16.8188 18.4562C16.9348 18.5848 17.0938 18.6677 17.2667 18.6896C17.5908 18.6911 18.0017 18.3978 17.9771 17.9887H17.9713Z" fill="white"/>
</g>
<defs>
<clipPath id="clip0_48_1322">
<rect width="20" height="20" fill="white"/>
</clipPath>
</defs>
</svg>
