<svg width="22" height="22" viewBox="0 0 22 22" fill="none" xmlns="http://www.w3.org/2000/svg">
<g clip-path="url(#clip0_92_2052)">
<path d="M0.0292881 5.84614C0.0465798 5.72024 0.0760924 5.59631 0.11741 5.47611L0.147796 5.39574C0.195694 5.25334 0.253571 5.11449 0.321001 4.98021C0.401516 4.82711 0.497751 4.68277 0.608155 4.54952C0.808047 4.30057 1.05606 4.09427 1.33744 3.94292C1.62622 3.79286 1.94259 3.70308 2.26727 3.67905C2.3326 3.67905 2.39945 3.66995 2.46479 3.66995C5.07045 3.6472 7.67611 3.65933 10.2818 3.66237C10.3754 3.65782 10.4691 3.67242 10.5569 3.70528C10.6447 3.73815 10.7248 3.78858 10.7924 3.85348C10.86 3.91838 10.9136 3.99638 10.9499 4.08269C10.9862 4.169 11.0044 4.26181 11.0035 4.35541C11.0035 4.75274 10.6996 5.03329 10.2529 5.03329H2.62584C1.97556 5.03481 1.51976 5.39574 1.39821 5.98263C1.38226 6.0885 1.37616 6.19561 1.37998 6.30261C1.37998 10.657 1.37998 15.0099 1.37998 19.3613C1.37998 20.1468 1.85097 20.62 2.63343 20.62H15.6906C16.4898 20.62 16.9623 20.1514 16.9623 19.3552C16.9623 16.8499 16.9623 14.3442 16.9623 11.8379C16.9568 11.7167 16.9675 11.5953 16.9942 11.4769C17.0389 11.3348 17.1291 11.2113 17.251 11.1252C17.3728 11.0392 17.5195 10.9954 17.6687 11.0005C17.8178 11.0057 17.9612 11.0596 18.0767 11.1538C18.1923 11.2481 18.2737 11.3776 18.3084 11.5224C18.3285 11.6222 18.3377 11.7239 18.3358 11.8257C18.3358 14.3452 18.3358 16.8651 18.3358 19.3855C18.3417 19.8564 18.2255 20.3209 17.9985 20.7337C17.7761 21.123 17.4501 21.4432 17.0565 21.6588C16.9291 21.73 16.796 21.7903 16.6584 21.8392C16.559 21.8745 16.4575 21.9039 16.3546 21.9272C15.9683 22.0012 15.5742 22.0262 15.1816 22.0015H2.19434C2.14876 21.9863 2.1047 21.9666 2.0576 21.956C1.70139 21.8929 1.36379 21.7513 1.0694 21.5414C0.77501 21.3315 0.531267 21.0587 0.355946 20.7428C0.157314 20.3767 0.0397031 19.9723 0.0110561 19.5569C-0.0041373 19.3552 0.0110561 19.152 0.0110561 18.9503V6.78486C-0.00412352 6.4719 0.00196779 6.15828 0.0292881 5.84614Z" fill="#464646"/>
<path d="M19.8082 0C20.0609 0.0679956 20.3095 0.150531 20.5527 0.247191C20.9082 0.412367 21.2198 0.658516 21.4626 0.965835C21.7054 1.27315 21.8726 1.63306 21.9506 2.01661C22.0286 2.40015 22.0154 2.79662 21.9119 3.17412C21.8085 3.55163 21.6177 3.89962 21.3549 4.19011C20.8231 4.77094 20.2503 5.31233 19.6943 5.86889C17.0992 8.45909 14.5093 11.0523 11.9244 13.6486C11.7382 13.8461 11.494 13.9794 11.227 14.0292C10.2151 14.2127 9.2078 14.4235 8.20504 14.6207C8.09119 14.6494 7.97182 14.6483 7.85853 14.6174C7.74525 14.5864 7.64191 14.5268 7.55856 14.4442C7.47521 14.3616 7.41469 14.2589 7.38287 14.1461C7.35106 14.0332 7.34904 13.9141 7.377 13.8002C7.58211 12.7493 7.78419 11.6953 8.01057 10.6489C8.0626 10.4508 8.16763 10.2704 8.31443 10.1272C10.9297 7.49863 13.5496 4.87608 16.174 2.2596C16.6434 1.78948 17.1205 1.32391 17.5839 0.846212C17.983 0.410667 18.5189 0.123945 19.1032 0.0333632C19.123 0.0262181 19.1414 0.0159796 19.1579 0.00303302L19.8082 0ZM8.92521 13.0662C9.01789 13.0526 9.07714 13.048 9.13944 13.0359C9.66513 12.9313 10.1923 12.8327 10.715 12.7129C10.8562 12.6809 10.9863 12.6118 11.0918 12.5127C13.5055 10.1075 15.9162 7.69881 18.3238 5.28655C18.3785 5.23196 18.4302 5.17433 18.4469 5.15613L16.841 3.51982C16.7954 3.56986 16.7407 3.63659 16.689 3.69725C14.4252 5.9614 12.1705 8.23161 9.89303 10.4806C9.5056 10.8628 9.22756 11.251 9.17286 11.806C9.12424 12.2215 9.01029 12.6295 8.92521 13.0662ZM17.8893 2.50679L19.474 4.09457C19.7672 3.81402 20.0939 3.54257 20.3704 3.22713C20.5473 3.00501 20.6346 2.7249 20.6153 2.4418C20.5959 2.1587 20.4712 1.89305 20.2656 1.69701C20.0601 1.50098 19.7886 1.3887 19.5043 1.38224C19.2201 1.37578 18.9438 1.4756 18.7295 1.66209C18.4347 1.929 18.1658 2.22624 17.8893 2.50679Z" fill="#464646"/>
</g>
<defs>
<clipPath id="clip0_92_2052">
<rect width="22" height="22" fill="white"/>
</clipPath>
</defs>
</svg>
