<svg width="18" height="22" viewBox="0 0 18 22" fill="none" xmlns="http://www.w3.org/2000/svg">
<g clip-path="url(#clip0_92_2033)">
<path d="M18 3.65408C18 3.53329 17.9851 3.42759 17.9554 3.32189C17.7917 2.61222 17.1521 2.11393 16.4231 2.14413H12.8083V1.94784C12.8083 1.81194 12.8083 1.67605 12.8083 1.52505C12.8083 0.694578 12.1388 0 11.3058 0C9.81818 0 8.2562 0 6.67934 0C5.86116 0.0150995 5.20661 0.679478 5.19174 1.50995C5.19174 1.66095 5.19174 1.79684 5.19174 1.94784V2.12903H4.09091C3.25785 2.12903 2.40992 2.12903 1.57686 2.12903C0.71405 2.11393 0.014876 2.80851 0 3.66918C0 3.68428 0 3.69938 0 3.72958C0 3.97117 0 4.21277 0 4.45436C0 4.69595 0 4.98284 0 5.25463C0 5.46603 0.0446281 5.69252 0.133884 5.88881C0.371901 6.47769 0.93719 6.84008 1.54711 6.80988H1.65124V12.9554V19.4784C1.65124 19.8106 1.69587 20.1428 1.8 20.4447C2.09752 21.3658 2.93058 21.9849 3.88264 22H14.1174C14.7868 22 15.4116 21.6829 15.7983 21.1544C16.1702 20.6561 16.3636 20.0522 16.3339 19.4331C16.3339 16.2622 16.3339 13.0762 16.3339 9.90528V6.80988H16.4529C17.2859 6.82498 17.9702 6.1455 17.9851 5.29993C17.9851 5.28483 17.9851 5.25463 17.9851 5.23953C18 4.71105 18 4.18257 18 3.65408ZM11.5141 2.12903H6.48595V1.96294C6.48595 1.84214 6.48595 1.70625 6.48595 1.58545C6.47107 1.44955 6.57521 1.32876 6.70909 1.31366C6.72397 1.31366 6.73884 1.31366 6.75372 1.31366C8.24132 1.31366 9.77355 1.31366 11.276 1.31366C11.4099 1.31366 11.5141 1.41935 11.5141 1.55525V1.57035C11.5141 1.67605 11.5141 1.78174 11.5141 1.90254C11.5141 1.97804 11.5141 2.05353 11.5141 2.12903ZM16.7058 4.72615C16.7058 4.87714 16.7058 5.02814 16.7058 5.16404C16.7058 5.42073 16.6314 5.49623 16.3934 5.49623H1.60661C1.38347 5.49623 1.29421 5.42073 1.29421 5.17913C1.29421 4.71105 1.29421 4.22787 1.29421 3.75978C1.29421 3.53329 1.3686 3.45779 1.59174 3.45779H10.8446C12.6595 3.45779 14.5488 3.45779 16.3934 3.45779C16.4826 3.45779 16.557 3.48799 16.6165 3.54839C16.676 3.60879 16.7058 3.68428 16.6909 3.77488C16.7058 4.07687 16.7058 4.40906 16.7058 4.72615ZM15.0397 19.4784C15.0397 19.9767 14.876 20.324 14.5339 20.5655C14.3851 20.6561 14.2215 20.7014 14.043 20.7014H3.98678C3.51074 20.7316 3.09422 20.3843 3.00496 19.9163C2.97521 19.7653 2.96033 19.6143 2.96033 19.4633C2.96033 17.8023 2.96033 16.1263 2.96033 14.4653V6.80988H15.0397V9.72409C15.0397 12.9705 15.0397 16.2169 15.0397 19.4784Z" fill="#DF0000"/>
<path d="M11.9454 9.05971C11.9305 8.71242 11.6478 8.44063 11.3206 8.44063C10.9784 8.44063 10.6958 8.69732 10.666 9.04461C10.666 9.08991 10.666 9.15031 10.666 9.1956V18.3157C10.666 18.3761 10.666 18.4214 10.6809 18.4818C10.7106 18.7385 10.8892 18.965 11.142 19.0405C11.2016 19.0556 11.2759 19.0707 11.3354 19.0707C11.5437 19.0707 11.7371 18.965 11.8412 18.7838C11.9156 18.6328 11.9602 18.4667 11.9602 18.3006C11.9602 17.1078 11.9602 15.9149 11.9602 14.7069V9.3164C11.9454 9.2258 11.9454 9.15031 11.9454 9.05971Z" fill="#DF0000"/>
<path d="M7.3489 13.7406V9.16541C7.3489 9.12011 7.3489 9.05972 7.3489 9.01442C7.30427 8.68223 7.02163 8.42554 6.67948 8.44064C6.33733 8.44064 6.06956 8.71243 6.05469 9.05972C6.05469 9.13521 6.05469 9.19561 6.05469 9.27111V18.21C6.05469 18.2553 6.05469 18.3006 6.05469 18.3459V18.4365C6.05469 18.6781 6.18857 18.8895 6.39684 18.9952C6.48609 19.0405 6.59022 19.0707 6.69436 19.0707C6.82824 19.0707 6.94725 19.0254 7.05138 18.9499C7.25965 18.7989 7.36378 18.5573 7.3489 18.3157C7.3489 17.138 7.3489 15.9602 7.3489 14.7824V13.7406Z" fill="#DF0000"/>
</g>
<defs>
<clipPath id="clip0_92_2033">
<rect width="18" height="22" fill="white"/>
</clipPath>
</defs>
</svg>
