<svg xmlns="http://www.w3.org/2000/svg" width="28.982" height="28.997"><defs><clipPath id="a"><path style="fill:none" d="M0 0h28.982v28.997H0z"/></clipPath></defs><g style="clip-path:url(#a)"><path d="M21.876 0H7.106A7.106 7.106 0 0 0 0 7.106v9.214a7.107 7.107 0 0 0 7.106 7.107h7.786L20.462 29v-5.57h1.414a7.107 7.107 0 0 0 7.106-7.107V7.106A7.106 7.106 0 0 0 21.876 0" style="fill:#8d8d8d"/><path d="M11.746 13.965a1.772 1.772 0 1 1-1.772-1.772 1.772 1.772 0 0 1 1.772 1.772" transform="translate(-1.48 -2.199)" style="fill:#fff"/><path d="M19.062 13.965a1.772 1.772 0 1 1-1.772-1.772 1.772 1.772 0 0 1 1.772 1.772" transform="translate(-2.799 -2.199)" style="fill:#fff"/><path d="M26.377 13.965a1.772 1.772 0 1 1-1.772-1.772 1.772 1.772 0 0 1 1.772 1.772" transform="translate(-4.119 -2.199)" style="fill:#fff"/></g></svg>