<svg xmlns="http://www.w3.org/2000/svg" width="90" height="60" fill="none" xmlns:v="https://vecta.io/nano"><rect x=".6" y=".6" width="88.8" height="58.8" rx="1.4" fill="#fff"/><rect x=".6" y=".6" width="88.8" height="58.8" rx="1.4" stroke="#8796a1" stroke-width="1.2"/><g fill="#58707f"><path fill-rule="evenodd" d="M8.906 8h24.327a.91.91 0 0 1 .906.906v17.211a.91.91 0 0 1-.906.906H8.906A.91.91 0 0 1 8 26.117V8.906A.91.91 0 0 1 8.906 8zm5.225 4.655a2.41 2.41 0 0 1 2.411 2.408c0 1.33-1.08 2.411-2.411 2.411a2.41 2.41 0 0 1-2.408-2.411 2.41 2.41 0 0 1 2.408-2.408zm-4.034-2.561h21.947v12.223c-4.375-.763-6.676-6.912-9.423-6.912-2.927 0-6.81 6.912-8.904 6.912-1.779 0-1.948-1.83-3.62-2.658v-9.565z"/><rect x="37.406" y="9.956" width="22.871" height="2.45" rx="1.225"/><rect x="37.406" y="15.674" width="44.109" height="2.042" rx="1.021"/><rect x="37.406" y="19.349" width="42.475" height="2.042" rx="1.021"/><rect x="37.406" y="23.025" width="16.337" height="2.042" rx="1.021"/><path fill-rule="evenodd" d="M8.906 33.023h24.327a.91.91 0 0 1 .906.906V51.14a.91.91 0 0 1-.906.906H8.906A.91.91 0 0 1 8 51.14V33.928a.91.91 0 0 1 .906-.906zm5.225 4.655a2.41 2.41 0 0 1 2.411 2.408c0 1.33-1.08 2.411-2.411 2.411a2.41 2.41 0 0 1-2.408-2.411 2.41 2.41 0 0 1 2.408-2.408zm-4.034-2.561h21.947v12.223c-4.375-.763-6.676-6.912-9.423-6.912-2.927 0-6.81 6.912-8.904 6.912-1.779 0-1.948-1.83-3.62-2.658v-9.565z"/><rect x="37.406" y="34.978" width="22.871" height="2.45" rx="1.225"/><rect x="37.406" y="40.696" width="44.109" height="2.042" rx="1.021"/><rect x="37.406" y="44.372" width="42.475" height="2.042" rx="1.021"/><rect x="37.406" y="48.048" width="16.337" height="2.042" rx="1.021"/></g></svg>