<svg width="123" height="100" viewBox="0 0 123 100" fill="none" xmlns="http://www.w3.org/2000/svg">
<path fill-rule="evenodd" clip-rule="evenodd" d="M117.158 0H68.0965C66.6057 0.0070398 65.1778 0.602493 64.1235 1.65678C63.0692 2.71111 62.4736 4.13905 62.4666 5.63002V30.8313C62.4736 32.3222 63.0692 33.75 64.1235 34.8044C65.1778 35.8587 66.6057 36.4543 68.0965 36.4613H72.3863V46.3808C72.3962 46.7225 72.502 47.0545 72.6916 47.3388C72.8813 47.6234 73.1469 47.8487 73.4587 47.9894C73.5927 47.9894 73.7268 48.0565 73.8607 48.1235C73.9947 48.1906 74.1288 48.2576 74.2628 48.2576C74.4704 48.2536 74.6741 48.2033 74.8596 48.1105C75.0453 48.0178 75.2077 47.8848 75.3352 47.7213L88.4721 36.4613H117.158C118.649 36.4543 120.077 35.8587 121.132 34.8044C122.186 33.75 122.781 32.3222 122.788 30.8313V5.63002C122.735 4.15384 122.125 2.75253 121.08 1.70803C120.036 0.663492 118.635 0.0532452 117.158 0ZM82.0376 17.4263L79.3568 20.1073L79.8928 23.5926C79.9104 23.738 79.8954 23.8856 79.8491 24.0247C79.8028 24.1638 79.7262 24.291 79.625 24.3968H78.8205L75.6033 22.7883L72.6542 24.1287H71.85C71.7485 24.0228 71.6721 23.8957 71.6256 23.7568C71.6162 23.7283 71.608 23.6995 71.6012 23.6704C71.5746 23.5573 71.5681 23.4401 71.5818 23.3244L72.1182 19.8392L69.437 17.1582C69.336 17.0523 69.2591 16.9252 69.2128 16.7862C69.1782 16.6822 69.161 16.5734 69.1619 16.4643C69.1622 16.4275 69.1645 16.3906 69.1689 16.3539C69.303 16.3539 69.437 16.2869 69.5711 16.2199C69.7052 16.1529 69.8393 16.0858 69.9733 16.0858L73.7268 15.5496L75.3352 12.3325C75.3352 12.0644 75.6033 12.0644 75.8715 12.0644C76.0749 12.0927 76.2631 12.1869 76.4077 12.3325L78.0163 15.5496L81.7698 16.0858C81.8421 16.0922 81.912 16.1117 81.9765 16.1431C82.0349 16.1715 82.0887 16.2097 82.1353 16.2563C82.2335 16.3544 82.2938 16.4839 82.3058 16.622C82.3107 16.8804 82.2145 17.1305 82.0376 17.3191V17.4263ZM98.6597 17.4263L95.9786 20.1073L96.5149 23.5926C96.5325 23.738 96.5175 23.8856 96.4712 24.0247C96.4249 24.1638 96.3482 24.291 96.2467 24.3968H95.4426L92.2256 22.7883L89.2763 24.1287H88.4721C88.3706 24.0228 88.2941 23.8957 88.2477 23.7568C88.2088 23.6398 88.1919 23.5167 88.1979 23.394C88.1991 23.3708 88.2011 23.3476 88.2039 23.3244L88.7402 19.8392L86.0591 17.1582C85.9578 17.0523 85.8812 16.9252 85.8348 16.7862C85.8128 16.7201 85.798 16.6521 85.7901 16.5833C85.7815 16.5073 85.7818 16.4303 85.791 16.3539C85.8033 16.2158 85.8636 16.0863 85.9615 15.9882C86.0597 15.8902 86.1892 15.8298 86.3273 15.8177L90.0807 15.2815L91.6892 12.0644C91.6892 11.7963 91.9574 11.7963 92.2256 11.7963C92.4285 11.8246 92.6171 11.9188 92.7616 12.0644L94.3702 15.2815L98.3916 16.0858C98.5298 16.0979 98.6593 16.1583 98.7573 16.2563C98.8555 16.3544 98.9157 16.4839 98.9279 16.622C98.9327 16.8804 98.8365 17.1305 98.6597 17.3191V17.4263ZM115.282 17.4263L112.601 20.1073L113.137 23.5926C113.155 23.738 113.14 23.8856 113.093 24.0247C113.047 24.1638 112.97 24.291 112.869 24.3968H112.065L108.847 22.7883L105.898 24.1287H105.094C105.062 24.0951 105.032 24.0595 105.005 24.0219C104.947 23.9411 104.901 23.8517 104.87 23.7568C104.823 23.6177 104.808 23.4699 104.826 23.3244L105.362 19.8392L102.681 17.1582C102.58 17.0523 102.503 16.9252 102.457 16.7862C102.411 16.6471 102.396 16.4995 102.413 16.3539C102.417 16.3064 102.427 16.2599 102.442 16.2154C102.471 16.1304 102.519 16.0526 102.584 15.9882C102.682 15.8902 102.811 15.8298 102.949 15.8177L106.703 15.2815L108.311 12.0644C108.311 11.7963 108.579 11.7963 108.847 11.7963C109.051 11.8246 109.239 11.9188 109.384 12.0644L110.992 15.2815L115.014 16.0858C115.152 16.0979 115.281 16.1583 115.379 16.2563C115.477 16.3544 115.538 16.4839 115.55 16.622C115.555 16.8804 115.459 17.1305 115.282 17.3191V17.4263Z" fill="#BED8FE"/>
<path d="M39.142 17.3198C27.0779 17.3198 20.3754 23.4861 20.6434 35.5503C20.9116 51.9042 27.882 61.8239 39.142 61.8239C39.142 61.8239 57.6409 62.6282 57.6409 35.5503C57.6409 23.4861 51.4746 17.3198 39.142 17.3198Z" fill="#BED8FE"/>
<path d="M53.3513 67.024L71.8502 74.1554C76.7804 76.0848 77.7686 90.0128 78.2407 96.669C78.3591 98.3372 78.445 99.5487 78.5525 100H0C0.112351 99.607 0.201117 98.3673 0.325475 96.6307C0.79489 90.0752 1.77146 76.4383 6.43431 74.5308L24.9331 67.024L28.9544 63.2708C29.5552 62.8506 30.2812 62.6483 31.0124 62.697C31.7436 62.7457 32.4364 63.0427 32.976 63.5387L39.1423 69.4369L45.0404 63.5387C45.5482 62.9865 46.2489 62.6504 46.9973 62.6005C47.746 62.5506 48.4852 62.7907 49.0618 63.2708L53.3513 67.024Z" fill="#BED8FE"/>
</svg>
