<svg xmlns="http://www.w3.org/2000/svg" xmlns:xlink="http://www.w3.org/1999/xlink" width="120" height="80" fill="none"><rect x=".75" y=".75" width="118.5" height="78.5" rx="2.25" fill="#fff"/><rect x=".75" y=".75" width="118.5" height="78.5" rx="2.25" stroke="#8796a1" stroke-width="1.5"/><g stroke="#718491"><path d="M110.5 40l4-4-4-4m-101 0l-4 4 4 4" stroke-width="1.8" stroke-linecap="round" stroke-linejoin="round"/><rect x="13.4" y="19.4" width="28.2" height="32.2" rx="1.6" fill="#fff" stroke-width=".8"/></g><g fill="#718491"><use xlink:href="#B"/><path d="M16 37.5a1 1 0 0 1 1-1h21a1 1 0 1 1 0 2H17a1 1 0 0 1-1-1z"/><use xlink:href="#B" y="8"/><use xlink:href="#C"/><use xlink:href="#C" x="4"/><use xlink:href="#C" x="8"/><use xlink:href="#C" x="12"/><use xlink:href="#C" x="16"/><path fill-rule="evenodd" d="M27 22.5a4 4 0 1 0 0 8 4 4 0 1 0 0-8zm-2.667 6.738a3.81 3.81 0 0 0 5.333 0v-.033a1.35 1.35 0 0 0-.391-.95 1.33 1.33 0 0 0-.943-.393h-2.667a1.33 1.33 0 0 0-.943.393 1.35 1.35 0 0 0-.391.95v.033zm4-3.351A1.34 1.34 0 0 1 27 27.23a1.34 1.34 0 1 1 0-2.686 1.34 1.34 0 0 1 1.333 1.343z"/></g><rect x="45.9" y="19.4" width="28.2" height="32.2" rx="1.6" fill="#fff" stroke="#718491" stroke-width=".8"/><g fill="#718491"><path d="M53 33.5a1 1 0 0 1 1-1h12a1 1 0 1 1 0 2H54a1 1 0 0 1-1-1zm-4.5 4a1 1 0 0 1 1-1h21a1 1 0 1 1 0 2h-21a1 1 0 0 1-1-1zm4.5 4a1 1 0 0 1 1-1h12a1 1 0 1 1 0 2H54a1 1 0 0 1-1-1z"/><use xlink:href="#C" x="32.5"/><use xlink:href="#C" x="36.5"/><use xlink:href="#C" x="40.5"/><use xlink:href="#C" x="44.5"/><use xlink:href="#C" x="48.5"/><path fill-rule="evenodd" d="M59.5 22.5a4 4 0 1 0 0 8 4 4 0 1 0 0-8zm-2.667 6.738a3.81 3.81 0 0 0 5.333 0v-.033a1.35 1.35 0 0 0-.391-.95 1.33 1.33 0 0 0-.943-.393h-2.667a1.33 1.33 0 0 0-.943.393 1.35 1.35 0 0 0-.391.95v.033zm4-3.351A1.34 1.34 0 0 1 59.5 27.23a1.34 1.34 0 1 1 0-2.686 1.34 1.34 0 0 1 1.333 1.343z"/></g><rect x="78.4" y="19.4" width="28.2" height="32.2" rx="1.6" fill="#fff" stroke="#718491" stroke-width=".8"/><g fill="#718491"><use xlink:href="#B" x="65"/><path d="M81 37.5a1 1 0 0 1 1-1h21a1 1 0 1 1 0 2H82a1 1 0 0 1-1-1z"/><use xlink:href="#B" x="65" y="8"/><use xlink:href="#C" x="65"/><use xlink:href="#C" x="69"/><use xlink:href="#C" x="73"/><use xlink:href="#C" x="77"/><use xlink:href="#C" x="81"/><path fill-rule="evenodd" d="M92 22.5a4 4 0 1 0 0 8 4 4 0 1 0 0-8zm-2.667 6.738a3.81 3.81 0 0 0 5.333 0v-.033a1.35 1.35 0 0 0-.391-.95 1.33 1.33 0 0 0-.943-.393h-2.667a1.33 1.33 0 0 0-.943.393 1.35 1.35 0 0 0-.391.95v.033zm4-3.351A1.34 1.34 0 0 1 92 27.23a1.34 1.34 0 1 1 0-2.686 1.34 1.34 0 0 1 1.333 1.343z"/></g><rect x="48" y="56" width="6" height="6" rx="2.889" fill="#9ea9b2"/><rect x="57" y="56" width="6" height="6" rx="2.889" fill="#718491"/><rect x="66" y="56" width="6" height="6" rx="2.889" fill="#9ea9b2"/><defs ><path id="B" d="M20.5 33.5a1 1 0 0 1 1-1h12a1 1 0 1 1 0 2h-12a1 1 0 0 1-1-1z"/><path id="C" d="M19.5 44.7l.6 1.2 1.2.15-.824.924.224 1.326-1.2-.6-1.2.6.226-1.326-.826-.924 1.2-.15.6-1.2z"/></defs></svg>