<svg xmlns="http://www.w3.org/2000/svg" xmlns:xlink="http://www.w3.org/1999/xlink" width="120" height="80" fill="none"><style><![CDATA[.B{fill:#fff}.C{stroke:#718491}.D{stroke-width:.75}.E{fill:#718491}.F{fill-rule:evenodd}]]></style><rect x=".75" y=".75" width="118.5" height="78.5" rx="3.25" class="B"/><rect x=".75" y=".75" width="118.5" height="78.5" rx="3.25" stroke="#8796a1" stroke-width="1.5"/><g clip-path="url(#A)"><g class="B"><path d="M10 10h100v60H10z"/><rect x="10.375" y="10.375" width="30.25" height="27.5" rx="1.625" class="C D"/></g><g class="E"><path d="M14 23.63a1 1 0 0 1 1-1h21a1 1 0 1 1 0 2H15a1 1 0 0 1-1-1z"/><use xlink:href="#B"/><use xlink:href="#C"/><path d="M21.5 30.63l.6 1.2 1.2.15-.824.924.224 1.326-1.2-.6-1.2.6.226-1.326-.826-.924 1.2-.15.6-1.2zm4 0l.6 1.2 1.2.15-.824.924.224 1.326-1.2-.6-1.2.6.226-1.326-.826-.924 1.2-.15.6-1.2zm4 0l.6 1.2 1.2.15-.824.924.224 1.326-1.2-.6-1.2.6.226-1.326-.826-.924 1.2-.15.6-1.2zm4 0l.6 1.2 1.2.15-.824.924.224 1.326-1.2-.6-1.2.6.226-1.326-.826-.924 1.2-.15.6-1.2z"/><path d="M25.5 13.72a3 3 0 0 0 0 6 3 3 0 1 0 0-6zm-2 5.054c.517.503 1.222.813 2 .813s1.483-.31 2-.813v-.024a1.01 1.01 0 0 0-.293-.712c-.187-.189-.442-.295-.707-.295h-2c-.265 0-.52.106-.707.295a1.01 1.01 0 0 0-.293.712v.024zm3-2.513c0 .556-.448 1.007-1 1.007s-1-.451-1-1.007.448-1.007 1-1.007 1 .451 1 1.007z" class="F"/></g><rect x="10.375" y="42.125" width="30.25" height="27.5" rx="1.625" class="B C D"/><g class="E"><path d="M14 55.38a1 1 0 0 1 1-1h21a1 1 0 1 1 0 2H15a1 1 0 0 1-1-1zm4.5 4a1 1 0 0 1 1-1h12a1 1 0 1 1 0 2h-12a1 1 0 0 1-1-1zm-1 3l.6 1.2 1.2.15-.824.924.224 1.326-1.2-.6-1.2.6.226-1.326-.826-.924 1.2-.15.6-1.2zm4 0l.6 1.2 1.2.15-.824.924.224 1.326-1.2-.6-1.2.6.226-1.326-.826-.924 1.2-.15.6-1.2zm4 0l.6 1.2 1.2.15-.824.924.224 1.326-1.2-.6-1.2.6.226-1.326-.826-.924 1.2-.15.6-1.2zm4 0l.6 1.2 1.2.15-.824.924.224 1.326-1.2-.6-1.2.6.226-1.326-.826-.924 1.2-.15.6-1.2zm4 0l.6 1.2 1.2.15-.824.924.224 1.326-1.2-.6-1.2.6.226-1.326-.826-.924 1.2-.15.6-1.2z"/><use xlink:href="#D" class="F"/></g><rect x="44.875" y="10.375" width="30.25" height="23.5" rx="1.625" class="B C D"/><g class="E"><use xlink:href="#E"/><path d="M52 26.63l.6 1.2 1.2.15-.824.924.224 1.326-1.2-.6-1.2.6.226-1.326-.826-.924 1.2-.15.6-1.2zm4 0l.6 1.2 1.2.15-.824.924.224 1.326-1.2-.6-1.2.6.226-1.326-.826-.924 1.2-.15.6-1.2zm4 0l.6 1.2 1.2.15-.824.924.224 1.326-1.2-.6-1.2.6.226-1.326-.826-.924 1.2-.15.6-1.2zm4 0l.6 1.2 1.2.15-.824.924.224 1.326-1.2-.6-1.2.6.226-1.326-.826-.924 1.2-.15.6-1.2zm4 0l.6 1.2 1.2.15-.824.924.224 1.326-1.2-.6-1.2.6.226-1.326-.826-.924 1.2-.15.6-1.2z"/><path d="M60 13.63a3 3 0 1 0 0 6 3 3 0 1 0 0-6zm-2 5.054c.517.503 1.222.813 2 .813s1.483-.31 2-.813v-.024a1.01 1.01 0 0 0-.293-.712c-.187-.189-.442-.295-.707-.295h-2c-.265 0-.52.106-.707.295a1.01 1.01 0 0 0-.293.712v.024zm3-2.513c0 .556-.448 1.007-1 1.007s-1-.451-1-1.007.448-1.007 1-1.007 1 .451 1 1.007z" class="F"/></g><rect x="44.875" y="38.125" width="30.25" height="31.5" rx="1.625" class="B C D"/><g class="E"><path d="M48.5 51.47a1 1 0 0 1 1-1h21a1 1 0 1 1 0 2h-21a1 1 0 0 1-1-1zm0 4a1 1 0 0 1 1-1h21a1 1 0 1 1 0 2h-21a1 1 0 0 1-1-1zm4.5 4a1 1 0 0 1 1-1h12a1 1 0 1 1 0 2H54a1 1 0 0 1-1-1zm-1 3l.6 1.2 1.2.15-.824.924.224 1.326-1.2-.6-1.2.6.226-1.326-.826-.924 1.2-.15.6-1.2zm4 0l.6 1.2 1.2.15-.824.924.224 1.326-1.2-.6-1.2.6.226-1.326-.826-.924 1.2-.15.6-1.2zm4 0l.6 1.2 1.2.15-.824.924.224 1.326-1.2-.6-1.2.6.226-1.326-.826-.924 1.2-.15.6-1.2zm4 0l.6 1.2 1.2.15-.824.924.224 1.326-1.2-.6-1.2.6.226-1.326-.826-.924 1.2-.15.6-1.2zm4 0l.6 1.2 1.2.15-.824.924.224 1.326-1.2-.6-1.2.6.226-1.326-.826-.924 1.2-.15.6-1.2z"/><path d="M60 41.47a3 3 0 1 0 0 6 3 3 0 1 0 0-6zm-2 5.054c.517.503 1.222.813 2 .813s1.483-.31 2-.813v-.025a1.01 1.01 0 0 0-.293-.712c-.187-.189-.442-.295-.707-.295h-2c-.265 0-.52.106-.707.295a1.01 1.01 0 0 0-.293.712v.025zm3-2.514c0 .556-.448 1.007-1 1.007s-1-.451-1-1.007.448-1.007 1-1.007 1 .451 1 1.007z" class="F"/></g><rect x="79.375" y="10.375" width="30.25" height="31.5" rx="1.625" class="B C D"/><g class="E"><use xlink:href="#F"/><path d="M83 27.72a1 1 0 0 1 1-1h21a1 1 0 1 1 0 2H84a1 1 0 0 1-1-1zm4.5 4a1 1 0 0 1 1-1h12a1 1 0 1 1 0 2h-12a1 1 0 0 1-1-1zm-1 3l.6 1.2 1.2.15-.824.924.224 1.326-1.2-.6-1.2.6.226-1.326-.826-.924 1.2-.15.6-1.2zm4 0l.6 1.2 1.2.15-.824.924.224 1.326-1.2-.6-1.2.6.226-1.326-.826-.924 1.2-.15.6-1.2zm4 0l.6 1.2 1.2.15-.824.924.224 1.326-1.2-.6-1.2.6.226-1.326-.826-.924 1.2-.15.6-1.2zm4 0l.6 1.2 1.2.15-.824.924.224 1.326-1.2-.6-1.2.6.226-1.326-.826-.924 1.2-.15.6-1.2zm4 0l.6 1.2 1.2.15-.824.924.224 1.326-1.2-.6-1.2.6.226-1.326-.826-.924 1.2-.15.6-1.2z"/><path d="M94.5 13.72a3 3 0 1 0 0 6 3 3 0 1 0 0-6zm-2 5.054c.516.503 1.222.813 2 .813s1.484-.31 2-.813v-.025a1.01 1.01 0 0 0-.293-.712c-.187-.189-.442-.295-.707-.295h-2c-.265 0-.52.106-.707.295a1.01 1.01 0 0 0-.293.712v.025zm3-2.513c0 .556-.448 1.007-1 1.007s-1-.451-1-1.007.448-1.007 1-1.007 1 .451 1 1.007z" class="F"/></g><rect x="79.375" y="46.125" width="30.25" height="23.5" rx="1.625" class="B C D"/><g class="E"><path d="M83 59.38a1 1 0 0 1 1-1h21a1 1 0 1 1 0 2H84a1 1 0 0 1-1-1zm3.5 3l.6 1.2 1.2.15-.824.924.224 1.326-1.2-.6-1.2.6.226-1.326-.826-.924 1.2-.15.6-1.2zm4 0l.6 1.2 1.2.15-.824.924.224 1.326-1.2-.6-1.2.6.226-1.326-.826-.924 1.2-.15.6-1.2zm4 0l.6 1.2 1.2.15-.824.924.224 1.326-1.2-.6-1.2.6.226-1.326-.826-.924 1.2-.15.6-1.2zm4 0l.6 1.2 1.2.15-.824.924.224 1.326-1.2-.6-1.2.6.226-1.326-.826-.924 1.2-.15.6-1.2zm4 0l.6 1.2 1.2.15-.824.924.224 1.326-1.2-.6-1.2.6.226-1.326-.826-.924 1.2-.15.6-1.2z"/><path d="M94.5 49.38a3 3 0 1 0 0 6 3 3 0 1 0 0-6zm-2 5.054c.516.503 1.222.813 2 .813s1.484-.31 2-.813v-.024a1.01 1.01 0 0 0-.293-.712c-.187-.189-.442-.295-.707-.295h-2c-.265 0-.52.106-.707.295a1.01 1.01 0 0 0-.293.712v.024zm3-2.513c0 .556-.448 1.007-1 1.007s-1-.451-1-1.007.448-1.007 1-1.007 1 .451 1 1.007z" class="F"/></g></g><defs><clipPath id="A"><path transform="translate(10 10)" d="M0 0h100v60H0z" class="B"/></clipPath><path id="B" d="M18.5 27.63a1 1 0 0 1 1-1h12a1 1 0 1 1 0 2h-12a1 1 0 0 1-1-1z"/><path id="C" d="M17.5 30.63l.6 1.2 1.2.15-.824.924.224 1.326-1.2-.6-1.2.6.226-1.326-.826-.924 1.2-.15.6-1.2z"/><path id="D" d="M25.5 45.47a3 3 0 1 0 0 6 3 3 0 1 0 0-6zm-2 5.054c.517.503 1.222.813 2 .813s1.483-.31 2-.813v-.024a1.01 1.01 0 0 0-.293-.712c-.187-.189-.442-.295-.707-.295h-2c-.265 0-.52.106-.707.295a1.01 1.01 0 0 0-.293.712v.024zm3-2.513c0 .556-.448 1.007-1 1.007s-1-.451-1-1.007.448-1.007 1-1.007 1 .451 1 1.007z"/><path id="E" d="M48.5 23.63a1 1 0 0 1 1-1h21a1 1 0 1 1 0 2h-21a1 1 0 0 1-1-1z"/><path id="F" d="M83 23.72a1 1 0 0 1 1-1h21a1 1 0 1 1 0 2H84a1 1 0 0 1-1-1z"/></defs></svg>