<svg xmlns="http://www.w3.org/2000/svg" xmlns:xlink="http://www.w3.org/1999/xlink" width="120" height="80" fill="none"><style><![CDATA[.B{fill:#fff}.C{stroke:#718491}.D{fill:#718491}.E{stroke-width:.8}.F{fill-rule:evenodd}.G{stroke-width:.5}]]></style><rect x=".75" y=".75" width="118.5" height="78.5" rx="2.25" class="B"/><rect x=".75" y=".75" width="118.5" height="78.5" rx="2.25" stroke="#8796a1" stroke-width="1.5"/><g clip-path="url(#A)"><g class="B"><path d="M10 21h100v52H10z"/><rect x="10.4" y="21.4" width="30.2" height="23.45" rx="1.6" class="C E"/></g><g class="D"><path d="M14 34.63a1 1 0 0 1 1-1h21a1 1 0 1 1 0 2H15a1 1 0 0 1-1-1z"/><use xlink:href="#B"/><path d="M21.5 37.63l.6 1.2 1.2.15-.824.924.224 1.326-1.2-.6-1.2.6.226-1.326-.826-.924 1.2-.15.6-1.2zm4 0l.6 1.2 1.2.15-.824.924.224 1.326-1.2-.6-1.2.6.226-1.326-.826-.924 1.2-.15.6-1.2zm4 0l.6 1.2 1.2.15-.824.924.224 1.326-1.2-.6-1.2.6.226-1.326-.826-.924 1.2-.15.6-1.2zm4 0l.6 1.2 1.2.15-.824.924.224 1.326-1.2-.6-1.2.6.226-1.326-.826-.924 1.2-.15.6-1.2z"/><use xlink:href="#C" class="F"/></g><rect x="44.9" y="21.4" width="30.2" height="23.45" rx="1.6" class="B C E"/><g class="D"><path d="M48.5 34.63a1 1 0 0 1 1-1h21a1 1 0 1 1 0 2h-21a1 1 0 0 1-1-1zm3.5 3l.6 1.2 1.2.15-.824.924.224 1.326-1.2-.6-1.2.6.226-1.326-.826-.924 1.2-.15.6-1.2zm4 0l.6 1.2 1.2.15-.824.924.224 1.326-1.2-.6-1.2.6.226-1.326-.826-.924 1.2-.15.6-1.2zm4 0l.6 1.2 1.2.15-.824.924.224 1.326-1.2-.6-1.2.6.226-1.326-.826-.924 1.2-.15.6-1.2zm4 0l.6 1.2 1.2.15-.824.924.224 1.326-1.2-.6-1.2.6.226-1.326-.826-.924 1.2-.15.6-1.2zm4 0l.6 1.2 1.2.15-.824.924.224 1.326-1.2-.6-1.2.6.226-1.326-.826-.924 1.2-.15.6-1.2z"/><path d="M60 24.63a3 3 0 1 0 0 6 3 3 0 1 0 0-6zm-2 5.054c.517.503 1.222.813 2 .813s1.483-.31 2-.813v-.024a1.01 1.01 0 0 0-.293-.712c-.187-.189-.442-.295-.707-.295h-2c-.265 0-.52.106-.707.295a1.01 1.01 0 0 0-.293.712v.024zm3-2.513c0 .556-.448 1.007-1 1.007s-1-.451-1-1.007.448-1.007 1-1.007 1 .451 1 1.007z" class="F"/></g><rect x="79.4" y="21.4" width="30.2" height="23.45" rx="1.6" class="B C E"/><g class="D"><path d="M83 34.63a1 1 0 0 1 1-1h21a1 1 0 1 1 0 2H84a1 1 0 0 1-1-1zm3.5 3l.6 1.2 1.2.15-.824.924.224 1.326-1.2-.6-1.2.6.226-1.326-.826-.924 1.2-.15.6-1.2zm4 0l.6 1.2 1.2.15-.824.924.224 1.326-1.2-.6-1.2.6.226-1.326-.826-.924 1.2-.15.6-1.2zm4 0l.6 1.2 1.2.15-.824.924.224 1.326-1.2-.6-1.2.6.226-1.326-.826-.924 1.2-.15.6-1.2zm4 0l.6 1.2 1.2.15-.824.924.224 1.326-1.2-.6-1.2.6.226-1.326-.826-.924 1.2-.15.6-1.2zm4 0l.6 1.2 1.2.15-.824.924.224 1.326-1.2-.6-1.2.6.226-1.326-.826-.924 1.2-.15.6-1.2z"/><use xlink:href="#D" class="F"/></g><rect x="10.4" y="49.15" width="30.2" height="23.45" rx="1.6" class="B C E"/><g class="D"><path d="M14 62.38a1 1 0 0 1 1-1h21a1 1 0 1 1 0 2H15a1 1 0 0 1-1-1zm3.5 3l.6 1.2 1.2.15-.824.924.224 1.326-1.2-.6-1.2.6.226-1.326-.826-.924 1.2-.15.6-1.2zm4 0l.6 1.2 1.2.15-.824.924.224 1.326-1.2-.6-1.2.6.226-1.326-.826-.924 1.2-.15.6-1.2zm4 0l.6 1.2 1.2.15-.824.924.224 1.326-1.2-.6-1.2.6.226-1.326-.826-.924 1.2-.15.6-1.2zm4 0l.6 1.2 1.2.15-.824.924.224 1.326-1.2-.6-1.2.6.226-1.326-.826-.924 1.2-.15.6-1.2zm4 0l.6 1.2 1.2.15-.824.924.224 1.326-1.2-.6-1.2.6.226-1.326-.826-.924 1.2-.15.6-1.2z"/><path d="M25.5 52.38a3 3 0 1 0 0 6 3 3 0 1 0 0-6zm-2 5.054c.517.503 1.222.813 2 .813s1.483-.31 2-.813v-.024a1.01 1.01 0 0 0-.293-.712c-.187-.189-.442-.295-.707-.295h-2c-.265 0-.52.106-.707.295a1.01 1.01 0 0 0-.293.712v.024zm3-2.513c0 .556-.448 1.007-1 1.007s-1-.451-1-1.007.448-1.007 1-1.007 1 .451 1 1.007z" class="F"/></g><rect x="44.9" y="49.15" width="30.2" height="23.45" rx="1.6" class="B C E"/><g class="D"><path d="M48.5 62.38a1 1 0 0 1 1-1h21a1 1 0 1 1 0 2h-21a1 1 0 0 1-1-1zm3.5 3l.6 1.2 1.2.15-.824.924.224 1.326-1.2-.6-1.2.6.226-1.326-.826-.924 1.2-.15.6-1.2zm4 0l.6 1.2 1.2.15-.824.924.224 1.326-1.2-.6-1.2.6.226-1.326-.826-.924 1.2-.15.6-1.2zm4 0l.6 1.2 1.2.15-.824.924.224 1.326-1.2-.6-1.2.6.226-1.326-.826-.924 1.2-.15.6-1.2zm4 0l.6 1.2 1.2.15-.824.924.224 1.326-1.2-.6-1.2.6.226-1.326-.826-.924 1.2-.15.6-1.2zm4 0l.6 1.2 1.2.15-.824.924.224 1.326-1.2-.6-1.2.6.226-1.326-.826-.924 1.2-.15.6-1.2z"/><path d="M60 52.38a3 3 0 1 0 0 6 3 3 0 1 0 0-6zm-2 5.054c.517.503 1.222.813 2 .813s1.483-.31 2-.813v-.024a1.01 1.01 0 0 0-.293-.712c-.187-.189-.442-.295-.707-.295h-2c-.265 0-.52.106-.707.295a1.01 1.01 0 0 0-.293.712v.024zm3-2.513c0 .556-.448 1.007-1 1.007s-1-.451-1-1.007.448-1.007 1-1.007 1 .451 1 1.007z" class="F"/></g><rect x="79.4" y="49.15" width="30.2" height="23.45" rx="1.6" class="B C E"/><g class="D"><path d="M83 62.38a1 1 0 0 1 1-1h21a1 1 0 1 1 0 2H84a1 1 0 0 1-1-1zm3.5 3l.6 1.2 1.2.15-.824.924.224 1.326-1.2-.6-1.2.6.226-1.326-.826-.924 1.2-.15.6-1.2zm4 0l.6 1.2 1.2.15-.824.924.224 1.326-1.2-.6-1.2.6.226-1.326-.826-.924 1.2-.15.6-1.2zm4 0l.6 1.2 1.2.15-.824.924.224 1.326-1.2-.6-1.2.6.226-1.326-.826-.924 1.2-.15.6-1.2zm4 0l.6 1.2 1.2.15-.824.924.224 1.326-1.2-.6-1.2.6.226-1.326-.826-.924 1.2-.15.6-1.2zm4 0l.6 1.2 1.2.15-.824.924.224 1.326-1.2-.6-1.2.6.226-1.326-.826-.924 1.2-.15.6-1.2z"/><path d="M94.5 52.38a3 3 0 1 0 0 6 3 3 0 1 0 0-6zm-2 5.054c.516.503 1.222.813 2 .813s1.484-.31 2-.813v-.024a1.01 1.01 0 0 0-.293-.712c-.187-.189-.442-.295-.707-.295h-2c-.265 0-.52.106-.707.295a1.01 1.01 0 0 0-.293.712v.024zm3-2.513c0 .556-.448 1.007-1 1.007s-1-.451-1-1.007.448-1.007 1-1.007 1 .451 1 1.007z" class="F"/></g></g><rect x="24.25" y="7.25" width="16.5" height="7.5" rx=".75" class="C D G"/><rect x="27.5" y="10" width="10" height="2" rx="1" class="B"/><rect x="45.25" y="7.25" width="21.5" height="7.5" rx=".75" class="C D G"/><rect x="49" y="10" width="14" height="2" rx="1" class="B"/><rect x="71.25" y="7.25" width="24.5" height="7.5" rx=".75" class="C D G"/><rect x="75.5" y="10" width="16" height="2" rx="1" class="B"/><defs><clipPath id="A"><path transform="translate(10 21)" d="M0 0h100v52H0z" class="B"/></clipPath><path id="B" d="M17.5 37.63l.6 1.2 1.2.15-.824.924.224 1.326-1.2-.6-1.2.6.226-1.326-.826-.924 1.2-.15.6-1.2z"/><path id="C" d="M25.5 24.63a3 3 0 1 0 0 6 3 3 0 1 0 0-6zm-2 5.054c.517.503 1.222.813 2 .813s1.483-.31 2-.813v-.024a1.01 1.01 0 0 0-.293-.712c-.187-.189-.442-.295-.707-.295h-2c-.265 0-.52.106-.707.295a1.01 1.01 0 0 0-.293.712v.024zm3-2.513c0 .556-.448 1.007-1 1.007s-1-.451-1-1.007.448-1.007 1-1.007 1 .451 1 1.007z"/><path id="D" d="M94.5 24.63a3 3 0 1 0 0 6 3 3 0 1 0 0-6zm-2 5.054c.516.503 1.222.813 2 .813s1.484-.31 2-.813v-.024a1.01 1.01 0 0 0-.293-.712c-.187-.189-.442-.295-.707-.295h-2c-.265 0-.52.106-.707.295a1.01 1.01 0 0 0-.293.712v.024zm3-2.513c0 .556-.448 1.007-1 1.007s-1-.451-1-1.007.448-1.007 1-1.007 1 .451 1 1.007z"/></defs></svg>