<svg xmlns="http://www.w3.org/2000/svg" viewBox="0 0 50 50"><path d="M25.4 0C12 0 1.1 10.9 1.1 24.4c0 4.6 1.3 8.8 3.4 12.5L.2 50l13.5-4.3c3.5 1.9 7.5 3 11.8 3 13.4 0 24.4-10.9 24.4-24.4C49.8 10.9 38.9 0 25.4 0zm11.9 33.7c-.8 1.4-2.3 2.4-3.9 2.7-5.1 1.1-10.5-2.9-13.8-6.3-2.4-2.5-4.8-5.7-5.9-9-1.1-3.2.4-9.6 4.9-8.6 1.1.2 1.3 1.2 1.6 2.1.5 1.3.9 2.5 1.4 3.8.1.3.1.7 0 1-.4.9-1.3 1.5-1.9 2.3-.9 1.4 2.6 4.8 3.6 5.7 1.3 1.2 3.3 3 5.1 3.2 1 .1 2.3-1.9 2.8-2.6.4-.5.7-.6 1.2-.4 1.7.7 3.3 1.7 5 2.6.5.2.7.6.6 1.1 0 .9-.2 1.7-.7 2.4z"/></svg>