<svg xmlns="http://www.w3.org/2000/svg" xmlns:xlink="http://www.w3.org/1999/xlink" width="94" height="60" fill="none"><style><![CDATA[.B{fill:#fff}.C{fill:#aab5bd}.D{fill:#718491}.E{fill-rule:evenodd}]]></style><rect x=".6" y=".6" width="92.8" height="58.8" rx="2.4" class="B"/><rect x=".6" y=".6" width="92.8" height="58.8" rx="2.4" stroke="#8796a1" stroke-width="1.2"/><rect x="6.08" y="22.32" width="19.466" height="15.36" rx=".986" stroke="#b7c0c7" stroke-width=".7"/><g class="C"><path d="M15.813 23.567c-1.344 0-2.433 1.116-2.433 2.493s1.089 2.493 2.433 2.493 2.433-1.116 2.433-2.493-1.089-2.493-2.433-2.493zm-1.622 4.2a2.29 2.29 0 0 0 3.244 0v-.02a.85.85 0 0 0-.238-.592.8.8 0 0 0-.573-.245h-1.622a.8.8 0 0 0-.573.245.85.85 0 0 0-.238.592v.02zm2.433-2.089c0 .462-.363.837-.811.837s-.811-.375-.811-.837.363-.837.811-.837.811.375.811.837z" class="E"/><rect x="9.73" y="29.801" width="12.166" height="1.247" rx=".623"/></g><rect x="7.328" y="31.972" width="16.97" height=".935" rx=".467" fill="#b7c0c7"/><g clip-path="url(#A)" class="C"><use xlink:href="#P"/></g><g clip-path="url(#B)" class="C"><use xlink:href="#Q"/></g><g clip-path="url(#C)" class="C"><path d="M15.813 34.268l.342.683.683.085-.469.526.128.755-.683-.342-.683.342.129-.755-.47-.526.683-.085.342-.683z"/></g><g clip-path="url(#D)" class="C"><path d="M18.091 34.268l.342.683.683.085-.469.526.128.755-.683-.342-.683.342.129-.755-.47-.526.683-.085.342-.683z"/></g><g clip-path="url(#E)" class="C"><path d="M20.369 34.268l.342.683.683.085-.469.526.128.755-.683-.342-.683.342.129-.755-.47-.526.683-.085.342-.683z"/></g><rect x="29.545" y="18" width="33.6" height="24" rx="1.681" stroke="#8796a1" stroke-width=".75"/><g class="D"><path d="M46.345 20.413a4.2 4.2 0 1 0 0 8.4 4.2 4.2 0 1 0 0-8.4zm-2.8 7.075a4 4 0 0 0 5.6 0v-.034c0-.374-.148-.733-.41-.997s-.619-.413-.99-.413h-2.8c-.371 0-.727.149-.99.413s-.41.623-.41.997v.034zm4.2-3.519c0 .779-.627 1.41-1.4 1.41s-1.4-.631-1.4-1.41.627-1.41 1.4-1.41 1.4.632 1.4 1.41z" class="E"/><rect x="35.846" y="30.413" width="21" height="1.6" rx=".8"/></g><rect x="32.545" y="33.587" width="27.6" height="1.2" rx=".6" fill="#8796a1"/><g clip-path="url(#F)" class="D"><use xlink:href="#R"/></g><g clip-path="url(#G)" class="D"><path d="M43.145 36.548l.48.96.96.12-.659.739.179 1.061-.96-.48-.96.48.181-1.061-.661-.739.96-.12.48-.96z"/></g><g clip-path="url(#H)" class="D"><path d="M46.346 36.548l.48.96.96.12-.659.739.179 1.061-.96-.48-.96.48.181-1.061-.661-.739.96-.12.48-.96z"/></g><g clip-path="url(#I)" class="D"><path d="M49.546 36.548l.48.96.96.12-.659.739.179 1.061-.96-.48-.96.48.181-1.061-.661-.739.96-.12.48-.96z"/></g><g clip-path="url(#J)" class="D"><path d="M52.746 36.548l.48.96.96.12-.659.739.179 1.061-.96-.48-.96.48.181-1.061-.661-.739.96-.12.48-.96z"/></g><rect x="67.145" y="22.32" width="20.763" height="15.36" rx=".986" stroke="#b7c0c7" stroke-width=".7"/><g class="C"><path d="M77.527 23.567c-1.344 0-2.433 1.116-2.433 2.493s1.089 2.493 2.433 2.493 2.433-1.116 2.433-2.493-1.089-2.493-2.433-2.493zm-1.622 4.2a2.29 2.29 0 0 0 3.244 0v-.02a.85.85 0 0 0-.238-.592.8.8 0 0 0-.574-.245h-1.622a.8.8 0 0 0-.574.245.85.85 0 0 0-.238.592v.02zm2.433-2.089c0 .462-.363.837-.811.837s-.811-.375-.811-.837.363-.837.811-.837.811.375.811.837z" class="E"/><rect x="71.444" y="29.801" width="12.166" height="1.247" rx=".623"/></g><rect x="68.393" y="31.972" width="18.268" height=".935" rx=".467" fill="#b7c0c7"/><g clip-path="url(#K)" class="C"><path d="M72.971 34.268l.342.683.683.085-.469.526.128.755-.683-.342-.683.342.129-.755-.47-.526.683-.085.342-.683z"/></g><g clip-path="url(#L)" class="C"><path d="M75.249 34.268l.342.683.683.085-.469.526.128.755-.683-.342-.683.342.129-.755-.47-.526.683-.085.342-.683z"/></g><g clip-path="url(#M)" class="C"><path d="M77.527 34.268l.342.683.683.085-.469.526.128.755-.683-.342-.683.342.129-.755-.47-.526.683-.085.342-.683z"/></g><g clip-path="url(#N)" class="C"><path d="M79.805 34.268l.342.683.683.085-.469.526.128.755-.683-.342-.683.342.129-.755-.47-.526.683-.085.342-.683z"/></g><g clip-path="url(#O)" class="C"><path d="M82.083 34.268l.342.683.683.085-.469.526.127.755-.683-.342-.683.342.129-.755-.47-.526.683-.085.342-.683z"/></g><defs><clipPath id="A"><path transform="translate(10.118 34.154)" d="M0 0h2.278v2.278H0z" class="B"/></clipPath><clipPath id="B"><path transform="translate(12.396 34.154)" d="M0 0h2.278v2.278H0z" class="B"/></clipPath><clipPath id="C"><path transform="translate(14.674 34.154)" d="M0 0h2.278v2.278H0z" class="B"/></clipPath><clipPath id="D"><path transform="translate(16.952 34.154)" d="M0 0h2.278v2.278H0z" class="B"/></clipPath><clipPath id="E"><path transform="translate(19.23 34.154)" d="M0 0h2.278v2.278H0z" class="B"/></clipPath><clipPath id="F"><path transform="translate(38.346 36.388)" d="M0 0h3.2v3.2H0z" class="B"/></clipPath><clipPath id="G"><path transform="translate(41.545 36.388)" d="M0 0h3.2v3.2H0z" class="B"/></clipPath><clipPath id="H"><path transform="translate(44.746 36.388)" d="M0 0h3.2v3.2H0z" class="B"/></clipPath><clipPath id="I"><path transform="translate(47.945 36.388)" d="M0 0h3.2v3.2H0z" class="B"/></clipPath><clipPath id="J"><path transform="translate(51.146 36.388)" d="M0 0h3.2v3.2H0z" class="B"/></clipPath><clipPath id="K"><path transform="translate(71.832 34.154)" d="M0 0h2.278v2.278H0z" class="B"/></clipPath><clipPath id="L"><path transform="translate(74.11 34.154)" d="M0 0h2.278v2.278H0z" class="B"/></clipPath><clipPath id="M"><path transform="translate(76.388 34.154)" d="M0 0h2.278v2.278H0z" class="B"/></clipPath><clipPath id="N"><path transform="translate(78.666 34.154)" d="M0 0h2.278v2.278H0z" class="B"/></clipPath><clipPath id="O"><path transform="translate(80.944 34.154)" d="M0 0h2.278v2.278H0z" class="B"/></clipPath><path id="P" d="M11.257 34.268l.342.683.683.085-.469.526.128.755-.683-.342-.683.342.129-.755-.47-.526.683-.085.342-.683z"/><path id="Q" d="M13.535 34.268l.342.683.683.085-.469.526.127.755-.683-.342-.683.342.129-.755-.47-.526.683-.085.342-.683z"/><path id="R" d="M39.946 36.548l.48.96.96.12-.659.739.179 1.061-.96-.48-.96.48.181-1.061-.661-.739.96-.12.48-.96z"/></defs></svg>