<svg xmlns="http://www.w3.org/2000/svg" width="120" height="80" fill="none"><style><![CDATA[.B{fill:#fff}.C{stroke:#718491}.D{stroke-width:.894}.E{fill:#718491}.F{fill-rule:evenodd}]]></style><rect x=".75" y=".75" width="118.5" height="78.5" rx="2.25" class="B"/><rect x=".75" y=".75" width="118.5" height="78.5" rx="2.25" stroke="#8796a1" stroke-width="1.5"/><rect x="17.376" y="11.298" width="25.1" height="24.345" rx="1.346" class="B C D"/><g class="E"><use href="#B"/><use href="#C"/><use href="#D"/><use href="#D" x="3.586"/><use href="#D" x="7.171"/><path d="M33.511 29.668l.538 1.076 1.076.134-.738.828.201 1.189-1.076-.538-1.076.538.203-1.189-.74-.828 1.076-.134.538-1.076z"/><use href="#D" x="14.342"/><use href="#E" class="F"/></g><rect x="47.145" y="11.298" width="25.1" height="24.345" rx="1.346" class="B C D"/><g class="E"><use href="#F"/><use href="#G"/><use href="#D" x="29.77"/><use href="#D" x="33.355"/><use href="#D" x="36.94"/><use href="#D" x="40.526"/><use href="#D" x="44.111"/><path d="M59.566 14.036a3.19 3.19 0 1 0 0 6.383 3.19 3.19 0 1 0 0-6.383zm-2.128 5.376a3.04 3.04 0 0 0 4.255 0v-.026c0-.284-.112-.557-.312-.758a1.06 1.06 0 0 0-.752-.314h-2.128a1.06 1.06 0 0 0-.752.314c-.2.201-.312.474-.312.758v.026zm3.192-2.674c0 .592-.476 1.072-1.064 1.072s-1.064-.48-1.064-1.072.476-1.072 1.064-1.072a1.07 1.07 0 0 1 1.064 1.072z" class="F"/></g><rect x="76.914" y="11.298" width="25.1" height="24.345" rx="1.346" class="B C D"/><g class="E"><use href="#H"/><use href="#I"/><use href="#D" x="59.539"/><use href="#D" x="63.124"/><use href="#D" x="66.709"/><use href="#D" x="70.295"/><use href="#D" x="73.88"/><use href="#J" class="F"/></g><rect x="17.376" y="40.953" width="25.1" height="24.345" rx="1.346" class="B C D"/><g class="E"><use href="#B" y="29.655"/><use href="#C" y="29.655"/><use href="#D" y="29.656"/><use href="#D" x="3.586" y="29.656"/><use href="#D" x="7.171" y="29.656"/><use href="#D" x="10.756" y="29.656"/><use href="#D" x="14.342" y="29.656"/><use href="#E" y="29.656" class="F"/></g><rect x="47.145" y="40.953" width="25.1" height="24.345" rx="1.346" class="B C D"/><g class="E"><use href="#F" y="29.655"/><use href="#G" y="29.655"/><use href="#D" x="29.77" y="29.656"/><use href="#D" x="33.355" y="29.656"/><use href="#D" x="36.94" y="29.656"/><use href="#D" x="40.526" y="29.656"/><use href="#D" x="44.111" y="29.656"/><use href="#E" x="29.769" y="29.656" class="F"/></g><rect x="76.914" y="40.953" width="25.1" height="24.345" rx="1.346" class="B C D"/><g class="E"><use href="#H" y="29.655"/><use href="#I" y="29.655"/><use href="#D" x="59.539" y="29.656"/><use href="#D" x="63.124" y="29.656"/><use href="#D" x="66.709" y="29.656"/><use href="#D" x="70.295" y="29.656"/><use href="#D" x="73.88" y="29.656"/><use href="#J" y="29.656" class="F"/></g><path d="M108.359 43.404l5.333-5.106-5.333-5.106m-96.051 0l-5.333 5.106 5.333 5.106" stroke-width="2.298" stroke-linecap="round" stroke-linejoin="round" class="C"/><defs ><path id="B" d="M19.618 23.394c0-.495.401-.896.896-.896h18.823c.495 0 .896.401.896.896s-.401.896-.896.896H20.515c-.495 0-.896-.401-.896-.896z"/><path id="C" d="M23.652 26.979c0-.495.401-.896.896-.896h10.756c.495 0 .896.401.896.896s-.401.896-.896.896H24.548c-.495 0-.896-.401-.896-.896z"/><path id="D" d="M22.755 29.668l.538 1.076 1.076.134-.739.828.201 1.189-1.076-.538-1.076.538.203-1.189-.74-.828 1.076-.134.538-1.076z"/><path id="E" d="M29.797 14.036a3.19 3.19 0 1 0 0 6.383 3.19 3.19 0 1 0 0-6.383zm-2.128 5.376a3.04 3.04 0 0 0 4.255 0v-.026c0-.284-.112-.557-.312-.758a1.06 1.06 0 0 0-.752-.314h-2.128a1.06 1.06 0 0 0-.752.314c-.2.201-.312.474-.312.758v.026zm3.192-2.674c0 .592-.476 1.072-1.064 1.072s-1.064-.48-1.064-1.072.476-1.072 1.064-1.072 1.064.48 1.064 1.072z"/><path id="F" d="M49.387 23.394c0-.495.401-.896.896-.896h18.823c.495 0 .896.401.896.896s-.401.896-.896.896H50.284c-.495 0-.896-.401-.896-.896z"/><path id="G" d="M53.421 26.979c0-.495.401-.896.896-.896h10.756c.495 0 .896.401.896.896s-.401.896-.896.896H54.317c-.495 0-.896-.401-.896-.896z"/><path id="H" d="M79.156 23.394c0-.495.401-.896.896-.896h18.823c.495 0 .896.401.896.896s-.401.896-.896.896H80.053c-.495 0-.896-.401-.896-.896z"/><path id="I" d="M83.19 26.979c0-.495.401-.896.896-.896h10.756c.495 0 .896.401.896.896s-.401.896-.896.896H84.086c-.495 0-.896-.401-.896-.896z"/><path id="J" d="M89.335 14.036a3.19 3.19 0 1 0 0 6.383 3.19 3.19 0 1 0 0-6.383zm-2.128 5.376a3.04 3.04 0 0 0 4.255 0v-.026c0-.284-.112-.557-.312-.758a1.06 1.06 0 0 0-.752-.314h-2.128a1.06 1.06 0 0 0-.752.314c-.2.201-.312.474-.312.758v.026zm3.191-2.674c0 .592-.476 1.072-1.064 1.072s-1.064-.48-1.064-1.072.476-1.072 1.064-1.072 1.064.48 1.064 1.072z"/></defs></svg>