<svg xmlns="http://www.w3.org/2000/svg" viewBox="0 0 122 40" xmlns:v="https://vecta.io/nano"><path d="M120,0H2C.9,0,0,.9,0,2v36c0,1.1.9,2,2,2h118c1.1,0,2-.9,2-2V2c0-1.1-.9-2-2-2ZM120.5,38c0,.3-.2.5-.5.5H2c-.3,0-.5-.2-.5-.5V2c0-.3.2-.5.5-.5h118c.3,0,.5.2.5.5v36Z" fill="#bbc2c7"/><path d="M21 11l3 6 6 .8-4.1 4.6L27 29l-6-3-6 3 1.1-6.6-4.1-4.6 6-.8 3-6zm20 0l3 6 6 .8-4.1 4.6L47 29l-6-3-6 3 1.1-6.6-4.1-4.6 6-.8 3-6zm20 0l3 6 6 .8-4.1 4.6L67 29l-6-3-6 3 1.1-6.6-4.1-4.6 6-.8 3-6zm20 0l3 6 6 .8-4.1 4.6L87 29l-6-3-6 3 1.1-6.6-4.1-4.6 6-.8 3-6zm20 0l3 6 6 .8-4.1 4.6L107 29l-6-3-6 3 1.1-6.6-4.1-4.6 6-.8 3-6z" fill="#ffb900"/></svg>