<svg xmlns="http://www.w3.org/2000/svg" viewBox="0 0 71 40" xmlns:v="https://vecta.io/nano"><path d="M68.9,0H2C.9,0,0,.9,0,2v36c0,1.1.9,2,2,2h66.9c1.1,0,2-.9,2-2V2c0-1.1-.9-2-2-2ZM69.4,38c0,.3-.2.5-.5.5H2c-.3,0-.5-.2-.5-.5V2c0-.3.2-.5.5-.5h66.9c.3,0,.5.2.5.5v36Z" fill="#bbc2c7"/><use href="#B"/><path d="M48.5 18.5v7.1h-1.4v-8.5h1.4v1.3zm2.7-1.4v1.3h-.4-.4c-.3 0-.6 0-.9.2-.3.1-.5.2-.6.4-.2.2-.3.4-.4.7 0 .3-.2.5-.2.8l-.4.2c0-.5 0-1 .1-1.4s.3-.8.5-1.2c.2-.3.5-.6.8-.8s.7-.3 1.2-.3h.4.3zm-7.8 7.1v-4.4c0-.3 0-.6-.2-.9-.1-.2-.3-.4-.6-.6-.3-.1-.6-.2-1-.2s-.7 0-1 .2c-.3.1-.5.3-.6.5-.2.2-.2.4-.2.7h-1.4c0-.3 0-.6.2-.9s.4-.6.7-.8.7-.4 1.1-.6c.4-.1.9-.2 1.4-.2s1.2.1 1.6.3c.5.2.8.5 1.1.9s.4.9.4 1.6v3.9.9c0 .3.1.6.2.8h0c0 .1-1.5.1-1.5.1 0-.2-.1-.4-.2-.7V24zm.2-3.7v1h-1.4c-.4 0-.8 0-1.1.1-.3 0-.6.2-.8.3s-.4.3-.5.5-.2.4-.2.7 0 .5.2.7c.1.2.3.4.5.5s.5.2.9.2.8 0 1.2-.3c.3-.2.6-.4.8-.7s.3-.5.3-.8l.6.7a1.08 1.08 0 0 1-.3.7c-.2.3-.4.5-.6.8l-1 .6c-.4.2-.8.2-1.2.2s-1.1-.1-1.5-.3-.8-.5-1-.9-.4-.8-.4-1.3 0-.9.3-1.2c.2-.3.4-.6.8-.9.3-.2.7-.4 1.2-.5s1-.2 1.6-.2h1.7zm-6.9-3.3v1.1h-4.6v-1.1h4.6zm-3.1-2.1H35v8.4c0 .3 0 .5.1.6 0 .1.2.2.3.3h.5.4.3v1.2c-.1 0-.3 0-.4.1h-.7c-.3 0-.7 0-1-.2-.3-.1-.5-.4-.7-.7s-.3-.8-.3-1.3v-8.4z"/><use href="#B" x="-27.6"/><path d="M13.6 20.2l-1.2-.3.6-5.7h5.8v1.3h-4.6l-.3 3.1c.2-.1.5-.2.8-.3s.7-.2 1.1-.2 1 0 1.4.3c.4.2.8.4 1.1.8.3.3.5.7.7 1.2s.2 1 .2 1.6 0 1-.2 1.5c-.1.5-.4.9-.7 1.2a4.44 4.44 0 0 1-1.1.8c-.4.2-1 .3-1.6.3s-.9 0-1.3-.2c-.4-.1-.8-.3-1.1-.6s-.6-.6-.8-1-.3-.9-.4-1.4h1.4c0 .4.2.8.4 1.1s.4.5.7.7c.3.1.7.2 1.1.2s.6 0 .9-.2c.3-.1.5-.3.7-.5s.3-.5.4-.8c0-.3.1-.7.1-1.1s0-.7-.1-1c0-.3-.2-.6-.4-.8s-.4-.4-.7-.5-.6-.2-1-.2-.9 0-1.1.2c-.2.1-.5.3-.8.5z"/><defs ><path id="B" d="M57.4 23.4c0-.2 0-.4-.1-.6 0-.2-.3-.3-.6-.5s-.7-.3-1.2-.4c-.5 0-.9-.2-1.3-.4-.4-.1-.7-.3-1-.5s-.5-.4-.6-.7-.2-.6-.2-.9 0-.6.2-.9.4-.6.6-.8c.3-.2.6-.4 1-.5s.8-.2 1.3-.2c.7 0 1.3.1 1.7.4.5.2.8.6 1.1 1s.4.8.4 1.3h-1.4c0-.2 0-.5-.2-.7-.1-.2-.3-.4-.6-.6-.3-.1-.6-.2-1-.2s-.7 0-1 .2c-.2.1-.4.3-.5.5s-.2.4-.2.6v.4c0 .1.2.2.3.3.1 0 .3.2.6.3.3 0 .6.2 1 .3.7.2 1.3.3 1.7.6.4.2.8.5 1 .8s.3.7.3 1.2 0 .7-.2 1-.4.6-.7.8-.6.4-1 .5-.8.2-1.3.2c-.7 0-1.4-.1-1.9-.4s-.9-.6-1.2-1-.4-.9-.4-1.3h1.5c0 .4.1.7.3.9s.5.4.8.5c.3 0 .6.1.9.1s.7 0 1-.2c.3-.1.5-.2.6-.4s.2-.4.2-.6z"/></defs></svg>