<svg height="512pt" viewBox="-103 0 512 512.001" width="512pt" xmlns="http://www.w3.org/2000/svg"><path d="m269.171875 0h-9.421875c-4.144531 0-7.5 3.355469-7.5 7.5s3.355469 7.5 7.5 7.5h9.421875c11.910156 0 21.601563 9.6875 21.601563 21.597656v67.394532h-275.773438v-67.394532c0-11.90625 9.691406-21.597656 21.597656-21.597656h188.152344c4.140625 0 7.5-3.355469 7.5-7.5s-3.359375-7.5-7.5-7.5h-188.152344c-20.179687 0-36.597656 16.417969-36.597656 36.597656v263.675782c0 4.144531 3.359375 7.5 7.5 7.5 4.144531 0 7.5-3.355469 7.5-7.5v-181.28125h275.773438v274.015624h-275.773438v-57.734374c0-4.140626-3.355469-7.5-7.5-7.5-4.140625 0-7.5 3.359374-7.5 7.5v140.128906c0 20.179687 16.417969 36.597656 36.597656 36.597656h232.574219c20.183594 0 36.601563-16.417969 36.601563-36.597656v-438.804688c0-20.179687-16.417969-36.597656-36.601563-36.597656zm0 497h-232.574219c-11.90625 0-21.597656-9.6875-21.597656-21.597656v-67.394532h275.773438v67.394532c0 11.910156-9.691407 21.597656-21.601563 21.597656zm0 0"/><path d="m162.144531 421.972656h-18.515625c-12.390625 0-22.472656 10.082032-22.472656 22.472656v18.589844c0 12.394532 10.082031 22.476563 22.472656 22.476563h18.515625c12.390625 0 22.472657-10.082031 22.472657-22.476563v-18.589844c0-12.390624-10.082032-22.472656-22.472657-22.472656zm7.472657 41.0625c0 4.121094-3.355469 7.472656-7.472657 7.472656h-18.515625c-4.121094 0-7.472656-3.351562-7.472656-7.472656v-18.589844c0-4.121093 3.351562-7.472656 7.472656-7.472656h18.515625c4.117188 0 7.472657 3.351563 7.472657 7.472656zm0 0"/><path d="m92.554688 51.996094c-4.144532 0-7.5 3.355468-7.5 7.5 0 4.144531 3.355468 7.5 7.5 7.5h120.664062c4.144531 0 7.5-3.355469 7.5-7.5 0-4.144532-3.355469-7.5-7.5-7.5zm0 0"/></svg>