<svg id="Capa_1" enable-background="new 0 0 512 512" height="512" viewBox="0 0 512 512" width="512" xmlns="http://www.w3.org/2000/svg"><circle cx="211" cy="37.5" r="7.5"/><circle cx="301" cy="37.5" r="7.5"/><path d="m241 45h30c4.143 0 7.5-3.358 7.5-7.5s-3.357-7.5-7.5-7.5h-30c-4.143 0-7.5 3.358-7.5 7.5s3.357 7.5 7.5 7.5z"/><path d="m413.5 0h-315c-20.678 0-37.5 16.822-37.5 37.5v437c0 20.678 16.822 37.5 37.5 37.5h315c20.678 0 37.5-16.822 37.5-37.5v-437c0-20.678-16.822-37.5-37.5-37.5zm22.5 474.5c0 12.407-10.094 22.5-22.5 22.5h-315c-12.406 0-22.5-10.093-22.5-22.5v-437c0-12.407 10.094-22.5 22.5-22.5h315c12.406 0 22.5 10.093 22.5 22.5z"/><path d="m413.5 60h-315c-4.143 0-7.5 3.358-7.5 7.5v173.5c0 4.142 3.357 7.5 7.5 7.5s7.5-3.358 7.5-7.5v-166h300v362h-300v-166c0-4.142-3.357-7.5-7.5-7.5s-7.5 3.358-7.5 7.5v173.5c0 4.142 3.357 7.5 7.5 7.5h315c4.143 0 7.5-3.358 7.5-7.5v-377c0-4.142-3.357-7.5-7.5-7.5z"/></svg>