<svg xmlns="http://www.w3.org/2000/svg" width="250" height="161" fill="none" xmlns:v="https://vecta.io/nano"><path fill="#fff" d="M0 0h250v161H0z"/><rect x="79.5" y="130.5" width="11" height="11" rx="5.5" fill="#ffd9f1" stroke="#f21197"/><text fill="#546069" xml:space="preserve" style="white-space:pre" font-family="Roboto" font-size="12" font-weight="600" letter-spacing="0em"><tspan x="95" y="140.031">Inner Padding</tspan></text><rect x="26.5" y="31.5" width="197" height="84" rx="3.5" fill="#fff"/><rect x="26.5" y="31.5" width="197" height="84" rx="3.5" stroke="#bbc2c7"/><rect x="38.463" y="42.033" width="53.074" height="62.934" rx="2.007" stroke="#718491" stroke-width=".926"/><g fill="#58707f"><path fill-rule="evenodd" d="M45.455 47.57h39.089A1.46 1.46 0 0 1 86 49.025v27.655a1.46 1.46 0 0 1-1.455 1.455H45.455A1.46 1.46 0 0 1 44 76.681V49.025a1.46 1.46 0 0 1 1.455-1.455zm8.395 7.48c2.138 0 3.874 1.732 3.874 3.869s-1.736 3.874-3.874 3.874-3.869-1.736-3.869-3.874a3.87 3.87 0 0 1 3.869-3.869zm-6.482-4.115h35.265v19.64c-7.03-1.226-10.727-11.107-15.14-11.107-4.703 0-10.943 11.107-14.307 11.107-2.859 0-3.131-2.941-5.817-4.271V50.934z"/><rect x="47.706" y="84.136" width="34.588" height="3.706" rx="1.853"/><rect x="47.706" y="91.842" width="34.588" height="3.088" rx="1.544"/><rect x="52.647" y="97.401" width="24.706" height="3.088" rx="1.544"/></g><rect x="98.463" y="42.033" width="53.074" height="62.934" rx="2.007" stroke="#718491" stroke-width=".926"/><g fill="#58707f"><path fill-rule="evenodd" d="M105.455 47.57h39.09A1.46 1.46 0 0 1 146 49.025v27.655a1.46 1.46 0 0 1-1.455 1.455h-39.09A1.46 1.46 0 0 1 104 76.681V49.025a1.46 1.46 0 0 1 1.455-1.455zm8.395 7.48c2.138 0 3.874 1.732 3.874 3.869s-1.736 3.874-3.874 3.874-3.869-1.736-3.869-3.874a3.87 3.87 0 0 1 3.869-3.869zm-6.482-4.115h35.265v19.64c-7.03-1.226-10.727-11.107-15.141-11.107-4.702 0-10.943 11.107-14.307 11.107-2.858 0-3.13-2.941-5.817-4.271V50.934z"/><rect x="107.706" y="84.136" width="34.588" height="3.706" rx="1.853"/><rect x="107.706" y="91.842" width="34.588" height="3.088" rx="1.544"/><rect x="112.647" y="97.401" width="24.706" height="3.088" rx="1.544"/></g><rect x="158.463" y="42.504" width="53.074" height="61.993" rx="2.007" stroke="#718491" stroke-width=".926"/><g fill="#58707f"><path fill-rule="evenodd" d="M165.455 48.041h39.09A1.46 1.46 0 0 1 206 49.496v27.655a1.46 1.46 0 0 1-1.455 1.455h-39.09A1.46 1.46 0 0 1 164 77.151V49.496a1.46 1.46 0 0 1 1.455-1.455zm8.395 7.48c2.138 0 3.874 1.732 3.874 3.869s-1.736 3.874-3.874 3.874-3.869-1.736-3.869-3.874a3.87 3.87 0 0 1 3.869-3.869zm-6.482-4.116h35.265v19.64c-7.03-1.226-10.727-11.107-15.141-11.107-4.702 0-10.943 11.107-14.307 11.107-2.858 0-3.13-2.941-5.817-4.271V51.405z"/><rect x="167.706" y="82.607" width="34.588" height="3.706" rx="1.853"/><rect x="167.706" y="90.313" width="34.588" height="3.088" rx="1.544"/><rect x="172.647" y="95.871" width="24.706" height="3.088" rx="1.544"/></g><path d="M205.5 46.991h-41v-3h41zm0 56h-41v-3h41zm4.5-.05h-3v-59h3zm-47 0h-3v-59h3z" fill="#ffd9f1" stroke="#f21197"/><path d="M175 137a4 4 0 1 0 8 0 4 4 0 1 0-8 0zm59 0v.75a.75.75 0 0 0 .75-.75H234zm0-62h.75a.75.75 0 0 0-.75-.75V75zm-20.5 0l7.5 4.33v-8.66L213.5 75zM179 137.75h55v-1.5h-55v1.5zm55.75-.75V75h-1.5v62h1.5zM234 74.25h-13.75v1.5H234v-1.5z" fill="#f21197"/></svg>