<svg xmlns="http://www.w3.org/2000/svg" xmlns:xlink="http://www.w3.org/1999/xlink" width="250" height="200" fill="none" xmlns:v="https://vecta.io/nano"><style><![CDATA[.B{stroke:#718491}.C{stroke-width:.926}.D{fill:#58707f}.E{fill-rule:evenodd}.F{font-family:Roboto}]]></style><path fill="#fff" d="M0 0h250v200H0z"/><rect x="50.5" y="173.5" width="11" height="11" rx="5.5" fill="#ffdccc" stroke="#ff5a08"/><text fill="#546069" xml:space="preserve" style="white-space:pre" font-size="12" font-weight="600" letter-spacing="0em" class="F"><tspan x="66" y="183.031">Gap</tspan></text><rect x="118.5" y="173.5" width="11" height="11" rx="5.5" fill="#ffd9f1" stroke="#f21197"/><text fill="#546069" xml:space="preserve" style="white-space:pre" font-size="12" font-weight="600" letter-spacing="0em" class="F"><tspan x="134" y="183.031">Vertical Gap</tspan></text><rect x="20.5" y="15.5" width="209" height="146" rx="3.5" fill="#fff"/><rect x="20.5" y="15.5" width="209" height="146" rx="3.5" stroke="#bbc2c7"/><rect x="30.963" y="28.14" width="41.074" height="55.897" rx="2.007" class="B C"/><g class="D"><path d="M31.955 27.677h39.089a1.46 1.46 0 0 1 1.455 1.455v28.192h-1.455-39.089H30.5V29.132a1.46 1.46 0 0 1 1.455-1.455zm8.395 7.48c2.138 0 3.874 1.732 3.874 3.869s-1.736 3.874-3.874 3.874-3.869-1.736-3.869-3.874a3.87 3.87 0 0 1 3.869-3.869zm-6.482-4.116h35.265v19.64c-7.03-1.226-10.727-11.107-15.14-11.107-4.703 0-10.943 11.107-14.307 11.107-2.859 0-3.131-2.941-5.817-4.271V31.041z" class="E"/><rect x="34.206" y="62.265" width="34.588" height="3.706" rx="1.853"/><rect x="34.206" y="70.912" width="34.588" height="3.088" rx="1.544"/><rect x="39.147" y="76.471" width="24.706" height="3.088" rx="1.544"/></g><rect x="79.963" y="28.14" width="41.074" height="55.897" rx="2.007" class="B C"/><g class="D"><path d="M80.955 27.677h39.09a1.46 1.46 0 0 1 1.455 1.455v28.192h-1.455-39.09H79.5V29.132a1.46 1.46 0 0 1 1.455-1.455zm8.395 7.48c2.138 0 3.874 1.732 3.874 3.869s-1.736 3.874-3.874 3.874-3.869-1.736-3.869-3.874a3.87 3.87 0 0 1 3.869-3.869zm-6.482-4.116h35.265v19.64c-7.03-1.226-10.727-11.107-15.141-11.107-4.702 0-10.943 11.107-14.307 11.107-2.859 0-3.131-2.941-5.817-4.271V31.041z" class="E"/><rect x="83.206" y="62.265" width="34.588" height="3.706" rx="1.853"/><rect x="83.206" y="70.912" width="34.588" height="3.088" rx="1.544"/><rect x="88.147" y="76.471" width="24.706" height="3.088" rx="1.544"/></g><rect x="128.963" y="28.14" width="41.074" height="55.897" rx="2.007" class="B C"/><g class="D"><use xlink:href="#B" class="E"/><rect x="132.206" y="62.265" width="34.588" height="3.706" rx="1.853"/><rect x="132.206" y="70.912" width="34.588" height="3.088" rx="1.544"/><rect x="137.147" y="76.471" width="24.706" height="3.088" rx="1.544"/></g><rect x="177.963" y="28.14" width="41.074" height="55.897" rx="2.007" class="B C"/><g class="D"><use xlink:href="#B" x="49" class="E"/><rect x="181.206" y="62.265" width="34.588" height="3.706" rx="1.853"/><rect x="181.206" y="70.912" width="34.588" height="3.088" rx="1.544"/><rect x="186.147" y="76.471" width="24.706" height="3.088" rx="1.544"/></g><rect x="30.963" y="92.963" width="41.074" height="55.897" rx="2.007" class="B C"/><g class="D"><path d="M31.955 92.5h39.089a1.46 1.46 0 0 1 1.455 1.455v28.192h-1.455-39.089H30.5V93.955a1.46 1.46 0 0 1 1.455-1.455zm8.395 7.48c2.138 0 3.874 1.731 3.874 3.869s-1.736 3.874-3.874 3.874-3.869-1.736-3.869-3.874a3.87 3.87 0 0 1 3.869-3.869zm-6.482-4.116h35.265v19.64c-7.03-1.226-10.727-11.107-15.14-11.107-4.703 0-10.943 11.107-14.307 11.107-2.859 0-3.131-2.94-5.817-4.27v-15.37z" class="E"/><rect x="34.206" y="127.088" width="34.588" height="3.706" rx="1.853"/><rect x="34.206" y="135.735" width="34.588" height="3.088" rx="1.544"/><rect x="39.147" y="141.294" width="24.706" height="3.088" rx="1.544"/></g><rect x="79.963" y="92.963" width="41.074" height="55.897" rx="2.007" class="B C"/><g class="D"><path d="M80.955 92.5h39.09a1.46 1.46 0 0 1 1.455 1.455v28.192h-1.455-39.09H79.5V93.955a1.46 1.46 0 0 1 1.455-1.455zm8.395 7.48c2.138 0 3.874 1.731 3.874 3.869s-1.736 3.874-3.874 3.874-3.869-1.736-3.869-3.874a3.87 3.87 0 0 1 3.869-3.869zm-6.482-4.116h35.265v19.64c-7.03-1.226-10.727-11.107-15.141-11.107-4.702 0-10.943 11.107-14.307 11.107-2.859 0-3.131-2.94-5.817-4.27v-15.37z" class="E"/><rect x="83.206" y="127.088" width="34.588" height="3.706" rx="1.853"/><rect x="83.206" y="135.735" width="34.588" height="3.088" rx="1.544"/><rect x="88.147" y="141.294" width="24.706" height="3.088" rx="1.544"/></g><rect x="128.963" y="92.963" width="41.074" height="55.897" rx="2.007" class="B C"/><g class="D"><use xlink:href="#C" class="E"/><rect x="132.206" y="127.088" width="34.588" height="3.706" rx="1.853"/><rect x="132.206" y="135.735" width="34.588" height="3.088" rx="1.544"/><rect x="137.147" y="141.294" width="24.706" height="3.088" rx="1.544"/></g><rect x="177.963" y="92.963" width="41.074" height="55.897" rx="2.007" class="B C"/><g class="D"><use xlink:href="#C" x="49" class="E"/><rect x="181.206" y="127.088" width="34.588" height="3.706" rx="1.853"/><rect x="181.206" y="135.735" width="34.588" height="3.088" rx="1.544"/><rect x="186.147" y="141.294" width="24.706" height="3.088" rx="1.544"/></g><g stroke="#ff5a08" fill="#ffdccc"><path transform="rotate(90 176.5 93.5)" d="M176.5 93.5h55v5h-55z"/><path transform="rotate(90 176.5 28.5)" d="M176.5 28.5h55v5h-55z"/><path transform="rotate(90 127.5 93.5)" d="M127.5 93.5h55v5h-55z"/><path transform="rotate(90 127.5 28.5)" d="M127.5 28.5h55v5h-55z"/><path transform="rotate(90 78.5 93.5)" d="M78.5 93.5h55v5h-55z"/><path transform="rotate(90 78.5 28.5)" d="M78.5 28.5h55v5h-55z"/></g><path fill="#ffd9f1" stroke="#f21197" d="M219 91.5H31v-5h188z"/><path d="M203.5 181a4 4 0 1 0 8 0 4 4 0 1 0-8 0zm35 0v.75a.75.75 0 0 0 .75-.75h-.75zm0-92h.75a.75.75 0 0 0-.75-.75V89zM220 89l7.5 4.33v-8.66L220 89zm-12.5 92.75h31v-1.5h-31v1.5zm31.75-.75V89h-1.5v92h1.5zm-.75-92.75h-11.75v1.5h11.75v-1.5z" fill="#f21197"/><path d="M90.5 180a4 4 0 1 0 8 0 4 4 0 1 0-8 0zm18.5 0v.75a.75.75 0 0 0 .75-.75H109zm0-12.5h.75a.75.75 0 0 0-.75-.75v.75zm-33 0h-.75a.75.75 0 0 0 .75.75v-.75zm0-16.5l-4.33 7.5h8.66L76 151zm18.5 29.75H109v-1.5H94.5v1.5zm15.25-.75v-12.5h-1.5V180h1.5zm-.75-13.25H76v1.5h33v-1.5zm-32.25.75v-9.75h-1.5v9.75h1.5z" fill="#ff5a08"/><defs ><path id="B" d="M129.955 27.677h39.09a1.46 1.46 0 0 1 1.455 1.455v28.192h-1.455-39.09-1.455V29.132a1.46 1.46 0 0 1 1.455-1.455zm8.395 7.48c2.138 0 3.874 1.732 3.874 3.869s-1.736 3.874-3.874 3.874-3.869-1.736-3.869-3.874a3.87 3.87 0 0 1 3.869-3.869zm-6.482-4.116h35.265v19.64c-7.03-1.226-10.727-11.107-15.141-11.107-4.702 0-10.943 11.107-14.307 11.107-2.858 0-3.13-2.941-5.817-4.271V31.041z"/><path id="C" d="M129.955 92.5h39.09a1.46 1.46 0 0 1 1.455 1.455v28.192h-1.455-39.09-1.455V93.955a1.46 1.46 0 0 1 1.455-1.455zm8.395 7.48c2.138 0 3.874 1.731 3.874 3.869s-1.736 3.874-3.874 3.874-3.869-1.736-3.869-3.874a3.87 3.87 0 0 1 3.869-3.869zm-6.482-4.116h35.265v19.64c-7.03-1.226-10.727-11.107-15.141-11.107-4.702 0-10.943 11.107-14.307 11.107-2.858 0-3.13-2.94-5.817-4.27v-15.37z"/></defs></svg>