<?xml version="1.0" standalone="no"?>
<!DOCTYPE svg PUBLIC "-//W3C//DTD SVG 1.1//EN" "http://www.w3.org/Graphics/SVG/1.1/DTD/svg11.dtd">
<svg xmlns="http://www.w3.org/2000/svg">
<metadata>Copyright (C) 2024 by original authors @ fontello.com</metadata>
<defs>
<font id="fontello" horiz-adv-x="1000" >
<font-face font-family="fontello" font-weight="400" font-stretch="normal" units-per-em="1000" ascent="850" descent="-150" />
<missing-glyph horiz-adv-x="1000" />
<glyph glyph-name="sps-icon-3" unicode="&#xe800;" d="M937 850h-874c-35 0-63-28-63-63v-874c0-35 28-63 63-63h874c35 0 63 28 63 63v874c0 35-28 63-63 63z m-289-152h196v-167h-196v167z m-246 0h196v-167h-196v167z m-247 0h196v-167h-196v167z m308-696h-308v177h308v-177z m0 239h-308v176h308v-176z m382-239h-307v177h307v-177z m0 238h-307v176h307v-176z" horiz-adv-x="1000" />

<glyph glyph-name="external_link" unicode="&#xe801;" d="M905 800h-287c-23 0-42-19-42-42s19-42 42-42h191l-409-408a41 41 0 1 1 59-59l404 404v-182c0-23 19-42 42-42s41 19 41 42v287c0 23-18 42-41 42h0z m-144-420c-23 0-42-18-42-41v-329c0-15-13-28-28-28h-531c-15 0-27 13-27 28v531c0 15 12 28 27 28h330c23 0 42 18 42 41s-19 42-42 42h-330c-61 0-111-50-111-111v-531c0-61 50-111 111-111h531c62 0 111 50 111 111v329c0 23-18 41-41 41h0z" horiz-adv-x="1000" />

<glyph glyph-name="filter" unicode="&#xe81d;" d="M604-150c-11 0-22 3-32 9l-208 125c-10 5-17 13-22 23-6 9-9 20-9 31v215l-248 304c-28 32-44 73-43 116 0 47 18 92 52 125 33 33 78 52 125 52l562 0c34 0 68-10 96-28 29-19 52-45 66-77 14-31 18-65 13-99-5-34-20-65-42-91l-247-304v-339c0-16-7-32-19-44-11-11-27-18-44-18z m-146 223l84-50v250c0 14 5 28 14 39l262 324c10 10 15 23 15 37 0 14-5 27-15 37-10 10-23 15-37 15h-562c-10 0-20-3-28-8-9-6-16-14-20-23-4-9-5-19-4-29 2-10 6-19 13-27l264-323c9-12 14-26 14-40v-202z" horiz-adv-x="1000" />

<glyph glyph-name="timeline" unicode="&#xe81e;" d="M856-119h-400c-75 0-143 63-143 138v212l-63 57c-19 12-25 31-25 56 0 19 0 44 19 56 0 0 0 0 6 6l63 50v213c0 75 62 137 143 137h400c75 0 144-62 144-137v-656c0-76-62-132-144-132z m-518 469l62-56c13-13 19-25 19-38v-237c0-25 19-44 44-44h400c25 0 43 19 43 44v656c0 25-18 44-43 44h-400c-25 0-44-19-44-44v-237c0-13 0-25-19-38l-62-56v6z m-338 0c0-50 44-94 94-94 50 0 94 38 94 94 0 119-182 119-182 0h-6z m94 363h-6c-21 0-38-17-38-38v-150c0-21 17-37 38-37h6c21 0 37 16 37 37v150c0 21-16 38-37 38z m0-500h-6c-21 0-38-17-38-38v-150c0-21 17-38 38-38h6c21 0 37 17 37 38v150c0 21-16 38-37 38z" horiz-adv-x="1000" />

<glyph glyph-name="detail-page" unicode="&#xe81f;" d="M619 789c0 34 27 61 61 61h259c34 0 61-27 61-61v-259c0-34-27-61-61-61-34 0-61 27-61 61v112l-327-328c-24-23-63-23-87 0-23 24-23 63 0 87l328 327h-112c-34 0-61 27-61 61z m-436 7c-101 0-183-82-183-183v-580c0-101 82-183 183-183h580c101 0 183 82 183 183v244c0 34-28 61-61 61-34 0-61-27-61-61v-244c0-34-28-61-61-61h-580c-34 0-61 27-61 61v580c0 33 27 61 61 61h244c34 0 61 27 61 61 0 33-27 61-61 61h-244z" horiz-adv-x="1000" />

<glyph glyph-name="typography" unicode="&#xe820;" d="M650 650h-300c-37 0-75-19-106-44-31-25-44-68-44-106v-50h100v50c0 13 0 25 13 38 12 12 25 12 37 12h100v-400h-137c-7 0-13 0-13-12v-75c0-7 0-13 13-13h375c6 0 12 0 12 13v75c0 6 0 12-12 12h-138v400h100c13 0 25 0 38-12 12-13 12-25 12-38v-50h100v50c0 38-19 75-44 106-25 32-68 44-106 44z m200 200h-700c-37 0-75-19-106-44-31-31-44-68-44-106v-700c0-38 19-75 44-106 25-32 69-44 106-44h700c38 0 75 19 106 44 32 25 44 68 44 106v700c0 38-19 75-44 106-25 32-68 44-106 44z m50-850c0-13 0-25-12-38-13-12-25-12-38-12h-700c-12 0-25 0-37 12-13 13-13 25-13 38v700c0 13 0 25 13 38 12 12 25 12 37 12h700c13 0 25 0 38-12 12-13 12-25 12-38v-700z" horiz-adv-x="1000" />

<glyph glyph-name="accordion" unicode="&#xe821;" d="M906 563h-812c-56 0-94 43-94 93v94c0 56 44 100 94 100h806c56 0 94-44 94-94v-93c0-57-44-94-94-94l6-6z m-800 100h782c0 0 6 0 6 6v69c0 0 0 6-6 6h-782c0 0-6 0-6-6v-69c0 0 0-6 6-6z m800-813h-812c-56 0-94 44-94 94v450c0 56 44 94 94 94h806c56 0 94-44 94-94v-450c0-57-44-94-94-94h6z m-800 100h782c0 0 6 0 6 6v425c0 0 0 7-6 7h-782c0 0-6 0-6-7v-425c0 0 0-6 6-6z" horiz-adv-x="1000" />

<glyph glyph-name="carousel-settings" unicode="&#xe822;" d="M768 850h-536c-128 0-232-104-232-232v-536c0-128 104-232 232-232h536c128 0 232 104 232 232v536c0 128-104 232-232 232z m-662-232c0 70 56 126 126 126h536c69 0 126-56 126-126v-536c0-69-57-126-126-126h-536c-70 0-126 57-126 126v536z m126-134h53c25-69 102-105 171-80 38 14 67 43 81 80h231c25 0 45 20 45 45 0 24-20 44-45 44h-231c-26 70-103 106-172 81-37-14-67-43-80-81h-53c-25 0-45-20-45-44 0-25 20-45 45-45z m179 89c24 0 44-20 44-44 0-25-20-45-44-45-25 0-45 20-45 45 0 24 20 44 45 44z m-179-446h231c26-70 103-106 172-81 37 14 67 43 80 81h53c25 0 45 20 45 44 0 25-20 45-45 45h-53c-25 69-102 105-171 80-38-14-67-43-81-80h-231c-25 0-45-20-45-45 0-24 20-44 45-44z m357 89c25 0 45-20 45-45 0-24-20-44-45-44-24 0-44 20-44 44 0 25 20 45 44 45z" horiz-adv-x="1000" />

<glyph glyph-name="display-s" unicode="&#xe823;" d="M388 381h-307c-43 0-81 38-81 82v306c0 44 38 81 81 81h307c43 0 81-37 81-81v-306c0-44-38-82-81-82z m-282 94h257c0 0 12 0 12 13v256c0 0 0 12-12 12h-257c0 0-12 0-12-12v-256c0 0 0-13 12-13z m813-94h-306c-44 0-82 38-82 82v306c0 44 38 81 82 81h306c44 0 81-37 81-81v-306c0-44-37-82-81-82z m-281 94h256c0 0 12 0 12 13v256c0 0 0 12-12 12h-256c0 0-13 0-13-12v-256c0 0 0-13 13-13z m-250-625h-307c-43 0-81 37-81 81v307c0 43 38 81 81 81h307c43 0 81-38 81-81v-307c0-44-38-81-81-81z m-282 94h257c0 0 12 0 12 12v257c0 0 0 12-12 12h-257c0 0-12 0-12-12v-257c0 0 0-12 12-12z m813-94h-306c-44 0-82 37-82 81v307c0 43 38 81 82 81h306c44 0 81-38 81-81v-307c0-44-37-81-81-81z m-281 94h256c0 0 12 0 12 12v257c0 0 0 12-12 12h-256c0 0-13 0-13-12v-257c0 0 0-12 13-12z" horiz-adv-x="1000" />

<glyph glyph-name="basic-style-01-1" unicode="&#xe824;" d="M529 500l263 304c16 25 46 42 75 46 29 4 62 0 87-21 25-16 42-46 46-75 4-29 0-62-21-87l-283-325c8-59-8-121-54-167-71-71-154-83-234-83-79 0-195 66-200 66-12 9-16 21-16 38 0 12 12 25 25 29 58 21 71 63 87 108 13 38 29 80 63 113 37 37 87 54 137 54 9 0 17 0 21 0h4z m75-29c13-8 25-17 34-29 8-9 16-17 20-25l255 291c4 9 8 17 4 30 0 8-9 20-17 25-8 4-17 8-29 8-8 0-21-8-25-17l-246-283h4z m-21-79c-20 21-50 33-79 33-29 0-62-12-83-33-21-21-33-50-42-84-12-37-29-83-71-120 25-13 63-21 100-21 71 0 130 8 175 58 46 46 46 121 0 167z m317 37v-454c0-13-8-21-21-21h-758c-13 0-21 8-21 21v754c0 13 8 21 21 21h454c29 0 50 21 50 50 0 29-21 50-50 50h-454c-67 0-121-54-121-121v-754c0-67 54-121 121-121h754c67 0 121 54 121 121v454c0 29-21 50-50 50-29 0-46-21-46-50z" horiz-adv-x="1000" />

<glyph glyph-name="content-1" unicode="&#xe825;" d="M781 606h-562c-25 0-50-18-50-56 0-37 25-56 50-56h562c25 0 50 25 50 56 0 31-25 56-50 56z m0-200h-562c-25 0-50-18-50-56 0-37 25-56 50-56h562c25 0 50 25 50 56 0 31-25 56-50 56z m-218-200h-344c-25 0-50-25-50-56 0-31 25-56 50-56h344c25 0 50 25 50 56 0 31-25 56-50 56z m312 644h-750c-69 0-125-56-125-125v-750c0-69 56-125 125-125h750c69 0 125 56 125 125v750c0 69-56 125-125 125z m25-875c0-13-12-25-25-25h-750c-12 0-25 12-25 25v750c0 13 13 25 25 25h750c13 0 25-12 25-25v-750z" horiz-adv-x="1000" />

<glyph glyph-name="ad" unicode="&#xe826;" d="M759 691l50 72c12 19 9 44-11 58-19 13-44 9-59-10l-50-72c-12-19-9-44 11-59 20-12 45-9 59 11z m5-130c13-20 38-27 57-15l122 72c20 12 27 37 14 57-12 20-37 27-57 14l-121-71c-20-13-27-38-15-57z m54-202c0 2-2 5-4 7l-187 338c-7 14-20 26-27 34-4 3-7 5-11 7-5 3-12 5-18 7-5 2-8 3-10 5-6 4-13 4-18 4-13 0-27 0-47-7-1 0-3 0-5-2-7-4-14-7-21-13-6-3-13-10-20-21l-252-295c0 0 0 0-2 0l-112-66c0 0-2 0-4-2-32-23-62-51-75-98-10-43-5-91 16-130 11-22 29-39 40-50 19-20 43-31 66-36 0 0 0 0 2 0 14-3 41-11 67-3 6 0 11 1 17 3l62-112c14-29 38-43 64-50 24-6 54-8 82 12 13 7 20 14 27 21 4 4 6 8 7 11l13 25c9 18 11 36 3 54-1 14-8 27-10 32 0 0 0 0 0 2l-52 89 332 75h4c16 5 25 11 34 14 3 2 7 6 10 7 7 8 20 20 27 34 5 11 7 22 7 31 0 7 0 16 0 21 0 22-2 43-5 52z m-604-232c-12-7-21-9-35-13-6 0-11 0-31 4-10 3-19 7-27 14-12 13-21 22-25 31 0 0 0 0 0 1-10 20-14 45-8 70 5 18 16 32 41 50l75 45 62-113 25-45-75-44h-2z m176-159c0 0-4-2-6-4-2 0-4-2-7-3-2-2-4-2-6-2 0 0-3 0-8 0-4 0-6 2-8 3 0 0-1 0-3 6l-59 105 41 25 57-100c0 0 0-3 2-3 0 0 0-2 0-4 0-4 0-14 0-16l-3-7z m355 328c0 0 0 0-2-3 0 0-4-4-5-5-6-2-9-6-17-8l-353-80-32 55-66 124 244 287c0 0 4 4 4 5 0 0 2 0 3 2 2 0 6 0 9 0 2 0 6-2 8-3 1 0 3-2 5-2 2-2 3-4 5-5 2-2 4-4 4-4l186-334c0-2 7-14 7-20 0-7 0-5 0-9z m207 208l-84-13c-23-3-39-25-36-48 4-23 25-39 48-36l84 13c24 3 40 25 36 48-4 23-25 39-48 36z" horiz-adv-x="1000" />

<glyph glyph-name="basic-style-01-2" unicode="&#xe827;" d="M529 500l263 304c16 25 46 42 75 46 29 4 62 0 87-21 25-16 42-46 46-75 4-29 0-62-21-87l-283-325c8-59-8-121-54-167-71-71-154-83-234-83-79 0-195 66-200 66-12 9-16 21-16 38 0 12 12 25 25 29 58 21 71 63 87 108 13 38 29 80 63 113 37 37 87 54 137 54 9 0 17 0 21 0h4z m75-29c13-8 25-17 34-29 8-9 16-17 20-25l255 291c4 9 8 17 4 30 0 8-9 20-17 25-8 4-17 8-29 8-8 0-21-8-25-17l-246-283h4z m-21-79c-20 21-50 33-79 33-29 0-62-12-83-33-21-21-33-50-42-84-12-37-29-83-71-120 25-13 63-21 100-21 71 0 130 8 175 58 46 46 46 121 0 167z m317 37v-454c0-13-8-21-21-21h-758c-13 0-21 8-21 21v754c0 13 8 21 21 21h454c29 0 50 21 50 50 0 29-21 50-50 50h-454c-67 0-121-54-121-121v-754c0-67 54-121 121-121h754c67 0 121 54 121 121v454c0 29-21 50-50 50-29 0-46-21-46-50z" horiz-adv-x="1000" />

<glyph glyph-name="ajax-pag-2" unicode="&#xe82a;" d="M502 629c0-2 1-4 2-6 1-2 2-3 4-4 2-1 4-2 6-2 2 0 4 1 6 2l83 52 85 53c2 1 3 2 4 4 1 2 2 4 2 6 0 2-1 3-2 5-1 2-2 3-4 4l-85 53-83 52c-2 1-4 2-6 2-2 0-4 0-6-1-2-1-3-3-4-5-1-1-2-3-2-5v-55c-1 0-2 0-3 0-127 0-230-104-230-231 0-127 103-230 230-230 127 0 230 103 230 230 0 27-4 53-13 78-1 2-2 3-3 4-1 2-3 3-4 3-2 1-4 1-5 1-2-1-4-1-5-2l-60-38c-2-1-4-3-5-5-1-2-1-5 0-7 7-28 5-58-6-84-10-27-29-50-53-66-24-16-53-24-82-23-29 2-57 12-79 30-23 17-40 42-48 70-8 27-8 57 2 84 9 28 27 51 50 68 24 17 52 26 81 26 1 0 2 0 3 0l0-63z m439-630c0-28-12-51-36-68-25-18-56-26-94-26-22 0-43 3-60 8-18 6-31 14-41 23-19 17-28 36-28 54 0 3 1 5 2 7 2 2 4 2 7 2h80c4 0 9-2 14-7 5-5 13-7 25-7 19 0 28 7 28 22 0 12-9 18-28 18h-48c-3 0-6 1-8 3-2 2-3 5-3 8v33c0 8 3 13 8 17l55 31h-104c-3 0-6 1-8 3-2 2-3 5-3 8v58c0 3 1 6 3 8 2 2 5 3 8 3h203c3 0 6-1 8-3 2-2 3-5 3-8v-52c0-7-3-13-8-17l-46-33c47-12 71-40 71-85z m-355-5c3 0 5-1 7-4 2-2 3-4 3-7v-63c0-3-1-6-3-8-2-2-4-3-7-3h-234c-3 0-6 1-8 3-2 2-3 5-3 8v43c0 10 3 17 10 22 56 42 90 69 102 79 19 17 28 31 28 41 0 9-2 14-6 16-2 0-4 1-7 1-3 0-5 0-7-1-1 0-3-1-4-2-1 0-2-1-3-2-2-1-2-2-3-3-1-1-1-2-2-4-1-1-2-3-2-3-1-4-2-6-2-6-2-6-7-10-16-10h-75c-2 0-4 1-6 3-1 2-2 4-2 6 0 31 11 56 34 75 23 19 52 28 88 28 36 0 64-8 85-25 22-16 33-38 33-67 0-22-8-42-22-59-15-18-37-37-67-58h89z m-390 192v-266c0-3-1-6-3-8-3-2-5-3-8-3h-78c-3 0-5 1-8 3-2 2-3 5-3 8v166l-44-35c-2-2-5-2-7-2-3 0-5 2-8 5l-35 47c-1 2-2 4-2 6 0 5 2 8 5 10l96 77c3 2 6 3 9 3h75c3 0 5-1 8-3 2-2 3-5 3-8z" horiz-adv-x="941" />

<glyph glyph-name="isotop" unicode="&#xe82c;" d="M900 381v-425h-800v425h800z m19 100h-838c-43 0-81-37-81-81v-469c0-44 38-81 81-81h844c44 0 81 37 81 81v469c0 44-37 81-81 81h-6z m-81 263v-81h-175v81h175z m37 106h-244c-37 0-62-31-62-62v-150c0-38 31-63 62-63h244c38 0 63 31 63 63v150c0 37-32 62-63 62z m-537-106v-81h-175v81h175z m37 106h-244c-37 0-68-37-68-69v-150c0-37 31-62 62-62h244c37 0 62 31 62 62v150c0 38-31 63-62 63l6 6z" horiz-adv-x="1000" />

<glyph glyph-name="ajax" unicode="&#xe82e;" d="M875 413c-34 0-62-29-62-63 0-172-141-312-313-312-172 0-312 140-312 312 0 172 140 313 312 313 56 0 113-16 159-44l-59-60c-9-9-12-21-6-34 6-12 15-19 28-19h219c18 0 31 13 31 32v218c0 13-6 25-19 28-9 7-22 4-31-6l-72-72c-72 53-159 82-250 82-241 0-437-197-437-438 0-241 196-438 437-438 241 0 438 197 438 438 0 34-29 63-63 63z" horiz-adv-x="1000" />

<glyph glyph-name="radius-01" unicode="&#xe82f;" d="M750 850h-125v-125h125c69 0 125-56 125-125v-137h125v137c0 138-112 250-250 250z m-750-250v-137h125v137c0 69 56 125 125 125h144v125h-144c-137 0-250-112-250-250z m875-369v-137c0-69-56-125-125-125h-125v-125h125c138 0 250 112 250 250v137h-125z m-750-137v137h-125v-137c0-138 113-250 250-250h144v125h-144c-69 0-125 56-125 125z" horiz-adv-x="1000" />

<glyph glyph-name="carousel-basic" unicode="&#xe830;" d="M77 774c-1-1-2-2-2-5v-838c0-3 1-4 2-5s1-1 4-1h838c1 1 1 3 1 5l-1 4v3 832c0 3-1 4-2 5s-2 1-4 1h-832c-3 0-4-1-4-1z m-77-5a80 80 0 0 0 81 81h832a80 80 0 0 0 81-81v-828c3-23-1-46-16-64-15-19-37-27-59-27h-838a80 80 0 0 0-81 81v838z m775-188h-56c-19 44-69 75-119 75-56 0-100-31-119-75h-256c-31 0-56-25-56-56s25-56 56-56h256c19-50 63-81 119-81s100 31 119 75h56c31 0 56 25 56 56s-25 62-56 62z m-494-462h-56c-31 0-56 25-56 56s25 56 56 56h56c19 50 63 82 119 82s100-32 119-82h256c31 0 56-25 56-56s-25-56-56-56h-256c-19-44-63-75-119-75-50 0-100 31-119 75z" horiz-adv-x="1000" />

<glyph glyph-name="others" unicode="&#xe831;" d="M775 606h-375c-25 0-50-25-50-50s25-50 50-50h375c25 0 50 19 50 50 0 25-19 50-50 50z m0-206h-375c-25 0-50-25-50-50s25-50 50-50h375c25 0 50 19 50 50 0 25-19 50-50 50z m-375-200h375c31 0 50-25 50-50 0-31-25-50-50-50h-375c-25 0-50 25-50 50s25 50 50 50z m-94 350a59 59 0 0 0-62-62c-31 0-63 25-63 62a59 59 0 0 0 63 63 59 59 0 0 0 62-63z m-62-262a59 59 0 0 1 62 62 59 59 0 0 1-62 63 59 59 0 0 1-63-63c0-37 32-62 63-62z m62-138a59 59 0 0 0-62-62c-31 0-63 25-63 62a59 59 0 0 0 63 63 59 59 0 0 0 62-63z m519 700h-644c-100 0-181-81-181-181v-638c0-100 81-181 181-181h638c100 0 181 81 181 175v644c0 100-81 181-175 181z m88-825c0-50-38-88-88-88h-644c-50 0-87 38-87 88v644c0 50 37 87 87 87h644c50 0 88-37 88-87v-644z" horiz-adv-x="1000" />

<glyph glyph-name="navigation" unicode="&#xe833;" d="M138 350l256 256a53 53 0 0 1 0 82c-25 18-63 18-81-7l-294-293a53 53 0 0 1 0-82l294-287c18-19 56-19 75 0a53 53 0 0 1 0 81l-250 250z m550 331l293-293c25-19 25-57-6-82l-294-293c-25-26-62-13-75 0a53 53 0 0 0 0 81l257 256-250 256c-25 19-25 57-7 75a53 53 0 0 0 82 0z m-282-206a63 63 0 0 1-62-62v-125a63 63 0 0 1 62-63h188a63 63 0 0 1 62 63v125a63 63 0 0 1-62 62h-188z" horiz-adv-x="1000" />

<glyph glyph-name="pagination" unicode="&#xe834;" d="M875 725h-750c-69 0-125-57-125-125v-500c0-69 56-125 125-125h750c69 0 125 56 125 125v500c0 68-56 125-125 125z m31-625c0-19-12-32-31-32h-750c-19 0-31 13-31 32v500c0 18 12 31 31 31h750c19 0 31-13 31-31v-500z m-193 143c56 0 106 50 106 107 0 56-50 106-106 106-57 0-107-50-107-106 0-57 50-107 107-107z m-388-31c75 0 138 63 138 138 0 75-63 137-138 137-75 0-137-62-137-137 0-75 62-138 137-138z" horiz-adv-x="1000" />

<glyph glyph-name="border" unicode="&#xe835;" d="M1000-150h-1000v1000h1000v-1000z m-889 111h778v778h-778v-778z" horiz-adv-x="1000" />

<glyph glyph-name="right-open-1" unicode="&#xe900;" d="M618 361l-414-415q-11-10-25-10t-25 10l-93 93q-11 11-11 25t11 25l296 297-296 296q-11 11-11 25t11 25l93 93q10 11 25 11t25-11l414-414q10-11 10-25t-10-25z" horiz-adv-x="714.3" />

<glyph glyph-name="arrow-triangle-left" unicode="&#xe902;" d="M534-9l-415 342 415 342v-684z m41-120c9 0 18 8 18 20v884c0 12-9 24-18 24-3 0-6 0-10-4l-534-442c-12-8-12-28 0-40l534-438c3-4 7-4 10-4z" horiz-adv-x="643" />

<glyph glyph-name="right-open-big" unicode="&#xe905;" d="M13-20l358 370-358 372q-26 26 0 48 26 26 48 0l392-394q24-26 0-50l-392-394q-22-26-48 0-26 22 0 48z" horiz-adv-x="465" />

<glyph glyph-name="right-open-outline" unicode="&#xe907;" d="M156-66q-63 0-110 46t-46 111 46 110l150 150-150 150q-46 46-46 110 0 65 46 111 44 44 110 44t110-44l372-371-372-372q-45-45-110-45z m0 729q-21 0-37-16t-15-36q0-20 16-37l223-223-223-224q-16-16-16-36 0-22 16-38 15-15 36-15t37 15l297 298-297 297q-15 15-37 15z" horiz-adv-x="638" />

<glyph glyph-name="right" unicode="&#xe908;" d="M0 347q0 26 18 43t43 17h642l-242 244q-19 18-19 44t19 42q17 19 42 19t44-19l390-390-390-391q-20-18-44-18t-42 18-19 44 19 43l242 242h-642q-25 0-43 18t-18 44z" horiz-adv-x="938" />

<glyph glyph-name="left-open-2" unicode="&#xe914;" d="M654 682l-297-296 297-297q10-10 10-25t-10-25l-93-93q-11-10-25-10t-25 10l-414 415q-11 10-11 25t11 25l414 414q10 11 25 11t25-11l93-93q10-10 10-25t-10-25z" horiz-adv-x="714.3" />

<glyph glyph-name="right-open-3" unicode="&#xe916;" d="M31 684q30 31 74 31t74-31l335-334-335-334q-31-31-74-31t-74 31-31 74 31 74l188 186-188 186q-31 32-31 74t31 74z" horiz-adv-x="514" />

<glyph glyph-name="arrow-triangle-right" unicode="&#xe917;" d="M109 709l415-342-415-342v684z m-41 120c-9 0-19-8-19-20v-884c0-12 10-24 19-24 3 0 6 0 10 4l533 442c13 8 13 28 0 40l-533 438c-4 4-7 4-10 4z" horiz-adv-x="643" />

<glyph glyph-name="left" unicode="&#xe918;" d="M0 353l390 391q19 18 44 18 25 0 43-18t18-44-18-43l-243-243h642q25 0 43-18t18-43-18-43-43-18h-642l243-243q18-18 18-44t-18-43-43-18-44 18z" horiz-adv-x="938" />

<glyph glyph-name="left-open-4" unicode="&#xe920;" d="M481 684q32-31 32-74t-32-74l-186-186 186-186q32-31 32-74t-32-74-73-31-74 31l-334 334 334 334q30 31 74 31t73-31z" horiz-adv-x="513" />

<glyph glyph-name="left-open-outline" unicode="&#xe921;" d="M638 91q0-64-47-111t-110-46q-65 0-110 45l-371 372 371 371q44 44 111 44t111-44q45-45 45-111 0-65-45-110l-150-150 150-150q45-45 45-110z m-490 260l297-298q15-15 37-15t37 15 15 38q0 21-15 36l-224 224 224 223q15 15 15 37 0 22-15 37t-37 15-37-15z" horiz-adv-x="638" />

<glyph glyph-name="left-open-big" unicode="&#xe922;" d="M452-20q26-26 0-48-26-26-48 0l-392 394q-24 24 0 50l392 394q22 26 48 0 26-22 0-48l-358-372z" horiz-adv-x="465" />

<glyph glyph-name="right-open" unicode="&#xf006;" d="M0 0q0 25 18 43l305 304-305 304q-18 18-18 44t18 43 44 18 43-18l390-391-390-391q-19-18-43-18t-44 18q-18 18-18 44z" horiz-adv-x="495.1" />

<glyph glyph-name="left-open" unicode="&#xf007;" d="M0 353l391 391q18 18 43 18 24 0 43-18 18-18 18-44t-18-43l-304-304 304-305q18-17 18-43t-18-43q-18-18-43-18t-43 18z" horiz-adv-x="495.1" />

<glyph glyph-name="angle-left" unicode="&#xf104;" d="M350 546q0-7-6-12l-219-220 219-219q6-6 6-13t-6-13l-28-28q-5-5-12-5t-13 5l-260 261q-6 5-6 12t6 13l260 260q5 6 13 6t12-6l28-28q6-5 6-13z" horiz-adv-x="357.1" />

<glyph glyph-name="angle-right" unicode="&#xf105;" d="M332 314q0-7-5-12l-261-261q-5-5-12-5t-13 5l-28 28q-6 6-6 13t6 13l219 219-219 220q-6 5-6 12t6 13l28 28q5 6 13 6t12-6l261-260q5-5 5-13z" horiz-adv-x="357.1" />
</font>
</defs>
</svg>
