<svg xmlns="http://www.w3.org/2000/svg" width="94" height="60" fill="none"><rect x=".6" y=".6" width="92.8" height="58.8" rx="2.4" fill="#fff"/><rect x=".6" y=".6" width="92.8" height="58.8" rx="2.4" stroke="#8796a1" stroke-width="1.2"/><g fill="#718491"><path fill-rule="evenodd" d="M47 8.25a6 6 0 1 0 0 12 6 6 0 1 0 0-12zm-4 10.108c1.033 1.006 2.444 1.626 4 1.626s2.967-.62 4-1.626v-.049a2.02 2.02 0 0 0-.586-1.425c-.375-.378-.884-.59-1.414-.59h-4c-.53 0-1.039.212-1.414.59A2.02 2.02 0 0 0 43 18.308v.049zm6-5.027c0 1.113-.895 2.015-2 2.015s-2-.902-2-2.015.895-2.015 2-2.015 2 .902 2 2.015z"/><path d="M26.814 25.75a1.5 1.5 0 0 1 1.5-1.5h37.372a1.5 1.5 0 1 1 0 3H28.314a1.5 1.5 0 0 1-1.5-1.5z"/></g><path d="M19 31.25a1 1 0 0 1 1-1h54a1 1 0 1 1 0 2H20a1 1 0 0 1-1-1zm12.14 4a1 1 0 0 1 1-1h29.721a1 1 0 1 1 0 2H32.14a1 1 0 0 1-1-1z" fill="#8796a1"/><path d="M37 40.25l.75 1.5 1.5.188-1.03 1.155.28 1.657L37 44l-1.5.75.282-1.657-1.032-1.155 1.5-.187.75-1.5zm5 0l.75 1.5 1.5.188-1.03 1.155.28 1.657L42 44l-1.5.75.282-1.657-1.032-1.155 1.5-.187.75-1.5zm5 0l.75 1.5 1.5.188-1.03 1.155.28 1.657L47 44l-1.5.75.282-1.657-1.032-1.155 1.5-.187.75-1.5zm5 0l.75 1.5 1.5.188-1.03 1.155.28 1.657L52 44l-1.5.75.282-1.657-1.032-1.155 1.5-.187.75-1.5zm5 0l.75 1.5 1.5.188-1.03 1.155.28 1.657L57 44l-1.5.75.282-1.657-1.032-1.155 1.5-.187.75-1.5z" fill="#718491"/><path d="M38 52a2 2 0 1 1 4 0 2 2 0 1 1-4 0z" fill="#9ea9b2"/><path d="M45 52a2 2 0 1 1 4 0 2 2 0 1 1-4 0z" fill="#718491"/><path d="M52 52a2 2 0 1 1 4 0 2 2 0 1 1-4 0z" fill="#9ea9b2"/><path d="M82.5 34l4-4-4-4m-71 0l-4 4 4 4" stroke="#718491" stroke-width="1.8" stroke-linecap="round" stroke-linejoin="round"/></svg>