<svg xmlns="http://www.w3.org/2000/svg" width="90" height="60" fill="none" xmlns:v="https://vecta.io/nano"><style><![CDATA[.B{fill:#58707f}.C{stroke:#718491}.D{stroke-width:.765}.E{fill-rule:evenodd}]]></style><rect x=".6" y=".6" width="88.8" height="58.8" rx="1.4" fill="#fff"/><rect x=".6" y=".6" width="88.8" height="58.8" rx="1.4" stroke="#8796a1" stroke-width="1.2"/><rect x="44.231" y="4" width="1.529" height="52" rx=".765" fill="#718491"/><g class="B"><rect x="42.702" y="8.588" width="4.588" height="4.588" rx="2.294"/><rect x="42.702" y="17.765" width="4.588" height="4.588" rx="2.294"/><rect x="42.702" y="31.529" width="4.588" height="4.588" rx="2.294"/><rect x="42.702" y="40.706" width="4.588" height="4.588" rx="2.294"/></g><rect x="51.497" y="13.559" width="24.267" height="19.118" rx="1.147" fill="#fff"/><rect x="51.497" y="13.559" width="24.267" height="19.118" rx="1.147" class="C D"/><g class="B"><path d="M54.829 16.235h17.603c.36 0 .655.294.655.655v12.454c0 .362-.296.655-.655.655H54.829c-.36 0-.655-.294-.655-.655V16.891c0-.362.296-.655.655-.655zm3.781 3.368c.963 0 1.744.78 1.744 1.742s-.782 1.744-1.744 1.744-1.742-.782-1.742-1.744.78-1.742 1.742-1.742zM55.69 17.75h15.88v8.845c-3.166-.552-4.831-5.002-6.818-5.002-2.118 0-4.928 5.002-6.443 5.002-1.287 0-1.41-1.324-2.62-1.923V17.75z" class="E"/><path d="M48.982 20.221a.23.23 0 0 1 0-.324l2.132-2.132v4.588l-2.132-2.132z"/></g><rect x="51.497" y="36.5" width="24.267" height="19.118" rx="1.147" fill="#fff"/><rect x="51.497" y="36.5" width="24.267" height="19.118" rx="1.147" class="C D"/><g class="B"><path d="M54.829 39.177h17.603c.36 0 .655.294.655.655v12.454c0 .362-.296.655-.655.655H54.829c-.36 0-.655-.294-.655-.655V39.832c0-.362.296-.655.655-.655zm3.781 3.368c.963 0 1.744.78 1.744 1.742s-.782 1.744-1.744 1.744-1.742-.782-1.742-1.744.78-1.742 1.742-1.742zm-2.919-1.853h15.88v8.845c-3.166-.552-4.831-5.002-6.818-5.002-2.118 0-4.928 5.002-6.443 5.002-1.287 0-1.41-1.324-2.62-1.923v-6.921z" class="E"/><path d="M48.982 43.162a.23.23 0 0 1 0-.324l2.132-2.132v4.588l-2.132-2.132z"/></g><rect x="14.233" y="27.324" width="24.267" height="19.118" rx="1.147" fill="#fff"/><rect x="14.233" y="27.324" width="24.267" height="19.118" rx="1.147" class="C D"/><g class="B"><path d="M17.564 30h17.603c.36 0 .655.294.655.655v12.454c0 .362-.296.655-.655.655H17.564c-.36 0-.655-.294-.655-.655V30.655c0-.362.296-.655.655-.655zm3.781 3.368c.963 0 1.744.78 1.744 1.742s-.782 1.744-1.744 1.744-1.742-.782-1.742-1.744.78-1.742 1.742-1.742zm-2.919-1.853h15.881v8.845c-3.166-.552-4.831-5.002-6.818-5.002-2.118 0-4.928 5.002-6.443 5.002-1.287 0-1.41-1.324-2.62-1.923v-6.921z" class="E"/><path d="M41.011 33.986a.23.23 0 0 0 0-.325l-2.132-2.132v4.588l2.132-2.132zm0-22.941a.23.23 0 0 0 0-.324l-2.132-2.132v4.588l2.132-2.132z"/></g><rect x="14.233" y="4.382" width="24.267" height="19.118" rx="1.147" fill="#fff"/><rect x="14.233" y="4.382" width="24.267" height="19.118" rx="1.147" class="C D"/><path d="M17.565 7.059h17.603c.36 0 .655.294.655.655v12.454c0 .362-.296.655-.655.655H17.565c-.36 0-.655-.294-.655-.655V7.714c0-.362.296-.655.655-.655zm3.781 3.368c.963 0 1.744.78 1.744 1.742s-.782 1.744-1.744 1.744-1.742-.782-1.742-1.744.78-1.742 1.742-1.742zm-2.919-1.853h15.881v8.845c-3.166-.552-4.831-5.002-6.818-5.002-2.118 0-4.928 5.002-6.443 5.002-1.287 0-1.41-1.324-2.619-1.923V8.574z" class="B E"/></svg>