<svg xmlns="http://www.w3.org/2000/svg" width="90" height="60" fill="none" xmlns:v="https://vecta.io/nano"><rect x=".6" y=".6" width="88.8" height="58.8" rx="1.4" fill="#fff"/><rect x=".6" y=".6" width="88.8" height="58.8" rx="1.4" stroke="#8796a1" stroke-width="1.2"/><rect x="38.48" y="3.96" width="2" height="52" rx="1" fill="#718491"/><g fill="#58707f"><rect x="36.48" y="6.548" width="6" height="6" rx="3"/><rect x="36.48" y="24.489" width="6" height="6" rx="3"/><rect x="36.48" y="42.666" width="6" height="6" rx="3"/></g><rect x="46.088" y="4.35" width="19.124" height="15.065" rx=".904" fill="#fff"/><rect x="46.088" y="4.35" width="19.124" height="15.065" rx=".904" stroke="#718491" stroke-width=".603"/><g fill="#58707f"><path fill-rule="evenodd" d="M48.713 6.459h13.872a.52.52 0 0 1 .517.516v9.814a.52.52 0 0 1-.517.516H48.713a.52.52 0 0 1-.516-.516V6.975a.52.52 0 0 1 .516-.516zm2.979 2.654c.759 0 1.375.615 1.375 1.373s-.616 1.375-1.375 1.375-1.373-.616-1.373-1.375.614-1.373 1.373-1.373zm-2.3-1.46h12.515v6.97c-2.495-.435-3.807-3.941-5.373-3.941-1.669 0-3.883 3.941-5.077 3.941-1.014 0-1.111-1.044-2.064-1.516V7.652z"/><path d="M44.108 9.599a.18.18 0 0 1 0-.256l1.68-1.68v3.616l-1.68-1.68z"/></g><rect x="46.088" y="22.427" width="19.124" height="15.065" rx=".904" fill="#fff"/><rect x="46.088" y="22.427" width="19.124" height="15.065" rx=".904" stroke="#718491" stroke-width=".603"/><g fill="#58707f"><path fill-rule="evenodd" d="M48.713 24.536h13.872a.52.52 0 0 1 .517.516v9.814a.52.52 0 0 1-.517.517H48.713a.52.52 0 0 1-.516-.517v-9.814a.52.52 0 0 1 .516-.516zm2.979 2.654c.759 0 1.375.614 1.375 1.373s-.616 1.375-1.375 1.375-1.373-.616-1.373-1.375.614-1.373 1.373-1.373zm-2.3-1.46h12.515v6.97c-2.495-.435-3.807-3.941-5.373-3.941-1.669 0-3.883 3.941-5.077 3.941-1.014 0-1.111-1.044-2.064-1.516V25.73z"/><path d="M44.108 27.677a.18.18 0 0 1 0-.256l1.68-1.68v3.616l-1.68-1.68z"/></g><rect x="46.088" y="40.682" width="19.124" height="15.065" rx=".904" fill="#fff"/><rect x="46.088" y="40.682" width="19.124" height="15.065" rx=".904" stroke="#718491" stroke-width=".603"/><g fill="#58707f"><path fill-rule="evenodd" d="M48.713 42.791h13.872a.52.52 0 0 1 .517.517v9.814a.52.52 0 0 1-.517.516H48.713a.52.52 0 0 1-.516-.516v-9.814a.52.52 0 0 1 .516-.517zm2.979 2.654c.759 0 1.375.615 1.375 1.373s-.616 1.375-1.375 1.375-1.373-.616-1.373-1.375.614-1.373 1.373-1.373zm-2.3-1.46h12.515v6.97c-2.495-.435-3.807-3.942-5.373-3.942-1.669 0-3.883 3.942-5.077 3.942-1.014 0-1.111-1.044-2.064-1.516v-5.454z"/><path d="M44.108 45.932a.18.18 0 0 1 0-.256l1.68-1.68v3.616l-1.68-1.68z"/></g><g fill="#718491"><rect x="24.48" y="10.3" width="1.5" height="10" rx=".75" transform="rotate(270 24.48 10.3)"/><rect x="24.48" y="28.24" width="1.5" height="10" rx=".75" transform="rotate(270 24.48 28.24)"/><rect x="24.48" y="46.42" width="1.5" height="10" rx=".75" transform="rotate(270 24.48 46.42)"/></g></svg>