<svg width="230" height="43" viewBox="0 0 271 43" fill="none" xmlns="http://www.w3.org/2000/svg">
<g clip-path="url(#clip0_857_7016)">
<path d="M50.9573 0H30.008C29.3714 0.00301025 28.7617 0.257256 28.3115 0.707446C27.8613 1.15764 27.607 1.76736 27.604 2.40401V13.1649C27.607 13.8015 27.8613 14.4112 28.3115 14.8614C28.7617 15.3116 29.3714 15.5659 30.008 15.5689H31.8397V19.8045C31.8439 19.9504 31.8891 20.0922 31.9701 20.2136C32.0511 20.3351 32.1645 20.4313 32.2976 20.4914C32.4121 20.4914 32.5265 20.6059 32.641 20.6059C32.7296 20.6042 32.8166 20.5827 32.8958 20.5431C32.9751 20.5035 33.0444 20.4467 33.0989 20.3769L38.7083 15.5689H50.9573C51.594 15.5659 52.2037 15.3116 52.6539 14.8614C53.1041 14.4112 53.3583 13.8015 53.3613 13.1649V2.40401C53.3386 1.77368 53.078 1.17533 52.632 0.72932C52.186 0.283313 51.5877 0.0227368 50.9573 0ZM35.9608 7.441L34.8161 8.58577L35.045 10.074C35.0525 10.1361 35.0461 10.1991 35.0263 10.2585C35.0065 10.3179 34.9738 10.3722 34.9306 10.4174H34.5871L33.2134 9.73054L31.9541 10.3029H31.6107C31.5674 10.2577 31.5347 10.2034 31.5149 10.1441C31.4951 10.0847 31.4888 10.0216 31.4962 9.95949L31.7252 8.4713L30.5804 7.32653C30.5372 7.2813 30.5044 7.22704 30.4846 7.16766C30.4649 7.10827 30.4585 7.04524 30.4659 6.98309C30.5804 6.98309 30.6949 6.86862 30.8094 6.86862L32.4121 6.63967L33.0989 5.26594C33.0989 5.15146 33.2134 5.15146 33.3279 5.15146C33.4147 5.16356 33.4951 5.20377 33.5568 5.26594L34.2437 6.63967L35.8464 6.86862C35.9054 6.87378 35.9606 6.89955 36.0025 6.94142C36.0444 6.98329 36.0702 7.03858 36.0753 7.09757C36.0774 7.20791 36.0363 7.3147 35.9608 7.39521V7.441ZM43.0584 7.441L41.9136 8.58577L42.1426 10.074C42.1501 10.1361 42.1437 10.1991 42.1239 10.2585C42.1041 10.3179 42.0714 10.3722 42.0281 10.4174H41.6847L40.311 9.73054L39.0517 10.3029H38.7083C38.665 10.2577 38.6323 10.2034 38.6125 10.1441C38.5927 10.0847 38.5863 10.0216 38.5938 9.95949L38.8228 8.4713L37.678 7.32653C37.6347 7.2813 37.602 7.22704 37.5822 7.16766C37.5624 7.10827 37.556 7.04524 37.5635 6.98309C37.5687 6.9241 37.5945 6.86882 37.6363 6.82695C37.6782 6.78508 37.7335 6.7593 37.7925 6.75414L39.3952 6.52518L40.082 5.15146C40.082 5.03699 40.1965 5.03699 40.311 5.03699C40.3977 5.04909 40.4782 5.0893 40.5399 5.15146L41.2268 6.52518L42.9439 6.86862C43.0029 6.87378 43.0582 6.89955 43.1001 6.94142C43.142 6.98329 43.1677 7.03858 43.1729 7.09757C43.175 7.20791 43.1339 7.3147 43.0584 7.39521V7.441ZM50.156 7.441L49.0112 8.58577L49.2402 10.074C49.2477 10.1361 49.2413 10.1991 49.2215 10.2585C49.2017 10.3179 49.169 10.3722 49.1257 10.4174H48.7823L47.4085 9.73054L46.1493 10.3029H45.8059C45.7626 10.2577 45.7299 10.2034 45.7101 10.1441C45.6903 10.0847 45.6839 10.0216 45.6914 9.95949L45.9203 8.4713L44.7756 7.32653C44.7323 7.2813 44.6996 7.22704 44.6798 7.16766C44.66 7.10827 44.6536 7.04524 44.6611 6.98309C44.6663 6.9241 44.692 6.86882 44.7339 6.82695C44.7758 6.78508 44.8311 6.7593 44.89 6.75414L46.4927 6.52518L47.1796 5.15146C47.1796 5.03699 47.2941 5.03699 47.4085 5.03699C47.4953 5.04909 47.5757 5.0893 47.6375 5.15146L48.3244 6.52518L50.0415 6.86862C50.1005 6.87378 50.1558 6.89955 50.1977 6.94142C50.2395 6.98329 50.2653 7.03858 50.2705 7.09757C50.2725 7.20791 50.2315 7.3147 50.156 7.39521V7.441Z" fill="#005ADF"/>
<path d="M17.6448 7.39551C12.4934 7.39551 9.6315 10.0285 9.74598 15.1799C9.86046 22.163 12.8368 26.3987 17.6448 26.3987C17.6448 26.3987 25.5438 26.7421 25.5438 15.1799C25.5438 10.0285 22.9108 7.39551 17.6448 7.39551Z" fill="#005ADF"/>
<path d="M31.611 31.6642L23.712 28.6191L21.8804 27.0165C21.6342 26.8115 21.3186 26.709 20.9989 26.7303C20.6793 26.7516 20.3801 26.8951 20.1633 27.1309L17.6448 29.6494L15.0118 27.1309C14.7814 26.9191 14.4856 26.7923 14.1734 26.7715C13.8611 26.7507 13.5511 26.8371 13.2946 27.0165L11.5775 28.6191L3.6786 31.8245C1.16011 32.8548 1.1601 41.8985 0.931152 42.6998H34.4729C34.2439 41.7382 34.2439 32.6945 31.611 31.6642Z" fill="#005ADF"/>
<path d="M65.6104 30.1766V9.79966C65.6026 9.47931 65.6817 9.16285 65.8393 8.88385C65.9402 8.77212 66.064 8.68356 66.2023 8.62427C66.3407 8.56498 66.4902 8.53637 66.6407 8.54041H71.9066C76.2567 8.54041 78.3173 10.601 78.3173 14.6077C78.3945 15.6963 78.1544 16.7839 77.6262 17.7388C77.0979 18.6938 76.3041 19.4751 75.3409 19.9881V20.1026C76.4741 20.981 77.2475 22.243 77.516 23.6514L79.4621 29.8331C79.4621 29.9476 79.4621 29.9476 79.5766 30.0621C79.691 30.1766 79.5766 30.1766 79.5766 30.291C79.5766 30.7489 79.0042 30.9779 77.8594 30.9779H76.9436C75.9133 30.9779 75.3409 30.7489 75.2264 30.291L73.5093 24.1093C73.3572 23.5339 73.0386 23.0161 72.5935 22.6211C72.1572 22.3172 71.6369 22.1571 71.1053 22.1632H69.9605V30.0621C69.9605 30.6345 69.3881 30.9779 68.2433 30.9779H67.3275C66.1828 31.0924 65.6104 30.7489 65.6104 30.1766ZM72.1356 18.3854C72.4378 18.3594 72.7298 18.263 72.9882 18.1039C73.2466 17.9449 73.4643 17.7277 73.6238 17.4696C74.066 16.7922 74.2676 15.9859 74.1961 15.1801C74.2439 14.3763 74.0441 13.5773 73.6238 12.8905C73.4296 12.6579 73.1832 12.4744 72.9047 12.355C72.6262 12.2357 72.3234 12.1838 72.0211 12.2037H69.846V18.3854H72.1356Z" fill="#0B2334"/>
<path d="M82.6674 29.1451C81.5226 27.7714 80.9502 25.5963 80.9502 22.7344C80.9502 16.8961 83.1253 14.0342 87.4754 14.0342C91.3676 14.0342 93.3138 16.8961 93.3138 22.5055C93.2132 22.8918 93.0163 23.2463 92.7414 23.5358C92.3979 23.9937 92.0545 24.2226 91.8256 24.2226H85.0714C85.062 25.2333 85.3399 26.2257 85.8727 27.0846C86.145 27.3886 86.4813 27.6284 86.8574 27.7868C87.2335 27.9451 87.6401 28.0181 88.0478 28.0004C88.5517 27.989 89.052 27.912 89.536 27.7714C89.9489 27.6509 90.3366 27.457 90.6808 27.199C90.8819 27.0358 91.1164 26.9186 91.3676 26.8556C91.5966 26.8556 91.94 27.0846 92.2835 27.6569C92.555 28.0351 92.7495 28.463 92.8558 28.9162C92.8558 29.3741 92.6269 29.7175 92.0545 30.061C91.4458 30.4164 90.7909 30.686 90.1084 30.8623C89.4033 31.0792 88.671 31.1949 87.9333 31.2057C86.9576 31.2759 85.9784 31.1273 85.0674 30.7709C84.1563 30.4144 83.3364 29.8589 82.6674 29.1451ZM89.536 21.5897C89.6219 20.4256 89.466 19.2563 89.0781 18.1553C88.9466 17.8325 88.7262 17.5536 88.4425 17.3509C88.1588 17.1483 87.8235 17.0303 87.4754 17.0106C87.1214 17.0041 86.7727 17.0973 86.4691 17.2794C86.1655 17.4616 85.9192 17.7255 85.7583 18.0409C85.3261 19.1355 85.0935 20.2986 85.0714 21.4752H89.536V21.5897Z" fill="#0B2334"/>
<path d="M96.5191 29.9471C95.6852 28.9162 95.2757 27.6061 95.3743 26.2838C95.3563 25.4599 95.5215 24.6422 95.858 23.8898C96.1946 23.1375 96.6941 22.4694 97.3204 21.9337C99.0631 20.7345 101.164 20.1688 103.273 20.331V19.461C103.273 17.9728 102.472 17.2859 100.984 17.2859C100.48 17.2973 99.9795 17.3743 99.4955 17.5149C99.0186 17.6564 98.5581 17.8483 98.1218 18.0873C97.9236 18.2359 97.6826 18.3162 97.4349 18.3162C97.206 18.3162 96.8625 17.9728 96.5191 17.4004C96.222 16.9944 96.0258 16.5235 95.9467 16.0267C95.9467 15.6833 96.1757 15.3398 96.7481 14.9964C97.3466 14.6208 98.0047 14.3498 98.6942 14.1951C99.513 13.9611 100.361 13.8454 101.213 13.8516C102.857 13.7251 104.489 14.2148 105.792 15.2254C106.305 15.7295 106.703 16.338 106.96 17.0095C107.216 17.6811 107.326 18.4 107.28 19.1176V25.5283C107.268 26.6012 107.345 27.6733 107.509 28.7336C107.624 29.4205 107.738 29.7639 107.738 29.9929C107.738 30.2218 107.395 30.5653 106.708 30.6797C106.066 30.8059 105.415 30.8824 104.762 30.9087C104.611 30.9279 104.459 30.8921 104.333 30.808C104.207 30.7239 104.115 30.597 104.075 30.4508C103.866 30.0537 103.712 29.6301 103.617 29.1915C103.238 29.7619 102.727 30.233 102.129 30.5653C101.46 30.9278 100.714 31.1241 99.9534 31.1376C99.3284 31.209 98.6953 31.1391 98.1008 30.933C97.5064 30.7269 96.9659 30.39 96.5191 29.9471ZM102.243 27.772C102.614 27.4994 102.959 27.1928 103.273 26.8562V22.964C100.526 22.964 99.1521 23.9943 99.1521 26.0549C99.0979 26.6277 99.2614 27.1998 99.61 27.6576C99.7887 27.8405 100.003 27.9855 100.239 28.0838C100.475 28.1822 100.728 28.2319 100.984 28.2299C101.421 28.1285 101.843 27.9747 102.243 27.772Z" fill="#0B2334"/>
<path d="M111.974 30.1765C111.194 29.2109 110.824 27.9778 110.943 26.7422V7.73906C110.943 7.16668 111.516 6.82324 112.661 6.82324H113.347C114.492 6.82324 115.065 7.16668 115.065 7.73906V26.6278C115.06 26.9843 115.138 27.3371 115.294 27.6581C115.425 27.8273 115.613 27.9435 115.823 27.9855C116.033 28.0276 116.252 27.9926 116.438 27.887C116.553 27.887 116.667 27.7725 116.782 27.7725C116.896 27.7725 117.24 28.0015 117.354 28.5739C117.476 28.9841 117.553 29.4063 117.583 29.8331C117.583 30.0694 117.504 30.2989 117.359 30.4855C117.214 30.672 117.011 30.805 116.782 30.8634C116.2 31.0977 115.577 31.2144 114.95 31.2068C113.863 31.2541 112.799 30.8857 111.974 30.1765Z" fill="#0B2334"/>
<path d="M126.627 30.1761V12.2032H122.734C122.601 12.207 122.468 12.1776 122.348 12.1177C122.228 12.0578 122.125 11.9692 122.048 11.8598C121.892 11.5389 121.814 11.186 121.819 10.8295V9.91366C121.814 9.55709 121.892 9.20428 122.048 8.88337C122.115 8.76423 122.216 8.66789 122.339 8.6067C122.461 8.54551 122.599 8.52226 122.734 8.53994H134.869C135.005 8.52226 135.143 8.54551 135.265 8.6067C135.387 8.66789 135.489 8.76423 135.556 8.88337C135.711 9.20428 135.79 9.55709 135.785 9.91366V10.715C135.79 11.0716 135.711 11.4244 135.556 11.7453C135.489 11.8644 135.387 11.9608 135.265 12.022C135.143 12.0832 135.005 12.1064 134.869 12.0887H130.977V30.0616C130.977 30.634 130.404 30.9774 129.374 30.9774H128.344C127.199 31.0919 126.627 30.7485 126.627 30.1761Z" fill="#0B2334"/>
<path d="M136.701 29.1451C135.556 27.7714 134.984 25.5963 134.984 22.7344C134.984 16.8961 137.159 14.0342 141.509 14.0342C145.401 14.0342 147.347 16.8961 147.347 22.5055C147.247 22.8918 147.05 23.2463 146.775 23.5358C146.431 23.9937 146.088 24.2226 145.859 24.2226H139.105C139.095 25.2333 139.373 26.2257 139.906 27.0846C140.178 27.3886 140.515 27.6284 140.891 27.7868C141.267 27.9451 141.673 28.0181 142.081 28.0004C142.585 27.989 143.085 27.912 143.569 27.7714C143.982 27.6509 144.37 27.457 144.714 27.199C144.915 27.0358 145.15 26.9186 145.401 26.8556C145.63 26.8556 145.973 27.0846 146.317 27.6569C146.588 28.0351 146.783 28.463 146.889 28.9162C146.889 29.3741 146.66 29.7175 146.088 30.061C145.479 30.4164 144.824 30.686 144.142 30.8623C143.437 31.0792 142.704 31.1949 141.967 31.2057C140.991 31.2759 140.012 31.1273 139.101 30.7709C138.19 30.4144 137.37 29.8589 136.701 29.1451ZM143.569 21.5897C143.655 20.4256 143.499 19.2563 143.111 18.1553C142.98 17.8325 142.759 17.5536 142.476 17.3509C142.192 17.1483 141.857 17.0303 141.509 17.0106C141.155 17.0041 140.806 17.0973 140.502 17.2794C140.199 17.4616 139.952 17.7255 139.792 18.0409C139.359 19.1355 139.127 20.2986 139.105 21.4752H143.569V21.5897Z" fill="#0B2334"/>
<path d="M150.209 30.6339C149.293 30.176 148.835 29.7181 148.835 29.1457C148.91 28.6123 149.105 28.1031 149.408 27.6575C149.751 27.0851 150.095 26.7417 150.438 26.7417C150.552 26.7417 150.667 26.8561 151.01 27.0851C151.291 27.2826 151.6 27.437 151.926 27.543C152.292 27.6841 152.679 27.7615 153.071 27.772C153.319 27.7937 153.569 27.7642 153.805 27.6855C154.042 27.6067 154.259 27.4803 154.445 27.314C154.608 27.1745 154.735 26.9974 154.815 26.798C154.894 26.5986 154.924 26.3829 154.903 26.1693C154.904 25.9136 154.855 25.6601 154.756 25.4241C154.658 25.188 154.513 24.9742 154.33 24.7956C153.716 24.3246 153.065 23.9035 152.384 23.5363C151.49 23.1101 150.707 22.4833 150.095 21.7047C149.508 20.8702 149.226 19.8602 149.293 18.8427C149.248 18.1695 149.346 17.4943 149.583 16.8624C149.82 16.2306 150.19 15.6569 150.667 15.1797C151.144 14.7025 151.718 14.333 152.35 14.0961C152.982 13.8591 153.657 13.7601 154.33 13.8058C155.23 13.7806 156.125 13.9363 156.963 14.2637C157.764 14.6071 158.222 14.9505 158.222 15.5229C158.196 16.0137 158.038 16.4884 157.764 16.8966C157.536 17.469 157.192 17.8125 156.963 17.8125C156.681 17.7379 156.411 17.6222 156.162 17.469C155.737 17.2482 155.267 17.1305 154.788 17.1256C154.342 17.1006 153.9 17.2211 153.529 17.469C153.37 17.5866 153.244 17.7433 153.164 17.9239C153.084 18.1044 153.052 18.3027 153.071 18.4993C153.059 18.7119 153.095 18.9245 153.174 19.1222C153.253 19.3199 153.374 19.498 153.529 19.6441C153.965 20.0666 154.468 20.4147 155.017 20.6744L155.589 21.0178C156.495 21.4778 157.279 22.1445 157.879 22.9639C158.465 23.7984 158.748 24.8083 158.68 25.8258C158.726 26.5263 158.616 27.2282 158.359 27.8813C158.102 28.5344 157.703 29.1225 157.192 29.6036C156.666 30.0775 156.051 30.4428 155.383 30.6785C154.715 30.9143 154.007 31.0158 153.3 30.9773C152.265 31.2759 151.153 31.1524 150.209 30.6339Z" fill="#0B2334"/>
<path d="M162.344 30.1758C161.565 29.1651 161.197 27.8976 161.313 26.627V17.4689H160.741C160.605 17.4866 160.467 17.4633 160.345 17.4021C160.223 17.3409 160.121 17.2446 160.054 17.1255C159.898 16.8045 159.82 16.4517 159.825 16.0952V15.6373C159.82 15.2807 159.898 14.9279 160.054 14.607C160.121 14.4878 160.223 14.3915 160.345 14.3303C160.467 14.2691 160.605 14.2459 160.741 14.2635H161.313L161.771 11.1727C161.886 10.6003 162.344 10.2568 163.259 10.2568H164.061C164.977 10.2568 165.434 10.6003 165.434 11.1727V14.2635H166.923C167.058 14.2459 167.196 14.2691 167.319 14.3303C167.441 14.3915 167.542 14.4878 167.609 14.607C167.765 14.9279 167.843 15.2807 167.838 15.6373V16.0952C167.843 16.4517 167.765 16.8045 167.609 17.1255C167.542 17.2446 167.441 17.3409 167.319 17.4021C167.196 17.4633 167.058 17.4866 166.923 17.4689H165.434V26.5126C165.432 26.9058 165.51 27.2954 165.663 27.6573C165.731 27.7765 165.832 27.8728 165.954 27.934C166.077 27.9952 166.215 28.0184 166.35 28.0008C166.547 28.0084 166.744 27.9692 166.923 27.8863C167.152 27.8863 167.266 27.7718 167.381 27.7718C167.495 27.7718 167.838 28.0008 167.953 28.5731C168.065 28.9856 168.142 29.4069 168.182 29.8324C168.182 30.2903 167.838 30.6337 167.266 30.8627C166.644 31.0971 165.984 31.2136 165.32 31.2061C164.78 31.2498 164.236 31.1808 163.724 31.0035C163.211 30.8261 162.741 30.5443 162.344 30.1758Z" fill="#0B2334"/>
<path d="M170.242 11.5162V9.15801C170.242 8.58562 170.929 8.24219 172.303 8.24219C173.677 8.24219 174.364 8.58562 174.364 9.15801V11.4475C174.364 12.0199 173.677 12.3634 172.303 12.3634C170.929 12.3634 170.242 12.0886 170.242 11.5162ZM170.242 30.176V15.1795C170.242 14.6071 170.815 14.2637 171.96 14.2637H172.646C173.791 14.2637 174.364 14.6071 174.364 15.1795V30.176C174.364 30.7484 173.791 31.0918 172.646 31.0918H171.96C170.815 31.0918 170.242 30.7484 170.242 30.176Z" fill="#0B2334"/>
<path d="M196.343 15.1795C197.105 16.1987 197.471 17.4596 197.373 18.7283V30.176C197.373 30.7484 196.801 31.0918 195.771 31.0918H194.969C193.825 31.0918 193.367 30.7484 193.367 30.176V19.5296C193.402 18.974 193.283 18.4196 193.023 17.927C192.891 17.7479 192.719 17.6027 192.52 17.5032C192.321 17.4037 192.101 17.3528 191.879 17.3546C191.47 17.3454 191.07 17.4656 190.734 17.698C190.373 17.9424 190.062 18.2532 189.818 18.6138V30.0615C189.818 30.6339 189.246 30.9773 188.215 30.9773H187.414C186.269 30.9773 185.811 30.6339 185.811 30.0615V19.4609C185.846 18.9053 185.727 18.3509 185.468 17.8583C185.336 17.6792 185.163 17.534 184.964 17.4345C184.765 17.335 184.546 17.2841 184.323 17.2859C184.093 17.2739 183.863 17.3083 183.647 17.3869C183.431 17.4656 183.232 17.587 183.064 17.7438C182.762 18.0585 182.493 18.4038 182.263 18.7741V30.1073C182.282 30.2578 182.246 30.4101 182.162 30.5362C182.078 30.6624 181.951 30.754 181.805 30.7942C181.406 30.9582 180.977 31.0362 180.545 31.0231H179.744C178.714 31.0231 178.141 30.6797 178.141 30.1073V19.5754C178.177 18.5056 178.139 17.4346 178.027 16.3701C177.956 15.9925 177.917 15.6095 177.912 15.2253C177.912 14.8819 178.256 14.6529 179.057 14.424C179.699 14.2978 180.35 14.2213 181.003 14.195C181.139 14.1773 181.277 14.2006 181.399 14.2618C181.522 14.323 181.623 14.4193 181.69 14.5384C181.833 14.823 181.912 15.1358 181.919 15.4543C181.919 15.7977 182.034 16.1411 182.034 16.3701C182.486 15.689 183.07 15.1052 183.751 14.6529C184.465 14.1873 185.303 13.9479 186.155 13.9661C186.915 13.9796 187.661 14.1759 188.33 14.5384C188.654 14.7134 188.935 14.9583 189.153 15.2553C189.371 15.5522 189.52 15.8939 189.589 16.2556C190.053 15.5448 190.681 14.9559 191.421 14.5384C192.141 14.0875 192.975 13.8494 193.825 13.8516C194.801 13.9636 195.699 14.4374 196.343 15.1795Z" fill="#0B2334"/>
<path d="M201.724 29.0318C200.579 27.5436 200.121 25.483 200.121 22.6211C200.002 20.372 200.561 18.139 201.724 16.2104C202.272 15.467 203.002 14.8767 203.844 14.4959C204.686 14.1151 205.611 13.9565 206.532 14.0353C207.449 13.9855 208.364 14.1571 209.201 14.5357C210.038 14.9142 210.772 15.4886 211.34 16.2104C212.503 18.139 213.061 20.372 212.942 22.6211C213.061 24.8701 212.503 27.1031 211.34 29.0318C210.782 29.7655 210.051 30.3487 209.211 30.7285C208.372 31.1083 207.451 31.2727 206.532 31.2068C205.611 31.2856 204.686 31.127 203.844 30.7462C203.002 30.3654 202.272 29.7751 201.724 29.0318ZM208.249 26.7422C208.694 25.416 208.888 24.0184 208.821 22.6211C208.888 21.2237 208.694 19.8261 208.249 18.4999C208.135 18.133 207.908 17.8121 207.599 17.5842C207.29 17.3563 206.916 17.2333 206.532 17.2333C206.148 17.2333 205.774 17.3563 205.465 17.5842C205.156 17.8121 204.928 18.133 204.814 18.4999C204.369 19.8261 204.175 21.2237 204.242 22.6211C204.175 24.0184 204.369 25.416 204.814 26.7422C204.928 27.1091 205.156 27.43 205.465 27.6579C205.774 27.8859 206.148 28.0088 206.532 28.0088C206.916 28.0088 207.29 27.8859 207.599 27.6579C207.908 27.43 208.135 27.1091 208.249 26.7422Z" fill="#0B2334"/>
<path d="M215.69 30.1761V19.6442C215.726 18.5744 215.687 17.5034 215.575 16.4388C215.504 16.0613 215.466 15.6782 215.461 15.2941C215.461 14.9506 215.804 14.7217 216.606 14.4927C217.247 14.3666 217.898 14.2901 218.552 14.2638C218.687 14.2461 218.825 14.2693 218.948 14.3305C219.07 14.3917 219.171 14.4881 219.239 14.6072C219.382 14.8918 219.46 15.2046 219.468 15.523C219.468 15.8665 219.582 16.2099 219.582 16.4388C220.046 15.728 220.674 15.1391 221.414 14.7217C222.128 14.2561 222.965 14.0167 223.818 14.0348C224.351 13.9895 224.887 14.0693 225.384 14.2681C225.881 14.4668 226.325 14.779 226.68 15.1796C227.385 16.1782 227.71 17.3965 227.595 18.6139V30.0616C227.595 30.634 227.023 30.9774 225.993 30.9774H225.191C224.047 30.9774 223.474 30.634 223.474 30.0616V19.461C223.509 18.9054 223.39 18.3509 223.131 17.8584C222.991 17.6952 222.814 17.5682 222.615 17.4885C222.415 17.4087 222.2 17.3785 221.986 17.4004C221.773 17.389 221.561 17.4241 221.363 17.5031C221.165 17.5822 220.987 17.7034 220.841 17.8584C220.478 18.1454 220.168 18.4942 219.925 18.8886V30.2219C219.945 30.3723 219.909 30.5246 219.825 30.6508C219.741 30.777 219.614 30.8686 219.468 30.9087C219.069 31.0727 218.639 31.1507 218.208 31.1377H217.292C216.262 31.0919 215.69 30.7485 215.69 30.1761Z" fill="#0B2334"/>
<path d="M230.915 11.5162V9.15801C230.915 8.58562 231.602 8.24219 232.976 8.24219C234.35 8.24219 235.036 8.58562 235.036 9.15801V11.4475C235.036 12.0199 234.35 12.3634 232.976 12.3634C231.602 12.3634 230.915 12.0886 230.915 11.5162ZM230.915 30.176V15.1795C230.915 14.6071 231.488 14.2637 232.632 14.2637H233.319C234.464 14.2637 235.036 14.6071 235.036 15.1795V30.176C235.036 30.7484 234.464 31.0918 233.319 31.0918H232.632C231.488 31.0918 230.915 30.7484 230.915 30.176Z" fill="#0B2334"/>
<path d="M239.272 29.9471C238.438 28.9162 238.029 27.6061 238.127 26.2838C238.109 25.4599 238.274 24.6422 238.611 23.8898C238.948 23.1375 239.447 22.4694 240.073 21.9337C241.816 20.7345 243.917 20.1688 246.026 20.331V19.461C246.026 17.9728 245.225 17.2859 243.737 17.2859C243.233 17.2973 242.732 17.3743 242.248 17.5149C241.771 17.6564 241.311 17.8483 240.875 18.0873C240.697 18.1937 240.504 18.271 240.302 18.3162C240.073 18.3162 239.73 17.9728 239.387 17.4004C239.089 16.9944 238.893 16.5235 238.814 16.0267C238.814 15.6833 239.043 15.3398 239.615 14.9964C240.214 14.6208 240.872 14.3498 241.562 14.1951C242.38 13.9611 243.228 13.8454 244.08 13.8516C245.724 13.7251 247.356 14.2148 248.659 15.2254C249.172 15.7295 249.57 16.338 249.827 17.0095C250.083 17.6811 250.193 18.4 250.147 19.1176V25.5283C250.135 26.6012 250.212 27.6733 250.376 28.7336C250.491 29.4205 250.605 29.7639 250.605 29.9929C250.605 30.2218 250.262 30.5653 249.575 30.6797C248.933 30.8059 248.282 30.8824 247.629 30.9087C247.478 30.9279 247.326 30.8921 247.2 30.808C247.074 30.7239 246.982 30.597 246.942 30.4508C246.733 30.0537 246.579 29.6301 246.484 29.1915C246.105 29.7619 245.595 30.233 244.996 30.5653C244.327 30.9278 243.581 31.1241 242.821 31.1376C242.178 31.2175 241.525 31.152 240.911 30.9459C240.297 30.7399 239.737 30.3985 239.272 29.9471ZM244.996 27.772C245.367 27.4994 245.712 27.1928 246.026 26.8562V22.964C243.279 22.964 241.905 23.9943 241.905 26.0549C241.851 26.6277 242.014 27.1998 242.363 27.6576C242.542 27.8405 242.755 27.9855 242.991 28.0838C243.227 28.1822 243.481 28.2319 243.737 28.2299C244.179 28.1474 244.604 27.9927 244.996 27.772Z" fill="#0B2334"/>
<path d="M254.841 30.1765C254.061 29.2109 253.691 27.9778 253.811 26.7422V7.73906C253.811 7.16668 254.383 6.82324 255.528 6.82324H256.215C257.359 6.82324 257.932 7.16668 257.932 7.73906V26.6278C257.927 26.9843 258.005 27.3371 258.161 27.6581C258.292 27.8273 258.48 27.9435 258.691 27.9855C258.901 28.0276 259.119 27.9926 259.306 27.887C259.42 27.887 259.534 27.7725 259.649 27.7725C259.763 27.7725 260.107 28.0015 260.221 28.5739C260.343 28.9841 260.42 29.4063 260.45 29.8331C260.45 30.0694 260.371 30.2989 260.226 30.4855C260.081 30.672 259.878 30.805 259.649 30.8634C259.067 31.0977 258.445 31.2144 257.817 31.2068C257.277 31.2506 256.733 31.1816 256.221 31.0042C255.709 30.8268 255.239 30.545 254.841 30.1765Z" fill="#0B2334"/>
<path d="M262.396 30.6339C261.481 30.176 261.023 29.7181 261.023 29.1457C261.097 28.6123 261.293 28.1031 261.595 27.6575C261.938 27.0851 262.282 26.7417 262.625 26.7417C262.74 26.7417 262.854 26.8561 263.198 27.0851C263.478 27.2826 263.787 27.437 264.114 27.543C264.479 27.6841 264.866 27.7615 265.258 27.772C265.506 27.7937 265.756 27.7642 265.993 27.6855C266.229 27.6067 266.447 27.4803 266.632 27.314C266.795 27.1745 266.922 26.9974 267.002 26.798C267.082 26.5986 267.112 26.3829 267.09 26.1693C267.092 25.9136 267.042 25.6601 266.944 25.4241C266.845 25.188 266.7 24.9742 266.518 24.7956C265.903 24.3246 265.253 23.9035 264.571 23.5363C263.677 23.1101 262.894 22.4833 262.282 21.7047C261.696 20.8702 261.413 19.8602 261.481 18.8427C261.435 18.1695 261.534 17.4943 261.771 16.8624C262.008 16.2306 262.377 15.6569 262.855 15.1797C263.332 14.7025 263.905 14.333 264.537 14.0961C265.169 13.8591 265.844 13.7601 266.518 13.8058C267.417 13.7806 268.312 13.9363 269.151 14.2637C269.952 14.6071 270.41 14.9505 270.41 15.5229C270.384 16.0137 270.226 16.4884 269.952 16.8966C269.723 17.469 269.379 17.8125 269.151 17.8125C268.868 17.7379 268.598 17.6222 268.349 17.469C267.925 17.2482 267.454 17.1305 266.975 17.1256C266.53 17.1006 266.088 17.2211 265.716 17.469C265.557 17.5866 265.432 17.7433 265.352 17.9239C265.271 18.1044 265.239 18.3027 265.258 18.4993C265.247 18.7119 265.282 18.9245 265.361 19.1222C265.44 19.3199 265.561 19.498 265.716 19.6441C266.153 20.0666 266.655 20.4147 267.204 20.6744L267.777 21.0178C268.682 21.4778 269.467 22.1445 270.066 22.9639C270.652 23.7984 270.935 24.8083 270.868 25.8258C270.913 26.5263 270.804 27.2282 270.546 27.8813C270.289 28.5344 269.891 29.1225 269.379 29.6036C268.853 30.0775 268.238 30.4428 267.57 30.6785C266.902 30.9143 266.195 31.0158 265.487 30.9773C264.452 31.2759 263.341 31.1524 262.396 30.6339Z" fill="#0B2334"/>
</g>
<defs>
<clipPath id="clip0_857_7016">
<rect width="271" height="43" fill="white"/>
</clipPath>
</defs>
</svg>
