<svg xmlns="http://www.w3.org/2000/svg" width="120" height="80" fill="none" xmlns:v="https://vecta.io/nano"><rect x=".75" y=".75" width="118.5" height="78.5" rx="2.25" fill="#fff"/><rect x=".75" y=".75" width="118.5" height="78.5" rx="2.25" stroke="#8796a1" stroke-width="1.5"/><mask id="A" maskUnits="userSpaceOnUse" x="9" y="12" width="102" height="38" fill="#000"><path fill="#fff" d="M9 12h102v38H9z"/><path d="M10 13.5a.5.5 0 0 1 .5-.5h99a.5.5 0 0 1 .5.5v35a.5.5 0 0 1-.5.5h-99a.5.5 0 0 1-.5-.5v-35z"/></mask><path d="M10.5 14h99v-2h-99v2zm98.5-.5v35h2v-35h-2zm.5 34.5h-99v2h99v-2zm-98.5.5v-35H9v35h2zm-.5-.5a.5.5 0 0 1 .5.5H9a1.5 1.5 0 0 0 1.5 1.5v-2zm98.5.5a.5.5 0 0 1 .5-.5v2a1.5 1.5 0 0 0 1.5-1.5h-2zm.5-34.5a.5.5 0 0 1-.5-.5h2a1.5 1.5 0 0 0-1.5-1.5v2zm-99-2A1.5 1.5 0 0 0 9 13.5h2a.5.5 0 0 1-.5.5v-2z" fill="#58707f" mask="url(#A)"/><path fill="#58707f" d="M10 13h100v9H10z"/><rect x="13" y="15.5" width="34" height="3" rx="1.5" fill="#fff"/><path d="M100.667 17h4.666" stroke="#fff" stroke-width="2" stroke-linecap="round" stroke-linejoin="round"/><g fill="#58707f"><path fill-rule="evenodd" d="M14.714 28h19.183c.392 0 .714.32.714.714v13.572c0 .394-.322.714-.714.714H14.714c-.392 0-.714-.32-.714-.714V28.714c0-.394.322-.714.714-.714zm4.12 3.671a1.9 1.9 0 0 1 1.901 1.899c0 1.049-.852 1.901-1.901 1.901a1.9 1.9 0 0 1 0-3.8zm-3.181-2.02h17.306v9.638c-3.45-.602-5.264-5.451-7.43-5.451-2.308 0-5.37 5.451-7.021 5.451-1.403 0-1.536-1.443-2.855-2.096v-7.542z"/><rect x="38.611" y="29" width="28" height="3" rx="1.5"/><rect x="38.611" y="35" width="67.389" height="2.5" rx="1.25"/><rect x="38.611" y="39.5" width="20" height="2.5" rx="1.25"/><rect x="9.5" y="56.5" width="101" height="11" rx="1"/></g><rect x="9.5" y="56.5" width="101" height="11" rx="1" stroke="#58707f"/><rect x="14" y="60.5" width="28" height="3" rx="1.5" fill="#fff"/><g clip-path="url(#B)" stroke="#fff" stroke-width="2" stroke-linecap="round" stroke-linejoin="round"><path d="M102 59.667v4.667"/><path d="M99.667 62h4.666"/></g><defs><clipPath id="B"><path fill="#fff" transform="translate(98 58)" d="M0 0h8v8H0z"/></clipPath></defs></svg>