<svg xmlns="http://www.w3.org/2000/svg" width="120" height="80" fill="none" xmlns:v="https://vecta.io/nano"><style><![CDATA[.B{fill-rule:evenodd}]]></style><rect x=".75" y=".75" width="118.5" height="78.5" rx="2.25" fill="#fff"/><rect x=".75" y=".75" width="118.5" height="78.5" rx="2.25" stroke="#8796a1" stroke-width="1.5"/><g fill="#58707f"><path d="M13.97 10.625h26.06c.532 0 .97.435.97.97v18.437c0 .535-.438.97-.97.97H13.97c-.533 0-.97-.435-.97-.97V11.595c0-.536.438-.97.97-.97zm5.597 4.986a2.58 2.58 0 0 1 2.582 2.579c0 1.425-1.157 2.582-2.582 2.582a2.58 2.58 0 1 1 0-5.162zm-4.321-2.744h23.51v13.094c-4.687-.818-7.151-7.405-10.094-7.405-3.135 0-7.295 7.405-9.538 7.405-1.906 0-2.087-1.961-3.878-2.847V12.868z" class="B"/><rect x="13" y="34.002" width="26" height="3" rx="1.5"/><path d="M46.97 10.625h26.06c.532 0 .97.435.97.97v18.437c0 .535-.438.97-.97.97H46.97c-.532 0-.97-.435-.97-.97V11.595c0-.536.438-.97.97-.97zm5.597 4.986a2.58 2.58 0 0 1 2.582 2.579c0 1.425-1.157 2.582-2.582 2.582a2.58 2.58 0 1 1 0-5.162zm-4.321-2.744h23.51v13.094c-4.687-.818-7.151-7.405-10.094-7.405-3.135 0-7.295 7.405-9.538 7.405-1.906 0-2.087-1.961-3.878-2.847V12.868z" class="B"/><rect x="46" y="34.002" width="26" height="3" rx="1.5"/><path d="M79.97 10.625h26.06c.532 0 .97.435.97.97v18.437c0 .535-.438.97-.97.97H79.97c-.532 0-.97-.435-.97-.97V11.595c0-.536.438-.97.97-.97zm5.597 4.986a2.58 2.58 0 0 1 2.582 2.579c0 1.425-1.157 2.582-2.582 2.582a2.58 2.58 0 1 1 0-5.162zm-4.321-2.744h23.509v13.094c-4.687-.818-7.151-7.405-10.093-7.405-3.135 0-7.295 7.405-9.538 7.405-1.906 0-2.087-1.961-3.878-2.847V12.868z" class="B"/><rect x="79" y="34.002" width="26" height="3" rx="1.5"/><path d="M13.97 43.002h26.06c.532 0 .97.435.97.97V62.41c0 .535-.438.97-.97.97H13.97c-.533 0-.97-.435-.97-.97V43.973c0-.536.438-.97.97-.97zm5.597 4.986a2.58 2.58 0 0 1 2.582 2.58c0 1.425-1.157 2.582-2.582 2.582a2.58 2.58 0 1 1 0-5.162zm-4.321-2.744h23.51v13.094c-4.687-.818-7.151-7.405-10.094-7.405-3.135 0-7.295 7.405-9.538 7.405-1.906 0-2.087-1.961-3.878-2.847V45.245z" class="B"/><rect x="13" y="66.38" width="26" height="3" rx="1.5"/><path d="M46.97 43.002h26.06c.532 0 .97.435.97.97V62.41c0 .535-.438.97-.97.97H46.97c-.532 0-.97-.435-.97-.97V43.973c0-.536.438-.97.97-.97zm5.597 4.986a2.58 2.58 0 0 1 2.582 2.58c0 1.425-1.157 2.582-2.582 2.582a2.58 2.58 0 1 1 0-5.162zm-4.321-2.744h23.51v13.094c-4.687-.818-7.151-7.405-10.094-7.405-3.135 0-7.295 7.405-9.538 7.405-1.906 0-2.087-1.961-3.878-2.847V45.245z" class="B"/><rect x="46" y="66.38" width="26" height="3" rx="1.5"/><path d="M79.97 43.002h26.06c.532 0 .97.435.97.97V62.41c0 .535-.438.97-.97.97H79.97c-.532 0-.97-.435-.97-.97V43.973c0-.536.438-.97.97-.97zm5.597 4.986a2.58 2.58 0 0 1 2.582 2.58c0 1.425-1.157 2.582-2.582 2.582a2.58 2.58 0 1 1 0-5.162zm-4.321-2.744h23.509v13.094c-4.687-.818-7.151-7.405-10.093-7.405-3.135 0-7.295 7.405-9.538 7.405-1.906 0-2.087-1.961-3.878-2.847V45.245z" class="B"/><rect x="79" y="66.38" width="26" height="3" rx="1.5"/></g></svg>