<svg xmlns="http://www.w3.org/2000/svg" width="120" height="80" fill="none" xmlns:v="https://vecta.io/nano"><style><![CDATA[.B{fill:#58707f}.C{stroke:#718491}.D{fill-rule:evenodd}]]></style><rect x=".75" y=".75" width="118.5" height="78.5" rx="2.25" fill="#fff"/><rect x=".75" y=".75" width="118.5" height="78.5" rx="2.25" stroke="#8796a1" stroke-width="1.5"/><rect x="59" y="6" width="2" height="68" rx="1" fill="#718491"/><g class="B"><rect x="57" y="12" width="6" height="6" rx="3"/><rect x="57" y="24" width="6" height="6" rx="3"/><rect x="57" y="42" width="6" height="6" rx="3"/><rect x="57" y="54" width="6" height="6" rx="3"/></g><rect x="68.5" y="18.5" width="31.733" height="25" rx="1.5" fill="#fff"/><rect x="68.5" y="18.5" width="31.733" height="25" rx="1.5" class="C"/><g class="B"><path d="M72.857 22h23.019a.86.86 0 0 1 .857.857v16.286a.86.86 0 0 1-.857.857H72.857a.86.86 0 0 1-.857-.857V22.857a.86.86 0 0 1 .857-.857zm4.944 4.405a2.28 2.28 0 0 1 2.281 2.279c0 1.259-1.022 2.281-2.281 2.281a2.28 2.28 0 0 1 0-4.56zm-3.817-2.423h20.767v11.566c-4.14-.722-6.317-6.541-8.916-6.541-2.769 0-6.444 6.541-8.425 6.541-1.684 0-1.844-1.732-3.426-2.515v-9.051z" class="D"/><path d="M65.212 27.212a.3.3 0 0 1 0-.424L68 24v6l-2.788-2.788z"/></g><rect x="68.5" y="48.5" width="31.733" height="25" rx="1.5" fill="#fff"/><rect x="68.5" y="48.5" width="31.733" height="25" rx="1.5" class="C"/><g class="B"><path d="M72.857 52h23.019a.86.86 0 0 1 .857.857v16.286a.86.86 0 0 1-.857.857H72.857a.86.86 0 0 1-.857-.857V52.857a.86.86 0 0 1 .857-.857zm4.944 4.405a2.28 2.28 0 0 1 2.281 2.279c0 1.259-1.022 2.281-2.281 2.281a2.28 2.28 0 0 1 0-4.56zm-3.817-2.424h20.767v11.566c-4.14-.722-6.317-6.541-8.916-6.541-2.769 0-6.444 6.541-8.425 6.541-1.684 0-1.844-1.732-3.426-2.515v-9.051z" class="D"/><path d="M65.212 57.212a.3.3 0 0 1 0-.424L68 54v6l-2.788-2.788z"/></g><rect x="19.77" y="36.5" width="31.733" height="25" rx="1.5" fill="#fff"/><rect x="19.77" y="36.5" width="31.733" height="25" rx="1.5" class="C"/><g class="B"><path d="M24.127 40h23.019a.86.86 0 0 1 .857.857v16.286a.86.86 0 0 1-.857.857H24.127a.86.86 0 0 1-.857-.857V40.857a.86.86 0 0 1 .857-.857zm4.944 4.405a2.28 2.28 0 0 1 2.281 2.279c0 1.259-1.022 2.281-2.281 2.281a2.28 2.28 0 0 1 0-4.56zm-3.817-2.424h20.767v11.566c-4.14-.722-6.317-6.541-8.916-6.541-2.769 0-6.444 6.541-8.425 6.541-1.684 0-1.844-1.732-3.426-2.515v-9.051z" class="D"/><path d="M54.788 45.212a.3.3 0 0 0 0-.424L52 42v6l2.788-2.788zm0-30a.3.3 0 0 0 0-.424L52 12v6l2.788-2.788z"/></g><rect x="19.77" y="6.5" width="31.733" height="25" rx="1.5" fill="#fff"/><rect x="19.77" y="6.5" width="31.733" height="25" rx="1.5" class="C"/><path d="M24.127 10h23.019a.86.86 0 0 1 .857.857v16.286a.86.86 0 0 1-.857.857H24.127a.86.86 0 0 1-.857-.857V10.857a.86.86 0 0 1 .857-.857zm4.944 4.405a2.28 2.28 0 0 1 2.281 2.279c0 1.259-1.022 2.281-2.281 2.281a2.28 2.28 0 0 1 0-4.56zm-3.817-2.424h20.767v11.566c-4.14-.722-6.317-6.541-8.916-6.541-2.769 0-6.444 6.541-8.425 6.541-1.684 0-1.844-1.732-3.426-2.515v-9.051z" class="B D"/></svg>