<svg xmlns="http://www.w3.org/2000/svg" width="120" height="80" fill="none" xmlns:v="https://vecta.io/nano"><rect x=".75" y=".75" width="118.5" height="78.5" rx="2.25" fill="#fff"/><rect x=".75" y=".75" width="118.5" height="78.5" rx="2.25" stroke="#8796a1" stroke-width="1.5"/><g fill="#58707f"><path fill-rule="evenodd" d="M16.109 12.711h29.782A1.11 1.11 0 0 1 47 13.82v21.071a1.11 1.11 0 0 1-1.109 1.109H16.109A1.11 1.11 0 0 1 15 34.891V13.82a1.11 1.11 0 0 1 1.109-1.109zm6.396 5.699a2.95 2.95 0 0 1 2.951 2.948c0 1.629-1.323 2.951-2.951 2.951a2.95 2.95 0 0 1-2.948-2.951 2.95 2.95 0 0 1 2.948-2.948zm-4.939-3.136h26.868v14.964c-5.357-.934-8.173-8.462-11.536-8.462-3.583 0-8.338 8.462-10.901 8.462-2.178 0-2.385-2.241-4.432-3.254v-11.71z"/><rect x="51" y="15.105" width="28" height="3" rx="1.5"/><rect x="51" y="22.105" width="54" height="2.5" rx="1.25"/><rect x="51" y="26.605" width="52" height="2.5" rx="1.25"/><rect x="51" y="31.105" width="20" height="2.5" rx="1.25"/><rect x="41" y="46.394" width="28" height="3" rx="1.5"/><rect x="15" y="53.394" width="54" height="2.5" rx="1.25"/><rect x="17" y="57.894" width="52" height="2.5" rx="1.25"/><rect x="49" y="62.394" width="20" height="2.5" rx="1.25"/><path fill-rule="evenodd" d="M74.109 44h29.782A1.11 1.11 0 0 1 105 45.108v21.071a1.11 1.11 0 0 1-1.109 1.109H74.109A1.11 1.11 0 0 1 73 66.179V45.108A1.11 1.11 0 0 1 74.109 44zm6.396 5.699a2.95 2.95 0 0 1 2.951 2.948c0 1.629-1.323 2.951-2.951 2.951a2.95 2.95 0 0 1-2.948-2.951 2.95 2.95 0 0 1 2.948-2.948zm-4.939-3.136h26.869v14.964c-5.357-.934-8.173-8.462-11.536-8.462-3.583 0-8.338 8.462-10.901 8.462-2.178 0-2.385-2.241-4.432-3.254v-11.71z"/></g></svg>