<svg xmlns="http://www.w3.org/2000/svg" xmlns:xlink="http://www.w3.org/1999/xlink" width="94" height="60" fill="none"><style><![CDATA[.B{fill:#fff}.C{stroke:#718491}.D{stroke-width:.587}.E{fill:#718491}.F{fill-rule:evenodd}]]></style><rect x=".6" y=".6" width="92.8" height="58.8" rx="2.4" class="B"/><rect x=".6" y=".6" width="92.8" height="58.8" rx="2.4" stroke="#8796a1" stroke-width="1.2"/><g clip-path="url(#A)"><g class="B"><path d="M10.33 8h73.333v44H10.33z"/><rect x="10.623" y="8.293" width="22.147" height="20.13" rx="1.173" class="C D"/></g><g class="E"><use xlink:href="#B"/><use xlink:href="#C"/><use xlink:href="#D"/><path d="M18.763 23.195l.44.88.88.11-.604.678.164.972-.88-.44-.88.44.166-.972-.606-.678.88-.11.44-.88zm2.934 0l.44.88.88.11-.604.678.164.972-.88-.44-.88.44.166-.972-.606-.678.88-.11.44-.88zm2.933 0l.44.88.88.11-.604.678.164.972-.88-.44-.88.44.166-.972-.606-.678.88-.11.44-.88zm2.933 0l.44.88.88.11-.604.678.164.972-.88-.44-.88.44.166-.972-.606-.678.88-.11.44-.88z"/><use xlink:href="#E" class="F"/></g><rect x="35.923" y="8.293" width="22.147" height="20.13" rx="1.173" class="B C D"/><g class="E"><path d="M38.563 18.061c0-.405.328-.733.733-.733h15.4c.405 0 .733.328.733.733s-.328.733-.733.733h-15.4c-.405 0-.733-.328-.733-.733zm3.3 2.934c0-.405.328-.733.733-.733h8.8c.405 0 .733.328.733.733s-.328.733-.733.733h-8.8c-.405 0-.733-.328-.733-.733zm-.733 2.2l.44.88.88.11-.604.678.164.972-.88-.44-.88.44.166-.972-.606-.678.88-.11.44-.88zm2.933 0l.44.88.88.11-.604.678.164.972-.88-.44-.88.44.166-.972-.606-.678.88-.11.44-.88zm2.934 0l.44.88.88.11-.604.678.164.972-.88-.44-.88.44.166-.972-.606-.678.88-.11.44-.88zm2.933 0l.44.88.88.11-.604.678.164.972-.88-.44-.88.44.166-.972-.606-.678.88-.11.44-.88zm2.933 0l.44.88.88.11-.604.678.164.972-.88-.44-.88.44.166-.972-.606-.678.88-.11.44-.88z"/><path d="M46.997 10.728a2.2 2.2 0 1 0 0 4.4 2.2 2.2 0 1 0 0-4.4zm-1.467 3.706c.379.369.896.596 1.467.596s1.088-.227 1.467-.596v-.018a.74.74 0 0 0-.215-.522.73.73 0 0 0-.518-.216h-1.467a.73.73 0 0 0-.518.216.74.74 0 0 0-.215.522v.018zm2.2-1.843c0 .408-.328.739-.733.739s-.733-.331-.733-.739.328-.739.733-.739.733.331.733.739z" class="F"/></g><rect x="61.223" y="8.293" width="22.147" height="20.13" rx="1.173" class="B C D"/><g class="E"><path d="M63.863 18.061c0-.405.328-.733.733-.733h15.4c.405 0 .733.328.733.733s-.328.733-.733.733h-15.4c-.405 0-.733-.328-.733-.733zm3.3 2.934c0-.405.328-.733.733-.733h8.8c.405 0 .733.328.733.733s-.328.733-.733.733h-8.8c-.405 0-.733-.328-.733-.733zm-.733 2.2l.44.88.88.11-.604.678.164.972-.88-.44-.88.44.166-.972-.606-.678.88-.11.44-.88zm2.933 0l.44.88.88.11-.604.678.164.972-.88-.44-.88.44.166-.972-.606-.678.88-.11.44-.88zm2.934 0l.44.88.88.11-.604.678.164.972-.88-.44-.88.44.166-.972-.606-.678.88-.11.44-.88zm2.933 0l.44.88.88.11-.604.678.164.972-.88-.44-.88.44.166-.972-.606-.678.88-.11.44-.88zm2.933 0l.44.88.88.11-.604.678.164.972-.88-.44-.88.44.166-.972-.606-.678.88-.11.44-.88z"/><path d="M72.297 10.728a2.2 2.2 0 1 0 0 4.4 2.2 2.2 0 1 0 0-4.4zm-1.467 3.706c.379.369.896.596 1.467.596s1.088-.227 1.467-.596v-.018a.74.74 0 0 0-.215-.522.73.73 0 0 0-.519-.216h-1.467a.73.73 0 0 0-.519.216.74.74 0 0 0-.215.522v.018zm2.2-1.843c0 .408-.328.739-.733.739s-.733-.331-.733-.739.328-.739.733-.739.733.331.733.739z" class="F"/></g><rect x="10.623" y="31.577" width="22.147" height="20.13" rx="1.173" class="B C D"/><g class="E"><path d="M13.263 41.345c0-.405.328-.733.733-.733h15.4c.405 0 .733.328.733.733s-.328.733-.733.733h-15.4c-.405 0-.733-.328-.733-.733zm3.3 2.933c0-.405.328-.733.733-.733h8.8c.405 0 .733.328.733.733s-.328.733-.733.733h-8.8c-.405 0-.733-.328-.733-.733zm-.733 2.2l.44.88.88.11-.604.678.164.972-.88-.44-.88.44.166-.972-.606-.678.88-.11.44-.88zm2.933 0l.44.88.88.11-.604.678.164.972-.88-.44-.88.44.166-.972-.606-.678.88-.11.44-.88zm2.934 0l.44.88.88.11-.604.678.164.972-.88-.44-.88.44.166-.972-.606-.678.88-.11.44-.88zm2.933 0l.44.88.88.11-.604.678.164.972-.88-.44-.88.44.166-.972-.606-.678.88-.11.44-.88zm2.933 0l.44.88.88.11-.604.678.164.972-.88-.44-.88.44.166-.972-.606-.678.88-.11.44-.88z"/><path d="M21.697 34.011a2.2 2.2 0 0 0 0 4.4 2.2 2.2 0 1 0 0-4.4zm-1.467 3.706c.379.369.896.596 1.467.596s1.088-.227 1.467-.596v-.018a.74.74 0 0 0-.215-.522.73.73 0 0 0-.518-.216h-1.467a.73.73 0 0 0-.518.216.74.74 0 0 0-.215.522v.018zm2.2-1.843c0 .408-.328.739-.733.739s-.733-.331-.733-.739.328-.739.733-.739.733.331.733.739z" class="F"/></g><rect x="35.923" y="31.577" width="22.147" height="20.13" rx="1.173" class="B C D"/><g class="E"><path d="M38.563 41.345c0-.405.328-.733.733-.733h15.4c.405 0 .733.328.733.733s-.328.733-.733.733h-15.4c-.405 0-.733-.328-.733-.733zm3.3 2.933c0-.405.328-.733.733-.733h8.8c.405 0 .733.328.733.733s-.328.733-.733.733h-8.8c-.405 0-.733-.328-.733-.733zm-.733 2.2l.44.88.88.11-.604.678.164.972-.88-.44-.88.44.166-.972-.606-.678.88-.11.44-.88zm2.933 0l.44.88.88.11-.604.678.164.972-.88-.44-.88.44.166-.972-.606-.678.88-.11.44-.88zm2.934 0l.44.88.88.11-.604.678.164.972-.88-.44-.88.44.166-.972-.606-.678.88-.11.44-.88zm2.933 0l.44.88.88.11-.604.678.164.972-.88-.44-.88.44.166-.972-.606-.678.88-.11.44-.88zm2.933 0l.44.88.88.11-.604.678.164.972-.88-.44-.88.44.166-.972-.606-.678.88-.11.44-.88z"/><path d="M46.997 34.011a2.2 2.2 0 0 0 0 4.4 2.2 2.2 0 0 0 0-4.4zm-1.467 3.706c.379.369.896.596 1.467.596s1.088-.227 1.467-.596v-.018a.74.74 0 0 0-.215-.522.73.73 0 0 0-.518-.216h-1.467a.73.73 0 0 0-.518.216.74.74 0 0 0-.215.522v.018zm2.2-1.843c0 .408-.328.739-.733.739s-.733-.331-.733-.739.328-.739.733-.739.733.331.733.739z" class="F"/></g><rect x="61.223" y="31.577" width="22.147" height="20.13" rx="1.173" class="B C D"/><g class="E"><path d="M63.863 41.345c0-.405.328-.733.733-.733h15.4c.405 0 .733.328.733.733s-.328.733-.733.733h-15.4c-.405 0-.733-.328-.733-.733zm3.3 2.933c0-.405.328-.733.733-.733h8.8c.405 0 .733.328.733.733s-.328.733-.733.733h-8.8c-.405 0-.733-.328-.733-.733zm-.733 2.2l.44.88.88.11-.604.678.164.972-.88-.44-.88.44.166-.972-.606-.678.88-.11.44-.88zm2.933 0l.44.88.88.11-.604.678.164.972-.88-.44-.88.44.166-.972-.606-.678.88-.11.44-.88zm2.934 0l.44.88.88.11-.604.678.164.972-.88-.44-.88.44.166-.972-.606-.678.88-.11.44-.88zm2.933 0l.44.88.88.11-.604.678.164.972-.88-.44-.88.44.166-.972-.606-.678.88-.11.44-.88zm2.933 0l.44.88.88.11-.604.678.164.972-.88-.44-.88.44.166-.972-.606-.678.88-.11.44-.88z"/><path d="M72.297 34.011a2.2 2.2 0 0 0 0 4.4 2.2 2.2 0 1 0 0-4.4zm-1.467 3.706c.379.369.896.596 1.467.596s1.088-.227 1.467-.596v-.018a.74.74 0 0 0-.215-.522.73.73 0 0 0-.519-.216h-1.467a.73.73 0 0 0-.519.216.74.74 0 0 0-.215.522v.018zm2.2-1.843c0 .408-.328.739-.733.739s-.733-.331-.733-.739.328-.739.733-.739.733.331.733.739z" class="F"/></g></g><defs><clipPath id="A"><path transform="translate(10.33 8)" d="M0 0h73.333v44H0z" class="B"/></clipPath><path id="B" d="M13.263 18.061c0-.405.328-.733.733-.733h15.4c.405 0 .733.328.733.733s-.328.733-.733.733h-15.4c-.405 0-.733-.328-.733-.733z"/><path id="C" d="M16.563 20.995c0-.405.328-.733.733-.733h8.8c.405 0 .733.328.733.733s-.328.733-.733.733h-8.8c-.405 0-.733-.328-.733-.733z"/><path id="D" d="M15.83 23.195l.44.88.88.11-.604.678.164.972-.88-.44-.88.44.166-.972-.606-.678.88-.11.44-.88z"/><path id="E" d="M21.697 10.728a2.2 2.2 0 1 0 0 4.4 2.2 2.2 0 1 0 0-4.4zm-1.467 3.706c.379.369.896.596 1.467.596s1.088-.227 1.467-.596v-.018a.74.74 0 0 0-.215-.522.73.73 0 0 0-.518-.216h-1.467a.73.73 0 0 0-.518.216.74.74 0 0 0-.215.522v.018zm2.2-1.843c0 .408-.328.739-.733.739s-.733-.331-.733-.739.328-.739.733-.739.733.331.733.739z"/></defs></svg>