<svg xmlns="http://www.w3.org/2000/svg" xmlns:xlink="http://www.w3.org/1999/xlink" width="120" height="80" fill="none"><rect x=".75" y=".75" width="118.5" height="78.5" rx="2.25" fill="#fff"/><rect x=".75" y=".75" width="118.5" height="78.5" rx="2.25" stroke="#8796a1" stroke-width="1.5"/><g clip-path="url(#A)"><path fill="#fff" d="M14 10h92v60H14z"/><rect x="14.4" y="10.4" width="91.2" height="27.2" rx="1.6" stroke="#718491" stroke-width=".8"/><g fill="#718491"><path fill-rule="evenodd" d="M27 16a8 8 0 1 0 0 16 8 8 0 1 0 0-16zm-5.333 13.477a7.62 7.62 0 0 0 10.667 0v-.066c0-.712-.281-1.396-.781-1.899s-1.178-.787-1.886-.787h-5.333c-.707 0-1.386.283-1.886.787s-.781 1.187-.781 1.899v.066zm8-6.702c0 1.484-1.194 2.686-2.667 2.686s-2.667-1.203-2.667-2.686 1.194-2.686 2.667-2.686 2.667 1.203 2.667 2.686z"/><use xlink:href="#B"/><path d="M39 20.7a1 1 0 0 1 1-1h55a1 1 0 1 1 0 2H40a1 1 0 0 1-1-1zm0 4.5a1 1 0 0 1 1-1h22a1 1 0 1 1 0 2H40a1 1 0 0 1-1-1zm1.8 4l.6 1.2 1.2.15-.824.924L42 32.8l-1.2-.6-1.2.6.226-1.326L39 30.55l1.2-.15.6-1.2zm4 0l.6 1.2 1.2.15-.824.924L46 32.8l-1.2-.6-1.2.6.226-1.326L43 30.55l1.2-.15.6-1.2zm4 0l.6 1.2 1.2.15-.824.924L50 32.8l-1.2-.6-1.2.6.226-1.326L47 30.55l1.2-.15.6-1.2zm4 0l.6 1.2 1.2.15-.824.924L54 32.8l-1.2-.6-1.2.6.226-1.326L51 30.55l1.2-.15.6-1.2zm4 0l.6 1.2 1.2.15-.824.924L58 32.8l-1.2-.6-1.2.6.226-1.326L55 30.55l1.2-.15.6-1.2z"/></g><rect x="14.4" y="42.4" width="91.2" height="27.2" rx="1.6" stroke="#718491" stroke-width=".8"/><g fill="#718491"><path fill-rule="evenodd" d="M27 48a8 8 0 1 0 0 16 8 8 0 1 0 0-16zm-5.333 13.477a7.62 7.62 0 0 0 10.667 0v-.066c0-.712-.281-1.396-.781-1.9s-1.178-.787-1.886-.787h-5.333c-.707 0-1.386.283-1.886.787s-.781 1.187-.781 1.9v.066zm8-6.703c0 1.484-1.194 2.686-2.667 2.686s-2.667-1.203-2.667-2.686 1.194-2.686 2.667-2.686 2.667 1.203 2.667 2.686z"/><path d="M39 48.2a1 1 0 0 1 1-1h55a1 1 0 1 1 0 2H40a1 1 0 0 1-1-1zm0 4.5a1 1 0 0 1 1-1h55a1 1 0 1 1 0 2H40a1 1 0 0 1-1-1zm0 4.5a1 1 0 0 1 1-1h22a1 1 0 1 1 0 2H40a1 1 0 0 1-1-1zm1.8 4l.6 1.2 1.2.15-.824.924L42 64.8l-1.2-.6-1.2.6.226-1.326L39 62.55l1.2-.15.6-1.2zm4 0l.6 1.2 1.2.15-.824.924L46 64.8l-1.2-.6-1.2.6.226-1.326L43 62.55l1.2-.15.6-1.2zm4 0l.6 1.2 1.2.15-.824.924L50 64.8l-1.2-.6-1.2.6.226-1.326L47 62.55l1.2-.15.6-1.2zm4 0l.6 1.2 1.2.15-.824.924L54 64.8l-1.2-.6-1.2.6.226-1.326L51 62.55l1.2-.15.6-1.2zm4 0l.6 1.2 1.2.15-.824.924L58 64.8l-1.2-.6-1.2.6.226-1.326L55 62.55l1.2-.15.6-1.2z"/></g></g><defs><clipPath id="A"><path fill="#fff" transform="translate(14 10)" d="M0 0h92v60H0z"/></clipPath><path id="B" d="M39 16.2a1 1 0 0 1 1-1h55a1 1 0 1 1 0 2H40a1 1 0 0 1-1-1z"/></defs></svg>