<svg xmlns="http://www.w3.org/2000/svg" width="120" height="80" fill="none"><rect x=".75" y=".75" width="118.5" height="78.5" rx="2.25" fill="#fff"/><rect x=".75" y=".75" width="118.5" height="78.5" rx="2.25" stroke="#8796a1" stroke-width="1.5"/><g fill="#718491"><path fill-rule="evenodd" d="M60 13a7 7 0 1 0 0 14 7 7 0 1 0 0-14zm-4.667 11.792c1.205 1.174 2.852 1.897 4.667 1.897s3.462-.723 4.667-1.897v-.057a2.36 2.36 0 0 0-.684-1.662c-.437-.441-1.031-.689-1.65-.689h-4.667c-.619 0-1.212.248-1.65.689a2.36 2.36 0 0 0-.684 1.662v.057zm7-5.865c0 1.298-1.045 2.351-2.333 2.351s-2.333-1.052-2.333-2.351 1.045-2.351 2.333-2.351 2.333 1.052 2.333 2.351z"/><path d="M32 35.35a2 2 0 0 1 2-2h52a2 2 0 1 1 0 4H34a2 2 0 0 1-2-2z"/></g><path d="M18 43.6a1.25 1.25 0 0 1 1.25-1.25h81.5a1.25 1.25 0 1 1 0 2.5h-81.5A1.25 1.25 0 0 1 18 43.6zm0 5.5a1.25 1.25 0 0 1 1.25-1.25h81.5a1.25 1.25 0 1 1 0 2.5h-81.5A1.25 1.25 0 0 1 18 49.1zm20 5.5a1.25 1.25 0 0 1 1.25-1.25h41.5a1.25 1.25 0 1 1 0 2.5h-41.5A1.25 1.25 0 0 1 38 54.6z" fill="#9ea9b2"/><path d="M46 60.85l1.05 2.1 2.1.262-1.442 1.617.392 2.321L46 66.1l-2.1 1.05.395-2.321-1.445-1.617 2.1-.262 1.05-2.1zm7 0l1.05 2.1 2.1.262-1.442 1.617.392 2.321L53 66.1l-2.1 1.05.395-2.321-1.445-1.617 2.1-.262 1.05-2.1zm7 0l1.05 2.1 2.1.262-1.442 1.617.392 2.321L60 66.1l-2.1 1.05.395-2.321-1.445-1.617 2.1-.262 1.05-2.1zm7 0l1.05 2.1 2.1.262-1.442 1.617.392 2.321L67 66.1l-2.1 1.05.395-2.321-1.446-1.617 2.1-.262 1.05-2.1zm7 0l1.05 2.1 2.1.262-1.442 1.617.392 2.321L74 66.1l-2.1 1.05.395-2.321-1.446-1.617 2.1-.262 1.05-2.1z" fill="#718491"/><path d="M109.5 44l4-4-4-4m-99 0l-4 4 4 4" stroke="#718491" stroke-width="1.8" stroke-linecap="round" stroke-linejoin="round"/></svg>