<svg xmlns="http://www.w3.org/2000/svg" width="120" height="80" fill="none" ><rect x=".75" y=".75" width="118.5" height="78.5" rx="2.25" fill="#fff"/><rect x=".75" y=".75" width="118.5" height="78.5" rx="2.25" stroke="#8796a1" stroke-width="1.5"/><g fill-rule="evenodd"><path d="M41.333 12a6.67 6.67 0 0 0-6.667 6.667 6.67 6.67 0 0 0 6.667 6.667A6.67 6.67 0 0 0 48 18.667 6.67 6.67 0 0 0 41.333 12zm-4.444 11.231a6.35 6.35 0 0 0 8.889 0v-.055c0-.594-.234-1.163-.651-1.583s-.982-.656-1.571-.656h-4.444c-.589 0-1.155.236-1.571.656s-.651.989-.651 1.583v.055zm6.667-5.585c0 1.236-.995 2.239-2.222 2.239a2.23 2.23 0 1 1 0-4.477c1.227 0 2.222 1.002 2.222 2.239z" fill="#bbc2c7"/><path d="M60 10.667a8 8 0 1 0 0 16 8 8 0 1 0 0-16zm-5.333 13.477a7.62 7.62 0 0 0 10.667 0v-.066c0-.712-.281-1.396-.781-1.899s-1.178-.787-1.886-.787h-5.333c-.707 0-1.386.283-1.886.787s-.781 1.187-.781 1.899v.066zm8-6.703c0 1.484-1.194 2.686-2.667 2.686s-2.667-1.203-2.667-2.686 1.194-2.686 2.667-2.686 2.667 1.203 2.667 2.686z" fill="#718491"/><path d="M78.667 12A6.67 6.67 0 0 0 72 18.667a6.67 6.67 0 0 0 6.667 6.667 6.67 6.67 0 0 0 6.667-6.667A6.67 6.67 0 0 0 78.667 12zm-4.445 11.231a6.35 6.35 0 0 0 8.889 0v-.055c0-.594-.234-1.163-.651-1.583s-.982-.656-1.571-.656h-4.445c-.589 0-1.155.236-1.571.656s-.651.989-.651 1.583v.055zm6.667-5.585a2.23 2.23 0 0 1-2.222 2.239c-1.227 0-2.222-1.002-2.222-2.239s.995-2.239 2.222-2.239a2.23 2.23 0 0 1 2.222 2.239z" fill="#bbc2c7"/></g><rect x="33.085" y="32" width="53.83" height="4" rx="2" fill="#718491"/><g fill="#8796a1"><rect x="22.667" y="40" width="74.667" height="2.667" rx="1.333"/><rect x="38.853" y="45.333" width="42.295" height="2.667" rx="1.333"/></g><g clip-path="url(#A)"><use href="#F" fill="#718491"/></g><g clip-path="url(#B)"><path d="M53.333 53.667l1 2 2 .25-1.373 1.54.373 2.21-2-1-2 1 .377-2.21-1.377-1.54 2-.25 1-2z" fill="#718491"/></g><g clip-path="url(#C)"><path d="M60 53.667l1 2 2 .25-1.373 1.54.373 2.21-2-1-2 1 .377-2.21L57 55.917l2-.25 1-2z" fill="#718491"/></g><g clip-path="url(#D)"><path d="M66.667 53.667l1 2 2 .25-1.373 1.54.373 2.21-2-1-2 1 .377-2.21-1.377-1.54 2-.25 1-2z" fill="#718491"/></g><g clip-path="url(#E)"><path d="M73.333 53.667l1 2 2 .25-1.373 1.54.373 2.21-2-1-2 1 .377-2.21-1.377-1.54 2-.25 1-2z" fill="#718491"/></g><rect x="48" y="66.667" width="5.333" height="5.333" rx="2.667" fill="#9ea9b2"/><rect x="57.333" y="66.667" width="5.333" height="5.333" rx="2.667" fill="#718491"/><rect x="66.667" y="66.667" width="5.333" height="5.333" rx="2.667" fill="#9ea9b2"/><path d="M107.333 45.333L112.667 40l-5.334-5.333m-94.666 0L7.333 40l5.333 5.333" stroke="#718491" stroke-width="2.4" stroke-linecap="round" stroke-linejoin="round"/><defs><clipPath id="A"><path fill="#fff" transform="translate(43.333 53.333)" d="M0 0h6.667v6.667H0z"/></clipPath><clipPath id="B"><path fill="#fff" transform="translate(50 53.333)" d="M0 0h6.667v6.667H0z"/></clipPath><clipPath id="C"><path fill="#fff" transform="translate(56.667 53.333)" d="M0 0h6.667v6.667H0z"/></clipPath><clipPath id="D"><path fill="#fff" transform="translate(63.333 53.333)" d="M0 0h6.667v6.667H0z"/></clipPath><clipPath id="E"><path fill="#fff" transform="translate(70 53.333)" d="M0 0h6.667v6.667H0z"/></clipPath><path id="F" d="M46.667 53.667l1 2 2 .25-1.373 1.54.373 2.21-2-1-2 1 .377-2.21-1.377-1.54 2-.25 1-2z"/></defs></svg>