<svg xmlns="http://www.w3.org/2000/svg" xmlns:xlink="http://www.w3.org/1999/xlink" width="250" height="190" fill="none"><style><![CDATA[.B{font-family:Roboto}.C{font-weight:600}.D{stroke:#718491}.E{stroke-width:1.5}.F{fill:#718491}.G{fill-rule:evenodd}.H{fill:#444d54}]]></style><path fill="#fff" d="M0 0h250v190H0z"/><rect x="77.5" y="159.5" width="11" height="11" rx="5.5" fill="#ffd9f1" stroke="#f21197"/><text fill="#546069" xml:space="preserve" style="white-space:pre" font-size="12" letter-spacing="0em" class="B C"><tspan x="93" y="169.031">Average Rating</tspan></text><rect x="19.5" y="19.5" width="211" height="131" rx="3.5" fill="#fff"/><rect x="19.5" y="19.5" width="211" height="131" rx="3.5" stroke="#bbc2c7"/><rect x="33" y="82.5" width="56" height="58" rx="3.489" fill="#fff" class="D E"/><g class="F"><use xlink:href="#B"/><use xlink:href="#B" x="7.305"/><path d="M61 127.479l1.096 2.191 2.191.274-1.505 1.688.409 2.421L61 132.957l-2.191 1.096.413-2.421-1.508-1.688 2.191-.274L61 127.479z"/><use xlink:href="#B" x="21.913"/><use xlink:href="#B" x="29.218"/><path d="M61.087 88.94c-4.034 0-7.304 3.27-7.304 7.304s3.27 7.305 7.304 7.305 7.304-3.271 7.304-7.305-3.27-7.304-7.304-7.304zm-4.87 12.305c1.258 1.225 2.975 1.979 4.87 1.979s3.612-.754 4.87-1.979v-.06a2.46 2.46 0 0 0-.713-1.734c-.457-.46-1.076-.718-1.722-.718h-4.87c-.646 0-1.265.258-1.722.718a2.46 2.46 0 0 0-.713 1.734v.06zm7.304-6.12c0 1.355-1.09 2.453-2.435 2.453s-2.435-1.098-2.435-2.453 1.09-2.453 2.435-2.453 2.435 1.098 2.435 2.453z" class="G"/><use xlink:href="#C"/><use xlink:href="#D"/><use xlink:href="#C" y="12"/></g><rect x="97" y="82.5" width="56" height="58" rx="3.489" fill="#fff" class="D E"/><g class="F"><use xlink:href="#E"/><use xlink:href="#F"/><use xlink:href="#G"/><use xlink:href="#E" x="21.913"/><use xlink:href="#F" x="21.913"/><use xlink:href="#H" class="G"/><use xlink:href="#C" x="64"/><use xlink:href="#D" x="64"/><use xlink:href="#C" x="64" y="12"/></g><rect x="161" y="82.5" width="56" height="58" rx="3.489" fill="#fff" class="D E"/><g class="F"><use xlink:href="#E" x="64"/><use xlink:href="#F" x="64"/><use xlink:href="#G" x="64"/><use xlink:href="#E" x="85.913"/><use xlink:href="#F" x="85.913"/><use xlink:href="#H" x="64" class="G"/><use xlink:href="#C" x="128"/><use xlink:href="#D" x="128"/><use xlink:href="#C" x="128" y="12"/></g><rect x="175.5" y="72.5" width="100" height="43" rx=".5" transform="rotate(180 175.5 72.5)" stroke="#f21197"/><text xml:space="preserve" style="white-space:pre" font-size="10" letter-spacing="0em" class="B C H"><tspan x="90" y="45.109">Average Rating</tspan></text><text xml:space="preserve" style="white-space:pre" font-size="7" letter-spacing="0em" class="B C H"><tspan x="125.5" y="55.977">5 Out 5 stars</tspan><tspan x="91" y="64.977">Based on 35 Reviews</tspan></text><path d="M89 50l1.167 2.333 2.333.292-1.602 1.797.435 2.578L89 55.833 86.667 57l.439-2.578-1.606-1.797 2.333-.292L89 50zm7.778 0l1.167 2.333 2.334.292-1.602 1.797.435 2.578-2.333-1.167L94.444 57l.439-2.578-1.606-1.797 2.333-.292L96.778 50zm7.778 0l1.166 2.333 2.334.292-1.603 1.797.436 2.578-2.333-1.167L102.222 57l.44-2.578-1.606-1.797 2.333-.292L104.556 50zm7.777 0l1.167 2.333 2.333.292-1.602 1.797.436 2.578-2.334-1.167L110 57l.439-2.578-1.606-1.797 2.334-.292L112.333 50zm7.778 0l1.167 2.333 2.333.292-1.602 1.797.435 2.578-2.333-1.167L117.778 57l.439-2.578-1.606-1.797 2.333-.292L120.111 50z" fill="#ffb900"/><path d="M175 166a4 4 0 1 0 8 0 4 4 0 1 0-8 0zm58 0v.75a.75.75 0 0 0 .75-.75H233zm0-113h.75a.75.75 0 0 0-.75-.75V53zm-55.5 0l7.5 4.33v-8.66L177.5 53zm1.5 113.75h54v-1.5h-54v1.5zm54.75-.75V53h-1.5v113h1.5zM233 52.25h-48.75v1.5H233v-1.5z" fill="#f21197"/><defs ><path id="B" d="M46.391 127.479l1.096 2.191 2.191.274-1.505 1.688.409 2.421-2.191-1.096-2.191 1.096.413-2.421-1.508-1.688 2.191-.274 1.096-2.191z"/><path id="C" d="M48 109.44a1.5 1.5 0 0 1 1.5-1.5h23a1.5 1.5 0 1 1 0 3h-23a1.5 1.5 0 0 1-1.5-1.5z"/><path id="D" d="M40 115.44a1.5 1.5 0 0 1 1.5-1.5h39a1.5 1.5 0 1 1 0 3h-39a1.5 1.5 0 0 1-1.5-1.5z"/><path id="E" d="M110.391 127.479l1.096 2.191 2.191.274-1.504 1.688.409 2.421-2.192-1.096-2.191 1.096.413-2.421-1.509-1.688 2.192-.274 1.095-2.191z"/><path id="F" d="M117.696 127.479l1.095 2.191 2.192.274-1.505 1.688.409 2.421-2.191-1.096-2.192 1.096.413-2.421-1.508-1.688 2.191-.274 1.096-2.191z"/><path id="G" d="M125 127.479l1.096 2.191 2.191.274-1.505 1.688.409 2.421-2.191-1.096-2.191 1.096.412-2.421-1.508-1.688 2.191-.274 1.096-2.191z"/><path id="H" d="M125.087 88.94c-4.034 0-7.304 3.27-7.304 7.304s3.27 7.305 7.304 7.305 7.304-3.271 7.304-7.305-3.27-7.304-7.304-7.304zm-4.87 12.305c1.258 1.225 2.976 1.979 4.87 1.979s3.612-.754 4.87-1.979v-.06a2.46 2.46 0 0 0-.714-1.734c-.456-.46-1.076-.718-1.721-.718h-4.87c-.646 0-1.265.258-1.721.718a2.46 2.46 0 0 0-.714 1.734v.06zm7.305-6.12c0 1.355-1.09 2.453-2.435 2.453s-2.435-1.098-2.435-2.453 1.09-2.453 2.435-2.453 2.435 1.098 2.435 2.453z"/></defs></svg>