<svg xmlns="http://www.w3.org/2000/svg" xmlns:xlink="http://www.w3.org/1999/xlink" width="250" height="180" fill="none" xmlns:v="https://vecta.io/nano"><style><![CDATA[.B{fill:#fff}.C{stroke:#718491}.D{stroke-width:1.054}.E{fill:#718491}.F{fill-rule:evenodd}.G{stroke-width:.703}]]></style><path d="M0 0h250v180H0z" class="B"/><rect x="29.5" y="154.5" width="11" height="11" rx="5.5" fill="#ffd9f1" stroke="#f21197"/><text fill="#546069" xml:space="preserve" style="white-space:pre" font-family="Roboto" font-size="12" font-weight="600" letter-spacing="0em"><tspan x="45" y="164.031">Enable Equal Height</tspan></text><rect x="50.351" y="12.351" width="148.297" height="61.849" rx="2.46" class="B"/><rect x="50.351" y="12.351" width="148.297" height="61.849" rx="2.46" stroke="#bbc2c7" class="G"/><rect x="59.488" y="22.191" width="39.359" height="42.17" rx="2.452" class="B C D"/><g class="E"><use xlink:href="#B"/><use xlink:href="#C"/><use xlink:href="#D"/><use xlink:href="#D" x="5.134"/><use xlink:href="#C" x="15.401"/><path d="M78.526 25.705c-2.835 0-5.134 2.298-5.134 5.134s2.298 5.134 5.134 5.134 5.134-2.298 5.134-5.134-2.298-5.134-5.134-5.134zm-3.422 8.648a4.89 4.89 0 0 0 6.845 0v-.042a1.73 1.73 0 0 0-.501-1.219c-.321-.323-.756-.505-1.21-.505h-3.422c-.454 0-.889.182-1.21.505a1.73 1.73 0 0 0-.501 1.219v.042zm5.134-4.301c0 .952-.766 1.724-1.711 1.724s-1.711-.772-1.711-1.724.766-1.724 1.711-1.724 1.711.772 1.711 1.724z" class="F"/><use xlink:href="#E"/><path d="M64.408 45.033c0-.582.472-1.054 1.054-1.054h27.41c.582 0 1.054.472 1.054 1.054s-.472 1.054-1.054 1.054h-27.41c-.582 0-1.054-.472-1.054-1.054z"/><use xlink:href="#E" y="18.274"/></g><rect x="104.469" y="22.191" width="39.359" height="36.17" rx="2.452" class="B C D"/><g class="E"><path d="M113.881 49.98l.77 1.54 1.541.193-1.058 1.186.288 1.702-1.541-.77-1.54.77.29-1.702-1.06-1.186 1.54-.193.77-1.54z"/><use xlink:href="#B" x="50.115"/><use xlink:href="#C" x="50.115"/><path d="M129.283 49.98l.77 1.54 1.54.193-1.058 1.186.288 1.702-1.54-.77-1.541.77.29-1.702-1.06-1.186 1.541-.193.77-1.54z"/><use xlink:href="#B" x="65.516"/><path d="M123.507 25.705c-2.835 0-5.134 2.298-5.134 5.134s2.299 5.134 5.134 5.134 5.134-2.298 5.134-5.134-2.299-5.134-5.134-5.134zm-3.422 8.648c.883.861 2.091 1.391 3.422 1.391a4.89 4.89 0 0 0 3.423-1.391v-.042a1.73 1.73 0 0 0-.502-1.219c-.321-.323-.756-.505-1.21-.505h-3.422c-.454 0-.889.182-1.21.505a1.73 1.73 0 0 0-.501 1.219v.042zm5.133-4.301c0 .952-.766 1.724-1.711 1.724s-1.711-.772-1.711-1.724.766-1.724 1.711-1.724 1.711.772 1.711 1.724z" class="F"/><path d="M115.012 40.816c0-.582.472-1.054 1.054-1.054h16.165c.583 0 1.055.472 1.055 1.054s-.472 1.054-1.055 1.054h-16.165c-.582 0-1.054-.472-1.054-1.054zm-5.623 4.217c0-.582.472-1.054 1.055-1.054h27.41c.582 0 1.054.472 1.054 1.054s-.472 1.054-1.054 1.054h-27.41c-.583 0-1.055-.472-1.055-1.054z"/></g><rect x="149.45" y="22.191" width="39.359" height="42.17" rx="2.452" class="B C D"/><g class="E"><use xlink:href="#F"/><path d="M163.996 49.981l.77 1.54 1.54.192-1.058 1.186.288 1.702-1.54-.77-1.54.77.29-1.702-1.06-1.186 1.54-.192.77-1.54zm5.134 0l.77 1.54 1.54.192-1.058 1.186.288 1.702-1.54-.77-1.541.77.29-1.702-1.06-1.186 1.54-.192.771-1.54z"/><use xlink:href="#F" x="15.401"/><use xlink:href="#F" x="20.535"/><path d="M168.488 25.705c-2.835 0-5.134 2.298-5.134 5.134s2.299 5.134 5.134 5.134 5.134-2.298 5.134-5.134-2.299-5.134-5.134-5.134zm-3.423 8.648a4.89 4.89 0 0 0 6.845 0v-.042a1.73 1.73 0 0 0-.501-1.219c-.321-.323-.756-.505-1.21-.505h-3.422c-.454 0-.89.182-1.21.505a1.73 1.73 0 0 0-.502 1.219v.042zm5.134-4.301c0 .952-.766 1.724-1.711 1.724s-1.711-.772-1.711-1.724.766-1.724 1.711-1.724 1.711.772 1.711 1.724z" class="F"/><use xlink:href="#G"/><use xlink:href="#H"/><use xlink:href="#G" y="18.274"/></g><rect x="50.351" y="81.915" width="148.297" height="61.849" rx="2.46" class="B"/><rect x="50.351" y="81.915" width="148.297" height="61.849" rx="2.46" stroke="#bbc2c7" class="G"/><rect x="59.488" y="91.755" width="39.359" height="42.17" rx="2.452" class="B C D"/><g class="E"><use xlink:href="#I"/><use xlink:href="#J"/><use xlink:href="#K"/><use xlink:href="#K" x="5.134"/><use xlink:href="#J" x="15.401"/><path d="M78.526 95.269c-2.835 0-5.134 2.298-5.134 5.134s2.298 5.133 5.134 5.133 5.134-2.298 5.134-5.133-2.298-5.134-5.134-5.134zm-3.422 8.648a4.89 4.89 0 0 0 6.845 0v-.042a1.73 1.73 0 0 0-.501-1.219c-.321-.323-.756-.505-1.21-.505h-3.422c-.454 0-.889.182-1.21.505a1.73 1.73 0 0 0-.501 1.219v.042zm5.134-4.301c0 .952-.766 1.724-1.711 1.724s-1.711-.772-1.711-1.724.766-1.724 1.711-1.724 1.711.772 1.711 1.724z" class="F"/><path d="M70.031 110.38c0-.583.472-1.055 1.054-1.055H87.25c.582 0 1.054.472 1.054 1.055s-.472 1.054-1.054 1.054H71.085c-.582 0-1.054-.472-1.054-1.054zm-5.623 4.217c0-.583.472-1.055 1.054-1.055h27.41c.582 0 1.054.472 1.054 1.055s-.472 1.054-1.054 1.054h-27.41c-.582 0-1.054-.472-1.054-1.054z"/><use xlink:href="#E" y="87.837"/></g><rect x="104.469" y="91.755" width="39.359" height="42.17" rx="2.452" class="B C D"/><g class="E"><use xlink:href="#I" x="44.981"/><use xlink:href="#I" x="50.115"/><path d="M124.149 119.544l.77 1.54 1.54.193-1.058 1.185.288 1.702-1.54-.77-1.541.77.291-1.702-1.061-1.185 1.541-.193.77-1.54z"/><use xlink:href="#I" x="60.382"/><use xlink:href="#I" x="65.516"/><path d="M123.507 95.269c-2.835 0-5.134 2.298-5.134 5.134s2.299 5.133 5.134 5.133 5.134-2.298 5.134-5.133-2.299-5.134-5.134-5.134zm-3.423 8.648a4.89 4.89 0 0 0 3.423 1.391c1.331 0 2.539-.53 3.422-1.391v-.042a1.73 1.73 0 0 0-.501-1.219c-.321-.323-.756-.505-1.21-.505h-3.422c-.454 0-.889.182-1.21.505a1.73 1.73 0 0 0-.502 1.219v.042zm5.134-4.301c0 .952-.766 1.724-1.711 1.724s-1.711-.772-1.711-1.724.766-1.724 1.711-1.724 1.711.772 1.711 1.724z" class="F"/><path d="M115.012 110.38c0-.583.472-1.055 1.054-1.055h16.165c.582 0 1.054.472 1.054 1.055s-.472 1.054-1.054 1.054h-16.165c-.582 0-1.054-.472-1.054-1.054zm-5.623 4.217c0-.583.472-1.055 1.054-1.055h27.411c.582 0 1.054.472 1.054 1.055s-.472 1.054-1.054 1.054h-27.411c-.582 0-1.054-.472-1.054-1.054z"/></g><rect x="149.45" y="91.755" width="39.359" height="42.17" rx="2.452" class="B C D"/><g class="E"><use xlink:href="#L"/><path d="M163.996 119.544l.77 1.54 1.54.193-1.058 1.186.288 1.702-1.54-.771-1.54.771.29-1.702-1.06-1.186 1.54-.193.77-1.54zm5.134 0l.77 1.54 1.54.193-1.058 1.186.288 1.702-1.54-.771-1.541.771.29-1.702-1.06-1.186 1.54-.193.771-1.54z"/><use xlink:href="#L" x="15.401"/><use xlink:href="#L" x="20.535"/><path d="M168.488 95.269c-2.835 0-5.134 2.298-5.134 5.134s2.299 5.133 5.134 5.133 5.134-2.298 5.134-5.133-2.299-5.134-5.134-5.134zm-3.423 8.648a4.89 4.89 0 0 0 6.845 0v-.042a1.73 1.73 0 0 0-.501-1.219c-.321-.323-.756-.505-1.21-.505h-3.422c-.454 0-.89.182-1.21.505a1.73 1.73 0 0 0-.502 1.219v.042zm5.134-4.301c0 .952-.766 1.724-1.711 1.724s-1.711-.772-1.711-1.724.766-1.724 1.711-1.724 1.711.772 1.711 1.724z" class="F"/><use xlink:href="#G" y="69.564"/><use xlink:href="#H" y="69.564"/><path d="M159.993 128.653c0-.582.472-1.054 1.054-1.054h16.165c.582 0 1.054.472 1.054 1.054s-.472 1.055-1.054 1.055h-16.165c-.582 0-1.054-.472-1.054-1.055z"/></g><rect x="54.5" y="85.5" width="139" height="53" rx=".5" stroke="#f21197"/><path d="M202 161a4 4 0 1 0 8 0 4 4 0 1 0-8 0zm25 0v.75a.75.75 0 0 0 .75-.75H227zm0-54h.75a.75.75 0 0 0-.75-.75v.75zm-31.5 0l7.5 4.33v-8.66l-7.5 4.33zm10.5 54.75h21v-1.5h-21v1.5zm21.75-.75v-54h-1.5v54h1.5zm-.75-54.75h-24.75v1.5H227v-1.5z" fill="#f21197"/><defs ><path id="B" d="M68.9 49.98l.77 1.54 1.54.193-1.057 1.186.287 1.702-1.54-.77-1.54.77.29-1.702-1.06-1.186 1.54-.193.77-1.54z"/><path id="C" d="M74.034 49.98l.77 1.54 1.54.193-1.058 1.186.288 1.702-1.54-.77-1.54.77.29-1.702-1.06-1.186 1.54-.193.77-1.54z"/><path id="D" d="M79.167 49.98l.77 1.54 1.54.193-1.058 1.186.287 1.702-1.54-.77-1.54.77.29-1.702-1.06-1.186 1.54-.193.77-1.54z"/><path id="E" d="M70.031 40.816c0-.582.472-1.054 1.054-1.054H87.25c.582 0 1.054.472 1.054 1.054s-.472 1.054-1.054 1.054H71.085c-.582 0-1.054-.472-1.054-1.054z"/><path id="F" d="M158.862 49.981l.77 1.54 1.54.192-1.057 1.186.287 1.702-1.54-.77-1.54.77.29-1.702-1.06-1.186 1.54-.192.77-1.54z"/><path id="G" d="M159.993 40.816c0-.582.472-1.054 1.054-1.054h16.165c.582 0 1.054.472 1.054 1.054s-.472 1.054-1.054 1.054h-16.165c-.582 0-1.054-.472-1.054-1.054z"/><path id="H" d="M154.37 45.033c0-.582.472-1.054 1.054-1.054h27.411c.582 0 1.054.472 1.054 1.054s-.472 1.054-1.054 1.054h-27.411c-.582 0-1.054-.472-1.054-1.054z"/><path id="I" d="M68.9 119.544l.77 1.54 1.54.193-1.057 1.185.287 1.702-1.54-.77-1.54.77.29-1.702-1.06-1.185 1.54-.193.77-1.54z"/><path id="J" d="M74.034 119.544l.77 1.54 1.54.193-1.058 1.185.288 1.702-1.54-.77-1.54.77.29-1.702-1.06-1.185 1.54-.193.77-1.54z"/><path id="K" d="M79.167 119.544l.77 1.54 1.54.193-1.058 1.185.287 1.702-1.54-.77-1.54.77.29-1.702-1.06-1.185 1.54-.193.77-1.54z"/><path id="L" d="M158.862 119.544l.77 1.54 1.54.193-1.057 1.186.287 1.702-1.54-.771-1.54.771.29-1.702-1.06-1.186 1.54-.193.77-1.54z"/></defs></svg>