<svg xmlns="http://www.w3.org/2000/svg" xmlns:xlink="http://www.w3.org/1999/xlink" width="250" height="152" fill="none" xmlns:v="https://vecta.io/nano"><path fill="#fff" d="M0 0h250v152H0z"/><rect x="81" y="121.5" width="11" height="11" rx="5.5" fill="#ffd9f1" stroke="#f21197"/><text fill="#546069" xml:space="preserve" style="white-space:pre" font-family="Roboto" font-size="12" font-weight="600" letter-spacing="0em"><tspan x="96.5" y="131.031">Photo Margin</tspan></text><rect x="19.5" y="20.5" width="211" height="88" rx="3.5" fill="#fff"/><rect x="19.5" y="20.5" width="211" height="88" rx="3.5" stroke="#bbc2c7"/><rect x="35" y="32" width="56" height="65" rx="3.489" fill="#fff" stroke="#718491" stroke-width="1.5"/><g fill="#718491"><use xlink:href="#B"/><use xlink:href="#B" x="7.305"/><path d="M63 86.039l1.096 2.191 2.191.274-1.505 1.687.409 2.421L63 91.517l-2.191 1.096.413-2.421-1.508-1.687 2.191-.274L63 86.039zm7.304 0L71.4 88.23l2.191.274-1.505 1.687.409 2.421-2.191-1.096-2.191 1.096.413-2.421-1.508-1.687 2.191-.274 1.096-2.191z"/><use xlink:href="#B" x="29.218"/><path fill-rule="evenodd" d="M63.087 42.5c-4.034 0-7.304 3.27-7.304 7.304s3.27 7.304 7.304 7.304 7.304-3.27 7.304-7.304-3.27-7.304-7.304-7.304zm-4.87 12.305c1.258 1.225 2.975 1.979 4.87 1.979s3.612-.755 4.87-1.979v-.06a2.46 2.46 0 0 0-.713-1.734c-.457-.46-1.076-.718-1.722-.718h-4.869c-.646 0-1.265.258-1.722.718a2.46 2.46 0 0 0-.713 1.734v.06zm7.304-6.12c0 1.355-1.09 2.453-2.435 2.453s-2.435-1.098-2.435-2.453 1.09-2.453 2.435-2.453 2.435 1.098 2.435 2.453z"/><path d="M50 68a1.5 1.5 0 0 1 1.5-1.5h23a1.5 1.5 0 1 1 0 3h-23A1.5 1.5 0 0 1 50 68zm-8 6a1.5 1.5 0 0 1 1.5-1.5h39a1.5 1.5 0 1 1 0 3h-39A1.5 1.5 0 0 1 42 74zm8 6a1.5 1.5 0 0 1 1.5-1.5h23a1.5 1.5 0 1 1 0 3h-23A1.5 1.5 0 0 1 50 80z"/></g><rect x="97" y="32" width="56" height="65" rx="3.489" fill="#fff" stroke="#718491" stroke-width="1.5"/><g fill="#718491"><use xlink:href="#C"/><use xlink:href="#D"/><path d="M125 86.039l1.096 2.191 2.191.274-1.505 1.687.409 2.421L125 91.517l-2.191 1.096.412-2.421-1.508-1.687 2.191-.274L125 86.039z"/><use xlink:href="#C" x="21.913"/><use xlink:href="#D" x="21.913"/><use xlink:href="#E" fill-rule="evenodd"/><path d="M112 68a1.5 1.5 0 0 1 1.5-1.5h23a1.5 1.5 0 1 1 0 3h-23A1.5 1.5 0 0 1 112 68zm-8 6a1.5 1.5 0 0 1 1.5-1.5h39a1.5 1.5 0 1 1 0 3h-39A1.5 1.5 0 0 1 104 74zm8 6a1.5 1.5 0 0 1 1.5-1.5h23a1.5 1.5 0 1 1 0 3h-23A1.5 1.5 0 0 1 112 80z"/></g><rect x="159" y="32" width="56" height="65" rx="3.489" fill="#fff" stroke="#718491" stroke-width="1.5"/><g fill="#718491"><use xlink:href="#C" x="62"/><use xlink:href="#D" x="62"/><path d="M187 86.039l1.096 2.191 2.191.274-1.505 1.687.409 2.421L187 91.517l-2.191 1.096.412-2.421-1.508-1.687 2.191-.274L187 86.039z"/><use xlink:href="#C" x="83.913"/><use xlink:href="#D" x="83.913"/><use xlink:href="#E" x="62" fill-rule="evenodd"/><path d="M174 68a1.5 1.5 0 0 1 1.5-1.5h23a1.5 1.5 0 1 1 0 3h-23A1.5 1.5 0 0 1 174 68zm-8 6a1.5 1.5 0 0 1 1.5-1.5h39a1.5 1.5 0 1 1 0 3h-39A1.5 1.5 0 0 1 166 74zm8 6a1.5 1.5 0 0 1 1.5-1.5h23a1.5 1.5 0 1 1 0 3h-23A1.5 1.5 0 0 1 174 80z"/></g><path d="M196 41.5h-18v-5h18zm0 21.5h-18v-5h18zm6.5 0h-5V36.5h5V63zm-26 0h-5V36.5h5V63z" fill="#ffd9f1" stroke="#f21197"/><path d="M171 129a4 4 0 1 0 8 0 4 4 0 1 0-8 0zm62 0v.75a.75.75 0 0 0 .75-.75H233zm0-79h.75a.75.75 0 0 0-.75-.75V50zm-29.5 0l7.5 4.33v-8.66L203.5 50zM175 129.75h58v-1.5h-58v1.5zm58.75-.75V50h-1.5v79h1.5zM233 49.25h-22.75v1.5H233v-1.5z" fill="#f21197"/><defs ><path id="B" d="M48.391 86.039l1.096 2.191 2.191.274-1.505 1.687.409 2.421-2.191-1.096-2.191 1.096.413-2.421-1.508-1.687 2.191-.274 1.096-2.191z"/><path id="C" d="M110.391 86.039l1.096 2.191 2.191.274-1.504 1.687.409 2.421-2.192-1.096-2.191 1.096.413-2.421-1.509-1.687 2.192-.274 1.095-2.191z"/><path id="D" d="M117.696 86.039l1.095 2.191 2.192.274-1.505 1.687.409 2.421-2.191-1.096-2.192 1.096.413-2.421-1.508-1.687 2.191-.274 1.096-2.191z"/><path id="E" d="M125.087 42.5c-4.034 0-7.304 3.27-7.304 7.304s3.27 7.304 7.304 7.304 7.304-3.27 7.304-7.304-3.27-7.304-7.304-7.304zm-4.87 12.305a6.96 6.96 0 0 0 9.74 0v-.06a2.46 2.46 0 0 0-.714-1.734c-.456-.46-1.076-.718-1.721-.718h-4.87c-.646 0-1.265.258-1.721.718a2.46 2.46 0 0 0-.714 1.734v.06zm7.305-6.12c0 1.355-1.09 2.453-2.435 2.453s-2.435-1.098-2.435-2.453 1.09-2.453 2.435-2.453 2.435 1.098 2.435 2.453z"/></defs></svg>