<svg xmlns="http://www.w3.org/2000/svg" xmlns:xlink="http://www.w3.org/1999/xlink" width="250" height="152" fill="none" xmlns:v="https://vecta.io/nano"><path fill="#fff" d="M0 0h250v152H0z"/><rect x="80" y="121.5" width="11" height="11" rx="5.5" fill="#ffd9f1" stroke="#f21197"/><text fill="#546069" xml:space="preserve" style="white-space:pre" font-family="Roboto" font-size="12" font-weight="600" letter-spacing="0em"><tspan x="95.5" y="131.031">Inner Padding</tspan></text><rect x="19.5" y="20.5" width="211" height="88" rx="3.5" fill="#fff"/><rect x="19.5" y="20.5" width="211" height="88" rx="3.5" stroke="#bbc2c7"/><rect x="30" y="31" width="59.15" height="67" rx="3.489" fill="#fff" stroke="#718491" stroke-width="1.5"/><g fill="#718491"><use xlink:href="#B"/><use xlink:href="#B" x="7.305"/><use xlink:href="#B" x="14.609"/><use xlink:href="#B" x="21.913"/><use xlink:href="#B" x="29.218"/><path fill-rule="evenodd" d="M58.947 41.5c-4.034 0-7.304 3.27-7.304 7.304s3.27 7.304 7.304 7.304 7.304-3.27 7.304-7.304-3.27-7.304-7.304-7.304zm-4.87 12.305c1.258 1.225 2.975 1.979 4.87 1.979s3.612-.755 4.87-1.979v-.06a2.46 2.46 0 0 0-.713-1.734c-.457-.46-1.076-.718-1.722-.718h-4.87c-.646 0-1.265.258-1.722.718a2.46 2.46 0 0 0-.713 1.734v.06zm7.304-6.12c0 1.355-1.09 2.453-2.435 2.453s-2.435-1.098-2.435-2.453 1.09-2.453 2.435-2.453 2.435 1.098 2.435 2.453z"/><use xlink:href="#C"/><use xlink:href="#D"/><use xlink:href="#C" y="12"/></g><rect x="95.425" y="31" width="59.15" height="67" rx="3.489" fill="#fff" stroke="#718491" stroke-width="1.5"/><g fill="#718491"><path d="M110.676 81.039l1.096 2.191 2.191.274-1.505 1.687.41 2.421-2.192-1.096-2.191 1.096.413-2.421-1.509-1.687 2.192-.274 1.095-2.191z"/><use xlink:href="#E"/><use xlink:href="#F"/><use xlink:href="#G"/><use xlink:href="#E" x="21.913"/><use xlink:href="#H" fill-rule="evenodd"/><use xlink:href="#C" x="65.425"/><use xlink:href="#D" x="65.425"/><use xlink:href="#C" x="65.425" y="12"/></g><rect x="160.85" y="31" width="59.15" height="67" rx="3.489" fill="#fff" stroke="#718491" stroke-width="1.5"/><g fill="#718491"><use xlink:href="#G" x="43.512"/><use xlink:href="#E" x="65.425"/><use xlink:href="#F" x="65.425"/><use xlink:href="#G" x="65.425"/><use xlink:href="#E" x="87.338"/><use xlink:href="#H" x="65.425" fill-rule="evenodd"/><use xlink:href="#C" x="130.85"/><use xlink:href="#D" x="130.85"/><use xlink:href="#C" x="130.85" y="12"/></g><path d="M210.959 38h-41v-5h41zm0 58h-41v-5h41zm-43 0h-4.5a.5.5 0 0 1-.5-.5v-62a.5.5 0 0 1 .5-.5h4.5v63zm49.5 0h-4.5V33h4.5a.5.5 0 0 1 .5.5v62a.5.5 0 0 1-.5.5z" fill="#ffd9f1" stroke="#f21197"/><path d="M171 129a4 4 0 1 0 8 0 4 4 0 1 0-8 0zm62 0v.75a.75.75 0 0 0 .75-.739L233 129zm1-71l.75.011a.75.75 0 0 0-.75-.761V58zm-14.5 0l7.5 4.33v-8.66L219.5 58zM175 129.75h58v-1.5h-58v1.5zm58.75-.739l1-71-1.5-.021-1 71 1.5.022zM234 57.25h-7.75v1.5H234v-1.5z" fill="#f21197"/><defs ><path id="B" d="M45.251 81.039l1.096 2.191 2.191.274-1.505 1.687.409 2.421-2.191-1.096-2.191 1.096.413-2.421-1.508-1.687 2.191-.274 1.096-2.191z"/><path id="C" d="M46.86 63a1.5 1.5 0 0 1 1.5-1.5h23a1.5 1.5 0 1 1 0 3h-23a1.5 1.5 0 0 1-1.5-1.5z"/><path id="D" d="M38.86 69a1.5 1.5 0 0 1 1.5-1.5h39a1.5 1.5 0 1 1 0 3h-39a1.5 1.5 0 0 1-1.5-1.5z"/><path id="E" d="M117.981 81.039l1.095 2.191 2.192.274-1.505 1.687.409 2.421-2.191-1.096-2.192 1.096.413-2.421-1.508-1.687 2.191-.274 1.096-2.191z"/><path id="F" d="M125.285 81.039l1.096 2.191 2.191.274-1.505 1.687.409 2.421-2.191-1.096-2.191 1.096.412-2.421-1.508-1.687 2.191-.274 1.096-2.191z"/><path id="G" d="M132.589 81.039l1.096 2.191 2.191.274-1.504 1.687.409 2.421-2.192-1.096-2.191 1.096.413-2.421-1.509-1.687 2.192-.274 1.095-2.191z"/><path id="H" d="M124.372 41.5c-4.034 0-7.304 3.27-7.304 7.304s3.27 7.304 7.304 7.304 7.304-3.27 7.304-7.304-3.27-7.304-7.304-7.304zm-4.87 12.305a6.96 6.96 0 0 0 4.87 1.979c1.894 0 3.612-.755 4.869-1.979v-.06a2.46 2.46 0 0 0-.713-1.734c-.456-.46-1.076-.718-1.721-.718h-4.87c-.646 0-1.265.258-1.722.718s-.713 1.084-.713 1.734v.06zm7.305-6.12c0 1.355-1.09 2.453-2.435 2.453s-2.435-1.098-2.435-2.453 1.09-2.453 2.435-2.453 2.435 1.098 2.435 2.453z"/></defs></svg>