<svg height="512pt" viewBox="0 -88 512.001 512" width="512pt" xmlns="http://www.w3.org/2000/svg"><path d="m281.660156 42.117188h-257.109375c-13.535156 0-24.550781 11.011718-24.550781 24.550781v31.335937c0 4.140625 3.355469 7.5 7.5 7.5s7.5-3.359375 7.5-7.5v-31.335937c0-5.269531 4.285156-9.554688 9.550781-9.554688h257.109375c5.265625 0 9.550782 4.285157 9.550782 9.554688v142.050781h-276.210938v-75.722656c0-4.140625-3.355469-7.5-7.5-7.5s-7.5 3.359375-7.5 7.5v104.058594c0 6.671874 2.683594 12.726562 7.023438 17.15625.0625.0625.117187.125.175781.183593.058593.058594.121093.113281.179687.167969 4.429688 4.34375 10.492188 7.03125 17.171875 7.03125h89.242188v31.289062h-28.613281c-8.394532 0-15.21875 6.828126-15.21875 15.21875v12.964844c0 8.390625 6.824218 15.21875 15.21875 15.21875h131.714843c8.390625 0 15.21875-6.828125 15.21875-15.21875v-12.964844c0-8.390624-6.828125-15.21875-15.21875-15.21875h-31.222656v-31.289062h95.988281c6.679688 0 12.742188-2.6875 17.175782-7.03125.058593-.054688.117187-.109375.175781-.167969.058593-.058593.117187-.121093.175781-.183593 4.339844-4.429688 7.023438-10.484376 7.023438-17.15625v-170.386719c0-13.539063-11.015626-24.550781-24.550782-24.550781zm-64.550781 265.984374v12.964844c0 .121094-.097656.21875-.21875.21875h-131.710937c-.121094 0-.21875-.097656-.21875-.21875v-12.964844c0-.117187.097656-.21875.21875-.21875h92.875c.039062 0 .078124.007813.117187.007813s.074219-.003906.113281-.007813h38.605469c.125 0 .21875.101563.21875.21875zm-46.4375-15.21875h-41.878906v-31.289062h41.878906zm-146.109375-46.289062c-2.570312 0-4.902344-1.023438-6.625-2.675781-.042969-.042969-.089844-.082031-.136719-.125-.039062-.042969-.078125-.089844-.121093-.132813-1.65625-1.71875-2.679688-4.046875-2.679688-6.617187v-13.324219h276.210938v13.324219c0 2.570312-1.023438 4.898437-2.683594 6.617187-.039063.042969-.078125.089844-.121094.132813s-.089844.082031-.136719.125c-1.71875 1.652343-4.050781 2.675781-6.621093 2.675781zm0 0"/><path d="m475.398438 0h-113.226563c-20.183594 0-36.601563 16.417969-36.601563 36.601562v260.472657c0 20.183593 16.417969 36.601562 36.601563 36.601562h39.117187c4.140626 0 7.5-3.355469 7.5-7.5 0-4.140625-3.359374-7.5-7.5-7.5h-39.117187c-11.910156 0-21.601563-9.6875-21.601563-21.601562v-260.472657c0-11.910156 9.691407-21.601562 21.601563-21.601562h113.226563c11.910156 0 21.601562 9.691406 21.601562 21.601562v260.472657c0 11.910156-9.6875 21.601562-21.601562 21.601562h-39.101563c-4.144531 0-7.5 3.359375-7.5 7.5 0 4.144531 3.355469 7.5 7.5 7.5h39.101563c20.183593 0 36.601562-16.417969 36.601562-36.601562v-260.472657c0-20.183593-16.417969-36.601562-36.601562-36.601562zm0 0"/><path d="m461.113281 81.921875c-12.492187 0-22.652343 10.152344-22.652343 22.628906 0 12.480469 10.160156 22.628907 22.652343 22.628907 12.488281 0 22.648438-10.148438 22.648438-22.628907 0-12.476562-10.160157-22.628906-22.648438-22.628906zm0 30.257813c-4.21875 0-7.652343-3.421876-7.652343-7.628907s3.433593-7.628906 7.652343-7.628906c4.214844 0 7.648438 3.421875 7.648438 7.628906s-3.429688 7.628907-7.648438 7.628907zm0 0"/><path d="m461.113281 134.875c-12.492187 0-22.652343 10.152344-22.652343 22.628906 0 12.480469 10.160156 22.632813 22.652343 22.632813 12.488281 0 22.648438-10.152344 22.648438-22.632813 0-12.476562-10.160157-22.628906-22.648438-22.628906zm0 30.261719c-4.21875 0-7.652343-3.425781-7.652343-7.632813 0-4.207031 3.433593-7.628906 7.652343-7.628906 4.214844 0 7.648438 3.421875 7.648438 7.628906 0 4.207032-3.429688 7.632813-7.648438 7.632813zm0 0"/><path d="m484.527344 43.628906c0-7.964844-6.480469-14.449218-14.449219-14.449218h-102.585937c-7.96875 0-14.449219 6.484374-14.449219 14.449218v15.183594c0 7.96875 6.480469 14.449219 14.449219 14.449219h102.585937c7.96875 0 14.449219-6.480469 14.449219-14.449219zm-15 14.632813h-101.484375v-14.082031h101.484375zm0 0"/></svg>