<svg height="512pt" viewBox="0 -71 512 512" width="512pt" xmlns="http://www.w3.org/2000/svg"><path d="m429.816406 32.125h-268.714844c-4.144531 0-7.5 3.355469-7.5 7.5s3.355469 7.5 7.5 7.5h268.714844c3.886719 0 7.050782 3.164062 7.050782 7.050781v208.582031c0 3.886719-3.164063 7.050782-7.050782 7.050782h-347.632812c-3.886719 0-7.050782-3.164063-7.050782-7.050782v-208.582031c0-3.886719 3.164063-7.050781 7.050782-7.050781h43.917968c4.140626 0 7.5-3.355469 7.5-7.5s-3.359374-7.5-7.5-7.5h-43.917968c-12.160156 0-22.050782 9.894531-22.050782 22.050781v208.582031c0 12.15625 9.890626 22.050782 22.050782 22.050782h347.632812c12.160156 0 22.050782-9.894532 22.050782-22.050782v-208.582031c0-12.160156-9.890626-22.050781-22.050782-22.050781zm0 0"/><path d="m489.957031 297.457031h-8.273437v-246.328125c0-28.191406-22.960938-51.128906-51.183594-51.128906h-349c-28.222656 0-51.183594 22.9375-51.183594 51.128906v246.324219h-8.273437c-12.152344.003906-22.042969 9.890625-22.042969 22.042969 0 28.195312 22.9375 51.128906 51.128906 51.128906h323.308594c4.144531 0 7.5-3.355469 7.5-7.5 0-4.140625-3.355469-7.5-7.5-7.5h-323.308594c-19.921875 0-36.128906-16.207031-36.128906-36.128906 0-3.882813 3.160156-7.039063 7.042969-7.039063h467.914062c3.882813 0 7.042969 3.15625 7.042969 7.039063 0 19.921875-16.207031 36.128906-36.128906 36.128906h-51.433594c-4.140625 0-7.5 3.359375-7.5 7.5 0 4.144531 3.359375 7.5 7.5 7.5h51.433594c28.191406 0 51.128906-22.933594 51.128906-51.128906 0-12.152344-9.890625-22.039063-22.042969-22.039063zm-444.640625-246.328125c0-19.921875 16.230469-36.128906 36.183594-36.128906h349c19.949219 0 36.183594 16.207031 36.183594 36.128906v246.324219h-421.367188zm0 0"/><path d="m163.78125 326.539062c-4.140625 0-7.5 3.359376-7.5 7.5 0 4.144532 3.359375 7.5 7.5 7.5h184.4375c4.140625 0 7.5-3.355468 7.5-7.5 0-4.140624-3.359375-7.5-7.5-7.5zm0 0"/></svg>