<svg height="484pt" viewBox="0 -2 484.61088 484" width="484pt" xmlns="http://www.w3.org/2000/svg"><path d="m416 381.707031v-45.121093l34.226562 34.222656c5.019532 5.199218 12.457032 7.285156 19.449219 5.453125 6.992188-1.828125 12.453125-7.289063 14.285157-14.28125 1.828124-6.992188-.257813-14.429688-5.457032-19.449219l-62.503906-62.503906v-127.722656c0-8.835938-7.164062-16-16-16h-24c3.441406 0 6.496094-2.207032 7.585938-5.472657l8-24c.273437-.867187.394531-1.777343.359374-2.6875 13.800782-10.3125 19.449219-28.304687 14.015626-44.65625-5.4375-16.351562-20.730469-27.382812-37.960938-27.382812s-32.523438 11.03125-37.957031 27.382812c-5.433594 16.351563.210937 34.34375 14.015625 44.65625-.039063.910157.085937 1.820313.359375 2.6875l8 24c1.085937 3.265625 4.140625 5.472657 7.582031 5.472657h-56v16h96v111.722656l-66.710938-66.722656c-3.171874-3-8.136718-3-11.3125 0l-16.96875 16.976562c-3.121093 3.125-3.121093 8.1875 0 11.3125l94.992188 94.992188v55.71875h-320v-160h48c8.835938 0 16-7.164063 16-16v-48h104v-16h-104v-44.597657c18.046875-2.550781 36.4375-1.078125 53.847656 4.308594 15.402344 4.890625 53.25 19.761719 72.121094 52.3125 5.214844 8.972656 8.652344 18.863281 10.121094 29.136719 3.847656 32.09375-8.117188 64.054687-32.089844 85.738281v-22.898437h-16v40c0 4.417968 3.582031 8 8 8h40v-16h-18.398438c26.113282-25.160157 38.824219-61.164063 34.296876-97.144532-1.738282-12.289062-5.84375-24.125-12.089844-34.855468-21.664063-37.375-63.953125-54.078126-81.441406-59.632813-18.882813-5.828125-38.789063-7.566406-58.398438-5.09375v-59.273437c0-8.835938-7.164062-16-16-16h-111.96875c-8.835938 0-16 7.164062-16 16v184c0 8.835937 7.164062 16 16 16h48v165.402343l-62.472656 85.894531c-1.765625 2.433594-2.019532 5.65625-.65625 8.335938 1.367187 2.679688 4.121094 4.367188 7.128906 4.367188h464c3.011719 0 5.765625-1.6875 7.128906-4.367188 1.367188-2.679688 1.113282-5.902344-.65625-8.335938zm-48-333.402343c13.257812 0 24 10.746093 24 24 0 13.253906-10.742188 24-24 24-13.253906 0-24-10.746094-24-24 0-13.253907 10.746094-24 24-24zm4.898438 64-2.664063 8h-4.464844l-2.664062-8zm95.46875 244.367187c.003906 1.0625-.417969 2.082031-1.175782 2.824219-1.558594 1.5625-4.09375 1.5625-5.652344 0l-122.59375-122.589844 5.65625-5.65625 122.597657 122.589844c.75.753906 1.171875 1.773437 1.167969 2.832031zm-140.734376-142.398437 5.65625 5.65625-5.65625 5.65625-5.65625-5.65625zm-311.632812-197.96875h112v184h-112zm187.816406 448 9.601563-24h53.167969l9.597656 24zm89.601563 0-13.984375-34.976563c-1.21875-3.035156-4.160156-5.023437-7.433594-5.023437h-64c-3.269531 0-6.214844 1.988281-7.429688 5.023437l-13.984374 34.976563h-162.871094l52.359375-72h327.855469l52.359374 72zm0 0"/><path d="m80 400.304688h32v16h-32zm0 0"/><path d="m128 400.304688h32v16h-32zm0 0"/><path d="m176 400.304688h32v16h-32zm0 0"/><path d="m56 432.304688h32v16h-32zm0 0"/><path d="m104 432.304688h32v16h-32zm0 0"/><path d="m152 432.304688h32v16h-32zm0 0"/><path d="m296 432.304688h32v16h-32zm0 0"/><path d="m344 432.304688h32v16h-32zm0 0"/><path d="m392 432.304688h32v16h-32zm0 0"/><path d="m224 400.304688h32v16h-32zm0 0"/><path d="m272 400.304688h32v16h-32zm0 0"/><path d="m320 400.304688h32v16h-32zm0 0"/><path d="m368 400.304688h32v16h-32zm0 0"/><path d="m376 352.304688h16v16h-16zm0 0"/><path d="m352 352.304688h16v16h-16zm0 0"/><path d="m376 328.304688h16v16h-16zm0 0"/><path d="m392 168.304688c0-4.417969-3.582031-8-8-8h-24v16h16v16h16zm0 0"/><path d="m376 200.304688h16v16h-16zm0 0"/><path d="m336 160.304688h16v16h-16zm0 0"/><path d="m112 24.304688h-80c-4.417969 0-8 3.582031-8 8v48c0 4.417968 3.582031 8 8 8h80c4.417969 0 8-3.582032 8-8v-48c0-4.417969-3.582031-8-8-8zm-8 48h-64v-32h64zm0 0"/><path d="m112 144.304688h-80c-4.417969 0-8 3.582031-8 8v32c0 4.417968 3.582031 8 8 8h80c4.417969 0 8-3.582032 8-8v-32c0-4.417969-3.582031-8-8-8zm-8 32h-64v-16h64zm0 0"/><path d="m24 96.304688h32v16h-32zm0 0"/><path d="m64 96.304688h56v16h-56zm0 0"/><path d="m24 120.304688h96v16h-96zm0 0"/><path d="m360 .304688h16v24h-16zm0 0"/><path d="m396.285156 32.714844 16.972656-16.972656 11.3125 11.316406-16.972656 16.96875zm0 0"/><path d="m416 64.304688h24v16h-24zm0 0"/><path d="m296 64.304688h24v16h-24zm0 0"/><path d="m311.433594 27.058594 11.308594-11.316406 16.976562 16.964843-11.3125 11.316407zm0 0"/><path d="m360 64.304688h16v16h-16zm0 0"/><path d="m189.863281 328.015625c13.355469 3.691406 14.738281 5.066406 18.402344 18.402344.957031 3.46875 4.113281 5.871093 7.710937 5.871093 3.597657 0 6.753907-2.402343 7.710938-5.871093 3.691406-13.359375 5.074219-14.738281 18.402344-18.402344 3.46875-.957031 5.871094-4.109375 5.871094-7.710937 0-3.597657-2.402344-6.753907-5.871094-7.710938-13.351563-3.6875-14.738282-5.0625-18.402344-18.398438-.957031-3.472656-4.113281-5.875-7.710938-5.875-3.597656 0-6.753906 2.402344-7.710937 5.875-3.6875 13.359376-5.074219 14.734376-18.402344 18.398438-3.46875.957031-5.871093 4.113281-5.871093 7.710938 0 3.601562 2.402343 6.753906 5.871093 7.710937zm26.136719-12.023437c1.253906 1.609374 2.703125 3.058593 4.3125 4.3125-1.609375 1.253906-3.058594 2.703124-4.3125 4.3125-1.253906-1.609376-2.699219-3.058594-4.3125-4.3125 1.613281-1.253907 3.058594-2.703126 4.3125-4.3125zm0 0"/><path d="m208.289062 226.441406c.957032 3.46875 4.113282 5.871094 7.710938 5.871094 3.601562 0 6.757812-2.402344 7.714844-5.871094 3.6875-13.359375 5.070312-14.734375 18.398437-18.398437 3.46875-.957031 5.871094-4.113281 5.871094-7.714844 0-3.597656-2.402344-6.753906-5.871094-7.710937-13.351562-3.6875-14.734375-5.0625-18.398437-18.398438-.957032-3.472656-4.113282-5.875-7.714844-5.875-3.597656 0-6.753906 2.402344-7.710938 5.875-3.6875 13.359375-5.070312 14.734375-18.398437 18.398438-3.472656.957031-5.875 4.113281-5.875 7.710937 0 3.601563 2.402344 6.757813 5.875 7.714844 13.308594 3.664062 14.710937 5.0625 18.398437 18.398437zm7.710938-30.449218c1.253906 1.609374 2.703125 3.058593 4.3125 4.3125-1.609375 1.253906-3.058594 2.703124-4.3125 4.3125-1.253906-1.609376-2.699219-3.058594-4.3125-4.3125 1.613281-1.253907 3.058594-2.703126 4.3125-4.3125zm0 0"/><path d="m159.714844 218.175781c-.957032-3.46875-4.113282-5.871093-7.714844-5.871093-3.597656 0-6.753906 2.402343-7.710938 5.871093-5.902343 21.386719-9.03125 24.511719-30.398437 30.402344-3.472656.957031-5.875 4.113281-5.875 7.710937 0 3.597657 2.402344 6.753907 5.875 7.710938 21.390625 5.90625 24.519531 9.035156 30.398437 30.402344.957032 3.46875 4.113282 5.871094 7.710938 5.871094 3.601562 0 6.757812-2.402344 7.714844-5.871094 5.902344-21.386719 9.03125-24.511719 30.398437-30.402344 3.46875-.957031 5.871094-4.113281 5.871094-7.710938 0-3.597656-2.402344-6.753906-5.871094-7.710937-21.367187-5.871094-24.511719-9.015625-30.398437-30.402344zm-7.714844 51.640625c-3.144531-5.683594-7.828125-10.363281-13.511719-13.511718 5.683594-3.144532 10.367188-7.828126 13.511719-13.511719 3.148438 5.683593 7.832031 10.367187 13.511719 13.511719-5.679688 3.148437-10.363281 7.828124-13.511719 13.511718zm0 0"/></svg>