<?xml version="1.0"?>
<svg xmlns="http://www.w3.org/2000/svg" viewBox="0 0 64 64">
    <path d="M 16 5 C 9.383 5 4 10.383 4 17 C 4 23.617 9.383 29 16 29 C 22.617 29 28 23.617 28 17 C 28 10.383 22.617 5 16 5 z M 48 5 C 41.383 5 36 10.383 36 17 C 36 23.617 41.383 29 48 29 C 54.617 29 60 23.617 60 17 C 60 10.383 54.617 5 48 5 z M 16 7 C 20.843 7 24.890688 10.461063 25.804688 15.039062 C 25.348688 15.133062 25 15.517 25 16 L 25 18 C 25 18.483 25.348688 18.866938 25.804688 18.960938 C 24.890687 23.538938 20.843 27 16 27 C 11.157 27 7.1093125 23.538938 6.1953125 18.960938 C 6.6513125 18.866938 7 18.483 7 18 L 7 16 C 7 15.517 6.6513125 15.133063 6.1953125 15.039062 C 7.1093125 10.461063 11.157 7 16 7 z M 48 7 C 50.79 7 53.313906 8.151 55.128906 10 L 40.871094 10 C 42.686094 8.151 45.21 7 48 7 z M 39.353516 12 L 56.646484 12 C 57.343484 13.2 57.805219 14.553 57.949219 16 L 38.050781 16 C 38.194781 14.553 38.656516 13.2 39.353516 12 z M 11 15 C 10.448 15 10 15.448 10 16 L 10 18 C 10 18.552 10.448 19 11 19 C 11.552 19 12 18.552 12 18 L 12 16 C 12 15.448 11.552 15 11 15 z M 16 15 C 15.448 15 15 15.448 15 16 L 15 18 C 15 18.552 15.448 19 16 19 C 16.552 19 17 18.552 17 18 L 17 16 C 17 15.448 16.552 15 16 15 z M 21 15 C 20.448 15 20 15.448 20 16 L 20 18 C 20 18.552 20.448 19 21 19 C 21.552 19 22 18.552 22 18 L 22 16 C 22 15.448 21.552 15 21 15 z M 38.050781 18 L 57.949219 18 C 57.805219 19.447 57.344437 20.8 56.648438 22 L 39.353516 22 C 38.656516 20.8 38.194781 19.447 38.050781 18 z M 40.871094 24 L 55.130859 24 C 53.314859 25.849 50.79 27 48 27 C 45.21 27 42.686094 25.849 40.871094 24 z M 16 35 C 12.705 35 9.716875 36.335187 7.546875 38.492188 C 7.536875 38.501188 7.525625 38.504672 7.515625 38.513672 C 7.505625 38.522672 7.5031406 38.536875 7.4941406 38.546875 C 5.3361406 40.717875 4 43.705 4 47 C 4 53.617 9.383 59 16 59 C 19.295 59 22.283125 57.664813 24.453125 55.507812 C 24.463125 55.498812 24.474375 55.495328 24.484375 55.486328 C 24.494375 55.477328 24.496859 55.463125 24.505859 55.453125 C 26.663859 53.282125 28 50.295 28 47 C 28 40.383 22.617 35 16 35 z M 48 35 C 41.383 35 36 40.383 36 47 C 36 53.617 41.383 59 48 59 C 54.617 59 60 53.617 60 47 C 60 40.383 54.617 35 48 35 z M 16 37 C 21.514 37 26 41.486 26 47 C 26 47.032 25.994141 47.063703 25.994141 47.095703 L 15.904297 37.005859 C 15.936297 37.005859 15.968 37 16 37 z M 48 37 C 53.514 37 58 41.486 58 47 C 58 52.514 53.514 57 48 57 C 42.486 57 38 52.514 38 47 C 38 41.486 42.486 37 48 37 z M 13.421875 37.349609 L 25.650391 49.580078 C 25.278391 50.968078 24.624281 52.242219 23.738281 53.324219 L 9.6757812 39.261719 C 10.757781 38.375719 12.032875 37.721609 13.421875 37.349609 z M 8.2617188 40.675781 L 22.324219 54.738281 C 21.241219 55.624281 19.967125 56.278391 18.578125 56.650391 L 6.3496094 44.419922 C 6.7216094 43.030922 7.3757187 41.757781 8.2617188 40.675781 z M 6.0058594 46.904297 L 16.095703 56.994141 C 16.062703 56.994141 16.032 57 16 57 C 10.486 57 6 52.514 6 47 C 6 46.968 6.0058594 46.936297 6.0058594 46.904297 z"/>
</svg>
