<svg xmlns="http://www.w3.org/2000/svg" width="90" height="60" fill="none" xmlns:v="https://vecta.io/nano"><style><![CDATA[.B{fill-rule:evenodd}.C{fill:#58707f}.D{stroke:#58707f}.E{stroke-width:.382}]]></style><rect x=".6" y=".6" width="88.8" height="58.8" rx="1.4" fill="#fff"/><rect x=".6" y=".6" width="88.8" height="58.8" rx="1.4" stroke="#8796a1" stroke-width="1.2"/><g class="C"><path d="M7.576 16.978h15.458c.316 0 .575.256.575.571v10.857c0 .315-.259.571-.575.571H7.576c-.316 0-.576-.256-.576-.571V17.549c0-.315.26-.571.576-.571zm3.32 2.936c.845 0 1.532.68 1.532 1.519s-.686 1.521-1.532 1.521-1.53-.681-1.53-1.521.685-1.519 1.53-1.519zm-2.563-1.616h13.945v7.71c-2.78-.482-4.242-4.36-5.987-4.36-1.86 0-4.327 4.36-5.658 4.36-1.13 0-1.238-1.155-2.3-1.677v-6.034z" class="B"/><rect x="7" y="31.046" width="15.225" height="2.061" rx="1.031"/><rect x="7" y="35.175" width="15.225" height="2.061" rx="1.031"/><path d="M7.576 42.236h15.458c.316 0 .575.256.575.571v10.857c0 .315-.259.571-.575.571H7.576c-.316 0-.576-.256-.576-.571V42.807c0-.315.26-.571.576-.571zm3.32 2.936c.845 0 1.532.68 1.532 1.519s-.686 1.521-1.532 1.521-1.53-.681-1.53-1.521.685-1.519 1.53-1.519zm-2.563-1.616h13.945v7.71c-2.78-.482-4.242-4.36-5.987-4.36-1.86 0-4.327 4.36-5.658 4.36-1.13 0-1.238-1.155-2.3-1.677v-6.034zm18.911-26.578h15.458c.316 0 .575.256.575.571v10.857c0 .315-.26.571-.575.571H27.244c-.316 0-.576-.256-.576-.571V17.549c0-.315.259-.571.576-.571zm3.32 2.936c.845 0 1.532.68 1.532 1.519s-.687 1.521-1.532 1.521-1.53-.681-1.53-1.521.685-1.519 1.53-1.519zM28 18.299h13.945v7.71c-2.78-.482-4.242-4.36-5.987-4.36-1.86 0-4.327 4.36-5.658 4.36-1.131 0-1.238-1.155-2.3-1.677v-6.034z" class="B"/><rect x="26.668" y="31.046" width="15.225" height="2.061" rx="1.031"/><path d="M27.244 38.107h15.458c.316 0 .575.256.575.571v10.857c0 .315-.26.571-.575.571H27.244c-.316 0-.576-.256-.576-.571V38.678c0-.315.259-.571.576-.571zm3.32 2.936c.845 0 1.532.68 1.532 1.519s-.687 1.521-1.532 1.521-1.53-.681-1.53-1.521.685-1.519 1.53-1.519zM28 39.428h13.945v7.71c-2.78-.481-4.242-4.36-5.987-4.36-1.86 0-4.327 4.36-5.658 4.36-1.131 0-1.238-1.154-2.3-1.677v-6.034z" class="B"/><rect x="26.668" y="52.175" width="15.225" height="2.061" rx="1.031"/><path d="M46.912 16.978h15.458c.316 0 .575.256.575.571v10.857c0 .315-.259.571-.575.571H46.912c-.316 0-.576-.256-.576-.571V17.549c0-.315.26-.571.576-.571zm3.32 2.936c.845 0 1.532.68 1.532 1.519s-.687 1.521-1.532 1.521-1.53-.681-1.53-1.521.685-1.519 1.53-1.519zm-2.563-1.616h13.945v7.71c-2.78-.482-4.242-4.36-5.987-4.36-1.86 0-4.327 4.36-5.658 4.36-1.13 0-1.238-1.155-2.3-1.677v-6.034z" class="B"/><rect x="46.336" y="31.046" width="15.225" height="2.061" rx="1.031"/><rect x="46.336" y="35.175" width="15.225" height="2.061" rx="1.031"/><path d="M46.912 42.236H62.37c.316 0 .575.256.575.571v10.857c0 .315-.259.571-.575.571H46.912c-.316 0-.576-.256-.576-.571V42.807c0-.315.26-.571.576-.571zm3.32 2.936c.845 0 1.532.68 1.532 1.519s-.687 1.521-1.532 1.521-1.53-.681-1.53-1.521.685-1.519 1.53-1.519zm-2.563-1.616h13.945v7.71c-2.78-.482-4.242-4.36-5.987-4.36-1.86 0-4.327 4.36-5.658 4.36-1.13 0-1.238-1.155-2.3-1.677v-6.034zM66.58 16.978h15.458c.316 0 .575.256.575.571v10.857c0 .315-.26.571-.575.571H66.58c-.316 0-.576-.256-.576-.571V17.549c0-.315.26-.571.576-.571zm3.32 2.936c.845 0 1.532.68 1.532 1.519s-.686 1.521-1.532 1.521-1.53-.681-1.53-1.521.685-1.519 1.53-1.519zm-2.563-1.616h13.945v7.71c-2.78-.482-4.242-4.36-5.987-4.36-1.86 0-4.327 4.36-5.658 4.36-1.13 0-1.238-1.155-2.3-1.677v-6.034z" class="B"/><rect x="66.004" y="31.046" width="15.225" height="2.061" rx="1.031"/><path d="M66.58 38.107h15.458c.316 0 .575.256.575.571v10.857c0 .315-.26.571-.575.571H66.58c-.316 0-.576-.256-.576-.571V38.678c0-.315.26-.571.576-.571zm3.32 2.936c.845 0 1.532.68 1.532 1.519s-.686 1.521-1.532 1.521-1.53-.681-1.53-1.521.685-1.519 1.53-1.519zm-2.563-1.616h13.945v7.71c-2.78-.481-4.242-4.36-5.987-4.36-1.86 0-4.327 4.36-5.658 4.36-1.13 0-1.238-1.154-2.3-1.677v-6.034z" class="B"/><rect x="66.004" y="52.175" width="15.225" height="2.061" rx="1.031"/><rect x="22.172" y="6.071" width="8.83" height="5.715" rx=".803" class="D E"/></g><rect x="24.283" y="8.167" width="4.606" height="1.535" rx=".767" fill="#fff"/><rect x="34.444" y="6.071" width="16.507" height="5.715" rx=".803" class="C D E"/><rect x="37.324" y="8.167" width="10.748" height="1.535" rx=".767" fill="#fff"/><rect x="54.392" y="6.071" width="13.436" height="5.715" rx=".803" class="C D E"/><rect x="56.504" y="8.167" width="9.212" height="1.535" rx=".767" fill="#fff"/></svg>