<svg xmlns="http://www.w3.org/2000/svg" width="36" height="71" fill="none" xmlns:v="https://vecta.io/nano"><g clip-path="url(#A)"><path d="M20.8 10.5c-.2.1-.5.2-.6.5 0 .1-.3.5-.6 1l-1.1 1.7c-.5.6-.9 1.2-1.2 1.7-.1.2-.3.4-.4.6-.1.1-.3.3-.3.5h-2v8h8.6s.1 0 .2-.2c.1-.1.3-.3.3-.5l.1-.1v-.2c0-.1.2-.4.2-.7l.7-2.3.7-2.4c.1-.4.2-.7.2-.9v-.3c0-.2-.1-.4-.1-.4-.1-.1-.2-.1-.4-.1h-3c-.4 0-.9-.2-1.2-.4-.4-.2-.7-.6-.7-1.1 0-.2.1-.5.1-.8.1-.3.2-.7.3-1.1.1-.5.3-1 .4-1.4.1-.2.1-.4.1-.4.1-.3 0-.7-.3-.7zm0 0V10m-10.3 6.5h1v8h-1v-8z" stroke="#7d868a"/><path d="M20.7 45.5h.4c.6.2.8.8.7 1.3-.2.6-1 3-1 3.6s.8 1 1.3 1h3a.94.94 0 0 1 1 1c0 .6-2 7-2 7-.2.4-.5 1-1 1H14v-9h2.1c.4-.4 3.3-4.7 3.6-5.3.2-.4.6-.7 1-.7v.1zm-10.7 6h2v9h-2v-9z" fill="#ffb900"/><path d="M35 0H1C0.5 0 0 0.5 0 1V70C0 70.5 0.5 71 1 71H35C35.5 71 36 70.5 36 70V1C36 0.5 35.5 0 35 0ZM35 70H1V36H35V70ZM35 35H1V1H35V35Z" fill="#bbc2c7"/></g><defs><clipPath id="A"><path fill="#fff" d="M0 0h36v71H0z"/></clipPath></defs></svg>