<svg xmlns="http://www.w3.org/2000/svg" width="36" height="71" fill="none" xmlns:v="https://vecta.io/nano"><g clip-path="url(#A)"><path d="M25.5 10H10.6a.47.47 0 0 0-.5.5v15a.47.47 0 0 0 .5.5h15a.47.47 0 0 0 .5-.5v-15a.47.47 0 0 0-.5-.5h-.1zm-3.8 14l-3.8-2.8-3.7 2.8 1.4-4.6-3.7-2.8h4.6L18 12l1.4 4.6H24l-3.7 2.8 1.4 4.6z" fill="#7d868a"/><path d="M25.5 45.5H10.6a.47.47 0 0 0-.5.5v15a.47.47 0 0 0 .5.5h15a.47.47 0 0 0 .5-.5V46a.47.47 0 0 0-.5-.5h-.1zm-3.8 14l-3.8-2.8-3.7 2.8 1.4-4.6-3.7-2.8h4.6l1.5-4.6 1.4 4.6H24l-3.7 2.8 1.4 4.6z" fill="#ffb900"/><path d="M35 0H1C0.5 0 0 0.5 0 1V70C0 70.5 0.5 71 1 71H35C35.5 71 36 70.5 36 70V1C36 0.5 35.5 0 35 0ZM35 70H1V36H35V70ZM35 35H1V1H35V35Z" fill="#bbc2c7"/></g><defs><clipPath id="A"><path fill="#fff" d="M0 0h36v71H0z"/></clipPath></defs></svg>