<svg xmlns="http://www.w3.org/2000/svg" width="36" height="71" fill="none" xmlns:v="https://vecta.io/nano"><g clip-path="url(#A)"><path d="M18 9.9c-4.5 0-8.1 3.6-8.1 8.1s3.6 8.1 8.1 8.1 8.1-3.6 8.1-8.1-3.6-8.1-8.1-8.1zm2.8 9.5l.6 3.4v.1s-.2.1-.3 0L18 21.3l-3.1 1.6h-.1c-.1 0-.2-.1-.2-.2l.6-3.4-2.5-2.4v-.1c0-.1 0-.2.2-.2l3.4-.5 1.5-3.1h.3l1.5 3.1 3.4.5h.1v.3l-2.5 2.4.2.1z" fill="#7d868a"/><path d="M18 45.4c-4.5 0-8.1 3.6-8.1 8.1s3.6 8.1 8.1 8.1 8.1-3.6 8.1-8.1-3.6-8.1-8.1-8.1zm2.8 9.5l.6 3.4v.1s-.2.1-.3 0L18 56.8l-3.1 1.6h-.1c-.1 0-.2-.1-.2-.2l.6-3.4-2.5-2.4v-.1c0-.1 0-.2.2-.2l3.4-.5 1.5-3.1h.3l1.5 3.1 3.4.5h.1v.3l-2.5 2.4.2.1z" fill="#ffb900"/><path d="M35 0H1C0.5 0 0 0.5 0 1V70C0 70.5 0.5 71 1 71H35C35.5 71 36 70.5 36 70V1C36 0.5 35.5 0 35 0ZM35 70H1V36H35V70ZM35 35H1V1H35V35Z" fill="#bbc2c7"/></g><defs><clipPath id="A"><path fill="#fff" d="M0 0h36v71H0z"/></clipPath></defs></svg>