<svg xmlns="http://www.w3.org/2000/svg" width="36" height="71" fill="none" xmlns:v="https://vecta.io/nano"><g clip-path="url(#A)"><path d="M18 9l3 6 6 .8-4.1 4.6L24 27l-6-3-6 3 1.1-6.6L9 15.8l6-.8 3-6z" fill="#7d868a"/><path d="M18 44.5l3 6 6 .8-4.1 4.6 1.1 6.6-6-3-6 3 1.1-6.6L9 51.3l6-.8 3-6z" fill="#ffb900"/><path d="M35 0H1C0.5 0 0 0.5 0 1V70C0 70.5 0.5 71 1 71H35C35.5 71 36 70.5 36 70V1C36 0.5 35.5 0 35 0ZM35 70H1V36H35V70ZM35 35H1V1H35V35Z" fill="#bbc2c7"/></g><defs><clipPath id="A"><path fill="#fff" d="M0 0h36v71H0z"/></clipPath></defs></svg>