<svg xmlns="http://www.w3.org/2000/svg" width="36" height="71" fill="none" xmlns:v="https://vecta.io/nano"><g clip-path="url(#A)"><path d="M35 0H1C0.5 0 0 0.5 0 1V70C0 70.5 0.5 71 1 71H35C35.5 71 36 70.5 36 70V1C36 0.5 35.5 0 35 0ZM35 70H1V36H35V70ZM35 35H1V1H35V35Z" fill="#bbc2c7"/><path fill-rule="evenodd" d="M27 15.8l-6-.8-3-6-3 6-6 .8 4.1 4.6L12 27l6-3 6 3-1.1-6.6 4.1-4.6zm-9 7.1l-4.7 2.3.9-5.2-3.2-3.5 4.6-.6 2.3-4.7 2.3 4.7 4.6.6-3.2 3.5.9 5.2-4.7-2.3h.2z" fill="#7d868a"/><path d="M18 44.5l3 6 6 .8-4.1 4.6 1.1 6.6-6-3-6 3 1.1-6.6L9 51.3l6-.8 3-6z" fill="#ffb900"/></g><defs><clipPath id="A"><path fill="#fff" d="M0 0h36v71H0z"/></clipPath></defs></svg>