<svg xmlns="http://www.w3.org/2000/svg" width="36" height="71" fill="none" xmlns:v="https://vecta.io/nano"><g clip-path="url(#A)"><path d="M18 26.7c-.2 0-.4-.1-.4-.3l-1.4-4.7c-.3-.8-.9-1.5-1.8-1.8l-4.7-1.4c-.2 0-.3-.2-.3-.4s.1-.4.3-.4l4.7-1.4c.8-.3 1.5-.9 1.8-1.8l1.4-4.7c0-.2.2-.3.4-.3s.4.1.4.3l1.4 4.7c.3.8.9 1.5 1.8 1.8l4.7 1.4c.2 0 .3.2.3.4s-.1.4-.3.4l-4.7 1.4c-.8.3-1.5.9-1.8 1.8l-1.4 4.7c0 .2-.2.3-.4.3zM11.3 18l3.3 1c1.1.3 2 1.2 2.4 2.4l1 3.3 1-3.3c.3-1.1 1.2-2 2.4-2.4l3.3-1-3.3-1c-1.1-.3-2-1.2-2.4-2.4l-1-3.3-1 3.3c-.3 1.1-1.2 2-2.4 2.4l-3.3 1z" fill="#7d868a"/><path d="M26.7 53.5c0 .2-.1.4-.3.4l-4.7 1.4c-.8.3-1.5.9-1.8 1.8l-1.4 4.7c0 .2-.2.3-.4.3s-.4-.1-.4-.3l-1.4-4.7c-.3-.8-.9-1.5-1.8-1.8l-4.7-1.4c-.2 0-.3-.2-.3-.4s.1-.4.3-.4l4.7-1.4c.8-.3 1.5-.9 1.8-1.8l1.4-4.7c0-.2.2-.3.4-.3s.4.1.4.3l1.4 4.7c.3.8.9 1.5 1.8 1.8l4.7 1.4c.2 0 .3.2.3.4z" fill="#ffb900"/><path d="M35 0H1C0.5 0 0 0.5 0 1V70C0 70.5 0.5 71 1 71H35C35.5 71 36 70.5 36 70V1C36 0.5 35.5 0 35 0ZM35 70H1V36H35V70ZM35 35H1V1H35V35Z" fill="#bbc2c7"/></g><defs><clipPath id="A"><path fill="#fff" d="M0 0h36v71H0z"/></clipPath></defs></svg>