<svg xmlns="http://www.w3.org/2000/svg" width="36" height="71" fill="none" xmlns:v="https://vecta.io/nano"><g clip-path="url(#A)"><path fill-rule="evenodd" d="M19 22.8l2.4 1.3c.2.1.5.1.7 0 .2-.2.3-.4.3-.7l-.4-2.5c-.2-.9.1-1.8.8-2.4l1.8-1.8c.2-.2.3-.5.2-.7 0-.3-.3-.4-.6-.5l-2.5-.4c-.9-.1-1.6-.7-2-1.5l-1.1-2.2c-.1-.2-.3-.4-.6-.4s-.5.2-.6.4l-1.1 2.2c-.4.8-1.1 1.3-2 1.5l-2.5.4a.47.47 0 0 0-.5.5c0 .2 0 .5.2.7l1.8 1.7c.6.6.9 1.5.8 2.4l-.4 2.5c0 .3 0 .5.3.7.2.2.5.2.7 0l2.2-1.2c.7-.4 1.5-.4 2.3-.1l-.2.1zm-.2 1c-.5-.3-1.1-.3-1.6 0L15 25c-.6.3-1.3.2-1.8-.1-.5-.4-.8-1-.7-1.6l.4-2.5c0-.5 0-1.1-.5-1.5l-1.8-1.7c-.5-.4-.6-1.1-.4-1.7s.7-1.1 1.4-1.1l2.5-.4c.5 0 1-.4 1.3-.9l1.1-2.2c.3-.6.9-.9 1.5-.9s1.2.4 1.5.9l1.1 2.2c.2.5.7.8 1.3.9l2.5.4c.6 0 1.2.5 1.4 1.1s0 1.3-.4 1.7l-1.8 1.7c-.4.4-.6.9-.5 1.5l.4 2.5c.1.6-.2 1.3-.7 1.6-.5.4-1.2.4-1.8.1l-2.2-1.2z" fill="#7d868a"/><path d="M18.8 59.3l2.2 1.2c.6.3 1.3.2 1.8-.1.5-.4.8-1 .7-1.6l-.4-2.5c0-.5 0-1.1.5-1.5l1.8-1.7c.5-.4.6-1.1.4-1.7s-.7-1.1-1.4-1.1l-2.5-.4c-.5 0-1-.4-1.3-.9l-1.1-2.2c-.3-.6-.9-.9-1.5-.9s-1.2.4-1.5.9L15.4 49c-.2.5-.7.8-1.3.9l-2.5.4c-.6 0-1.2.5-1.4 1.1s0 1.3.4 1.7l1.8 1.7c.4.4.6.9.5 1.5l-.4 2.5c-.1.6.2 1.3.7 1.6.5.4 1.2.4 1.8.1l2.2-1.2c.5-.3 1.1-.3 1.6 0z" fill="#ffb900"/><path d="M35 0H1C0.5 0 0 0.5 0 1V70C0 70.5 0.5 71 1 71H35C35.5 71 36 70.5 36 70V1C36 0.5 35.5 0 35 0ZM35 70H1V36H35V70ZM35 35H1V1H35V35Z" fill="#bbc2c7"/></g><defs><clipPath id="A"><path fill="#fff" d="M0 0h36v71H0z"/></clipPath></defs></svg>