<svg xmlns="http://www.w3.org/2000/svg" width="36" height="71" fill="none" xmlns:v="https://vecta.io/nano"><g clip-path="url(#A)"><g fill="#7d868a"><path d="M18 26c-4.4 0-8-3.6-8-8s3.6-8 8-8 8 3.6 8 8-3.6 8-8 8zm0-15c-3.9 0-7 3.1-7 7s3.1 7 7 7 7-3.1 7-7-3.1-7-7-7zm-2.8 3c.3 0 .6.1.9.3.2.2.4.5.4.8s0 .4-.2.6h-1-1c-.1-.2-.2-.4-.2-.6 0-.3 0-.6.4-.8.2-.2.5-.3.9-.3h-.2zm5.6 0c.7 0 1.2.5 1.2 1.2s0 .4-.2.6c0 0-.4-.1-1-.1s-1 .1-1 .1c0-.2-.2-.4-.2-.6 0-.6.5-1.2 1.2-1.2zM18 23c1.1 0 2.2-.3 3.1-.9s1.6-1.5 1.9-2.5l-.8-.3c-.6 1.7-2.3 2.9-4.2 2.9s-3.6-1.2-4.2-2.9l-.8.3c.4 1 1 1.9 1.9 2.5s2 .9 3.1.9z"/></g><path d="M18 45.5c-4.4 0-8 3.6-8 8s3.6 8 8 8 8-3.6 8-8-3.6-8-8-8zm3.1 12c-.9.6-2 1-3.1 1s-2.2-.3-3.1-1C14 56.9 13.3 56 13 55l.8-.3c.6 1.7 2.3 2.9 4.2 2.9s3.6-1.1 4.2-2.9l.8.3c-.4 1-1 1.9-1.9 2.5zm-4.7-6.8c0 .2 0 .4-.2.6h-1.1-1c0-.2-.2-.4-.2-.6 0-.3.1-.6.3-.8s.5-.3.9-.3.6.1.9.3c.2.2.4.5.4.8zm3.2 0c0-.6.5-1.2 1.2-1.2s1.2.5 1.2 1.2 0 .4-.2.6h-1-1c0-.2-.2-.4-.2-.6z" fill="#ffb900"/><path d="M35 0H1C0.5 0 0 0.5 0 1V70C0 70.5 0.5 71 1 71H35C35.5 71 36 70.5 36 70V1C36 0.5 35.5 0 35 0ZM35 70H1V36H35V70ZM35 35H1V1H35V35Z" fill="#bbc2c7"/></g><defs><clipPath id="A"><path fill="#fff" d="M0 0h36v71H0z"/></clipPath></defs></svg>