<svg xmlns="http://www.w3.org/2000/svg" width="36" height="71" fill="none" xmlns:v="https://vecta.io/nano"><g clip-path="url(#A)"><path d="M17.7 12.8l.3.3.3-.3c.9-.8 2.1-1.3 3.3-1.3s2.4.4 3.3 1.6c1 1.2.9 3.4-.4 5.7-1.2 2.3-3.5 4.5-6.6 5.9-3.1-1.4-5.4-3.6-6.6-5.9-1.3-2.4-1.3-4.5-.4-5.7s2.1-1.6 3.3-1.6 2.4.6 3.3 1.3h.2z" stroke="#7d868a"/><path d="M18 60.6c3.3-1.4 5.7-3.8 7-6.2s1.5-4.8.3-6.2c-1-1.3-2.4-1.8-3.7-1.7-1.4 0-2.7.6-3.6 1.5-1-.8-2.3-1.4-3.6-1.5-1.4 0-2.7.5-3.7 1.7-1.1 1.4-1 3.8.3 6.2s3.7 4.8 7 6.2z" fill="#ffb900"/><path d="M35 0H1C0.5 0 0 0.5 0 1V70C0 70.5 0.5 71 1 71H35C35.5 71 36 70.5 36 70V1C36 0.5 35.5 0 35 0ZM35 70H1V36H35V70ZM35 35H1V1H35V35Z" fill="#bbc2c7"/></g><defs><clipPath id="A"><path fill="#fff" d="M0 0h36v71H0z"/></clipPath></defs></svg>