<svg xmlns="http://www.w3.org/2000/svg" width="84" height="84" fill="none"><rect x=".75" y=".75" width="82.5" height="82.5" rx="3.25" fill="#fff"/><rect x=".75" y=".75" width="82.5" height="82.5" rx="3.25" stroke="#8796a1" stroke-width="1.5"/><path d="M12 12h59.999v60H12V12z" fill="#718491"/><path fill-rule="evenodd" d="M42.085 51.686l-2.486 2.057c.771 4.114 1.714 8.057 2.486 11.914l2.4-11.914c-.857-.6-1.629-1.371-2.4-2.057zm-.171-3.257c-5.228 0-9.6-5.314-9.6-11.829-.943-2.4-.343-10.714 5.228-10.543 6.171-3.171 10.543.343 13.543 2.4 1.114 2.229 1.714 5.657.514 7.714.086 6.772-4.2 12.257-9.686 12.257zm0-1.286c-4.543 0-8.314-4.714-8.314-10.543 0-.943.172-1.714.172-2.4.6-1.543 2.057-2.4 3.171-1.457 3.771 3.171 8.314 3 12.6 2.4 1.114-.171.943 1.114.771 2.057-.257 5.4-3.857 9.943-8.4 9.943zM22.285 72c0-4.543.171-9.086 0-13.543 0-3.771 1.714-4.543 4.543-5.486l7.2-2.657c.6-.6 1.286-1.457 1.714-2.057 2.057.771 4.286 1.714 6.257 2.486 2.057-.771 4.114-1.714 6.171-2.486.6.6 1.114 1.457 1.714 2.057l7.371 2.657c2.829.943 4.371 1.714 4.371 5.486V72H22.285zm20.143-4.371l7.371-16.543c.514.771 1.114 1.714 1.714 2.486-.943.943-1.886 1.886-2.657 2.829.6.771 1.457 1.543 2.229 2.4-2.914 2.829-5.743 5.829-8.657 8.829zm-.857 0l-7.2-16.543c-.6.771-1.286 1.714-1.714 2.486.771.943 1.714 1.886 2.657 2.829l-2.4 2.4c2.914 2.829 5.828 5.829 8.657 8.829z" fill="#fff"/></svg>