<svg xmlns="http://www.w3.org/2000/svg" width="90" height="60" fill="none" xmlns:v="https://vecta.io/nano"><style><![CDATA[.B{stroke:#8796a1}.C{fill-rule:evenodd}.D{fill:#d8dadb}.E{stroke-width:.233}.F{fill:#3a4953}]]></style><rect x=".6" y=".6" width="88.8" height="58.8" rx="1.4" fill="#fff"/><rect x=".6" y=".6" width="88.8" height="58.8" rx="1.4" stroke-width="1.2" class="B"/><rect x="17.117" y="46.086" width="17.224" height="6.712" rx=".27" class="D"/><rect x="17.117" y="46.086" width="17.224" height="6.712" rx=".27" class="B E"/><g class="F"><path d="M18.034 46.747h6.894c.141 0 .257.115.257.257v4.878c0 .142-.116.257-.257.257h-6.894c-.141 0-.257-.115-.257-.257v-4.878c0-.142.116-.257.257-.257zm1.481 1.319c.377 0 .683.305.683.682s-.306.683-.683.683-.683-.306-.683-.683a.68.68 0 0 1 .683-.682zm-1.143-.726h6.22v3.464c-1.24-.216-1.892-1.959-2.67-1.959-.829 0-1.93 1.959-2.523 1.959-.504 0-.552-.519-1.026-.753V47.34z" class="C"/><rect x="26.273" y="47.46" width="7.407" height="1.088" rx=".544"/><rect x="26.273" y="49.474" width="5.086" height="1.088" rx=".544"/></g><rect x="36.388" y="46.086" width="17.224" height="6.712" rx=".27" class="D"/><rect x="36.388" y="46.086" width="17.224" height="6.712" rx=".27" class="B E"/><g class="F"><path d="M37.306 46.747H44.2c.141 0 .257.115.257.257v4.878c0 .142-.116.257-.257.257h-6.894c-.141 0-.257-.115-.257-.257v-4.878c0-.142.116-.257.257-.257zm1.481 1.319c.377 0 .683.305.683.682s-.306.683-.683.683-.682-.306-.682-.683a.68.68 0 0 1 .682-.682zm-1.143-.726h6.22v3.464c-1.24-.216-1.892-1.959-2.67-1.959-.83 0-1.93 1.959-2.523 1.959-.504 0-.552-.519-1.026-.753V47.34z" class="C"/><rect x="45.544" y="47.46" width="7.407" height="1.088" rx=".544"/><rect x="45.544" y="49.474" width="5.086" height="1.088" rx=".544"/></g><rect x="55.659" y="46.086" width="17.224" height="6.712" rx=".27" class="D"/><rect x="55.659" y="46.086" width="17.224" height="6.712" rx=".27" class="B E"/><g class="F"><path d="M56.576 46.747h6.894c.141 0 .257.115.257.257v4.878c0 .142-.116.257-.257.257h-6.894c-.141 0-.257-.115-.257-.257v-4.878c0-.142.116-.257.257-.257zm1.481 1.319c.377 0 .683.305.683.682s-.306.683-.683.683-.682-.306-.682-.683a.68.68 0 0 1 .682-.682zm-1.143-.726h6.22v3.464c-1.24-.216-1.892-1.959-2.67-1.959-.829 0-1.93 1.959-2.523 1.959-.504 0-.552-.519-1.026-.753V47.34z" class="C"/><rect x="64.814" y="47.46" width="7.407" height="1.088" rx=".544"/><rect x="64.814" y="49.474" width="5.086" height="1.088" rx=".544"/></g><g fill="#58707f"><path d="M70.667 8.19H19.333a.78.78 0 0 0-.778.778v32.667a.78.78 0 0 0 .778.778h51.333a.78.78 0 0 0 .778-.778V8.968a.78.78 0 0 0-.778-.778zM19.333 6.635C18.045 6.635 17 7.679 17 8.968v32.667c0 1.289 1.045 2.333 2.333 2.333h51.333c1.289 0 2.333-1.045 2.333-2.333V8.968c0-1.289-1.045-2.333-2.333-2.333H19.333z" class="C"/><path d="M35.299 17.978c0-2.869-2.315-5.193-5.165-5.193s-5.159 2.324-5.159 5.193 2.309 5.199 5.159 5.199 5.165-2.33 5.165-5.199zM22.046 31.654c-1.014-1.047-2.106-2.173-3.88-2.916v14.121H72.61v-8.548c-5.829-.859-10.173-4.975-14.001-8.602-3.301-3.127-6.219-5.891-9.374-5.891-3.934 0-8.564 4.254-12.807 8.153-3.589 3.297-6.901 6.34-9.281 6.34-2.526 0-3.744-1.257-5.101-2.657z"/></g><path d="M70.667 6.633H19.333C18.045 6.633 17 7.677 17 8.966v32.667c0 1.289 1.045 2.333 2.333 2.333h51.333c1.289 0 2.333-1.045 2.333-2.333V8.966c0-1.289-1.045-2.333-2.333-2.333z" fill="#000" fill-opacity=".6"/><path d="M66.556 28.413l2.935-3.111-2.935-3.111m-42.782-.001l-2.935 3.111 2.935 3.111" stroke="#fff" stroke-width="1.244" stroke-linecap="round" stroke-linejoin="round"/><g fill="#fff"><rect x="33.336" y="19.856" width="23.333" height="2.333" rx="1.167"/><rect x="29.059" y="24.134" width="31.889" height="1.556" rx=".778"/><rect x="39.17" y="27.634" width="11.667" height="3.111" rx=".622"/></g><rect x="41.111" y="28.603" width="7.778" height="1.167" rx=".583" fill="#58707f"/></svg>