<svg xmlns="http://www.w3.org/2000/svg" width="90" height="60" fill="none" xmlns:v="https://vecta.io/nano"><rect x=".6" y=".6" width="88.8" height="58.8" rx="1.4" fill="#fff"/><rect x=".6" y=".6" width="88.8" height="58.8" rx="1.4" stroke="#8796a1" stroke-width="1.2"/><g fill="#718491"><rect x="9" y="21.06" width="2" height="73" rx="1" transform="rotate(270 9 21.06)"/><rect x="12.54" y="15" width="1.5" height="10" rx=".75" transform="rotate(270 12.54 15)"/><rect x="40.2" y="15" width="1.5" height="10" rx=".75" transform="rotate(270 40.2 15)"/><rect x="68" y="15" width="1.5" height="10" rx=".75" transform="rotate(270 68 15)"/></g><g fill="#58707f"><rect x="14.544" y="23.06" width="6" height="6" rx="3" transform="rotate(270 14.544 23.06)"/><rect x="42.2" y="23.06" width="6" height="6" rx="3" transform="rotate(270 42.2 23.06)"/><rect x="70" y="23.06" width="6" height="6" rx="3" transform="rotate(270 70 23.06)"/></g><rect x="7.711" y="27.578" width="19.124" height="15.065" rx=".904" fill="#fff"/><rect x="7.711" y="27.578" width="19.124" height="15.065" rx=".904" stroke="#718491" stroke-width=".603"/><g fill="#58707f"><path fill-rule="evenodd" d="M10.337 29.688h13.872a.52.52 0 0 1 .517.516v9.814a.52.52 0 0 1-.517.517H10.337a.52.52 0 0 1-.516-.517v-9.814a.52.52 0 0 1 .516-.516zm2.979 2.654c.758 0 1.375.614 1.375 1.373s-.616 1.375-1.375 1.375-1.373-.616-1.373-1.375.615-1.373 1.373-1.373zm-2.3-1.46h12.515v6.97c-2.495-.435-3.807-3.941-5.373-3.941-1.669 0-3.883 3.941-5.077 3.941-1.014 0-1.111-1.044-2.064-1.516v-5.454z"/><path d="M17.601 25.684a.18.18 0 0 0-.256 0l-1.68 1.68h3.616l-1.68-1.68z"/></g><rect x="35.437" y="27.578" width="19.124" height="15.065" rx=".904" fill="#fff"/><rect x="35.437" y="27.578" width="19.124" height="15.065" rx=".904" stroke="#718491" stroke-width=".603"/><g fill="#58707f"><path fill-rule="evenodd" d="M38.063 29.688h13.872a.52.52 0 0 1 .517.516v9.814a.52.52 0 0 1-.517.517H38.063a.52.52 0 0 1-.517-.517v-9.814a.52.52 0 0 1 .517-.516zm2.979 2.654c.759 0 1.375.614 1.375 1.373s-.616 1.375-1.375 1.375-1.373-.616-1.373-1.375.614-1.373 1.373-1.373zm-2.3-1.46h12.515v6.97c-2.495-.435-3.807-3.941-5.373-3.941-1.669 0-3.883 3.941-5.077 3.941-1.014 0-1.111-1.044-2.064-1.516v-5.454z"/><path d="M45.327 25.684a.18.18 0 0 0-.256 0l-1.68 1.68h3.615l-1.68-1.68z"/></g><rect x="63.163" y="27.578" width="19.124" height="15.065" rx=".904" fill="#fff"/><rect x="63.163" y="27.578" width="19.124" height="15.065" rx=".904" stroke="#718491" stroke-width=".603"/><g fill="#58707f"><path fill-rule="evenodd" d="M65.789 29.688h13.872a.52.52 0 0 1 .516.516v9.814a.52.52 0 0 1-.516.517H65.789a.52.52 0 0 1-.516-.517v-9.814a.52.52 0 0 1 .516-.516zm2.979 2.654c.759 0 1.375.614 1.375 1.373s-.616 1.375-1.375 1.375-1.373-.616-1.373-1.375.615-1.373 1.373-1.373zm-2.3-1.46h12.515v6.97c-2.495-.435-3.807-3.941-5.373-3.941-1.669 0-3.883 3.941-5.077 3.941-1.015 0-1.111-1.044-2.064-1.516v-5.454z"/><path d="M73.054 25.684a.18.18 0 0 0-.256 0l-1.68 1.68h3.616l-1.68-1.68z"/></g><path d="M82.2 23l3-3-3-3M8 17l-3 3 3 3" stroke="#58707f" stroke-width="1.8" stroke-linecap="round" stroke-linejoin="round"/></svg>