<svg xmlns="http://www.w3.org/2000/svg" width="24" height="24" fill="none"><g clip-path="url(#A)" fill="#1B73E8"><path d="M3 0h4v2H3c-.55 0-1 .45-1 1v18c0 .55.45 1 1 1h4v2H3a3.01 3.01 0 0 1-3-3V3a3.01 3.01 0 0 1 3-3zm18 0h-4v2h4c.55 0 1 .45 1 1v18c0 .55-.45 1-1 1h-4v2h4a3.01 3.01 0 0 0 3-3V3a3.01 3.01 0 0 0-3-3zm-2.642 6.299h-5.594c-.17.001-.333.069-.453.189s-.188.283-.189.453v2.873c.001.17.069.333.189.453s.283.188.453.189h.489v1.131c.001.039.013.077.035.109s.052.058.087.074c.031 0 .061.03.092.03.024 0 .047-.006.068-.017a.16.16 0 0 0 .054-.044l1.498-1.284h3.271c.17-.001.333-.069.453-.189s.188-.283.189-.453V6.941c-.006-.168-.076-.328-.195-.447s-.279-.189-.447-.195zm-4.004 1.987l-.306.306.061.397c.002.017 0 .033-.005.049s-.014.03-.026.042h-.092l-.367-.183-.336.153h-.092a.14.14 0 0 1-.026-.042c-.006-.015-.007-.033-.005-.049l.061-.397-.306-.306a.14.14 0 0 1-.026-.042c-.006-.015-.007-.033-.005-.049.031 0 .061-.031.092-.031l.428-.061.183-.367c0-.031.031-.031.061-.031.023.003.045.014.061.031l.183.367.428.061c.016.001.03.008.042.019s.018.026.019.042 0 .033-.005.049-.014.03-.026.042zm1.895 0l-.306.306.061.397c.002.017 0 .033-.005.049s-.014.03-.026.042h-.092l-.367-.183-.336.153h-.092c-.012-.012-.02-.027-.026-.042s-.007-.033-.005-.049l.061-.397-.306-.306a.14.14 0 0 1-.026-.042c-.006-.015-.007-.033-.005-.049s.008-.031.02-.042.026-.018.042-.019l.428-.061.183-.367c0-.031.031-.031.061-.031.023.003.045.014.061.031l.183.367.458.092c.016.001.03.008.042.019s.018.026.019.042 0 .033-.005.049-.014.03-.026.042zm1.895 0l-.306.306.061.397c.002.017 0 .033-.005.049s-.014.03-.026.042h-.092l-.367-.183-.336.153h-.092c-.012-.012-.02-.027-.026-.042s-.007-.033-.005-.049l.061-.397-.306-.306a.14.14 0 0 1-.026-.042c-.006-.015-.007-.033-.005-.049s.008-.031.02-.042.026-.018.042-.019l.428-.061.183-.367c0-.031.031-.031.061-.031.023.003.045.014.061.031l.183.367.458.092c.016.001.03.008.042.019s.018.026.02.042 0 .033-.005.049-.014.03-.026.042zm-8.681 0c-1.376 0-2.14.703-2.109 2.079.031 1.865.825 2.996 2.109 2.996 0 0 2.109.092 2.109-2.996 0-1.375-.703-2.079-2.109-2.079z"/><path d="M13.192 14.766l-2.109-.825-.489-.428c-.066-.055-.15-.082-.235-.076s-.165.044-.223.107l-.673.673-.703-.673c-.062-.057-.14-.09-.224-.096s-.166.018-.235.065l-.459.428-2.109.856c-.672.275-.672 2.69-.734 2.904h8.956c-.061-.245-.061-2.659-.764-2.934z"/></g><defs><clipPath id="A"><path fill="#fff" d="M0 0h24v24H0z"/></clipPath></defs></svg>