<svg xmlns="http://www.w3.org/2000/svg" width="24" height="24" fill="none"><g clip-path="url(#A)" fill="#1B73E8"><path d="M18.3 8.55l.75-.75.75-.75c.15-.15.15-.3.15-.45V3.3a3.33 3.33 0 0 0-3.3-3.3H3.3A3.33 3.33 0 0 0 0 3.3v17.55C0 22.5 1.5 24 3.3 24h13.65a3.33 3.33 0 0 0 3.3-3.3v-3.15c0-.3-.3-.3-.45-.15L18 19.05c-.15.15-.15.3-.15.45v1.35c0 .6-.45 1.05-1.05 1.05H3.3c-.6 0-1.05-.45-1.05-1.05V3.3c0-.6.45-1.05 1.05-1.05h13.65c.6 0 1.05.45 1.05 1.05v5.1c-.15.15.15.3.3.15zM14.7 6.3H5.55c-.6.15-1.2-.3-1.2-.9S4.8 4.2 5.4 4.2h9.15c.6 0 1.05.45 1.2 1.05S15.3 6.3 14.7 6.3zm0 4.5H5.55c-.6.15-1.2-.3-1.2-.9S4.8 8.7 5.4 8.7h9.15c.6 0 1.05.45 1.2 1.05s-.45 1.05-1.05 1.05zm-1.05 2.85l-1.5 1.5c-.15.15-.3.15-.45.15H5.4c-.6 0-1.2-.45-1.2-1.2 0-.6.45-1.2 1.2-1.2h8.1c.3.3.45.6.15.75zm-4.5 6.15H5.4c-.6 0-1.05-.45-1.2-1.05 0-.6.45-1.2 1.05-1.2H9c.6 0 1.05.45 1.2 1.05.15.75-.3 1.2-1.05 1.2zM20.1 9.75s-.15-.15-.3-.15-.15 0-.3.15l-6.9 6.9-.15.15-.45 2.7c0 .15 0 .3.15.3.15.15.15.15.3.15l2.55-.6c.15 0 .15 0 .3-.15l6.9-6.9s.15-.15.15-.3 0-.15-.15-.3l-2.1-1.95zm3.75.3l-2.1-2.1s-.15-.15-.3-.15-.15 0-.3.15L20.4 9s-.15.15-.15.3 0 .15.15.3l2.1 1.95s.15.15.3.15.15 0 .3-.15l.9-.9v-.3c0-.15 0-.15-.15-.3z"/></g><defs><clipPath id="A"><path fill="#fff" d="M0 0h24v24H0z"/></clipPath></defs></svg>