<svg xmlns="http://www.w3.org/2000/svg" xmlns:xlink="http://www.w3.org/1999/xlink" width="94" height="60" fill="none"><rect x=".6" y=".6" width="92.8" height="58.8" rx="2.4" fill="#fff"/><rect x=".6" y=".6" width="92.8" height="58.8" rx="2.4" stroke="#8796a1" stroke-width="1.2"/><g fill-rule="evenodd"><use xlink:href="#B" fill="#bbc2c7"/><path d="M47 11.75a6 6 0 1 0 0 12 6 6 0 1 0 0-12zm-4 10.108c1.033 1.006 2.444 1.626 4 1.626s2.967-.62 4-1.626v-.049a2.02 2.02 0 0 0-.586-1.425c-.375-.378-.884-.59-1.414-.59h-4a1.99 1.99 0 0 0-1.414.59A2.02 2.02 0 0 0 43 21.808v.049zm6-5.027c0 1.113-.895 2.015-2 2.015s-2-.902-2-2.015.895-2.015 2-2.015 2 .902 2 2.015z" fill="#718491"/><use xlink:href="#B" x="28" fill="#bbc2c7"/></g><path d="M28.314 27.75a1.5 1.5 0 1 0 0 3h37.372a1.5 1.5 0 1 0 0-3H28.314z" fill="#718491"/><path d="M19 34.75a1 1 0 0 1 1-1h54a1 1 0 1 1 0 2H20a1 1 0 0 1-1-1zm12.14 4a1 1 0 0 1 1-1h29.72a1 1 0 1 1 0 2H32.14a1 1 0 0 1-1-1z" fill="#8796a1"/><g fill="#718491"><use xlink:href="#C"/><use xlink:href="#C" x="5"/><use xlink:href="#C" x="10"/><use xlink:href="#C" x="15"/><use xlink:href="#C" x="20"/><path d="M10.864 34.136a.9.9 0 1 0 1.273-1.273L8.773 29.5l3.364-3.364a.9.9 0 0 0-1.273-1.273l-4 4a.9.9 0 0 0 0 1.273l4 4zm72.272-9.272a.9.9 0 1 0-1.273 1.273l3.364 3.364-3.364 3.364a.9.9 0 1 0 1.273 1.273l4-4a.9.9 0 0 0 0-1.273l-4-4z"/></g><defs ><path id="B" d="M33 12.75a5 5 0 1 0 0 10 5 5 0 1 0 0-10zm-3.333 8.423c.861.838 2.037 1.355 3.333 1.355a4.76 4.76 0 0 0 3.333-1.355v-.041c0-.445-.176-.872-.488-1.187a1.66 1.66 0 0 0-1.179-.492h-3.333a1.66 1.66 0 0 0-1.178.492c-.313.315-.488.742-.488 1.187v.041zm5-4.189c0 .927-.746 1.679-1.667 1.679s-1.667-.752-1.667-1.679.746-1.679 1.667-1.679 1.667.752 1.667 1.679z"/><path id="C" d="M37 43.75l.75 1.5 1.5.188-1.03 1.155.28 1.657-1.5-.75-1.5.75.282-1.657-1.032-1.155 1.5-.187.75-1.5z"/></defs></svg>