<svg xmlns="http://www.w3.org/2000/svg" width="106" height="76" fill="none"><rect x=".75" y=".75" width="104.5" height="74.5" rx="1.25" fill="#fff"/><rect x=".75" y=".75" width="104.5" height="74.5" rx="1.25" stroke="#8796a1" stroke-width="1.5"/><g clip-path="url(#B)"><rect x="8" y="8" width="90" height="60" rx="2" fill="#fff"/><g fill="#aab5bd"><path fill-rule="evenodd" d="M22.624 24h16.753c.342 0 .624.279.624.624v11.852c0 .344-.281.624-.624.624H22.624c-.342 0-.624-.279-.624-.624V24.624c0-.344.281-.624.624-.624zm3.598 3.206a1.66 1.66 0 0 1 1.66 1.658 1.66 1.66 0 0 1-1.66 1.66 1.66 1.66 0 0 1-1.658-1.66 1.66 1.66 0 0 1 1.658-1.658zm-2.778-1.764h15.113v8.417c-3.013-.526-4.597-4.76-6.489-4.76-2.015 0-4.69 4.76-6.132 4.76-1.225 0-1.342-1.26-2.493-1.831v-6.587z"/><rect x="22" y="40.1" width="18" height="2.5" rx="1.25"/><rect x="22" y="45.6" width="18" height="1.75" rx=".875"/><rect x="22" y="49.35" width="12.462" height="1.75" rx=".875"/><path fill-rule="evenodd" d="M44.624 24h16.753c.342 0 .624.279.624.624v11.852c0 .344-.281.624-.624.624H44.624c-.342 0-.624-.279-.624-.624V24.624c0-.344.281-.624.624-.624zm3.598 3.206a1.66 1.66 0 0 1 1.66 1.658 1.66 1.66 0 0 1-1.66 1.66 1.66 1.66 0 0 1-1.658-1.66 1.66 1.66 0 0 1 1.658-1.658zm-2.778-1.764h15.113v8.417c-3.013-.526-4.597-4.76-6.489-4.76-2.015 0-4.69 4.76-6.132 4.76-1.225 0-1.342-1.26-2.493-1.831v-6.587z"/><rect x="44" y="40.1" width="18" height="2.5" rx="1.25"/><rect x="44" y="45.6" width="18" height="1.75" rx=".875"/><rect x="44" y="49.35" width="12.462" height="1.75" rx=".875"/><path fill-rule="evenodd" d="M66.624 24h16.753c.342 0 .624.279.624.624v11.852c0 .344-.281.624-.624.624H66.624c-.342 0-.624-.279-.624-.624V24.624c0-.344.281-.624.624-.624zm3.598 3.206a1.66 1.66 0 0 1 1.66 1.658 1.66 1.66 0 0 1-1.66 1.66 1.66 1.66 0 0 1-1.658-1.66 1.66 1.66 0 0 1 1.658-1.658zm-2.778-1.764h15.113v8.417c-3.013-.526-4.597-4.76-6.489-4.76-2.016 0-4.69 4.76-6.132 4.76-1.225 0-1.342-1.26-2.493-1.831v-6.587z"/><rect x="66" y="40.1" width="18" height="2.5" rx="1.25"/><rect x="66" y="45.6" width="18" height="1.75" rx=".875"/><rect x="66" y="49.35" width="12.462" height="1.75" rx=".875"/></g><path d="M98 8H8V68H98V8Z" fill="#000" fill-opacity=".6"/><g filter="url(#A)"><rect x="30" y="12.158" width="45.65" height="51.684" rx="2" fill="#fff" shape-rendering="crispEdges"/><path fill-rule="evenodd" d="M37.361 20.158h30.927c.632 0 1.151.516 1.151 1.151V43.19c0 .636-.519 1.152-1.151 1.152H37.361c-.632 0-1.151-.516-1.151-1.152V21.31c0-.636.519-1.151 1.151-1.151zm6.642 5.918c1.691 0 3.065 1.37 3.065 3.061s-1.373 3.065-3.065 3.065-3.061-1.373-3.061-3.065a3.06 3.06 0 0 1 3.061-3.061zm-5.129-3.256h27.901v15.539c-5.562-.97-8.487-8.788-11.979-8.788-3.721 0-8.658 8.788-11.32 8.788-2.262 0-2.477-2.327-4.602-3.379V22.82z" fill="#58707f"/><rect x="38.5" y="48.342" width="28.65" height="3" rx="1.5" fill="#58707f"/><rect x="38.5" y="54.342" width="28.65" height="2" rx="1" fill="#58707f"/><rect x="46.224" y="57.842" width="13.203" height="2" rx="1" fill="#58707f"/></g><path d="M72.648 16l1.412 1.412-.848.848-1.412-1.412-1.416 1.416-.848-.848L70.952 16l-1.416-1.416.848-.848 1.416 1.416 1.416-1.412.848.848L72.648 16z" fill="#40525c"/></g><defs><filter id="A" x="24" y="8.158" width="57.65" height="63.684" filterUnits="userSpaceOnUse" color-interpolation-filters="sRGB"><feFlood flood-opacity="0" result="A"/><feColorMatrix in="SourceAlpha" values="0 0 0 0 0 0 0 0 0 0 0 0 0 0 0 0 0 0 127 0" result="B"/><feOffset dy="2"/><feGaussianBlur stdDeviation="3"/><feComposite in2="B" operator="out"/><feColorMatrix values="0 0 0 0 0 0 0 0 0 0 0 0 0 0 0 0 0 0 0.1 0"/><feBlend in2="A"/><feBlend in="SourceGraphic"/></filter><clipPath id="B"><rect x="8" y="8" width="90" height="60" rx="2" fill="#fff"/></clipPath></defs></svg>