<svg xmlns="http://www.w3.org/2000/svg" width="14" height="14" fill="none"><g clip-path="url(#A)"><path fill-rule="evenodd" d="M13.345 6.125a.66.66 0 0 1-.454-.184l-1.42-1.416c-.123-.124-.323-.124-.446 0L7.118 8.432a1.1 1.1 0 0 1-1.547 0c-.427-.427-.427-1.12 0-1.547l3.906-3.906c.123-.123.123-.322 0-.446L8.067 1.121c-.122-.134-.196-.299-.19-.483C7.886.281 8.184 0 8.543 0h4.583c.483 0 .875.392.875.875v4.594c0 .362-.293.656-.656.656zM1.751 3.938v7.875c0 .242.196.438.438.438h7.875c.242 0 .438-.196.438-.437V7.739c0-.272.329-.408.521-.216l1.023 1.023a.7.7 0 0 1 .205.495v3.21a1.75 1.75 0 0 1-1.75 1.75h-8.75a1.75 1.75 0 0 1-1.75-1.75V3.5a1.75 1.75 0 0 1 1.75-1.75h3.21c.186 0 .364.073.495.205l1.023 1.023c.192.192.056.522-.216.522H2.189c-.243 0-.437.196-.437.438z" fill="#2271b1"/></g><defs><clipPath id="A"><path fill="#fff" d="M0 0h14v14H0z"/></clipPath></defs></svg>