<svg xmlns="http://www.w3.org/2000/svg" xmlns:xlink="http://www.w3.org/1999/xlink" width="104" height="130" fill="none"><g clip-path="url(#A)"><rect width="104" height="130" rx="4" fill="#fff"/><rect x="12" y="20.25" width="20" height="3" rx="1.5" fill="#58707f"/><rect x="39.5" y="18.25" width="52" height="7" rx="1.5" fill="#fff" stroke="#58707f"/><rect x="12" y="36.25" width="20" height="3" rx="1.5" fill="#58707f"/><g fill="#fff" stroke="#58707f"><rect x="39.5" y="34.25" width="52" height="7" rx="1.5"/><rect x="39.5" y="50.25" width="52" height="23" rx="1.5"/></g><g fill="#58707f"><rect x="12" y="52.25" width="20" height="3" rx="1.5"/><rect x="12" y="85.5" width="20" height="3" rx="1.5"/><use xlink:href="#B"/><path d="M55.25 82.275l1.575 3.15 3.15.394-2.163 2.425.588 3.481-3.15-1.575-3.15 1.575.593-3.481-2.168-2.425 3.15-.394 1.575-3.15zm10.5 0l1.575 3.15 3.15.394-2.163 2.425.588 3.481-3.15-1.575-3.15 1.575.593-3.481-2.168-2.425 3.15-.394 1.575-3.15zm10.5 0l1.575 3.15 3.15.394-2.163 2.425.588 3.481-3.15-1.575-3.15 1.575.593-3.481-2.168-2.425 3.15-.394 1.575-3.15zm10.5 0l1.575 3.15 3.15.394-2.163 2.425.588 3.481-3.15-1.575-3.15 1.575.593-3.481-2.168-2.425 3.15-.394 1.575-3.15z"/></g><g stroke="#58707f"><rect x="40" y="100.75" width="31" height="11" rx="1.5" fill="#fff"/><rect x="45.875" y="105.625" width="19.25" height="1.25" rx=".625" fill="#58707f" stroke-width=".75"/></g></g><rect x=".85" y=".85" width="102.3" height="128.3" rx="3.15" stroke="#8796a1" stroke-width="1.7"/><defs><clipPath id="A"><rect width="104" height="130" rx="4" fill="#fff"/></clipPath><path id="B" d="M44.75 82.275l1.575 3.15 3.15.394-2.163 2.425.588 3.481-3.15-1.575-3.15 1.575.593-3.481-2.168-2.425 3.15-.394 1.575-3.15z"/></defs></svg>