<svg xmlns="http://www.w3.org/2000/svg" width="104" height="130" fill="none" xmlns:v="https://vecta.io/nano"><style><![CDATA[.B{fill:#fff}.C{fill:#58707f}.D{stroke:#58707f}]]></style><g clip-path="url(#A)"><rect width="104" height="130" rx="4" class="B"/><rect x="12" y="11" width="27" height="3" rx="1.5" class="C"/><rect x="12.5" y="17.5" width="79" height="7" rx="1.5" class="B D"/><rect x="12" y="31" width="27" height="3" rx="1.5" class="C"/><rect x="12.5" y="37.5" width="79" height="7" rx="1.5" class="B D"/><rect x="12" y="51" width="27" height="3" rx="1.5" class="C"/><rect x="12.5" y="57.5" width="79" height="19" rx="1.5" class="B D"/><rect x="12" y="83" width="27" height="3" rx="1.5" class="C"/><g clip-path="url(#B)" class="C"><path d="M18 89.6l1.8 3.6 3.6.45-2.472 2.772.672 3.978-3.6-1.8-3.6 1.8.678-3.978L12.6 93.65l3.6-.45 1.8-3.6z"/></g><g clip-path="url(#C)" class="C"><path d="M30 89.6l1.8 3.6 3.6.45-2.472 2.772.672 3.978-3.6-1.8-3.6 1.8.678-3.978L24.6 93.65l3.6-.45 1.8-3.6z"/></g><g clip-path="url(#D)" class="C"><path d="M42 89.6l1.8 3.6 3.6.45-2.472 2.772.672 3.978-3.6-1.8-3.6 1.8.678-3.978L36.6 93.65l3.6-.45 1.8-3.6z"/></g><g clip-path="url(#E)" class="C"><path d="M54 89.6l1.8 3.6 3.6.45-2.472 2.772.672 3.978-3.6-1.8-3.6 1.8.678-3.978L48.6 93.65l3.6-.45 1.8-3.6z"/></g><g clip-path="url(#F)" class="C"><path d="M66 89.6l1.8 3.6 3.6.45-2.472 2.772.672 3.978-3.6-1.8-3.6 1.8.678-3.978L60.6 93.65l3.6-.45 1.8-3.6z"/></g><g class="D"><rect x="12.5" y="107.5" width="31" height="11" rx="1.5" class="B"/><rect x="18.375" y="112.375" width="19.25" height="1.25" rx=".625" stroke-width=".75" class="C"/></g></g><rect x=".85" y=".85" width="102.3" height="128.3" rx="3.15" stroke="#8796a1" stroke-width="1.7"/><defs><clipPath id="A"><rect width="104" height="130" rx="4" class="B"/></clipPath><clipPath id="B"><path transform="translate(12 89)" d="M0 0h12v12H0z" class="B"/></clipPath><clipPath id="C"><path transform="translate(24 89)" d="M0 0h12v12H0z" class="B"/></clipPath><clipPath id="D"><path transform="translate(36 89)" d="M0 0h12v12H0z" class="B"/></clipPath><clipPath id="E"><path transform="translate(48 89)" d="M0 0h12v12H0z" class="B"/></clipPath><clipPath id="F"><path transform="translate(60 89)" d="M0 0h12v12H0z" class="B"/></clipPath></defs></svg>