<svg xmlns="http://www.w3.org/2000/svg" xmlns:xlink="http://www.w3.org/1999/xlink" width="200" height="125" fill="none"><rect x=".75" y=".75" width="198.5" height="123.5" rx="7.583" fill="#fff"/><rect x=".75" y=".75" width="198.5" height="123.5" rx="7.583" stroke="#8796a1" stroke-width="1.5"/><rect x="5.4" y="55.4" width="15.2" height="15.2" rx="1.2" fill="#546069" stroke="#546069" stroke-width=".8"/><path d="M16.2 59l-4 4 4 4-.8 1.6L9.8 63l5.6-5.6.8 1.6z" fill="#fff"/><rect x="179.4" y="55.4" width="15.2" height="15.2" rx="1.2" fill="#546069" stroke="#546069" stroke-width=".8"/><path d="M183.8 67l4-4-4-4 .8-1.6 5.6 5.6-5.6 5.6-.8-1.6z" fill="#fff"/><g clip-path="url(#A)"><rect x="24.962" y="36.963" width="71.19" height="51.949" rx="1.924" stroke="#8796a1" stroke-width="1.924"/><g fill="#718491"><path fill-rule="evenodd" d="M60.557 40.811c-4.823 0-8.732 3.91-8.732 8.732s3.91 8.732 8.732 8.732 8.732-3.91 8.732-8.732-3.91-8.732-8.732-8.732zm-5.821 14.71c1.503 1.464 3.557 2.366 5.821 2.366s4.318-.902 5.822-2.366v-.071c0-.778-.307-1.524-.853-2.073a2.9 2.9 0 0 0-2.058-.859h-5.821a2.9 2.9 0 0 0-2.058.859c-.546.55-.852 1.296-.852 2.073v.071zm8.732-7.316c0 1.619-1.303 2.932-2.911 2.932s-2.911-1.313-2.911-2.932 1.303-2.932 2.911-2.932 2.911 1.313 2.911 2.932z"/><rect x="38.726" y="62.124" width="43.661" height="4.366" rx="2.183"/><rect x="28.81" y="69.765" width="63.494" height="3.275" rx="1.637"/><use xlink:href="#B"/><path d="M52.476 76.887l1.212 2.424 2.424.303-1.665 1.867.453 2.679-2.424-1.212-2.424 1.212.457-2.679-1.669-1.867 2.424-.303 1.212-2.424z"/><use xlink:href="#C"/><path d="M68.639 76.887l1.212 2.424 2.424.303-1.665 1.867.453 2.679-2.424-1.212-2.424 1.212.457-2.679-1.669-1.867 2.424-.303 1.212-2.424zm9.293 2.424l-1.212-2.424-1.212 2.424-2.424.303 1.669 1.867-.457 2.679 2.424-1.212 2.424 1.212-.453-2.679 1.665-1.867-2.424-.303z"/></g><rect x="103.848" y="36.963" width="71.19" height="51.949" rx="1.924" stroke="#8796a1" stroke-width="1.924"/><g fill="#718491"><path fill-rule="evenodd" d="M139.443 40.811c-4.823 0-8.732 3.91-8.732 8.732s3.909 8.732 8.732 8.732 8.732-3.91 8.732-8.732-3.909-8.732-8.732-8.732zm-5.821 14.71c1.503 1.464 3.557 2.366 5.821 2.366s4.318-.902 5.822-2.366v-.071c0-.778-.307-1.524-.853-2.073a2.9 2.9 0 0 0-2.058-.859h-5.822a2.9 2.9 0 0 0-2.058.859c-.546.55-.852 1.296-.852 2.073v.071zm8.732-7.316c0 1.619-1.303 2.932-2.911 2.932s-2.911-1.313-2.911-2.932 1.304-2.932 2.911-2.932 2.911 1.313 2.911 2.932z"/><rect x="117.612" y="62.124" width="43.661" height="4.366" rx="2.183"/><rect x="107.696" y="69.765" width="63.494" height="3.275" rx="1.637"/><path d="M123.281 76.887l1.212 2.424 2.424.303-1.665 1.867.453 2.679-2.424-1.212-2.425 1.212.457-2.679-1.669-1.867 2.424-.303 1.213-2.424zm8.081 0l1.212 2.424 2.425.303-1.665 1.867.452 2.679-2.424-1.212-2.424 1.212.456-2.679-1.669-1.867 2.425-.303 1.212-2.424zm9.294 2.424l-1.213-2.424-1.212 2.424-2.424.303 1.669 1.867-.457 2.679 2.424-1.212 2.425 1.212-.453-2.679 1.665-1.867-2.424-.303zm6.869-2.424l1.212 2.424 2.424.303-1.664 1.867.452 2.679-2.424-1.212-2.425 1.212.457-2.679-1.669-1.867 2.425-.303 1.212-2.424zm9.293 2.424l-1.212-2.424-1.212 2.424-2.425.303 1.669 1.867-.457 2.679 2.425-1.212 2.424 1.212-.452-2.679 1.664-1.867-2.424-.303z"/></g></g><defs><clipPath id="A"><path fill="#fff" transform="translate(24 36)" d="M0 0h152v53.873H0z"/></clipPath><path id="B" d="M44.394 76.887l1.212 2.424 2.424.303-1.665 1.867.453 2.679-2.424-1.212-2.424 1.212.457-2.679-1.669-1.867 2.424-.303 1.212-2.424z"/><path id="C" d="M61.769 79.311l-1.212-2.424-1.212 2.424-2.424.303 1.669 1.867-.457 2.679 2.424-1.212 2.424 1.212-.453-2.679 1.665-1.867-2.424-.303z"/></defs></svg>