<svg xmlns="http://www.w3.org/2000/svg" viewBox="0 0 128 128" style="enable-background:new 0 0 128 128" xml:space="preserve"><linearGradient id="a" gradientUnits="userSpaceOnUse" x1="2.615" y1="1.513" x2="126.098" y2="127.213"><stop offset=".003" style="stop-color:#fd0a54"/><stop offset="1" style="stop-color:#b70659"/></linearGradient><path style="fill-rule:evenodd;clip-rule:evenodd;fill:url(#a)" d="M0 0h128v128H0z"/><linearGradient id="b" gradientUnits="userSpaceOnUse" x1="125.475" y1="130.054" x2="59.632" y2="57.559"><stop offset="0" style="stop-color:#000;stop-opacity:0"/><stop offset=".965" style="stop-color:#000;stop-opacity:.1931"/><stop offset="1" style="stop-color:#000;stop-opacity:.2"/></linearGradient><path style="fill-rule:evenodd;clip-rule:evenodd;fill:url(#b)" d="M128 64.4V128H64.4L32.2 95.8l63.6-63.6z"/><path d="M109 63.8v.2c0 2.3-.2 4.6-.5 6.9-.1.5-.2 1.1-.3 1.6-1.7 9-6.2 17.1-12.4 23.3-1.5 1.5-3.2 2.9-4.9 4.2-.4.3-.8.6-1.3.9-1.9 1.3-3.9 2.5-6 3.5-1.4.7-2.8 1.3-4.3 1.8-2 .7-4 1.3-6.1 1.7-.3 0-.5.1-.8.2-1.9.4-3.9.6-5.9.7-.9 0-1.7.1-2.6.1h-2.1c-11.6-.5-22.1-5.5-29.8-13.1-8-8.1-13-19.4-13-31.8 0-12.4 5-23.7 13.2-31.8S51.6 19 64 19c24.6 0 44.6 19.8 45 44.3v.5z" style="fill-rule:evenodd;clip-rule:evenodd;fill:#fff"/><linearGradient id="c" gradientUnits="userSpaceOnUse" x1="96.391" y1="96.165" x2="58.703" y2="60.472"><stop offset=".003" style="stop-color:#fff;stop-opacity:0"/><stop offset="1" style="stop-color:#b70659"/></linearGradient><path d="M54.3 99.4 41.4 86.6l8.9 4.5 6.5 4.5-2.5 3.8zM87.2 42l5 10 2.2 14-2.4 6.7-5.5 12.8L73 93.7l10.7 10.8c2.1-1 4.1-2.2 6-3.5.4-.3.9-.6 1.3-.9 1.7-1.3 3.4-2.7 4.9-4.2 6.2-6.2 10.6-14.3 12.4-23.3.1-.5.2-1.1.3-1.6.4-2.2.5-4.6.5-6.9v-.2L87.2 42zM54 101l8 8h2.1c.9 0 1.7 0 2.6-.1 2-.1 4-.4 5.9-.7.3 0 .5-.1.8-.2 2.1-.4 4.1-1 6.1-1.7L65 92.1 54 101z" style="opacity:.56;fill-rule:evenodd;clip-rule:evenodd;fill:url(#c)"/><linearGradient id="d" gradientUnits="userSpaceOnUse" x1="32.05" y1="64.003" x2="95.944" y2="64.003"><stop offset=".003" style="stop-color:#fd0a54"/><stop offset="1" style="stop-color:#b70659"/></linearGradient><path d="m47 55.2 3.5 3.5.9.9-.9.9-3.5 3.6c-.1.1-.1.3.1.4l3.8 2.1v6.9c0 .3.2.5.4.7l12.1 6.7c.1.1.2.1.4.1h.4c.1 0 .3 0 .4-.1l12.1-6.7c.2-.1.4-.4.4-.7v-6.9l3.8-2.1c.1-.1.2-.3.1-.4l-4.4-4.4 4.4-4.4c.1-.1.1-.3-.1-.4l-12.1-6.8c-.1-.1-.2 0-.3 0l-2.2 2.2-2.1 2.1c-.1.1-.1.3.1.4l11.9 6.6.4.2-.4.2-11.8 6.6h-.8l-11.8-6.6-.4-.2.4-.2 11.9-6.6c.1-.1.2-.3.1-.4l-2.1-2.1-2.2-2.2c-.1-.1-.2-.1-.3 0l-12.1 6.8c-.2 0-.2.2-.1.3zm17.5 12.7 3.6 3.6c.2.2.6.3.9.1l6.9-3.9v5.5l-11.5 6.4V67.9zM52 67.8l6.9 3.9c.3.2.7.1.9-.1l3.6-3.6v11.7L52 73.3v-5.5zM95.9 64c0 7-2.2 13.7-6.5 19.3-3.8 5-9 8.8-14.9 10.9-.8.3-1.7-.2-2-1-.2-.8.2-1.6 1-1.9 5.2-1.9 9.9-5.3 13.3-9.8 3.8-5 5.8-11.1 5.8-17.4 0-6.3-2-12.4-5.8-17.4-3.2-4.3-7.7-7.6-12.7-9.5v6c0 .6-.7.9-1.2.6L63 35.9c-.4-.3-.4-.9 0-1.1L73.1 27c.5-.4 1.2 0 1.2.6v6.2c6 2 11.4 5.9 15.2 11 4.2 5.5 6.4 12.2 6.4 19.2zM65 93.2 54.9 101c-.5.4-1.2 0-1.2-.6v-6.2c-6-2-11.4-5.9-15.2-11-4.2-5.5-6.4-12.2-6.4-19.2s2.2-13.7 6.5-19.3c3.8-5 9-8.8 14.9-10.9.8-.3 1.7.2 2 1 .2.8-.2 1.6-1 1.9-5.2 1.9-9.9 5.3-13.3 9.8-3.8 5-5.8 11.1-5.8 17.4 0 6.3 2 12.4 5.8 17.4 3.2 4.3 7.7 7.6 12.7 9.5v-6c0-.6.7-.9 1.2-.6l9.9 7.9c.4.3.4.9 0 1.1z" style="fill-rule:evenodd;clip-rule:evenodd;fill:url(#d)"/></svg>