<svg xmlns="http://www.w3.org/2000/svg" viewBox="0 0 128 128" style="enable-background:new 0 0 128 128" xml:space="preserve"><linearGradient id="a" gradientUnits="userSpaceOnUse" x1="135.468" y1="138.157" x2="-31.152" y2="-34.731"><stop offset="0" style="stop-color:#ff8f6a"/><stop offset="1" style="stop-color:#fff655"/></linearGradient><path style="fill-rule:evenodd;clip-rule:evenodd;fill:url(#a)" d="M0 0h128v128H0z"/><linearGradient id="b" gradientUnits="userSpaceOnUse" x1="133.516" y1="136.479" x2="59.316" y2="61.639"><stop offset="0" style="stop-color:#000;stop-opacity:.177"/><stop offset="1" style="stop-color:#ffc515;stop-opacity:.52"/></linearGradient><path style="opacity:.63;fill-rule:evenodd;clip-rule:evenodd;fill:url(#b)" d="M128 69.64V128H59.49L28.92 92.19l68.95-57.85z"/><path d="M64 19c24.85 0 45 20.15 45 45s-20.15 45-45 45-45-20.15-45-45c0-24.86 20.15-45 45-45z" style="fill-rule:evenodd;clip-rule:evenodd;fill:#fff"/><linearGradient id="c" gradientUnits="userSpaceOnUse" x1="44.037" y1="87.131" x2="106.335" y2="43.727" gradientTransform="matrix(1 0 0 -1 0 136)"><stop offset="0" style="stop-color:#ff8f6a"/><stop offset="1" style="stop-color:#ffbe15"/></linearGradient><path d="M81.55 63.42h-5.11c-.37 0-.72-.11-1-.31-.37-.25-.86-.22-1.16.11l-.82.89c-.36.39-.33 1.01.08 1.33.8.61 1.8.98 2.89.98h5.11c.98 0 1.78.79 1.78 1.78v6.58c0 1.55-1.26 2.8-2.8 2.8H47.46c-1.54 0-2.8-1.25-2.8-2.8V54.22c0-1.55 1.26-2.8 2.8-2.8h11.35c.98 0 1.78.8 1.78 1.78v.94c0 1.6.8 3.03 2.02 3.89.84.6 2 .52 2.76-.18l.56-.51c.55-.5.19-1.42-.55-1.42-.98 0-1.78-.8-1.78-1.78v-.94a4.78 4.78 0 0 0-4.78-4.78H47.47c-3.2 0-5.8 2.6-5.8 5.8v20.56c0 3.2 2.6 5.8 5.8 5.8h33.06c3.2 0 5.8-2.6 5.8-5.8V68.2a4.78 4.78 0 0 0-4.78-4.78zm-32.19-8.51c0 .92-.75 1.67-1.67 1.67s-1.67-.75-1.67-1.67.75-1.67 1.67-1.67 1.67.75 1.67 1.67zm5 0c0 .92-.75 1.67-1.67 1.67s-1.67-.75-1.67-1.67.75-1.67 1.67-1.67 1.67.75 1.67 1.67zm5 0c0 .92-.75 1.67-1.67 1.67s-1.67-.75-1.67-1.67.75-1.67 1.67-1.67 1.67.75 1.67 1.67zm8.55 10.12-2.51-2.51c-.57-.57-.55-1.49.04-2.03l11.73-10.77c.99-.9 2.51-.87 3.45.07.95.95.98 2.47.07 3.45L69.92 64.97c-.52.61-1.44.63-2.01.06zm-2.39 6.13c-2.37 2.38-6.62 2.63-9.39.84-.48-.31-.91-.67-1.3-1.08-.17-.18-.67-.61-.62-.88.08-.4 1.23-.34 1.53-.41.57-.12 1.12-.35 1.62-.64.97-.57 1.79-1.43 2.35-2.38.78-1.35 1.06-3.66 2.99-3.85.57-.06 1.12.13 1.62.46 2.6 1.67 3.47 5.66 1.2 7.94zm4.56-19.48h-3.5c-.88 0-1.59-.71-1.59-1.59v-3.5c0-.88.71-1.59 1.59-1.59h3.5c.88 0 1.59.71 1.59 1.59v3.5c.01.88-.71 1.59-1.59 1.59zm7.43-5.27h-2.39c-.6 0-1.09-.49-1.09-1.09v-2.39c0-.6.49-1.09 1.09-1.09h2.39c.6 0 1.09.49 1.09 1.09v2.39c0 .61-.49 1.09-1.09 1.09z" style="fill:url(#c)"/></svg>