<svg xmlns="http://www.w3.org/2000/svg" xmlns:xlink="http://www.w3.org/1999/xlink" width="128" height="128"><defs><linearGradient id="b" x1="2.679%" x2="102%" y1="2.652%" y2="101%"><stop offset="0%" stop-color="#1373D8"/><stop offset="100%" stop-color="#1347B5"/></linearGradient><linearGradient id="c" x1="1.467%" x2="106.784%" y1="49.874%" y2="40.395%"><stop offset="0%" stop-opacity=".177"/><stop offset="100%" stop-color="#196AC6" stop-opacity=".516"/></linearGradient><linearGradient id="g" x1="43.899%" x2="79.17%" y1="29.545%" y2="85.544%"><stop offset="0%" stop-color="#2280E5"/><stop offset="100%" stop-color="#0E4C8F"/></linearGradient><rect id="e" width="90" height="90" x="19" y="19" rx="45"/><path id="a" d="M0 0h128v128H0z"/></defs><g fill="none" fill-rule="evenodd"><mask id="d" fill="#fff"><use xlink:href="#a"/></mask><use fill="url(#b)" xlink:href="#a"/><path fill="url(#c)" mask="url(#d)" transform="rotate(50 92.32 97.745)" d="M47.321 52.745h90v90h-90z"/><mask id="f" fill="#fff"><use xlink:href="#e"/></mask><use fill="#FFF" xlink:href="#e"/><g mask="url(#f)"><path fill="url(#g)" fill-rule="nonzero" d="M18.954 12.067c-1.138 1.648-2.438 4.094-3.899 7.337a50.066 50.066 0 0 0-1.053-1.949 17.585 17.585 0 0 0-1.152-1.706c-.484-.645-.968-1.151-1.452-1.519-.484-.367-1.081-.68-1.793-.94a6.713 6.713 0 0 0-2.32-.39H.912a.915.915 0 0 1-.655-.242A.813.813 0 0 1 0 12.04V6.88c0-.25.085-.457.256-.618a.915.915 0 0 1 .655-.242h6.375c4.743 0 8.633 2.016 11.668 6.047ZM51 33.54c0 .25-.085.457-.256.618l-9.107 8.6a.915.915 0 0 1-.655.242.901.901 0 0 1-.64-.255.805.805 0 0 1-.27-.605v-5.16c-.608 0-1.414.004-2.42.013a312.77 312.77 0 0 0-2.305.027c-.531.01-1.224 0-2.077-.027a22.518 22.518 0 0 1-2.021-.134c-.493-.063-1.1-.157-1.822-.282-.72-.126-1.318-.291-1.793-.497a43.056 43.056 0 0 1-1.65-.766 8.199 8.199 0 0 1-1.68-1.075A24.864 24.864 0 0 1 22.74 32.8a15.746 15.746 0 0 1-1.593-1.868c1.12-1.666 2.41-4.112 3.87-7.337.418.806.769 1.456 1.053 1.949.285.492.669 1.061 1.153 1.706s.967 1.151 1.451 1.519c.484.367 1.082.68 1.793.94.712.26 1.485.39 2.32.39h7.285v-5.16c0-.25.086-.457.257-.618a.915.915 0 0 1 .654-.242c.228 0 .456.09.683.269l9.079 8.573c.17.161.256.367.256.618Zm0-24.08c0 .25-.085.457-.256.618l-9.107 8.6a.915.915 0 0 1-.655.242.901.901 0 0 1-.64-.255.805.805 0 0 1-.27-.605V12.9h-7.286c-.911 0-1.736.134-2.476.403a5.628 5.628 0 0 0-1.964 1.21 11.06 11.06 0 0 0-1.451 1.652 22.633 22.633 0 0 0-1.281 2.083c-.607 1.111-1.347 2.643-2.22 4.596a242.39 242.39 0 0 1-1.409 2.983 38.827 38.827 0 0 1-1.537 2.822c-.635 1.075-1.242 1.97-1.821 2.687-.579.717-1.28 1.46-2.106 2.23-.825.771-1.68 1.385-2.561 1.842-.883.457-1.893.833-3.031 1.129a14.448 14.448 0 0 1-3.643.443H.91a.915.915 0 0 1-.655-.242A.813.813 0 0 1 0 36.12v-5.16c0-.25.085-.457.256-.618a.915.915 0 0 1 .655-.242h6.375c.91 0 1.736-.134 2.476-.403a5.628 5.628 0 0 0 1.963-1.21 11.06 11.06 0 0 0 1.452-1.652c.398-.565.825-1.259 1.28-2.083.608-1.111 1.348-2.643 2.22-4.596.55-1.182 1.02-2.177 1.41-2.983.388-.806.9-1.747 1.536-2.822s1.243-1.97 1.821-2.687c.58-.717 1.281-1.46 2.107-2.23.825-.771 1.679-1.385 2.56-1.842.883-.457 1.893-.833 3.032-1.129a14.448 14.448 0 0 1 3.643-.443h7.285V.86c0-.25.086-.457.257-.618A.915.915 0 0 1 40.982 0c.228 0 .456.09.683.269l9.079 8.573c.17.161.256.367.256.618Z" transform="translate(39 43)"/></g></g></svg>