<svg xmlns="http://www.w3.org/2000/svg" xmlns:xlink="http://www.w3.org/1999/xlink" width="128" height="128"><defs><linearGradient id="a" x1="-.007" y1="-.003" x2=".993" y2=".989" gradientUnits="objectBoundingBox"><stop offset=".004" stop-color="#94a7ff"/><stop offset="1" stop-color="#402aff"/></linearGradient><linearGradient id="c" x1=".974" y1="-72.4" x2=".286" y2="-71.643" gradientUnits="objectBoundingBox"><stop offset="0" stop-opacity="0"/><stop offset=".922" stop-opacity=".184"/><stop offset="1" stop-opacity=".2"/></linearGradient><linearGradient id="b" x1=".285" y1="-.038" x2=".708" y2="1.02" gradientUnits="objectBoundingBox"><stop offset=".004" stop-color="#d6ff15"/><stop offset=".238" stop-color="#a6da0d"/><stop offset=".471" stop-color="#7dbc07"/><stop offset=".683" stop-color="#60a603"/><stop offset=".866" stop-color="#4f9800"/><stop offset="1" stop-color="#499400"/></linearGradient><linearGradient id="d" x1=".232" y1=".074" x2=".756" y2=".907" xlink:href="#a"/><linearGradient id="e" x1="-.257" y1="1.126" x2=".861" y2=".113" xlink:href="#b"/><linearGradient id="f" x1="1.169" y1=".025" x2=".168" y2=".905" xlink:href="#a"/></defs><g data-name="Group 3300"><g data-name="Group 3293"><path data-name="Rectangle 2668" fill="url(#a)" d="M0 0h128v128H0z"/></g><path data-name="Path 2163" d="M1593.024 200.707v63.6h-63.6l-32.2-32.2 63.6-63.6Z" fill-rule="evenodd" fill="url(#c)" transform="translate(-1465.024 -136.307)"/><g data-name="Group 3294"><path data-name="Path 2164" d="M109 64a53.386 53.386 0 0 1-.5 6.9c-.1.5-.2 1.1-.3 1.6a44.9 44.9 0 0 1-12.4 23.3 49.275 49.275 0 0 1-4.9 4.2 14.616 14.616 0 0 1-1.3.9 45.47 45.47 0 0 1-16.4 7.1 2.354 2.354 0 0 0-.8.2 38.049 38.049 0 0 1-5.9.7c-.9 0-1.7.1-2.6.1a44.566 44.566 0 0 1-31.8-13.2A45.072 45.072 0 0 1 19 64a44.566 44.566 0 0 1 13.2-31.8A44.976 44.976 0 0 1 109 63.3Z" fill="#fff" fill-rule="evenodd"/></g><g data-name="Group 3299"><g data-name="Group 3298"><g data-name="Group 3295" transform="translate(58.139 34.586)"><circle data-name="Ellipse 2304" cx="17.638" cy="17.638" r="17.638" fill="url(#b)"/><path data-name="Path 2165" d="M20.836 24.643a7.311 7.311 0 0 1-6.193-3.431.317.317 0 0 1 .266-.487h5.139a.715.715 0 0 0 .715-.714v-.822a.714.714 0 0 0-.715-.714h-6.16a.318.318 0 0 1-.315-.282 7.407 7.407 0 0 1-.052-.865 7.212 7.212 0 0 1 .052-.865.318.318 0 0 1 .315-.281h6.16a.715.715 0 0 0 .715-.714v-.822a.714.714 0 0 0-.715-.714h-5.139a.317.317 0 0 1-.266-.488 7.3 7.3 0 0 1 10.314-2.154.714.714 0 0 0 .913-.089l.96-.977a.713.713 0 0 0-.085-1.076 10.088 10.088 0 0 0-15.338 4.579.317.317 0 0 1-.3.206H7.763a.714.714 0 0 0-.715.714v.822a.715.715 0 0 0 .715.714h2.692a.315.315 0 0 1 .315.339q-.033.4-.033.807t.033.807a.314.314 0 0 1-.314.34H7.763a.714.714 0 0 0-.715.714v.822a.715.715 0 0 0 .715.714h3.344a.317.317 0 0 1 .3.206 10.09 10.09 0 0 0 15.338 4.579.713.713 0 0 0 .085-1.076l-.96-.977a.714.714 0 0 0-.913-.089 7.264 7.264 0 0 1-4.121 1.274Z" fill="#fff"/></g><g data-name="Group 3297" transform="translate(34.586 50.405)"><circle data-name="Ellipse 2305" cx="21.505" cy="21.505" r="21.505" fill="url(#d)"/><g data-name="Group 3296"><path data-name="Path 2166" d="M19.821 32.297a11.277 11.277 0 0 1-3.286-.958 9.3 9.3 0 0 1-2.613-1.781l1.137-1.694a1.173 1.173 0 0 1 .4-.367 1.022 1.022 0 0 1 .517-.142 1.354 1.354 0 0 1 .7.232q.374.232.854.547a11.713 11.713 0 0 0 1.093.628 5.155 5.155 0 0 0 1.452.465l.569-6.706q-1.062-.3-2.1-.706a7.041 7.041 0 0 1-1.872-1.074 4.982 4.982 0 0 1-1.339-1.69 6.163 6.163 0 0 1-.053-4.785 5.951 5.951 0 0 1 1.325-1.945 7.03 7.03 0 0 1 2.141-1.412 7.237 7.237 0 0 1 2.918-.555l.165-1.907a1.057 1.057 0 0 1 .3-.65.919.919 0 0 1 .7-.287h1.362l-.254 2.942a8.258 8.258 0 0 1 2.739.9 9.974 9.974 0 0 1 2.005 1.451l-.9 1.362a1.847 1.847 0 0 1-.42.449.85.85 0 0 1-.508.15 1.291 1.291 0 0 1-.531-.142c-.2-.095-.439-.209-.7-.344s-.556-.271-.875-.412a6.125 6.125 0 0 0-1.063-.344l-.524 6.2q1.078.329 2.134.726a7.75 7.75 0 0 1 1.9 1.026 4.919 4.919 0 0 1 1.369 1.564 4.745 4.745 0 0 1 .524 2.344 7.3 7.3 0 0 1-.464 2.612 6.4 6.4 0 0 1-1.355 2.156 6.847 6.847 0 0 1-2.193 1.519 8.776 8.776 0 0 1-2.979.7l-.18 2.2a1.06 1.06 0 0 1-.3.636.91.91 0 0 1-.7.292h-1.363Zm-1.512-16.141a2.335 2.335 0 0 0 .74 1.775 3.905 3.905 0 0 0 .831.6 7.853 7.853 0 0 0 1.048.472l.464-5.542a5.366 5.366 0 0 0-1.407.351 3.114 3.114 0 0 0-.958.607 2.22 2.22 0 0 0-.547.8 2.567 2.567 0 0 0-.171.937Zm7.274 9.793a2.306 2.306 0 0 0-.2-1 2.38 2.38 0 0 0-.569-.756 3.66 3.66 0 0 0-.861-.569 8.921 8.921 0 0 0-1.078-.435l-.508 6.077a3.9 3.9 0 0 0 2.4-1.07 3.141 3.141 0 0 0 .816-2.246Z" fill="#fff"/></g></g></g><path data-name="Path 2167" d="m1524.1 177.757-4.155-5.5a.61.61 0 0 0-1.079.223l-.829 3.391a14.081 14.081 0 0 0-14.874 15.866.69.69 0 0 0 .684.6.877.877 0 0 0 .09-.005.69.69 0 0 0 .6-.775 12.712 12.712 0 0 1 13.17-14.324l-.907 3.7a.61.61 0 0 0 .854.7l6.225-2.959a.61.61 0 0 0 .221-.917Z" transform="translate(-1466.055 -137.43)" fill="url(#e)"/><path data-name="Path 2168" d="M1556.79 206.811a.691.691 0 0 0-1.3.456 12.7 12.7 0 0 1-7.792 16.183 12.84 12.84 0 0 1-2.141.548l.123-3.811a.61.61 0 0 0-.979-.505l-5.48 4.18a.61.61 0 0 0-.03.945l5.2 4.524a.61.61 0 0 0 1.01-.44l.112-3.494a14.193 14.193 0 0 0 2.643-.64 14.084 14.084 0 0 0 8.64-17.945Z" transform="translate(-1464.628 -136.067)" fill="url(#f)"/></g></g></svg>