<svg version="1.1" id="Layer_1" xmlns="http://www.w3.org/2000/svg" x="0" y="0" viewBox="0 0 128 128" style="enable-background:new 0 0 128 128" xml:space="preserve"><style>.st3{fill:#92003b}</style><linearGradient id="SVGID_1_" gradientUnits="userSpaceOnUse" x1="2.615" y1="128.487" x2="126.098" y2="2.787" gradientTransform="matrix(1 0 0 -1 0 130)"><stop offset=".004" style="stop-color:#ff7be5"/><stop offset=".068" style="stop-color:#e963c3"/><stop offset=".149" style="stop-color:#d2489f"/><stop offset=".239" style="stop-color:#be3280"/><stop offset=".335" style="stop-color:#ae2067"/><stop offset=".443" style="stop-color:#a11153"/><stop offset=".566" style="stop-color:#990845"/><stop offset=".72" style="stop-color:#94023d"/><stop offset="1" style="stop-color:#92003b"/></linearGradient><path style="fill-rule:evenodd;clip-rule:evenodd;fill:url(#SVGID_1_)" d="M0 0h128v128H0z"/><linearGradient id="SVGID_00000161597757370681447530000014780340098385539471_" gradientUnits="userSpaceOnUse" x1="125.472" y1="-.056" x2="59.629" y2="72.438" gradientTransform="matrix(1 0 0 -1 0 130)"><stop offset="0" style="stop-color:#000;stop-opacity:0"/><stop offset=".922" style="stop-color:#000;stop-opacity:.1845"/><stop offset="1" style="stop-color:#000;stop-opacity:.2"/></linearGradient><path style="fill-rule:evenodd;clip-rule:evenodd;fill:url(#SVGID_00000161597757370681447530000014780340098385539471_)" d="M128 64.4V128H64.4L32.2 95.8l63.6-63.6z"/><path d="M109 64c0 2.3-.2 4.6-.5 6.9-.1.5-.2 1.1-.3 1.6-1.7 9-6.2 17.1-12.4 23.3-1.5 1.5-3.2 2.9-4.9 4.2-.4.3-.8.6-1.3.9-4.9 3.4-10.4 5.8-16.4 7.1-.3 0-.5.1-.8.2-1.9.4-3.9.6-5.9.7-.9 0-1.7.1-2.6.1-12.4 0-23.7-5-31.8-13.2S19 76.4 19 64s5-23.7 13.2-31.8S51.6 19 64 19c24.6 0 44.6 19.8 45 44.3v.7z" style="fill-rule:evenodd;clip-rule:evenodd;fill:#fff"/><path class="st3" d="M43.5 43.5h8.4v41h-8.4v-41zM59.9 51.9v-8.4h24.6v8.4H59.9zM59.9 68.2v-8.4h24.6v8.4H59.9zM59.9 84.5v-8.4h24.6v8.4H59.9z"/></svg>