<svg xmlns="http://www.w3.org/2000/svg" xmlns:xlink="http://www.w3.org/1999/xlink" width="128" height="128"><defs><linearGradient id="b" x1=".568%" x2="101.782%" y1=".562%" y2="100.784%"><stop offset="0%" stop-color="#59A30E"/><stop offset="100%" stop-color="#60A917"/></linearGradient><linearGradient id="c" x1="1.467%" x2="106.784%" y1="49.874%" y2="40.395%"><stop offset="0%" stop-opacity=".177"/><stop offset="100%" stop-color="#1FF4F7" stop-opacity=".133"/></linearGradient><linearGradient id="g" x1="50%" x2="50%" y1="1.372%" y2="100%"><stop offset="0%" stop-color="#88C024"/><stop offset="100%" stop-color="#2E8909"/></linearGradient><rect id="e" width="90" height="90" x="19" y="19" rx="45"/><path id="a" d="M0 0h128v128H0z"/></defs><g fill="none" fill-rule="evenodd"><mask id="d" fill="#fff"><use xlink:href="#a"/></mask><use fill="url(#b)" xlink:href="#a"/><path fill="url(#c)" mask="url(#d)" transform="rotate(50 92.32 97.745)" d="M47.321 52.745h90v90h-90z"/><mask id="f" fill="#fff"><use xlink:href="#e"/></mask><use fill="#FFF" xlink:href="#e"/><g mask="url(#f)"><path d="M90 38v53H37V38z"/><path fill="url(#g)" fill-rule="nonzero" d="M33.167 46.045h4.444v-4.454h-4.444v4.454Zm8.889-26.727H46.5v-4.454h-4.444v4.454ZM6.5 10.41v31.182a4.448 4.448 0 0 0 4.444 4.454h8.89v-4.454h-8.89V10.409h8.89V5.955h-8.89A4.448 4.448 0 0 0 6.5 10.409Zm35.556-4.454v4.454H46.5a4.448 4.448 0 0 0-4.444-4.454ZM24.278 50.5h4.444v-49h-4.444v49Zm17.778-13.364H46.5v-4.454h-4.444v4.454Zm-8.89-26.727h4.445V5.955h-4.444v4.454Zm8.89 17.818H46.5v-4.454h-4.444v4.454Zm0 17.818a4.448 4.448 0 0 0 4.444-4.454h-4.444v4.454Z" transform="rotate(90 26 64)"/></g></g></svg>