<svg version="1.1" id="Layer_1" xmlns="http://www.w3.org/2000/svg" x="0" y="0" viewBox="0 0 128 128" style="enable-background:new 0 0 128 128" xml:space="preserve"><linearGradient id="SVGID_1_" gradientUnits="userSpaceOnUse" x1="155.088" y1="155.088" x2="-5.431" y2="-5.431"><stop offset="0" style="stop-color:#2c1870"/><stop offset=".062" style="stop-color:#341c7e"/><stop offset=".281" style="stop-color:#4c28ac"/><stop offset=".49" style="stop-color:#5f32d0"/><stop offset=".685" style="stop-color:#6d39ea"/><stop offset=".861" style="stop-color:#753efa"/><stop offset="1" style="stop-color:#783fff"/></linearGradient><path style="fill-rule:evenodd;clip-rule:evenodd;fill:url(#SVGID_1_)" d="M0 0h128v128H0z"/><linearGradient id="SVGID_00000106829484822647309560000007933174985139737756_" gradientUnits="userSpaceOnUse" x1="125.472" y1="-.056" x2="59.629" y2="72.438" gradientTransform="matrix(1 0 0 -1 0 130)"><stop offset="0" style="stop-color:#000;stop-opacity:0"/><stop offset=".922" style="stop-color:#000;stop-opacity:.1845"/><stop offset="1" style="stop-color:#000;stop-opacity:.2"/></linearGradient><path style="fill-rule:evenodd;clip-rule:evenodd;fill:url(#SVGID_00000106829484822647309560000007933174985139737756_)" d="M128 64.4V128H64.4L32.2 95.8l63.6-63.6z"/><path d="M109 63.3v.7c0 1.4-.1 2.8-.2 4.3-.1.9-.2 1.8-.3 2.6-.1.5-.2 1.1-.3 1.6-1.7 9-6.2 17.1-12.4 23.3-1.5 1.5-3.2 2.9-4.9 4.2-.4.3-.8.6-1.3.9-4.9 3.4-10.4 5.8-16.4 7.1-.3 0-.5.1-.8.2-1.3.3-2.7.5-4.1.6-.6 0-1.2.1-1.8.1-.9 0-1.7.1-2.6.1-12.4 0-23.7-5-31.8-13.2C24 87.6 19 76.4 19 64c0-12.4 5-23.7 13.2-31.8C40.4 24.1 51.6 19 64 19c24.6 0 44.6 19.8 45 44.3z" style="fill-rule:evenodd;clip-rule:evenodd;fill:#fff"/><linearGradient id="SVGID_00000090277616028195744970000015175992502435895730_" gradientUnits="userSpaceOnUse" x1="95.251" y1="98.636" x2="43.296" y2="41.052"><stop offset="0" style="stop-color:#2c1870"/><stop offset="1" style="stop-color:#783fff"/></linearGradient><path style="fill:url(#SVGID_00000090277616028195744970000015175992502435895730_)" d="M92.6 64c0-15.8-12.9-28.6-28.6-28.6S35.4 48.2 35.4 64 48.3 92.6 64 92.6c4.4 0 8.8-1 12.7-3 1.6 1 3.4 1.5 5.3 1.5 5.6 0 10.1-4.5 10.1-10.1 0-2.2-.7-4.2-1.8-5.8 1.6-3.5 2.3-7.3 2.3-11.2zm-52.2 0C40.4 51 51 40.4 64 40.4S87.6 51 87.6 64c0 2.7-.5 5.4-1.4 7.9-1.2-.6-2.6-.9-4.1-.9C76.5 71 72 75.5 72 81.1c0 1.7.4 3.3 1.2 4.7-2.9 1.2-6 1.8-9.1 1.8C51 87.6 40.4 77 40.4 64zm41.7 23.7c-3.7 0-6.6-3-6.6-6.6 0-3.7 3-6.6 6.6-6.6s6.6 3 6.6 6.6c0 3.7-3 6.6-6.6 6.6z"/><linearGradient id="SVGID_00000080185345145528918860000014054200565364376720_" gradientUnits="userSpaceOnUse" x1="100.534" y1="103.161" x2="62.565" y2="61.08"><stop offset="0" style="stop-color:#000;stop-opacity:0"/><stop offset=".922" style="stop-color:#000;stop-opacity:.1845"/><stop offset="1" style="stop-color:#000;stop-opacity:.2"/></linearGradient><path style="fill:url(#SVGID_00000080185345145528918860000014054200565364376720_)" d="M108.8 68.3c-.1.9-.2 1.8-.3 2.6-.1.5-.2 1.1-.3 1.6-1.7 9-6.2 17.1-12.4 23.3-1.5 1.5-3.2 2.9-4.9 4.2-.4.3-.8.6-1.3.9-4.9 3.4-10.4 5.8-16.4 7.1-.3 0-.5.1-.8.2-1.3.3-2.7.5-4.1.6L43.7 84.3c5.2 5.2 12.3 8.4 20.2 8.4 4.4 0 8.8-1 12.7-3 1.6 1 3.4 1.5 5.3 1.5 5.6 0 10.1-4.5 10.1-10.1 0-2.2-.7-4.2-1.8-5.8 1.5-3.6 2.3-7.4 2.3-11.3 0-7.9-3.2-15.1-8.4-20.3l24.7 24.6z"/></svg>