<svg xmlns="http://www.w3.org/2000/svg" viewBox="0 0 128 128" style="enable-background:new 0 0 128 128" xml:space="preserve"><linearGradient id="a" gradientUnits="userSpaceOnUse" x1="2.615" y1="1.513" x2="126.098" y2="127.213"><stop offset="0" style="stop-color:#74ff6d"/><stop offset="1" style="stop-color:#00d999"/></linearGradient><path style="fill-rule:evenodd;clip-rule:evenodd;fill:url(#a)" d="M0 0h128v128H0z"/><linearGradient id="b" gradientUnits="userSpaceOnUse" x1="125.475" y1="130.054" x2="59.632" y2="57.559"><stop offset="0" style="stop-color:#000;stop-opacity:0"/><stop offset=".922" style="stop-color:#000;stop-opacity:.1845"/><stop offset="1" style="stop-color:#000;stop-opacity:.2"/></linearGradient><path style="fill-rule:evenodd;clip-rule:evenodd;fill:url(#b)" d="M128 64.4V128H64.4L32.2 95.8l63.6-63.6z"/><path d="M109 64c0 2.3-.2 4.6-.5 6.9-.1.5-.2 1.1-.3 1.6-1.7 9-6.1 17.1-12.4 23.3-6.1 6.1-13.8 10.4-22.6 12.2-.3 0-.5.1-.8.2-2.7.5-5.6.8-8.5.8-12.4 0-23.7-5-31.8-13.2C24 87.7 19 76.4 19 64s5-23.7 13.2-31.8C40.3 24 51.6 19 64 19c24.9 0 45 20.2 45 45z" style="fill-rule:evenodd;clip-rule:evenodd;fill:#fff"/><linearGradient id="c" gradientUnits="userSpaceOnUse" x1="94.584" y1="97.16" x2="67.797" y2="63.677"><stop offset="0" style="stop-color:#74ff6d"/><stop offset="1" style="stop-color:#00d999"/></linearGradient><path d="M108.5 70.9c-.1.5-.2 1.1-.3 1.6-1.7 9-6.1 17.1-12.4 23.3-6.1 6.1-13.8 10.4-22.6 12.2-.3 0-.5.1-.8.2l-20-20.1.4-2.5-8.2-8.2 4.7-4.2 21.8 4.1 12.1-11.7-5.5-11.1 9.5-4.9 21.3 21.3z" style="opacity:.13;fill-rule:evenodd;clip-rule:evenodd;fill:url(#c)"/><path style="fill:none" d="M95.8 32.2 32.2 95.8"/><linearGradient id="d" gradientUnits="userSpaceOnUse" x1="34.416" y1="35.971" x2="83.632" y2="81.64"><stop offset="0" style="stop-color:#74ff6d"/><stop offset="1" style="stop-color:#00d999"/></linearGradient><path d="M75.6 85.6c0 2.1-1.7 3.9-3.9 3.9-2.1 0-3.9-1.7-3.9-3.9s1.7-3.9 3.9-3.9c2.1 0 3.9 1.7 3.9 3.9zm-20.2-3.9c-2.1 0-3.9 1.7-3.9 3.9s1.7 3.9 3.9 3.9c2.1 0 3.8-1.7 3.8-3.9s-1.7-3.9-3.8-3.9zM89 54.5l-.1.4-3.8 19.9c-.5 2.4-2.6 4.2-5 4.2H48.3c-2.5 0-4.6-1.7-5-4.2L39.4 55l-1.3-6.6-.9-4.7c-.3-1.4-1.5-2.4-2.9-2.4h-1.1c-1 0-1.8-.8-1.8-1.8s.8-1.8 1.8-1.8h2.2c2.5 0 4.7 1.8 5.2 4.2l.8 4c.3 1.4 1.5 2.3 2.9 2.3h39.6c3.3.2 5.7 3.1 5.1 6.3zm-13.4 9.1c0-.6 0-1.1-.1-1.7-.8-5.5-5.5-9.7-11.3-9.7-.6 0-1.1.5-1.1 1.1 0 .6.5 1.1 1.1 1.1 4.7 0 8.6 3.5 9.1 8.1.1.4.1.7.1 1.1 0 5.1-4.1 9.2-9.2 9.2S55 68.7 55 63.6c0-.4 0-.7.1-1 .2-1.4.6-2.7 1.4-3.8l1.9 1.2c.4.3 1-.1.9-.6l-.6-5.2c0-.4-.4-.6-.8-.5l-5 1.5c-.5.1-.6.8-.2 1.1l1.9 1.3c-.9 1.4-1.4 2.9-1.7 4.5-.1.5-.1 1.1-.1 1.6 0 6.3 5.1 11.4 11.4 11.4 6.3-.1 11.4-5.2 11.4-11.5z" style="fill-rule:evenodd;clip-rule:evenodd;fill:url(#d)"/><path style="fill-rule:evenodd;clip-rule:evenodd;fill:none;stroke:#fff;stroke-width:2.2;stroke-linecap:round;stroke-miterlimit:10" d="M64 57.9v5.7l3.8 2.7"/><path d="m89 54.5-.1.4c-3.9 3.2-8.5 5.6-13.5 7.1l-2.1.6c-1 .2-2.1.4-3.1.6-2 .3-4 .5-6.1.5h-1c-2.8-.1-5.5-.4-8.1-1l-2.1-.6c-5-1.5-9.5-3.9-13.5-7l-1.3-6.6-.9-4.7c-.3-1.4-1.5-2.4-2.9-2.4h-1.1c-1 0-1.8-.8-1.8-1.8s.8-1.8 1.8-1.8h2.2c2.5 0 4.7 1.8 5.2 4.2l.8 4c.3 1.4 1.5 2.3 2.9 2.3h39.6c3.3.1 5.7 3 5.1 6.2z" style="opacity:.19;fill-rule:evenodd;clip-rule:evenodd;fill:#fff"/></svg>