<svg xmlns="http://www.w3.org/2000/svg" xmlns:xlink="http://www.w3.org/1999/xlink" width="128" height="128"><defs><linearGradient id="b" x1="50%" x2="50%" y1="0%" y2="100%"><stop offset="0%" stop-color="#FA9C61"/><stop offset="100%" stop-color="#F7531C"/></linearGradient><linearGradient id="c" x1="1.467%" x2="106.784%" y1="49.874%" y2="40.395%"><stop offset="0%" stop-opacity=".177"/><stop offset="100%" stop-color="#F71F1F" stop-opacity=".133"/></linearGradient><linearGradient id="g" x1="0%" x2="84.544%" y1="50%" y2="45.208%"><stop offset="0%" stop-opacity=".12"/><stop offset="100%" stop-color="#FFF" stop-opacity=".097"/></linearGradient><linearGradient id="h" x1="50%" x2="50%" y1=".628%" y2="100%"><stop offset="0%" stop-color="#FA8A61"/><stop offset="100%" stop-color="#F76B1C"/></linearGradient><rect id="e" width="90" height="90" x="19" y="19" rx="45"/><path id="a" d="M0 0h128v128H0z"/></defs><g fill="none" fill-rule="evenodd"><mask id="d" fill="#fff"><use xlink:href="#a"/></mask><use fill="url(#b)" xlink:href="#a"/><path fill="url(#c)" mask="url(#d)" transform="rotate(50 92.32 97.745)" d="M47.321 52.745h90v90h-90z"/><mask id="f" fill="#fff"><use xlink:href="#e"/></mask><use fill="#FFF" xlink:href="#e"/><g mask="url(#f)"><path fill="url(#g)" transform="rotate(46 17.111 104.597)" d="M21.084 16.158h52v43h-52z"/><path fill="url(#h)" fill-rule="nonzero" d="M13.723.057c-3.522 0-7.06 1.149-9.748 3.906-5.374 5.513-5.226 14.012 0 19.525L25.19 46l21.216-22.512c5.226-5.513 5.373-14.012 0-19.525-5.374-5.284-14.122-5.284-19.495 0L25.19 5.8l-1.72-1.837C20.781 1.206 17.244.057 13.722.057Z" transform="translate(39 42)"/></g></g></svg>