<svg xmlns="http://www.w3.org/2000/svg" width="90" height="60" fill="none"><rect x=".6" y=".6" width="88.8" height="58.8" rx="1.4" fill="#fff"/><rect x=".6" y=".6" width="88.8" height="58.8" rx="1.4" stroke="#8796a1" stroke-width="1.2"/><g fill="#58707f"><path fill-rule="evenodd" d="M10.377 10.224h35.246c.72 0 1.312.588 1.312 1.312v24.936c0 .724-.592 1.312-1.312 1.312H10.377c-.72 0-1.312-.588-1.312-1.312V11.536c0-.724.592-1.312 1.312-1.312zm7.57 6.744c1.927 0 3.493 1.561 3.493 3.489s-1.565 3.493-3.493 3.493-3.489-1.565-3.489-3.493a3.49 3.49 0 0 1 3.489-3.489zm-5.845-3.711h31.797v17.709c-6.339-1.106-9.672-10.015-13.652-10.015-4.24 0-9.867 10.015-12.9 10.015-2.578 0-2.823-2.652-5.245-3.851V13.257z"/><rect x="9.065" y="40.145" width="28.328" height="2.5" rx="1.25"/><rect x="9.065" y="45.006" width="37.87" height="1.5" rx=".75"/><rect x="9.065" y="48.276" width="22" height="1.5" rx=".75"/><path fill-rule="evenodd" d="M53.905 10.224h26.06c.533 0 .97.435.97.97v18.437c0 .535-.438.97-.97.97H53.905c-.533 0-.97-.435-.97-.97V11.194c0-.536.438-.97.97-.97zm5.597 4.986c1.425 0 2.582 1.154 2.582 2.58s-1.157 2.582-2.582 2.582a2.58 2.58 0 1 1 0-5.162zm-4.321-2.744h23.51V25.56c-4.687-.818-7.151-7.405-10.094-7.405-3.135 0-7.295 7.405-9.538 7.405-1.906 0-2.087-1.961-3.878-2.847V12.467z"/><rect x="52.935" y="32.601" width="22" height="2" rx="1"/><path fill-rule="evenodd" d="M53.394 37.313h12.338a.46.46 0 0 1 .459.459v8.729a.46.46 0 0 1-.459.459H53.394a.46.46 0 0 1-.459-.459v-8.729a.46.46 0 0 1 .459-.459zm2.65 2.361c.675 0 1.223.547 1.223 1.221s-.548 1.223-1.223 1.223-1.221-.548-1.221-1.223a1.22 1.22 0 0 1 1.221-1.221zm-2.046-1.299h11.131v6.199c-2.219-.387-3.386-3.506-4.779-3.506-1.484 0-3.454 3.506-4.516 3.506-.902 0-.988-.928-1.836-1.348v-4.851z"/><rect x="52.935" y="48.276" width="13.257" height="1.5" rx=".75"/><path fill-rule="evenodd" d="M68.137 37.313h12.338a.46.46 0 0 1 .459.459v8.729a.46.46 0 0 1-.459.459H68.137a.46.46 0 0 1-.459-.459v-8.729a.46.46 0 0 1 .459-.459zm2.65 2.361c.675 0 1.223.547 1.223 1.221s-.548 1.223-1.223 1.223-1.221-.548-1.221-1.223a1.22 1.22 0 0 1 1.221-1.221zm-2.046-1.299h11.131v6.199c-2.219-.387-3.386-3.506-4.779-3.506-1.484 0-3.454 3.506-4.516 3.506-.902 0-.988-.928-1.836-1.348v-4.851z"/><rect x="67.678" y="48.276" width="13.257" height="1.5" rx=".75"/></g></svg>