<svg xmlns="http://www.w3.org/2000/svg" width="90" height="60" fill="none" xmlns:v="https://vecta.io/nano"><rect x=".6" y=".6" width="88.8" height="58.8" rx="1.4" fill="#fff"/><rect x=".6" y=".6" width="88.8" height="58.8" rx="1.4" stroke="#8796a1" stroke-width="1.2"/><g fill="#58707f"><path fill-rule="evenodd" d="M18.23 12h31.699c.648 0 1.18.529 1.18 1.18v22.426c0 .651-.532 1.18-1.18 1.18H18.23c-.648 0-1.18-.529-1.18-1.18V13.18c0-.651.532-1.18 1.18-1.18zm6.808 6.065a3.14 3.14 0 0 1 3.141 3.138c0 1.733-1.408 3.141-3.141 3.141a3.14 3.14 0 0 1-3.138-3.141 3.14 3.14 0 0 1 3.138-3.138zm-5.256-3.337h28.597v15.927c-5.701-.995-8.699-9.007-12.278-9.007-3.814 0-8.874 9.007-11.602 9.007-2.318 0-2.539-2.385-4.717-3.463V14.728z"/><rect x="17.05" y="39.148" width="28.328" height="1.77" rx=".885"/><rect x="17.05" y="43.279" width="34.059" height="1.475" rx=".738"/><rect x="17.05" y="46.525" width="18.885" height="1.475" rx=".738"/><path fill-rule="evenodd" d="M55.727 12h16.604a.62.62 0 0 1 .618.618v11.747a.62.62 0 0 1-.618.618H55.727a.62.62 0 0 1-.618-.618V12.618a.62.62 0 0 1 .618-.618zm3.566 3.177c.908 0 1.645.736 1.645 1.644s-.737 1.645-1.645 1.645-1.644-.737-1.644-1.645.736-1.644 1.644-1.644zm-2.753-1.748h14.979v8.343c-2.986-.521-4.557-4.718-6.431-4.718-1.998 0-4.648 4.718-6.077 4.718-1.214 0-1.33-1.249-2.471-1.814v-6.528z"/><rect x="55.109" y="26.754" width="17.841" height="1.77" rx=".885"/><path fill-rule="evenodd" d="M55.727 31.476h16.604a.62.62 0 0 1 .618.618v11.747a.62.62 0 0 1-.618.618H55.727a.62.62 0 0 1-.618-.618V32.094a.62.62 0 0 1 .618-.618zm3.566 3.177c.908 0 1.645.736 1.645 1.644s-.737 1.645-1.645 1.645-1.644-.737-1.644-1.645.736-1.644 1.644-1.644zm-2.753-1.748h14.979v8.343c-2.986-.521-4.557-4.718-6.431-4.718-1.998 0-4.648 4.718-6.077 4.718-1.214 0-1.33-1.249-2.471-1.814v-6.528z"/><rect x="55.109" y="46.23" width="17.841" height="1.77" rx=".885"/></g></svg>