<svg xmlns="http://www.w3.org/2000/svg" width="90" height="60" fill="none" xmlns:v="https://vecta.io/nano"><rect x=".6" y=".6" width="88.8" height="58.8" rx="1.4" fill="#fff"/><rect x=".6" y=".6" width="88.8" height="58.8" rx="1.4" stroke="#8796a1" stroke-width="1.2"/><g fill="#aab5bd"><path fill-rule="evenodd" d="M8.544 16h17.309c.354 0 .645.289.645.644V28.89c0 .356-.291.644-.645.644H8.544c-.354 0-.644-.289-.644-.644V16.644c0-.356.291-.644.644-.644zm3.717 3.312c.947 0 1.715.767 1.715 1.713s-.769 1.715-1.715 1.715-1.713-.769-1.713-1.715.767-1.713 1.713-1.713zm-2.87-1.822h15.615v8.697c-3.113-.543-4.75-4.918-6.704-4.918-2.083 0-4.846 4.918-6.335 4.918-1.266 0-1.386-1.302-2.576-1.891V17.49z"/><rect x="7.9" y="32.635" width="18.598" height="2.583" rx="1.292"/><rect x="7.9" y="38.317" width="18.598" height="1.808" rx=".904"/><rect x="7.9" y="42.192" width="12.876" height="1.808" rx=".904"/></g><g fill="#58707f"><path fill-rule="evenodd" d="M32.433 11.675h25.129a.94.94 0 0 1 .936.936v17.779a.94.94 0 0 1-.936.936H32.433a.94.94 0 0 1-.936-.936V12.611a.94.94 0 0 1 .936-.936zm5.397 4.808a2.49 2.49 0 0 1 2.49 2.488 2.49 2.49 0 0 1-2.49 2.49 2.49 2.49 0 0 1-2.487-2.49 2.49 2.49 0 0 1 2.487-2.488zm-4.167-2.646h22.67v12.626c-4.52-.788-6.896-7.14-9.733-7.14-3.023 0-7.035 7.14-9.197 7.14-1.838 0-2.013-1.89-3.739-2.746v-9.88z"/><rect x="31.498" y="35.325" width="25" height="3" rx="1.5"/><rect x="31.498" y="42.325" width="27" height="2" rx="1"/><rect x="31.498" y="46.325" width="17.308" height="2" rx="1"/></g><g fill="#aab5bd"><path fill-rule="evenodd" d="M64.142 16h17.309c.354 0 .644.289.644.644V28.89c0 .356-.291.644-.644.644H64.142c-.354 0-.644-.289-.644-.644V16.644c0-.356.291-.644.644-.644zm3.718 3.312c.947 0 1.715.767 1.715 1.713s-.769 1.715-1.715 1.715-1.713-.769-1.713-1.715.767-1.713 1.713-1.713zm-2.87-1.822h15.615v8.697c-3.113-.543-4.75-4.918-6.704-4.918-2.082 0-4.846 4.918-6.335 4.918-1.266 0-1.386-1.302-2.576-1.891V17.49z"/><rect x="63.498" y="32.635" width="18.598" height="2.583" rx="1.292"/><rect x="63.498" y="38.317" width="18.598" height="1.808" rx=".904"/><rect x="63.498" y="42.192" width="12.876" height="1.808" rx=".904"/></g></svg>