<svg xmlns="http://www.w3.org/2000/svg" width="90" height="60" fill="none" xmlns:v="https://vecta.io/nano"><rect x=".6" y=".6" width="88.8" height="58.8" rx="1.4" fill="#fff"/><rect x=".6" y=".6" width="88.8" height="58.8" rx="1.4" stroke="#8796a1" stroke-width="1.2"/><g fill="#58707f"><path fill-rule="evenodd" d="M14.624 14h16.753c.342 0 .624.28.624.624v11.852c0 .344-.281.624-.624.624H14.624c-.342 0-.624-.279-.624-.624V14.624c0-.344.281-.624.624-.624zm3.598 3.206a1.66 1.66 0 0 1 1.66 1.658 1.66 1.66 0 0 1-1.66 1.66 1.66 1.66 0 0 1-1.658-1.66 1.66 1.66 0 0 1 1.658-1.658zm-2.778-1.764h15.113v8.417c-3.013-.526-4.597-4.76-6.489-4.76-2.015 0-4.69 4.76-6.132 4.76-1.225 0-1.342-1.26-2.493-1.83v-6.587z"/><rect x="14" y="30.1" width="18" height="2.5" rx="1.25"/><rect x="14" y="35.6" width="18" height="1.75" rx=".875"/><rect x="14" y="39.35" width="12.462" height="1.75" rx=".875"/><path fill-rule="evenodd" d="M36.624 14h16.753c.342 0 .624.28.624.624v11.852c0 .344-.281.624-.624.624H36.624c-.342 0-.624-.279-.624-.624V14.624c0-.344.281-.624.624-.624zm3.598 3.206a1.66 1.66 0 0 1 1.66 1.658 1.66 1.66 0 0 1-1.66 1.66 1.66 1.66 0 0 1-1.658-1.66 1.66 1.66 0 0 1 1.658-1.658zm-2.778-1.764h15.113v8.417c-3.013-.526-4.597-4.76-6.489-4.76-2.015 0-4.69 4.76-6.132 4.76-1.225 0-1.342-1.26-2.493-1.83v-6.587z"/><rect x="36" y="30.1" width="18" height="2.5" rx="1.25"/><rect x="36" y="35.6" width="18" height="1.75" rx=".875"/><rect x="36" y="39.35" width="12.462" height="1.75" rx=".875"/><path fill-rule="evenodd" d="M58.624 14h16.753c.342 0 .624.28.624.624v11.852c0 .344-.281.624-.624.624H58.624c-.342 0-.624-.279-.624-.624V14.624c0-.344.281-.624.624-.624zm3.598 3.206a1.66 1.66 0 0 1 1.66 1.658 1.66 1.66 0 0 1-1.66 1.66 1.66 1.66 0 0 1-1.658-1.66 1.66 1.66 0 0 1 1.658-1.658zm-2.778-1.764h15.113v8.417c-3.013-.526-4.597-4.76-6.489-4.76-2.016 0-4.69 4.76-6.132 4.76-1.225 0-1.342-1.26-2.493-1.83v-6.587z"/><rect x="58" y="30.1" width="18" height="2.5" rx="1.25"/><rect x="58" y="35.6" width="18" height="1.75" rx=".875"/><rect x="58" y="39.35" width="12.462" height="1.75" rx=".875"/></g><path d="M80 31l4-4-4-4m-70 0l-4 4 4 4" stroke="#718491" stroke-width="1.8" stroke-linecap="round" stroke-linejoin="round"/><rect x="37" y="45" width="4" height="4" rx="2" fill="#9ea9b2"/><rect x="43" y="45" width="4" height="4" rx="2" fill="#58707f"/><rect x="49" y="45" width="4" height="4" rx="2" fill="#9ea9b2"/></svg>