<svg xmlns="http://www.w3.org/2000/svg" width="80" height="84" fill="none" xmlns:v="https://vecta.io/nano"><rect x=".85" y=".85" width="78.3" height="82.3" rx="2.15" fill="#fff"/><rect x=".85" y=".85" width="78.3" height="82.3" rx="2.15" stroke="#8796a1" stroke-width="1.7"/><path fill-rule="evenodd" d="M9.287 18h61.426C71.968 18 73 19.025 73 20.287v43.459c0 1.262-1.031 2.287-2.287 2.287H9.287C8.032 66.033 7 65.008 7 63.746V20.287C7 19.025 8.031 18 9.287 18zm13.192 11.754c3.359 0 6.087 2.721 6.087 6.08s-2.728 6.087-6.087 6.087-6.08-2.728-6.08-6.087a6.08 6.08 0 0 1 6.08-6.08zm-10.186-6.467h55.416V54.15c-11.048-1.927-16.857-17.454-23.792-17.454-7.39 0-17.196 17.454-22.482 17.454-4.492 0-4.92-4.621-9.141-6.712V23.286z" fill="#58707f"/><path d="M70.7 18H9.3A2.3 2.3 0 0 0 7 20.3v43.4A2.3 2.3 0 0 0 9.3 66h61.4a2.3 2.3 0 0 0 2.3-2.3V20.3a2.3 2.3 0 0 0-2.3-2.3z" fill="#000" fill-opacity=".6"/><g fill="#fff"><rect x="22" y="23" width="36" height="4" rx="2"/><rect x="16" y="31" width="48" height="2.5" rx="1.25"/><rect x="16" y="35.5" width="48" height="2.5" rx="1.25"/><rect x="30" y="40" width="20" height="2.5" rx="1.25"/></g></svg>