<svg xmlns="http://www.w3.org/2000/svg" xmlns:xlink="http://www.w3.org/1999/xlink" width="16" height="16" fill="none"><g fill="#030e12"><path d="M6.775 2.403l.002.027c-.006.83-.598 1.58-1.419 1.745-.734.147-1.498-.18-1.889-.822a1.8 1.8 0 0 1 .155-2.063A1.79 1.79 0 0 1 5.6.753c.692.258 1.159.914 1.175 1.649zm0 5.57L6.777 8c-.006.83-.598 1.58-1.419 1.745-.734.147-1.498-.18-1.889-.822a1.8 1.8 0 0 1 .155-2.063A1.79 1.79 0 0 1 5.6 6.323c.692.258 1.159.914 1.175 1.649zm0 5.571a.18.18 0 0 1 .002.027c-.006.83-.598 1.58-1.419 1.745-.734.147-1.498-.18-1.889-.822a1.8 1.8 0 0 1 .155-2.062 1.79 1.79 0 0 1 1.977-.537c.692.258 1.159.914 1.175 1.649z"/><use xlink:href="#B"/><use xlink:href="#B" y="5.57"/><path d="M12.79 13.544c.001.009.002.018.002.027-.006.83-.599 1.58-1.419 1.745-.734.147-1.498-.18-1.889-.822a1.8 1.8 0 0 1 .155-2.062 1.79 1.79 0 0 1 1.977-.537c.692.258 1.159.914 1.175 1.649z"/></g><defs ><path id="B" d="M12.79 2.403c.001.009.002.018.002.027-.006.83-.599 1.58-1.419 1.745-.734.147-1.498-.18-1.889-.822a1.8 1.8 0 0 1 .155-2.063 1.79 1.79 0 0 1 1.977-.537c.692.258 1.159.914 1.175 1.649z"/></defs></svg>