<svg width="38" height="38" viewBox="0 0 38 38" fill="none" xmlns="http://www.w3.org/2000/svg">
<mask id="mask0_11201_2391" style="mask-type:luminance" maskUnits="userSpaceOnUse" x="0" y="0" width="38" height="38">
<path d="M38 0H0V38H38V0Z" fill="white"/>
</mask>
<g mask="url(#mask0_11201_2391)">
<path d="M36.4832 16.3331L21.6513 1.50126C21.1882 1.03814 20.5113 1.10939 20.0482 1.57251L1.54695 19.8125C1.08382 20.2756 1.06007 21.2137 1.5232 21.6769L16.3076 36.4612C16.7707 36.9244 17.5307 36.9362 17.9938 36.4731L36.4713 17.9956C36.9345 17.5325 36.9463 16.7962 36.4832 16.3331Z" fill="#FFC44D"/>
<path d="M28.501 32.0684H36.8135M34.4385 27.3184H36.8135M7.12598 21.381H20.1885C20.819 21.381 21.376 20.862 21.376 20.1935V8.31843M16.626 26.1309V29.6934M29.6885 16.6309H26.126M36.4806 16.3329C36.9449 16.7972 36.9307 17.5346 36.4664 17.9978L17.9936 36.4717C17.5293 36.936 16.7729 36.9313 16.3097 36.4669L1.52181 21.679C1.0575 21.2147 1.086 20.2766 1.55031 19.8134L20.0456 1.57699C20.5099 1.11386 21.1821 1.0343 21.6464 1.49861L36.4806 16.3329Z" stroke="black" stroke-width="2" stroke-linecap="round" stroke-linejoin="round"/>
</g>
</svg>