<svg xmlns="http://www.w3.org/2000/svg" width="80" height="40" fill="none" xmlns:v="https://vecta.io/nano"><rect x=".6" y=".6" width="78.8" height="38.8" rx="1.4" fill="#fff"/><rect x=".6" y=".6" width="78.8" height="38.8" rx="1.4" stroke="#8796a1" stroke-width="1.2"/><path d="M65.5 27h-51a1.54 1.54 0 0 1-1.5-1.5v-11a1.54 1.54 0 0 1 1.5-1.5h51a1.54 1.54 0 0 1 1.5 1.5v11a1.54 1.54 0 0 1-1.5 1.5z" stroke="#58707f" stroke-miterlimit="10"/><path fill-rule="evenodd" d="M31 20c0-.552.443-1 .99-1h27.02c.547 0 .99.448.99 1s-.443 1-.99 1H31.99c-.547 0-.99-.448-.99-1z" fill="#58707f"/><rect x="20.5" y="16.5" width="7" height="7" rx="1" stroke="#58707f"/><path d="M25.932 17.956l.536.376-2.324 3.352h-.536l-1.296-1.816.536-.5 1.028.96 2.056-2.372z" fill="#58707f"/></svg>