<svg xmlns="http://www.w3.org/2000/svg" width="90" height="60" fill="none" xmlns:v="https://vecta.io/nano"><style><![CDATA[.B{fill-rule:evenodd}]]></style><rect x=".6" y=".6" width="88.8" height="58.8" rx="1.4" fill="#fff"/><rect x=".6" y=".6" width="88.8" height="58.8" rx="1.4" stroke="#8796a1" stroke-width="1.2"/><g fill="#58707f"><path d="M13.624 9.5h16.753c.342 0 .624.279.624.624v11.852c0 .344-.281.624-.624.624H13.624c-.342 0-.624-.279-.624-.624V10.124c0-.344.281-.624.624-.624zm3.598 3.206a1.66 1.66 0 0 1 1.66 1.658 1.66 1.66 0 0 1-1.66 1.66 1.66 1.66 0 0 1-1.658-1.66 1.66 1.66 0 0 1 1.658-1.658zm-2.778-1.764h15.113v8.417c-3.013-.526-4.597-4.76-6.489-4.76-2.015 0-4.69 4.76-6.132 4.76-1.225 0-1.342-1.26-2.493-1.83v-6.587z" class="B"/><rect x="13" y="25.6" width="18" height="2.5" rx="1.25"/><path d="M36.624 9.5h16.753c.342 0 .624.279.624.624v11.852c0 .344-.281.624-.624.624H36.624c-.342 0-.624-.279-.624-.624V10.124c0-.344.281-.624.624-.624zm3.598 3.206a1.66 1.66 0 0 1 1.66 1.658 1.66 1.66 0 0 1-1.66 1.66 1.66 1.66 0 0 1-1.658-1.66 1.66 1.66 0 0 1 1.658-1.658zm-2.778-1.764h15.113v8.417c-3.013-.526-4.597-4.76-6.489-4.76-2.015 0-4.69 4.76-6.132 4.76-1.225 0-1.342-1.26-2.493-1.83v-6.587z" class="B"/><rect x="36" y="25.6" width="18" height="2.5" rx="1.25"/><path d="M59.624 9.5h16.753c.342 0 .624.279.624.624v11.852c0 .344-.281.624-.624.624H59.624c-.342 0-.624-.279-.624-.624V10.124c0-.344.281-.624.624-.624zm3.598 3.206a1.66 1.66 0 0 1 1.66 1.658 1.66 1.66 0 0 1-1.66 1.66 1.66 1.66 0 0 1-1.658-1.66 1.66 1.66 0 0 1 1.658-1.658zm-2.778-1.764h15.113v8.417c-3.013-.526-4.597-4.76-6.489-4.76-2.016 0-4.69 4.76-6.132 4.76-1.225 0-1.342-1.26-2.493-1.83v-6.587z" class="B"/><rect x="59" y="25.6" width="18" height="2.5" rx="1.25"/><path d="M13.624 32.1h16.753c.342 0 .624.279.624.624v11.852c0 .344-.281.624-.624.624H13.624c-.342 0-.624-.279-.624-.624V32.724c0-.344.281-.624.624-.624zm3.598 3.206a1.66 1.66 0 0 1 1.66 1.658 1.66 1.66 0 0 1-1.66 1.66 1.66 1.66 0 0 1-1.658-1.66 1.66 1.66 0 0 1 1.658-1.658zm-2.778-1.764h15.113v8.417c-3.013-.526-4.597-4.76-6.489-4.76-2.015 0-4.69 4.76-6.132 4.76-1.225 0-1.342-1.26-2.493-1.83v-6.587z" class="B"/><rect x="13" y="48.2" width="18" height="2.5" rx="1.25"/><path d="M36.624 32.1h16.753c.342 0 .624.279.624.624v11.852c0 .344-.281.624-.624.624H36.624c-.342 0-.624-.279-.624-.624V32.724c0-.344.281-.624.624-.624zm3.598 3.206a1.66 1.66 0 0 1 1.66 1.658 1.66 1.66 0 0 1-1.66 1.66 1.66 1.66 0 0 1-1.658-1.66 1.66 1.66 0 0 1 1.658-1.658zm-2.778-1.764h15.113v8.417c-3.013-.526-4.597-4.76-6.489-4.76-2.015 0-4.69 4.76-6.132 4.76-1.225 0-1.342-1.26-2.493-1.83v-6.587z" class="B"/><rect x="36" y="48.2" width="18" height="2.5" rx="1.25"/><path d="M59.624 32.1h16.753c.342 0 .624.279.624.624v11.852c0 .344-.281.624-.624.624H59.624c-.342 0-.624-.279-.624-.624V32.724c0-.344.281-.624.624-.624zm3.598 3.206a1.66 1.66 0 0 1 1.66 1.658 1.66 1.66 0 0 1-1.66 1.66 1.66 1.66 0 0 1-1.658-1.66 1.66 1.66 0 0 1 1.658-1.658zm-2.778-1.764h15.113v8.417c-3.013-.526-4.597-4.76-6.489-4.76-2.016 0-4.69 4.76-6.132 4.76-1.225 0-1.342-1.26-2.493-1.83v-6.587z" class="B"/><rect x="59" y="48.2" width="18" height="2.5" rx="1.25"/></g><path d="M81 34l4-4-4-4M9 26l-4 4 4 4" stroke="#58707f" stroke-width="1.8" stroke-linecap="round" stroke-linejoin="round"/></svg>