<svg xmlns="http://www.w3.org/2000/svg" width="90" height="60" fill="none" xmlns:v="https://vecta.io/nano"><style><![CDATA[.B{fill-rule:evenodd}]]></style><rect x=".6" y=".6" width="88.8" height="58.8" rx="1.4" fill="#fff"/><rect x=".6" y=".6" width="88.8" height="58.8" rx="1.4" stroke="#8796a1" stroke-width="1.2"/><g clip-path="url(#A)" fill="#58707f"><path d="M4.624 21.45h16.753c.342 0 .624.28.624.624v11.852c0 .344-.281.624-.624.624H4.624c-.342 0-.624-.279-.624-.624V22.074c0-.344.281-.624.624-.624zm3.598 3.206a1.66 1.66 0 0 1 1.66 1.658 1.66 1.66 0 0 1-1.66 1.66 1.66 1.66 0 0 1-1.658-1.66 1.66 1.66 0 0 1 1.658-1.658zm-2.778-1.764h15.113v8.417c-3.013-.526-4.597-4.76-6.489-4.76-2.015 0-4.69 4.76-6.132 4.76-1.225 0-1.342-1.26-2.493-1.83v-6.587z" class="B"/><rect x="4" y="37.55" width="18" height="2.5" rx="1.25"/><rect x="4" y="43.05" width="18" height="1.75" rx=".875"/><rect x="4" y="46.8" width="12.462" height="1.75" rx=".875"/><path d="M27.624 21.45h16.753c.342 0 .624.28.624.624v11.852c0 .344-.281.624-.624.624H27.624c-.342 0-.624-.279-.624-.624V22.074c0-.344.281-.624.624-.624zm3.598 3.206a1.66 1.66 0 0 1 1.66 1.658 1.66 1.66 0 0 1-1.66 1.66 1.66 1.66 0 0 1-1.658-1.66 1.66 1.66 0 0 1 1.658-1.658zm-2.778-1.764h15.113v8.417c-3.013-.526-4.597-4.76-6.489-4.76-2.015 0-4.69 4.76-6.132 4.76-1.225 0-1.342-1.26-2.493-1.83v-6.587z" class="B"/><rect x="27" y="37.55" width="18" height="2.5" rx="1.25"/><rect x="27" y="43.05" width="18" height="1.75" rx=".875"/><rect x="27" y="46.8" width="12.462" height="1.75" rx=".875"/><path d="M50.624 21.45h16.753c.342 0 .624.28.624.624v11.852c0 .344-.281.624-.624.624H50.624c-.342 0-.624-.279-.624-.624V22.074c0-.344.281-.624.624-.624zm3.598 3.206a1.66 1.66 0 0 1 1.66 1.658 1.66 1.66 0 0 1-1.66 1.66 1.66 1.66 0 0 1-1.658-1.66 1.66 1.66 0 0 1 1.658-1.658zm-2.778-1.764h15.113v8.417c-3.013-.526-4.597-4.76-6.489-4.76-2.015 0-4.69 4.76-6.132 4.76-1.225 0-1.342-1.26-2.493-1.83v-6.587z" class="B"/><rect x="50" y="37.55" width="18" height="2.5" rx="1.25"/><rect x="50" y="43.05" width="18" height="1.75" rx=".875"/><rect x="50" y="46.8" width="12.462" height="1.75" rx=".875"/><path d="M73.624 21.45h16.753c.342 0 .624.28.624.624v11.852c0 .344-.281.624-.624.624H73.624c-.342 0-.624-.279-.624-.624V22.074c0-.344.281-.624.624-.624zm3.598 3.206a1.66 1.66 0 0 1 1.66 1.658 1.66 1.66 0 0 1-1.66 1.66 1.66 1.66 0 0 1-1.658-1.66 1.66 1.66 0 0 1 1.658-1.658zm-2.778-1.764h15.113v8.417c-3.013-.526-4.597-4.76-6.489-4.76-2.016 0-4.69 4.76-6.132 4.76-1.225 0-1.342-1.26-2.493-1.83v-6.587z" class="B"/><rect x="73" y="37.55" width="18" height="2.5" rx="1.25"/><rect x="73" y="43.05" width="18" height="1.75" rx=".875"/><rect x="73" y="46.8" width="12.462" height="1.75" rx=".875"/></g><path d="M59.875 11.5a.5.5 0 0 1 .5-.5h.5a.5.5 0 0 1 .5.5v.5a.5.5 0 0 1-.5.5h-.5a.5.5 0 0 1-.5-.5v-.5zm-3.5 0a.5.5 0 0 1 .5-.5h1.5a.5.5 0 0 1 .5.5v.5a.5.5 0 0 1-.5.5h-1.5a.5.5 0 0 1-.5-.5v-.5zm-4.5 0a.5.5 0 0 1 .5-.5h2.5a.5.5 0 0 1 .5.5v.5a.5.5 0 0 1-.5.5h-2.5a.5.5 0 0 1-.5-.5v-.5z" fill="#718491" class="B"/><path d="M34.405 8.28a.75.75 0 0 0-1.061-1.061l-4 4a.75.75 0 0 0 0 1.061l4 4a.75.75 0 0 0 1.061-1.061l-2.72-2.72h18.189.75a.5.5 0 0 0 .5-.5v-.5a.5.5 0 0 0-.5-.5h-1-17.939l2.72-2.72z" fill="#718491"/><defs><clipPath id="A"><path fill="#fff" transform="translate(11 20)" d="M0 0h68v30H0z"/></clipPath></defs></svg>