<svg width="18" height="18" viewBox="0 0 138 138" fill="none" xmlns="http://www.w3.org/2000/svg">
<path d="M96.26 25.81L138 0L117.35 94.62L104.57 111.82H14.3L0 94.62L11.26 43.01L36.47 51.61L28.96 86.02H47.01L58.28 34.41H85.36L74.09 86.02H92.15L105.29 25.81H96.26Z" fill="#FF176B"/>
<path d="M28.72 138C33.4696 138 37.32 134.15 37.32 129.4C37.32 124.65 33.4696 120.8 28.72 120.8C23.9703 120.8 20.12 124.65 20.12 129.4C20.12 134.15 23.9703 138 28.72 138Z" fill="#FF176B"/>
<path d="M73.7899 138C78.5396 138 82.3899 134.15 82.3899 129.4C82.3899 124.65 78.5396 120.8 73.7899 120.8C69.0403 120.8 65.1899 124.65 65.1899 129.4C65.1899 134.15 69.0403 138 73.7899 138Z" fill="#FF176B"/>
</svg>
