<svg width="728" height="142" viewBox="0 0 728 142" fill="none" xmlns="http://www.w3.org/2000/svg">
<path d="M98.2573 27.81L139.996 2L119.347 96.62L106.567 113.82H16.2996L2 96.62L13.2597 45.01L38.469 53.61L30.9592 88.02H49.0087L60.2784 36.41H87.3576L76.0879 88.02H94.1474L107.287 27.81H98.2573Z" fill="#FF176B"/>
<path d="M30.7196 140C35.4693 140 39.3196 136.15 39.3196 131.4C39.3196 126.65 35.4693 122.8 30.7196 122.8C25.97 122.8 22.1196 126.65 22.1196 131.4C22.1196 136.15 25.97 140 30.7196 140Z" fill="#FF176B"/>
<path d="M75.7885 140C80.5381 140 84.3885 136.15 84.3885 131.4C84.3885 126.65 80.5381 122.8 75.7885 122.8C71.0388 122.8 67.1885 126.65 67.1885 131.4C67.1885 136.15 71.0388 140 75.7885 140Z" fill="#FF176B"/>
<path d="M189.155 113.54L165.855 28.3298H176.335L194.145 97.7298H194.975L213.114 28.3298H224.764L242.903 97.7298H243.733L261.543 28.3298H272.033L248.733 113.54H238.083L219.274 45.6398H218.604L199.795 113.54H189.145H189.155Z" fill="#070707"/>
<path d="M303.532 114.87C297.762 114.87 292.712 113.5 288.362 110.75C284.022 108 280.642 104.16 278.212 99.2198C275.782 94.2798 274.573 88.5098 274.573 81.9098C274.573 75.3098 275.782 69.4398 278.212 64.4798C280.642 59.5198 284.022 55.6598 288.362 52.9098C292.702 50.1598 297.762 48.7898 303.532 48.7898C309.302 48.7898 314.351 50.1598 318.701 52.9098C323.041 55.6598 326.421 59.5098 328.851 64.4798C331.281 69.4498 332.491 75.2598 332.491 81.9098C332.491 88.5598 331.281 94.2798 328.851 99.2198C326.421 104.16 323.041 108 318.701 110.75C314.361 113.5 309.302 114.87 303.532 114.87ZM303.532 106.05C307.912 106.05 311.521 104.93 314.351 102.68C317.181 100.43 319.271 97.4798 320.631 93.8198C321.991 90.1598 322.671 86.1898 322.671 81.9198C322.671 77.6498 321.991 73.6698 320.631 69.9798C319.271 66.2898 317.181 63.3098 314.351 61.0298C311.521 58.7598 307.912 57.6198 303.532 57.6198C299.152 57.6198 295.542 58.7598 292.712 61.0298C289.882 63.2998 287.792 66.2898 286.432 69.9798C285.072 73.6698 284.392 77.6498 284.392 81.9198C284.392 86.1898 285.072 90.1598 286.432 93.8198C287.792 97.4798 289.882 100.44 292.712 102.68C295.542 104.93 299.142 106.05 303.532 106.05Z" fill="#070707"/>
<path d="M357.05 113.54L337.581 49.6299H347.9L361.71 98.5599H362.38L376.03 49.6299H386.509L399.989 98.3899H400.659L414.468 49.6299H424.788L405.319 113.54H395.669L381.689 64.4399H380.689L366.71 113.54H357.06H357.05Z" fill="#070707"/>
<path d="M481.047 52.8399C480.717 49.4799 479.287 46.8799 476.757 45.0199C474.237 43.1599 470.807 42.2299 466.477 42.2299C463.537 42.2299 461.057 42.6399 459.027 43.4599C456.997 44.2799 455.457 45.4099 454.387 46.8499C453.318 48.2899 452.788 49.9299 452.788 51.7599C452.728 53.2899 453.058 54.6199 453.768 55.7499C454.478 56.8899 455.457 57.8699 456.697 58.6799C457.947 59.4999 459.387 60.2099 461.027 60.7999C462.667 61.3999 464.407 61.8999 466.267 62.3199L473.927 64.1499C477.647 64.9799 481.057 66.0899 484.167 67.4799C487.277 68.8699 489.967 70.5699 492.236 72.5999C494.506 74.6299 496.276 77.0099 497.536 79.7599C498.796 82.5099 499.446 85.6499 499.476 89.1999C499.446 94.4199 498.126 98.9299 495.506 102.74C492.886 106.55 489.117 109.51 484.187 111.6C479.267 113.69 473.337 114.74 466.397 114.74C459.457 114.74 453.538 113.69 448.448 111.58C443.358 109.47 439.388 106.35 436.548 102.2C433.708 98.0499 432.218 92.9099 432.078 86.7799H449.508C449.698 89.6399 450.528 92.0199 451.988 93.9199C453.448 95.8199 455.397 97.2499 457.857 98.2099C460.307 99.1699 463.097 99.6499 466.197 99.6499C469.297 99.6499 471.907 99.2099 474.167 98.3199C476.427 97.4299 478.187 96.1999 479.427 94.6199C480.677 93.0399 481.297 91.2199 481.297 89.1699C481.297 87.2599 480.737 85.6499 479.607 84.3399C478.477 83.0299 476.847 81.9299 474.697 81.0099C472.547 80.0899 469.917 79.2599 466.817 78.5099L457.537 76.1799C450.358 74.4299 444.678 71.6999 440.518 67.9799C436.358 64.2599 434.288 59.2599 434.318 52.9599C434.288 47.7999 435.668 43.2899 438.458 39.4399C441.248 35.5799 445.078 32.5799 449.958 30.4099C454.837 28.2499 460.387 27.1599 466.597 27.1599C472.807 27.1599 478.447 28.2399 483.177 30.4099C487.907 32.5699 491.586 35.5799 494.226 39.4399C496.856 43.2999 498.216 47.7599 498.306 52.8399H481.037H481.047Z" fill="#FF176B"/>
<path d="M544.065 49.6298V62.9398H505.576V49.6298H544.065ZM514.316 34.3198H532.045V93.8998C532.045 95.5398 532.295 96.8098 532.795 97.7098C533.295 98.6098 533.995 99.2398 534.895 99.5998C535.795 99.9598 536.845 100.14 538.035 100.14C538.865 100.14 539.695 100.06 540.535 99.9098C541.365 99.7598 542.005 99.6398 542.445 99.5598L545.235 112.75C544.345 113.03 543.095 113.35 541.485 113.73C539.875 114.1 537.925 114.33 535.615 114.42C531.345 114.59 527.605 114.02 524.405 112.71C521.205 111.41 518.716 109.38 516.936 106.64C515.156 103.9 514.286 100.43 514.316 96.2398V34.3298V34.3198Z" fill="#FF176B"/>
<path d="M580.554 114.79C574.094 114.79 568.504 113.41 563.804 110.65C559.104 107.89 555.475 104.03 552.925 99.0798C550.375 94.1298 549.095 88.3798 549.095 81.8298C549.095 75.2798 550.375 69.4498 552.925 64.4998C555.475 59.5498 559.104 55.6898 563.804 52.9298C568.504 50.1698 574.084 48.7898 580.554 48.7898C587.024 48.7898 592.594 50.1698 597.303 52.9298C602.003 55.6898 605.633 59.5498 608.183 64.4998C610.733 69.4498 612.013 75.2298 612.013 81.8298C612.013 88.4298 610.733 94.1298 608.183 99.0798C605.633 104.03 602.003 107.89 597.303 110.65C592.604 113.41 587.024 114.79 580.554 114.79ZM580.634 101.06C583.574 101.06 586.024 100.22 587.994 98.5398C589.964 96.8598 591.454 94.5698 592.464 91.6498C593.473 88.7298 593.983 85.4198 593.983 81.7098C593.983 77.9998 593.473 74.6798 592.464 71.7698C591.454 68.8598 589.964 66.5598 587.994 64.8598C586.024 63.1698 583.574 62.3198 580.634 62.3198C577.694 62.3198 575.174 63.1698 573.164 64.8598C571.154 66.5498 569.644 68.8498 568.624 71.7698C567.614 74.6798 567.104 77.9998 567.104 81.7098C567.104 85.4198 567.614 88.7398 568.624 91.6498C569.634 94.5598 571.144 96.8598 573.164 98.5398C575.174 100.22 577.664 101.06 580.634 101.06Z" fill="#FF176B"/>
<path d="M621.923 113.54V49.63H639.102V60.78H639.772C640.932 56.81 642.892 53.81 645.642 51.77C648.392 49.73 651.552 48.71 655.132 48.71C656.022 48.71 656.972 48.77 658.002 48.88C659.032 48.99 659.932 49.14 660.702 49.34V65.07C659.872 64.82 658.722 64.6 657.252 64.4C655.782 64.21 654.432 64.11 653.212 64.11C650.602 64.11 648.282 64.67 646.242 65.8C644.202 66.92 642.592 68.48 641.412 70.48C640.232 72.48 639.642 74.78 639.642 77.39V113.55H621.923V113.54Z" fill="#FF176B"/>
<path d="M696.651 114.79C690.081 114.79 684.421 113.45 679.701 110.77C674.971 108.09 671.331 104.29 668.782 99.3698C666.232 94.4498 664.952 88.6098 664.952 81.8698C664.952 75.1298 666.232 69.5298 668.782 64.5598C671.331 59.5998 674.931 55.7298 679.581 52.9498C684.231 50.1798 689.681 48.7898 695.951 48.7898C700.171 48.7898 704.101 49.4598 707.751 50.8098C711.4 52.1598 714.59 54.1698 717.32 56.8598C720.05 59.5498 722.18 62.9298 723.71 66.9898C725.23 71.0498 726 75.7998 726 81.2398V86.1098H672.041V75.1298H709.32C709.32 72.5798 708.76 70.3198 707.66 68.3498C706.551 66.3798 705.021 64.8298 703.061 63.7098C701.101 62.5898 698.841 62.0198 696.261 62.0198C693.681 62.0198 691.191 62.6398 689.121 63.8698C687.051 65.0998 685.441 66.7598 684.271 68.8198C683.111 70.8898 682.511 73.1798 682.481 75.7098V86.1498C682.481 89.3098 683.071 92.0398 684.251 94.3498C685.431 96.6498 687.101 98.4298 689.261 99.6798C691.421 100.93 693.991 101.55 696.961 101.55C698.931 101.55 700.731 101.27 702.371 100.72C704.011 100.17 705.411 99.3298 706.571 98.2198C707.731 97.1098 708.62 95.7498 709.23 94.1398L725.62 95.2198C724.79 99.1598 723.09 102.59 720.52 105.52C717.95 108.45 714.65 110.72 710.62 112.34C706.581 113.96 701.931 114.77 696.661 114.77L696.651 114.79Z" fill="#FF176B"/>
</svg>
