<svg xmlns="http://www.w3.org/2000/svg" xmlns:xlink="http://www.w3.org/1999/xlink" viewBox="0 0 300 350" style="enable-background:new 0 0 300 350" xml:space="preserve"><path class="st0" d="M218 48v248a10 10 0 0 1-5 9l-5 1H10c-6 0-10-4-10-10V48c0-5 4-10 10-10h198c5 0 10 5 10 10z"/><path class="st1" d="M20 286 13 52h192v241l-185-7z"/><path class="st2" d="M64 47s-2 11-5 4c-6-11-4-13-4-13h7l2 9z"/><path class="st0" d="M126 25a18 18 0 0 0-34-14c-2 5-2 10 0 14 1 3 0 5-2 6l-2 1H73c-8 0-14 6-14 14v5c0 3 2 6 5 6h90c3 0 5-2 5-6v-5c0-8-6-14-14-14h-15c-3 0-5-2-5-5l1-2z"/><path class="st1" d="M154 53H64l-1-1 1-1h89v-5c0-5-3-9-8-9h-1l1-1c6 0 10 4 10 10v6l-1 1z"/><circle class="st1" cx="108.9" cy="15.5" r="4.4"/><path class="st3" d="M109 171H30l-1-22-2-50h80v15l2 57zM192 123h-3v-1h2l-1-2h2v3zM184 123h-5v-1h5v1zm-10 0h-5v-1h5v1zm-10 0h-5v-1h5v1zm-10 0h-5v-1h5v1zm-10 0h-5v-1h5v1zm-10 0h-5v-1h5v1zm-10 0h-5v-1h5v1zM114 123h-3v-3h1l1 2h1v1zM110 108h2v6h-2zM110 102v-4h3v2h-2l1 1h-2zM183 100h-5v-2h5v2zm-10 0h-5v-2h5v2zm-10 0h-5v-2h5v2zm-10 0h-5v-2h5v2zm-10 0h-5v-2h5v2zm-10 0h-5v-2h5v2zm-10 0h-5v-2h5v2zM189 102v-2h-1v-2h3v3h-2zM190 108h1v6h-1zM192 171h-78l-2-45h80v45z"/><path class="st2" d="m13 52-1 241h193l-185-7-7-234z"/><circle cx="21" cy="58.6" r="2.3" style="fill:#ff8080"/><circle cx="28.3" cy="58.6" r="2.3" style="fill:#ffbf40"/><circle cx="35.2" cy="58.6" r="2.3" style="fill:#52dd91"/><path d="M37 87H14V65h22l1 22z" style="fill:#4874ff"/><path d="M205 65v21L37 87l-1-22h168z" style="fill:#f2f2f2"/><path class="st1" d="M18 76c0-4 3-7 7-7s7 3 7 7-3 7-7 7-7-3-7-7zm10 5h2l2-5-1-3v2l-3 6zm0-1 1-1v-8h1c-3-2-7-2-9 0l-1 1h2v1h-1l3 6 1-3-1-3h-1v-1h4v1h-1l2 6zm-3-3-2 5h4l-1-4-1-1zm-3 5-3-9c-1 3 0 7 3 9z"/><g class="st9"><path class="st1" d="M109 171H30l-1-22c2-5 5-9 8-12 3-4 9-8 14-6s7 7 12 8c4 1 8-2 10-6l5-11c4-7 12-12 21-11 3 0 6 1 8 3l2 57z"/></g><g class="st9"><circle class="st1" cx="58.6" cy="117" r="7.5"/></g><g style="opacity:.63"><defs><path id="a" d="M129 76v-3l-1-1h-3l-1-1h-3l-1 1v3l1 1v3h4v1h4l1-1v-2l-1-1z"/></defs><clipPath id="b"><use xlink:href="#a" style="overflow:visible"/></clipPath><g style="clip-path:url(#b)"><image style="overflow:visible;opacity:.2;enable-background:new" width="281" height="281" xlink:href="947E3AE4757652F.png" transform="translate(120 70) scale(.02411)"/><path d="M121 71h3l1 1v3l-1 1h-3l-1-1v-3l1-1z" style="fill:#037fff"/><image style="overflow:visible;opacity:.2;enable-background:new" width="281" height="282" xlink:href="947E3AE4757652D.png" transform="translate(123 71) scale(.02411)"/><path d="M125 72h3l1 1v3l-1 1h-3l-1-1v-3l1-1z" style="fill:#3babff"/><image style="overflow:visible;opacity:.2;enable-background:new" width="282" height="281" xlink:href="947E3AE47576533.png" transform="translate(124 74) scale(.02411)"/><path d="M126 76h3l1 1v3h-4l-1-1v-2l1-1z" style="fill:#69c6ff"/><image style="overflow:visible;opacity:.2;enable-background:new" width="282" height="282" xlink:href="947E3AE47576535.png" transform="translate(121 73) scale(.02411)"/><path d="M122 75h3l1 1v3l-1 1h-3l-1-1v-3l1-1z" style="fill:#71deff"/></g></g><path class="st1" d="M150 79h-15v-7h15v7zM170 79h-15v-7h15v7z"/><path class="st0" d="M197 79h-22v-7h22v7zM48 79h-5l-1-1v-5h6l1 5-1 1zM60 79h-5l-1-1v-5h6l1 5-1 1zM72 79h-5l-1-1v-5h6l1 5-1 1zM84 79h-5l-1-1v-5h6l1 5-1 1z"/><path class="st2" d="m208 265-4 11v1l-1 2-3 12v2l-4 13v2l-1-2h-21l-5-13v-1c-1-3 0-5 1-7l3-4 2-5-4-25-4-8-41-52 11-3 58 39 3 10 7 19 3 9z" style="opacity:.24"/><path class="st17" d="M254 155v62l1 7 8 28-65 30-17-39-5-6-49-45-1-1 18-26 6 10c2 3 6 5 10 4l10-3c5-2 8-7 6-12l-8-24c-1-3-4-6-8-5h-5l-24-8-3-7 43-3h1l4 3 2-1 1-3 1-1h12l2 2h2v-1l1-2h14l1 1 6 6h2l1-1 5-1c3-1 6 0 8 2l9 9c7 6 11 16 11 25z"/><path class="st18" d="M207 162h-1l-4-13-26-29 1-1 27 29 3 14zM229 157h-2l-2-7-30-33 2-1 30 33 2 8z"/><g style="opacity:.55"><path d="m245 197-5 10c-1 1-3 2-4 1l-61-36c2-2 2-4 2-6l5-1 62 28c1 0 2 2 1 4z" style="fill:#efa16c"/></g><path class="st18" d="m236 143-3-7-16-15 1-2 16 16 4 7-2 1z"/><path d="m99 116-8 20h-1l-11-11 2-8 15-1h3z" style="fill:#ffc586"/><path d="m237 169-3 11c-1 2-4 4-7 3l-5-2-5-1-124-43h-2l8-21h1l124 43 4 2 6 1c2 1 4 4 3 7z" style="fill:#3623c1"/><path d="m81 117-2 8-7-7v-1h9z" style="fill:#232323"/><path class="st24" d="m93 130 141 48"/><path class="st1" d="m93 130 1-1 140 49v1z"/><path class="st24" d="m96 123 140 48"/><path class="st1" d="M96 123v-1l140 48v1z"/><path class="st1" d="m228 161-6 20-5-2 6-20 5 2z"/><path d="m237 169-3 11c-1 2-4 4-7 3l-5-2 6-20 6 2c2 0 4 3 3 6z" style="fill:#e04e4d"/><path class="st17" d="m144 165-18 26c-3-3-5-7-6-12l-6-46h5c4 0 7 2 8 5l17 27zM158 112zM155 135h-9c-6 1-12-3-15-8l24 8z"/><path class="st1" d="M116 135s5-1 6 2l2 7-2 2-5 1-1-12zM133 121l1 3 3 2h3c2 0 3-2 3-4v-1h-10z"/><path class="st17" d="M159 160s-3 10 0 14 10-4 11-11l-11-3z"/><path class="st2" d="m296 315-11 5-2 1-15 7-2 1-16 7-2 1-16 7-2 1-10 4c-3 2-7 0-9-3l-16-38v-2l-5-11 5-2v-1l5-2 4-2h2l1-1 11-5 3-1 2-1 16-7 2-1 15-7 2-1 16-7 25 49c2 3 1 7-3 9z"/><path class="st1" d="m274 257-84 38-2-5c-1-2 1-5 3-7l74-34c2-1 5 0 7 3l2 5z"/><path class="st1" d="m250 336-1 1-27-56-1-2h2l1 1 26 56zM268 328l-2 1-27-56 2-1 27 56zM285 320l-2 1-26-56 1-1 27 56zM232 344l-1 1-26-57 2-1 25 57z"/><path class="st26" d="M40 226h-1l-1-1h-3l-1 1v2l1 1 1 1h1l1 1h2v1l1 2-1 2-1 1-1 1h-5l-2-2 1-1h1v1h1l1 1h2l1-1 1-1v-2l-1-1h-3l-1-1-1-1-1-1v-3l1-1 2-1a6 6 0 0 1 4 0l1 1v1zM54 226h-5v13h-2v-13h-5v-2h11l1 2zM67 239h-3l-1-4h-7l-1 3v1h-2l5-15h3l6 15zm-5-5-2-6v-1l-1-1v1l-2 6 5 1zM79 239h-2l-4-5-1-1h-2v6h-2v-14h7l1 1 1 1 1 2v1l-1 1-1 1-2 1h1l4 6zm-7-7 2-1h1l1-1v-1l-1-2-3-1h-2v6h2zM90 227h-4v12h-2v-12l-5-1v-1h11v2zM99 227v5h6v2l-6-1v7h-2v-15h9v2h-7zM120 240h-3l-3-5-1-1h-2v6h-2v-14h6l2 1 1 1 1 2-1 1v1l-1 1-2 1h1l4 6zm-7-7 2-1h1v-4l-3-1h-2v6h2zM135 233v3l-2 3-2 1-3 1-3-1-2-2-2-2v-6l2-2 2-2h6l2 2 2 2v3zm-2 0v-2l-1-2-2-1h-4l-2 1-1 2v5l1 1 2 2h4l2-1 1-2v-3zM153 226v15h-1v-12l-5 9-1 1-1-1-5-9v12h-2v-15h2l6 10v1-1l5-9 1-1h1z"/><path class="st27" d="m43 251-1 1h-1l-1-1h-4l-1 2 1 1h1l1 1 2 1h1l2 1 1 2 1 2-1 3a6 6 0 0 1-4 3 11 11 0 0 1-5 1l-1-1-2-1-2-1 2-2v-1h1l1 1h1l1 1h4v-3l-1-1-2-1h-1l-2-1-1-1-2-2a7 7 0 0 1 0-4l2-2 2-1 3-1h2l1 1 2 1h1l-1 2zM61 263h1l2 2-3 2-5 1a10 10 0 0 1-7-3l-2-3-1-5 1-4 2-3a10 10 0 0 1 7-3l4 1 2 1 1 1-2 2v1h-1l-1-1-1-1h-2a5 5 0 0 0-4 2l-1 2-1 2 1 3 1 2a5 5 0 0 0 4 2h2l1-1h2zM82 268h-4l-2-1-3-6h-3v7h-4l-1-20h11l2 2 2 2a7 7 0 0 1 0 4l-1 1-1 2-2 1h1l1 1 4 7zm-10-11h2l1-1v-2l-1-2-2-1h-2v6h2zM103 269h-3l-1-1h-1l-1-4h-8l-1 3-1 1h-4l7-20h5l8 21zm-7-8-2-6-1-1v-2l-1 2v1l-2 6h5zM117 253l-6-1v17h-4l-1-17h-5v-3h16v4zM133 264v1l2 2-3 2-4 1a10 10 0 0 1-8-3l-2-4-1-4 1-4 2-3a10 10 0 0 1 10-3l2 1 1 1 1 1-1 2h-2c-1 0 0 0 0 0h-1v-1h-3a5 5 0 0 0-3 1l-2 2v3l1 3 1 2 4 2h2l1-1h1v-1h1zM154 250l1 20h-5v-9h-8v9h-5l-1-21h5v9h9v-8h4z"/></svg>