<svg xmlns="http://www.w3.org/2000/svg" viewBox="-60 0 180 32.2" xml:space="preserve" style="enable-background:new 0 0 80 32.2"><linearGradient id="a" gradientUnits="userSpaceOnUse" x1="40" y1="-.555" x2="40" y2="31.734"><stop offset="0" style="stop-color:#989898"/><stop offset="1" style="stop-color:#4d4d4d"/></linearGradient><path d="M53 15.7c-.2-.2-.5-.3-.8-.3-.4 0-.6.1-.9.4-.2.2-.4.6-.4 1h2.4v-.1c.1-.5-.1-.8-.3-1zm0 0c-.2-.2-.5-.3-.8-.3-.4 0-.6.1-.9.4-.2.2-.4.6-.4 1h2.4v-.1c.1-.5-.1-.8-.3-1zM77.2 0H2.8C1.3 0 0 1.3 0 2.8v26.6c0 1.6 1.3 2.8 2.8 2.8h74.4c1.6 0 2.8-1.3 2.8-2.8V2.8C80 1.3 78.7 0 77.2 0zM17.8 18.5c.3.4.7.6 1.3.6.5 0 .9-.1 1.2-.4.3-.2.4-.6.5-1.2H22c-.1.8-.4 1.4-.9 1.9s-1.2.7-2.1.7c-.6 0-1.1-.1-1.6-.4-.5-.3-.8-.7-1.1-1.2-.2-.5-.3-1.1-.3-1.8V16c0-.7.1-1.3.4-1.9.3-.5.6-1 1.1-1.3.5-.3 1-.5 1.6-.5.8 0 1.5.2 2 .7.5.5.8 1.1.9 1.9h-1.3c-.1-.5-.2-.9-.5-1.2-.3-.2-.6-.4-1.1-.4-.6 0-1 .2-1.3.6-.3.4-.5 1-.5 1.8v.7c0 1 .2 1.6.5 2.1zm6.6 1.6h-1.3v-8h1.3v8zm2.7 0h-1.3v-5.6h1.3v5.6zm-.1-6.7c-.1.1-.3.2-.5.2s-.4-.1-.5-.2c-.1-.1-.2-.3-.2-.5s.1-.4.2-.5c.1-.1.3-.2.5-.2s.4.1.5.2c.1.1.2.3.2.5s0 .4-.2.5zm2.9 5.3c.2.3.5.5 1 .5.3 0 .6-.1.8-.3.2-.2.3-.4.3-.7h1.2c0 .4-.1.7-.3 1-.2.3-.5.6-.8.7-.4.2-.7.3-1.1.3-.8 0-1.4-.3-1.9-.8s-.7-1.2-.7-2.1v-.1c0-.9.2-1.5.7-2.1.5-.5 1.1-.8 1.9-.8.7 0 1.2.2 1.6.6.4.4.7.9.7 1.5h-1.2c0-.3-.1-.6-.3-.8-.2-.2-.5-.3-.8-.3-.4 0-.7.2-1 .4-.2.3-.3.8-.3 1.4v.2c-.2.6 0 1.1.2 1.4zm7.7 1.4-1.7-2.4-.6.6v1.8H34v-8h1.3v4.6l.4-.5 1.6-1.8h1.5l-2.1 2.3L39 20h-1.4zm10.9 0h-1.3v-3.4h-3.4v3.4h-1.3v-7.6h1.3v3.1h3.4v-3.1h1.3v7.6zm6.1-2.5H51c0 .5.2.8.5 1.1.3.3.6.4 1 .4.6 0 1.1-.2 1.4-.7l.7.7c-.2.3-.5.6-.9.8-.4.2-.8.3-1.3.3-.8 0-1.5-.3-2-.8s-.8-1.2-.8-2v-.2c0-.6.1-1.1.3-1.5.2-.5.5-.8.9-1 .4-.2.8-.4 1.3-.4.8 0 1.4.2 1.8.7.4.5.6 1.2.6 2.1v.5zm4-2h-.5c-.6 0-1 .2-1.2.7v3.9h-1.3v-5.6h1.2v.6c.3-.5.7-.7 1.3-.7.2 0 .3 0 .5.1v1zm5.4 2h-3.7c0 .5.2.8.5 1.1.3.3.6.4 1 .4.6 0 1.1-.2 1.4-.7l.7.7c-.2.3-.5.6-.9.8-.4.2-.8.3-1.3.3-.8 0-1.5-.3-2-.8s-.8-1.2-.8-2v-.2c0-.6.1-1.1.3-1.5.2-.5.5-.8.9-1 .4-.2.8-.4 1.3-.4.8 0 1.4.2 1.8.7.4.5.6 1.2.6 2.1v.5zm-2.4-2.3c-.4 0-.6.1-.9.4-.2.2-.3.6-.4 1h2.4v-.1c0-.4-.1-.7-.3-1-.2-.2-.4-.3-.8-.3zm-9.4 0c-.4 0-.6.1-.9.4-.2.2-.4.6-.4 1h2.4v-.1c0-.4-.1-.7-.3-1-.2-.2-.4-.3-.8-.3zm.8.4c-.2-.2-.5-.3-.8-.3-.4 0-.6.1-.9.4-.2.2-.4.6-.4 1h2.4v-.1c.1-.5-.1-.8-.3-1zm0 0c-.2-.2-.5-.3-.8-.3-.4 0-.6.1-.9.4-.2.2-.4.6-.4 1h2.4v-.1c.1-.5-.1-.8-.3-1z" style="fill:url(#a)"/></svg>