<svg width="25" height="25" viewBox="0 0 25 25" fill="none" xmlns="http://www.w3.org/2000/svg">
<g clip-path="url(#clip0_92_872)">
<path d="M13.2305 25H11.7656C11.6857 24.9844 11.6078 24.9669 11.5279 24.9553C10.9825 24.8775 10.4293 24.8328 9.88972 24.7162C6.97381 24.1161 4.37807 22.4735 2.59075 20.0972C0.618762 17.5911 -0.290373 14.4135 0.0584101 11.2461C0.294813 8.65717 1.36112 6.21324 3.09916 4.27683C4.96401 2.11573 7.52614 0.671905 10.3436 0.194401C10.815 0.110809 11.2981 0.0641524 11.7656 0H13.2305C13.2944 0.0177368 13.3595 0.0313727 13.4252 0.0408243C15.3564 0.161919 17.2287 0.751844 18.8795 1.75933C22.1112 3.74417 24.1039 6.60964 24.8052 10.3499C24.8928 10.8184 24.9357 11.2947 25 11.7671V13.2329C24.9785 13.4079 24.9591 13.5828 24.9396 13.7597C24.6775 16.3922 23.577 18.8715 21.7995 20.834C19.9431 22.9365 17.4192 24.3386 14.6505 24.8056C14.1811 24.8834 13.7038 24.9358 13.2305 25ZM23.0579 12.5233C23.062 9.72836 21.9561 7.04565 19.9824 5.06276C18.0086 3.07986 15.3278 1.95841 12.5272 1.94401C6.73404 1.90319 1.98493 6.62325 1.94792 12.465C1.89338 18.2737 6.64248 23.0346 12.4805 23.0579C18.2854 23.0813 23.0267 18.3593 23.0579 12.5233Z" fill="#0B57D0"/>
<path d="M11.526 11.4405V11.1489C11.526 9.98246 11.526 8.81606 11.526 7.64965C11.5079 7.42413 11.5693 7.19939 11.6994 7.01415C11.8296 6.82892 12.0204 6.69479 12.239 6.63487C12.8876 6.46186 13.4623 6.92648 13.4662 7.64187C13.4662 8.80828 13.4662 9.97469 13.4662 11.1314V11.4327H17.2062C17.738 11.4327 18.1003 11.664 18.2464 12.082C18.2973 12.2301 18.3116 12.3882 18.288 12.5429C18.2645 12.6977 18.2039 12.8445 18.1113 12.9708C18.0188 13.0972 17.897 13.1994 17.7564 13.2687C17.6158 13.338 17.4604 13.3724 17.3036 13.3689C16.1232 13.3689 14.9447 13.3689 13.7642 13.3689H13.4701V13.643C13.4701 14.8094 13.4701 15.9856 13.4701 17.1559C13.4701 17.7585 13.0805 18.1862 12.5389 18.2037C11.9546 18.2231 11.5319 17.7954 11.528 17.1656C11.528 16.1936 11.528 15.2216 11.528 14.2379V13.3806H11.2611C10.0573 13.3806 8.85343 13.3806 7.64959 13.3806C7.4218 13.3796 7.20174 13.298 7.02857 13.1503C6.85539 13.0026 6.74034 12.7984 6.70388 12.574C6.66741 12.3496 6.7119 12.1195 6.82943 11.9248C6.94696 11.7301 7.1299 11.5832 7.34571 11.5105C7.50987 11.4647 7.67983 11.4431 7.85023 11.4463C8.96446 11.4463 10.0787 11.4463 11.1949 11.4463L11.526 11.4405Z" fill="#0B57D0"/>
</g>
<defs>
<clipPath id="clip0_92_872">
<rect width="25" height="25" fill="white"/>
</clipPath>
</defs>
</svg>
