<svg width="16" height="18" viewBox="0 0 16 18" fill="none" xmlns="http://www.w3.org/2000/svg">
<g clip-path="url(#clip0_522_393)">
<path d="M4.00385 3.22411C4.57492 3.35025 5.1069 3.46251 5.64267 3.57982C5.95909 3.6492 6.1192 3.81444 6.12676 4.07176C6.13143 4.14906 6.11775 4.22637 6.08684 4.29736C6.05592 4.36835 6.00866 4.43102 5.9489 4.48023C5.88914 4.52944 5.81859 4.5638 5.74302 4.5805C5.66745 4.5972 5.589 4.59577 5.51409 4.57632C4.69468 4.39972 3.88031 4.2143 3.06593 4.03644C2.91088 4.00239 2.75456 3.97085 2.5995 3.93301C2.52957 3.92105 2.46295 3.89447 2.40399 3.85499C2.34503 3.81551 2.29506 3.76403 2.25735 3.70391C2.21963 3.64379 2.19502 3.57639 2.18511 3.5061C2.17521 3.43581 2.18024 3.36422 2.19988 3.29601C2.40914 2.34072 2.62135 1.38711 2.8365 0.435182C2.90709 0.118574 3.15796 -0.0529747 3.44034 0.0138788C3.72273 0.0807324 3.87778 0.336794 3.80845 0.652141C3.68238 1.22103 3.55632 1.78739 3.43026 2.35501C3.82484 2.13806 4.20555 1.9047 4.60643 1.71297C8.61778 -0.206864 13.528 1.62215 15.2941 5.71661C16.353 8.17001 16.2081 10.5856 14.9273 12.9305C14.7873 13.1828 14.5819 13.2887 14.3385 13.2345C14.2629 13.2144 14.193 13.177 14.1344 13.1252C14.0757 13.0734 14.0299 13.0087 14.0005 12.9361C13.9712 12.8635 13.9591 12.7851 13.9652 12.7071C13.9714 12.6291 13.9956 12.5535 14.036 12.4865C14.3485 11.9361 14.59 11.3482 14.7546 10.7369C15.0028 9.79537 15.0519 8.81232 14.8988 7.85068C14.7456 6.88903 14.3935 5.96997 13.865 5.15228C13.3365 4.3346 12.6432 3.6363 11.8295 3.10207C11.0159 2.56783 10.0997 2.20942 9.13968 2.04976C7.36597 1.75333 5.72462 2.11535 4.21185 3.08157C4.15134 3.11941 4.09335 3.1623 4.00385 3.22411Z" fill="#686868"/>
<path d="M11.9032 14.7582L10.3223 14.3798C10.2631 14.3659 10.2026 14.3546 10.1446 14.3357C10.0187 14.3008 9.91169 14.2177 9.84676 14.1043C9.78184 13.9909 9.76429 13.8565 9.79792 13.7302C9.81296 13.6671 9.8404 13.6077 9.87865 13.5553C9.9169 13.503 9.96519 13.4588 10.0207 13.4253C10.0762 13.3918 10.1378 13.3698 10.202 13.3604C10.2661 13.351 10.3314 13.3545 10.3942 13.3707C11.3674 13.6011 12.3394 13.8357 13.3101 14.0746C13.6454 14.1566 13.7891 14.3899 13.7097 14.7267C13.484 15.6828 13.2508 16.6377 13.0163 17.5913C13.0062 17.6608 12.9817 17.7274 12.9444 17.7869C12.907 17.8464 12.8577 17.8974 12.7995 17.9367C12.7413 17.976 12.6756 18.0027 12.6065 18.0151C12.5375 18.0275 12.4665 18.0254 12.3983 18.0088C12.3301 17.9922 12.2661 17.9616 12.2104 17.9189C12.1547 17.8761 12.1086 17.8222 12.0749 17.7606C12.0412 17.699 12.0208 17.631 12.0149 17.561C12.009 17.491 12.0177 17.4206 12.0406 17.3542C12.1604 16.8395 12.2852 16.3274 12.4062 15.8128C12.42 15.7547 12.4327 15.6954 12.4528 15.6021C12.3759 15.6475 12.3268 15.6753 12.2776 15.7055C7.5313 18.7455 1.16256 15.9755 0.141449 10.4266C-0.22408 8.52307 0.120845 6.55148 1.11088 4.88535C1.22812 4.68101 1.39074 4.55487 1.63278 4.58262C2.01097 4.62299 2.17359 5.00014 2.00089 5.34955C1.77446 5.77096 1.57365 6.20567 1.39956 6.6513C1.06455 7.60547 0.940481 8.62102 1.03591 9.62784C1.13134 10.6347 1.444 11.6088 1.9523 12.4829C2.46061 13.357 3.15245 14.1104 3.98006 14.691C4.80767 15.2715 5.75134 15.6654 6.74592 15.8456C8.43666 16.1715 10.188 15.8443 11.6473 14.9298C11.7242 14.8844 11.7897 14.8377 11.9032 14.7582Z" fill="#686868"/>
</g>
<defs>
<clipPath id="clip0_522_393">
<rect width="16" height="18" fill="white"/>
</clipPath>
</defs>
</svg>
