<svg width="12" height="14" viewBox="0 0 12 14" fill="none" xmlns="http://www.w3.org/2000/svg">
<g clip-path="url(#clip0_133_1103)">
<path d="M0 1.89952C0.145008 1.51759 0.258574 1.43796 0.656994 1.43796C3.142 1.43796 5.62684 1.43944 8.11153 1.44239C8.26076 1.44239 8.31614 1.39323 8.36682 1.25019C8.69485 0.346746 9.63247 -0.16642 10.5443 0.0488736C11.4312 0.256794 12.0605 1.14943 11.9948 2.1035C11.9658 2.55628 11.7883 2.98466 11.4925 3.31621C11.1967 3.64776 10.8007 3.86215 10.3713 3.92313C9.94202 3.98411 9.50576 3.88794 9.13633 3.65087C8.7669 3.41381 8.48696 3.0504 8.34383 2.62208C8.30816 2.51492 8.25279 2.50165 8.16081 2.50165C5.65797 2.50362 3.15514 2.50362 0.652301 2.50165C0.255758 2.50313 0.140784 2.42055 0 2.03666V1.89952ZM10.9751 1.98996C10.9782 1.81376 10.9316 1.64051 10.841 1.49197C10.7505 1.34343 10.6201 1.22621 10.4662 1.15501C10.3123 1.08382 10.1417 1.06183 9.9759 1.0918C9.8101 1.12177 9.65644 1.20236 9.53421 1.32347C9.41198 1.44458 9.32662 1.6008 9.28885 1.77253C9.25108 1.94427 9.26258 2.12386 9.3219 2.28878C9.38122 2.45369 9.48572 2.59658 9.62229 2.69952C9.75886 2.80245 9.92142 2.86084 10.0896 2.86736C10.203 2.87209 10.3163 2.853 10.4226 2.81121C10.529 2.76943 10.6263 2.70579 10.7088 2.62403C10.7913 2.54228 10.8573 2.44407 10.9031 2.33518C10.9488 2.22628 10.9733 2.10891 10.9751 1.98996Z" fill="#464646"/>
<path d="M0 11.9603C0.140784 11.5769 0.255758 11.4933 0.654179 11.4933C1.78765 11.4933 2.92112 11.4933 4.05459 11.4933C4.14845 11.4933 4.19538 11.4702 4.23198 11.3665C4.36222 10.9825 4.60299 10.6504 4.92107 10.4157C5.23915 10.1811 5.61889 10.0557 6.00792 10.0566C6.39695 10.0576 6.77611 10.185 7.09312 10.4212C7.41013 10.6574 7.64938 10.9907 7.77787 11.3754C7.81072 11.4737 7.86047 11.4928 7.94916 11.4928C9.11736 11.4905 10.2857 11.4905 11.4542 11.4928C11.8297 11.4928 12.0643 11.7961 11.9817 12.1608C11.9273 12.3992 11.7259 12.5565 11.4655 12.557C10.7813 12.557 10.0966 12.557 9.41238 12.557C8.9431 12.557 8.47053 12.5624 7.99984 12.5531C7.86563 12.5506 7.80791 12.5909 7.75863 12.7271C7.65958 12.9999 7.50379 13.2462 7.30256 13.4481C7.10133 13.65 6.85972 13.8024 6.59524 13.8943C6.33077 13.9862 6.05008 14.0153 5.77354 13.9795C5.49699 13.9436 5.23154 13.8437 4.99644 13.6871C4.64473 13.4591 4.37772 13.1123 4.23949 12.704C4.20242 12.5934 4.14986 12.5565 4.03301 12.5565C2.90673 12.5619 1.78374 12.56 0.658871 12.5595C0.258574 12.5595 0.145008 12.4798 0.00187713 12.0984L0 11.9603ZM6.86043 12.0296C6.86126 11.8522 6.81185 11.6786 6.71845 11.5307C6.62505 11.3827 6.49185 11.2671 6.33571 11.1985C6.17957 11.1298 6.0075 11.1112 5.84128 11.1451C5.67505 11.1789 5.52213 11.2636 5.40187 11.3884C5.28161 11.5133 5.19941 11.6727 5.16566 11.8465C5.13192 12.0203 5.14816 12.2007 5.21231 12.3649C5.27647 12.529 5.38566 12.6695 5.52608 12.7687C5.66651 12.8678 5.83184 12.9211 6.00117 12.9217C6.22765 12.9214 6.44487 12.8275 6.60571 12.6605C6.76656 12.4935 6.85808 12.2668 6.86043 12.0296Z" fill="#464646"/>
<path d="M0 6.86173C0.0122013 6.79045 0.0248719 6.71869 0.0370732 6.64742C0.11127 6.22418 0.315213 5.83784 0.617973 5.54697C0.920734 5.25611 1.30579 5.0766 1.71476 5.03566C2.57823 4.95947 3.37179 5.48247 3.65195 6.32398C3.69231 6.44441 3.74581 6.47144 3.85843 6.47144C6.36534 6.46849 8.87239 6.46849 11.3796 6.47144C11.445 6.46896 11.5104 6.47192 11.5753 6.48029C11.6971 6.50057 11.8076 6.56688 11.8859 6.66668C11.9642 6.76648 12.0048 6.89287 12.0002 7.02195C11.9956 7.15103 11.946 7.27387 11.8608 7.36725C11.7756 7.46063 11.6607 7.51808 11.5378 7.52874C11.4772 7.53464 11.4157 7.53366 11.3547 7.53366C8.86942 7.53366 6.38411 7.53251 3.89879 7.53022C3.75801 7.53022 3.68996 7.56413 3.6374 7.71356C3.48734 8.12184 3.21156 8.46603 2.85372 8.69165C2.49588 8.91728 2.07642 9.01146 1.66172 8.95928C1.24703 8.9071 0.860794 8.71154 0.564153 8.40356C0.267511 8.09558 0.0774084 7.69277 0.0239334 7.25889C0.0181325 7.21749 0.0101425 7.17647 0 7.136L0 6.86173ZM2.74295 7.00034C2.7423 6.82343 2.69162 6.6507 2.5973 6.50394C2.50299 6.35719 2.36927 6.243 2.21304 6.17579C2.0568 6.10859 1.88506 6.09138 1.7195 6.12635C1.55393 6.16131 1.40197 6.24688 1.28281 6.37224C1.16364 6.49761 1.08261 6.65715 1.04996 6.83072C1.0173 7.00429 1.03448 7.1841 1.09933 7.34745C1.16418 7.51079 1.27378 7.65035 1.4143 7.7485C1.55483 7.84664 1.71996 7.89897 1.88886 7.89887C2.11572 7.89783 2.33296 7.80271 2.49302 7.63431C2.65309 7.46592 2.74295 7.23797 2.74295 7.00034Z" fill="#464646"/>
</g>
<defs>
<clipPath id="clip0_133_1103">
<rect width="12" height="14" fill="white"/>
</clipPath>
</defs>
</svg>
