<svg width="21" height="12" viewBox="0 0 21 12" fill="none" xmlns="http://www.w3.org/2000/svg">
<g clip-path="url(#clip0_87_608)">
<path d="M20.8825 5.61117L19.0602 3.74998L16.17 0.798138L15.5067 0.120666C15.4291 0.0433049 15.325 0 15.2165 0C15.1081 0 15.0039 0.0433049 14.9263 0.120666C14.8511 0.200001 14.809 0.306131 14.809 0.416595C14.809 0.527059 14.8511 0.633189 14.9263 0.712524L16.7486 2.57371L19.636 5.52276L19.6451 5.53207H1.22275C0.963077 5.53207 0.703402 5.53207 0.443726 5.53207H0.410014C0.301271 5.53207 0.196983 5.57619 0.12009 5.65472C0.0431978 5.73325 0 5.83977 0 5.95083C0 6.0619 0.0431978 6.16841 0.12009 6.24695C0.196983 6.32548 0.301271 6.3696 0.410014 6.3696H19.5568L18.426 7.52726L16.8215 9.1651L15.4275 10.5889C15.2033 10.8188 14.9719 11.0421 14.7541 11.2775L14.7441 11.2878C14.706 11.3267 14.6759 11.3729 14.6553 11.4237C14.6347 11.4746 14.6242 11.529 14.6242 11.584C14.6243 11.639 14.6349 11.6935 14.6556 11.7443C14.6762 11.7951 14.7064 11.8412 14.7446 11.8801C14.7827 11.919 14.8279 11.9498 14.8777 11.9708C14.9274 11.9918 14.9808 12.0026 15.0346 12.0025C15.0885 12.0025 15.1418 11.9916 15.1915 11.9705C15.2413 11.9495 15.2864 11.9186 15.3245 11.8796L15.8757 11.3213L17.2005 9.9682L18.8041 8.32943L20.1982 6.90562C20.4232 6.6767 20.6538 6.45335 20.8724 6.21791L20.8825 6.20768C20.9591 6.12813 21.002 6.02101 21.002 5.90942C21.002 5.79783 20.9591 5.69071 20.8825 5.61117Z" fill="#0B57D0"/>
</g>
<defs>
<clipPath id="clip0_87_608">
<rect width="21" height="12" fill="white"/>
</clipPath>
</defs>
</svg>
