<svg width="21" height="12" viewBox="0 0 21 12" fill="none" xmlns="http://www.w3.org/2000/svg">
<g clip-path="url(#clip0_87_744)">
<path d="M0.117517 5.61108L1.9398 3.7499L4.82903 0.798054L5.49326 0.120582C5.57071 0.0432796 5.6747 0 5.783 0C5.89129 0 5.99529 0.0432796 6.07274 0.120582C6.148 0.199917 6.19008 0.306047 6.19008 0.416511C6.19008 0.526975 6.148 0.633105 6.07274 0.71244L4.25046 2.57363L1.36123 5.52547L1.35211 5.53477H19.7772C20.0369 5.53477 20.2966 5.53477 20.5553 5.53477H20.5918C20.7005 5.53477 20.8048 5.57889 20.8817 5.65743C20.9586 5.73596 21.0018 5.84248 21.0018 5.95354C21.0018 6.06461 20.9586 6.17112 20.8817 6.24965C20.8048 6.32819 20.7005 6.37231 20.5918 6.37231H1.44323C1.8174 6.75757 2.19431 7.14253 2.57396 7.52717L4.17757 9.16502L5.57161 10.5888C5.79575 10.8187 6.02718 11.042 6.24586 11.2775L6.25497 11.2877C6.32739 11.3671 6.36682 11.4721 6.36495 11.5806C6.36308 11.6891 6.32004 11.7926 6.24492 11.8693C6.1698 11.946 6.06845 11.99 5.96223 11.9919C5.85601 11.9938 5.75321 11.9535 5.67548 11.8796L5.1288 11.3212L3.79944 9.96347L2.19492 8.32469L0.800874 6.90089C0.576733 6.67196 0.345303 6.44862 0.12754 6.21318L0.117517 6.20294C0.0420451 6.12372 -0.000183105 6.01755 -0.000183105 5.90701C-0.000183105 5.79648 0.0420451 5.6903 0.117517 5.61108Z" fill="#0B57D0"/>
</g>
<defs>
<clipPath id="clip0_87_744">
<rect width="21" height="12" fill="white"/>
</clipPath>
</defs>
</svg>
