<svg xmlns="http://www.w3.org/2000/svg" width="120" height="80" fill="none" xmlns:v="https://vecta.io/nano"><rect x=".75" y=".75" width="118.5" height="78.5" rx="2.25" fill="#fff"/><rect x=".75" y=".75" width="118.5" height="78.5" rx="2.25" stroke="#8796a1" stroke-width="1.5"/><g fill="#58707f"><path fill-rule="evenodd" d="M17.901 17h24.198c.495 0 .901.404.901.901v17.12c0 .497-.406.901-.901.901H17.901c-.494 0-.901-.404-.901-.901v-17.12c0-.497.406-.901.901-.901zm5.197 4.63c1.323 0 2.398 1.072 2.398 2.395a2.4 2.4 0 0 1-2.398 2.398c-1.323 0-2.395-1.075-2.395-2.398s1.072-2.395 2.395-2.395zm-4.013-2.548h21.831v12.158c-4.352-.759-6.641-6.876-9.373-6.876-2.911 0-6.774 6.876-8.857 6.876-1.77 0-1.938-1.821-3.601-2.644v-9.514z"/><rect x="17" y="39.922" width="26" height="2.5" rx="1.25"/><rect x="17" y="46.422" width="26" height="2" rx="1"/><rect x="17" y="50.422" width="24" height="2" rx="1"/><rect x="17" y="54.422" width="18" height="2" rx="1"/><path fill-rule="evenodd" d="M47.901 17h24.198c.494 0 .901.404.901.901v17.12c0 .497-.406.901-.901.901H47.901c-.495 0-.901-.404-.901-.901v-17.12c0-.497.406-.901.901-.901zm5.197 4.63c1.323 0 2.398 1.072 2.398 2.395a2.4 2.4 0 0 1-2.398 2.398c-1.323 0-2.395-1.075-2.395-2.398s1.072-2.395 2.395-2.395zm-4.013-2.548h21.831v12.158c-4.352-.759-6.641-6.876-9.373-6.876-2.911 0-6.774 6.876-8.857 6.876-1.77 0-1.938-1.821-3.601-2.644v-9.514z"/><rect x="47" y="39.922" width="26" height="2.5" rx="1.25"/><rect x="47" y="46.422" width="26" height="2" rx="1"/><rect x="47" y="50.422" width="24" height="2" rx="1"/><rect x="47" y="54.422" width="18" height="2" rx="1"/><path fill-rule="evenodd" d="M77.901 17h24.198c.495 0 .901.404.901.901v17.12c0 .497-.406.901-.901.901H77.901c-.494 0-.901-.404-.901-.901v-17.12c0-.497.406-.901.901-.901zm5.197 4.63c1.323 0 2.398 1.072 2.398 2.395a2.4 2.4 0 0 1-2.398 2.398c-1.323 0-2.395-1.075-2.395-2.398s1.072-2.395 2.395-2.395zm-4.013-2.548h21.831v12.158c-4.352-.759-6.641-6.876-9.373-6.876-2.911 0-6.774 6.876-8.857 6.876-1.77 0-1.938-1.821-3.601-2.644v-9.514z"/><rect x="77" y="39.922" width="26" height="2.5" rx="1.25"/><rect x="77" y="46.422" width="26" height="2" rx="1"/><rect x="77" y="50.422" width="24" height="2" rx="1"/><rect x="77" y="54.422" width="18" height="2" rx="1"/></g><path d="M108 42l5-5-5-5m-96 0l-5 5 5 5" stroke="#58707f" stroke-width="2" stroke-linecap="round" stroke-linejoin="round"/><rect x="50" y="61" width="5" height="5" rx="2.5" fill="#9ea9b2"/><rect x="58" y="61" width="5" height="5" rx="2.5" fill="#58707f"/><rect x="66" y="61" width="5" height="5" rx="2.5" fill="#9ea9b2"/></svg>