<svg xmlns="http://www.w3.org/2000/svg" width="120" height="80" fill="none" ><style><![CDATA[.B{stroke:#58707f}.C{fill:#58707f}.D{fill-rule:evenodd}]]></style><rect x=".75" y=".75" width="118.5" height="78.5" rx="2.25" fill="#fff"/><rect x=".75" y=".75" width="118.5" height="78.5" rx="2.25" stroke="#8796a1" stroke-width="1.5"/><rect x="18.5" y="12.43" width="14" height="11" rx=".5" fill="#fff"/><rect x="18.5" y="12.43" width="14" height="11" rx=".5" class="B"/><path d="M30.662 14.93v6h-1.035v-6h1.035zm-2.535 0v6h-1.035v-6h1.035zm-5.031 1.176l-1.621 4.824h-1.137l2.125-5.687h.727l-.094.863zm1.355 4.824l-1.629-4.824-.098-.863h.731l2.137 5.687h-1.141zm-.074-2.113v.848h-3.051v-.848h3.051z" class="C"/><rect x="36.5" y="12.43" width="11" height="11" rx=".5" fill="#fff"/><rect x="36.5" y="12.43" width="11" height="11" rx=".5" class="B"/><g class="C"><path d="M42.137 15.845l-1.699 4.93H39.41l2.141-5.687h.656l-.07.758zm1.422 4.93l-1.703-4.93-.074-.758h.66l2.148 5.688h-1.031zm-.082-2.109v.777h-3.094v-.777h3.094z"/><rect x="51.5" y="12.43" width="11" height="11" rx=".5"/></g><rect x="51.5" y="12.43" width="11" height="11" rx=".5" class="B"/><g fill="#fff"><path d="M57.1 18.204H55.65l-.008-.715h1.266a1.4 1.4 0 0 0 .543-.094.75.75 0 0 0 .344-.277c.078-.122.117-.269.117-.441 0-.19-.036-.345-.109-.465s-.185-.207-.336-.262-.338-.082-.57-.082h-.949v4.906h-.98v-5.687h1.93a3.53 3.53 0 0 1 .836.09 1.72 1.72 0 0 1 .629.281c.175.125.306.284.395.476s.137.422.137.688c0 .234-.056.449-.168.645s-.277.35-.496.473-.491.195-.816.219l-.312.246zm-.043 2.57h-1.715l.441-.777h1.273c.221 0 .406-.036.555-.109s.259-.178.332-.309.113-.288.113-.465a1.1 1.1 0 0 0-.098-.48c-.065-.138-.168-.243-.309-.316s-.324-.113-.551-.113h-1.102l.008-.715h1.434l.223.27c.313.01.569.079.77.207a1.2 1.2 0 0 1 .453.496 1.48 1.48 0 0 1 .148.656c0 .362-.079.665-.238.91a1.47 1.47 0 0 1-.676.559c-.294.125-.648.188-1.062.188z"/><rect x="66.5" y="12.43" width="11" height="11" rx=".5"/></g><rect x="66.5" y="12.43" width="11" height="11" rx=".5" class="B"/><g class="C"><path d="M73.279 18.923h.977c-.031.372-.135.704-.312.996a1.86 1.86 0 0 1-.746.684c-.32.167-.71.25-1.168.25-.352 0-.668-.062-.949-.187a2.08 2.08 0 0 1-.723-.539 2.44 2.44 0 0 1-.461-.848c-.104-.331-.156-.7-.156-1.109v-.473c0-.409.053-.779.16-1.109s.266-.613.469-.848.447-.418.73-.543.608-.187.965-.187c.453 0 .836.083 1.148.25s.555.397.727.691a2.45 2.45 0 0 1 .32 1.012h-.977c-.026-.245-.083-.454-.172-.629s-.213-.307-.383-.398-.391-.141-.664-.141c-.224 0-.419.042-.586.125s-.306.206-.418.367a1.77 1.77 0 0 0-.254.598c-.055.234-.082.503-.082.805v.481a3.79 3.79 0 0 0 .074.781 1.91 1.91 0 0 0 .234.598 1.13 1.13 0 0 0 .406.387c.164.091.361.137.59.137.279 0 .504-.044.676-.133s.306-.217.394-.387a1.77 1.77 0 0 0 .18-.629z"/><circle cx="82" cy="22.93" r="1"/><circle cx="86" cy="22.93" r="1"/></g><rect x="90.5" y="12.43" width="11" height="11" rx=".5" fill="#fff"/><rect x="90.5" y="12.43" width="11" height="11" rx=".5" class="B"/><path d="M98.145 19.93v.844h-3.992v-.844h3.992zm-.074-4.215l-3.477 5.059h-.738v-.645l3.492-5.043h.723v.629zm-.383-.629v.848h-3.82v-.848h3.82z" class="C"/><rect x="10.5" y="30.93" width="99" height="11" rx="1" fill="#d8dadb"/><text fill="#475c68" xml:space="preserve" style="white-space:pre" font-family="Roboto" font-size="8" font-weight="bold" letter-spacing="0em"><tspan x="57" y="39.118">B</tspan></text><g class="C"><path d="M11.25 46.93h20.136a.75.75 0 0 1 .75.75v14.244a.75.75 0 0 1-.75.75H11.25a.75.75 0 0 1-.75-.75V47.68a.75.75 0 0 1 .75-.75zm4.324 3.852c1.101 0 1.995.892 1.995 1.993s-.894 1.995-1.995 1.995-1.993-.894-1.993-1.995.892-1.993 1.993-1.993zm-3.339-2.12h18.166v10.116c-3.622-.632-5.526-5.721-7.799-5.721-2.423 0-5.637 5.721-7.37 5.721-1.473 0-1.613-1.515-2.996-2.2v-7.916z" class="D"/><rect x="10.5" y="65.378" width="19.832" height="2.704" rx="1.352"/><path d="M36.885 46.93H57.02a.75.75 0 0 1 .75.75v14.244a.75.75 0 0 1-.75.75H36.885a.75.75 0 0 1-.75-.75V47.68a.75.75 0 0 1 .75-.75zm4.325 3.852c1.101 0 1.995.892 1.995 1.993s-.894 1.995-1.995 1.995-1.993-.894-1.993-1.995.892-1.993 1.993-1.993zm-3.339-2.12h18.166v10.116c-3.622-.632-5.526-5.721-7.799-5.721-2.422 0-5.637 5.721-7.37 5.721-1.473 0-1.613-1.515-2.996-2.2v-7.916z" class="D"/><rect x="36.135" y="65.378" width="19.832" height="2.704" rx="1.352"/><path d="M62.52 46.93h20.136a.75.75 0 0 1 .75.75v14.244a.75.75 0 0 1-.75.75H62.52a.75.75 0 0 1-.75-.75V47.68a.75.75 0 0 1 .75-.75zm4.325 3.852c1.101 0 1.995.892 1.995 1.993s-.894 1.995-1.995 1.995-1.993-.894-1.993-1.995.892-1.993 1.993-1.993zm-3.339-2.12h18.165v10.116c-3.622-.632-5.526-5.721-7.799-5.721-2.422 0-5.637 5.721-7.37 5.721-1.473 0-1.613-1.515-2.996-2.2v-7.916z" class="D"/><rect x="61.77" y="65.378" width="19.832" height="2.704" rx="1.352"/><path d="M88.155 46.93h20.136a.75.75 0 0 1 .749.75v14.244a.75.75 0 0 1-.749.75H88.155a.75.75 0 0 1-.75-.75V47.68a.75.75 0 0 1 .75-.75zm4.324 3.852c1.101 0 1.995.892 1.995 1.993s-.894 1.995-1.995 1.995-1.993-.894-1.993-1.995.892-1.993 1.993-1.993zm-3.339-2.12h18.166v10.116c-3.622-.632-5.526-5.721-7.799-5.721-2.422 0-5.637 5.721-7.37 5.721-1.473 0-1.613-1.515-2.996-2.2v-7.916z" class="D"/><rect x="87.405" y="65.378" width="19.832" height="2.704" rx="1.352"/></g></svg>