<svg xmlns="http://www.w3.org/2000/svg" width="120" height="80" fill="none" xmlns:v="https://vecta.io/nano"><rect x=".75" y=".75" width="118.5" height="78.5" rx="2.25" fill="#fff"/><rect x=".75" y=".75" width="118.5" height="78.5" rx="2.25" stroke="#8796a1" stroke-width="1.5"/><g fill="#58707f"><path fill-rule="evenodd" d="M15.53 9.5h53.711c1.098 0 2 .896 2 2v38c0 1.104-.902 2-2 2H15.53c-1.098 0-2-.896-2-2v-38c0-1.104.902-2 2-2zm11.536 10.278c2.937 0 5.323 2.38 5.323 5.317s-2.385 5.323-5.323 5.323-5.317-2.385-5.317-5.323 2.38-5.317 5.317-5.317zm-8.907-5.655h48.456V41.11c-9.66-1.685-14.74-15.262-20.804-15.262-6.462 0-15.036 15.262-19.659 15.262-3.928 0-4.302-4.041-7.993-5.869V14.123z"/><rect x="13.53" y="55.5" width="48" height="3" rx="1.5"/><rect x="13.53" y="62.5" width="57.711" height="2.5" rx="1.25"/><rect x="13.53" y="68" width="32" height="2.5" rx="1.25"/><path fill-rule="evenodd" d="M77.288 9.5h28.135a1.05 1.05 0 0 1 1.047 1.047v19.905a1.05 1.05 0 0 1-1.047 1.047H77.288a1.05 1.05 0 0 1-1.047-1.047V10.548A1.05 1.05 0 0 1 77.288 9.5zm6.042 5.383a2.79 2.79 0 0 1 2.788 2.785 2.79 2.79 0 0 1-2.788 2.788 2.79 2.79 0 0 1-2.785-2.788c0-1.538 1.246-2.785 2.785-2.785zm-4.665-2.962h25.382v14.136c-5.06-.883-7.721-7.994-10.898-7.994-3.385 0-7.876 7.994-10.297 7.994-2.058 0-2.253-2.117-4.187-3.074V11.921z"/><rect x="76.241" y="34.5" width="30.23" height="3" rx="1.5"/><path fill-rule="evenodd" d="M77.288 42.5h28.135a1.05 1.05 0 0 1 1.047 1.047v19.905a1.05 1.05 0 0 1-1.047 1.047H77.288a1.05 1.05 0 0 1-1.047-1.047V43.548a1.05 1.05 0 0 1 1.047-1.047zm6.042 5.383a2.79 2.79 0 0 1 2.788 2.785 2.79 2.79 0 0 1-2.788 2.788 2.79 2.79 0 0 1-2.785-2.788c0-1.538 1.246-2.785 2.785-2.785zm-4.665-2.962h25.382v14.136c-5.06-.883-7.721-7.994-10.898-7.994-3.385 0-7.876 7.994-10.297 7.994-2.058 0-2.253-2.117-4.187-3.074V44.921z"/><rect x="76.241" y="67.5" width="30.23" height="3" rx="1.5"/></g></svg>