<svg xmlns="http://www.w3.org/2000/svg" width="120" height="80" fill="none" xmlns:v="https://vecta.io/nano"><style><![CDATA[.B{fill-rule:evenodd}.C{fill:#58707f}.D{stroke:#58707f}.E{stroke-width:.5}]]></style><rect x=".75" y=".75" width="118.5" height="78.5" rx="2.25" fill="#fff"/><rect x=".75" y=".75" width="118.5" height="78.5" rx="2.25" stroke="#8796a1" stroke-width="1.5"/><g class="C"><path d="M11.25 22.815h20.136a.75.75 0 0 1 .75.75v14.244a.75.75 0 0 1-.75.75H11.25a.75.75 0 0 1-.75-.75V23.565a.75.75 0 0 1 .75-.75zm4.324 3.852c1.101 0 1.995.892 1.995 1.993s-.894 1.995-1.995 1.995-1.993-.894-1.993-1.995.892-1.993 1.993-1.993zm-3.339-2.12h18.166v10.116c-3.622-.632-5.526-5.721-7.799-5.721-2.423 0-5.637 5.721-7.37 5.721-1.473 0-1.613-1.515-2.996-2.2v-7.916z" class="B"/><rect x="10.5" y="41.263" width="19.832" height="2.704" rx="1.352"/><path d="M36.885 22.815H57.02a.75.75 0 0 1 .75.75v14.244a.75.75 0 0 1-.75.75H36.885a.75.75 0 0 1-.75-.75V23.565a.75.75 0 0 1 .75-.75zm4.325 3.852c1.101 0 1.995.892 1.995 1.993s-.894 1.995-1.995 1.995-1.993-.894-1.993-1.995.892-1.993 1.993-1.993zm-3.339-2.12h18.166v10.116c-3.622-.632-5.526-5.721-7.799-5.721-2.422 0-5.637 5.721-7.37 5.721-1.473 0-1.613-1.515-2.996-2.2v-7.916z" class="B"/><rect x="36.135" y="41.263" width="19.832" height="2.704" rx="1.352"/><path d="M62.52 22.815h20.136a.75.75 0 0 1 .75.75v14.244a.75.75 0 0 1-.75.75H62.52a.75.75 0 0 1-.75-.75V23.565a.75.75 0 0 1 .75-.75zm4.325 3.852c1.101 0 1.995.892 1.995 1.993s-.894 1.995-1.995 1.995-1.993-.894-1.993-1.995.892-1.993 1.993-1.993zm-3.339-2.12h18.165v10.116c-3.622-.632-5.526-5.721-7.799-5.721-2.422 0-5.637 5.721-7.37 5.721-1.473 0-1.613-1.515-2.996-2.2v-7.916z" class="B"/><rect x="61.77" y="41.263" width="19.832" height="2.704" rx="1.352"/><path d="M88.155 22.815h20.136a.75.75 0 0 1 .749.75v14.244a.75.75 0 0 1-.749.75H88.155a.75.75 0 0 1-.75-.75V23.565a.75.75 0 0 1 .75-.75zm4.324 3.852c1.101 0 1.995.892 1.995 1.993s-.894 1.995-1.995 1.995-1.993-.894-1.993-1.995.892-1.993 1.993-1.993zm-3.339-2.12h18.166v10.116c-3.622-.632-5.526-5.721-7.799-5.721-2.422 0-5.637 5.721-7.37 5.721-1.473 0-1.613-1.515-2.996-2.2v-7.916z" class="B"/><rect x="87.406" y="41.263" width="19.832" height="2.704" rx="1.352"/><path d="M11.25 48.967h20.136a.75.75 0 0 1 .75.749V63.96a.75.75 0 0 1-.75.75H11.25a.75.75 0 0 1-.75-.75V49.716a.75.75 0 0 1 .75-.749zm4.324 3.852c1.101 0 1.995.892 1.995 1.993s-.894 1.995-1.995 1.995-1.993-.894-1.993-1.995.892-1.993 1.993-1.993zm-3.339-2.12h18.166v10.116c-3.622-.632-5.526-5.721-7.799-5.721-2.423 0-5.637 5.721-7.37 5.721-1.473 0-1.613-1.515-2.996-2.2v-7.916z" class="B"/><rect x="10.5" y="67.414" width="19.832" height="2.704" rx="1.352"/><path d="M36.885 48.967H57.02a.75.75 0 0 1 .75.749V63.96a.75.75 0 0 1-.75.75H36.885a.75.75 0 0 1-.75-.75V49.716a.75.75 0 0 1 .75-.749zm4.325 3.852c1.101 0 1.995.892 1.995 1.993s-.894 1.995-1.995 1.995-1.993-.894-1.993-1.995.892-1.993 1.993-1.993zm-3.339-2.12h18.166v10.116c-3.622-.632-5.526-5.721-7.799-5.721-2.422 0-5.637 5.721-7.37 5.721-1.473 0-1.613-1.515-2.996-2.2v-7.916z" class="B"/><rect x="36.135" y="67.414" width="19.832" height="2.704" rx="1.352"/><path d="M62.52 48.967h20.136a.75.75 0 0 1 .75.749V63.96a.75.75 0 0 1-.75.75H62.52a.75.75 0 0 1-.75-.75V49.716a.75.75 0 0 1 .75-.749zm4.325 3.852c1.101 0 1.995.892 1.995 1.993s-.894 1.995-1.995 1.995-1.993-.894-1.993-1.995.892-1.993 1.993-1.993zm-3.339-2.12h18.165v10.116c-3.622-.632-5.526-5.721-7.799-5.721-2.422 0-5.637 5.721-7.37 5.721-1.473 0-1.613-1.515-2.996-2.2v-7.916z" class="B"/><rect x="61.77" y="67.414" width="19.832" height="2.704" rx="1.352"/><path d="M88.155 48.967h20.136a.75.75 0 0 1 .749.749V63.96a.75.75 0 0 1-.749.75H88.155a.75.75 0 0 1-.75-.75V49.716a.75.75 0 0 1 .75-.749zm4.324 3.852c1.101 0 1.995.892 1.995 1.993s-.894 1.995-1.995 1.995-1.993-.894-1.993-1.995.892-1.993 1.993-1.993zm-3.339-2.12h18.166v10.116c-3.622-.632-5.526-5.721-7.799-5.721-2.422 0-5.637 5.721-7.37 5.721-1.473 0-1.613-1.515-2.996-2.2v-7.916z" class="B"/><rect x="87.405" y="67.414" width="19.832" height="2.704" rx="1.352"/><rect x="30.25" y="8.25" width="11.5" height="7.5" rx="1.05" class="D E"/></g><rect x="33" y="11" width="6" height="2" rx="1" fill="#fff"/><rect x="46.25" y="8.25" width="21.5" height="7.5" rx="1.05" class="C D E"/><rect x="50" y="11" width="14" height="2" rx="1" fill="#fff"/><rect x="72.25" y="8.25" width="17.5" height="7.5" rx="1.05" class="C D E"/><rect x="75" y="11" width="12" height="2" rx="1" fill="#fff"/></svg>