<svg xmlns="http://www.w3.org/2000/svg" width="120" height="80" fill="none" xmlns:v="https://vecta.io/nano"><rect x=".75" y=".75" width="118.5" height="78.5" rx="2.25" fill="#fff"/><rect x=".75" y=".75" width="118.5" height="78.5" rx="2.25" stroke="#8796a1" stroke-width="1.5"/><g fill="#58707f"><path fill-rule="evenodd" d="M16.109 14.211h29.782A1.11 1.11 0 0 1 47 15.32v21.071a1.11 1.11 0 0 1-1.109 1.109H16.109A1.11 1.11 0 0 1 15 36.391V15.32a1.11 1.11 0 0 1 1.109-1.109zm6.396 5.699a2.95 2.95 0 0 1 2.951 2.948c0 1.629-1.323 2.951-2.951 2.951a2.95 2.95 0 0 1-2.948-2.951 2.95 2.95 0 0 1 2.948-2.948zm-4.939-3.136h26.868v14.964c-5.357-.934-8.173-8.462-11.536-8.462-3.583 0-8.338 8.462-10.901 8.462-2.178 0-2.385-2.241-4.432-3.254v-11.71z"/><rect x="51" y="16.605" width="28" height="3" rx="1.5"/><rect x="51" y="23.605" width="54" height="2.5" rx="1.25"/><rect x="51" y="28.105" width="52" height="2.5" rx="1.25"/><rect x="51" y="32.605" width="20" height="2.5" rx="1.25"/><path fill-rule="evenodd" d="M16.109 42.5h29.782A1.11 1.11 0 0 1 47 43.608v21.071a1.11 1.11 0 0 1-1.109 1.109H16.109A1.11 1.11 0 0 1 15 64.679V43.608a1.11 1.11 0 0 1 1.109-1.109zm6.396 5.699a2.95 2.95 0 0 1 2.951 2.948c0 1.629-1.323 2.951-2.951 2.951a2.95 2.95 0 0 1-2.948-2.951 2.95 2.95 0 0 1 2.948-2.948zm-4.939-3.136h26.868v14.964c-5.357-.934-8.173-8.462-11.536-8.462-3.583 0-8.338 8.462-10.901 8.462-2.178 0-2.385-2.241-4.432-3.254v-11.71z"/><rect x="51" y="44.894" width="28" height="3" rx="1.5"/><rect x="51" y="51.894" width="54" height="2.5" rx="1.25"/><rect x="51" y="56.394" width="52" height="2.5" rx="1.25"/><rect x="51" y="60.894" width="20" height="2.5" rx="1.25"/></g></svg>