<svg xmlns="http://www.w3.org/2000/svg" width="120" height="80" fill="none" xmlns:v="https://vecta.io/nano"><style><![CDATA[.B{fill-rule:evenodd}]]></style><rect x=".75" y=".75" width="118.5" height="78.5" rx="2.25" fill="#fff"/><rect x=".75" y=".75" width="118.5" height="78.5" rx="2.25" stroke="#8796a1" stroke-width="1.5"/><g fill="#58707f"><path d="M19.832 10.79h22.337c.456 0 .832.373.832.832v15.803c0 .459-.375.832-.832.832H19.832c-.457 0-.832-.373-.832-.832V11.622c0-.459.375-.832.832-.832zm4.797 4.274c1.222 0 2.214.989 2.214 2.211s-.992 2.214-2.214 2.214-2.211-.992-2.211-2.214a2.21 2.21 0 0 1 2.211-2.211zm-3.704-2.352h20.151v11.223c-4.017-.701-6.13-6.347-8.652-6.347-2.687 0-6.253 6.347-8.176 6.347-1.634 0-1.789-1.68-3.324-2.44v-8.782z" class="B"/><rect x="19" y="31.256" width="24" height="3" rx="1.5"/><path d="M19.832 40.256h22.337c.456 0 .832.373.832.832v15.803c0 .459-.375.832-.832.832H19.832c-.457 0-.832-.373-.832-.832V41.088c0-.459.375-.832.832-.832zm4.797 4.274c1.222 0 2.214.99 2.214 2.211s-.992 2.214-2.214 2.214-2.211-.992-2.211-2.214a2.21 2.21 0 0 1 2.211-2.211zm-3.704-2.352h20.151v11.223c-4.017-.701-6.13-6.347-8.652-6.347-2.687 0-6.253 6.347-8.176 6.347-1.634 0-1.789-1.68-3.324-2.44v-8.782z" class="B"/><rect x="19" y="60.723" width="24" height="3" rx="1.5"/><rect x="19" y="66.723" width="24" height="2.5" rx="1.25"/><path d="M48.832 10.79h22.337c.456 0 .832.373.832.832v15.803c0 .459-.375.832-.832.832H48.832c-.456 0-.832-.373-.832-.832V11.622c0-.459.375-.832.832-.832zm4.797 4.274c1.221 0 2.214.989 2.214 2.211s-.992 2.214-2.214 2.214-2.211-.992-2.211-2.214a2.21 2.21 0 0 1 2.211-2.211zm-3.704-2.352h20.151v11.223c-4.017-.701-6.13-6.347-8.652-6.347-2.687 0-6.253 6.347-8.175 6.347-1.634 0-1.789-1.68-3.324-2.44v-8.782z" class="B"/><rect x="48" y="31.256" width="24" height="3" rx="1.5"/><rect x="48" y="37.256" width="24" height="2.5" rx="1.25"/><path d="M48.832 45.756h22.337c.456 0 .832.373.832.832v15.803c0 .459-.375.832-.832.832H48.832c-.456 0-.832-.373-.832-.832V46.588c0-.459.375-.832.832-.832zm4.797 4.274c1.221 0 2.214.99 2.214 2.211s-.992 2.214-2.214 2.214-2.211-.992-2.211-2.214a2.21 2.21 0 0 1 2.211-2.211zm-3.704-2.352h20.151v11.223c-4.017-.701-6.13-6.347-8.652-6.347-2.687 0-6.253 6.347-8.175 6.347-1.634 0-1.789-1.68-3.324-2.44v-8.782z" class="B"/><rect x="48" y="66.223" width="24" height="3" rx="1.5"/><path d="M77.832 10.79h22.336c.457 0 .832.373.832.832v15.803c0 .459-.375.832-.832.832H77.832c-.456 0-.832-.373-.832-.832V11.622c0-.459.375-.832.832-.832zm4.797 4.274c1.222 0 2.213.989 2.213 2.211s-.992 2.214-2.213 2.214-2.211-.992-2.211-2.214a2.21 2.21 0 0 1 2.211-2.211zm-3.704-2.352h20.151v11.223c-4.017-.701-6.13-6.347-8.652-6.347-2.687 0-6.253 6.347-8.175 6.347-1.634 0-1.789-1.68-3.324-2.44v-8.782z" class="B"/><rect x="77" y="31.256" width="24" height="3" rx="1.5"/><path d="M77.832 40.256h22.336c.457 0 .832.373.832.832v15.803c0 .459-.375.832-.832.832H77.832c-.456 0-.832-.373-.832-.832V41.088c0-.459.375-.832.832-.832zm4.797 4.274c1.222 0 2.213.99 2.213 2.211s-.992 2.214-2.213 2.214-2.211-.992-2.211-2.214a2.21 2.21 0 0 1 2.211-2.211zm-3.704-2.352h20.151v11.223c-4.017-.701-6.13-6.347-8.652-6.347-2.687 0-6.253 6.347-8.175 6.347-1.634 0-1.789-1.68-3.324-2.44v-8.782z" class="B"/><rect x="77" y="60.723" width="24" height="3" rx="1.5"/><rect x="77" y="66.723" width="24" height="2.5" rx="1.25"/></g></svg>