<svg xmlns="http://www.w3.org/2000/svg" width="120" height="80" fill="none" xmlns:v="https://vecta.io/nano"><rect x=".75" y=".75" width="118.5" height="78.5" rx="2.25" fill="#fff"/><rect x=".75" y=".75" width="118.5" height="78.5" rx="2.25" stroke="#8796a1" stroke-width="1.5"/><g fill="#58707f"><path fill-rule="evenodd" d="M98.5 14.333h-77c-.644 0-1.167.522-1.167 1.167v49c0 .644.522 1.167 1.167 1.167h77c.644 0 1.167-.522 1.167-1.167v-49c0-.644-.522-1.167-1.167-1.167zM21.5 12a3.5 3.5 0 0 0-3.5 3.5v49a3.5 3.5 0 0 0 3.5 3.5h77a3.5 3.5 0 0 0 3.5-3.5v-49a3.5 3.5 0 0 0-3.5-3.5h-77z"/><path d="M25.57 49.528c-1.521-1.57-3.159-3.26-5.82-4.373v21.181h81.667V53.514c-8.743-1.289-15.26-7.462-21.003-12.902-4.952-4.691-9.328-8.837-14.061-8.837-5.9 0-12.846 6.381-19.211 12.229-5.383 4.946-10.352 9.511-13.922 9.511-3.789 0-5.616-1.885-7.651-3.986zm13.957-24.851c0-3.689-2.976-6.677-6.641-6.677s-6.633 2.988-6.633 6.677 2.969 6.684 6.633 6.684 6.641-2.996 6.641-6.684z"/></g><path d="M98.5 12.001h-77a3.5 3.5 0 0 0-3.5 3.5v49a3.5 3.5 0 0 0 3.5 3.5h77a3.5 3.5 0 0 0 3.5-3.5v-49a3.5 3.5 0 0 0-3.5-3.5z" fill="#000" fill-opacity=".6"/><path d="M92.09 44.667L96.493 40l-4.403-4.667m-64.167.001L23.52 40l4.403 4.667" stroke="#fff" stroke-width="1.867" stroke-linecap="round" stroke-linejoin="round"/><g fill="#fff"><rect x="42.5" y="31.835" width="35" height="3" rx="1.5"/><rect x="36.083" y="37.835" width="47.833" height="2" rx="1"/><rect x="49.75" y="42.835" width="20.5" height="5" rx=".75"/></g><rect x="54.163" y="44.583" width="11.667" height="1.5" rx=".75" fill="#58707f"/><rect x="49.5" y="57" width="5" height="5" rx="2.5" fill="#fff" fill-opacity=".5"/><rect x="57.5" y="57" width="5" height="5" rx="2.5" fill="#fbfbfb"/><rect x="65.5" y="57" width="5" height="5" rx="2.5" fill="#fff" fill-opacity=".5"/></svg>