<svg xmlns="http://www.w3.org/2000/svg" xmlns:xlink="http://www.w3.org/1999/xlink" width="120" height="80" fill="none" xmlns:v="https://vecta.io/nano"><rect x=".75" y=".75" width="118.5" height="78.5" rx="2.25" fill="#fff"/><rect x=".75" y=".75" width="118.5" height="78.5" rx="2.25" stroke="#8796a1" stroke-width="1.5"/><rect x="14.6" y="12.6" width="90.8" height="54.8" rx="1.4" fill="#fff"/><rect x="14.6" y="12.6" width="90.8" height="54.8" rx="1.4" stroke="#58707f" stroke-width="1.2"/><path fill="#58707f" d="M14 12h92v7H14z"/><g fill="#fff"><rect x="22" y="15" width="8" height="1.5" rx=".75"/><rect x="40.5" y="15" width="6" height="1.5" rx=".75"/><rect x="55.5" y="15" width="6" height="1.5" rx=".75"/><rect x="68" y="15" width="6" height="1.5" rx=".75"/><rect x="84" y="15" width="12" height="1.5" rx=".75"/></g><g fill="#58707f"><use xlink:href="#B" fill-rule="evenodd"/><rect x="38.741" y="26" width="10" height="2" rx="1"/><rect x="54.741" y="26.25" width="7" height="1.5" rx=".75"/><rect x="67.741" y="26.25" width="8" height="1.5" rx=".75"/><rect x="81.741" y="24.75" width="19" height="1.5" rx=".75"/><rect x="81.741" y="27.75" width="16" height="1.5" rx=".75"/><use xlink:href="#B" y="32" fill-rule="evenodd"/><rect x="38.741" y="58" width="10" height="2" rx="1"/><rect x="54.741" y="58.25" width="7" height="1.5" rx=".75"/><rect x="67.741" y="58.25" width="8" height="1.5" rx=".75"/><rect x="81.741" y="56.75" width="19" height="1.5" rx=".75"/><rect x="81.741" y="59.75" width="16" height="1.5" rx=".75"/><path d="M14 35h92v16H14z"/></g><g fill="#fff"><use xlink:href="#B" y="16" fill-rule="evenodd"/><rect x="38.741" y="42" width="10" height="2" rx="1"/><rect x="54.741" y="42.25" width="7" height="1.5" rx=".75"/><rect x="67.741" y="42.25" width="8" height="1.5" rx=".75"/><rect x="81.741" y="41" width="19" height="1.5" rx=".75"/><rect x="81.741" y="43.5" width="16" height="1.5" rx=".75"/></g><defs ><path id="B" d="M19.476 22h12.789c.261 0 .476.213.476.476v9.048c0 .263-.215.476-.476.476H19.476c-.261 0-.476-.213-.476-.476v-9.048c0-.263.215-.476.476-.476zm2.747 2.447c.699 0 1.267.567 1.267 1.266a1.27 1.27 0 0 1-1.267 1.267c-.699 0-1.266-.568-1.266-1.267s.566-1.266 1.266-1.266zm-2.121-1.346h11.537v6.426c-2.3-.401-3.509-3.634-4.953-3.634-1.539 0-3.58 3.634-4.681 3.634-.935 0-1.024-.962-1.903-1.397v-5.028z"/></defs></svg>