<svg xmlns="http://www.w3.org/2000/svg" width="120" height="80" fill="none" xmlns:v="https://vecta.io/nano"><rect x=".75" y=".75" width="118.5" height="78.5" rx="2.25" fill="#fff"/><rect x=".75" y=".75" width="118.5" height="78.5" rx="2.25" stroke="#8796a1" stroke-width="1.5"/><rect x="24.15" y="61.059" width="22.146" height="8.63" rx=".347" fill="#d8dadb"/><rect x="24.15" y="61.059" width="22.146" height="8.63" rx=".347" stroke="#8796a1" stroke-width=".3"/><g fill="#3a4953"><path fill-rule="evenodd" d="M25.33 61.909h8.864a.33.33 0 0 1 .33.33v6.271a.33.33 0 0 1-.33.33H25.33a.33.33 0 0 1-.33-.33v-6.271a.33.33 0 0 1 .33-.33zm1.904 1.696a.88.88 0 0 1 .878.877.88.88 0 0 1-.878.878.88.88 0 0 1-.877-.878c0-.485.393-.877.877-.877zm-1.47-.933h7.997v4.454c-1.594-.278-2.433-2.519-3.433-2.519-1.066 0-2.481 2.519-3.244 2.519-.648 0-.71-.667-1.319-.969v-3.485z"/><rect x="35.922" y="62.825" width="9.524" height="1.399" rx=".699"/><rect x="35.922" y="65.415" width="6.54" height="1.399" rx=".699"/></g><rect x="48.927" y="61.059" width="22.146" height="8.63" rx=".347" fill="#d8dadb"/><rect x="48.927" y="61.059" width="22.146" height="8.63" rx=".347" stroke="#8796a1" stroke-width=".3"/><g fill="#3a4953"><path fill-rule="evenodd" d="M50.107 61.909h8.864a.33.33 0 0 1 .33.33v6.271a.33.33 0 0 1-.33.33h-8.864a.33.33 0 0 1-.33-.33v-6.271a.33.33 0 0 1 .33-.33zm1.904 1.696a.88.88 0 0 1 .878.877.88.88 0 0 1-.878.878.88.88 0 0 1-.877-.878c0-.485.393-.877.877-.877zm-1.47-.933h7.997v4.454c-1.594-.278-2.432-2.519-3.433-2.519-1.066 0-2.481 2.519-3.244 2.519-.648 0-.71-.667-1.319-.969v-3.485z"/><rect x="60.7" y="62.825" width="9.524" height="1.399" rx=".699"/><rect x="60.7" y="65.415" width="6.54" height="1.399" rx=".699"/></g><rect x="73.704" y="61.059" width="22.146" height="8.63" rx=".347" fill="#d8dadb"/><rect x="73.704" y="61.059" width="22.146" height="8.63" rx=".347" stroke="#8796a1" stroke-width=".3"/><g fill="#3a4953"><path fill-rule="evenodd" d="M74.884 61.909h8.864a.33.33 0 0 1 .33.33v6.271a.33.33 0 0 1-.33.33h-8.864a.33.33 0 0 1-.33-.33v-6.271a.33.33 0 0 1 .33-.33zm1.904 1.696a.88.88 0 0 1 .878.877.88.88 0 0 1-.878.878.88.88 0 0 1-.877-.878c0-.485.393-.877.877-.877zm-1.47-.933h7.996v4.454c-1.594-.278-2.432-2.519-3.433-2.519-1.066 0-2.481 2.519-3.244 2.519-.648 0-.71-.667-1.319-.969v-3.485z"/><rect x="85.477" y="62.825" width="9.524" height="1.399" rx=".699"/><rect x="85.477" y="65.415" width="6.54" height="1.399" rx=".699"/></g><g fill="#58707f"><path fill-rule="evenodd" d="M93 12.148H27a1 1 0 0 0-1 1v42a1 1 0 0 0 1 1h66a1 1 0 0 0 1-1v-42a1 1 0 0 0-1-1zm-66-2a3 3 0 0 0-3 3v42a3 3 0 0 0 3 3h66a3 3 0 0 0 3-3v-42a3 3 0 0 0-3-3H27z"/><path d="M47.527 24.732c0-3.689-2.976-6.677-6.641-6.677s-6.633 2.988-6.633 6.677 2.969 6.684 6.633 6.684 6.641-2.996 6.641-6.684zM30.488 42.316c-1.304-1.346-2.708-2.794-4.988-3.749v18.155h70v-10.99c-7.494-1.105-13.079-6.396-18.002-11.059-4.244-4.021-7.996-7.574-12.052-7.574-5.058 0-11.011 5.469-16.467 10.482-4.614 4.239-8.873 8.152-11.933 8.152-3.248 0-4.814-1.616-6.558-3.416z"/></g><path d="M93 10.149H27a3 3 0 0 0-3 3v42a3 3 0 0 0 3 3h66a3 3 0 0 0 3-3v-42a3 3 0 0 0-3-3z" fill="#000" fill-opacity=".6"/><path d="M87.713 38.148l3.774-4-3.774-4m-55 0l-3.774 4 3.774 4" stroke="#fff" stroke-width="1.6" stroke-linecap="round" stroke-linejoin="round"/><g fill="#fff"><rect x="45" y="27.15" width="30" height="3" rx="1.5"/><rect x="39.5" y="32.65" width="41" height="2" rx="1"/><rect x="52.5" y="37.15" width="15" height="4" rx=".8"/></g><rect x="55" y="38.4" width="10" height="1.5" rx=".75" fill="#58707f"/></svg>