<svg xmlns="http://www.w3.org/2000/svg" width="200" height="120" fill="none" xmlns:v="https://vecta.io/nano"><style><![CDATA[.B{fill-rule:evenodd}]]></style><rect x=".6" y=".6" width="198.8" height="118.8" rx="2.4" fill="#fff"/><rect x=".6" y=".6" width="198.8" height="118.8" rx="2.4" stroke="#8796a1" stroke-width="1.2"/><g fill="#718491"><path d="M27.178 37.38h31.644A1.18 1.18 0 0 1 60 38.558v22.388a1.18 1.18 0 0 1-1.178 1.178H27.178A1.18 1.18 0 0 1 26 60.946V38.558a1.18 1.18 0 0 1 1.178-1.178zm6.796 6.055c1.73 0 3.136 1.402 3.136 3.132a3.14 3.14 0 0 1-3.136 3.136c-1.73 0-3.132-1.405-3.132-3.136a3.13 3.13 0 0 1 3.132-3.132zm-5.247-3.332h28.547v15.899c-5.691-.993-8.684-8.991-12.257-8.991-3.807 0-8.859 8.991-11.582 8.991-2.314 0-2.535-2.381-4.709-3.457V40.103z" class="B"/><rect x="26" y="67.124" width="34" height="3" rx="1.5"/><rect x="26" y="75.124" width="34" height="2.5" rx="1.25"/><rect x="26" y="80.124" width="25.113" height="2.5" rx="1.25"/><path d="M65.178 37.38h31.644A1.18 1.18 0 0 1 98 38.558v22.388a1.18 1.18 0 0 1-1.178 1.178H65.178A1.18 1.18 0 0 1 64 60.946V38.558a1.18 1.18 0 0 1 1.178-1.178zm6.796 6.055c1.73 0 3.136 1.402 3.136 3.132a3.14 3.14 0 0 1-3.136 3.136c-1.73 0-3.132-1.405-3.132-3.136a3.13 3.13 0 0 1 3.132-3.132zm-5.247-3.332h28.548v15.899c-5.691-.993-8.684-8.991-12.257-8.991-3.807 0-8.859 8.991-11.582 8.991-2.314 0-2.534-2.381-4.709-3.457V40.103z" class="B"/><rect x="64" y="67.124" width="34" height="3" rx="1.5"/><rect x="64" y="75.124" width="34" height="2.5" rx="1.25"/><rect x="64" y="80.124" width="25.113" height="2.5" rx="1.25"/><path d="M103.178 37.38h31.644A1.18 1.18 0 0 1 136 38.558v22.388a1.18 1.18 0 0 1-1.178 1.178h-31.644A1.18 1.18 0 0 1 102 60.946V38.558a1.18 1.18 0 0 1 1.178-1.178zm6.796 6.055c1.731 0 3.136 1.402 3.136 3.132a3.14 3.14 0 0 1-3.136 3.136c-1.73 0-3.132-1.405-3.132-3.136a3.13 3.13 0 0 1 3.132-3.132zm-5.247-3.332h28.547v15.899c-5.691-.993-8.683-8.991-12.256-8.991-3.807 0-8.859 8.991-11.582 8.991-2.315 0-2.535-2.381-4.709-3.457V40.103z" class="B"/><rect x="102" y="67.124" width="34" height="3" rx="1.5"/><rect x="102" y="75.124" width="34" height="2.5" rx="1.25"/><rect x="102" y="80.124" width="25.113" height="2.5" rx="1.25"/><path d="M141.178 37.38h31.644A1.18 1.18 0 0 1 174 38.558v22.388a1.18 1.18 0 0 1-1.178 1.178h-31.644A1.18 1.18 0 0 1 140 60.946V38.558a1.18 1.18 0 0 1 1.178-1.178zm6.796 6.055c1.731 0 3.136 1.402 3.136 3.132a3.14 3.14 0 0 1-3.136 3.136c-1.73 0-3.132-1.405-3.132-3.136a3.13 3.13 0 0 1 3.132-3.132zm-5.247-3.332h28.547v15.899c-5.691-.993-8.683-8.991-12.256-8.991-3.807 0-8.859 8.991-11.582 8.991-2.315 0-2.535-2.381-4.709-3.457V40.103z" class="B"/><rect x="140" y="67.124" width="34" height="3" rx="1.5"/><rect x="140" y="75.124" width="34" height="2.5" rx="1.25"/><rect x="140" y="80.124" width="25.113" height="2.5" rx="1.25"/></g><rect x="26.5" y="52.5" width="15" height="15" rx="1.5" fill="#58707f" stroke="#58707f"/><path d="M37.207 65.707a1 1 0 0 1-1.414 0l-5-5a1 1 0 0 1 0-1.414l5-5a1 1 0 0 1 1.414 1.414L32.914 60l4.293 4.293a1 1 0 0 1 0 1.414z" fill="#fff" class="B"/><rect x="158.5" y="52.5" width="15" height="15" rx="1.5" fill="#58707f" stroke="#58707f"/><path d="M162.793 65.707a1 1 0 0 0 1.414 0l5-5a1 1 0 0 0 0-1.414l-5-5a1 1 0 0 0-1.414 1.414L167.086 60l-4.293 4.293a1 1 0 0 0 0 1.414z" fill="#fff" class="B"/></svg>