<svg xmlns="http://www.w3.org/2000/svg" xmlns:xlink="http://www.w3.org/1999/xlink" width="250" height="192" fill="none"><style><![CDATA[.B{fill:#fff}.C{stroke:#718491}.D{fill:#718491}.E{stroke-width:1.422}.F{fill-rule:evenodd}.G{font-family:Roboto}]]></style><path d="M0 0h250v192H0z" class="B"/><rect x="52.5" y="164.5" width="11" height="11" rx="5.5" fill="#ffd9f1" stroke="#f21197"/><text fill="#546069" xml:space="preserve" style="white-space:pre" font-size="12" font-weight="600" letter-spacing="0em" class="G"><tspan x="68" y="174.031">Ajax Testimonial Search</tspan></text><rect x="20.5" y="16.5" width="209" height="139" rx="3.5" class="B"/><rect x="20.5" y="16.5" width="209" height="139" rx="3.5" stroke="#bbc2c7"/><rect x="36.711" y="43.521" width="53.691" height="48.769" rx="2.844" class="B C E"/><g class="D"><use xlink:href="#B"/><path d="M51.112 74.292a1.78 1.78 0 0 1 1.778-1.777h21.334a1.78 1.78 0 0 1 1.778 1.777 1.78 1.78 0 0 1-1.778 1.777H52.89a1.78 1.78 0 0 1-1.778-1.777zm-1.778 5.33l1.067 2.132 2.133.266-1.465 1.642.398 2.356-2.133-1.066-2.133 1.066.402-2.356-1.469-1.642 2.133-.266 1.067-2.132z"/><use xlink:href="#C"/><use xlink:href="#C" x="7.112"/><use xlink:href="#C" x="14.223"/><use xlink:href="#C" x="21.334"/><path d="M63.557 49.419c-2.946 0-5.334 2.386-5.334 5.33s2.388 5.33 5.334 5.33 5.333-2.386 5.333-5.33-2.388-5.33-5.333-5.33zm-3.556 8.979a5.08 5.08 0 0 0 7.111 0v-.044c0-.475-.187-.93-.521-1.265a1.77 1.77 0 0 0-1.257-.524h-3.556a1.77 1.77 0 0 0-1.257.524c-.333.336-.521.791-.521 1.265v.044zm5.333-4.465c0 .988-.796 1.79-1.778 1.79s-1.778-.801-1.778-1.79.796-1.79 1.778-1.79 1.778.801 1.778 1.79z" class="F"/></g><rect x="97.824" y="43.521" width="53.691" height="48.769" rx="2.844" class="B C E"/><g class="D"><path d="M104.225 67.186a1.78 1.78 0 0 1 1.777-1.777h37.335a1.78 1.78 0 0 1 1.778 1.777 1.78 1.78 0 0 1-1.778 1.777h-37.335c-.981 0-1.777-.795-1.777-1.777z"/><use xlink:href="#D"/><use xlink:href="#E"/><use xlink:href="#F"/><use xlink:href="#G"/><use xlink:href="#H"/><use xlink:href="#F" x="21.334"/><path d="M124.67 49.419c-2.946 0-5.334 2.386-5.334 5.33s2.388 5.33 5.334 5.33 5.333-2.386 5.333-5.33-2.388-5.33-5.333-5.33zm-3.556 8.979a5.08 5.08 0 0 0 7.111 0v-.044c0-.475-.187-.93-.52-1.265s-.786-.524-1.257-.524h-3.556a1.77 1.77 0 0 0-1.257.524c-.334.336-.521.791-.521 1.265v.044zm5.334-4.465c0 .988-.796 1.79-1.778 1.79s-1.778-.801-1.778-1.79.796-1.79 1.778-1.79 1.778.801 1.778 1.79z" class="F"/></g><rect x="158.937" y="43.521" width="53.691" height="48.769" rx="2.844" class="B C E"/><g class="D"><path d="M165.338 67.186c0-.981.796-1.777 1.777-1.777h37.335a1.78 1.78 0 0 1 1.778 1.777 1.78 1.78 0 0 1-1.778 1.777h-37.335a1.78 1.78 0 0 1-1.777-1.777z"/><use xlink:href="#D" x="61.113"/><use xlink:href="#E" x="61.113" y="0.001"/><use xlink:href="#F" x="61.113" y="0.001"/><use xlink:href="#I"/><use xlink:href="#H" x="61.113" y="0.001"/><use xlink:href="#J"/><path d="M185.783 49.419c-2.946 0-5.334 2.386-5.334 5.33s2.388 5.33 5.334 5.33 5.333-2.386 5.333-5.33-2.388-5.33-5.333-5.33zm-3.556 8.979a5.08 5.08 0 0 0 7.111 0v-.044c0-.475-.187-.93-.52-1.266s-.786-.524-1.257-.524h-3.556a1.77 1.77 0 0 0-1.257.524c-.334.336-.521.791-.521 1.266v.044zm5.334-4.465c0 .989-.796 1.79-1.778 1.79s-1.778-.801-1.778-1.79.796-1.79 1.778-1.79 1.778.801 1.778 1.79z" class="F"/></g><rect x="36.711" y="99.711" width="53.691" height="48.769" rx="2.844" class="B C E"/><g class="D"><use xlink:href="#B" y="56.19"/><path d="M51.112 130.483a1.78 1.78 0 0 1 1.778-1.777h21.334a1.78 1.78 0 0 1 1.778 1.777c0 .981-.796 1.776-1.778 1.776H52.89c-.982 0-1.778-.795-1.778-1.776zm-1.778 5.33l1.067 2.132 2.133.267-1.465 1.641.398 2.356-2.133-1.066-2.133 1.066.402-2.356-1.469-1.641 2.133-.267 1.067-2.132z"/><use xlink:href="#K"/><use xlink:href="#K" x="7.112"/><use xlink:href="#K" x="14.223"/><use xlink:href="#K" x="21.334"/><path d="M63.557 105.61c-2.946 0-5.334 2.386-5.334 5.33s2.388 5.33 5.334 5.33 5.333-2.387 5.333-5.33-2.388-5.33-5.333-5.33zm-3.556 8.978a5.08 5.08 0 0 0 7.111 0v-.043c0-.475-.187-.93-.521-1.266a1.77 1.77 0 0 0-1.257-.524h-3.556a1.77 1.77 0 0 0-1.257.524c-.333.336-.521.791-.521 1.266v.043zm5.333-4.465c0 .988-.796 1.79-1.778 1.79s-1.778-.802-1.778-1.79.796-1.79 1.778-1.79 1.778.801 1.778 1.79z" class="F"/></g><rect x="97.824" y="99.711" width="53.691" height="48.769" rx="2.844" class="B C E"/><g class="D"><use xlink:href="#L"/><use xlink:href="#M"/><use xlink:href="#E" y="56.191"/><use xlink:href="#F" y="56.191"/><use xlink:href="#G" y="56.191"/><use xlink:href="#H" y="56.191"/><use xlink:href="#F" x="21.334" y="56.191"/><use xlink:href="#N" class="F"/></g><rect x="158.937" y="99.711" width="53.691" height="48.769" rx="2.844" class="B C E"/><g class="D"><use xlink:href="#L" x="61.113"/><use xlink:href="#M" x="61.113"/><use xlink:href="#E" x="61.113" y="56.191"/><use xlink:href="#F" x="61.113" y="56.191"/><use xlink:href="#I" y="56.19"/><use xlink:href="#H" x="61.113" y="56.191"/><use xlink:href="#J" y="56.19"/><use xlink:href="#N" x="61.113" class="F"/></g><rect x="72.5" y="22.5" width="106" height="15" rx=".5" stroke="#f21197"/><rect x="75.75" y="25.25" width="99.5" height="9.5" rx=".75" stroke-width=".5" class="B C"/><text xml:space="preserve" style="white-space:pre" font-size="6" letter-spacing="0em" class="D G"><tspan x="79.5" y="32.266">Search Testimonials</tspan></text><g clip-path="url(#A)" stroke="#8796a1" stroke-width=".75" stroke-linejoin="round"><path d="M168.25 31.75a2 2 0 1 0 0-4 2 2 0 1 0 0 4z"/><path d="M170.75 32.25l-1.087-1.088" stroke-linecap="round"/></g><path d="M197.5 171a4 4 0 1 0 8 0 4 4 0 1 0-8 0zm41 0v.75a.75.75 0 0 0 .75-.75h-.75zm0-140h.75a.75.75 0 0 0-.75-.75V31zM180 31l7.5 4.33v-8.66L180 31zm21.5 140.75h37v-1.5h-37v1.5zm37.75-.75V31h-1.5v140h1.5zm-.75-140.75h-51.75v1.5h51.75v-1.5z" fill="#f21197"/><defs><clipPath id="A"><path transform="translate(165.5 27)" d="M0 0h6v6H0z" class="B"/></clipPath><path id="B" d="M43.112 67.186a1.78 1.78 0 0 1 1.778-1.777h37.335a1.78 1.78 0 0 1 1.778 1.777 1.78 1.78 0 0 1-1.778 1.777H44.889a1.78 1.78 0 0 1-1.778-1.777z"/><path id="C" d="M56.445 79.622l1.067 2.132 2.133.266-1.465 1.642.398 2.356-2.133-1.066-2.133 1.066.402-2.356-1.468-1.642 2.133-.266 1.067-2.132z"/><path id="D" d="M112.225 74.292a1.78 1.78 0 0 1 1.778-1.777h21.334a1.78 1.78 0 0 1 1.778 1.777 1.78 1.78 0 0 1-1.778 1.777h-21.334a1.78 1.78 0 0 1-1.778-1.777z"/><path id="E" d="M110.447 79.622l1.067 2.132 2.133.266-1.465 1.642.398 2.356-2.133-1.066-2.133 1.066.401-2.356-1.468-1.642 2.133-.266 1.067-2.132z"/><path id="F" d="M117.558 79.622l1.067 2.132 2.134.266-1.465 1.642.398 2.356-2.134-1.066-2.133 1.066.402-2.356-1.469-1.642 2.134-.266 1.066-2.132z"/><path id="G" d="M124.67 79.622l1.066 2.132 2.134.266-1.465 1.642.398 2.356-2.133-1.066-2.134 1.066.402-2.356-1.468-1.642 2.133-.266 1.067-2.132z"/><path id="H" d="M131.781 79.622l1.067 2.132 2.133.266-1.465 1.642.399 2.356-2.134-1.066-2.133 1.066.402-2.356-1.469-1.642 2.133-.266 1.067-2.132z"/><path id="I" d="M185.783 79.623l1.067 2.132 2.133.266-1.465 1.642.398 2.356-2.133-1.066-2.134 1.066.402-2.356-1.468-1.642 2.133-.266 1.067-2.132z"/><path id="J" d="M200.006 79.623l1.066 2.132 2.134.266-1.465 1.642.398 2.356-2.133-1.066-2.134 1.066.402-2.356-1.469-1.642 2.134-.266 1.067-2.132z"/><path id="K" d="M56.445 135.813l1.067 2.132 2.133.267-1.465 1.641.398 2.356-2.133-1.066-2.133 1.066.402-2.356-1.468-1.641 2.133-.267 1.067-2.132z"/><path id="L" d="M104.225 123.376a1.78 1.78 0 0 1 1.777-1.777h37.335a1.78 1.78 0 0 1 1.778 1.777 1.78 1.78 0 0 1-1.778 1.777h-37.335a1.78 1.78 0 0 1-1.777-1.777z"/><path id="M" d="M112.225 130.483c0-.982.796-1.777 1.778-1.777h21.334c.982 0 1.778.795 1.778 1.777s-.796 1.776-1.778 1.776h-21.334c-.982 0-1.778-.795-1.778-1.776z"/><path id="N" d="M124.67 105.609c-2.946 0-5.334 2.387-5.334 5.33s2.388 5.33 5.334 5.33 5.333-2.386 5.333-5.33-2.388-5.33-5.333-5.33zm-3.556 8.979a5.08 5.08 0 0 0 7.111 0v-.044c0-.474-.187-.929-.52-1.265a1.77 1.77 0 0 0-1.257-.524h-3.556a1.77 1.77 0 0 0-1.257.524c-.334.336-.521.791-.521 1.265v.044zm5.334-4.465c0 .988-.796 1.789-1.778 1.789s-1.778-.801-1.778-1.789.796-1.79 1.778-1.79 1.778.801 1.778 1.79z"/></defs></svg>