<svg xmlns="http://www.w3.org/2000/svg" xmlns:xlink="http://www.w3.org/1999/xlink" width="250" height="161" fill="none"><path fill="#fff" d="M0 0h250v161H0z"/><rect x="67.5" y="130.5" width="11" height="11" rx="5.5" fill="#ffd9f1" stroke="#f21197"/><text fill="#546069" xml:space="preserve" style="white-space:pre" font-family="Roboto" font-size="12" font-weight="600" letter-spacing="0em"><tspan x="83" y="140.031">Info Inner Padding</tspan></text><rect x="25.5" y="16.5" width="199" height="107" rx="3.5" fill="#fff"/><rect x="25.5" y="16.5" width="199" height="107" rx="3.5" stroke="#bbc2c7"/><path fill="#f0f0f0" d="M41 24.5h79v91H41z"/><g fill="#718491"><path d="M80.674 62.167l3.674-4.454H77l3.674 4.454z"/><path d="M41 24.5h79v34H41z"/></g><path d="M46 30.697A1.7 1.7 0 0 1 47.697 29h59.606A1.7 1.7 0 0 1 109 30.697a1.7 1.7 0 0 1-1.697 1.697H47.697A1.7 1.7 0 0 1 46 30.697zm0 7.212a1.7 1.7 0 0 1 1.697-1.697h59.606A1.7 1.7 0 0 1 109 37.909a1.7 1.7 0 0 1-1.697 1.697H47.697A1.7 1.7 0 0 1 46 37.909zm0 7.212a1.7 1.7 0 0 1 1.697-1.697h59.606A1.7 1.7 0 0 1 109 45.121a1.7 1.7 0 0 1-1.697 1.697H47.697A1.7 1.7 0 0 1 46 45.121zm0 7.212a1.7 1.7 0 0 1 1.697-1.697h51.757c.938 0 1.697.76 1.697 1.697s-.759 1.697-1.697 1.697H47.697A1.7 1.7 0 0 1 46 52.333z" fill="#fff"/><path fill-rule="evenodd" d="M80.078 70.742a6.79 6.79 0 0 0-6.788 6.788 6.79 6.79 0 0 0 6.788 6.788 6.79 6.79 0 0 0 6.788-6.788 6.79 6.79 0 0 0-6.788-6.788zm-4.525 11.435c1.169 1.138 2.765 1.839 4.525 1.839s3.357-.701 4.525-1.839v-.055a2.29 2.29 0 0 0-.663-1.612c-.424-.427-1-.668-1.6-.668h-4.525c-.6 0-1.176.24-1.6.668a2.29 2.29 0 0 0-.663 1.612v.055zm6.788-5.687c0 1.259-1.013 2.279-2.263 2.279s-2.263-1.02-2.263-2.279 1.013-2.279 2.263-2.279 2.263 1.02 2.263 2.279z" fill="#8d9da7"/><g fill="#718491"><path d="M59.29 88.833a2.12 2.12 0 0 1 2.121-2.121h38.182a2.12 2.12 0 1 1 0 4.242H61.411a2.12 2.12 0 0 1-2.121-2.121z"/><use xlink:href="#B"/><use xlink:href="#B" x="5.94"/><path d="M80.502 94.251l.891 1.782 1.782.223-1.224 1.372.333 1.969-1.782-.891-1.782.891.336-1.969-1.226-1.372 1.782-.223.891-1.782z"/><use xlink:href="#B" x="17.819"/><path d="M92.381 94.251l.891 1.782 1.782.223-1.224 1.372.333 1.969-1.782-.891-1.782.891.335-1.969-1.226-1.372 1.782-.223.891-1.782z"/></g><use xlink:href="#C" fill="#8d9da7"/><path fill="#f0f0f0" d="M130 24.5h79v91h-79z"/><g fill="#718491"><path d="M169.674 62.167l3.674-4.454H166l3.674 4.454z"/><path d="M130 24.5h79v34h-79z"/></g><path d="M135 30.697A1.7 1.7 0 0 1 136.697 29h59.606A1.7 1.7 0 0 1 198 30.697a1.7 1.7 0 0 1-1.697 1.697h-59.606A1.7 1.7 0 0 1 135 30.697zm0 7.212a1.7 1.7 0 0 1 1.697-1.697h59.606A1.7 1.7 0 0 1 198 37.909a1.7 1.7 0 0 1-1.697 1.697h-59.606A1.7 1.7 0 0 1 135 37.909zm0 7.212a1.7 1.7 0 0 1 1.697-1.697h59.606A1.7 1.7 0 0 1 198 45.121a1.7 1.7 0 0 1-1.697 1.697h-59.606A1.7 1.7 0 0 1 135 45.121zm0 7.212a1.7 1.7 0 0 1 1.697-1.697h51.757c.938 0 1.697.76 1.697 1.697s-.759 1.697-1.697 1.697h-51.757A1.7 1.7 0 0 1 135 52.333z" fill="#fff"/><path fill-rule="evenodd" d="M169.078 70.742a6.79 6.79 0 0 0-6.788 6.788 6.79 6.79 0 0 0 6.788 6.788 6.79 6.79 0 0 0 6.788-6.788 6.79 6.79 0 0 0-6.788-6.788zm-4.525 11.435c1.168 1.138 2.765 1.839 4.525 1.839s3.357-.701 4.525-1.839v-.055c0-.605-.238-1.184-.663-1.612a2.25 2.25 0 0 0-1.599-.668h-4.526c-.6 0-1.175.24-1.6.668a2.29 2.29 0 0 0-.662 1.612v.055zm6.788-5.687c0 1.259-1.013 2.279-2.263 2.279s-2.263-1.02-2.263-2.279 1.013-2.279 2.263-2.279 2.263 1.02 2.263 2.279z" fill="#8d9da7"/><g fill="#718491"><path d="M148.29 88.833a2.12 2.12 0 0 1 2.121-2.121h38.182a2.121 2.121 0 1 1 0 4.242h-38.182a2.12 2.12 0 0 1-2.121-2.121zm9.333 5.418l.891 1.782 1.782.223-1.223 1.372.332 1.969-1.782-.891-1.781.891.335-1.969-1.226-1.372 1.781-.223.891-1.782zm5.94 0l.891 1.782 1.781.223-1.223 1.372.333 1.969-1.782-.891-1.782.891.335-1.969-1.226-1.372 1.782-.223.891-1.782z"/><use xlink:href="#B" x="100.879"/><path d="M175.441 94.251l.891 1.782 1.782.223-1.223 1.372.332 1.969-1.782-.891-1.781.891.335-1.969-1.226-1.372 1.782-.223.89-1.782z"/><use xlink:href="#B" x="112.758"/></g><use xlink:href="#C" x="89" fill="#8d9da7"/><path d="M200.5 68.5h-62v-5h62zm0 45h-62v-5h62zm-63.541 0h-5v-50h5v50zm70 0h-5v-50h5v50z" fill="#ffd9f1" stroke="#f21197"/><path d="M183 138a4 4 0 1 0 8 0 4 4 0 1 0-8 0zm45 0v.75a.75.75 0 0 0 .75-.75H228zm0-52h.75a.75.75 0 0 0-.75-.75V86zm-20.5 0l7.5 4.33v-8.66L207.5 86zM187 138.75h41v-1.5h-41v1.5zm41.75-.75V86h-1.5v52h1.5zM228 85.25h-13.75v1.5H228v-1.5z" fill="#f21197"/><defs ><path id="B" d="M68.623 94.251l.891 1.782 1.782.223-1.224 1.372.333 1.969-1.782-.891-1.782.891.336-1.969-1.227-1.372 1.782-.223.891-1.782z"/><path id="C" d="M65.229 104.166c0-.702.57-1.272 1.273-1.272h28c.703 0 1.273.57 1.273 1.272s-.57 1.273-1.273 1.273h-28c-.703 0-1.273-.57-1.273-1.273z"/></defs></svg>