<svg xmlns="http://www.w3.org/2000/svg" width="250" height="192" fill="none" xmlns:v="https://vecta.io/nano"><style><![CDATA[.B{fill:#fff}.C{stroke:#718491}.D{fill:#718491}.E{stroke-width:1.422}.F{fill-rule:evenodd}.G{stroke-width:.5}.H{font-family:Roboto}]]></style><path d="M0 0h250v192H0z" class="B"/><rect x="72" y="164.5" width="11" height="11" rx="5.5" fill="#ffd9f1" stroke="#f21197"/><text fill="#546069" xml:space="preserve" style="white-space:pre" font-size="12" font-weight="600" letter-spacing="0em" class="H"><tspan x="87.5" y="174.031">Inline Filter Style</tspan></text><rect x="20.5" y="16.5" width="209" height="139" rx="3.5" class="B"/><rect x="20.5" y="16.5" width="209" height="139" rx="3.5" stroke="#bbc2c7"/><rect x="36.711" y="43.521" width="53.691" height="48.769" rx="2.844" class="B C E"/><g class="D"><use href="#B"/><path d="M51.112 74.292a1.78 1.78 0 0 1 1.778-1.777h21.334a1.78 1.78 0 0 1 1.778 1.777 1.78 1.78 0 0 1-1.778 1.777H52.89a1.78 1.78 0 0 1-1.778-1.777zm-1.778 5.33l1.067 2.132 2.133.266-1.465 1.642.398 2.356-2.133-1.066-2.133 1.066.402-2.356-1.469-1.642 2.133-.266 1.067-2.132z"/><use href="#C"/><use href="#C" x="7.112"/><use href="#C" x="14.223"/><use href="#C" x="21.334"/><path d="M63.557 49.419c-2.946 0-5.334 2.386-5.334 5.33s2.388 5.33 5.334 5.33 5.333-2.386 5.333-5.33-2.388-5.33-5.333-5.33zm-3.556 8.979a5.08 5.08 0 0 0 7.111 0v-.044c0-.475-.187-.93-.521-1.265a1.77 1.77 0 0 0-1.257-.524h-3.556a1.77 1.77 0 0 0-1.257.524c-.333.336-.521.791-.521 1.265v.044zm5.333-4.465c0 .988-.796 1.79-1.778 1.79s-1.778-.801-1.778-1.79.796-1.79 1.778-1.79 1.778.801 1.778 1.79z" class="F"/></g><rect x="97.824" y="43.521" width="53.691" height="48.769" rx="2.844" class="B C E"/><g class="D"><path d="M104.225 67.186a1.78 1.78 0 0 1 1.777-1.777h37.335a1.78 1.78 0 0 1 1.778 1.777 1.78 1.78 0 0 1-1.778 1.777h-37.335c-.981 0-1.777-.795-1.777-1.777z"/><use href="#D"/><use href="#E"/><use href="#F"/><use href="#G"/><use href="#H"/><use href="#F" x="21.334"/><path d="M124.67 49.419c-2.946 0-5.334 2.386-5.334 5.33s2.388 5.33 5.334 5.33 5.333-2.386 5.333-5.33-2.388-5.33-5.333-5.33zm-3.556 8.979a5.08 5.08 0 0 0 7.111 0v-.044c0-.475-.187-.93-.52-1.265s-.786-.524-1.257-.524h-3.556a1.77 1.77 0 0 0-1.257.524c-.334.336-.521.791-.521 1.265v.044zm5.334-4.465c0 .988-.796 1.79-1.778 1.79s-1.778-.801-1.778-1.79.796-1.79 1.778-1.79 1.778.801 1.778 1.79z" class="F"/></g><rect x="158.937" y="43.521" width="53.691" height="48.769" rx="2.844" class="B C E"/><g class="D"><path d="M165.338 67.186c0-.981.796-1.777 1.777-1.777h37.335a1.78 1.78 0 0 1 1.778 1.777 1.78 1.78 0 0 1-1.778 1.777h-37.335a1.78 1.78 0 0 1-1.777-1.777z"/><use href="#D" x="61.113"/><use href="#E" x="61.113" y="0.001"/><use href="#F" x="61.113" y="0.001"/><use href="#I"/><use href="#H" x="61.113" y="0.001"/><use href="#J"/><path d="M185.783 49.419c-2.946 0-5.334 2.386-5.334 5.33s2.388 5.33 5.334 5.33 5.333-2.386 5.333-5.33-2.388-5.33-5.333-5.33zm-3.556 8.979a5.08 5.08 0 0 0 7.111 0v-.044c0-.475-.187-.93-.52-1.266s-.786-.524-1.257-.524h-3.556a1.77 1.77 0 0 0-1.257.524c-.334.336-.521.791-.521 1.266v.044zm5.334-4.465c0 .989-.796 1.79-1.778 1.79s-1.778-.801-1.778-1.79.796-1.79 1.778-1.79 1.778.801 1.778 1.79z" class="F"/></g><rect x="36.711" y="99.711" width="53.691" height="48.769" rx="2.844" class="B C E"/><g class="D"><use href="#B" y="56.19"/><path d="M51.112 130.483a1.78 1.78 0 0 1 1.778-1.777h21.334a1.78 1.78 0 0 1 1.778 1.777c0 .981-.796 1.776-1.778 1.776H52.89c-.982 0-1.778-.795-1.778-1.776zm-1.778 5.33l1.067 2.132 2.133.267-1.465 1.641.398 2.356-2.133-1.066-2.133 1.066.402-2.356-1.469-1.641 2.133-.267 1.067-2.132z"/><use href="#K"/><use href="#K" x="7.112"/><use href="#K" x="14.223"/><use href="#K" x="21.334"/><path d="M63.557 105.61c-2.946 0-5.334 2.386-5.334 5.33s2.388 5.33 5.334 5.33 5.333-2.387 5.333-5.33-2.388-5.33-5.333-5.33zm-3.556 8.978a5.08 5.08 0 0 0 7.111 0v-.043c0-.475-.187-.93-.521-1.266a1.77 1.77 0 0 0-1.257-.524h-3.556a1.77 1.77 0 0 0-1.257.524c-.333.336-.521.791-.521 1.266v.043zm5.333-4.465c0 .988-.796 1.79-1.778 1.79s-1.778-.802-1.778-1.79.796-1.79 1.778-1.79 1.778.801 1.778 1.79z" class="F"/></g><rect x="97.824" y="99.711" width="53.691" height="48.769" rx="2.844" class="B C E"/><g class="D"><use href="#L"/><use href="#M"/><use href="#E" y="56.191"/><use href="#F" y="56.191"/><use href="#G" y="56.191"/><use href="#H" y="56.191"/><use href="#F" x="21.334" y="56.191"/><use href="#N" class="F"/></g><rect x="158.937" y="99.711" width="53.691" height="48.769" rx="2.844" class="B C E"/><g class="D"><use href="#L" x="61.113"/><use href="#M" x="61.113"/><use href="#E" x="61.113" y="56.191"/><use href="#F" x="61.113" y="56.191"/><use href="#I" y="56.19"/><use href="#H" x="61.113" y="56.191"/><use href="#J" y="56.19"/><use href="#N" x="61.113" class="F"/></g><rect x="36.5" y="22.5" width="176" height="15" rx=".5" stroke="#f21197"/><rect x="41.25" y="26.25" width="16.5" height="7.5" rx=".75" class="C D G"/><text xml:space="preserve" style="white-space:pre" font-size="6" font-weight="600" letter-spacing="0em" class="B H"><tspan x="45.5" y="32.266">All</tspan></text><rect x="62.25" y="26.25" width="21.5" height="7.5" rx=".75" class="C D G"/><rect x="66" y="29" width="14" height="2" rx="1" class="B"/><rect x="88.25" y="26.25" width="24.5" height="7.5" rx=".75" class="C D G"/><rect x="92.5" y="29" width="16" height="2" rx="1" class="B"/><rect x="117.25" y="26.25" width="24.5" height="7.5" rx=".75" class="C D G"/><rect x="121.5" y="29" width="16" height="2" rx="1" class="B"/><rect x="176.25" y="26.25" width="32.5" height="7.5" rx=".75" class="D"/><rect x="176.25" y="26.25" width="32.5" height="7.5" rx=".75" class="C G"/><rect x="181" y="29" width="16" height="2" rx="1" class="B"/><path d="M201 29l2 2 2-2" stroke="#fff" stroke-width=".75" stroke-linecap="round" stroke-linejoin="round"/><path d="M179.5 171a4 4 0 1 0 8 0 4 4 0 1 0-8 0zm59 0v.75a.75.75 0 0 0 .75-.75h-.75zm0-140h.75a.75.75 0 0 0-.75-.75V31zM215 31l7.5 4.33v-8.66L215 31zm-31.5 140.75h55v-1.5h-55v1.5zm55.75-.75V31h-1.5v140h1.5zm-.75-140.75h-16.75v1.5h16.75v-1.5z" fill="#f21197"/><defs ><path id="B" d="M43.112 67.186a1.78 1.78 0 0 1 1.778-1.777h37.335a1.78 1.78 0 0 1 1.778 1.777 1.78 1.78 0 0 1-1.778 1.777H44.889a1.78 1.78 0 0 1-1.778-1.777z"/><path id="C" d="M56.445 79.622l1.067 2.132 2.133.266-1.465 1.642.398 2.356-2.133-1.066-2.133 1.066.402-2.356-1.468-1.642 2.133-.266 1.067-2.132z"/><path id="D" d="M112.225 74.292a1.78 1.78 0 0 1 1.778-1.777h21.334a1.78 1.78 0 0 1 1.778 1.777 1.78 1.78 0 0 1-1.778 1.777h-21.334a1.78 1.78 0 0 1-1.778-1.777z"/><path id="E" d="M110.447 79.622l1.067 2.132 2.133.266-1.465 1.642.398 2.356-2.133-1.066-2.133 1.066.401-2.356-1.468-1.642 2.133-.266 1.067-2.132z"/><path id="F" d="M117.558 79.622l1.067 2.132 2.134.266-1.465 1.642.398 2.356-2.134-1.066-2.133 1.066.402-2.356-1.469-1.642 2.134-.266 1.066-2.132z"/><path id="G" d="M124.67 79.622l1.066 2.132 2.134.266-1.465 1.642.398 2.356-2.133-1.066-2.134 1.066.402-2.356-1.468-1.642 2.133-.266 1.067-2.132z"/><path id="H" d="M131.781 79.622l1.067 2.132 2.133.266-1.465 1.642.399 2.356-2.134-1.066-2.133 1.066.402-2.356-1.469-1.642 2.133-.266 1.067-2.132z"/><path id="I" d="M185.783 79.623l1.067 2.132 2.133.266-1.465 1.642.398 2.356-2.133-1.066-2.134 1.066.402-2.356-1.468-1.642 2.133-.266 1.067-2.132z"/><path id="J" d="M200.006 79.623l1.066 2.132 2.134.266-1.465 1.642.398 2.356-2.133-1.066-2.134 1.066.402-2.356-1.469-1.642 2.134-.266 1.067-2.132z"/><path id="K" d="M56.445 135.813l1.067 2.132 2.133.267-1.465 1.641.398 2.356-2.133-1.066-2.133 1.066.402-2.356-1.468-1.641 2.133-.267 1.067-2.132z"/><path id="L" d="M104.225 123.376a1.78 1.78 0 0 1 1.777-1.777h37.335a1.78 1.78 0 0 1 1.778 1.777 1.78 1.78 0 0 1-1.778 1.777h-37.335a1.78 1.78 0 0 1-1.777-1.777z"/><path id="M" d="M112.225 130.483c0-.982.796-1.777 1.778-1.777h21.334c.982 0 1.778.795 1.778 1.777s-.796 1.776-1.778 1.776h-21.334c-.982 0-1.778-.795-1.778-1.776z"/><path id="N" d="M124.67 105.609c-2.946 0-5.334 2.387-5.334 5.33s2.388 5.33 5.334 5.33 5.333-2.386 5.333-5.33-2.388-5.33-5.333-5.33zm-3.556 8.979a5.08 5.08 0 0 0 7.111 0v-.044c0-.474-.187-.929-.52-1.265a1.77 1.77 0 0 0-1.257-.524h-3.556a1.77 1.77 0 0 0-1.257.524c-.334.336-.521.791-.521 1.265v.044zm5.334-4.465c0 .988-.796 1.789-1.778 1.789s-1.778-.801-1.778-1.789.796-1.79 1.778-1.79 1.778.801 1.778 1.79z"/></defs></svg>