<svg xmlns="http://www.w3.org/2000/svg" xmlns:xlink="http://www.w3.org/1999/xlink" width="250" height="152" fill="none" xmlns:v="https://vecta.io/nano"><path fill="#fff" d="M0 0h250v152H0z"/><rect x="79.5" y="121.5" width="11" height="11" rx="5.5" fill="#ffd9f1" stroke="#f21197"/><text fill="#546069" xml:space="preserve" style="white-space:pre" font-family="Roboto" font-size="12" font-weight="600" letter-spacing="0em"><tspan x="95" y="131.031">Rating Margin</tspan></text><rect x="19.5" y="20.5" width="211" height="88" rx="3.5" fill="#fff"/><rect x="19.5" y="20.5" width="211" height="88" rx="3.5" stroke="#bbc2c7"/><rect x="32.5" y="34.5" width="56" height="60" rx="3.489" fill="#fff" stroke="#718491" stroke-width="1.5"/><g fill="#718491"><use xlink:href="#B"/><use xlink:href="#B" x="7.305"/><use xlink:href="#B" x="14.609"/><path d="M67.804 74.039L68.9 76.23l2.191.274-1.505 1.687.409 2.421-2.191-1.096-2.191 1.096.413-2.421-1.508-1.687 2.191-.274 1.096-2.191z"/><use xlink:href="#B" x="29.218"/><path fill-rule="evenodd" d="M59.587 39.5c-4.034 0-7.304 3.27-7.304 7.304s3.27 7.304 7.304 7.304 7.304-3.27 7.304-7.304-3.27-7.304-7.304-7.304zm-4.87 12.305c1.258 1.225 2.975 1.979 4.87 1.979s3.612-.755 4.87-1.979v-.06a2.46 2.46 0 0 0-.713-1.734c-.457-.46-1.076-.718-1.722-.718h-4.87c-.646 0-1.265.258-1.722.718a2.46 2.46 0 0 0-.713 1.734v.06zm7.304-6.12c0 1.355-1.09 2.453-2.435 2.453s-2.435-1.098-2.435-2.453 1.09-2.453 2.435-2.453 2.435 1.098 2.435 2.453z"/><path d="M47.5 61a1.5 1.5 0 0 1 1.5-1.5h23a1.5 1.5 0 1 1 0 3H49a1.5 1.5 0 0 1-1.5-1.5zm-8 6a1.5 1.5 0 0 1 1.5-1.5h39a1.5 1.5 0 1 1 0 3H41a1.5 1.5 0 0 1-1.5-1.5zm8 20a1.5 1.5 0 0 1 1.5-1.5h23a1.5 1.5 0 1 1 0 3H49a1.5 1.5 0 0 1-1.5-1.5z"/></g><rect x="96.5" y="34.5" width="56" height="60" rx="3.489" fill="#fff" stroke="#718491" stroke-width="1.5"/><g fill="#718491"><use xlink:href="#C"/><use xlink:href="#D"/><use xlink:href="#E"/><use xlink:href="#C" x="21.913"/><use xlink:href="#D" x="21.913"/><use xlink:href="#F" fill-rule="evenodd"/><use xlink:href="#G"/><path d="M103.5 67a1.5 1.5 0 0 1 1.5-1.5h39a1.5 1.5 0 1 1 0 3h-39a1.5 1.5 0 0 1-1.5-1.5z"/><use xlink:href="#G" y="26"/></g><rect x="160.5" y="34.5" width="56" height="60" rx="3.489" fill="#fff" stroke="#718491" stroke-width="1.5"/><g fill="#718491"><use xlink:href="#C" x="64"/><use xlink:href="#D" x="64"/><use xlink:href="#E" x="64"/><use xlink:href="#C" x="85.913"/><use xlink:href="#D" x="85.913"/><use xlink:href="#F" x="64" fill-rule="evenodd"/><use xlink:href="#G" x="64"/><path d="M167.5 67a1.5 1.5 0 0 1 1.5-1.5h39a1.5 1.5 0 1 1 0 3h-39a1.5 1.5 0 0 1-1.5-1.5z"/><use xlink:href="#G" x="64" y="26"/></g><path d="M210.54 72.7H167v-3h43.54zm0 11.8H167v-3h43.54zM170 80h-3v-6h3v6zm40.54 0h-3v-6h3v6z" fill="#ffd9f1" stroke="#f21197"/><path d="M171 129a4 4 0 1 0 8 0 4 4 0 1 0-8 0zm62 0v.75a.75.75 0 0 0 .75-.736L233 129zm1-53l.75.014a.75.75 0 0 0-.75-.764V76zm-22.5 0l7.5 4.33v-8.66L211.5 76zM175 129.75h58v-1.5h-58v1.5zm58.75-.736l1-53-1.5-.028-1 53 1.5.028zM234 75.25h-15.75v1.5H234v-1.5z" fill="#f21197"/><defs ><path id="B" d="M45.891 74.039l1.096 2.191 2.191.274-1.505 1.687.409 2.421-2.191-1.096-2.191 1.096.413-2.421-1.508-1.687 2.191-.274 1.096-2.191z"/><path id="C" d="M109.891 74.039l1.096 2.191 2.191.274-1.504 1.687.409 2.421-2.192-1.096-2.191 1.096.413-2.421-1.509-1.687 2.192-.274 1.095-2.191z"/><path id="D" d="M117.196 74.039l1.095 2.191 2.192.274-1.505 1.687.409 2.421-2.191-1.096-2.192 1.096.413-2.421-1.508-1.687 2.191-.274 1.096-2.191z"/><path id="E" d="M124.5 74.039l1.096 2.191 2.191.274-1.505 1.687.409 2.421-2.191-1.096-2.191 1.096.412-2.421-1.508-1.687 2.191-.274 1.096-2.191z"/><path id="F" d="M123.587 39.5c-4.034 0-7.304 3.27-7.304 7.304s3.27 7.304 7.304 7.304 7.304-3.27 7.304-7.304-3.27-7.304-7.304-7.304zm-4.87 12.305a6.96 6.96 0 0 0 9.74 0v-.06a2.46 2.46 0 0 0-.714-1.734c-.456-.46-1.076-.718-1.721-.718h-4.87c-.646 0-1.265.258-1.721.718a2.46 2.46 0 0 0-.714 1.734v.06zm7.305-6.12c0 1.355-1.09 2.453-2.435 2.453s-2.435-1.098-2.435-2.453 1.09-2.453 2.435-2.453 2.435 1.098 2.435 2.453z"/><path id="G" d="M111.5 61a1.5 1.5 0 0 1 1.5-1.5h23a1.5 1.5 0 1 1 0 3h-23a1.5 1.5 0 0 1-1.5-1.5z"/></defs></svg>