<svg xmlns="http://www.w3.org/2000/svg" xmlns:xlink="http://www.w3.org/1999/xlink" width="250" height="152" fill="none" xmlns:v="https://vecta.io/nano"><path fill="#fff" d="M0 0h250v152H0z"/><rect x="61.5" y="121.5" width="11" height="11" rx="5.5" fill="#ffd9f1" stroke="#f21197"/><text fill="#546069" xml:space="preserve" style="white-space:pre" font-family="Roboto" font-size="12" font-weight="600" letter-spacing="0em"><tspan x="77" y="131.031">Social Media Margin</tspan></text><rect x="19.5" y="20.5" width="211" height="88" rx="3.5" fill="#fff"/><rect x="19.5" y="20.5" width="211" height="88" rx="3.5" stroke="#bbc2c7"/><rect x="32.5" y="32.5" width="56" height="64" rx="3.489" fill="#fff" stroke="#718491" stroke-width="1.5"/><g fill="#718491"><use xlink:href="#B"/><use xlink:href="#B" x="7.305"/><use xlink:href="#B" x="14.609"/><path d="M67.804 69.039L68.9 71.23l2.191.274-1.505 1.687.409 2.421-2.191-1.096-2.191 1.096.413-2.421-1.508-1.687 2.191-.274 1.096-2.191z"/><use xlink:href="#B" x="29.218"/><path fill-rule="evenodd" d="M59.587 37.5c-4.034 0-7.304 3.27-7.304 7.304s3.27 7.304 7.304 7.304 7.304-3.27 7.304-7.304-3.27-7.304-7.304-7.304zm-4.87 12.305c1.258 1.225 2.975 1.979 4.87 1.979s3.612-.755 4.87-1.979v-.06a2.46 2.46 0 0 0-.713-1.734c-.457-.46-1.076-.718-1.722-.718h-4.87c-.646 0-1.265.258-1.722.718a2.46 2.46 0 0 0-.713 1.734v.06zm7.304-6.12c0 1.355-1.09 2.453-2.435 2.453s-2.435-1.098-2.435-2.453 1.09-2.453 2.435-2.453 2.435 1.098 2.435 2.453z"/><path d="M47.5 59a1.5 1.5 0 0 1 1.5-1.5h23a1.5 1.5 0 1 1 0 3H49a1.5 1.5 0 0 1-1.5-1.5zm-8 6a1.5 1.5 0 0 1 1.5-1.5h39a1.5 1.5 0 1 1 0 3H41a1.5 1.5 0 0 1-1.5-1.5z"/></g><path d="M53.857 81h-4.714c-.355 0-.643.288-.643.643v4.714c0 .355.288.643.643.643h4.714c.355 0 .643-.288.643-.643v-4.714c0-.355-.288-.643-.643-.643zm-.655 2.127l.003.114c0 1.161-.884 2.499-2.499 2.499a2.49 2.49 0 0 1-1.349-.394 1.86 1.86 0 0 0 .212.011 1.76 1.76 0 0 0 1.09-.375.88.88 0 0 1-.821-.609.95.95 0 0 0 .396-.016.88.88 0 0 1-.703-.862v-.011a.88.88 0 0 0 .397.111c-.12-.08-.219-.189-.288-.317a.87.87 0 0 1-.104-.415.87.87 0 0 1 .119-.443c.433.533 1.082.881 1.811.919a.88.88 0 0 1 1.499-.802 1.72 1.72 0 0 0 .557-.212c-.066.204-.203.375-.386.484a1.73 1.73 0 0 0 .506-.137 1.85 1.85 0 0 1-.441.455zM62.72 81h-4.714a.65.65 0 0 0-.455.188.64.64 0 0 0-.188.454v4.714c0 .17.068.334.188.454s.284.188.455.188h1.838v-2.04H59V84h.844v-.732c0-.832.495-1.292 1.255-1.292.363 0 .744.065.744.065v.817h-.419c-.413 0-.541.256-.541.519V84h.921l-.147.96h-.774V87h1.838c.171 0 .334-.068.455-.188a.64.64 0 0 0 .188-.454v-4.714a.64.64 0 0 0-.188-.454.65.65 0 0 0-.456-.19zm9.075 0h-5.144a.43.43 0 0 0-.427.433v5.135a.43.43 0 0 0 .427.433h5.144a.43.43 0 0 0 .429-.433v-5.135a.43.43 0 0 0-.429-.433zm-4.647 5.143V83.28h.891v2.863h-.891zm.445-3.254c-.285 0-.516-.232-.516-.516s.23-.516.516-.516.516.232.516.516-.23.516-.516.516zm3.778 3.254h-.889V84.75c0-.332-.007-.759-.462-.759-.463 0-.534.362-.534.735v1.417h-.889V83.28h.853v.391h.012c.119-.225.41-.462.842-.462.9 0 1.067.593 1.067 1.365v1.57z" fill="#8796a1"/><rect x="96.5" y="32.5" width="56" height="64" rx="3.489" fill="#fff" stroke="#718491" stroke-width="1.5"/><g fill="#718491"><use xlink:href="#C"/><use xlink:href="#D"/><use xlink:href="#E"/><use xlink:href="#C" x="21.913"/><use xlink:href="#D" x="21.913"/><use xlink:href="#F" fill-rule="evenodd"/><path d="M111.5 59a1.5 1.5 0 0 1 1.5-1.5h23a1.5 1.5 0 1 1 0 3h-23a1.5 1.5 0 0 1-1.5-1.5zm-8 6a1.5 1.5 0 0 1 1.5-1.5h39a1.5 1.5 0 1 1 0 3h-39a1.5 1.5 0 0 1-1.5-1.5z"/></g><g fill="#8796a1"><use xlink:href="#G"/><path d="M126.719 81h-4.714a.64.64 0 0 0-.643.643v4.714a.64.64 0 0 0 .643.643h1.838v-2.04H123V84h.843v-.732c0-.832.496-1.292 1.255-1.292a5.11 5.11 0 0 1 .743.065v.817h-.418c-.413 0-.542.256-.542.519V84h.921l-.147.96h-.774V87h1.838c.171 0 .334-.068.455-.188a.64.64 0 0 0 .188-.454v-4.714a.64.64 0 0 0-.188-.454c-.121-.121-.284-.188-.455-.188z"/><use xlink:href="#H"/></g><rect x="160.5" y="32.5" width="56" height="64" rx="3.489" fill="#fff" stroke="#718491" stroke-width="1.5"/><g fill="#718491"><use xlink:href="#C" x="64"/><use xlink:href="#D" x="64"/><use xlink:href="#E" x="64"/><use xlink:href="#C" x="85.913"/><use xlink:href="#D" x="85.913"/><use xlink:href="#F" x="64" fill-rule="evenodd"/><path d="M175.5 59a1.5 1.5 0 0 1 1.5-1.5h23a1.5 1.5 0 1 1 0 3h-23a1.5 1.5 0 0 1-1.5-1.5zm-8 6a1.5 1.5 0 0 1 1.5-1.5h39a1.5 1.5 0 1 1 0 3h-39a1.5 1.5 0 0 1-1.5-1.5z"/></g><path d="M204.5 79.5h-32v-3h32zm0 12h-32v-3h32zm0-4.5h-3v-6h3v6zm-29 0h-3v-6h3v6z" fill="#ffd9f1" stroke="#f21197"/><g fill="#8796a1"><use xlink:href="#G" x="64"/><path d="M190.719 81h-4.714a.64.64 0 0 0-.643.643v4.714a.64.64 0 0 0 .643.643h1.838v-2.04H187V84h.843v-.732c0-.832.496-1.292 1.255-1.292a5.11 5.11 0 0 1 .743.065v.817h-.418c-.413 0-.542.256-.542.519V84h.921l-.147.96h-.774V87h1.838c.171 0 .334-.068.455-.188a.64.64 0 0 0 .188-.454v-4.714a.64.64 0 0 0-.188-.454c-.121-.121-.284-.188-.455-.188z"/><use xlink:href="#H" x="64"/></g><path d="M189 129a4 4 0 1 0 8 0 4 4 0 1 0-8 0zm44 0v.75a.75.75 0 0 0 .75-.75H233zm0-45h.75a.75.75 0 0 0-.75-.75V84zm-27.5 0l7.5 4.33v-8.66L205.5 84zM193 129.75h40v-1.5h-40v1.5zm40.75-.75V84h-1.5v45h1.5zM233 83.25h-20.75v1.5H233v-1.5z" fill="#f21197"/><defs ><path id="B" d="M45.891 69.039l1.096 2.191 2.191.274-1.505 1.687.409 2.421-2.191-1.096-2.191 1.096.413-2.421-1.508-1.687 2.191-.274 1.096-2.191z"/><path id="C" d="M109.891 69.039l1.096 2.191 2.191.274-1.504 1.687.409 2.421-2.192-1.096-2.191 1.096.413-2.421-1.509-1.687 2.192-.274 1.095-2.191z"/><path id="D" d="M117.196 69.039l1.095 2.191 2.192.274-1.505 1.687.409 2.421-2.191-1.096-2.192 1.096.413-2.421-1.508-1.687 2.191-.274 1.096-2.191z"/><path id="E" d="M124.5 69.039l1.096 2.191 2.191.274-1.505 1.687.409 2.421-2.191-1.096-2.191 1.096.412-2.421-1.508-1.687 2.191-.274 1.096-2.191z"/><path id="F" d="M123.587 37.5c-4.034 0-7.304 3.27-7.304 7.304s3.27 7.304 7.304 7.304 7.304-3.27 7.304-7.304-3.27-7.304-7.304-7.304zm-4.87 12.305a6.96 6.96 0 0 0 9.74 0v-.06a2.46 2.46 0 0 0-.714-1.734c-.456-.46-1.076-.718-1.721-.718h-4.87c-.646 0-1.265.258-1.721.718a2.46 2.46 0 0 0-.714 1.734v.06zm7.305-6.12c0 1.355-1.09 2.453-2.435 2.453s-2.435-1.098-2.435-2.453 1.09-2.453 2.435-2.453 2.435 1.098 2.435 2.453z"/><path id="G" d="M117.857 81h-4.714c-.355 0-.643.288-.643.643v4.714c0 .355.288.643.643.643h4.714c.355 0 .643-.288.643-.643v-4.714c0-.355-.288-.643-.643-.643zm-.655 2.127a1.44 1.44 0 0 1 .003.114c0 1.161-.884 2.499-2.499 2.499a2.49 2.49 0 0 1-1.349-.394 1.86 1.86 0 0 0 .212.011 1.76 1.76 0 0 0 1.09-.375.88.88 0 0 1-.821-.609c.135.02.257.02.396-.016a.88.88 0 0 1-.703-.862v-.011a.88.88 0 0 0 .397.111.87.87 0 0 1-.391-.731.86.86 0 0 1 .119-.443c.432.533 1.082.881 1.81.919a.88.88 0 0 1 .858-1.079c.253 0 .48.106.641.277.198-.038.388-.111.557-.212-.065.204-.203.375-.385.484a1.75 1.75 0 0 0 .506-.137 1.84 1.84 0 0 1-.441.455z"/><path id="H" d="M135.795 81h-5.144a.43.43 0 0 0-.427.433v5.135a.43.43 0 0 0 .427.433h5.144c.236 0 .429-.194.429-.433v-5.135c0-.238-.193-.433-.429-.433zm-4.647 5.143V83.28h.891v2.863h-.891zm.445-3.254c-.285 0-.516-.232-.516-.516s.231-.516.516-.516.515.232.515.516-.23.516-.515.516zm3.778 3.254h-.889V84.75c0-.332-.007-.759-.462-.759-.464 0-.535.362-.535.735v1.417h-.889V83.28h.853v.391h.012c.119-.225.41-.462.843-.462.899 0 1.067.593 1.067 1.365v1.57z"/></defs></svg>