<svg xmlns="http://www.w3.org/2000/svg" xmlns:xlink="http://www.w3.org/1999/xlink" width="250" height="200" fill="none" xmlns:v="https://vecta.io/nano"><style><![CDATA[.B{fill:#fff}.C{stroke:#718491}.D{stroke-width:1.473}.E{fill:#718491}.F{fill-rule:evenodd}.G{font-family:Roboto}]]></style><path d="M0 0h250v200H0z" class="B"/><rect x="40.5" y="173.5" width="11" height="11" rx="5.5" fill="#ffdccc" stroke="#ff5a08"/><text fill="#546069" xml:space="preserve" style="white-space:pre" font-size="12" font-weight="600" letter-spacing="0em" class="G"><tspan x="56" y="183.031">Gap</tspan></text><rect x="120.5" y="173.5" width="11" height="11" rx="5.5" fill="#ffd9f1" stroke="#f21197"/><text fill="#546069" xml:space="preserve" style="white-space:pre" font-size="12" font-weight="600" letter-spacing="0em" class="G"><tspan x="136" y="183.031">Vertical Gap</tspan></text><rect x="20.5" y="23.5" width="209" height="130" rx="3.5" class="B"/><rect x="20.5" y="23.5" width="209" height="130" rx="3.5" stroke="#bbc2c7"/><rect x="32.736" y="33.236" width="55.589" height="50.527" rx="2.945" class="B C D"/><g class="E"><path d="M39.363 57.755a1.84 1.84 0 0 1 1.841-1.841h38.655a1.84 1.84 0 1 1 0 3.681H41.204a1.84 1.84 0 0 1-1.841-1.841zm8.283 7.362a1.84 1.84 0 0 1 1.841-1.841h22.088a1.841 1.841 0 1 1 0 3.681H49.487a1.84 1.84 0 0 1-1.841-1.841z"/><use xlink:href="#B"/><path d="M53.168 70.64l1.104 2.209 2.209.276-1.517 1.701.412 2.441-2.209-1.104-2.209 1.104.416-2.441-1.521-1.701 2.209-.276 1.104-2.209z"/><use xlink:href="#C"/><use xlink:href="#B" x="22.089"/><use xlink:href="#C" x="14.726"/><path d="M60.531 39.347c-3.05 0-5.522 2.472-5.522 5.522s2.472 5.522 5.522 5.522 5.522-2.472 5.522-5.522-2.472-5.522-5.522-5.522zM56.85 48.65a5.26 5.26 0 0 0 7.363 0v-.045a1.86 1.86 0 0 0-.539-1.311c-.345-.348-.813-.543-1.302-.543H58.69c-.488 0-.956.195-1.302.543a1.86 1.86 0 0 0-.539 1.311v.045zm5.522-4.626c0 1.024-.824 1.854-1.841 1.854s-1.841-.83-1.841-1.854.824-1.854 1.841-1.854 1.841.83 1.841 1.854z" class="F"/></g><rect x="96.798" y="33.236" width="55.589" height="50.527" rx="2.945" class="B C D"/><g class="E"><use xlink:href="#D"/><use xlink:href="#E"/><use xlink:href="#F"/><use xlink:href="#G"/><use xlink:href="#H"/><use xlink:href="#I"/><use xlink:href="#J"/><use xlink:href="#K" class="F"/></g><rect x="160.86" y="33.236" width="55.589" height="50.527" rx="2.945" class="B C D"/><g class="E"><use xlink:href="#D" x="64.062"/><use xlink:href="#E" x="64.062"/><use xlink:href="#F" x="64.062"/><use xlink:href="#G" x="64.062"/><use xlink:href="#H" x="64.062"/><use xlink:href="#I" x="64.062"/><use xlink:href="#J" x="64.062"/><use xlink:href="#K" x="64.062" class="F"/></g><rect x="32.736" y="93.236" width="55.589" height="50.527" rx="2.945" class="B C D"/><g class="E"><path d="M39.363 117.754a1.84 1.84 0 0 1 1.841-1.84h38.655a1.84 1.84 0 1 1 0 3.681H41.204a1.84 1.84 0 0 1-1.841-1.841zm8.283 7.363a1.84 1.84 0 0 1 1.841-1.84h22.088a1.84 1.84 0 1 1 0 3.681H49.487a1.84 1.84 0 0 1-1.841-1.841z"/><use xlink:href="#L"/><path d="M53.168 130.64l1.104 2.209 2.209.276-1.517 1.701.412 2.44-2.209-1.104-2.209 1.104.416-2.44-1.521-1.701 2.209-.276 1.104-2.209z"/><use xlink:href="#M"/><use xlink:href="#L" x="22.089"/><use xlink:href="#M" x="14.726"/><path d="M60.531 99.347c-3.05 0-5.522 2.473-5.522 5.523s2.472 5.522 5.522 5.522 5.522-2.473 5.522-5.522-2.472-5.523-5.522-5.523zm-3.681 9.303a5.26 5.26 0 0 0 7.363 0v-.045c0-.492-.194-.964-.539-1.312s-.813-.543-1.302-.543H58.69c-.488 0-.956.196-1.302.543s-.539.82-.539 1.312v.045zm5.522-4.627a1.85 1.85 0 0 1-1.841 1.855 1.85 1.85 0 0 1-1.841-1.855c0-1.024.824-1.854 1.841-1.854s1.841.83 1.841 1.854z" class="F"/></g><rect x="96.798" y="93.236" width="55.589" height="50.527" rx="2.945" class="B C D"/><g class="E"><use xlink:href="#N"/><use xlink:href="#O"/><use xlink:href="#P"/><use xlink:href="#Q"/><use xlink:href="#R"/><use xlink:href="#S"/><use xlink:href="#T"/><use xlink:href="#U" class="F"/></g><rect x="160.86" y="93.236" width="55.589" height="50.527" rx="2.945" class="B C D"/><g class="E"><use xlink:href="#N" x="64.062"/><use xlink:href="#O" x="64.062"/><use xlink:href="#P" x="64.062"/><use xlink:href="#Q" x="64.062"/><use xlink:href="#R" x="64.062"/><use xlink:href="#S" x="64.062"/><use xlink:href="#T" x="64.062"/><use xlink:href="#U" x="64.062" class="F"/></g><g stroke="#ff5a08" fill="#ffdccc"><path transform="rotate(90 95.5 33.5)" d="M95.5 33.5h50v5h-50z"/><path transform="rotate(90 95.5 93.5)" d="M95.5 93.5h50v5h-50z"/><path transform="rotate(90 159.5 33.5)" d="M159.5 33.5h50v5h-50z"/><path transform="rotate(90 159.5 93.5)" d="M159.5 93.5h50v5h-50z"/></g><path fill="#ffd9f1" stroke="#f21197" d="M216.5 91.5h-183v-5h183z"/><path d="M203.5 181a4 4 0 1 0 8 0 4 4 0 1 0-8 0zm35 0v.75a.75.75 0 0 0 .75-.75h-.75zm0-92h.75a.75.75 0 0 0-.75-.75V89zM220 89l7.5 4.33v-8.66L220 89zm-12.5 92.75h31v-1.5h-31v1.5zm31.75-.75V89h-1.5v92h1.5zm-.75-92.75h-11.75v1.5h11.75v-1.5z" fill="#f21197"/><path d="M77.5 180a4 4 0 1 0 8 0 4 4 0 1 0-8 0zm15.5 0v.75a.75.75 0 0 0 .75-.75H93zm0-34l-4.33 7.5h8.66L93 146zm-11.5 34.75H93v-1.5H81.5v1.5zm12.25-.75v-12.5h-1.5V180h1.5zm0-12.5v-14.75h-1.5v14.75h1.5z" fill="#ff5a08"/><defs ><path id="B" d="M45.805 70.64l1.104 2.209 2.209.276-1.517 1.701.412 2.441-2.209-1.104-2.209 1.104.416-2.441-1.52-1.701 2.209-.276 1.105-2.209z"/><path id="C" d="M60.531 70.64l1.104 2.209 2.209.276-1.517 1.701.412 2.441-2.209-1.104-2.209 1.104.416-2.441-1.52-1.701 2.209-.276 1.104-2.209z"/><path id="D" d="M103.425 57.755a1.84 1.84 0 0 1 1.841-1.841h38.654a1.84 1.84 0 1 1 0 3.681h-38.654a1.84 1.84 0 0 1-1.841-1.841z"/><path id="E" d="M111.708 65.117a1.84 1.84 0 0 1 1.841-1.841h22.088a1.84 1.84 0 1 1 0 3.681h-22.088a1.84 1.84 0 0 1-1.841-1.841z"/><path id="F" d="M109.867 70.64l1.105 2.209 2.209.276-1.517 1.701.412 2.441-2.209-1.104-2.209 1.104.416-2.441-1.52-1.701 2.209-.276 1.104-2.209z"/><path id="G" d="M117.23 70.64l1.105 2.209 2.208.276-1.516 1.701.412 2.441-2.209-1.104-2.209 1.104.416-2.441-1.52-1.701 2.209-.276 1.104-2.209z"/><path id="H" d="M124.593 70.64l1.104 2.209 2.209.276-1.517 1.701.413 2.441-2.209-1.104-2.209 1.104.416-2.441-1.52-1.701 2.209-.276 1.104-2.209z"/><path id="I" d="M131.956 70.64l1.104 2.209 2.209.276-1.517 1.701.413 2.441-2.209-1.104-2.209 1.104.416-2.441-1.52-1.701 2.208-.276 1.105-2.209z"/><path id="J" d="M139.319 70.64l1.104 2.209 2.209.276-1.517 1.701.412 2.441-2.208-1.104-2.209 1.104.416-2.441-1.521-1.701 2.209-.276 1.105-2.209z"/><path id="K" d="M124.593 39.347c-3.05 0-5.522 2.472-5.522 5.522s2.472 5.522 5.522 5.522 5.522-2.472 5.522-5.522-2.472-5.522-5.522-5.522zm-3.681 9.302c.95.926 2.249 1.496 3.681 1.496s2.731-.57 3.681-1.496v-.045a1.86 1.86 0 0 0-.539-1.311c-.345-.348-.813-.543-1.301-.543h-3.682c-.488 0-.956.195-1.301.543a1.86 1.86 0 0 0-.539 1.311v.045zm5.522-4.626c0 1.024-.824 1.854-1.841 1.854s-1.841-.83-1.841-1.854.824-1.854 1.841-1.854 1.841.83 1.841 1.854z"/><path id="L" d="M45.805 130.64l1.104 2.209 2.209.276-1.517 1.701.412 2.44-2.209-1.104-2.209 1.104.416-2.44-1.52-1.701 2.209-.276 1.105-2.209z"/><path id="M" d="M60.531 130.64l1.104 2.209 2.209.276-1.517 1.701.412 2.44-2.209-1.104-2.209 1.104.416-2.44-1.52-1.701 2.209-.276 1.104-2.209z"/><path id="N" d="M103.425 117.754a1.84 1.84 0 0 1 1.841-1.84h38.654a1.84 1.84 0 1 1 0 3.681h-38.654a1.84 1.84 0 0 1-1.841-1.841z"/><path id="O" d="M111.708 125.117a1.84 1.84 0 0 1 1.841-1.84h22.088a1.84 1.84 0 1 1 0 3.681h-22.088a1.84 1.84 0 0 1-1.841-1.841z"/><path id="P" d="M109.867 130.64l1.105 2.209 2.209.276-1.517 1.701.412 2.44-2.209-1.104-2.209 1.104.416-2.44-1.52-1.701 2.209-.276 1.104-2.209z"/><path id="Q" d="M117.23 130.64l1.105 2.209 2.208.276-1.516 1.701.412 2.44-2.209-1.104-2.209 1.104.416-2.44-1.52-1.701 2.209-.276 1.104-2.209z"/><path id="R" d="M124.593 130.64l1.104 2.209 2.209.276-1.517 1.701.413 2.44-2.209-1.104-2.209 1.104.416-2.44-1.52-1.701 2.209-.276 1.104-2.209z"/><path id="S" d="M131.956 130.64l1.104 2.209 2.209.276-1.517 1.701.413 2.44-2.209-1.104-2.209 1.104.416-2.44-1.52-1.701 2.208-.276 1.105-2.209z"/><path id="T" d="M139.319 130.64l1.104 2.209 2.209.276-1.517 1.701.412 2.44-2.208-1.104-2.209 1.104.416-2.44-1.521-1.701 2.209-.276 1.105-2.209z"/><path id="U" d="M124.593 99.347c-3.05 0-5.522 2.473-5.522 5.523s2.472 5.522 5.522 5.522 5.522-2.473 5.522-5.522-2.472-5.523-5.522-5.523zm-3.681 9.303c.95.926 2.249 1.496 3.681 1.496s2.731-.57 3.681-1.496v-.045c0-.492-.194-.964-.539-1.312s-.813-.543-1.301-.543h-3.682c-.488 0-.956.196-1.301.543a1.86 1.86 0 0 0-.539 1.312v.045zm5.522-4.627a1.85 1.85 0 0 1-1.841 1.855 1.85 1.85 0 0 1-1.841-1.855c0-1.024.824-1.854 1.841-1.854s1.841.83 1.841 1.854z"/></defs></svg>