<svg xmlns="http://www.w3.org/2000/svg" width="250" height="391" fill="none" xmlns:v="https://vecta.io/nano"><style><![CDATA[.B{stroke:#718491}.C{fill:#fff}.D{fill:#718491}.E{font-family:Roboto}.F{font-weight:600}.G{fill:#ffb900}.H{stroke-width:.5}.I{fill:#bbc2c7}.J{fill:#444d54}.K{stroke-width:1.5}.L{fill-rule:evenodd}.M{font-size:7px}.N{font-size:6px}]]></style><g class="C"><path d="M0 0h250v391H0z"/><rect x="19.5" y="16.5" width="211" height="145" rx="3.5"/></g><rect x="19.5" y="16.5" width="211" height="145" rx="3.5" stroke="#bbc2c7"/><rect x="219.5" y="74.5" width="186" height="19" rx=".5" transform="rotate(180 219.5 74.5)" stroke="#ff5a08"/><text xml:space="preserve" style="white-space:pre" font-size="10" letter-spacing="0em" class="E F J"><tspan x="90" y="30.109">Average Rating</tspan></text><text xml:space="preserve" style="white-space:pre" letter-spacing="0em" class="E F J M"><tspan x="125.5" y="40.977">5 Out 5 stars</tspan><tspan x="91" y="49.977">Based on 35 Reviews</tspan></text><path d="M89 35l1.167 2.333 2.333.292-1.602 1.797.435 2.578L89 40.833 86.667 42l.439-2.578-1.606-1.797 2.333-.292L89 35zm7.778 0l1.167 2.333 2.334.292-1.602 1.797.435 2.578-2.333-1.167L94.444 42l.439-2.578-1.606-1.797 2.333-.292L96.778 35zm7.778 0l1.166 2.333 2.334.292-1.603 1.797.436 2.578-2.333-1.167L102.222 42l.44-2.578-1.606-1.797 2.333-.292L104.556 35zm7.777 0l1.167 2.333 2.333.292-1.602 1.797.436 2.578-2.334-1.167L110 42l.439-2.578-1.606-1.797 2.334-.292L112.333 35zm7.778 0l1.167 2.333 2.333.292-1.602 1.797.435 2.578-2.333-1.167L117.778 42l.439-2.578-1.606-1.797 2.333-.292L120.111 35z" class="G"/><rect x="76.25" y="81.25" width="16.5" height="7.5" rx=".75" class="B D H"/><text xml:space="preserve" style="white-space:pre" letter-spacing="0em" class="C E F N"><tspan x="80.5" y="87.266">All</tspan></text><rect x="97.25" y="81.25" width="21.5" height="7.5" rx=".75" class="B D H"/><rect x="101" y="84" width="14" height="2" rx="1" class="C"/><rect x="123.25" y="81.25" width="24.5" height="7.5" rx=".75" class="B D H"/><rect x="127.5" y="84" width="16" height="2" rx="1" class="C"/><rect x="152.25" y="81.25" width="24.5" height="7.5" rx=".75" class="B D H"/><g class="C"><rect x="156.5" y="84" width="16" height="2" rx="1"/><rect x="33" y="95" width="56" height="58" rx="3.489" class="B K"/></g><g class="D"><use href="#B"/><use href="#B" x="7.305"/><path d="M61 139.979l1.096 2.191 2.191.274-1.505 1.688.409 2.421L61 145.457l-2.191 1.096.413-2.421-1.508-1.688 2.191-.274L61 139.979z"/><use href="#B" x="21.913"/><use href="#B" x="29.218"/><use href="#C" class="L"/><use href="#D"/><use href="#E"/><use href="#D" y="12"/></g><rect x="97" y="95" width="56" height="58" rx="3.489" class="B C K"/><g class="D"><use href="#F"/><use href="#G"/><use href="#H"/><use href="#F" x="21.913"/><use href="#G" x="21.913"/><use href="#I" class="L"/><use href="#D" x="64"/><use href="#E" x="64"/><use href="#D" x="64" y="12"/></g><rect x="161" y="95" width="56" height="58" rx="3.489" class="B C K"/><g class="D"><use href="#F" x="64"/><use href="#G" x="64"/><use href="#H" x="64"/><use href="#F" x="85.913"/><use href="#G" x="85.913"/><use href="#I" x="64" class="L"/><use href="#D" x="128"/><use href="#E" x="128"/><use href="#D" x="128" y="12"/><rect x="38.25" y="62.25" width="15.5" height="7.5" rx=".75"/></g><rect x="38.25" y="62.25" width="15.5" height="7.5" rx=".75" class="B H"/><text xml:space="preserve" style="white-space:pre" letter-spacing="0em" class="C E F N"><tspan x="42" y="68.266">All</tspan></text><rect x="56.5" y="62.5" width="28.778" height="7" rx=".5" class="B"/><g class="G"><path d="M62 64l.667 1.333L64 65.5l-.916 1.027.249 1.473L62 67.333 60.667 68l.251-1.473L60 65.5l1.333-.167L62 64z"/><use href="#J"/><use href="#J" x="4.445"/><path d="M75.333 64L76 65.333l1.333.167-.915 1.027.249 1.473-1.333-.667L74 68l.251-1.473-.918-1.027 1.333-.167.667-1.333z"/><use href="#J" x="13.334"/></g><rect x="88.278" y="62.5" width="28.778" height="7" rx=".5" class="B"/><g class="G"><use href="#K"/><use href="#K" x="4.444"/><path d="M102.667 64l.666 1.333 1.334.167-.916 1.027L104 68l-1.333-.667-1.334.667.252-1.473-.918-1.027 1.333-.167.667-1.333z"/><use href="#L"/></g><use href="#M" class="I"/><rect x="120.056" y="62.5" width="28.778" height="7" rx=".5" class="B"/><g class="G"><use href="#M" x="14"/><path d="M130 64l.667 1.333L132 65.5l-.915 1.027.248 1.473-1.333-.667-1.333.667.251-1.473L128 65.5l1.333-.167L130 64z"/><use href="#M" x="22.889"/></g><g class="I"><use href="#J" x="72.445"/><path d="M143.333 64l.667 1.333 1.333.167-.915 1.027.249 1.473-1.334-.667L142 68l.251-1.473-.918-1.027 1.334-.167.666-1.333z"/></g><rect x="151.833" y="62.5" width="28.778" height="7" rx=".5" class="B"/><g class="G"><path d="M157.333 64l.667 1.333 1.333.167-.915 1.027.249 1.473-1.334-.667L156 68l.251-1.473-.918-1.027 1.334-.167.666-1.333z"/><use href="#M" x="50.222"/></g><g class="I"><use href="#N"/><path d="M170.667 64l.666 1.333 1.334.167-.916 1.027L172 68l-1.333-.667-1.334.667.251-1.473-.917-1.027 1.333-.167.667-1.333z"/><use href="#J" x="108.667"/></g><rect x="183.611" y="62.5" width="28.778" height="7" rx=".5" class="B"/><use href="#N" x="22.889" class="G"/><g class="I"><use href="#M" x="82"/><path d="M198 64l.667 1.333L200 65.5l-.916 1.027.249 1.473-1.333-.667-1.333.667.251-1.473L196 65.5l1.333-.167L198 64z"/><use href="#L" x="95.333"/><use href="#J" x="140.445"/></g><rect x="19.5" y="174.5" width="211" height="180" rx="3.5" class="C"/><rect x="19.5" y="174.5" width="211" height="180" rx="3.5" stroke="#bbc2c7"/><text xml:space="preserve" style="white-space:pre" font-size="10" letter-spacing="0em" class="E F J"><tspan x="37.5" y="209.609">Average Rating</tspan></text><text xml:space="preserve" style="white-space:pre" letter-spacing="0em" class="E F J M"><tspan x="73" y="220.477">5 Out 5 stars</tspan><tspan x="38.5" y="229.477">Based on 35 Reviews</tspan></text><path d="M36.5 214.5l1.167 2.333 2.333.292-1.602 1.797.436 2.578-2.333-1.167-2.333 1.167.439-2.578L33 217.125l2.333-.292L36.5 214.5zm7.778 0l1.167 2.333 2.333.292-1.602 1.797.435 2.578-2.333-1.167-2.333 1.167.439-2.578-1.606-1.797 2.333-.292 1.167-2.333zm7.778 0l1.167 2.333 2.333.292-1.602 1.797.436 2.578-2.333-1.167-2.333 1.167.44-2.578-1.606-1.797 2.333-.292 1.167-2.333zm7.777 0L61 216.833l2.333.292-1.602 1.797.436 2.578-2.333-1.167L57.5 221.5l.44-2.578-1.606-1.797 2.333-.292 1.167-2.333zm7.778 0l1.167 2.333 2.333.292-1.602 1.797.436 2.578-2.333-1.167-2.333 1.167.439-2.578-1.606-1.797 2.333-.292 1.167-2.333z" class="G"/><rect x="181.25" y="187.25" width="29.5" height="7.5" rx=".75" class="D"/><rect x="181.25" y="187.25" width="29.5" height="7.5" rx=".75" class="B H"/><text xml:space="preserve" style="white-space:pre" letter-spacing="0em" class="C E F N"><tspan x="192" y="193.266">All</tspan></text><rect x="181.5" y="197.5" width="29" height="7" rx=".5" class="B"/><g class="G"><use href="#N" x="20.889" y="135"/><use href="#M" x="80" y="135"/><path d="M196 199l.667 1.333 1.333.167-.916 1.027.249 1.473-1.333-.667-1.333.667.251-1.473L194 200.5l1.333-.167L196 199z"/><use href="#L" x="93.333" y="135"/><use href="#J" x="138.445" y="135"/></g><rect x="181.5" y="207.5" width="29" height="7" rx=".5" class="B"/><g class="G"><use href="#N" x="20.889" y="145"/><use href="#M" x="80" y="145"/><path d="M196 209l.667 1.333 1.333.167-.916 1.027.249 1.473-1.333-.667-1.333.667.251-1.473L194 210.5l1.333-.167L196 209z"/><use href="#L" x="93.333" y="145"/></g><use href="#J" x="138.445" y="145" class="I"/><rect x="181.5" y="217.5" width="29" height="7" rx=".5" class="B"/><g class="G"><use href="#N" x="20.889" y="155"/><use href="#M" x="80" y="155"/><path d="M196 219l.667 1.333 1.333.167-.916 1.027.249 1.473-1.333-.667-1.333.667.251-1.473L194 220.5l1.333-.167L196 219z"/></g><g class="I"><use href="#L" x="93.333" y="155"/><use href="#J" x="138.445" y="155"/></g><rect x="181.5" y="227.5" width="29" height="7" rx=".5" class="B"/><g class="G"><use href="#N" x="20.889" y="165"/><use href="#M" x="80" y="165"/></g><g class="I"><path d="M196 229l.667 1.333 1.333.167-.916 1.027.249 1.473-1.333-.667-1.333.667.251-1.473L194 230.5l1.333-.167L196 229z"/><use href="#L" x="93.333" y="165"/><use href="#J" x="138.445" y="165"/></g><rect x="181.5" y="237.5" width="29" height="7" rx=".5" class="B"/><use href="#N" x="20.889" y="175" class="G"/><g class="I"><use href="#M" x="80" y="175"/><path d="M196 239l.667 1.333 1.333.167-.916 1.027.249 1.473-1.333-.667-1.333.667.251-1.473L194 240.5l1.333-.167L196 239z"/><use href="#L" x="93.333" y="175"/><use href="#J" x="138.445" y="175"/></g><rect x="216.5" y="250.5" width="41" height="69" rx=".5" transform="rotate(180 216.5 250.5)" stroke="#f21197"/><rect x="74.75" y="259.25" width="16.5" height="7.5" rx=".75" class="B D H"/><text xml:space="preserve" style="white-space:pre" letter-spacing="0em" class="C E F N"><tspan x="79" y="265.266">All</tspan></text><rect x="95.75" y="259.25" width="21.5" height="7.5" rx=".75" class="B D H"/><rect x="99.5" y="262" width="14" height="2" rx="1" class="C"/><rect x="121.75" y="259.25" width="24.5" height="7.5" rx=".75" class="B D H"/><rect x="126" y="262" width="16" height="2" rx="1" class="C"/><rect x="150.75" y="259.25" width="24.5" height="7.5" rx=".75" class="B D H"/><g class="C"><rect x="155" y="262" width="16" height="2" rx="1"/><rect x="33" y="275" width="56" height="58" rx="3.489" class="B K"/></g><g class="D"><use href="#B" y="180"/><use href="#B" x="7.305" y="180"/><path d="M61 319.979l1.096 2.191 2.191.274-1.505 1.688.409 2.421L61 325.457l-2.191 1.096.413-2.421-1.508-1.688 2.191-.274L61 319.979z"/><use href="#B" x="21.913" y="180"/><use href="#B" x="29.218" y="180"/><use href="#C" y="180" class="L"/><use href="#D" y="180"/><use href="#E" y="180"/><use href="#D" y="192"/></g><rect x="97" y="275" width="56" height="58" rx="3.489" class="B C K"/><g class="D"><use href="#F" y="180"/><use href="#G" y="180"/><use href="#H" y="180"/><use href="#F" x="21.913" y="180"/><use href="#G" x="21.913" y="180"/><use href="#I" y="180" class="L"/><use href="#D" x="64" y="180"/><use href="#E" x="64" y="180"/><use href="#D" x="64" y="192"/></g><rect x="161" y="275" width="56" height="58" rx="3.489" class="B C K"/><g class="D"><use href="#F" x="64" y="180"/><use href="#G" x="64" y="180"/><use href="#H" x="64" y="180"/><use href="#F" x="85.913" y="180"/><use href="#G" x="85.913" y="180"/><use href="#I" x="64" y="180" class="L"/><use href="#D" x="128" y="180"/><use href="#E" x="128" y="180"/><use href="#D" x="128" y="192"/></g><path d="M206 369a4 4 0 1 0 8 0 4 4 0 1 0-8 0zm34 0v.75a.75.75 0 0 0 .75-.75H240zm0-153h.75a.75.75 0 0 0-.75-.75v.75zm-19.5 0l7.5 4.33v-8.66l-7.5 4.33zM210 369.75h30v-1.5h-30v1.5zm30.75-.75V216h-1.5v153h1.5zM240 215.25h-12.75v1.5H240v-1.5z" fill="#f21197"/><rect x="45.5" y="363.5" width="11" height="11" rx="5.5" fill="#ffdccc" stroke="#ff5a08"/><text fill="#546069" xml:space="preserve" style="white-space:pre" font-size="12" letter-spacing="0em" class="E F"><tspan x="61" y="373.031">Horizontal</tspan></text><rect x="147.5" y="363.5" width="11" height="11" rx="5.5" fill="#ffd9f1" stroke="#f21197"/><text fill="#546069" xml:space="preserve" style="white-space:pre" font-size="12" letter-spacing="0em" class="E F"><tspan x="163" y="373.031">Vertical </tspan></text><path d="M41 369a4 4 0 1 1-8 0 4 4 0 1 1 8 0zm-31 0v.75a.75.75 0 0 1-.75-.75H10zm0-302h-.75a.75.75 0 0 1 .75-.75V67zm21.5 0L24 71.33v-8.66L31.5 67zM37 369.75H10v-1.5h27v1.5zM9.25 369V67h1.5v302h-1.5zM10 66.25h14.75v1.5H10v-1.5z" fill="#ff5a08"/><defs ><path id="B" d="M46.391 139.979l1.096 2.191 2.191.274-1.505 1.688.409 2.421-2.191-1.096-2.191 1.096.413-2.421-1.508-1.688 2.191-.274 1.096-2.191z"/><path id="C" d="M61.087 101.44c-4.034 0-7.304 3.27-7.304 7.304s3.27 7.305 7.304 7.305 7.304-3.271 7.304-7.305-3.27-7.304-7.304-7.304zm-4.87 12.305c1.258 1.225 2.975 1.979 4.87 1.979s3.612-.754 4.87-1.979v-.06c0-.651-.257-1.275-.713-1.735s-1.076-.718-1.722-.718h-4.87c-.646 0-1.265.258-1.722.718s-.713 1.084-.713 1.735v.06zm7.304-6.12c0 1.355-1.09 2.453-2.435 2.453s-2.435-1.098-2.435-2.453 1.09-2.453 2.435-2.453 2.435 1.098 2.435 2.453z"/><path id="D" d="M48 121.94a1.5 1.5 0 0 1 1.5-1.5h23a1.5 1.5 0 1 1 0 3h-23a1.5 1.5 0 0 1-1.5-1.5z"/><path id="E" d="M40 127.94a1.5 1.5 0 0 1 1.5-1.5h39a1.5 1.5 0 1 1 0 3h-39a1.5 1.5 0 0 1-1.5-1.5z"/><path id="F" d="M110.391 139.979l1.096 2.191 2.191.274-1.504 1.688.409 2.421-2.192-1.096-2.191 1.096.413-2.421-1.509-1.688 2.192-.274 1.095-2.191z"/><path id="G" d="M117.696 139.979l1.095 2.191 2.192.274-1.505 1.688.409 2.421-2.191-1.096-2.192 1.096.413-2.421-1.508-1.688 2.191-.274 1.096-2.191z"/><path id="H" d="M125 139.979l1.096 2.191 2.191.274-1.505 1.688.409 2.421-2.191-1.096-2.191 1.096.412-2.421-1.508-1.688 2.191-.274 1.096-2.191z"/><path id="I" d="M125.087 101.44c-4.034 0-7.304 3.27-7.304 7.304s3.27 7.305 7.304 7.305 7.304-3.271 7.304-7.305-3.27-7.304-7.304-7.304zm-4.87 12.305c1.258 1.225 2.976 1.979 4.87 1.979s3.612-.754 4.87-1.979v-.06a2.46 2.46 0 0 0-.714-1.735c-.456-.46-1.076-.718-1.721-.718h-4.87a2.42 2.42 0 0 0-1.721.718 2.46 2.46 0 0 0-.714 1.735v.06zm7.305-6.12c0 1.355-1.09 2.453-2.435 2.453s-2.435-1.098-2.435-2.453 1.09-2.453 2.435-2.453 2.435 1.098 2.435 2.453z"/><path id="J" d="M66.444 64l.667 1.333 1.333.167-.916 1.027.249 1.473-1.333-.667-1.333.667.251-1.473-.918-1.027 1.333-.167.667-1.333z"/><path id="K" d="M93.778 64l.667 1.333 1.333.167-.915 1.027.249 1.473-1.333-.667-1.333.667.251-1.473-.918-1.027 1.333-.167.667-1.333z"/><path id="L" d="M107.111 64l.667 1.333 1.333.167-.915 1.027.249 1.473-1.334-.667-1.333.667.251-1.473-.918-1.027 1.334-.167.666-1.333z"/><path id="M" d="M111.556 64l.666 1.333 1.334.167-.916 1.027.249 1.473-1.333-.667-1.334.667.251-1.473-.917-1.027 1.333-.167.667-1.333z"/><path id="N" d="M166.222 64l.667 1.333 1.333.167-.915 1.027.248 1.473-1.333-.667-1.333.667.251-1.473-.918-1.027 1.333-.167.667-1.333z"/></defs></svg>