<svg xmlns="http://www.w3.org/2000/svg" width="91" height="60" fill="none" xmlns:v="https://vecta.io/nano"><rect x="1.1" y=".6" width="88.8" height="58.8" rx="2.4" fill="#fff"/><rect x="1.1" y=".6" width="88.8" height="58.8" rx="2.4" stroke="#8796a1" stroke-width="1.2"/><rect x="21.5" y="8.484" width="48" height="2.581" rx="1.29" fill="#718491"/><g fill="#8796a1"><rect x="9.5" y="14.936" width="72" height="1.935" rx=".968"/><rect x="9.5" y="19.129" width="72" height="1.935" rx=".968"/><rect x="21.03" y="23.323" width="48.94" height="1.935" rx=".968"/></g><rect x="31.306" y="29.129" width="28.387" height="2.258" rx="1.129" fill="#718491"/><g clip-path="url(#A)"><use href="#F" fill="#718491"/></g><g clip-path="url(#B)"><path d="M41.629 33.516l.581 1.161 1.161.145-.797.894L42.79 37l-1.161-.581-1.161.581.219-1.283-.799-.894 1.161-.145.581-1.161z" fill="#718491"/></g><g clip-path="url(#C)"><path d="M45.5 33.516l.581 1.161 1.161.145-.797.894.217 1.283-1.161-.581-1.161.581.219-1.283-.799-.894 1.161-.145.581-1.161z" fill="#718491"/></g><g clip-path="url(#D)"><path d="M49.371 33.516l.581 1.161 1.161.145-.797.894.217 1.283-1.161-.581L48.21 37l.219-1.283-.799-.894 1.161-.145.581-1.161z" fill="#718491"/></g><g clip-path="url(#E)"><path d="M53.242 33.516l.581 1.161 1.161.145-.797.894.217 1.283-1.161-.581-1.161.581.219-1.283-.799-.894 1.161-.145.581-1.161z" fill="#718491"/></g><g fill-rule="evenodd"><path d="M33.564 42.161c-2.316 0-4.194 1.878-4.194 4.194s1.878 4.194 4.194 4.194 4.194-1.878 4.194-4.194-1.877-4.193-4.193-4.193zm-2.796 7.064c.722.703 1.708 1.136 2.796 1.136s2.074-.433 2.796-1.136v-.034c0-.373-.147-.732-.409-.996s-.618-.412-.988-.412h-2.796c-.371 0-.726.148-.988.412s-.409.622-.409.996v.034zm4.194-3.513c0 .778-.626 1.408-1.398 1.408s-1.398-.63-1.398-1.408.626-1.408 1.398-1.408 1.398.63 1.398 1.408z" fill="#bbc2c7"/><path d="M45.5 41.194c-2.85 0-5.161 2.311-5.161 5.161s2.311 5.161 5.161 5.161 5.161-2.311 5.161-5.161-2.311-5.161-5.161-5.161zm-3.441 8.695c.889.865 2.102 1.399 3.441 1.399s2.552-.533 3.441-1.399v-.042a1.74 1.74 0 0 0-.504-1.226c-.323-.325-.76-.508-1.217-.508H43.78c-.456 0-.894.183-1.216.508a1.74 1.74 0 0 0-.504 1.226v.042zm5.161-4.324c0 .957-.77 1.733-1.72 1.733s-1.72-.776-1.72-1.733.77-1.733 1.72-1.733 1.72.776 1.72 1.733z" fill="#718491"/><path d="M57.435 42.161c-2.316 0-4.193 1.878-4.193 4.194s1.877 4.194 4.194 4.194 4.194-1.878 4.194-4.194-1.877-4.193-4.194-4.193zm-2.796 7.064c.722.703 1.708 1.136 2.796 1.136s2.074-.433 2.796-1.136v-.034c0-.373-.147-.732-.409-.996s-.618-.412-.988-.412h-2.796c-.371 0-.726.148-.988.412s-.41.622-.41.996v.034zm4.194-3.513c0 .778-.626 1.408-1.398 1.408s-1.398-.63-1.398-1.408.626-1.408 1.398-1.408 1.398.63 1.398 1.408z" fill="#bbc2c7"/></g><defs><clipPath id="A"><path fill="#fff" transform="translate(35.823 33.323)" d="M0 0h3.871v3.871H0z"/></clipPath><clipPath id="B"><path fill="#fff" transform="translate(39.693 33.323)" d="M0 0h3.871v3.871H0z"/></clipPath><clipPath id="C"><path fill="#fff" transform="translate(43.565 33.323)" d="M0 0h3.871v3.871H0z"/></clipPath><clipPath id="D"><path fill="#fff" transform="translate(47.435 33.323)" d="M0 0h3.871v3.871H0z"/></clipPath><clipPath id="E"><path fill="#fff" transform="translate(51.306 33.323)" d="M0 0h3.871v3.871H0z"/></clipPath><path id="F" d="M37.758 33.516l.581 1.161 1.161.145-.797.894.217 1.283-1.161-.581-1.161.581.219-1.283-.799-.894 1.161-.145.581-1.161z"/></defs></svg>