<svg xmlns="http://www.w3.org/2000/svg" width="90" height="60" fill="none" xmlns:v="https://vecta.io/nano"><use href="#F" fill="#fff"/><use href="#F" stroke="#8796a1" stroke-width="1.2"/><g fill-rule="evenodd"><path d="M33.064 9.452c-2.316 0-4.194 1.878-4.194 4.194s1.878 4.194 4.194 4.194 4.194-1.877 4.194-4.194-1.877-4.193-4.193-4.193zm-2.796 7.064c.722.703 1.708 1.136 2.796 1.136s2.074-.433 2.796-1.136v-.034c0-.373-.147-.732-.409-.996s-.618-.413-.988-.413h-2.796c-.371 0-.726.148-.988.413s-.409.622-.409.996v.034zm4.194-3.513c0 .778-.626 1.408-1.398 1.408s-1.398-.63-1.398-1.408.626-1.408 1.398-1.408 1.398.63 1.398 1.408z" fill="#bbc2c7"/><path d="M45 8.484c-2.85 0-5.161 2.311-5.161 5.161s2.311 5.161 5.161 5.161 5.161-2.311 5.161-5.161S47.85 8.484 45 8.484zm-3.441 8.695c.889.865 2.102 1.399 3.441 1.399s2.552-.533 3.441-1.399v-.042a1.74 1.74 0 0 0-.504-1.225c-.323-.325-.76-.508-1.217-.508H43.28c-.456 0-.894.183-1.216.508a1.74 1.74 0 0 0-.504 1.225v.042zm5.161-4.324c0 .957-.77 1.733-1.72 1.733s-1.72-.776-1.72-1.733.77-1.733 1.72-1.733 1.72.776 1.72 1.733z" fill="#718491"/><path d="M56.935 9.452c-2.316 0-4.193 1.878-4.193 4.194s1.877 4.194 4.194 4.194 4.194-1.877 4.194-4.194-1.877-4.193-4.194-4.193zm-2.796 7.064c.722.703 1.708 1.136 2.796 1.136s2.074-.433 2.796-1.136v-.034c0-.373-.147-.732-.409-.996s-.618-.413-.988-.413h-2.796c-.371 0-.726.148-.988.413s-.41.622-.41.996v.034zm4.194-3.513c0 .778-.626 1.408-1.398 1.408s-1.398-.63-1.398-1.408.626-1.408 1.398-1.408 1.398.63 1.398 1.408z" fill="#bbc2c7"/></g><rect x="21" y="22.807" width="48" height="2.581" rx="1.29" fill="#718491"/><g fill="#8796a1"><rect x="9" y="29.258" width="72" height="1.935" rx=".968"/><rect x="9" y="33.452" width="72" height="1.935" rx=".968"/><rect x="20.53" y="37.645" width="48.94" height="1.935" rx=".968"/></g><rect x="30.806" y="43.452" width="28.387" height="2.258" rx="1.129" fill="#718491"/><g clip-path="url(#A)"><path d="M37.258 47.839L37.839 49l1.161.145-.797.894.217 1.283-1.161-.581-1.161.581.219-1.283-.799-.894L36.677 49l.581-1.161z" fill="#718491"/></g><g clip-path="url(#B)"><path d="M41.129 47.839L41.71 49l1.161.145-.797.894.217 1.283-1.161-.581-1.161.581.219-1.283-.799-.894L40.548 49l.581-1.161z" fill="#718491"/></g><g clip-path="url(#C)"><path d="M45 47.839L45.581 49l1.161.145-.797.894.217 1.283L45 50.742l-1.161.581.219-1.283-.799-.894L44.419 49 45 47.839z" fill="#718491"/></g><g clip-path="url(#D)"><path d="M48.871 47.839L49.452 49l1.161.145-.797.894.217 1.283-1.161-.581-1.161.581.219-1.283-.799-.894L48.29 49l.581-1.161z" fill="#718491"/></g><g clip-path="url(#E)"><path d="M52.742 47.839L53.323 49l1.161.145-.797.894.217 1.283-1.161-.581-1.161.581.219-1.283-.799-.894L52.161 49l.581-1.161z" fill="#718491"/></g><defs><clipPath id="A"><path fill="#fff" transform="translate(35.323 47.645)" d="M0 0h3.871v3.871H0z"/></clipPath><clipPath id="B"><path fill="#fff" transform="translate(39.193 47.645)" d="M0 0h3.871v3.871H0z"/></clipPath><clipPath id="C"><path fill="#fff" transform="translate(43.065 47.645)" d="M0 0h3.871v3.871H0z"/></clipPath><clipPath id="D"><path fill="#fff" transform="translate(46.935 47.645)" d="M0 0h3.871v3.871H0z"/></clipPath><clipPath id="E"><path fill="#fff" transform="translate(50.806 47.645)" d="M0 0h3.871v3.871H0z"/></clipPath><path id="F" d="M3 .6h84A2.4 2.4 0 0 1 89.4 3v54a2.4 2.4 0 0 1-2.4 2.4H3A2.4 2.4 0 0 1 .6 57V3A2.4 2.4 0 0 1 3 .6z"/></defs></svg>