<svg xmlns="http://www.w3.org/2000/svg" width="90" height="60" fill="none" xmlns:v="https://vecta.io/nano"><style><![CDATA[.B{fill:#718491}.C{fill:#fff}.D{fill:#8796a1}.E{shape-rendering:crispEdges}]]></style><rect x=".6" y=".6" width="88.8" height="58.8" rx="2.4" class="C"/><rect x=".6" y=".6" width="88.8" height="58.8" rx="2.4" stroke="#8796a1" stroke-width="1.2"/><g fill-rule="evenodd"><path d="M9.69 15.342a3.81 3.81 0 0 0 0 7.622 3.81 3.81 0 0 0 0-7.622zm-2.541 6.42a3.63 3.63 0 0 0 5.081 0v-.031c0-.339-.134-.665-.372-.905s-.561-.375-.898-.375H8.42c-.337 0-.66.135-.898.375s-.372.566-.372.905v.031zm3.811-3.193c0 .707-.569 1.28-1.27 1.28s-1.27-.573-1.27-1.28.569-1.28 1.27-1.28 1.27.573 1.27 1.28z" fill="#bbc2c7"/><path d="M9.691 25.309a4.69 4.69 0 1 0 0 9.381 4.69 4.69 0 1 0 0-9.381zm-3.127 7.902c.808.787 1.911 1.271 3.127 1.271s2.32-.485 3.127-1.271v-.038a1.58 1.58 0 0 0-.458-1.114c-.293-.295-.691-.461-1.106-.461H8.127a1.56 1.56 0 0 0-1.106.461 1.58 1.58 0 0 0-.458 1.114v.038zm4.691-3.93a1.57 1.57 0 0 1-1.564 1.575 1.57 1.57 0 1 1 0-3.15 1.57 1.57 0 0 1 1.564 1.575z" class="B"/><path d="M9.69 37.036a3.81 3.81 0 1 0 0 7.622 3.81 3.81 0 1 0 0-7.622zm-2.541 6.42a3.63 3.63 0 0 0 5.081 0v-.031c0-.339-.134-.665-.372-.905s-.561-.375-.898-.375H8.42c-.337 0-.66.135-.898.375s-.372.566-.372.905v.031zm3.811-3.193c0 .707-.569 1.28-1.27 1.28s-1.27-.573-1.27-1.28.569-1.28 1.27-1.28 1.27.573 1.27 1.28z" fill="#bbc2c7"/></g><g filter="url(#A)"><rect x="17.867" y="11.091" width="67.134" height="37.818" rx="1.173" class="C E"/><rect x="18.013" y="11.238" width="66.84" height="37.524" rx="1.026" stroke="#000" stroke-opacity=".05" stroke-width=".293" class="E"/><rect x="29.153" y="16.954" width="44.56" height="2.345" rx="1.173" class="B"/><rect x="22.557" y="22.818" width="57.752" height="1.759" rx=".879" class="D"/><rect x="22.557" y="26.629" width="57.752" height="1.759" rx=".879" class="D"/><rect x="33.844" y="30.44" width="35.179" height="1.759" rx=".879" class="D"/><rect x="39.707" y="35.717" width="23.453" height="2.052" rx="1.026" class="B"/><g clip-path="url(#B)" class="B"><use href="#G"/></g><g clip-path="url(#C)" class="B"><path d="M47.915 39.704l.528 1.055 1.055.132-.725.813.197 1.166-1.055-.528-1.055.528.199-1.166-.727-.813 1.055-.132.528-1.055z"/></g><g clip-path="url(#D)" class="B"><use href="#H"/></g><g clip-path="url(#E)" class="B"><path d="M54.951 39.704l.528 1.055 1.055.132-.725.813.197 1.166-1.055-.528-1.055.528.199-1.166-.727-.813 1.055-.132.528-1.055z"/></g><g clip-path="url(#F)" class="B"><path d="M58.469 39.704l.528 1.055 1.055.132-.725.813.197 1.166-1.055-.528-1.055.528.199-1.166-.726-.813 1.055-.132.528-1.055z"/></g></g><defs><filter id="A" x="14.935" y="8.16" width="72.997" height="43.681" filterUnits="userSpaceOnUse" color-interpolation-filters="sRGB"><feFlood flood-opacity="0" result="A"/><feColorMatrix in="SourceAlpha" values="0 0 0 0 0 0 0 0 0 0 0 0 0 0 0 0 0 0 127 0" result="B"/><feOffset/><feGaussianBlur stdDeviation="1.466"/><feComposite in2="B" operator="out"/><feColorMatrix values="0 0 0 0 0 0 0 0 0 0 0 0 0 0 0 0 0 0 0.08 0"/><feBlend in2="A"/><feBlend in="SourceGraphic"/></filter><clipPath id="B"><path transform="translate(42.638 39.528)" d="M0 0h3.518v3.518H0z" class="C"/></clipPath><clipPath id="C"><path transform="translate(46.156 39.528)" d="M0 0h3.518v3.518H0z" class="C"/></clipPath><clipPath id="D"><path transform="translate(49.674 39.528)" d="M0 0h3.518v3.518H0z" class="C"/></clipPath><clipPath id="E"><path transform="translate(53.192 39.528)" d="M0 0h3.518v3.518H0z" class="C"/></clipPath><clipPath id="F"><path transform="translate(56.71 39.528)" d="M0 0h3.518v3.518H0z" class="C"/></clipPath><path id="G" d="M44.397 39.704l.528 1.055 1.055.132-.725.813.197 1.166-1.055-.528-1.055.528.199-1.166-.727-.813 1.055-.132.528-1.055z"/><path id="H" d="M51.433 39.704l.528 1.055 1.055.132-.725.813.197 1.166-1.055-.528-1.055.528.199-1.166-.726-.813 1.055-.132.528-1.055z"/></defs></svg>