<svg xmlns="http://www.w3.org/2000/svg" width="1720" height="88" fill="none" xmlns:v="https://vecta.io/nano"><style><![CDATA[.B{fill:#fff}.C{color-interpolation-filters:sRGB}.D{flood-opacity:0}]]></style><path fill="url(#D)" d="M0 0h1720v88H0z"/><g clip-path="url(#I)"><g fill="#009dd5"><path d="M81.478 25.966H64.109a2 2 0 0 0-1.993 1.993v8.922a2 2 0 0 0 1.993 1.993h1.519v3.512a.65.65 0 0 0 .38.569c.095 0 .19.095.285.095a.5.5 0 0 0 .379-.19l4.651-3.986h10.156a2 2 0 0 0 1.994-1.994v-8.92a2.07 2.07 0 0 0-1.993-1.993zm-12.434 6.17l-.949.949.19 1.234a.36.36 0 0 1-.015.153c-.016.049-.044.094-.079.132h-.285l-1.139-.569-1.044.475h-.285a.35.35 0 0 1-.095-.285l.19-1.234-.949-.949c-.036-.038-.063-.082-.079-.132a.35.35 0 0 1-.016-.153c.095 0 .19-.095.285-.095l1.329-.19.57-1.139c0-.095.095-.095.19-.095a.33.33 0 0 1 .19.095l.57 1.139 1.329.19a.21.21 0 0 1 .129.06c.035.035.056.081.06.13a.4.4 0 0 1-.015.153.35.35 0 0 1-.08.132zm5.885 0l-.949.949.19 1.234c.006.051.001.104-.016.153s-.044.094-.079.132h-.285l-1.139-.569-1.044.475h-.285a.35.35 0 0 1-.095-.285l.19-1.234-.949-.949c-.036-.038-.063-.082-.079-.132a.35.35 0 0 1-.015-.153c.004-.049.026-.095.06-.129a.21.21 0 0 1 .13-.06l1.329-.19.57-1.139c0-.095.095-.095.19-.095a.33.33 0 0 1 .19.095l.57 1.139 1.424.285c.049.004.095.026.129.06a.21.21 0 0 1 .06.13.35.35 0 0 1-.095.285zm5.885 0l-.949.949.19 1.234a.35.35 0 0 1-.095.285h-.285l-1.139-.569-1.044.475h-.285a.35.35 0 0 1-.079-.132.36.36 0 0 1-.016-.153l.19-1.234-.949-.949a.35.35 0 0 1-.095-.285c.004-.049.026-.095.06-.129a.21.21 0 0 1 .129-.06l1.329-.19.569-1.139c0-.095.095-.095.19-.095.072.01.138.043.19.095l.57 1.139 1.424.285a.21.21 0 0 1 .13.06c.035.035.056.081.06.13s.001.104-.016.153a.35.35 0 0 1-.079.132zm-26.956 0c-4.271 0-6.644 2.183-6.549 6.454.095 5.79 2.563 9.302 6.549 9.302 0 0 6.549.285 6.549-9.302 0-4.271-2.183-6.454-6.549-6.454zm11.579 20.122l-6.549-2.563-1.519-1.329c-.204-.17-.466-.255-.731-.237a1.04 1.04 0 0 0-.693.332l-2.088 2.088-2.183-2.088a1.14 1.14 0 0 0-1.424-.095l-1.424 1.329-6.549 2.658c-2.088.854-2.088 8.353-2.278 9.017h27.81c-.19-.759-.19-8.258-2.373-9.112z"/></g><g class="B"><path d="M93.627 51.024V34.129a1.47 1.47 0 0 1 .19-.759c.084-.093.186-.166.301-.215s.239-.073.363-.069h4.366c3.607 0 5.315 1.709 5.315 5.03a4.68 4.68 0 0 1-2.468 4.461v.095a4.88 4.88 0 0 1 1.804 2.942l1.613 5.125c0 .095 0 .095.095.19s0 .095 0 .19c0 .38-.475.57-1.424.57h-.759c-.854 0-1.329-.19-1.424-.57l-1.423-5.125c-.127-.477-.391-.906-.76-1.234-.362-.252-.793-.385-1.234-.38h-.949v6.549c0 .474-.475.759-1.424.759h-.759c-.949.095-1.424-.19-1.424-.664zm5.41-9.776c.251-.022.493-.102.707-.233a1.61 1.61 0 0 0 .526-.526 2.99 2.99 0 0 0 .475-1.898 3.26 3.26 0 0 0-.475-1.898c-.161-.193-.365-.345-.596-.444a1.59 1.59 0 0 0-.733-.125h-1.803v5.125h1.898zm8.732 8.922c-.949-1.139-1.423-2.942-1.423-5.315 0-4.841 1.803-7.214 5.41-7.214 3.227 0 4.841 2.373 4.841 7.024a1.96 1.96 0 0 1-.475.854c-.285.38-.57.569-.759.569h-5.6a4.42 4.42 0 0 0 .664 2.373 2.29 2.29 0 0 0 .817.582 2.28 2.28 0 0 0 .986.177 4.81 4.81 0 0 0 1.234-.19 2.96 2.96 0 0 0 .949-.475 1.48 1.48 0 0 1 .57-.285c.19 0 .475.19.759.664.225.313.387.668.475 1.044 0 .38-.19.664-.665.949a6.33 6.33 0 0 1-1.613.664 6.46 6.46 0 0 1-1.803.285 5.45 5.45 0 0 1-2.377-.361 5.46 5.46 0 0 1-1.99-1.348zm5.695-6.264a7.01 7.01 0 0 0-.379-2.847 1.53 1.53 0 0 0-.527-.667c-.235-.168-.513-.266-.802-.282a1.57 1.57 0 0 0-1.424.854 8.17 8.17 0 0 0-.569 2.848h3.701v.095zm5.79 6.928a4.32 4.32 0 0 1-.949-3.037c-.015-.683.122-1.361.401-1.985a4.61 4.61 0 0 1 1.212-1.622 7.67 7.67 0 0 1 4.936-1.329v-.759c0-1.234-.664-1.803-1.898-1.803-.418.009-.833.073-1.234.19a5.8 5.8 0 0 0-1.139.475.95.95 0 0 1-.57.19c-.189 0-.474-.285-.759-.759-.246-.337-.409-.727-.474-1.139 0-.285.189-.569.664-.854.496-.311 1.042-.536 1.613-.664a7.41 7.41 0 0 1 2.089-.285 5.5 5.5 0 0 1 3.796 1.139 4.16 4.16 0 0 1 .968 1.479 4.15 4.15 0 0 1 .266 1.748v5.315c-.01.89.054 1.779.19 2.658l.19 1.044c0 .19-.285.475-.854.569a10.6 10.6 0 0 1-1.614.19.52.52 0 0 1-.356-.084.53.53 0 0 1-.214-.296 4.12 4.12 0 0 1-.379-1.044 3.55 3.55 0 0 1-1.234 1.139 3.93 3.93 0 0 1-1.803.475 3.49 3.49 0 0 1-2.848-.949zM124 49.031a6.09 6.09 0 0 0 .854-.759v-3.227c-2.278 0-3.417.854-3.417 2.563a1.9 1.9 0 0 0 .38 1.329 1.57 1.57 0 0 0 .521.353 1.58 1.58 0 0 0 .618.121 4.63 4.63 0 0 0 1.044-.38zm8.068 1.993c-.647-.801-.954-1.823-.854-2.847V32.42c0-.475.474-.759 1.423-.759h.57c.949 0 1.424.285 1.424.759v15.661c-.005.296.06.588.189.854.11.14.265.237.44.272a.74.74 0 0 0 .51-.082c.094 0 .189-.095.284-.095s.38.19.475.664a5 5 0 0 1 .19 1.044c0 .196-.066.386-.186.541s-.289.265-.479.313c-.482.194-.998.291-1.518.285a3.55 3.55 0 0 1-2.468-.854zm12.149 0V36.122h-3.227c-.111.003-.221-.021-.321-.071s-.184-.123-.249-.214a1.9 1.9 0 0 1-.189-.854v-.759a1.9 1.9 0 0 1 .189-.854.57.57 0 0 1 .242-.229.56.56 0 0 1 .328-.055h10.061a.57.57 0 0 1 .569.284c.13.266.194.559.19.854v.664c.004.296-.06.588-.19.854a.56.56 0 0 1-.241.229.57.57 0 0 1-.328.055h-3.227v14.902c0 .475-.475.759-1.329.759h-.854c-.949.095-1.424-.19-1.424-.664zm8.352-.854c-.949-1.139-1.423-2.942-1.423-5.315 0-4.841 1.803-7.214 5.41-7.214 3.227 0 4.84 2.373 4.84 7.024a1.95 1.95 0 0 1-.474.854c-.285.38-.57.569-.76.569h-5.6c-.007.838.224 1.661.665 2.373a2.29 2.29 0 0 0 1.803.759 4.81 4.81 0 0 0 1.234-.19 2.96 2.96 0 0 0 .949-.475 1.48 1.48 0 0 1 .57-.285c.19 0 .474.19.759.664a2.96 2.96 0 0 1 .475 1.044c0 .38-.19.664-.665.949a6.36 6.36 0 0 1-1.613.664 6.46 6.46 0 0 1-1.804.285 5.45 5.45 0 0 1-2.376-.361 5.46 5.46 0 0 1-1.99-1.348zm5.695-6.264a7.01 7.01 0 0 0-.38-2.847c-.109-.268-.291-.499-.526-.667s-.514-.266-.802-.282a1.57 1.57 0 0 0-1.424.854c-.358.908-.552 1.872-.57 2.848h3.702v.095zm5.506 7.497c-.759-.38-1.139-.759-1.139-1.234a2.93 2.93 0 0 1 .474-1.234c.285-.474.57-.759.855-.759.095 0 .19.095.474.285a2.85 2.85 0 0 0 .76.38 2.84 2.84 0 0 0 .949.19 1.51 1.51 0 0 0 1.139-.38 1.1 1.1 0 0 0 .306-.428 1.09 1.09 0 0 0 .073-.521 1.56 1.56 0 0 0-.121-.618 1.57 1.57 0 0 0-.353-.521 12.03 12.03 0 0 0-1.614-1.044A5.34 5.34 0 0 1 163.675 44a3.7 3.7 0 0 1-.664-2.373 3.91 3.91 0 0 1 1.139-3.037 3.91 3.91 0 0 1 1.395-.898 3.92 3.92 0 0 1 1.642-.241 5.57 5.57 0 0 1 2.183.38c.664.285 1.044.569 1.044 1.044-.022.407-.153.8-.38 1.139-.19.475-.474.759-.664.759a2.46 2.46 0 0 1-.665-.285c-.352-.183-.742-.281-1.139-.285a1.71 1.71 0 0 0-1.044.285.93.93 0 0 0-.379.854c-.01.176.02.352.085.516a1.21 1.21 0 0 0 .294.433 4.61 4.61 0 0 0 1.234.854l.475.285a5.35 5.35 0 0 1 1.898 1.614 3.7 3.7 0 0 1 .665 2.373 3.95 3.95 0 0 1-.267 1.704 3.94 3.94 0 0 1-.967 1.428c-.437.393-.947.696-1.5.891a4.46 4.46 0 0 1-1.727.248 3.38 3.38 0 0 1-2.563-.285zm10.06-.379c-.645-.838-.951-1.889-.854-2.942v-7.593h-.474c-.113.015-.227-.005-.329-.055s-.185-.131-.241-.229a1.91 1.91 0 0 1-.19-.854v-.38a1.91 1.91 0 0 1 .19-.854c.056-.099.14-.179.241-.229s.216-.07.329-.055h.474l.38-2.563c.095-.475.474-.759 1.234-.759h.664c.76 0 1.139.285 1.139.759v2.563h1.234a.57.57 0 0 1 .57.285 1.9 1.9 0 0 1 .189.854v.38a1.9 1.9 0 0 1-.189.854.57.57 0 0 1-.57.285h-1.234v7.498a2.4 2.4 0 0 0 .19.949c.056.099.14.179.241.229s.216.07.329.055a1.03 1.03 0 0 0 .474-.095c.19 0 .285-.095.38-.095s.379.19.474.664a6.17 6.17 0 0 1 .19 1.044c0 .38-.285.664-.759.854a4.45 4.45 0 0 1-1.614.285c-.448.036-.899-.021-1.323-.168a3.25 3.25 0 0 1-1.145-.686zm6.55-15.471V33.56c0-.475.569-.759 1.708-.759s1.709.285 1.709.759v1.898c0 .475-.57.759-1.709.759s-1.708-.19-1.708-.664zm0 15.471V38.59c0-.475.474-.759 1.424-.759h.569c.949 0 1.424.285 1.424.759v12.434c0 .475-.475.759-1.424.759h-.569c-.95 0-1.424-.285-1.424-.759zm21.641-12.434a4.36 4.36 0 0 1 .854 2.942v9.492c0 .475-.475.759-1.329.759h-.664c-.95 0-1.329-.285-1.329-.759v-8.827c.028-.461-.069-.92-.285-1.329-.109-.148-.252-.269-.418-.351a1.17 1.17 0 0 0-.531-.123 1.6 1.6 0 0 0-.949.285 2.87 2.87 0 0 0-.76.759v9.492c0 .474-.474.759-1.328.759h-.665c-.949 0-1.329-.285-1.329-.759v-8.827c.029-.461-.069-.92-.284-1.329-.109-.148-.253-.269-.418-.351s-.347-.125-.531-.123c-.191-.01-.382.019-.561.084a1.43 1.43 0 0 0-.484.296c-.25.261-.472.547-.664.854v9.397a.52.52 0 0 1-.38.569 2.54 2.54 0 0 1-1.044.19h-.664c-.854 0-1.329-.285-1.329-.759v-8.732c.03-.887-.002-1.775-.095-2.658a5.5 5.5 0 0 1-.095-.949c0-.285.285-.475.949-.664a10.6 10.6 0 0 1 1.614-.19.57.57 0 0 1 .328.055c.102.051.185.131.241.229.119.236.184.495.19.759 0 .285.095.569.095.759a5.08 5.08 0 0 1 1.424-1.424c.592-.386 1.287-.585 1.993-.569a3.93 3.93 0 0 1 1.804.475 2.06 2.06 0 0 1 .682.594c.18.246.304.53.362.829.385-.589.905-1.078 1.518-1.424.597-.374 1.288-.571 1.993-.569a3.26 3.26 0 0 1 2.089 1.139zm4.461 11.485c-.95-1.234-1.329-2.942-1.329-5.315a9.33 9.33 0 0 1 1.329-5.315 4.47 4.47 0 0 1 1.757-1.421 4.49 4.49 0 0 1 2.229-.382c.76-.041 1.52.101 2.213.415a4.74 4.74 0 0 1 1.773 1.389 9.33 9.33 0 0 1 1.329 5.315 9.33 9.33 0 0 1-1.329 5.315 4.59 4.59 0 0 1-1.764 1.407c-.697.315-1.46.451-2.222.397-.763.065-1.53-.066-2.229-.382a4.46 4.46 0 0 1-1.757-1.422zm5.41-1.898c.369-1.1.53-2.258.474-3.417.056-1.159-.105-2.317-.474-3.417a1.49 1.49 0 0 0-.539-.759c-.257-.189-.567-.291-.885-.291s-.628.102-.885.291a1.49 1.49 0 0 0-.539.759c-.369 1.1-.53 2.258-.474 3.417a9.33 9.33 0 0 0 .474 3.417 1.49 1.49 0 0 0 .539.759c.257.189.567.291.885.291s.628-.102.885-.291a1.49 1.49 0 0 0 .539-.759zm6.169 2.847v-8.732a19.34 19.34 0 0 0-.095-2.658 5.5 5.5 0 0 1-.095-.949c0-.285.285-.475.949-.664a10.6 10.6 0 0 1 1.614-.19.57.57 0 0 1 .328.055c.102.051.185.131.241.229a1.79 1.79 0 0 1 .19.759c0 .285.095.569.095.759a4.4 4.4 0 0 1 1.519-1.424c.592-.386 1.287-.585 1.993-.569a2.85 2.85 0 0 1 1.298.193 2.84 2.84 0 0 1 1.075.756c.585.828.854 1.838.759 2.847v9.492c0 .475-.474.759-1.329.759h-.664c-.949 0-1.424-.285-1.424-.759v-8.827c.029-.461-.069-.92-.285-1.329a1.09 1.09 0 0 0-.428-.307 1.1 1.1 0 0 0-.521-.073 1.23 1.23 0 0 0-.516.085 1.22 1.22 0 0 0-.433.294 3.28 3.28 0 0 0-.759.854v9.397c.016.125-.013.251-.084.356s-.174.18-.296.214a2.54 2.54 0 0 1-1.044.19h-.759c-.854 0-1.329-.285-1.329-.759zm12.624-15.471V33.56c0-.475.569-.759 1.708-.759s1.709.285 1.709.759v1.898c0 .475-.57.759-1.709.759s-1.708-.19-1.708-.664zm0 15.471V38.59c0-.475.474-.759 1.423-.759h.57c.949 0 1.424.285 1.424.759v12.434c0 .475-.475.759-1.424.759h-.57c-.949 0-1.423-.285-1.423-.759zm6.928-.19c-.691-.855-1.03-1.941-.949-3.037-.015-.683.123-1.361.402-1.985a4.61 4.61 0 0 1 1.212-1.622 7.67 7.67 0 0 1 4.935-1.329v-.759c0-1.234-.664-1.803-1.898-1.803-.417.009-.832.073-1.234.19a5.8 5.8 0 0 0-1.139.475c-.147.088-.307.152-.474.19-.19 0-.475-.285-.76-.759-.246-.337-.409-.727-.474-1.139 0-.285.19-.569.664-.854a5.17 5.17 0 0 1 1.614-.664 7.4 7.4 0 0 1 2.088-.285 5.5 5.5 0 0 1 3.796 1.139 4.15 4.15 0 0 1 .969 1.479 4.17 4.17 0 0 1 .265 1.748v5.315c-.01.89.054 1.779.19 2.658l.19 1.044c0 .19-.285.475-.854.569a10.6 10.6 0 0 1-1.614.19c-.124.016-.25-.014-.356-.084a.52.52 0 0 1-.213-.296 4.09 4.09 0 0 1-.38-1.044c-.314.473-.737.864-1.234 1.139a3.93 3.93 0 0 1-1.803.475c-.531.071-1.07.023-1.579-.141a3.59 3.59 0 0 1-1.364-.808zm4.746-1.803a6.09 6.09 0 0 0 .854-.759v-3.227c-2.278 0-3.417.854-3.417 2.563-.044.475.091.949.38 1.329a1.58 1.58 0 0 0 1.139.475c.367-.068.72-.197 1.044-.38zm8.163 1.993a3.93 3.93 0 0 1-.854-2.847V32.42c0-.475.474-.759 1.423-.759h.57c.949 0 1.424.285 1.424.759v15.661a1.9 1.9 0 0 0 .189.854c.11.14.265.237.44.272a.74.74 0 0 0 .51-.082c.094 0 .189-.095.284-.095s.38.19.475.664a5 5 0 0 1 .19 1.044c0 .196-.066.386-.186.541s-.289.265-.479.313c-.482.194-.998.291-1.518.285a3.25 3.25 0 0 1-1.324-.168c-.425-.147-.815-.381-1.144-.686zm6.264.379c-.759-.38-1.139-.759-1.139-1.234a2.92 2.92 0 0 1 .475-1.234c.285-.474.57-.759.854-.759.095 0 .19.095.475.285a2.84 2.84 0 0 0 .759.38 2.85 2.85 0 0 0 .949.19c.206.018.413-.006.61-.072s.376-.17.529-.308a1.11 1.11 0 0 0 .307-.428 1.09 1.09 0 0 0 .073-.521 1.56 1.56 0 0 0-.475-1.139c-.508-.39-1.048-.739-1.613-1.044A5.33 5.33 0 0 1 256.692 44a3.7 3.7 0 0 1-.665-2.373c-.038-.558.045-1.118.241-1.642a3.92 3.92 0 0 1 3.935-2.535 5.57 5.57 0 0 1 2.183.38c.665.285 1.045.569 1.045 1.044-.022.407-.153.8-.38 1.139-.19.475-.475.759-.665.759a2.47 2.47 0 0 1-.664-.285c-.352-.183-.742-.281-1.139-.285a1.71 1.71 0 0 0-1.044.285.95.95 0 0 0-.302.377.94.94 0 0 0-.078.477c-.009.176.02.352.086.516a1.21 1.21 0 0 0 .294.433c.362.35.778.639 1.234.854l.474.285a5.37 5.37 0 0 1 1.899 1.614 3.7 3.7 0 0 1 .664 2.373c.038.581-.053 1.163-.267 1.704s-.542 1.029-.967 1.428a4.46 4.46 0 0 1-1.499.891c-.555.196-1.141.28-1.728.248a3.38 3.38 0 0 1-2.563-.285z"/></g></g><g filter="url(#A)"><path d="M590.332 65.075a3.68 3.68 0 0 1-3.491 2.517h-24.496l-39.074.26L532.71 57.8l11.738-12.399h17.897 24.496a3.68 3.68 0 0 1 3.491 2.517l2.47 7.415c.252.755.252 1.572 0 2.327l-2.47 7.415z" fill="#8d55ff"/></g><path d="M526.211 64.67l16.098-16.969h43.187a3.68 3.68 0 0 1 3.49 2.511l1.609 4.804a3.68 3.68 0 0 1 0 2.337l-1.609 4.804a3.68 3.68 0 0 1-3.49 2.511h-59.285z" fill="url(#E)"/><path d="M547.234 60.047h-3.732v-8.198h3.732c2.545 0 4.148 1.566 4.148 4.099s-1.603 4.099-4.148 4.099zm0-7.011h-2.423v5.824h2.423c1.896 0 2.753-.808 2.753-2.912s-.857-2.912-2.753-2.912zm11.691 7.011h-6.559v-8.198h6.559v1.187h-5.237v2.3h5.053v1.175h-5.053v2.349h5.237v1.187zm1.886 0h-1.469l3.659-8.198h1.86l3.658 8.198h-1.492l-.943-2.129h-4.331l-.942 2.129zm2.581-5.812l-1.113 2.496h3.279l-1.113-2.496-.477-1.162h-.098l-.478 1.162zm12.114 5.812h-6.375v-8.198h1.322v7.011h5.053v1.187zm4.293.122c-2.448 0-3.696-1.077-3.696-2.802v-.073h1.322v.196c0 .979.575 1.468 2.374 1.468 1.566 0 2.116-.343 2.116-1.114 0-.71-.416-.979-1.456-1.175l-2.006-.33c-1.383-.245-2.362-.881-2.362-2.227 0-1.187.979-2.386 3.524-2.386 2.398 0 3.487 1.199 3.487 2.802v.073h-1.309v-.159c0-1.003-.599-1.505-2.3-1.505-1.493 0-2.08.367-2.08 1.101 0 .71.416.942 1.382 1.15l1.995.343c1.639.294 2.447 1.04 2.447 2.239 0 1.248-1.016 2.398-3.438 2.398z" class="B"/><g clip-path="url(#J)"><path opacity=".5" d="M564.342 28.342c1.395 1.371-10.11 15.345-25.704 31.201-5.646 5.739-11.046 10.937-15.712 15.17l-4.884.14-.041-1.416 36.36-38.513c5.525-4.702 9.285-7.266 9.981-6.582z" fill="url(#F)"/></g><path d="M333.432 64.817c-5.218 0-8.679-3.411-8.679-8.654s3.461-8.654 8.679-8.654c4.74 0 8.051 2.508 8.051 6.522v.351h-2.984v-.351c0-2.559-1.631-3.938-5.042-3.938-3.938 0-5.845 1.881-5.845 6.07s1.907 6.045 5.845 6.045c3.411 0 5.042-1.355 5.042-3.938v-.326h2.984v.326c0 4.038-3.285 6.547-8.051 6.547zm18.676-.251h-2.684v-5.794l-7.375-11.011h3.311l3.963 5.97 1.405 2.132h.201l1.379-2.132 3.938-5.97h3.336l-7.474 11.062v5.744zm18.15 0H360.5V47.76h9.407c3.21 0 5.142 1.48 5.142 4.139 0 1.982-1.104 3.462-3.663 3.762v.176c2.86.326 4.265 1.881 4.265 4.089 0 2.885-1.932 4.64-5.393 4.64zm-7.074-14.373v4.615h6.346c1.882 0 2.835-.727 2.835-2.308s-.878-2.308-2.759-2.308h-6.422zm0 6.848v5.092h6.773c2.006 0 2.985-.753 2.985-2.584 0-1.756-1.004-2.508-2.985-2.508h-6.773zm27.666 7.525h-13.445V47.76h13.445v2.433h-10.736v4.716h10.359v2.408h-10.359v4.816h10.736v2.433zm4.819 0h-2.709V47.76h8.728c3.813 0 6.171 1.806 6.171 4.941 0 2.784-1.831 4.49-4.992 4.665v.175c1.305.351 1.907 1.104 2.509 2.157l2.809 4.866h-3.11l-2.684-4.64c-.753-1.329-1.53-1.881-3.637-1.881h-3.085v6.522zm0-14.373v5.769h5.994c2.258 0 3.387-.778 3.387-2.885 0-2.057-1.129-2.885-3.387-2.885h-5.994zm21.139 14.373h-2.709V47.76h3.687l4.841 9.732 1.53 3.486h.201l1.48-3.486 4.791-9.732h3.687v16.806h-2.709V54.257l.1-2.433h-.2l-1.029 2.433-4.64 9.306h-3.261l-4.64-9.306-1.029-2.433h-.2l.1 2.433v10.309zm28.275.251c-5.268 0-8.754-3.411-8.754-8.654s3.486-8.654 8.754-8.654c5.318 0 8.779 3.411 8.779 8.654s-3.461 8.654-8.779 8.654zm0-2.609c3.988 0 5.92-1.856 5.92-6.045s-1.932-6.07-5.92-6.07-5.895 1.881-5.895 6.07 1.907 6.045 5.895 6.045zm13.489 2.358h-2.709V47.76h2.91l7.525 9.833 2.182 3.135h.201l-.125-3.035V47.76h2.708v16.806h-2.909l-7.575-9.807-2.107-2.96h-.201l.1 2.91v9.858zm22.998 0h-7.65V47.76h7.65c5.218 0 8.504 3.211 8.504 8.403s-3.286 8.403-8.504 8.403zm0-14.373h-4.966v11.94h4.966c3.888 0 5.644-1.656 5.644-5.97s-1.756-5.97-5.644-5.97zm12.278 14.373h-3.01l7.5-16.806h3.812l7.5 16.806h-3.06l-1.931-4.364h-8.88l-1.931 4.364zm5.292-11.914l-2.282 5.117h6.722l-2.283-5.117-.978-2.383h-.2l-.979 2.383zm20.393 11.914h-2.684v-5.794l-7.374-11.011h3.311l3.963 5.97 1.404 2.132h.201l1.38-2.132 3.938-5.97h3.336l-7.475 11.062v5.744z" fill="#ff39f8"/><rect x="326.185" y="18.745" width="67.525" height="19.805" rx="9.902" fill="url(#G)"/><rect x="326.185" y="18.745" width="67.525" height="19.805" rx="9.902" stroke="#8d55ff" stroke-width="2.622"/><path d="M339.248 32.747h-4.76v-8.198h4.589c1.566 0 2.508.722 2.508 2.019 0 .967-.538 1.689-1.786 1.835v.086c1.395.159 2.08.918 2.08 1.994 0 1.407-.942 2.264-2.631 2.264zm-3.45-7.011v2.251h3.095c.918 0 1.383-.355 1.383-1.126s-.428-1.126-1.346-1.126h-3.132zm0 3.34v2.484h3.303c.979 0 1.456-.367 1.456-1.26 0-.856-.489-1.224-1.456-1.224h-3.303zm8.258 3.671h-1.321v-8.198h1.321v8.198zm4.992.122c-2.41 0-4.013-1.664-4.013-4.221s1.725-4.221 4.344-4.221c2.325 0 3.94 1.175 3.94 3.071v.098h-1.456v-.098c0-1.175-.82-1.811-2.521-1.811-1.97 0-2.912.918-2.912 2.961s.93 2.949 2.851 2.949c1.958 0 2.729-.538 2.729-1.921v-.11h-3.035v-1.003h4.344v4.185h-1.199v-1.774h-.086c-.343 1.199-1.383 1.897-2.986 1.897zm9.154 0c-2.411 0-4.014-1.664-4.014-4.221s1.725-4.221 4.344-4.221c2.325 0 3.94 1.175 3.94 3.071v.098h-1.456v-.098c0-1.175-.82-1.811-2.521-1.811-1.97 0-2.912.918-2.912 2.961s.93 2.949 2.851 2.949c1.958 0 2.729-.538 2.729-1.921v-.11h-3.035v-1.003h4.344v4.185h-1.199v-1.774h-.086c-.343 1.199-1.383 1.897-2.985 1.897zm11.942-.122h-6.558v-8.198h6.558v1.187h-5.237v2.3h5.054v1.175h-5.054v2.349h5.237v1.187zm4.468.122c-2.447 0-3.695-1.077-3.695-2.802v-.073h1.321v.196c0 .979.575 1.468 2.374 1.468 1.566 0 2.117-.343 2.117-1.113 0-.71-.416-.979-1.456-1.175l-2.007-.33c-1.383-.245-2.362-.881-2.362-2.227 0-1.187.979-2.386 3.524-2.386 2.399 0 3.488 1.199 3.488 2.802v.073h-1.31v-.159c0-1.003-.599-1.505-2.3-1.505-1.493 0-2.08.367-2.08 1.101 0 .71.416.942 1.383 1.15l1.994.343c1.64.294 2.447 1.04 2.447 2.239 0 1.248-1.015 2.398-3.438 2.398zm8.451-.122h-1.309v-7.011h-3.231v-1.187h7.758v1.187h-3.218v7.011z" class="B"/><path d="M412.877 37.27h-10.218V19.448h9.85c3.363 0 5.385 1.569 5.385 4.389 0 2.101-1.156 3.671-3.835 3.99v.186c2.995.346 4.466 1.995 4.466 4.336 0 3.059-2.023 4.921-5.648 4.921zm-7.407-15.242v4.894h6.645c1.97 0 2.969-.771 2.969-2.447s-.92-2.447-2.89-2.447h-6.724zm0 7.262v5.4h7.092c2.101 0 3.126-.798 3.126-2.74 0-1.862-1.051-2.66-3.126-2.66h-7.092zm28.577 7.98h-13.685V19.448h2.837V34.69h10.848v2.58zm3.673 0h-3.152l7.854-17.822h3.992l7.854 17.822h-3.204l-2.023-4.628h-9.298l-2.023 4.628zm5.542-12.635l-2.39 5.426h7.04l-2.391-5.426-1.024-2.527h-.21l-1.025 2.527zm20.883 12.901c-5.464 0-9.089-3.618-9.089-9.177s3.625-9.177 9.089-9.177c4.964 0 8.432 2.66 8.432 6.916v.372h-3.126v-.372c0-2.713-1.707-4.176-5.28-4.176-4.124 0-6.12 1.995-6.12 6.437s1.996 6.41 6.12 6.41c3.573 0 5.28-1.436 5.28-4.176v-.346h3.126v.346c0 4.282-3.441 6.943-8.432 6.943zm13.359-.266h-2.837V19.448h2.837v7.608h5.332l5.148-7.608h3.362l-6.146 8.805 6.12 9.017h-3.362l-5.07-7.448h-5.384v7.448zm22.676 0h-2.837V19.448h14v2.58H500.18v5.533h10.769v2.554H500.18v7.155zm16.109 0h-2.837V19.448h9.141c3.993 0 6.462 1.915 6.462 5.24 0 2.953-1.918 4.761-5.227 4.948v.186c1.366.372 1.996 1.17 2.626 2.288l2.942 5.16h-3.257l-2.81-4.921c-.788-1.41-1.603-1.995-3.809-1.995h-3.231v6.916zm0-15.242v6.118h6.278c2.364 0 3.546-.825 3.546-3.059 0-2.181-1.182-3.059-3.546-3.059h-6.278zm17.648 15.242H531.1V19.448h2.837V37.27zm10.796 0h-8.011V19.448h8.011c5.464 0 8.905 3.405 8.905 8.911s-3.441 8.911-8.905 8.911zm0-15.242h-5.2V34.69h5.2c4.072 0 5.911-1.756 5.911-6.331s-1.839-6.331-5.911-6.331zm12.858 15.242h-3.153l7.854-17.822h3.993l7.854 17.822h-3.205l-2.022-4.628h-9.299l-2.022 4.628zm5.542-12.635l-2.39 5.426h7.039l-2.39-5.426-1.024-2.527h-.211l-1.024 2.527zm21.355 12.635h-2.81v-6.145l-7.723-11.677h3.467l4.151 6.331 1.471 2.261h.21l1.444-2.261 4.124-6.331h3.494l-7.828 11.731v6.091z" fill="#00d9ff"/><g class="B"><path d="M761.9 63.562c-13.722 0-19.346-6.017-19.346-19.346 0-13.103 7.367-19.458 18.615-19.458 10.291 0 16.927 4.949 16.927 12.654v.45h-9.391v-.45c0-3.262-2.137-4.555-7.536-4.555-6.917 0-9.617 2.193-9.617 9.898v2.475h.619c1.575-3.037 5.624-5.511 12.372-5.511 9.279 0 14.453 3.768 14.453 11.473 0 7.536-5.905 12.372-17.096 12.372zm-.45-8.098c6.692 0 8.717-1.575 8.717-4.893 0-3.487-1.968-5.005-8.661-5.005-7.086 0-9.279 1.518-9.279 4.893s2.25 5.005 9.223 5.005zm39.485 8.098c-12.148 0-18.84-7.648-18.84-19.402 0-11.697 6.692-19.402 18.84-19.402 12.091 0 18.839 7.705 18.839 19.402 0 11.754-6.748 19.402-18.839 19.402zm0-8.211c7.142 0 9.785-3.093 9.785-11.191s-2.643-11.191-9.785-11.191c-7.199 0-9.786 3.093-9.786 11.191s2.587 11.191 9.786 11.191zm30.916-11.866c-6.242 0-9.898-3.768-9.898-9.392s3.656-9.448 9.898-9.448c6.299 0 9.954 3.824 9.954 9.448s-3.655 9.392-9.954 9.392zM832.076 63h-8.154l31.999-37.679h8.154L832.076 63zm-.225-25.026c2.981 0 3.937-1.069 3.937-3.88s-.956-3.937-3.937-3.937c-2.924 0-3.88 1.125-3.88 3.937s.956 3.88 3.88 3.88zm24.239 25.644c-6.243 0-9.954-3.768-9.954-9.392s3.711-9.392 9.954-9.392 9.954 3.768 9.954 9.392-3.712 9.392-9.954 9.392zm0-5.511c2.924 0 3.936-1.069 3.936-3.88s-1.012-3.937-3.936-3.937-3.937 1.125-3.937 3.937 1.012 3.88 3.937 3.88zm41.152 5.455c-12.485 0-20.246-7.648-20.246-19.402s7.761-19.402 20.246-19.402c12.766 0 20.47 7.648 20.47 19.402s-7.704 19.402-20.47 19.402zm0-8.098c8.267 0 11.472-2.924 11.472-11.304s-3.205-11.304-11.472-11.304-11.304 2.924-11.304 11.304 3.037 11.304 11.304 11.304zM929.826 63h-8.435V25.321h31.887v7.592h-23.452v8.492h22.608v7.536h-22.608V63zm35.479 0h-8.436V25.321h31.887v7.592h-23.451v8.492h22.607v7.536h-22.607V63z"/><rect x="720.595" y="20.218" width="39.481" height="15.881" rx="4.017" transform="rotate(345 720.595 20.218)" fill-opacity=".2"/><path d="M732.84 28.388c-.491.132-.963.154-1.416.068a2.33 2.33 0 0 1-1.19-.638c-.34-.338-.592-.812-.755-1.42l-1.128-4.21 1.164-.312 1.131 4.22c.099.369.241.656.428.863a1.31 1.31 0 0 0 .66.405c.258.056.538.043.842-.038.311-.083.56-.212.749-.388a1.24 1.24 0 0 0 .368-.681c.059-.272.039-.593-.06-.961l-1.13-4.22 1.164-.312 1.128 4.21c.163.608.178 1.144.046 1.609a2.3 2.3 0 0 1-.73 1.152c-.356.303-.779.521-1.271.652zm4.487.96l-1.882-7.023 1.038-.278.316.674a2.39 2.39 0 0 1 .262-.496 1.79 1.79 0 0 1 .45-.453 2.2 2.2 0 0 1 .696-.311c.46-.123.894-.118 1.304.015.416.131.777.364 1.081.698.303.328.52.737.652 1.229s.146.959.043 1.402c-.099.435-.296.81-.593 1.126-.29.313-.662.531-1.114.652-.369.099-.71.117-1.025.056a1.8 1.8 0 0 1-.821-.425l.757 2.823-1.164.312zm1.74-3.71c.272-.073.497-.202.675-.389s.296-.412.35-.676c.06-.266.05-.55-.032-.854-.083-.31-.217-.566-.402-.765a1.35 1.35 0 0 0-.641-.411c-.248-.072-.508-.072-.779.001a1.44 1.44 0 0 0-.685.392c-.173.185-.289.41-.35.676-.054.264-.04.548.042.852a1.87 1.87 0 0 0 .392.768 1.54 1.54 0 0 0 .641.411c.248.072.511.071.789-.004zm7.947-1.173l-1.567-5.849-1.998.536-.253-.941 5.151-1.38.252.941-1.998.535 1.567 5.849-1.154.309zm5.513-1.352c-.466.125-.915.131-1.347.018-.428-.121-.799-.344-1.115-.668-.311-.333-.533-.748-.666-1.246-.137-.511-.15-.986-.039-1.424a2.38 2.38 0 0 1 .631-1.136c.316-.32.707-.543 1.173-.668s.912-.127 1.34-.005a2.31 2.31 0 0 1 1.112.659c.315.324.542.742.679 1.253s.149.986.038 1.424a2.45 2.45 0 0 1-.641 1.139c-.311.312-.7.531-1.165.655zm-.268-.999c.233-.062.427-.177.584-.344.162-.168.271-.385.325-.649s.035-.567-.057-.91-.226-.612-.403-.807c-.172-.203-.371-.337-.596-.402-.219-.066-.445-.068-.678-.006a1.24 1.24 0 0 0-.583.344c-.163.168-.272.385-.326.649-.055.258-.037.558.054.9s.228.615.406.817.378.335.597.402c.225.064.451.066.677.006z"/></g><g clip-path="url(#K)" fill="#fcffff"><path d="M1132.65 44.375c.01-4.214-3.4-7.64-7.61-7.651-4.22-.011-7.64 3.396-7.65 7.61-.01 2.11.86 4.127 2.39 5.574l-1.59 2.789 1.2.691 1.48-2.605a7.6 7.6 0 0 0 8.25 0l1.48 2.605 1.19-.691-1.54-2.789c1.53-1.435 2.39-3.437 2.4-5.533zm-5.05 1.153h-3a.69.69 0 0 1-.69-.691v-3.85a.69.69 0 1 1 1.38 0v3.158h2.31a.692.692 0 1 1 0 1.383zm-6.6-9.877c-.01-.005-.01-.009-.02-.013a3.5 3.5 0 0 0-4.95-.001c-1.37 1.369-1.37 3.588 0 4.956a.68.68 0 0 0 .96.001l3.99-3.965c.28-.266.28-.704.02-.978zm12.96-.012c-.65-.645-1.53-1.009-2.44-1.015-.93-.003-1.81.362-2.47 1.014a.7.7 0 0 0 0 .968l3.97 3.988a.68.68 0 0 0 .96 0 3.49 3.49 0 0 0-.02-4.955z"/></g><path d="M1140.7 50.5V37.409h2.37v11.103h5.77V50.5h-8.14zm10.09 0v-9.818h2.32V50.5h-2.32zm1.16-11.212a1.34 1.34 0 0 1-.94-.364c-.27-.247-.4-.543-.4-.889s.13-.646.4-.889c.26-.247.58-.371.94-.371.38 0 .69.124.95.371.27.243.4.539.4.889s-.13.641-.4.889a1.33 1.33 0 0 1-.95.364zm3.53 11.212v-9.818h2.22v1.668h.11c.21-.562.54-1.001 1.02-1.317.47-.32 1.04-.479 1.69-.479.67 0 1.23.162 1.68.486a2.5 2.5 0 0 1 .97 1.31h.11c.21-.545.58-.98 1.1-1.304s1.13-.492 1.84-.492c.91 0 1.64.285 2.22.856.57.571.85 1.404.85 2.499v6.59h-2.32v-6.232c0-.609-.16-1.055-.48-1.336-.33-.286-.72-.428-1.19-.428-.56 0-1 .175-1.31.524s-.47.795-.47 1.349V50.5h-2.27v-6.328c0-.507-.15-.912-.46-1.215-.3-.303-.7-.454-1.19-.454a1.71 1.71 0 0 0-.91.256c-.27.166-.49.403-.65.709s-.24.656-.24 1.061v5.97h-2.32zm16.16 0v-9.818h2.31V50.5h-2.31zm1.16-11.212a1.34 1.34 0 0 1-.94-.364c-.27-.247-.4-.543-.4-.889s.13-.646.4-.889c.26-.247.58-.371.94-.371.37 0 .69.124.95.371a1.17 1.17 0 0 1 .39.889c0 .345-.13.641-.39.889s-.58.364-.95.364zm8.44 1.393v1.79h-5.65v-1.79h5.65zm-4.26-2.352h2.32v9.217c0 .311.05.55.14.716a.75.75 0 0 0 .38.332 1.48 1.48 0 0 0 .53.09c.14 0 .27-.011.39-.032l.28-.058.39 1.809c-.12.043-.3.09-.53.141-.22.051-.5.081-.83.09-.58.017-1.1-.07-1.56-.262-.47-.196-.84-.499-1.11-.908s-.4-.921-.4-1.534V38.33zm10.43 12.362c-.98 0-1.83-.205-2.55-.614-.71-.413-1.26-.997-1.64-1.751-.39-.759-.58-1.651-.58-2.678 0-1.01.19-1.896.58-2.659s.93-1.364 1.62-1.79c.7-.43 1.51-.646 2.45-.646a4.89 4.89 0 0 1 1.71.294 3.85 3.85 0 0 1 1.43.895c.42.405.75.921.99 1.547s.36 1.364.36 2.224v.709h-8.05v-1.56h5.83c-.01-.443-.1-.837-.29-1.183a2.14 2.14 0 0 0-.78-.825c-.34-.2-.72-.3-1.17-.3-.47 0-.89.115-1.24.345-.36.226-.64.524-.84.895a2.48 2.48 0 0 0-.3 1.208v1.362c0 .571.1 1.061.31 1.47a2.22 2.22 0 0 0 .88.933c.37.213.81.32 1.31.32.34 0 .64-.047.92-.141.27-.098.51-.241.71-.428s.35-.42.45-.697l2.16.243c-.13.571-.39 1.07-.78 1.496a3.76 3.76 0 0 1-1.46.984c-.59.23-1.27.345-2.03.345zm9.97-.019c-.77 0-1.46-.198-2.07-.595s-1.09-.972-1.45-1.726c-.35-.754-.53-1.67-.53-2.749 0-1.091.18-2.011.54-2.761s.85-1.323 1.46-1.707a3.78 3.78 0 0 1 2.05-.582c.58 0 1.05.098 1.42.294s.67.424.89.697c.21.269.38.522.5.761h.1v-4.896h2.32V50.5h-2.28v-1.547h-.14a3.82 3.82 0 0 1-.52.761c-.22.264-.52.49-.89.678s-.84.281-1.4.281zm.64-1.899c.49 0 .91-.132 1.26-.396.34-.268.6-.641.78-1.119s.27-1.033.27-1.668-.09-1.187-.27-1.655c-.17-.469-.43-.833-.78-1.093-.34-.26-.76-.39-1.26-.39-.51 0-.94.134-1.29.403-.34.269-.6.639-.78 1.112-.17.473-.26 1.014-.26 1.624s.09 1.161.26 1.643c.18.477.44.854.79 1.131s.78.409 1.28.409zm11.04-9.377v-1.988h10.45v1.988h-4.05V50.5h-2.35V39.397h-4.05zm12.36 11.103v-9.818h2.31V50.5h-2.31zm1.16-11.212a1.34 1.34 0 0 1-.94-.364c-.27-.247-.4-.543-.4-.889s.13-.646.4-.889c.26-.247.58-.371.94-.371.37 0 .69.124.95.371s.4.539.4.889-.14.641-.4.889-.58.364-.95.364zm3.53 11.212v-9.818h2.22v1.668h.11a2.55 2.55 0 0 1 1.02-1.317c.47-.32 1.03-.479 1.69-.479.67 0 1.23.162 1.68.486a2.5 2.5 0 0 1 .97 1.31h.11c.21-.545.58-.98 1.1-1.304.51-.328 1.13-.492 1.84-.492.91 0 1.64.285 2.21.856.58.571.86 1.404.86 2.499v6.59h-2.32v-6.232c0-.609-.16-1.055-.49-1.336-.32-.286-.72-.428-1.18-.428-.56 0-1 .175-1.31.524-.32.345-.47.795-.47 1.349V50.5h-2.27v-6.328c0-.507-.15-.912-.46-1.215-.3-.303-.7-.454-1.19-.454a1.71 1.71 0 0 0-.91.256c-.27.166-.49.403-.65.709s-.24.656-.24 1.061v5.97h-2.32zm20.5.192c-.98 0-1.83-.205-2.55-.614-.71-.413-1.26-.997-1.64-1.751s-.57-1.651-.57-2.678c0-1.01.19-1.896.57-2.659.39-.767.93-1.364 1.63-1.79.69-.43 1.51-.646 2.44-.646.61 0 1.18.098 1.72.294a3.93 3.93 0 0 1 1.43.895c.42.405.74.921.98 1.547s.36 1.364.36 2.224v.709h-8.05v-1.56h5.83c0-.443-.1-.837-.29-1.183-.18-.349-.44-.624-.78-.825-.33-.2-.72-.3-1.16-.3-.48 0-.89.115-1.25.345s-.64.524-.84.895c-.19.366-.29.769-.3 1.208v1.362c0 .571.11 1.061.31 1.47a2.22 2.22 0 0 0 .88.933c.37.213.81.32 1.32.32.33 0 .64-.047.91-.141s.51-.241.71-.428.35-.42.45-.697l2.16.243c-.13.571-.39 1.07-.78 1.496-.37.422-.86.75-1.45.984-.6.23-1.27.345-2.04.345zm22.59-6.737c0 1.411-.26 2.619-.79 3.624-.52 1.002-1.24 1.768-2.15 2.301-.9.533-1.93.799-3.07.799-1.15 0-2.18-.266-3.08-.799-.91-.537-1.62-1.306-2.15-2.308s-.79-2.212-.79-3.618.26-2.616.79-3.618 1.24-1.775 2.15-2.307c.9-.533 1.93-.799 3.08-.799 1.14 0 2.17.266 3.07.799.91.533 1.63 1.302 2.15 2.307.53 1.002.79 2.207.79 3.618zm-2.38 0c0-.993-.16-1.83-.47-2.512s-.73-1.204-1.28-1.553c-.54-.354-1.17-.531-1.88-.531s-1.34.177-1.89.531c-.54.349-.97.867-1.28 1.553s-.46 1.519-.46 2.512.15 1.832.46 2.518.74 1.2 1.28 1.553c.55.349 1.18.524 1.89.524s1.34-.175 1.88-.524c.55-.354.97-.871 1.28-1.553s.47-1.526.47-2.518zm9.5-3.273v1.79h-5.81v-1.79h5.81zm-4.36 9.818V39.755c0-.661.14-1.21.41-1.649.28-.439.65-.767 1.11-.984.47-.217.98-.326 1.55-.326.4 0 .76.032 1.07.096l.69.173-.46 1.79c-.1-.03-.22-.06-.37-.09a2.28 2.28 0 0 0-.5-.051c-.43 0-.74.104-.92.313-.17.205-.26.499-.26.882V50.5h-2.32zm11.14-9.818v1.79h-5.8v-1.79h5.8zm-4.35 9.818V39.755c0-.661.13-1.21.41-1.649.27-.439.64-.767 1.11-.984.46-.217.98-.326 1.55-.326.4 0 .75.032 1.06.096l.69.173-.46 1.79a3.38 3.38 0 0 0-.37-.09c-.15-.034-.31-.051-.5-.051-.43 0-.73.104-.91.313-.17.205-.26.499-.26.882V50.5h-2.32zm10.14.192c-.98 0-1.83-.205-2.55-.614-.71-.413-1.26-.997-1.64-1.751-.39-.759-.58-1.651-.58-2.678 0-1.01.19-1.896.58-2.659a4.32 4.32 0 0 1 1.62-1.79c.69-.43 1.51-.646 2.45-.646.6 0 1.17.098 1.71.294a3.85 3.85 0 0 1 1.43.895c.42.405.75.921.99 1.547s.36 1.364.36 2.224v.709h-8.05v-1.56h5.83c-.01-.443-.1-.837-.29-1.183s-.45-.624-.79-.825c-.33-.2-.72-.3-1.16-.3-.47 0-.89.115-1.25.345a2.42 2.42 0 0 0-.83.895 2.48 2.48 0 0 0-.3 1.208v1.362c0 .571.1 1.061.31 1.47a2.22 2.22 0 0 0 .88.933c.37.213.81.32 1.31.32.34 0 .64-.047.92-.141.27-.098.51-.241.71-.428s.35-.42.45-.697l2.16.243a3.44 3.44 0 0 1-.78 1.496c-.38.422-.87.75-1.46.984s-1.27.345-2.03.345zm6.32-.192v-9.818h2.25v1.636h.1c.18-.567.49-1.004.92-1.31.44-.311.94-.467 1.5-.467l.43.019c.16.008.3.023.4.045v2.129a2.42 2.42 0 0 0-.46-.09 4.4 4.4 0 0 0-.61-.045c-.42 0-.8.092-1.14.275-.33.179-.59.428-.79.748-.19.32-.28.688-.28 1.106V50.5h-2.32zm8.73-1.79l-.08.703a10.91 10.91 0 0 1-.32 1.636l-.47 1.541-.41 1.106h-1.56l.25-1.061.3-1.509c.1-.558.17-1.125.2-1.7l.05-.716h2.04zm15.53-7.121c-.11-.345-.26-.654-.44-.927-.19-.277-.41-.514-.67-.709s-.55-.343-.88-.441a3.7 3.7 0 0 0-1.09-.153c-.7 0-1.33.177-1.88.531s-.98.874-1.3 1.56c-.31.682-.46 1.513-.46 2.493 0 .989.15 1.826.46 2.512.32.686.75 1.208 1.3 1.566.56.354 1.2.531 1.93.531.67 0 1.24-.128 1.73-.384s.87-.618 1.13-1.087.4-1.027.4-1.662l.53.083h-3.55v-1.854h5.31v1.572c0 1.121-.24 2.09-.71 2.908-.48.818-1.14 1.449-1.97 1.892-.84.439-1.8.658-2.88.658-1.21 0-2.26-.271-3.18-.812-.9-.545-1.61-1.319-2.13-2.32-.5-1.006-.76-2.199-.76-3.58 0-1.057.15-2.001.45-2.832s.73-1.536 1.27-2.116 1.17-1.027 1.9-1.33 1.52-.46 2.38-.46a6.31 6.31 0 0 1 2.03.32c.62.209 1.18.507 1.66.895a4.91 4.91 0 0 1 1.21 1.381c.32.533.52 1.121.62 1.764h-2.41zm9.06 9.102c-.99 0-1.84-.205-2.55-.614s-1.26-.997-1.64-1.751c-.39-.759-.58-1.651-.58-2.678 0-1.01.19-1.896.58-2.659.38-.767.92-1.364 1.62-1.79.69-.43 1.51-.646 2.45-.646.6 0 1.17.098 1.71.294a3.85 3.85 0 0 1 1.43.895c.42.405.75.921.99 1.547s.35 1.364.35 2.224v.709h-8.04v-1.56h5.83c-.01-.443-.1-.837-.29-1.183s-.45-.624-.79-.825c-.33-.2-.72-.3-1.16-.3-.47 0-.89.115-1.25.345a2.34 2.34 0 0 0-.83.895c-.2.366-.3.769-.31 1.208v1.362c0 .571.11 1.061.32 1.47a2.26 2.26 0 0 0 .87.933c.38.213.82.32 1.32.32a2.75 2.75 0 0 0 .91-.141c.28-.098.51-.241.71-.428s.36-.42.46-.697l2.16.243a3.44 3.44 0 0 1-.78 1.496c-.38.422-.87.75-1.46.984s-1.27.345-2.03.345zm11.22-10.01v1.79h-5.64v-1.79h5.64zm-4.25-2.352h2.32v9.217c0 .311.04.55.14.716a.75.75 0 0 0 .38.332 1.48 1.48 0 0 0 .53.09c.14 0 .27-.011.39-.032l.28-.058.39 1.809c-.12.043-.3.09-.53.141-.22.051-.5.081-.83.09-.58.017-1.1-.07-1.56-.262-.47-.196-.84-.499-1.11-.908s-.4-.921-.4-1.534V38.33zm10.65 12.17v-9.818h2.32V50.5h-2.32zm1.17-11.212c-.37 0-.68-.122-.95-.364-.26-.247-.39-.543-.39-.889a1.17 1.17 0 0 1 .39-.889 1.35 1.35 0 0 1 .95-.371 1.31 1.31 0 0 1 .94.371c.27.243.4.539.4.889s-.13.641-.4.889a1.32 1.32 0 0 1-.94.364zm8.43 1.393v1.79h-5.64v-1.79h5.64zm-4.25-2.352h2.31v9.217c0 .311.05.55.14.716a.77.77 0 0 0 .39.332c.16.06.33.09.52.09a2.27 2.27 0 0 0 .4-.032l.28-.058.39 1.809c-.12.043-.3.09-.53.141s-.5.081-.83.09c-.58.017-1.1-.07-1.57-.262a2.43 2.43 0 0 1-1.1-.908c-.27-.409-.4-.921-.4-1.534V38.33zm21.51-.92V50.5h-2.11l-6.17-8.917h-.11V50.5h-2.37V37.409h2.13l6.16 8.923h.11v-8.923h2.36zm6.77 13.283c-.96 0-1.79-.211-2.5-.633a4.25 4.25 0 0 1-1.63-1.77c-.39-.759-.58-1.645-.58-2.659s.19-1.903.58-2.666c.38-.763.93-1.355 1.63-1.777.71-.422 1.54-.633 2.5-.633.95 0 1.79.211 2.49.633s1.24 1.014 1.63 1.777.58 1.651.58 2.666-.19 1.901-.58 2.659-.93 1.349-1.63 1.77-1.54.633-2.49.633zm.01-1.854c.52 0 .95-.143 1.3-.428s.61-.678.78-1.163c.18-.486.26-1.027.26-1.623s-.08-1.144-.26-1.63c-.17-.49-.43-.88-.78-1.17s-.78-.435-1.3-.435c-.53 0-.98.145-1.33.435s-.61.68-.79 1.17c-.17.486-.25 1.029-.25 1.63s.08 1.138.25 1.624c.18.486.44.874.79 1.163s.8.428 1.33.428zm8.4 1.662l-2.78-9.818h2.36l1.73 6.903h.09l1.76-6.903h2.34l1.76 6.865h.1l1.7-6.865h2.36l-2.78 9.818h-2.41l-1.84-6.635h-.13l-1.84 6.635h-2.42zm15.87-13.091l-.21 9.243h-2.06l-.21-9.243h2.48zm-1.24 13.231c-.39 0-.72-.136-1-.409-.27-.273-.41-.605-.41-.997 0-.383.14-.712.41-.984.28-.273.61-.409 1-.409.38 0 .71.136.98.409.28.273.42.601.42.984a1.33 1.33 0 0 1-.19.709 1.51 1.51 0 0 1-.51.511c-.21.123-.45.185-.7.185z" class="B"/><g filter="url(#B)"><path d="M1466 44c0-13.827 11.21-25.036 25.04-25.036h112.92c13.83 0 25.04 11.209 25.04 25.036s-11.21 25.036-25.04 25.036h-112.92c-13.83 0-25.04-11.209-25.04-25.036z" fill="url(#H)" shape-rendering="crispEdges"/><g filter="url(#C)" class="B"><path d="M1499.32 42.08a3.4 3.4 0 0 0-.39-.824 2.69 2.69 0 0 0-.59-.631c-.23-.174-.49-.305-.79-.392-.29-.091-.62-.136-.96-.136-.63 0-1.19.157-1.68.472-.48.314-.87.777-1.15 1.386s-.41 1.345-.41 2.216c0 .879.13 1.623.41 2.233s.66 1.074 1.15 1.392c.5.314 1.07.472 1.72.472.59 0 1.1-.114 1.53-.341a2.36 2.36 0 0 0 1.01-.966c.24-.42.35-.913.35-1.477l.48.074h-3.16v-1.648h4.72v1.398c0 .996-.21 1.858-.63 2.585a4.4 4.4 0 0 1-1.75 1.682c-.75.39-1.6.585-2.56.585-1.07 0-2.01-.241-2.82-.722s-1.44-1.172-1.9-2.062c-.45-.894-.67-1.955-.67-3.182 0-.939.13-1.778.4-2.517.26-.739.64-1.365 1.12-1.881s1.05-.913 1.69-1.182c.65-.273 1.36-.409 2.12-.409.64 0 1.24.095 1.8.284.55.186 1.05.451 1.48.796.44.345.79.754 1.07 1.227.29.473.47.996.56 1.568h-2.15zm4.19 7.92v-8.727h1.99v1.455h.1a2.15 2.15 0 0 1 .81-1.165c.39-.276.84-.415 1.34-.415l.38.017c.14.008.26.021.36.04v1.892a2.28 2.28 0 0 0-.42-.08c-.18-.027-.36-.04-.54-.04a2.09 2.09 0 0 0-1.01.244c-.29.159-.53.381-.7.665s-.25.612-.25.983V50h-2.06zm8.7.176c-.55 0-1.05-.098-1.5-.295-.43-.201-.78-.496-1.04-.886-.25-.39-.38-.871-.38-1.443 0-.492.09-.9.27-1.222a2.07 2.07 0 0 1 .75-.773c.31-.193.66-.339 1.06-.437a8.77 8.77 0 0 1 1.23-.222l1.25-.142c.31-.045.54-.114.69-.205s.22-.24.22-.437v-.034c0-.428-.13-.759-.38-.994s-.62-.352-1.1-.352c-.5 0-.9.11-1.2.33-.29.22-.48.479-.59.778l-1.92-.273c.15-.53.4-.973.75-1.33s.78-.629 1.28-.807 1.06-.273 1.67-.273a5.5 5.5 0 0 1 1.26.148c.41.098.79.261 1.14.489a2.51 2.51 0 0 1 .83.915c.21.386.32.869.32 1.449V50h-1.98v-1.199h-.07c-.12.242-.3.47-.53.682-.22.208-.5.377-.84.506s-.74.188-1.19.188zm.53-1.511c.42 0 .77-.081 1.08-.244.3-.167.53-.386.7-.659a1.74 1.74 0 0 0 .25-.892v-1.028c-.07.053-.18.102-.33.148a5.32 5.32 0 0 1-.52.119l-.56.091-.48.068c-.31.042-.58.11-.82.205-.25.095-.44.227-.58.398s-.21.383-.21.648c0 .379.14.665.42.858.27.193.62.29 1.05.29zm6.24 1.335V38.364h2.05v4.352h.09c.1-.212.25-.437.45-.676.19-.242.45-.449.78-.619s.75-.261 1.26-.261a3.35 3.35 0 0 1 1.83.517c.54.341.97.847 1.29 1.517s.48 1.485.48 2.455c0 .958-.15 1.773-.47 2.443-.31.671-.74 1.182-1.28 1.534s-1.16.528-1.84.528c-.5 0-.92-.083-1.25-.25s-.59-.367-.79-.602a3.74 3.74 0 0 1-.46-.676h-.12V50h-2.02zm2.01-4.364c0 .564.08 1.059.24 1.483s.4.756.7.994c.31.235.68.352 1.11.352.46 0 .84-.121 1.15-.364.3-.246.53-.581.69-1.006s.24-.915.24-1.46-.08-1.023-.24-1.443c-.15-.42-.38-.75-.69-.989s-.69-.358-1.15-.358c-.44 0-.81.115-1.12.347a2.1 2.1 0 0 0-.69.972c-.16.417-.24.907-.24 1.472zm16.3-4.364v1.591h-5.02v-1.591h5.02zm-3.78-2.091h2.06v8.193c0 .276.04.489.12.636.09.144.2.242.34.295s.3.08.47.08a1.93 1.93 0 0 0 .35-.028l.25-.051.35 1.608c-.11.038-.27.08-.47.125s-.45.072-.74.08c-.52.015-.98-.062-1.39-.233-.42-.174-.74-.443-.99-.807-.24-.364-.35-.818-.35-1.364v-8.534zm7.74 5.705V50h-2.05V38.364h2.01v4.392h.1c.21-.492.52-.881.95-1.165s.98-.432 1.65-.432c.6 0 1.13.127 1.58.381s.8.625 1.05 1.114.37 1.085.37 1.79V50h-2.05v-5.239c0-.587-.15-1.044-.46-1.369-.3-.33-.72-.494-1.26-.494-.36 0-.69.08-.98.239a1.74 1.74 0 0 0-.67.676c-.16.295-.24.653-.24 1.074zm11.62 5.284c-.87 0-1.63-.182-2.26-.545-.64-.367-1.12-.886-1.46-1.557s-.52-1.468-.52-2.381c0-.898.18-1.686.52-2.364a3.81 3.81 0 0 1 1.44-1.591c.62-.383 1.34-.574 2.18-.574.53 0 1.04.087 1.52.261a3.46 3.46 0 0 1 1.27.795c.37.36.66.818.88 1.375.21.553.31 1.212.31 1.977v.631h-7.15v-1.386h5.18c0-.394-.09-.744-.25-1.051a1.88 1.88 0 0 0-.7-.733c-.3-.178-.64-.267-1.04-.267-.42 0-.79.102-1.1.307a2.13 2.13 0 0 0-.75.795c-.17.326-.26.684-.27 1.074v1.21c0 .508.1.943.28 1.307a2.04 2.04 0 0 0 .78.83c.33.189.73.284 1.17.284a2.46 2.46 0 0 0 .81-.125c.25-.087.46-.214.64-.381a1.66 1.66 0 0 0 .4-.619l1.92.216c-.12.508-.35.951-.69 1.329s-.77.667-1.3.875-1.13.307-1.81.307zm13.63-.17h-3.95V38.364h4.03c1.15 0 2.14.233 2.97.699.84.462 1.48 1.127 1.92 1.994.45.867.67 1.905.67 3.114s-.22 2.254-.67 3.125-1.09 1.54-1.94 2.006c-.84.466-1.85.699-3.03.699zm-1.84-1.824h1.73c.82 0 1.49-.148 2.03-.443s.95-.744 1.22-1.335c.28-.595.41-1.337.41-2.227s-.13-1.629-.41-2.216c-.27-.591-.67-1.032-1.21-1.324-.53-.295-1.18-.443-1.97-.443h-1.8v7.989zm13.26 1.994c-.87 0-1.63-.182-2.27-.545-.63-.367-1.12-.886-1.46-1.557s-.51-1.468-.51-2.381c0-.898.17-1.686.51-2.364.35-.682.83-1.212 1.45-1.591.61-.383 1.34-.574 2.17-.574.54 0 1.05.087 1.53.261a3.46 3.46 0 0 1 1.27.795c.37.36.66.818.87 1.375.22.553.32 1.212.32 1.977v.631h-7.15v-1.386h5.18c0-.394-.09-.744-.26-1.051-.16-.311-.4-.555-.7-.733-.29-.178-.64-.267-1.03-.267-.42 0-.79.102-1.11.307s-.56.466-.74.795-.26.684-.27 1.074v1.21c0 .508.09.943.28 1.307a2.04 2.04 0 0 0 .78.83c.33.189.72.284 1.17.284a2.46 2.46 0 0 0 .81-.125 1.84 1.84 0 0 0 .63-.381c.18-.167.31-.373.41-.619l1.92.216c-.13.508-.36.951-.7 1.329-.33.375-.77.667-1.29.875-.53.205-1.13.307-1.81.307zm8.13.006c-.55 0-1.05-.098-1.49-.295a2.46 2.46 0 0 1-1.05-.886c-.25-.39-.38-.871-.38-1.443 0-.492.09-.9.27-1.222.19-.322.43-.58.75-.773.31-.193.67-.339 1.06-.437a8.77 8.77 0 0 1 1.23-.222l1.25-.142c.32-.045.55-.114.69-.205.15-.095.22-.24.22-.437v-.034c0-.428-.12-.759-.38-.994-.25-.235-.62-.352-1.09-.352-.51 0-.91.11-1.2.33s-.49.479-.59.778l-1.92-.273c.15-.53.4-.973.75-1.33.34-.36.77-.629 1.27-.807.51-.182 1.07-.273 1.68-.273.42 0 .83.049 1.25.148a3.45 3.45 0 0 1 1.14.489c.35.223.62.528.83.915s.32.869.32 1.449V50h-1.98v-1.199h-.06c-.13.242-.31.47-.53.682-.23.208-.51.377-.85.506s-.73.188-1.19.188zm.54-1.511c.41 0 .77-.081 1.07-.244s.54-.386.7-.659a1.65 1.65 0 0 0 .25-.892v-1.028c-.07.053-.17.102-.33.148-.15.046-.32.085-.51.119l-.56.091-.49.068c-.3.042-.58.11-.82.205a1.37 1.37 0 0 0-.57.398c-.14.167-.21.383-.21.648 0 .379.13.665.41.858s.63.29 1.06.29zm8.2-10.301V50h-2.06V38.364h2.06zm9.01 5.216l-1.88.205a1.36 1.36 0 0 0-.28-.534c-.12-.167-.3-.301-.52-.403s-.49-.153-.8-.153c-.43 0-.79.093-1.08.278s-.43.426-.43.722c0 .254.09.46.28.619s.51.29.95.392l1.49.318c.83.178 1.44.46 1.84.847.41.386.61.892.62 1.517-.01.549-.17 1.034-.49 1.454-.31.417-.75.742-1.31.977s-1.2.352-1.93.352c-1.07 0-1.93-.223-2.58-.67s-1.04-1.078-1.17-1.881l2.01-.193c.09.394.28.691.58.892.29.201.68.301 1.15.301.49 0 .88-.1 1.18-.301s.45-.449.45-.744c0-.25-.1-.456-.29-.619s-.49-.288-.89-.375l-1.49-.312c-.83-.174-1.45-.468-1.85-.881-.41-.417-.61-.943-.6-1.58-.01-.538.14-1.004.44-1.398s.71-.705 1.24-.921 1.15-.329 1.85-.329c1.02 0 1.82.218 2.41.653s.96 1.025 1.1 1.767z"/></g></g><defs><filter id="A" x="520.391" y="43.482" width="77.4" height="30.129" filterUnits="userSpaceOnUse" class="C"><feFlood result="A" class="D"/><feColorMatrix in="SourceAlpha" values="0 0 0 0 0 0 0 0 0 0 0 0 0 0 0 0 0 0 127 0" result="B"/><feOffset dx="0.959897" dy="1.91979"/><feGaussianBlur stdDeviation="1.92"/><feComposite in2="B" operator="out"/><feColorMatrix values="0 0 0 0 0 0 0 0 0 0 0 0 0 0 0 0 0 0 0.2 0"/><feBlend in2="A"/><feBlend in="SourceGraphic"/></filter><filter id="B" x="1460" y="12.963" width="183" height="70.073" filterUnits="userSpaceOnUse" class="C"><feFlood result="A" class="D"/><feColorMatrix in="SourceAlpha" values="0 0 0 0 0 0 0 0 0 0 0 0 0 0 0 0 0 0 127 0" result="B"/><feOffset dx="4" dy="4"/><feGaussianBlur stdDeviation="5"/><feComposite in2="B" operator="out"/><feColorMatrix values="0 0 0 0 0.053172 0 0 0 0 0 0 0 0 0 0.183444 0 0 0 0.4 0"/><feBlend in2="A"/><feBlend in="SourceGraphic"/></filter><filter id="C" x="1490.23" y="37.205" width="116.758" height="15.972" filterUnits="userSpaceOnUse" class="C"><feFlood result="A" class="D"/><feColorMatrix in="SourceAlpha" values="0 0 0 0 0 0 0 0 0 0 0 0 0 0 0 0 0 0 127 0" result="B"/><feOffset dx="1" dy="1"/><feGaussianBlur stdDeviation="1"/><feComposite in2="B" operator="out"/><feColorMatrix values="0 0 0 0 0 0 0 0 0 0 0 0 0 0 0 0 0 0 0.25 0"/><feBlend in2="A"/><feBlend in="SourceGraphic"/></filter><linearGradient id="D" x1="0" y1="44" x2="1720" y2="44" href="#L"><stop stop-color="#130340"/><stop offset=".505" stop-color="#3f1787"/><stop offset="1" stop-color="#130340"/></linearGradient><radialGradient id="E" cx="0" cy="0" r="1" gradientTransform="translate(556.698 41.3991) scale(53.1345 64.8339)" href="#L"><stop offset=".095" stop-color="#311171"/><stop offset=".239" stop-color="#4b2499"/><stop offset=".716" stop-color="#280d64"/><stop offset=".777" stop-color="#1e005d"/></radialGradient><radialGradient id="F" cx="0" cy="0" r="1" gradientTransform="matrix(28.2401 -28.7183 2.53149 2.48819 533.082 57.0569)" href="#L"><stop/><stop offset=".563" stop-opacity="0"/></radialGradient><radialGradient id="G" cx="0" cy="0" r="1" gradientTransform="translate(357.889 9.10577) scale(57.5407 85.6861)" href="#L"><stop offset=".095" stop-color="#311171"/><stop offset=".239" stop-color="#4b2499"/><stop offset=".716" stop-color="#280d64"/><stop offset=".777" stop-color="#1e005d"/></radialGradient><linearGradient id="H" x1="1539.52" y1="18.963" x2="1527.98" y2="65.975" href="#L"><stop stop-color="#cc0fe5"/><stop offset=".688" stop-color="#a900bf"/></linearGradient><clipPath id="I"><path transform="translate(40 25.966)" d="M0 0h224v36.068H0z" class="B"/></clipPath><clipPath id="J"><path transform="matrix(.727136 .686494 -.686494 .727136 552.859 36.5142)" d="M0 0h3.496v49.627H0z" class="B"/></clipPath><clipPath id="K"><path transform="translate(1115 34)" d="M0 0h20v20H0z" class="B"/></clipPath><linearGradient id="L" gradientUnits="userSpaceOnUse"/></defs></svg>