<svg xmlns="http://www.w3.org/2000/svg" xml:space="preserve" style="enable-background:new 0 0 32 18" viewBox="0 0 32 18"><path d="M22 4.3h-1.9v-.1C20.2 1.9 18.3 0 16 0s-4.2 1.9-4.2 4.2v.2H10c-1.5 0-2.7 1.4-2.5 2.9l1.4 8.6c.1 1.2 1.2 2.1 2.4 2.1h9.4c1.2 0 2.3-.9 2.5-2.1l1.4-8.6c.2-1.6-1-3-2.6-3zm-9.2-.1C12.8 2.4 14.3 1 16 1c1.8 0 3.2 1.5 3.2 3.2v.2h-6.5v-.2zm4.3 4.4v.2l-.6 1-.4.7c0 .1-.1.1-.2 0L15 8.8c-.1-.2 0-.5.3-.5h1.5c.1 0 .3.2.3.3zm-2.7 4.6c-.1.2-.4.2-.6 0l-.2-.4-1.9-3.3c-.2-.4-.1-.9.3-1.1.1-.1.2-.1.3-.1h.9c.4 0 .8.2.9.6l.1.1.8 1.5.3.6c.1.2.1.4 0 .5l-.7 1.3-.2.3zm2.4.9h-1.5c-.2 0-.3-.2-.3-.3v-.2l.6-1 .4-.7c0-.1.1-.1.2 0l.9 1.7c.1.2-.1.5-.3.5zm3.5-4.6-2.1 3.7c-.1.2-.4.2-.6 0l-.3-.5-.7-1.3c-.1-.2-.1-.4 0-.5l.3-.6.8-1.5.1-.1c.2-.3.6-.6.9-.6h.8c.2 0 .3 0 .4.1.5.4.7.9.4 1.3z" style="fill:#fff"/></svg>