<svg xmlns="http://www.w3.org/2000/svg" width="80" height="84" fill="none" xmlns:v="https://vecta.io/nano"><rect x=".85" y=".85" width="78.3" height="82.3" rx="2.15" fill="#fff"/><rect x=".85" y=".85" width="78.3" height="82.3" rx="2.15" stroke="#8796a1" stroke-width="1.7"/><path fill-rule="evenodd" d="M10.524 26h40.923a1.53 1.53 0 0 1 1.524 1.524v28.953A1.53 1.53 0 0 1 51.447 58H10.524A1.53 1.53 0 0 1 9 56.476V27.524A1.53 1.53 0 0 1 10.524 26zm8.789 7.83c2.238 0 4.055 1.813 4.055 4.051a4.06 4.06 0 0 1-4.055 4.055c-2.238 0-4.051-1.817-4.051-4.055a4.05 4.05 0 0 1 4.051-4.051zm-6.786-4.308h36.919v20.562c-7.36-1.284-11.23-11.628-15.851-11.628-4.923 0-11.456 11.628-14.978 11.628-2.993 0-3.278-3.079-6.09-4.471v-16.09z" fill="#58707f"/><path d="M70 31H30a2 2 0 0 0-2 2v18a2 2 0 0 0 2 2h40a2 2 0 0 0 2-2V33a2 2 0 0 0-2-2z" fill="#000" fill-opacity=".8"/><g fill="#fff"><rect x="33" y="35" width="28" height="3" rx="1.5"/><rect x="33" y="42" width="34" height="2.5" rx="1.25"/><rect x="33" y="46.5" width="20" height="2.5" rx="1.25"/></g></svg>