<svg xmlns="http://www.w3.org/2000/svg" width="80" height="84" fill="none" xmlns:v="https://vecta.io/nano"><rect x=".85" y=".85" width="78.3" height="82.3" rx="2.15" fill="#fff"/><rect x=".85" y=".85" width="78.3" height="82.3" rx="2.15" stroke="#8796a1" stroke-width="1.7"/><path fill-rule="evenodd" d="M8.356 25.49h63.287c1.293 0 2.356 1.056 2.356 2.356v44.776c0 1.3-1.063 2.356-2.356 2.356H8.356C7.063 74.978 6 73.923 6 72.622V27.847c0-1.3 1.063-2.356 2.356-2.356zM21.948 37.6a6.27 6.27 0 0 1 6.272 6.265c0 3.461-2.811 6.272-6.272 6.272a6.27 6.27 0 0 1-6.265-6.272c0-3.461 2.804-6.265 6.265-6.265zm-10.495-6.663h57.095v31.799C57.166 60.75 51.181 44.753 44.035 44.753c-7.614 0-17.717 17.983-23.164 17.983-4.629 0-5.069-4.761-9.418-6.915V30.937z" fill="#58707f"/><path d="M65 9H15a2 2 0 0 0-2 2v26a2 2 0 0 0 2 2h50a2 2 0 0 0 2-2V11a2 2 0 0 0-2-2z" fill="#000" fill-opacity=".8"/><g fill="#fff"><rect x="24" y="14" width="32" height="4" rx="2"/><rect x="20" y="22.5" width="40" height="2.5" rx="1.25"/><rect x="20" y="27" width="40" height="2.5" rx="1.25"/><rect x="30" y="31.5" width="20" height="2.5" rx="1.25"/></g></svg>