<svg xmlns="http://www.w3.org/2000/svg" width="20" height="20"><defs><clipPath id="a"><path fill="#fff" d="M768 2804h20v20h-20z"/></clipPath></defs><g clip-path="url(#a)" transform="translate(-768 -2804)"><path fill="#2b87da" d="M783.721 2809.331h-1.91v-.1a4.23 4.23 0 0 0-8.46 0v.2h-1.812a2.6 2.6 0 0 0-2.518 2.921l1.41 8.661a2.507 2.507 0 0 0 2.518 2.115h9.467a2.586 2.586 0 0 0 2.518-2.115l1.41-8.661a2.769 2.769 0 0 0-2.623-3.021Zm-9.366-.1a3.223 3.223 0 1 1 6.445 0v.2h-6.542l.1-.2Zm4.331 4.532v.2l-.6 1.007-.4.7c0 .1-.1.1-.2 0l-.906-1.813a.34.34 0 0 1 .3-.5h1.511c.198.002.298.203.298.405Zm-2.719 4.532a.285.285 0 0 1-.5 0l-.2-.4-1.915-3.328a.81.81 0 0 1 .3-1.108.37.37 0 0 1 .3-.1h.906a.881.881 0 0 1 .906.6l.1.1.806 1.511.3.6a.45.45 0 0 1 0 .5l-.7 1.309Zm2.417.906h-1.507a.322.322 0 0 1-.3-.3v-.2l.5-1.007.4-.7c0-.1.1-.1.2 0l.906 1.712a.3.3 0 0 1-.196.494Zm3.525-4.633-2.115 3.726a.285.285 0 0 1-.5 0l-.3-.5-.7-1.309a.45.45 0 0 1 0-.5l.3-.6.806-1.511.1-.1a1.341 1.341 0 0 1 .906-.6h.806c.2 0 .3.1.4.1.401.387.602.891.3 1.293Z"/></g></svg>