<svg xmlns="http://www.w3.org/2000/svg" xmlns:xlink="http://www.w3.org/1999/xlink" width="307" height="186" fill="none"><style><![CDATA[.B{fill:#718491}.C{fill:#fff}.D{fill-rule:evenodd}]]></style><rect x="1.002" y="1.002" width="304.996" height="183.996" rx="2.998" class="C"/><rect x="1.002" y="1.002" width="304.996" height="183.996" rx="2.998" stroke="#8796a1" stroke-width="2.004"/><rect x="20" y="20" width="127.5" height="146" rx="3" fill="#f0f0f0"/><path d="M20 23a3 3 0 0 1 3-3h121.5a3 3 0 0 1 3 3v84H20V23z" class="B"/><g class="C"><rect x="28" y="28" width="111.5" height="6" rx="3"/><rect x="28" y="41" width="111.5" height="6" rx="3"/><rect x="28" y="54" width="111.5" height="6" rx="3"/><rect x="28" y="67" width="111.5" height="6" rx="3"/><rect x="28" y="80" width="111.5" height="6" rx="3"/><rect x="28" y="93" width="95.024" height="6" rx="3"/><use xlink:href="#K" class="D"/><path d="M33 149.269c2.582 2.515 6.11 4.064 10 4.064s7.418-1.549 10-4.064v-.123c0-1.336-.527-2.617-1.465-3.562s-2.209-1.475-3.535-1.475H38c-1.326 0-2.598.531-3.535 1.475S33 147.81 33 149.146v.123z"/><use xlink:href="#L"/></g><g class="B"><use xlink:href="#K" class="D"/><rect x="63.848" y="124" width="43.126" height="7" rx="3.5"/></g><g clip-path="url(#A)" class="B"><use xlink:href="#M"/></g><g clip-path="url(#B)" class="B"><path d="M78.848 137.5l1.5 3 3 .375-2.06 2.31.56 3.315-3-1.5-3 1.5.565-3.315-2.065-2.31 3-.375 1.5-3z"/></g><g clip-path="url(#C)" class="B"><path d="M88.848 137.5l1.5 3 3 .375-2.06 2.31.56 3.315-3-1.5-3 1.5.565-3.315-2.065-2.31 3-.375 1.5-3z"/></g><g clip-path="url(#D)" class="B"><path d="M98.848 137.5l1.5 3 3 .375-2.06 2.31.56 3.315-3-1.5-3 1.5.565-3.315-2.065-2.31 3-.375 1.5-3z"/></g><g clip-path="url(#E)" class="B"><path d="M108.848 137.5l1.5 3 3 .375-2.06 2.31.56 3.315-3-1.5-3 1.5.565-3.315-2.065-2.31 3-.375 1.5-3z"/></g><rect x="63.848" y="153" width="32.162" height="5" rx="2.5" fill="#8d9da7"/><path d="M44.125 117l8.125-10H36l8.125 10z" class="B"/><rect x="159.5" y="20" width="127.5" height="146" rx="3" fill="#f0f0f0"/><path d="M159.5 23a3 3 0 0 1 3-3H284a3 3 0 0 1 3 3v84H159.5V23z" class="B"/><g class="C"><rect x="167.5" y="28" width="111.5" height="6" rx="3"/><rect x="167.5" y="41" width="111.5" height="6" rx="3"/><rect x="167.5" y="54" width="111.5" height="6" rx="3"/><rect x="167.5" y="67" width="111.5" height="6" rx="3"/><rect x="167.5" y="80" width="111.5" height="6" rx="3"/><rect x="167.5" y="93" width="95.024" height="6" rx="3"/><use xlink:href="#N" class="D"/><path d="M172.5 149.269c2.582 2.515 6.11 4.064 10 4.064s7.418-1.549 10-4.064v-.123a5.06 5.06 0 0 0-1.464-3.562c-.938-.944-2.21-1.475-3.536-1.475h-10c-1.326 0-2.598.531-3.536 1.475a5.06 5.06 0 0 0-1.464 3.562v.123z"/><use xlink:href="#L" x="139.5"/></g><g class="B"><use xlink:href="#N" class="D"/><rect x="203.348" y="124" width="43.126" height="7" rx="3.5"/></g><g clip-path="url(#F)" class="B"><path d="M208.348 137.5l1.5 3 3 .375-2.06 2.31.56 3.315-3-1.5-3 1.5.565-3.315-2.065-2.31 3-.375 1.5-3z"/></g><g clip-path="url(#G)" class="B"><path d="M218.348 137.5l1.5 3 3 .375-2.06 2.31.56 3.315-3-1.5-3 1.5.565-3.315-2.065-2.31 3-.375 1.5-3z"/></g><g clip-path="url(#H)" class="B"><path d="M228.348 137.5l1.5 3 3 .375-2.06 2.31.56 3.315-3-1.5-3 1.5.565-3.315-2.065-2.31 3-.375 1.5-3z"/></g><g clip-path="url(#I)" class="B"><path d="M238.348 137.5l1.5 3 3 .375-2.06 2.31.56 3.315-3-1.5-3 1.5.565-3.315-2.065-2.31 3-.375 1.5-3z"/></g><g clip-path="url(#J)" class="B"><path d="M248.348 137.5l1.5 3 3 .375-2.06 2.31.56 3.315-3-1.5-3 1.5.565-3.315-2.065-2.31 3-.375 1.5-3z"/></g><rect x="203.348" y="153" width="32.162" height="5" rx="2.5" fill="#8d9da7"/><path d="M183.625 117l8.125-10H175.5l8.125 10z" class="B"/><defs><clipPath id="A"><path transform="translate(63.848 137)" d="M0 0h10v10H0z" class="C"/></clipPath><clipPath id="B"><path transform="translate(73.848 137)" d="M0 0h10v10H0z" class="C"/></clipPath><clipPath id="C"><path transform="translate(83.848 137)" d="M0 0h10v10H0z" class="C"/></clipPath><clipPath id="D"><path transform="translate(93.848 137)" d="M0 0h10v10H0z" class="C"/></clipPath><clipPath id="E"><path transform="translate(103.848 137)" d="M0 0h10v10H0z" class="C"/></clipPath><clipPath id="F"><path transform="translate(203.348 137)" d="M0 0h10v10H0z" class="C"/></clipPath><clipPath id="G"><path transform="translate(213.348 137)" d="M0 0h10v10H0z" class="C"/></clipPath><clipPath id="H"><path transform="translate(223.348 137)" d="M0 0h10v10H0z" class="C"/></clipPath><clipPath id="I"><path transform="translate(233.348 137)" d="M0 0h10v10H0z" class="C"/></clipPath><clipPath id="J"><path transform="translate(243.348 137)" d="M0 0h10v10H0z" class="C"/></clipPath><path id="K" d="M43 124c-8.284 0-15 6.716-15 15s6.716 15 15 15 15-6.716 15-15-6.716-15-15-15zm-10 25.269c2.582 2.515 6.11 4.064 10 4.064s7.418-1.549 10-4.064v-.123c0-1.336-.527-2.617-1.465-3.562s-2.209-1.475-3.535-1.475H38c-1.326 0-2.598.531-3.535 1.475S33 147.81 33 149.146v.123zm15-12.568c0 2.782-2.239 5.037-5 5.037s-5-2.255-5-5.037 2.239-5.037 5-5.037 5 2.256 5 5.037z"/><path id="L" d="M43 141.738c2.761 0 5-2.255 5-5.037s-2.239-5.037-5-5.037-5 2.256-5 5.037 2.239 5.037 5 5.037z"/><path id="M" d="M68.848 137.5l1.5 3 3 .375-2.06 2.31.56 3.315-3-1.5-3 1.5.565-3.315-2.065-2.31 3-.375 1.5-3z"/><path id="N" d="M182.5 124c-8.284 0-15 6.716-15 15s6.716 15 15 15 15-6.716 15-15-6.716-15-15-15zm-10 25.269c2.582 2.515 6.11 4.064 10 4.064s7.418-1.549 10-4.064v-.123a5.06 5.06 0 0 0-1.464-3.562c-.938-.944-2.21-1.475-3.536-1.475h-10c-1.326 0-2.598.531-3.536 1.475a5.06 5.06 0 0 0-1.464 3.562v.123zm15-12.568c0 2.782-2.239 5.037-5 5.037s-5-2.255-5-5.037 2.239-5.037 5-5.037 5 2.256 5 5.037z"/></defs></svg>