<svg xmlns="http://www.w3.org/2000/svg" xmlns:xlink="http://www.w3.org/1999/xlink" width="307" height="186" fill="none"><rect x=".999" y=".999" width="305.001" height="184.001" rx="3.001" fill="#fff"/><rect x=".999" y=".999" width="305.001" height="184.001" rx="3.001" stroke="#8796a1" stroke-width="1.999"/><g fill="#718491"><path fill-rule="evenodd" d="M50 20c-12.15 0-22 9.85-22 22s9.85 22 22 22 22-9.85 22-22-9.85-22-22-22zM35.333 57.061c3.788 3.689 8.962 5.962 14.667 5.962s10.879-2.272 14.667-5.962v-.18c0-1.959-.773-3.838-2.148-5.224s-3.24-2.164-5.185-2.164H42.667c-1.945 0-3.81.778-5.185 2.164s-2.148 3.265-2.148 5.224v.18zm22-18.432c0 4.08-3.283 7.388-7.333 7.388s-7.333-3.308-7.333-7.388S45.95 31.241 50 31.241s7.333 3.308 7.333 7.388z"/><rect x="82" y="19" width="87.714" height="7" rx="3.5"/></g><g clip-path="url(#A)"><path d="M87 32.5l1.5 3 3 .375-2.06 2.31L90 41.5 87 40l-3 1.5.565-3.315-2.065-2.31 3-.375 1.5-3z" fill="#718491"/></g><g clip-path="url(#B)"><use xlink:href="#I" fill="#718491"/></g><g clip-path="url(#C)"><path d="M107 32.5l1.5 3 3 .375-2.06 2.31.56 3.315-3-1.5-3 1.5.565-3.315-2.065-2.31 3-.375 1.5-3z" fill="#718491"/></g><g clip-path="url(#D)"><path d="M117 32.5l1.5 3 3 .375-2.06 2.31.56 3.315-3-1.5-3 1.5.565-3.315-2.065-2.31 3-.375 1.5-3z" fill="#718491"/></g><g clip-path="url(#E)"><path d="M127 32.5l1.5 3 3 .375-2.06 2.31.56 3.315-3-1.5-3 1.5.565-3.315-2.065-2.31 3-.375 1.5-3z" fill="#718491"/></g><rect x="82" y="48" width="70.902" height="6" rx="3" fill="#8d9da7"/><g fill="#8796a1"><rect x="82" y="66" width="197" height="6" rx="3"/><rect x="28" y="78" width="251" height="6" rx="3"/><rect x="28" y="90" width="251" height="6" rx="3"/><rect x="28" y="102" width="251" height="6" rx="3"/><rect x="28" y="114" width="251" height="6" rx="3"/><rect x="28" y="132" width="73.095" height="7" rx="3.5"/><rect x="28" y="145" width="52.629" height="6" rx="3"/></g><g clip-path="url(#F)"><path d="M36.438 157.625h-6.875a.94.94 0 0 0-.937.937v6.876a.94.94 0 0 0 .938.937h6.875a.94.94 0 0 0 .938-.937v-6.876a.94.94 0 0 0-.937-.937zm-.955 3.102l.004.166c0 1.693-1.289 3.644-3.645 3.644a3.63 3.63 0 0 1-1.967-.574c.104.012.203.016.309.016.6 0 1.15-.204 1.59-.547-.562-.012-1.035-.381-1.197-.889.197.029.375.029.578-.023a1.28 1.28 0 0 1-1.025-1.258v-.016a1.28 1.28 0 0 0 .578.162 1.28 1.28 0 0 1-.57-1.066 1.27 1.27 0 0 1 .174-.647c.631.778 1.578 1.285 2.641 1.34a1.28 1.28 0 0 1 1.25-1.574c.369 0 .701.154.935.404.289-.054.566-.162.813-.308-.096.297-.297.547-.562.705a2.56 2.56 0 0 0 .738-.2c-.174.256-.393.483-.643.665z" fill="#8796a1"/></g><g clip-path="url(#G)"><path d="M49.361 157.625h-6.875c-.249 0-.487.099-.663.275s-.275.414-.275.662v6.876c0 .248.099.487.275.662s.414.275.663.275h2.681V163.4h-1.23V162h1.23v-1.067c0-1.214.723-1.885 1.829-1.885a7.42 7.42 0 0 1 1.084.095v1.191h-.611c-.602 0-.789.374-.789.757V162h1.343l-.215 1.4h-1.128v2.975h2.681c.249 0 .487-.099.663-.275s.275-.414.275-.662v-6.876c0-.248-.099-.487-.275-.662s-.414-.275-.663-.275z" fill="#8796a1"/></g><g clip-path="url(#H)"><path d="M62.598 157.625h-7.502c-.344 0-.623.283-.623.631v7.488c0 .348.279.631.623.631h7.502a.63.63 0 0 0 .625-.631v-7.488a.63.63 0 0 0-.625-.631zm-5.481 7.5H55.82v-4.176h1.299v4.176h-.002zm-.648-4.746c-.416 0-.752-.338-.752-.752s.336-.752.752-.752.752.338.752.752a.75.75 0 0 1-.752.752zm5.51 4.746h-1.297v-2.031c0-.485-.01-1.108-.674-1.108-.676 0-.779.528-.779 1.073v2.066h-1.297v-4.176h1.244v.571h.018c.174-.329.598-.674 1.229-.674 1.313 0 1.557.865 1.557 1.99v2.289z" fill="#8796a1"/></g><defs><clipPath id="A"><path fill="#fff" transform="translate(82 32)" d="M0 0h10v10H0z"/></clipPath><clipPath id="B"><path fill="#fff" transform="translate(92 32)" d="M0 0h10v10H0z"/></clipPath><clipPath id="C"><path fill="#fff" transform="translate(102 32)" d="M0 0h10v10H0z"/></clipPath><clipPath id="D"><path fill="#fff" transform="translate(112 32)" d="M0 0h10v10H0z"/></clipPath><clipPath id="E"><path fill="#fff" transform="translate(122 32)" d="M0 0h10v10H0z"/></clipPath><clipPath id="F"><path fill="#fff" transform="translate(28 157)" d="M0 0h10v10H0z"/></clipPath><clipPath id="G"><path fill="#fff" transform="translate(40.924 157)" d="M0 0h10v10H0z"/></clipPath><clipPath id="H"><path fill="#fff" transform="translate(53.848 157)" d="M0 0h10v10H0z"/></clipPath><path id="I" d="M97 32.5l1.5 3 3 .375-2.06 2.31.56 3.315-3-1.5-3 1.5.565-3.315-2.065-2.31 3-.375 1.5-3z"/></defs></svg>