<svg xmlns="http://www.w3.org/2000/svg" xmlns:xlink="http://www.w3.org/1999/xlink" width="307" height="186" fill="none"><style><![CDATA[.B{fill:#718491}.C{fill:#fff}.D{fill-rule:evenodd}]]></style><rect x="1.002" y="1.002" width="304.996" height="183.996" rx="2.998" class="C"/><rect x="1.002" y="1.002" width="304.996" height="183.996" rx="2.998" stroke="#8796a1" stroke-width="2.004"/><rect x="20" y="20" width="127.5" height="146" rx="3" fill="#f0f0f0"/><g class="B"><path d="M84.125 90l8.125-10H76l8.125 10z"/><path d="M20 23a3 3 0 0 1 3-3h121.5a3 3 0 0 1 3 3v58H20V23z"/></g><g class="C"><rect x="28" y="28" width="111.5" height="6" rx="3"/><rect x="28" y="41" width="111.5" height="6" rx="3"/><rect x="28" y="54" width="111.5" height="6" rx="3"/><rect x="28" y="67" width="95.024" height="6" rx="3"/><use xlink:href="#F" class="D"/><path d="M76 115.215a11.43 11.43 0 0 0 16 0v-.098c0-1.069-.421-2.094-1.172-2.85s-1.767-1.18-2.828-1.18h-8c-1.061 0-2.078.425-2.828 1.18S76 114.048 76 115.117v.098z"/><use xlink:href="#G"/></g><g class="B"><use xlink:href="#F" class="D"/><rect x="47" y="124" width="74" height="7" rx="3.5"/></g><g clip-path="url(#A)" class="B"><use xlink:href="#H"/></g><g clip-path="url(#B)" class="B"><path d="M74 137.5l1.5 3 3 .375-2.06 2.31.56 3.315-3-1.5-3 1.5.565-3.315-2.065-2.31 3-.375 1.5-3z"/></g><g clip-path="url(#C)" class="B"><path d="M84 137.5l1.5 3 3 .375-2.06 2.31.56 3.315-3-1.5-3 1.5.565-3.315-2.065-2.31 3-.375 1.5-3z"/></g><g clip-path="url(#D)" class="B"><path d="M94 137.5l1.5 3 3 .375-2.06 2.31.56 3.315-3-1.5-3 1.5.565-3.315-2.065-2.31 3-.375 1.5-3z"/></g><g clip-path="url(#E)" class="B"><path d="M104 137.5l1.5 3 3 .375-2.06 2.31.56 3.315-3-1.5-3 1.5.565-3.315-2.065-2.31 3-.375 1.5-3z"/></g><rect x="57.686" y="153" width="52.629" height="5" rx="2.5" fill="#9fa7ab"/><rect x="159.5" y="20" width="127.5" height="146" rx="3" fill="#f0f0f0"/><g class="B"><path d="M223.625 90l8.125-10H215.5l8.125 10z"/><path d="M159.5 23a3 3 0 0 1 3-3H284a3 3 0 0 1 3 3v58H159.5V23z"/></g><g class="C"><rect x="167.5" y="28" width="111.5" height="6" rx="3"/><rect x="167.5" y="41" width="111.5" height="6" rx="3"/><rect x="167.5" y="54" width="111.5" height="6" rx="3"/><rect x="167.5" y="67" width="95.024" height="6" rx="3"/><use xlink:href="#I" class="D"/><path d="M215.5 115.215a11.43 11.43 0 0 0 16 0v-.098c0-1.069-.421-2.094-1.172-2.85s-1.767-1.18-2.828-1.18h-8c-1.061 0-2.078.425-2.828 1.18s-1.172 1.781-1.172 2.85v.098z"/><use xlink:href="#G" x="139.5"/></g><g class="B"><use xlink:href="#I" class="D"/><rect x="186.5" y="124" width="74" height="7" rx="3.5"/><use xlink:href="#H" x="139.5"/><use xlink:href="#H" x="149.5"/><use xlink:href="#H" x="159.5"/><use xlink:href="#H" x="169.5"/><use xlink:href="#H" x="179.5"/></g><rect x="197.186" y="153" width="52.629" height="5" rx="2.5" fill="#9fa7ab"/><defs><clipPath id="A"><path transform="translate(59 137)" d="M0 0h10v10H0z" class="C"/></clipPath><clipPath id="B"><path transform="translate(69 137)" d="M0 0h10v10H0z" class="C"/></clipPath><clipPath id="C"><path transform="translate(79 137)" d="M0 0h10v10H0z" class="C"/></clipPath><clipPath id="D"><path transform="translate(89 137)" d="M0 0h10v10H0z" class="C"/></clipPath><clipPath id="E"><path transform="translate(99 137)" d="M0 0h10v10H0z" class="C"/></clipPath><path id="F" d="M84 95c-6.627 0-12 5.373-12 12s5.373 12 12 12 12-5.373 12-12-5.373-12-12-12zm-8 20.215a11.43 11.43 0 0 0 16 0v-.098c0-1.069-.421-2.094-1.172-2.85s-1.767-1.18-2.828-1.18h-8c-1.061 0-2.078.425-2.828 1.18S76 114.048 76 115.117v.098zm12-10.054c0 2.226-1.791 4.03-4 4.03s-4-1.804-4-4.03 1.791-4.029 4-4.029 4 1.804 4 4.029z"/><path id="G" d="M84 109.191c2.209 0 4-1.804 4-4.03s-1.791-4.029-4-4.029-4 1.804-4 4.029 1.791 4.03 4 4.03z"/><path id="H" d="M64 137.5l1.5 3 3 .375-2.06 2.31.56 3.315-3-1.5-3 1.5.565-3.315-2.065-2.31 3-.375 1.5-3z"/><path id="I" d="M223.5 95c-6.627 0-12 5.373-12 12s5.373 12 12 12 12-5.373 12-12-5.373-12-12-12zm-8 20.215a11.43 11.43 0 0 0 16 0v-.098c0-1.069-.421-2.094-1.172-2.85s-1.767-1.18-2.828-1.18h-8c-1.061 0-2.078.425-2.828 1.18s-1.172 1.781-1.172 2.85v.098zm12-10.054c0 2.226-1.791 4.03-4 4.03s-4-1.804-4-4.03 1.791-4.029 4-4.029 4 1.804 4 4.029z"/></defs></svg>