<svg xmlns="http://www.w3.org/2000/svg" xmlns:xlink="http://www.w3.org/1999/xlink" width="307" height="186" fill="none"><rect x="1" y="1" width="305" height="184" rx="3" fill="#fff"/><rect x="1" y="1" width="305" height="184" rx="3" stroke="#8796a1" stroke-width="2"/><path d="M36 75.565V23a3 3 0 0 1 3-3h245a3 3 0 0 1 3 3v140a3 3 0 0 1-3 3H39a3 3 0 0 1-3-3v-52.316" stroke="#718491" stroke-width="1.5"/><g fill="#718491"><path fill-rule="evenodd" d="M36 75c-9.941 0-18 8.059-18 18s8.059 18 18 18 18-8.059 18-18-8.059-18-18-18zm-12 30.322a17.14 17.14 0 0 0 12 4.878 17.14 17.14 0 0 0 12-4.878v-.147c0-1.603-.632-3.14-1.757-4.274s-2.651-1.77-4.243-1.77H30c-1.591 0-3.117.637-4.243 1.77S24 103.572 24 105.175v.147zm18-15.08c0 3.338-2.686 6.044-6 6.044s-6-2.706-6-6.044 2.686-6.044 6-6.044 6 2.706 6 6.044z"/><rect x="118.026" y="30" width="97.948" height="7" rx="3.5"/></g><g clip-path="url(#A)"><use xlink:href="#I" fill="#718491"/></g><g clip-path="url(#B)"><path d="M157 43.5l1.5 3 3 .375-2.06 2.31.56 3.315-3-1.5-3 1.5.565-3.315-2.065-2.31 3-.375 1.5-3z" fill="#718491"/></g><g clip-path="url(#C)"><path d="M167 43.5l1.5 3 3 .375-2.06 2.31.56 3.315-3-1.5-3 1.5.565-3.315-2.065-2.31 3-.375 1.5-3z" fill="#718491"/></g><g clip-path="url(#D)"><path d="M177 43.5l1.5 3 3 .375-2.06 2.31.56 3.315-3-1.5-3 1.5.565-3.315-2.065-2.31 3-.375 1.5-3z" fill="#718491"/></g><g clip-path="url(#E)"><path d="M187 43.5l1.5 3 3 .375-2.06 2.31.56 3.315-3-1.5-3 1.5.565-3.315-2.065-2.31 3-.375 1.5-3z" fill="#718491"/></g><rect x="128.26" y="59" width="77.481" height="6" rx="3" fill="#8d9da7"/><g fill="#8796a1"><rect x="62" y="76.5" width="210" height="6" rx="3"/><rect x="62" y="89.5" width="210" height="6" rx="3"/><rect x="62" y="102.5" width="210" height="6" rx="3"/><rect x="62" y="115.5" width="190.048" height="6" rx="3"/></g><rect x="123.143" y="133" width="87.714" height="7" rx="3.5" fill="#718491"/><g clip-path="url(#F)"><path d="M157.514 146.625h-6.875a.94.94 0 0 0-.938.937v6.876a.94.94 0 0 0 .938.937h6.875a.94.94 0 0 0 .937-.937v-6.876a.94.94 0 0 0-.937-.937zm-.955 3.102l.003.166c0 1.693-1.289 3.644-3.644 3.644a3.63 3.63 0 0 1-1.967-.574c.104.012.203.016.309.016.599 0 1.15-.204 1.59-.547-.563-.012-1.036-.381-1.198-.889.198.029.375.029.578-.023-.585-.12-1.025-.635-1.025-1.258v-.016a1.28 1.28 0 0 0 .578.162 1.28 1.28 0 0 1-.419-.461c-.1-.186-.151-.394-.151-.605 0-.238.062-.457.174-.647.631.778 1.578 1.285 2.64 1.34-.181-.869.469-1.574 1.25-1.574.369 0 .702.154.936.404a2.5 2.5 0 0 0 .812-.308 1.27 1.27 0 0 1-.562.705 2.55 2.55 0 0 0 .738-.2c-.174.256-.392.483-.642.665z" fill="#8796a1"/></g><g clip-path="url(#G)"><path d="M170.438 146.625h-6.876c-.248 0-.487.099-.662.275s-.275.414-.275.662v6.876c0 .248.099.487.275.662s.414.275.662.275h2.681V152.4h-1.23V151h1.23v-1.067c0-1.214.723-1.885 1.83-1.885.53 0 1.084.095 1.084.095v1.191h-.611c-.601 0-.789.374-.789.757V151h1.343l-.215 1.4h-1.128v2.975h2.681c.248 0 .487-.099.662-.275s.275-.414.275-.662v-6.876c0-.248-.099-.487-.275-.662s-.414-.275-.662-.275z" fill="#8796a1"/></g><g clip-path="url(#H)"><path d="M183.674 146.625h-7.502c-.344 0-.623.283-.623.631v7.488c0 .348.279.631.623.631h7.502a.63.63 0 0 0 .625-.631v-7.488a.63.63 0 0 0-.625-.631zm-5.481 7.5h-1.297v-4.176h1.299v4.176h-.002zm-.648-4.746c-.416 0-.752-.338-.752-.752s.336-.752.752-.752.752.338.752.752a.75.75 0 0 1-.752.752zm5.51 4.746h-1.297v-2.031c0-.485-.01-1.108-.674-1.108-.676 0-.779.528-.779 1.073v2.066h-1.297v-4.176h1.244v.571h.018c.173-.329.597-.674 1.228-.674 1.313 0 1.557.865 1.557 1.99v2.289z" fill="#8796a1"/></g><defs><clipPath id="A"><path fill="#fff" transform="translate(142 43)" d="M0 0h10v10H0z"/></clipPath><clipPath id="B"><path fill="#fff" transform="translate(152 43)" d="M0 0h10v10H0z"/></clipPath><clipPath id="C"><path fill="#fff" transform="translate(162 43)" d="M0 0h10v10H0z"/></clipPath><clipPath id="D"><path fill="#fff" transform="translate(172 43)" d="M0 0h10v10H0z"/></clipPath><clipPath id="E"><path fill="#fff" transform="translate(182 43)" d="M0 0h10v10H0z"/></clipPath><clipPath id="F"><path fill="#fff" transform="translate(149.076 146)" d="M0 0h10v10H0z"/></clipPath><clipPath id="G"><path fill="#fff" transform="translate(162 146)" d="M0 0h10v10H0z"/></clipPath><clipPath id="H"><path fill="#fff" transform="translate(174.924 146)" d="M0 0h10v10H0z"/></clipPath><path id="I" d="M147 43.5l1.5 3 3 .375-2.06 2.31.56 3.315-3-1.5-3 1.5.565-3.315-2.065-2.31 3-.375 1.5-3z"/></defs></svg>