<svg xmlns="http://www.w3.org/2000/svg" width="307" height="186" fill="none"><rect x="1.002" y="1.002" width="304.996" height="183.996" rx="2.998" fill="#fff"/><rect x="1.002" y="1.002" width="304.996" height="183.996" rx="2.998" stroke="#8796a1" stroke-width="2.004"/><path d="M36 41.434v-18.51C36 21.309 37.309 20 38.924 20h245.152c1.615 0 2.924 1.309 2.924 2.924v140.152c0 1.615-1.309 2.924-2.924 2.924H38.924c-1.615 0-2.924-1.309-2.924-2.924V73.553" stroke="#718491" stroke-width="1.503"/><g fill="#718491"><path fill-rule="evenodd" d="M35 36c-10.493 0-19 8.507-19 19s8.507 19 19 19 19-8.507 19-19-8.507-19-19-19zM22.333 68.007c3.271 3.186 7.74 5.149 12.667 5.149s9.396-1.963 12.667-5.149v-.156c0-1.692-.667-3.315-1.855-4.511a6.31 6.31 0 0 0-4.478-1.869H28.667a6.31 6.31 0 0 0-4.478 1.869c-1.188 1.197-1.855 2.819-1.855 4.511v.156zm19-15.918c0 3.524-2.836 6.38-6.333 6.38s-6.333-2.856-6.333-6.38 2.835-6.38 6.333-6.38 6.333 2.857 6.333 6.38z"/><rect x="62" y="36" width="87.714" height="7" rx="3.5"/></g><g clip-path="url(#A)"><path d="M67 49.5l1.5 3 3 .375-2.06 2.31L70 58.5 67 57l-3 1.5.565-3.315-2.065-2.31 3-.375 1.5-3z" fill="#718491"/></g><g clip-path="url(#B)"><path d="M77 49.5l1.5 3 3 .375-2.06 2.31L80 58.5 77 57l-3 1.5.565-3.315-2.065-2.31 3-.375 1.5-3z" fill="#718491"/></g><g clip-path="url(#C)"><path d="M87 49.5l1.5 3 3 .375-2.06 2.31L90 58.5 87 57l-3 1.5.565-3.315-2.065-2.31 3-.375 1.5-3z" fill="#718491"/></g><g clip-path="url(#D)"><path d="M97 49.5l1.5 3 3 .375-2.06 2.31.56 3.315-3-1.5-3 1.5.565-3.315-2.065-2.31 3-.375 1.5-3z" fill="#718491"/></g><g clip-path="url(#E)"><path d="M107 49.5l1.5 3 3 .375-2.06 2.31.56 3.315-3-1.5-3 1.5.565-3.315-2.065-2.31 3-.375 1.5-3z" fill="#718491"/></g><g fill="#8d9da7"><rect x="62" y="65" width="67.248" height="5" rx="2.5"/><rect x="62" y="76" width="43.857" height="5" rx="2.5"/></g><g clip-path="url(#F)"><path d="M70.439 87.625h-6.875a.94.94 0 0 0-.937.938v6.875a.94.94 0 0 0 .938.938h6.875a.94.94 0 0 0 .938-.937v-6.875a.94.94 0 0 0-.937-.937zm-.955 3.102l.004.166c0 1.693-1.289 3.644-3.645 3.644-.727 0-1.4-.211-1.967-.574.104.012.203.016.309.016a2.57 2.57 0 0 0 1.59-.547c-.562-.012-1.035-.381-1.197-.889a1.38 1.38 0 0 0 .578-.024 1.28 1.28 0 0 1-1.025-1.258v-.016a1.28 1.28 0 0 0 .578.162 1.28 1.28 0 0 1-.419-.461c-.1-.186-.151-.394-.151-.605 0-.238.063-.457.174-.647.631.777 1.578 1.285 2.641 1.34-.182-.869.469-1.574 1.25-1.574.369 0 .701.154.936.404a2.51 2.51 0 0 0 .813-.309 1.28 1.28 0 0 1-.562.705 2.55 2.55 0 0 0 .738-.199 2.7 2.7 0 0 1-.643.664z" fill="#8796a1"/></g><g clip-path="url(#G)"><path d="M83.361 87.625h-6.875a.94.94 0 0 0-.937.938v6.875a.94.94 0 0 0 .938.938h2.681V93.4h-1.231V92h1.231v-1.067c0-1.214.723-1.884 1.829-1.884a7.45 7.45 0 0 1 1.084.095v1.191h-.611c-.602 0-.789.373-.789.756V92h1.343l-.215 1.4h-1.129v2.975h2.681c.249 0 .487-.099.663-.275s.275-.414.275-.663v-6.875c0-.249-.099-.487-.275-.663s-.414-.275-.663-.275z" fill="#8796a1"/></g><g clip-path="url(#H)"><path d="M96.598 87.625h-7.502c-.344 0-.623.283-.623.631v7.488c0 .348.279.631.623.631h7.502a.63.63 0 0 0 .625-.631v-7.488a.63.63 0 0 0-.625-.631zm-5.481 7.5H89.82v-4.176h1.299v4.176h-.002zm-.648-4.746a.75.75 0 0 1-.752-.752c0-.414.336-.752.752-.752s.752.338.752.752a.75.75 0 0 1-.752.752zm5.51 4.746h-1.297v-2.031c0-.484-.01-1.107-.674-1.107-.676 0-.779.527-.779 1.072v2.066h-1.297v-4.176h1.244v.57h.018c.174-.328.598-.674 1.228-.674 1.313 0 1.557.865 1.557 1.99v2.289z" fill="#8796a1"/></g><g fill="#8796a1"><rect x="62" y="108" width="209" height="6" rx="3"/><rect x="62" y="120" width="209" height="6" rx="3"/><rect x="62" y="132" width="209" height="6" rx="3"/><rect x="62" y="144" width="190.048" height="6" rx="3"/></g><defs><clipPath id="A"><path fill="#fff" transform="translate(62 49)" d="M0 0h10v10H0z"/></clipPath><clipPath id="B"><path fill="#fff" transform="translate(72 49)" d="M0 0h10v10H0z"/></clipPath><clipPath id="C"><path fill="#fff" transform="translate(82 49)" d="M0 0h10v10H0z"/></clipPath><clipPath id="D"><path fill="#fff" transform="translate(92 49)" d="M0 0h10v10H0z"/></clipPath><clipPath id="E"><path fill="#fff" transform="translate(102 49)" d="M0 0h10v10H0z"/></clipPath><clipPath id="F"><path fill="#fff" transform="translate(62 87)" d="M0 0h10v10H0z"/></clipPath><clipPath id="G"><path fill="#fff" transform="translate(74.924 87)" d="M0 0h10v10H0z"/></clipPath><clipPath id="H"><path fill="#fff" transform="translate(87.848 87)" d="M0 0h10v10H0z"/></clipPath></defs></svg>