<svg xmlns="http://www.w3.org/2000/svg" xmlns:xlink="http://www.w3.org/1999/xlink" width="307" height="186" fill="none"><rect x="1.002" y="1.002" width="304.996" height="183.996" rx="2.998" fill="#fff"/><rect x="1.002" y="1.002" width="304.996" height="183.996" rx="2.998" stroke="#8796a1" stroke-width="2.004"/><rect x="20.366" y="76.366" width="266.269" height="85.269" rx="2.558" fill="#718491" stroke="#718491" stroke-width=".731"/><g fill="#fff"><use xlink:href="#F" fill-rule="evenodd"/><path d="M235.333 89.007c3.271 3.186 7.74 5.149 12.667 5.149s9.396-1.963 12.667-5.149v-.156c0-1.692-.668-3.315-1.855-4.511a6.31 6.31 0 0 0-4.479-1.869h-12.666a6.31 6.31 0 0 0-4.479 1.869c-1.187 1.197-1.855 2.819-1.855 4.511v.156zM248 79.469c3.498 0 6.333-2.856 6.333-6.38s-2.835-6.38-6.333-6.38-6.333 2.857-6.333 6.38 2.835 6.38 6.333 6.38z"/></g><use xlink:href="#F" fill-rule="evenodd" fill="#546069"/><rect x="20" y="24" width="87.714" height="7" rx="3.5" fill="#718491"/><g clip-path="url(#A)"><path d="M25 37.5l1.5 3 3 .375-2.06 2.31L28 46.5 25 45l-3 1.5.565-3.315-2.065-2.31 3-.375 1.5-3z" fill="#718491"/></g><g clip-path="url(#B)"><path d="M35 37.5l1.5 3 3 .375-2.06 2.31L38 46.5 35 45l-3 1.5.565-3.315-2.065-2.31 3-.375 1.5-3z" fill="#718491"/></g><g clip-path="url(#C)"><path d="M45 37.5l1.5 3 3 .375-2.06 2.31L48 46.5 45 45l-3 1.5.565-3.315-2.065-2.31 3-.375 1.5-3z" fill="#718491"/></g><g clip-path="url(#D)"><path d="M55 37.5l1.5 3 3 .375-2.06 2.31L58 46.5 55 45l-3 1.5.565-3.315-2.065-2.31 3-.375 1.5-3z" fill="#718491"/></g><g clip-path="url(#E)"><path d="M65 37.5l1.5 3 3 .375-2.06 2.31L68 46.5 65 45l-3 1.5.565-3.315-2.065-2.31 3-.375 1.5-3z" fill="#718491"/></g><rect x="20" y="53" width="67.248" height="6" rx="3" fill="#8d9da7"/><g fill="#fff"><rect x="34" y="103" width="239" height="6" rx="3"/><rect x="34" y="116" width="239" height="6" rx="3"/><rect x="34" y="129" width="239" height="6" rx="3"/><rect x="34" y="142" width="190.048" height="6" rx="3"/></g><path d="M44.125 66l8.125 10H36l8.125-10z" fill="#718491"/><defs><clipPath id="A"><path fill="#fff" transform="translate(20 37)" d="M0 0h10v10H0z"/></clipPath><clipPath id="B"><path fill="#fff" transform="translate(30 37)" d="M0 0h10v10H0z"/></clipPath><clipPath id="C"><path fill="#fff" transform="translate(40 37)" d="M0 0h10v10H0z"/></clipPath><clipPath id="D"><path fill="#fff" transform="translate(50 37)" d="M0 0h10v10H0z"/></clipPath><clipPath id="E"><path fill="#fff" transform="translate(60 37)" d="M0 0h10v10H0z"/></clipPath><path id="F" d="M248 57c-10.493 0-19 8.507-19 19s8.507 19 19 19 19-8.507 19-19-8.507-19-19-19zm-12.667 32.007c3.271 3.186 7.74 5.149 12.667 5.149s9.396-1.963 12.667-5.149v-.156c0-1.692-.668-3.315-1.855-4.511a6.31 6.31 0 0 0-4.479-1.869h-12.666a6.31 6.31 0 0 0-4.479 1.869c-1.187 1.197-1.855 2.819-1.855 4.511v.156zm19-15.918c0 3.524-2.835 6.38-6.333 6.38s-6.333-2.856-6.333-6.38 2.835-6.38 6.333-6.38 6.333 2.857 6.333 6.38z"/></defs></svg>