<svg xmlns="http://www.w3.org/2000/svg" xmlns:xlink="http://www.w3.org/1999/xlink" width="307" height="186" fill="none"><rect x="1" y="1" width="305" height="184" rx="3" fill="#fff"/><g stroke="#8796a1"><rect x="1" y="1" width="305" height="184" rx="3" stroke-width="2"/><rect x="20.75" y="16.75" width="265.5" height="152.5" rx="2.25" fill="#f0f0f0" stroke-width="1.5"/></g><g fill="#718491"><path fill-rule="evenodd" d="M48 30c-8.837 0-16 7.163-16 16s7.163 16 16 16 16-7.163 16-16-7.163-16-16-16zM37.333 56.953a15.24 15.24 0 0 0 21.333 0v-.131c0-1.425-.562-2.792-1.562-3.799s-2.357-1.574-3.771-1.574H42.667c-1.414 0-2.771.566-3.771 1.574s-1.562 2.374-1.562 3.799v.131zm16-13.405c0 2.967-2.388 5.373-5.333 5.373s-5.333-2.405-5.333-5.373 2.388-5.373 5.333-5.373 5.333 2.406 5.333 5.373z"/><rect x="72" y="30" width="203" height="6" rx="3"/><rect x="72" y="44" width="203" height="6" rx="3"/><rect x="72" y="58" width="203" height="6" rx="3"/><rect x="32" y="72" width="243" height="6" rx="3"/><rect x="32" y="86" width="243" height="6" rx="3"/></g><g fill="#546069"><rect x="104.5" y="104" width="98" height="8" rx="4"/><use xlink:href="#B"/><use xlink:href="#B" x="10"/><use xlink:href="#B" x="20"/><use xlink:href="#B" x="30"/><use xlink:href="#B" x="40"/></g><rect x="114.734" y="134" width="77.531" height="6" rx="3" fill="#8d9da7"/><path d="M144.012 146.625h-6.875a.94.94 0 0 0-.938.937v6.876a.94.94 0 0 0 .938.937h6.875a.94.94 0 0 0 .937-.937v-6.876a.94.94 0 0 0-.937-.937zm-.955 3.102l.004.166c0 1.693-1.29 3.644-3.645 3.644a3.63 3.63 0 0 1-1.967-.574c.104.012.203.016.309.016.599 0 1.15-.204 1.59-.547-.563-.012-1.036-.381-1.198-.889a1.4 1.4 0 0 0 .579-.023c-.586-.12-1.026-.635-1.026-1.258v-.016a1.28 1.28 0 0 0 .578.162 1.29 1.29 0 0 1-.419-.461c-.1-.186-.151-.394-.151-.605 0-.238.062-.457.174-.647.631.778 1.578 1.285 2.64 1.34-.181-.869.469-1.574 1.25-1.574.37 0 .702.154.936.404a2.5 2.5 0 0 0 .812-.308 1.27 1.27 0 0 1-.562.705 2.55 2.55 0 0 0 .738-.2c-.174.256-.392.483-.642.665zm13.881-3.102h-6.876c-.248 0-.487.099-.662.275a.94.94 0 0 0-.275.662v6.876c0 .248.099.487.275.662a.94.94 0 0 0 .662.275h2.681V152.4h-1.23V151h1.23v-1.067c0-1.214.723-1.885 1.83-1.885.53 0 1.084.095 1.084.095v1.191h-.611c-.601 0-.789.374-.789.757V151h1.343l-.215 1.4h-1.128v2.975h2.681c.248 0 .487-.099.662-.275a.94.94 0 0 0 .275-.662v-6.876c0-.248-.099-.487-.275-.662a.94.94 0 0 0-.662-.275zm13.237 0h-7.502c-.344 0-.623.283-.623.631v7.488c0 .348.279.631.623.631h7.502a.63.63 0 0 0 .625-.631v-7.488a.63.63 0 0 0-.625-.631zm-5.481 7.5h-1.297v-4.176h1.299v4.176h-.002zm-.648-4.746c-.416 0-.752-.338-.752-.752s.336-.752.752-.752.752.338.752.752a.75.75 0 0 1-.752.752zm5.51 4.746h-1.297v-2.031c0-.485-.01-1.108-.674-1.108-.676 0-.779.528-.779 1.073v2.066h-1.297v-4.176h1.244v.571h.018c.173-.329.597-.674 1.228-.674 1.313 0 1.557.865 1.557 1.99v2.289z" fill="#718491"/><defs ><path id="B" d="M133.5 118.5l1.5 3 3 .375-2.06 2.31.56 3.315-3-1.5-3 1.5.565-3.315-2.065-2.31 3-.375 1.5-3z"/></defs></svg>