<svg xmlns="http://www.w3.org/2000/svg" xmlns:xlink="http://www.w3.org/1999/xlink" width="307" height="186" fill="none"><rect x="1" y="1" width="305" height="184" rx="3" fill="#fff"/><rect x="1" y="1" width="305" height="184" rx="3" stroke="#8796a1" stroke-width="2"/><g fill="#718491"><path fill-rule="evenodd" d="M153.5 15c-8.837 0-16 7.163-16 16s7.163 16 16 16 16-7.163 16-16-7.163-16-16-16zm-10.667 26.953a15.24 15.24 0 0 0 21.334 0v-.131c0-1.425-.562-2.792-1.562-3.799s-2.357-1.574-3.772-1.574h-10.666c-1.415 0-2.771.566-3.772 1.574s-1.562 2.374-1.562 3.799v.131zm16-13.405c0 2.967-2.387 5.373-5.333 5.373s-5.333-2.405-5.333-5.373 2.387-5.373 5.333-5.373 5.333 2.406 5.333 5.373z"/><rect x="65.5" y="60" width="176" height="7" rx="3.5"/></g><g fill="#8796a1"><rect x="28" y="79" width="251" height="6" rx="3"/><rect x="28" y="92" width="251" height="6" rx="3"/><rect x="34.61" y="105" width="237.779" height="6" rx="3"/><rect x="77.643" y="118" width="151.715" height="6" rx="3"/></g><g fill="#718491"><rect x="104.526" y="136" width="97.948" height="7" rx="3.5"/><use xlink:href="#B"/><use xlink:href="#B" x="10"/><use xlink:href="#B" x="20"/><use xlink:href="#B" x="30"/><use xlink:href="#B" x="40"/></g><rect x="114.76" y="165" width="77.481" height="6" rx="3" fill="#8796a1"/><path d="M15.346 97.885l-4.568-4.568 4.568-4.568-.914-1.827-6.396 6.396 6.396 6.396.914-1.827zm276.309 0l4.569-4.568-4.569-4.568.914-1.827 6.396 6.396-6.396 6.396-.914-1.827z" fill="#718491"/><defs ><path id="B" d="M133.5 149.5l1.5 3 3 .375-2.06 2.31.56 3.315-3-1.5-3 1.5.565-3.315-2.065-2.31 3-.375 1.5-3z"/></defs></svg>