<svg xmlns="http://www.w3.org/2000/svg" width="200" height="120" fill="none" xmlns:v="https://vecta.io/nano"><style><![CDATA[.B{fill-rule:evenodd}]]></style><rect x=".6" y=".6" width="198.8" height="118.8" rx="2.4" fill="#fff"/><rect x=".6" y=".6" width="198.8" height="118.8" rx="2.4" stroke="#8796a1" stroke-width="1.2"/><g fill="#718491"><path d="M22.247 49.981h33.505A1.25 1.25 0 0 1 57 51.228v23.705a1.25 1.25 0 0 1-1.248 1.247H22.247A1.25 1.25 0 0 1 21 74.933V51.228a1.25 1.25 0 0 1 1.247-1.247zm7.196 6.411a3.32 3.32 0 0 1 3.32 3.317c0 1.832-1.488 3.32-3.32 3.32a3.32 3.32 0 0 1-3.317-3.32c0-1.832 1.484-3.317 3.317-3.317zm-5.556-3.528h30.227v16.835c-6.026-1.051-9.195-9.52-12.978-9.52-4.031 0-9.38 9.52-12.263 9.52-2.45 0-2.684-2.521-4.986-3.661V52.864z" class="B"/><rect x="21" y="81.18" width="36" height="3" rx="1.5"/><rect x="21" y="89.18" width="36" height="2.5" rx="1.25"/><rect x="21" y="94.18" width="25.113" height="2.5" rx="1.25"/><path d="M62.914 49.981h33.505a1.25 1.25 0 0 1 1.247 1.247v23.705a1.25 1.25 0 0 1-1.247 1.247H62.914a1.25 1.25 0 0 1-1.248-1.247V51.228a1.25 1.25 0 0 1 1.248-1.247zm7.196 6.411a3.32 3.32 0 0 1 3.32 3.317c0 1.832-1.488 3.32-3.32 3.32a3.32 3.32 0 0 1-3.317-3.32c0-1.832 1.484-3.317 3.317-3.317zm-5.556-3.528h30.227v16.835c-6.026-1.051-9.195-9.52-12.978-9.52-4.031 0-9.38 9.52-12.263 9.52-2.45 0-2.684-2.521-4.986-3.661V52.864z" class="B"/><rect x="61.667" y="81.18" width="36" height="3" rx="1.5"/><rect x="61.667" y="89.18" width="36" height="2.5" rx="1.25"/><rect x="61.667" y="94.18" width="25.113" height="2.5" rx="1.25"/><path d="M103.581 49.981h33.505a1.25 1.25 0 0 1 1.247 1.247v23.705a1.25 1.25 0 0 1-1.247 1.247h-33.505a1.25 1.25 0 0 1-1.248-1.247V51.228a1.25 1.25 0 0 1 1.248-1.247zm7.196 6.411a3.32 3.32 0 0 1 3.32 3.317c0 1.832-1.488 3.32-3.32 3.32a3.32 3.32 0 0 1-3.317-3.32c0-1.832 1.485-3.317 3.317-3.317zm-5.556-3.528h30.226v16.835c-6.026-1.051-9.194-9.52-12.977-9.52-4.031 0-9.38 9.52-12.263 9.52-2.451 0-2.684-2.521-4.986-3.661V52.864z" class="B"/><rect x="102.333" y="81.18" width="36" height="3" rx="1.5"/><rect x="102.333" y="89.18" width="36" height="2.5" rx="1.25"/><rect x="102.333" y="94.18" width="25.113" height="2.5" rx="1.25"/><path d="M144.247 49.981h33.506A1.25 1.25 0 0 1 179 51.228v23.705a1.25 1.25 0 0 1-1.247 1.247h-33.506A1.25 1.25 0 0 1 143 74.933V51.228a1.25 1.25 0 0 1 1.247-1.247zm7.196 6.411a3.32 3.32 0 0 1 3.321 3.317c0 1.832-1.488 3.32-3.321 3.32a3.32 3.32 0 0 1-3.316-3.32c0-1.832 1.484-3.317 3.316-3.317zm-5.556-3.528h30.227v16.835c-6.026-1.051-9.195-9.52-12.978-9.52-4.031 0-9.379 9.52-12.263 9.52-2.45 0-2.683-2.521-4.986-3.661V52.864z" class="B"/><rect x="143" y="81.18" width="36" height="3" rx="1.5"/><rect x="143" y="89.18" width="36" height="2.5" rx="1.25"/><rect x="143" y="94.18" width="25.113" height="2.5" rx="1.25"/></g><rect x="21.5" y="21.5" width="19" height="19" rx="1.5" fill="#58707f" stroke="#58707f"/><path d="M34.707 37.707a1 1 0 0 1-1.414 0l-6-6a1 1 0 0 1 0-1.414l6-6a1 1 0 0 1 1.414 1.414L29.414 31l5.293 5.293a1 1 0 0 1 0 1.414z" fill="#fff" class="B"/><rect x="47.5" y="21.5" width="19" height="19" rx="1.5" fill="#58707f" stroke="#58707f"/><path d="M53.293 37.707a1 1 0 0 0 1.414 0l6-6a1 1 0 0 0 0-1.414l-6-6a1 1 0 0 0-1.414 1.414L58.586 31l-5.293 5.293a1 1 0 0 0 0 1.414z" fill="#fff" class="B"/></svg>