<svg version="1.1" id="Layer_1" xmlns="http://www.w3.org/2000/svg" x="0" y="0" viewBox="0 0 128 128" style="enable-background:new 0 0 128 128" xml:space="preserve"><linearGradient id="SVGID_1_" gradientUnits="userSpaceOnUse" x1="2.615" y1="128.487" x2="126.098" y2="2.787" gradientTransform="matrix(1 0 0 -1 0 130)"><stop offset="0" style="stop-color:#aa7a55"/><stop offset="1" style="stop-color:#8c5934"/></linearGradient><path style="fill-rule:evenodd;clip-rule:evenodd;fill:url(#SVGID_1_)" d="M0 0h128v128H0z"/><linearGradient id="SVGID_00000099659615675768629270000012187560979343118766_" gradientUnits="userSpaceOnUse" x1="125.472" y1="-.056" x2="59.629" y2="72.438" gradientTransform="matrix(1 0 0 -1 0 130)"><stop offset="0" style="stop-color:#000;stop-opacity:0"/><stop offset=".922" style="stop-color:#000;stop-opacity:.1845"/><stop offset="1" style="stop-color:#000;stop-opacity:.2"/></linearGradient><path style="fill-rule:evenodd;clip-rule:evenodd;fill:url(#SVGID_00000099659615675768629270000012187560979343118766_)" d="M128 64.4V128H64.4L32.2 95.8l63.6-63.6z"/><path d="M109 64c0 2.3-.2 4.6-.5 6.9-.1.5-.2 1.1-.3 1.6-1.7 9-6.2 17.1-12.4 23.3-1.5 1.5-3.2 2.9-4.9 4.2-.4.3-.8.6-1.3.9-4.9 3.4-10.4 5.8-16.4 7.1-.3 0-.5.1-.8.2-1.9.4-3.9.6-5.9.7-.9 0-1.7.1-2.6.1-12.4 0-23.7-5-31.8-13.2S19 76.4 19 64s5-23.7 13.2-31.8S51.6 19 64 19c24.6 0 44.6 19.8 45 44.3v.7z" style="fill-rule:evenodd;clip-rule:evenodd;fill:#fff"/><linearGradient id="SVGID_00000121248674029277347610000017682995978396441515_" gradientUnits="userSpaceOnUse" x1="33.673" y1="64" x2="94.327" y2="64"><stop offset="0" style="stop-color:#aa7a55"/><stop offset="1" style="stop-color:#8c5934"/></linearGradient><path style="fill-rule:evenodd;clip-rule:evenodd;fill:url(#SVGID_00000121248674029277347610000017682995978396441515_)" d="M33.7 66c.4.3 1 .7 1.6 1.2-.3.4-.5.8-.8 1.1-.6-.9-.8-1.7-.8-2.3zm4.5-3c-.8-.6-1.5-1.1-2.1-1.6-.1-.1-.2-.2-.3-.2-.6.9-1.1 1.8-1.5 2.6.5.4 1.2 1 2.1 1.7.5-.7 1.1-1.6 1.8-2.5zm-2.5 7.1c.6.8 1.4 1.6 2.2 2.5.4-.6.9-1.3 1.5-2.2-.9-.7-1.8-1.4-2.6-2-.5.6-.8 1.2-1.1 1.7zm3.6-8.7c.7-.9 1.3-1.9 2-2.7-1-.7-1.8-1.3-2.3-1.7-.6.7-1.2 1.5-1.8 2.3.5.6 1.2 1.3 2.1 2.1zm-1.5 5.4c.8.7 1.6 1.4 2.5 2.1.6-.9 1.2-1.9 1.8-3-.9-.6-1.7-1.3-2.6-1.9-.5 1-1.1 1.9-1.7 2.8zm6-11.2c-.7-.5-1.5-.9-2.1-1.3-.5.3-1 .8-1.6 1.5.6.5 1.3 1.2 2 1.8.6-.8 1.2-1.4 1.7-2zm1 5.8c-.8-.5-1.6-1.2-2.5-1.8-.6.9-1.2 1.9-1.9 3l2.4 2.1c.8-1.2 1.4-2.3 2-3.3zm.4-6.7s-.1.3-.3.7c1.1 1 2 1.9 2 2-.1.1-1.1-.5-2.3-1.3-.4.6-.8 1.4-1.4 2.3.8.7 1.7 1.3 2.4 1.9 1.6-2.6 2.9-4.6 3.1-4.4.2.2-.8 2.3-2.2 5.2.2.1.3.3.4.4.5.5.8.9.7 1-.1.2-.5.1-1-.2L46 62c-.6 1.1-1.2 2.3-1.9 3.5.3.2.6.5.8.7.6.5 1.1.9 1.6 1.3.3-.5.6-.8.7-.7.1.1 0 .5-.2 1.2.4.3.8.6 1.1.9-.1-2.7.3-5.5 1-8.1.1-.5.3-.9.4-1.4.5-1.5 1-2.9 1.5-4.1-2.5-.8-4.7-1.3-7.6-1.5h-.3c.4.4.8.7 1.2 1.1.5-.2.8-.3.9-.2zm19.5 37.1c-.4-.5-.9-.9-1.3-1.2-.1 0-.1-.1-.2-.1h-.6c.1.3.4.8.4 1.4 0 .2 0 .4-.1.5-.4.9-5.3-.6-5.6-1.2-.3-.6.6-2.7.4-3.4-.2-.7-1.7-1.4-2.6-1.9-2.4-1.3-5.7-3.5-8.9-6 .4-1.3.9-3.1.7-3.4-.3-.3-.8 1.3-1.5 2.7-.7-.6-1.4-1.1-2.1-1.7l-.1-.1v-.1c.4-.9.8-2 1.3-3.1 2.4 1.7 4.3 2.8 4.5 2.3.1-.1-1.7-1.7-4-3.6.6-1.4 1.1-2.7 1.5-3.8.6.4 1.1.7 1.5 1 .1 1.9.5 3.8 1.1 5.4 1.1 3 3.2 5 6.3 5 4 0 3-6.1.3-6-.8 0-.3 4.9-2.2 4.1-3.2-1.4-3.7-10-1.3-15.9 4.7-11.9 6.5-12.6 6.4-13.4-.1-.9-2-2.3-2-2.9-.1-.7 2.6-3.2 3.4-3 .7.2 1.9 3 2.9 3.1.9.2 17.7-2.8 21.8-1 4.1 1.8 10 15.3 9.6 16.7-.5 1.4-4.2 3.8-7.6 3.6-2.4-.1-5.5-2.3-6.8-3.4 0 0 .3-1.9.6-2.2.2-.2.5-.2.5.2s-1 2.1-.1 1.1c.6-.7 1.1-1.2 1.5-2 .8-1.6-4.2-1.9-6.3-1.1-.3.1-.5.2-.7.3-.1 0-.1.1-.1.1-.2.2-.3.3-.3.4v.1c0 .1 0 .2.1.3 0 .1.1.2.2.3.3.3.5.6.8.9l.1.1c.2.2.4.5.7.7.5.5.6.3.5 0-.2-.4-.8-1.4.1-1.6.5-.1 1.1.1 1 .9-.1.6-.6 1.5-.6 1.5-1.9 1.6-5.3 3.8-8.3 4-4 .3-7.9-2.4-8.5-3.5-.7-1.3 2-6.3 1.6-6.6-.8-.6-7.7 6.8-6.9 9.3.6 2 4.9 3.9 8.4 4.8.9 3.2 4.8 11.1 6.1 11.9 1.2.8 4.4 1.2 6.4.8.3-.1.6-.1.8-.2 2-.8 8.4-7.3 10.4-12.9.6 0 1.4-.2 2.2-.4-.7 10.9-11 18.5-10.6 19.3.4.7 6.3-1 7-.3.5.5-1 2.4-1.7 3.3-1.1.7-2.3 1.3-3.8 1.6-1.6.3-3.5.2-5.3-.1-1-.2-2-.4-2.8-.5-2.1-.2-4.3-.6-6.3-.8-.3 0-.6-.1-.9-.1-.6-.1-.8-.2-1-.2zm7-37.1c0-.5-.2-1-.6-1.3l-.1-.1-.1-.1c-.3-.2-.6-.3-1-.3-1 0-1.8.8-1.8 1.8s.8 1.8 1.8 1.8c.4 0 .7-.1 1-.3.1-.1.2-.1.2-.2l.1-.1c.3-.4.5-.8.5-1.2zm16 .2v-.4c0-.4-.2-.8-.6-1.1-.1-.1-.2-.2-.4-.3-.1 0-.1-.1-.2-.1-.2-.1-.5-.2-.7-.2-1 0-1.8.8-1.8 1.8s.8 1.8 1.8 1.8c.5 0 1-.2 1.4-.6 0-.1.1-.1.1-.2s.1-.1.1-.2c0 0 0-.1.1-.1.2-.1.2-.2.2-.4zM42.8 73c-.7-.5-1.4-1-2-1.5-.5 1-1 1.9-1.3 2.6.7.7 1.5 1.4 2.3 2.1.3-.4.6-1 1-1.7l.6-1.2-.6-.3zm1.2-1c.6-1.2 1.3-2.5 1.8-3.4-.5-.3-1-.7-1.5-1.1-.3-.2-.7-.5-1-.7-.6 1.1-1.2 2.2-1.7 3.2.5.4 1 .9 1.6 1.3.2.2.5.4.8.7zm33 9.9c.6-.3 1.5-1.2 2.5-2.4 2.4-2.8 5.5-7.4 6.2-9.9-.6-.3-1.3-.8-2-1.4-1.3-1.1-2.6-2.5-3.6-3.6-.5 3.5-1.3 6.6-2.2 9.6-.1.3-.3.6-.4 1h.1c-.8 2.5-1.7 4.9-2.6 7.1.7-.1 1.5-.2 2-.4zm.6-17.2c-2.4 2.5-7.5 5.6-10.2 6.1.5 2.5 1.8 5.8 3.2 8.2.8 1.4 1.6 2.4 2.1 2.8.3.2.8.3 1.4.4 0-.1.1-.3.1-.4.4-1.4.8-2.9 1.1-4.4.2-.7.4-1.5.5-2.2.8-3.6 1.5-7.1 1.8-10.5zM63.7 42.5c.8-1.1 1.9-2.1 2.9-2.7.6-.3 2.3-.5 4.5-.6-1.3-2.8-2.2-3.8-3.4-4.7-4.7.4-9.6 2.4-10.1 6 1.1-.8 2.1-1.4 2.5-1.4.9 0 2.6 2.3 3.6 3.4zm9.7-3.4h4.1c-.7-1.3-1.8-2.7-2.4-3.3-1-.9-3-1.4-5.2-1.5 1.3 1.2 2.5 2.6 3.5 4.8zm-6 3.7c1.8-.1 4.1-.3 6.3-.3 2.9-.1 5.7.1 7.5.1-.9-3.3-10-2.8-13.8.2z"/></svg>