<svg xmlns="http://www.w3.org/2000/svg" viewBox="0 0 128 128" style="enable-background:new 0 0 128 128" xml:space="preserve"><linearGradient id="a" gradientUnits="userSpaceOnUse" x1="2.615" y1="1.513" x2="126.098" y2="127.213"><stop offset=".004" style="stop-color:#aad5ff"/><stop offset="1" style="stop-color:#2a73ff"/></linearGradient><path style="fill-rule:evenodd;clip-rule:evenodd;fill:url(#a)" d="M0 0h128v128H0z"/><linearGradient id="b" gradientUnits="userSpaceOnUse" x1="125.475" y1="130.054" x2="59.632" y2="57.559"><stop offset="0" style="stop-color:#000;stop-opacity:0"/><stop offset=".922" style="stop-color:#000;stop-opacity:.1845"/><stop offset="1" style="stop-color:#000;stop-opacity:.2"/></linearGradient><path style="fill-rule:evenodd;clip-rule:evenodd;fill:url(#b)" d="M128 64.4V128H64.4L32.2 95.8l63.6-63.6z"/><path d="M109 64c0 2.3-.2 4.6-.5 6.9-.1.5-.2 1.1-.3 1.6-1.7 9-6.2 17.1-12.4 23.3-1.5 1.5-3.2 2.9-4.9 4.2-.4.3-.8.6-1.3.9-4.9 3.4-10.4 5.8-16.4 7.1-.3 0-.5.1-.8.2-1.9.4-3.9.6-5.9.7-.9 0-1.7.1-2.6.1-12.4 0-23.7-5-31.8-13.2S19 76.4 19 64s5-23.7 13.2-31.8S51.6 19 64 19c24.6 0 44.6 19.8 45 44.3v.7z" style="fill-rule:evenodd;clip-rule:evenodd;fill:#fff"/><linearGradient id="c" gradientUnits="userSpaceOnUse" x1="76.7" y1="63.51" x2="105.52" y2="79.472"><stop offset="0" style="stop-color:#4d8eff;stop-opacity:.2"/><stop offset=".168" style="stop-color:#7babff;stop-opacity:.2"/><stop offset=".364" style="stop-color:#aac9ff;stop-opacity:.2"/><stop offset=".551" style="stop-color:#cfe0ff;stop-opacity:.2"/><stop offset=".725" style="stop-color:#e9f1ff;stop-opacity:.2"/><stop offset=".88" style="stop-color:#f9fbff;stop-opacity:.2"/><stop offset="1" style="stop-color:#fff;stop-opacity:.2"/></linearGradient><path d="M109 64c0 2.3-.2 4.6-.5 6.9-.1.5-.2 1.1-.3 1.6-1.7 9-6.2 17.1-12.4 23.3-1.5 1.5-3.2 2.9-4.9 4.2L72 81.1l3.6-5 9.6-36.5L109 63.3v.7z" style="fill-rule:evenodd;clip-rule:evenodd;fill:url(#c)"/><linearGradient id="d" gradientUnits="userSpaceOnUse" x1="60.422" y1="87.143" x2="79.572" y2="106.293"><stop offset="0" style="stop-color:#4d8eff;stop-opacity:.2"/><stop offset=".117" style="stop-color:#5392ff;stop-opacity:.2"/><stop offset=".274" style="stop-color:#649cff;stop-opacity:.2"/><stop offset=".453" style="stop-color:#80aeff;stop-opacity:.2"/><stop offset=".647" style="stop-color:#a6c7ff;stop-opacity:.2"/><stop offset=".853" style="stop-color:#d7e6ff;stop-opacity:.2"/><stop offset="1" style="stop-color:#fff;stop-opacity:.2"/></linearGradient><path d="M89.6 101c-4.9 3.4-10.4 5.8-16.4 7.1-.3 0-.5.1-.8.2-1.9.4-3.9.6-5.9.7L43.3 85.7l9.6 2.7 20.8-3.6L89.6 101z" style="fill-rule:evenodd;clip-rule:evenodd;fill:url(#d)"/><linearGradient id="e" gradientUnits="userSpaceOnUse" x1="31.863" y1="61.839" x2="71.767" y2="91.767"><stop offset=".004" style="stop-color:#aad5ff"/><stop offset="1" style="stop-color:#2a73ff"/></linearGradient><path d="M73.6 90.7c-12.8 13.6-30.3-5-30.3-5s-18.7-17.5-5-30.3c1.7-1.6 4.2-1.6 5.9-.1l.5.5c1.7 1.6 3.5 3.6 3.9 6 .2 1.2.1 2.5-.4 3.6-.8 1.7-2.2 2.5-3.3 3.8-1.4 1.8-.3 4.3.8 5.9 2 2.9 4.5 5.5 7.3 7.6 1.8 1.3 4.7 3.1 6.8 1.4 1.4-1.1 2.2-2.5 3.9-3.3 1.1-.5 2.4-.7 3.6-.4 2.4.5 4.4 2.2 6 3.9l.5.5c1.4 1.7 1.4 4.3-.2 5.9z" style="fill:url(#e)"/><linearGradient id="f" gradientUnits="userSpaceOnUse" x1="64.803" y1="37.656" x2="82.318" y2="72.231"><stop offset="0" style="stop-color:#aad5ff"/><stop offset="1" style="stop-color:#2a73ff"/></linearGradient><path d="M89.8 46.8c-1.7-5-5.5-9-10.3-11h-.1c-7.6-3.2-16.6-.9-21.5 5.7-3.7 5-4.8 11.6-2.7 17.5 1.2 3.2 3.2 6 6 8.1 2.5 1.9 5.5 2.7 8.1 4.4 3.5 2.2 4.8 5.8 2.7 9.5-.1.2.1.3.3.2 1.9-1.2 3.7-2.6 5.4-4.2 4.1-3.6 7.5-7.9 10-12.8.9-1.7 1.6-3.6 2.2-5.5.9-3.9 1.2-8-.1-11.9zM74.4 62.4v1.5c0 .9-.7 1.6-1.6 1.6-.9 0-1.6-.7-1.6-1.6v-1.3c-2-.2-3.6-1.1-4.7-2.5-.5-.6-.4-1.5.3-2l1-.7c.5-.4 1.3-.3 1.7.2.8.8 1.8 1.1 3 1.1 1.8 0 3-.8 3-1.8 0-1.4-2.3-2.5-4.3-3.5-2.2-1.1-4.6-2.3-4.6-5.4 0-2.7 1.9-4.7 4.5-5.3v-1.5c0-.9.7-1.6 1.6-1.6.9 0 1.6.7 1.6 1.6v1.4c1.5.2 2.8.9 3.6 2.1.5.6.3 1.5-.3 1.9l-.8.6c-.5.4-1.2.3-1.7-.1-.6-.5-1.4-.8-2.1-.8-1.4 0-2.5.8-2.5 1.8 0 1.1 1.5 1.5 3.7 2.6 3.2 1.5 5.2 3.1 5.2 6.1 0 3-2 5-5 5.6z" style="fill-rule:evenodd;clip-rule:evenodd;fill:url(#f)"/></svg>