<svg version="1.1" id="Layer_1" xmlns="http://www.w3.org/2000/svg" x="0" y="0" viewBox="0 0 128 128" style="enable-background:new 0 0 128 128" xml:space="preserve"><linearGradient id="SVGID_1_" gradientUnits="userSpaceOnUse" x1="2.615" y1="128.487" x2="126.098" y2="2.787" gradientTransform="matrix(1 0 0 -1 0 130)"><stop offset="0" style="stop-color:#ff7faa"/><stop offset="1" style="stop-color:#ff3d78"/></linearGradient><path style="fill-rule:evenodd;clip-rule:evenodd;fill:url(#SVGID_1_)" d="M0 0h128v128H0z"/><linearGradient id="SVGID_00000055686113405346728500000008396705548977263278_" gradientUnits="userSpaceOnUse" x1="125.472" y1="-.056" x2="59.629" y2="72.438" gradientTransform="matrix(1 0 0 -1 0 130)"><stop offset="0" style="stop-color:#000;stop-opacity:0"/><stop offset=".965" style="stop-color:#000;stop-opacity:.1931"/><stop offset="1" style="stop-color:#000;stop-opacity:.2"/></linearGradient><path style="fill-rule:evenodd;clip-rule:evenodd;fill:url(#SVGID_00000055686113405346728500000008396705548977263278_)" d="M128 64.4V128H64.4L32.2 95.8l63.6-63.6z"/><path d="M109 63.8v.2c0 2.3-.2 4.6-.5 6.9-.1.5-.2 1.1-.3 1.6-1.7 9-6.2 17.1-12.4 23.3-1.5 1.5-3.2 2.9-4.9 4.2-.4.3-.8.6-1.3.9-1.9 1.3-3.9 2.5-6 3.5-1.4.7-2.8 1.3-4.3 1.8-2 .7-4 1.3-6.1 1.7-.3 0-.5.1-.8.2-1.9.4-3.9.6-5.9.7-.9 0-1.7.1-2.6.1h-2.1c-11.6-.5-22.1-5.5-29.8-13.1-8-8.1-13-19.4-13-31.8s5-23.7 13.2-31.8S51.6 19 64 19c24.6 0 44.6 19.8 45 44.3v.5z" style="fill-rule:evenodd;clip-rule:evenodd;fill:#fff"/><linearGradient id="Group_2211_00000070114387009239265970000013814056197293302689_" gradientUnits="userSpaceOnUse" x1="-61.396" y1="42.092" x2="-113.172" y2="87.195" gradientTransform="matrix(1 0 0 -1 144.616 130)"><stop offset="0" style="stop-color:#ff3d78"/><stop offset="1" style="stop-color:#ff7faa"/></linearGradient><path id="Group_2211" style="fill:url(#Group_2211_00000070114387009239265970000013814056197293302689_)" d="M32.7 80.7c0-.3.2-.6.5-.7.8-.1 1.7-.4 2.4-.9 1.2-1.1 2.1-2.5 2.6-4.1 1.4-3.9 8.3-24.5 10.1-29.9.1-.3.3-.4.6-.4h2.6c.3 0 .5.2.6.4 2.3 6.8 9.7 29.2 10.4 31.5.3 1 1 1.9 1.8 2.5.7.4 1.5.8 2.3.9.3.1.5.3.5.6 0 .4-.3.6-.6.6H50.9c-.4 0-.6-.3-.6-.6s.2-.6.5-.6c1.6-.2 3.9-.9 3.9-2 0-.4 0-.8-.2-1.1l-2.1-6.5c-.3-.8-1-1.3-1.8-1.3h-7c-.9 0-1.6.6-1.9 1.4-.4 1.4-.9 3.2-1.1 3.6-.3 1.1-.5 2.2-.5 3.3 0 1.7 2.8 2.5 4.5 2.7.3 0 .5.3.5.6 0 .4-.3.6-.6.6H33.4c-.4 0-.7-.3-.7-.6M43.6 67h6.7c.4 0 .6-.3.6-.6v-.2l-3.4-10.1c-.1-.3-.5-.5-.8-.4-.2.1-.3.2-.4.4L43 66.2c-.1.3.1.7.4.8h.2m47.1 6.4c.3.1.5.5.4.8-1.7 4.6-3.8 7.6-7.1 7.6-2.8 0-5.3-1.3-5.4-4.7h-.1c-1.7 2.6-3.5 4.7-6.7 4.7-2.8 0-5.6-1.9-5.6-8.4 0-9.2 6.7-17 13.1-17 1.9-.1 3.6 1.3 3.9 3.3h.1l.3-.8c.4-1.1 1.4-1.8 2.6-1.8h3.9c.4 0 .6.3.6.6v.2l-5.1 16.5c-.6 1.6-1 3.2-1.3 4.9 0 .4.2.7.6.7h.1c1.9 0 3.4-2.2 4.9-6.3 0-.3.4-.4.8-.3zm-8.1-11.5v-.3c-.4-2.1-1.1-3.1-2.5-3.1-3.7 0-7.3 11.8-7.3 18.6 0 1.5.7 2.2 1.3 2.2 1.1 0 2-.8 3-2 1-1.4 1.8-2.9 2.3-4.6l3.2-10.8z"/></svg>