<svg version="1.1" id="Layer_1" xmlns="http://www.w3.org/2000/svg" x="0" y="0" viewBox="0 0 128 128" style="enable-background:new 0 0 128 128" xml:space="preserve"><linearGradient id="SVGID_1_" gradientUnits="userSpaceOnUse" x1="127.294" y1="127.294" x2="1.29" y2="1.29"><stop offset="0" style="stop-color:#5d00d4"/><stop offset=".217" style="stop-color:#6003d2"/><stop offset=".375" style="stop-color:#690ccc"/><stop offset=".514" style="stop-color:#791bc1"/><stop offset=".642" style="stop-color:#9030b2"/><stop offset=".763" style="stop-color:#ac4c9e"/><stop offset=".878" style="stop-color:#d06e86"/><stop offset=".987" style="stop-color:#f9966a"/><stop offset="1" style="stop-color:#ff9b66"/></linearGradient><path style="fill-rule:evenodd;clip-rule:evenodd;fill:url(#SVGID_1_)" d="M0 0h128v128H0z"/><linearGradient id="SVGID_00000168822822345329258560000016202713349428029098_" gradientUnits="userSpaceOnUse" x1="125.472" y1="-.056" x2="59.629" y2="72.438" gradientTransform="matrix(1 0 0 -1 0 130)"><stop offset="0" style="stop-color:#000;stop-opacity:0"/><stop offset=".922" style="stop-color:#000;stop-opacity:.1845"/><stop offset="1" style="stop-color:#000;stop-opacity:.2"/></linearGradient><path style="fill-rule:evenodd;clip-rule:evenodd;fill:url(#SVGID_00000168822822345329258560000016202713349428029098_)" d="M128 64.4V128H64.4L32.2 95.8l63.6-63.6z"/><path d="M109 63.3v.7c0 1 0 2.1-.1 3.1-.1 1.3-.2 2.5-.4 3.8-.1.5-.2 1.1-.3 1.6-1.7 9-6.2 17.1-12.4 23.3-1.5 1.5-3.2 2.9-4.9 4.2-.4.3-.8.6-1.3.9-4.9 3.4-10.4 5.8-16.4 7.1-.3 0-.5.1-.8.2-1.7.4-3.5.6-5.3.7h-.6c-.9 0-1.7.1-2.6.1-12.4 0-23.7-5-31.8-13.2C24 87.6 19 76.4 19 64c0-12.4 5-23.7 13.2-31.8C40.4 24.1 51.6 19 64 19c24.6 0 44.6 19.8 45 44.3z" style="fill-rule:evenodd;clip-rule:evenodd;fill:#fff"/><linearGradient id="SVGID_00000145748200984149956240000008709828150721832890_" gradientUnits="userSpaceOnUse" x1="95.244" y1="95.243" x2="65.178" y2="65.177"><stop offset="0" style="stop-color:#000;stop-opacity:0"/><stop offset=".922" style="stop-color:#000;stop-opacity:.1845"/><stop offset="1" style="stop-color:#000;stop-opacity:.2"/></linearGradient><path style="fill:url(#SVGID_00000145748200984149956240000008709828150721832890_)" d="M108.9 67.1c-.1 1.3-.2 2.5-.4 3.8-.1.5-.2 1.1-.3 1.6-1.7 9-6.2 17.1-12.4 23.3-1.5 1.5-3.2 2.9-4.9 4.2-.4.3-.8.6-1.3.9-4.9 3.4-10.4 5.8-16.4 7.1-.3 0-.5.1-.8.2-1.7.4-3.5.6-5.3.7L44.5 86.3c4.2 3.7 9.3 6.1 15.2 6.9 8.9 1.2 16.8-1.1 23.6-7 5.5-4.8 8.7-10.8 9.9-18 .4-2.5.2-4.9.2-7.4-.1-.8-.2-1.6-.4-2.3-1-5.4-3.5-10.4-7.2-14.5l23.1 23.1z"/><linearGradient id="SVGID_00000005224358822113793980000004978059477928006316_" gradientUnits="userSpaceOnUse" x1="84.134" y1="84.136" x2="43.368" y2="43.37"><stop offset="0" style="stop-color:#5d00d4"/><stop offset=".217" style="stop-color:#6003d2"/><stop offset=".375" style="stop-color:#690ccc"/><stop offset=".514" style="stop-color:#791bc1"/><stop offset=".642" style="stop-color:#9030b2"/><stop offset=".763" style="stop-color:#ac4c9e"/><stop offset=".878" style="stop-color:#d06e86"/><stop offset=".987" style="stop-color:#f9966a"/><stop offset="1" style="stop-color:#ff9b66"/></linearGradient><path style="fill:url(#SVGID_00000005224358822113793980000004978059477928006316_)" d="M34.5 60.7c.6-4.7 2.1-9.1 4.8-13 5.2-7.6 12.4-12.2 21.5-13.1 17-1.7 29.6 10.1 32.3 24 .1.8.3 1.6.4 2.3 0 2.5.2 4.9-.2 7.4-1.1 7.2-4.4 13.2-9.9 18-6.8 5.9-14.8 8.2-23.6 7-8.5-1.2-15.3-5.5-20.2-12.6-3.3-4.7-5.1-10-5.1-15.8v-4.2zm53.9 7.8c.4-1 .4-2.2.5-3.2.3-8.4-2.8-15.3-9.2-20.7-9.5-7.9-23.8-7.3-32.8 1.2-4.5 4.3-7.1 9.6-7.7 15.7-.2 2.3-.3 4.7.3 7 .1.2.1.5.2.7 2.4 10.9 11.9 19.1 23 19.6 8.6.3 15.7-2.9 21.1-9.7 2.4-3.1 4-6.6 4.6-10.6zM53.7 58.3v-4.9c0-2.1 1.2-3.3 3.3-3.3 3.2 0 6.3-.2 9.5.2 5.9.7 10 4.9 10.8 10.8.2 1.7.2 3.4.1 5.1-.1.4-.3.7-.3 1.1-.3 1.7-.9 3.4-1.8 4.9-1.9 3-4.8 4.7-8.2 5.4-3.5.7-7.1.4-10.6.3-1.7 0-2.8-1.3-2.8-3v-1.2c.1-5.2.1-10.3 0-15.4zM60 73.2c1.9 0 3.8.2 5.7 0 2.4-.2 4.4-1.1 5.8-3.2.4-.3.5-.7.7-1.1 1-2.1 1-4.3.9-6.5-.3-4.1-3-6.9-7-7.4-2.2-.3-4.5 0-6.7-.1-.8 0-1 .2-1 1V72c.1 1.3.1 1.3 1.6 1.2z"/></svg>