<svg xmlns="http://www.w3.org/2000/svg" viewBox="0 0 128 128" style="enable-background:new 0 0 128 128" xml:space="preserve"><linearGradient id="a" gradientUnits="userSpaceOnUse" x1="1.741" y1="2.194" x2="123.673" y2="123.239"><stop offset=".004" style="stop-color:#ff8f9e"/><stop offset="1" style="stop-color:#fe579f"/></linearGradient><path style="fill-rule:evenodd;clip-rule:evenodd;fill:url(#a)" d="M0 0h128v128H0z"/><linearGradient id="b" gradientUnits="userSpaceOnUse" x1="125.475" y1="130.054" x2="59.632" y2="57.559"><stop offset="0" style="stop-color:#000;stop-opacity:0"/><stop offset=".922" style="stop-color:#000;stop-opacity:.1845"/><stop offset="1" style="stop-color:#000;stop-opacity:.2"/></linearGradient><path style="fill-rule:evenodd;clip-rule:evenodd;fill:url(#b)" d="M128 64.4V128H64.4L32.2 95.8l63.6-63.6z"/><path d="M109 64c0 1.8-.1 3.5-.3 5.2-.1.6-.1 1.1-.2 1.7-.1.5-.2 1.1-.3 1.6-1.7 9-6.2 17.1-12.4 23.3-1.5 1.5-3.2 2.9-4.9 4.2-.4.3-.9.6-1.3.9-4.9 3.4-10.4 5.8-16.4 7.1-.3 0-.5.1-.8.2-1.1.2-2.2.4-3.3.5-.9.1-1.7.2-2.6.2-.9 0-1.7.1-2.6.1-12.4 0-23.7-5-31.8-13.2C24 87.7 19 76.4 19 64c0-12.4 5-23.7 13.2-31.8S51.6 19 64 19c24.6 0 44.6 19.8 45 44.3v.7z" style="fill-rule:evenodd;clip-rule:evenodd;fill:#fff"/><linearGradient id="c" gradientUnits="userSpaceOnUse" x1="43.936" y1="44.193" x2="84.174" y2="83.931"><stop offset=".004" style="stop-color:#ff8f9e"/><stop offset="1" style="stop-color:#fe579f"/></linearGradient><path d="M89.4 52.4C85 42.8 75.3 36.1 64 36.1c-15.4 0-27.9 12.5-27.9 27.9 0 4.2.9 8.1 2.5 11.6C43 85.3 52.7 91.9 64 91.9c15.4 0 27.9-12.5 27.9-27.9 0-4.1-.9-8.1-2.5-11.6zm-34.5 4.9c0-4 2.8-6.9 6.7-7.8v-2.2c0-1.3 1.1-2.4 2.4-2.4 1.3 0 2.4 1.1 2.4 2.4v2c2.2.4 4.1 1.4 5.3 3.1.7.9.5 2.2-.4 2.9l-1.2.8c-.8.6-1.8.5-2.5-.2-.9-.8-2-1.1-3.1-1.1-2.1 0-3.7 1.2-3.7 2.7 0 1.7 2.2 2.3 5.4 3.8.4.2.8.4 1.1.5.2.1.4.2.7.3 3.7 2 5.9 4.3 5.9 8.1 0 4.3-2.9 7.3-7.4 8.2v2.2c0 1.3-1.1 2.4-2.4 2.4-1.3 0-2.4-1.1-2.4-2.4v-2c-3-.4-5.3-1.6-7-3.6-.7-.9-.5-2.2.4-2.9l1.5-1c.3-.2.7-.4 1.1-.4.5 0 1 .2 1.4.6 1.2 1.1 2.6 1.6 4.5 1.6 2.7 0 4.5-1.1 4.5-2.6 0-2-3.2-3.6-6.1-5.1-.1 0-.2-.1-.3-.1 0 0-.1 0-.2-.1-3.2-1.4-6.6-3.2-6.6-7.7zM64 90.6c-9.9 0-19.1-5.6-23.6-14.4l21.1-9.7c1.9 1 5.3 2.6 5.3 3.8 0 .6-1.3 1.3-3.2 1.3-1.5 0-2.7-.4-3.6-1.3-.6-.6-1.5-1-2.4-1-.7 0-1.3.2-1.8.6l-1.5 1c-.8.5-1.3 1.4-1.4 2.3-.1.9.1 1.8.7 2.5 1.7 2 3.9 3.3 6.7 3.9v.9c0 2.1 1.7 3.7 3.7 3.7s3.7-1.7 3.7-3.7v-1.1c4.6-1.3 7.4-4.8 7.4-9.2 0-3.9-2.1-6.3-4.4-7.9L88.8 54c1.3 3.1 1.9 6.5 1.9 9.9-.1 14.8-12 26.7-26.7 26.7z" style="fill:url(#c)"/><linearGradient id="d" gradientUnits="userSpaceOnUse" x1="96.212" y1="93.509" x2="59.189" y2="61.585"><stop offset=".004" style="stop-color:#ff8f9e;stop-opacity:0"/><stop offset="1" style="stop-color:#fe579f"/></linearGradient><path d="M108.7 69.2c-.1.6-.1 1.1-.2 1.7-.1.5-.2 1.1-.3 1.6-1.7 9-6.2 17.1-12.4 23.3-1.5 1.5-3.2 2.9-4.9 4.2-.4.3-.9.6-1.3.9-4.9 3.4-10.4 5.8-16.4 7.1-.3 0-.5.1-.8.2-1.1.2-2.2.4-3.3.5L44.2 83.8c5 5.1 12 8.2 19.7 8.2 15.4 0 27.9-12.5 27.9-27.9 0-4.2-.9-8.1-2.5-11.6-1.4-3-3.3-5.7-5.6-8.1l25 24.8z" style="opacity:.3;fill:url(#d)"/></svg>