<svg xmlns="http://www.w3.org/2000/svg" xmlns:xlink="http://www.w3.org/1999/xlink" viewBox="0 0 128 128"><defs><linearGradient id="b" x1="0%" x2="102%" y1="0%" y2="101%"><stop offset="0%" stop-color="#22C39F"/><stop offset="100%" stop-color="#0B8B89"/></linearGradient><linearGradient id="c" x1="1.5%" x2="106.8%" y1="49.9%" y2="40.4%"><stop offset="0%" stop-opacity=".2"/><stop offset="100%" stop-color="#1FF4F7" stop-opacity=".1"/></linearGradient><linearGradient id="g" x1="50%" x2="50%" y1="2.1%" y2="100%"><stop offset="0%" stop-color="#2AB5A1"/><stop offset="100%" stop-color="#179068"/></linearGradient><linearGradient id="h" x1="50%" x2="50%" y1="0%" y2="98.6%"><stop offset="0%" stop-color="#2FC09F"/><stop offset="100%" stop-color="#148979"/></linearGradient><rect id="e" width="90" height="90" x="19" y="19" rx="45"/><path id="a" d="M0 0h128v128H0z"/></defs><g fill="none" fill-rule="evenodd"><mask id="d" fill="#fff"><use xlink:href="#a"/></mask><use xlink:href="#a" fill="url(#b)"/><path fill="url(#c)" d="M47 53h90v90H47z" mask="url(#d)" transform="rotate(50 92 98)"/><mask id="f" fill="#fff"><use xlink:href="#e"/></mask><use xlink:href="#e" fill="#FFF"/><g mask="url(#f)"><path d="M32 32h65v65H32z"/><g fill-rule="nonzero" transform="translate(32 43)"><ellipse cx="32.5" cy="20.5" fill="url(#g)" rx="12.2" ry="12.3"/><path fill="url(#h)" d="M33 0C12 0 0 20 0 20s12 21 33 21c20 0 32-20 32-20S53 0 33 0Zm0 37C15 37 5 21 5 21S15 4 33 4c17 0 27 17 27 17S50 37 33 37Z"/></g></g></g></svg>