<svg xmlns="http://www.w3.org/2000/svg" xmlns:xlink="http://www.w3.org/1999/xlink" width="128" height="128"><defs><linearGradient id="b" x1="0%" x2="102%" y1="0%" y2="101%"><stop offset="0%" stop-color="#603BE6"/><stop offset="100%" stop-color="#D356E8"/></linearGradient><linearGradient id="c" x1="1.467%" x2="106.784%" y1="49.874%" y2="40.395%"><stop offset="0%" stop-opacity=".177"/><stop offset="100%" stop-color="#F71F1F" stop-opacity=".133"/></linearGradient><linearGradient id="g" x1="5.709%" x2="96.062%" y1="0%" y2="101%"><stop offset="0%" stop-color="#3023AE"/><stop offset="100%" stop-color="#C86DD7"/></linearGradient><rect id="e" width="90" height="90" x="19" y="19" rx="45"/><path id="a" d="M0 0h128v128H0z"/></defs><g fill="none" fill-rule="evenodd"><mask id="d" fill="#fff"><use xlink:href="#a"/></mask><use fill="url(#b)" xlink:href="#a"/><path fill="url(#c)" mask="url(#d)" transform="rotate(50 92.32 97.745)" d="M47.321 52.745h90v90h-90z"/><mask id="f" fill="#fff"><use xlink:href="#e"/></mask><use fill="#FFF" xlink:href="#e"/><g fill-rule="nonzero" mask="url(#f)"><path fill="url(#g)" d="M27.756 27.982h16.302c2.169 0 3.942 1.75 3.942 3.887v15.243C48 49.25 46.224 51 44.058 51H27.756c-2.169 0-3.942-1.75-3.942-3.888V31.869c0-2.136 1.773-3.887 3.942-3.887Zm-19.145.065c-.629 0-1.153-.56-1.153-1.24 0-.694.51-1.24 1.153-1.24h9.854c.63 0 1.154.561 1.154 1.24 0 .694-.51 1.24-1.154 1.24H8.611Zm28.334-20.5h4.133c.81 0 1.558.326 2.082.857.538.532.868 1.256.868 2.053V24.23h-2.546V10.457a.409.409 0 0 0-.419-.413H36.93V24.23H34.4V2.91a.408.408 0 0 0-.42-.414H2.936a.407.407 0 0 0-.42.413v34.593a.409.409 0 0 0 .42.414h16.356v2.496H9.6v4.637a.41.41 0 0 0 .12.296c.075.073.18.118.3.118h9.273v2.496h-9.258a2.925 2.925 0 0 1-2.082-.857 2.868 2.868 0 0 1-.868-2.053v-4.637H2.95a2.929 2.929 0 0 1-2.081-.857A2.875 2.875 0 0 1 0 37.501V2.91C0 2.112.33 1.374.869.857A2.953 2.953 0 0 1 2.95 0h31.045a2.93 2.93 0 0 1 2.082.856c.538.532.868 1.256.868 2.053v4.639ZM8.596 11.89c-.629 0-1.153-.562-1.153-1.241 0-.694.51-1.241 1.153-1.241h19.708c.63 0 1.153.562 1.153 1.24 0 .695-.509 1.242-1.153 1.242H8.596Zm0 8.079c-.629 0-1.153-.562-1.153-1.24 0-.694.51-1.241 1.153-1.241h19.708c.63 0 1.153.561 1.153 1.24 0 .694-.509 1.241-1.153 1.241H8.596Z" transform="translate(40 39)"/><path fill="#FFF" d="M70.565 80.065a1.565 1.565 0 1 1 0-3.13h3.369v-3.37a1.565 1.565 0 0 1 3.13 0v3.37h3.371a1.565 1.565 0 1 1 0 3.13h-3.369v3.37a1.565 1.565 0 0 1-3.13 0v-3.37h-3.371Z"/></g></g></svg>