<svg version="1.1" id="Layer_1" xmlns="http://www.w3.org/2000/svg" x="0" y="0" viewBox="0 0 128 128" style="enable-background:new 0 0 128 128" xml:space="preserve"><linearGradient id="SVGID_1_" gradientUnits="userSpaceOnUse" x1=".612" y1="131.325" x2="127.67" y2=".384" gradientTransform="matrix(1 0 0 -1 0 130)"><stop offset="0" style="stop-color:#f15895"/><stop offset="1" style="stop-color:#9645a1"/></linearGradient><path style="fill-rule:evenodd;clip-rule:evenodd;fill:url(#SVGID_1_)" d="M0 0h128v128H0z"/><linearGradient id="SVGID_00000158719948285724166050000002245389771508792747_" gradientUnits="userSpaceOnUse" x1="125.472" y1="1062.173" x2="59.629" y2="989.679" gradientTransform="translate(0 -932.118)"><stop offset="0" style="stop-color:#000;stop-opacity:0"/><stop offset="1" style="stop-color:#000;stop-opacity:.2"/></linearGradient><path style="fill-rule:evenodd;clip-rule:evenodd;fill:url(#SVGID_00000158719948285724166050000002245389771508792747_)" d="M128 64.4V128H64.4L32.2 95.8l63.6-63.6z"/><path d="M109 64c0 2.3-.2 4.6-.5 6.9-.1.5-.2 1.1-.3 1.6-.2 1.2-.5 2.3-.8 3.4-2.1 7.6-6.1 14.4-11.6 19.8-6.1 6.1-13.8 10.4-22.6 12.2-.3 0-.5.1-.8.2-2.7.5-5.6.8-8.5.8-2.4 0-4.8-.2-7.1-.6-9.6-1.5-18.2-6-24.7-12.6C24 87.7 19 76.4 19 64s5-23.7 13.2-31.8C40.3 24 51.6 19 64 19c24.9 0 45 20.2 45 45z" style="fill-rule:evenodd;clip-rule:evenodd;fill:#fff"/><path style="fill:none" d="M95.8 32.2 32.2 95.8"/><linearGradient id="SVGID_00000076585197581672840370000016982644323197219511_" gradientUnits="userSpaceOnUse" x1="58.343" y1="50.356" x2="60.813" y2="30.003"><stop offset="0" style="stop-color:#f15895"/><stop offset="1" style="stop-color:#9645a1"/></linearGradient><path style="fill:url(#SVGID_00000076585197581672840370000016982644323197219511_)" d="m69.4 48.9-6.2 2.7-15-6.6 15-6.6 5.5 2.4z"/><linearGradient id="SVGID_00000183959431683792481520000006126656046581449356_" gradientUnits="userSpaceOnUse" x1="61.53" y1="54.834" x2="80.236" y2="62.364"><stop offset="0" style="stop-color:#f15895"/><stop offset="1" style="stop-color:#9645a1"/></linearGradient><path style="fill-rule:evenodd;clip-rule:evenodd;fill:url(#SVGID_00000183959431683792481520000006126656046581449356_)" d="M79.4 52.8v5.7l-15.2 6.6V53.3l6.8-3z"/><linearGradient id="SVGID_00000088092003135361980000000013375650859359676296_" gradientUnits="userSpaceOnUse" x1="59.402" y1="51.056" x2="46.108" y2="64.233"><stop offset="0" style="stop-color:#f15895"/><stop offset="1" style="stop-color:#9645a1"/></linearGradient><path style="fill-rule:evenodd;clip-rule:evenodd;fill:url(#SVGID_00000088092003135361980000000013375650859359676296_)" d="M62.2 53.3v11.8l-15.3-6.6V46.6z"/><g style="opacity:.1"><circle cx="77" cy="45.1" r="8.6" style="fill:none;stroke:#000;stroke-width:2;stroke-linecap:round;stroke-miterlimit:10"/></g><linearGradient id="SVGID_00000025432599576180251920000010282447361833941427_" gradientUnits="userSpaceOnUse" x1="70.062" y1="51.23" x2="87.709" y2="32.995"><stop offset="0" style="stop-color:#f15895"/><stop offset="1" style="stop-color:#9645a1"/></linearGradient><path style="fill:url(#SVGID_00000025432599576180251920000010282447361833941427_)" d="M77 53.7c-5.3 0-9.6-4.3-9.6-9.6s4.3-9.6 9.6-9.6 9.6 4.3 9.6 9.6-4.4 9.6-9.6 9.6zm0-17.2c-4.2 0-7.6 3.4-7.6 7.6s3.4 7.6 7.6 7.6 7.6-3.4 7.6-7.6c-.1-4.2-3.5-7.6-7.6-7.6z"/><linearGradient id="SVGID_00000031201295412782623450000012921629467045318063_" gradientUnits="userSpaceOnUse" x1="82.341" y1="39.794" x2="69.635" y2="47.912"><stop offset="0" style="stop-color:#f15895"/><stop offset="1" style="stop-color:#9645a1"/></linearGradient><path style="fill:url(#SVGID_00000031201295412782623450000012921629467045318063_)" d="m75.3 48-3.7-3.7c-.4-.4-.4-1 0-1.4s1-.4 1.4 0l2.3 2.3 4.4-4.4c.4-.4 1-.4 1.4 0s.4 1 0 1.4L75.3 48z"/><linearGradient id="SVGID_00000157289076941280495810000009628253421408094138_" gradientUnits="userSpaceOnUse" x1="65.416" y1="59.226" x2="75.122" y2="22.697" gradientTransform="matrix(1 0 0 -1 0 130)"><stop offset="0" style="stop-color:#ea5796;stop-opacity:.2"/><stop offset="1" style="stop-color:#e55597;stop-opacity:0"/></linearGradient><path style="fill:url(#SVGID_00000157289076941280495810000009628253421408094138_)" d="M107.4 75.9c-2.1 7.6-6.1 14.4-11.6 19.8-6.1 6.1-13.8 10.4-22.6 12.2-.3 0-.5.1-.8.2-2.7.5-5.6.8-8.5.8-2.4 0-4.8-.2-7.1-.6l-30-30c1.1 1 2.5 1.6 4.1 1.6h66.2c3.2 0 5.9-2.7 5.9-5.9 0-1.6-.6-3-1.6-4.1l6 6z"/><linearGradient id="SVGID_00000059310431898667807340000007354826191583179650_" gradientUnits="userSpaceOnUse" x1="69.182" y1="74.387" x2="17.477" y2="73.681"><stop offset="0" style="stop-color:#f15895"/><stop offset="1" style="stop-color:#9645a1"/></linearGradient><path style="fill-rule:evenodd;clip-rule:evenodd;fill:url(#SVGID_00000059310431898667807340000007354826191583179650_)" d="M62.4 78.6H30.9c-2.4 0-4.4-2-4.4-4.4V74c0-2.4 2-4.4 4.4-4.4h31.5c2.4 0 4.4 2 4.4 4.4v.2c0 2.4-2 4.4-4.4 4.4z"/><linearGradient id="SVGID_00000044884580900392181090000002992536861905388479_" gradientUnits="userSpaceOnUse" x1="25.02" y1="55.92" x2="102.98" y2="55.92" gradientTransform="rotate(180 64 65)"><stop offset="0" style="stop-color:#f15895"/><stop offset="1" style="stop-color:#9645a1"/></linearGradient><path style="fill:url(#SVGID_00000044884580900392181090000002992536861905388479_)" d="m26.7 69.9.2-.2C28 68.6 29.4 68 31 68h66.2c3.2 0 5.9 2.6 5.9 5.9v.2c0 1.6-.7 3.1-1.7 4.1l-.1.1c-1.1 1-2.5 1.6-4.1 1.6H30.9c-3.2 0-5.9-2.7-5.9-5.9 0-1.6.6-3 1.7-4.1zm1.3 4.3c0 1.6 1.3 2.9 2.9 2.9h66.2c1.6 0 2.9-1.3 2.9-2.9V74c0-1.6-1.3-2.9-2.9-2.9H30.9c-1.6 0-2.9 1.3-2.9 2.9v.2z"/><path d="M63.1 49.8c.1.1.1.1 0 0 .1.1.1.1 0 0z" style="fill:#fff"/></svg>