<svg xmlns="http://www.w3.org/2000/svg" viewBox="0 0 128 128" style="enable-background:new 0 0 128 128" xml:space="preserve"><linearGradient id="a" gradientUnits="userSpaceOnUse" x1="2.428" y1="1.33" x2="125.911" y2="127.031"><stop offset="0" style="stop-color:#526bff"/><stop offset=".524" style="stop-color:#cc7dff"/><stop offset="1" style="stop-color:#ff817b"/></linearGradient><path style="fill-rule:evenodd;clip-rule:evenodd;fill:url(#a)" d="M-.2-.2h128v128H-.2z"/><linearGradient id="b" gradientUnits="userSpaceOnUse" x1="125.288" y1="129.871" x2="59.444" y2="57.377"><stop offset="0" style="stop-color:#000;stop-opacity:0"/><stop offset=".922" style="stop-color:#000;stop-opacity:.1845"/><stop offset="1" style="stop-color:#000;stop-opacity:.2"/></linearGradient><path style="fill-rule:evenodd;clip-rule:evenodd;fill:url(#b)" d="M127.8 64.2v63.6H64.2L32 95.6 95.6 32z"/><path d="M108.8 63.8c0 2.3-.2 4.6-.5 6.9-.1.5-.2 1.1-.3 1.6-1.7 9-6.1 17.1-12.4 23.3-6.1 6.1-13.8 10.4-22.6 12.2-.3 0-.5.1-.8.2-2.7.5-5.6.8-8.5.8-12.4 0-23.7-5-31.8-13.2-8.1-8.1-13.2-19.4-13.2-31.8S23.8 40.1 32 32c8.1-8.1 19.4-13.2 31.8-13.2 24.9 0 45 20.2 45 45z" style="fill-rule:evenodd;clip-rule:evenodd;fill:#fff"/><path style="fill:none" d="M95.6 32 32 95.6"/><path d="M90.4 60.8c3.8 0 6.9-3.1 6.9-6.9 0-3.8-3.1-6.9-6.9-6.9-3.8 0-6.9 3.1-6.9 6.9.1 3.8 3.1 6.9 6.9 6.9z" style="fill-rule:evenodd;clip-rule:evenodd;fill:#297bff"/><path d="M63.8 68c7.8 0 14.1-6.3 14.1-14.1s-6.3-14.1-14.1-14.1-14.1 6.3-14.1 14.1C49.8 61.7 56 68 63.8 68z" style="fill-rule:evenodd;clip-rule:evenodd;fill:#bc66ff"/><path d="M37.2 60.8c3.8 0 6.9-3.1 6.9-6.9 0-3.8-3.1-6.9-6.9-6.9-3.8 0-6.9 3.1-6.9 6.9 0 3.8 3.1 6.9 6.9 6.9z" style="fill-rule:evenodd;clip-rule:evenodd;fill:#ff6e6e"/><path d="M79.4 74.2c0-.7-.2-1.5-.5-2.1-.4-.7-.7-1-1.4-1.3-1.4-.6-2.6 0-2.6 0s-1.7-2.5-4.7-1.2c-.7-2-1.3-2.4-3.3-2.4-.7 0-1-.2-.9-1v-9c0-1.5-.8-2.7-2-3.1-2.1-.8-4.2.7-4.2 3.2v16.6c0 .5.3 1.1-.3 1.3-.6.3-.8-.4-1.2-.7-.8-.7-1.5-1.5-2.3-2.3-1.3-1.2-3.1-1.3-4.4-.2-1.3 1.2-1.4 3-.2 4.4l5.7 6.9c.6.7 1.2 1.5 2.1 2 1.7 1.1 2.5 2.6 2.5 4.7 0 1.6.3 1.9 1.9 1.9h9.8c3.4 0 3.4.1 3.3-3.4 0-1.4.3-2.5 1.4-3.5.9-.8 1.3-2.2 1.3-3.4v-5.2c0-.6.1-1.4 0-2.2z" style="fill:#5ccc74"/><path d="M74.4 92.7H63.5c-.9 0-1.6-.1-2-.5-.4-.5-.5-1.1-.5-2 0-1.9-.7-3.2-2.2-4.1-.9-.5-1.5-1.3-2.1-2.1l-.1-.1-5.7-6.9c-1.4-1.7-1.3-3.9.3-5.3 1.5-1.3 3.7-1.2 5.2.2.4.4.8.7 1.1 1.1l1.2 1.2.3.3.1.1V57.4c0-1.4.6-2.7 1.7-3.4 1-.7 2.2-.8 3.4-.4 1.5.6 2.4 2 2.4 3.7v9.3h.3c2.1 0 2.9.5 3.7 2.2 2.1-.7 3.7.3 4.5 1.2.6-.2 1.5-.3 2.6.2.9.4 1.3.9 1.7 1.6.4.6.5 1.4.6 2.4v7.6c0 1.6-.5 3.1-1.5 3.9-.8.7-1.2 1.6-1.1 2.9.1 1.9.1 2.9-.5 3.5-.5.5-1.2.6-2.5.6zm-4.2-1.3h3.5c1.1 0 2 0 2.2-.2.2-.2.2-1.3.2-2.5 0-1.7.5-3 1.6-4 .9-.8 1-2.3 1-2.9v-7.6c0-.8-.2-1.4-.4-1.8-.3-.6-.6-.8-1.1-1.1-1-.5-1.9 0-2 0l-.5.3-.3-.5c-.1-.1-1.4-2-3.9-.9l-.5.3-.2-.7c-.7-1.8-1-2-2.7-2-.3 0-.9 0-1.2-.4-.4-.4-.4-.9-.4-1.2v-9c0-1.2-.6-2.1-1.6-2.5-.8-.3-1.6-.2-2.2.2-.7.5-1.1 1.3-1.1 2.3V74.1c.1.4.2 1.2-.7 1.6-.9.4-1.5-.3-1.7-.6-.2 0-.2 0-.3-.1l-1.2-1.2-1.1-1.1c-1.1-1-2.5-1.1-3.5-.2-1.1 1-1.1 2.4-.2 3.6l5.7 6.9.1.1c.6.7 1.1 1.3 1.8 1.8 1.9 1.2 2.8 2.9 2.8 5.2 0 .6 0 1 .2 1.1s.5.2 1.1.2h6.6z" style="fill:#fff"/></svg>