<svg xmlns="http://www.w3.org/2000/svg" width="90" height="60" fill="none"><style><![CDATA[.B{fill-rule:evenodd}]]></style><rect x=".6" y=".6" width="88.8" height="58.8" rx="1.4" fill="#fff"/><rect x=".6" y=".6" width="88.8" height="58.8" rx="1.4" stroke="#8796a1" stroke-width="1.2"/><g fill="#58707f"><path d="M9.62 6.287h31.699c.648 0 1.18.529 1.18 1.18v22.427c0 .651-.532 1.18-1.18 1.18H9.62c-.648 0-1.18-.529-1.18-1.18V7.467c0-.651.532-1.18 1.18-1.18zm6.808 6.065a3.14 3.14 0 0 1 3.141 3.138c0 1.733-1.408 3.141-3.141 3.141a3.14 3.14 0 0 1-3.138-3.141 3.14 3.14 0 0 1 3.138-3.138zm-5.256-3.337h28.597v15.927c-5.701-.995-8.699-9.007-12.278-9.007-3.814 0-8.874 9.007-11.602 9.007-2.318 0-2.539-2.385-4.717-3.463V9.015z" class="B"/><rect x="8.44" y="33.435" width="28.328" height="1.77" rx=".885"/><path d="M48.68 6.287h31.699c.648 0 1.18.529 1.18 1.18v22.427c0 .651-.532 1.18-1.18 1.18H48.68c-.648 0-1.18-.529-1.18-1.18V7.467c0-.651.532-1.18 1.18-1.18zm6.808 6.065a3.14 3.14 0 0 1 3.141 3.138c0 1.733-1.408 3.141-3.141 3.141a3.14 3.14 0 0 1-3.138-3.141 3.14 3.14 0 0 1 3.138-3.138zm-5.256-3.337h28.597v15.927c-5.701-.995-8.699-9.007-12.278-9.007-3.814 0-8.874 9.007-11.602 9.007-2.318 0-2.539-2.385-4.717-3.463V9.015z" class="B"/><rect x="47.499" y="33.435" width="28.328" height="1.77" rx=".885"/><path d="M8.985 39.205h14.639c.299 0 .545.244.545.545v10.357c0 .301-.246.545-.545.545H8.985c-.299 0-.545-.244-.545-.545V39.75c0-.301.246-.545.545-.545zm3.144 2.801a1.45 1.45 0 0 1 1.451 1.449 1.45 1.45 0 0 1-1.451 1.451 1.45 1.45 0 0 1-1.449-1.451 1.45 1.45 0 0 1 1.449-1.449zm-2.428-1.541h13.207v7.355c-2.633-.459-4.017-4.16-5.67-4.16-1.761 0-4.098 4.16-5.358 4.16-1.071 0-1.173-1.101-2.179-1.6v-5.756z" class="B"/><rect x="8.44" y="52.213" width="15.729" height="1.5" rx=".75"/><path d="M27.316 39.205h14.639c.299 0 .545.244.545.545v10.357c0 .301-.246.545-.545.545H27.316c-.299 0-.545-.244-.545-.545V39.75c0-.301.246-.545.545-.545zm3.144 2.801a1.45 1.45 0 0 1 1.451 1.449 1.45 1.45 0 0 1-1.451 1.451 1.45 1.45 0 0 1-1.449-1.451 1.45 1.45 0 0 1 1.449-1.449zm-2.428-1.541h13.207v7.355c-2.633-.459-4.017-4.16-5.67-4.16-1.761 0-4.098 4.16-5.358 4.16-1.071 0-1.173-1.101-2.178-1.6v-5.756z" class="B"/><rect x="26.771" y="52.213" width="15.729" height="1.5" rx=".75"/><path d="M48.045 39.205h14.639c.299 0 .545.244.545.545v10.357c0 .301-.246.545-.545.545H48.045c-.299 0-.545-.244-.545-.545V39.75c0-.301.246-.545.545-.545zm3.144 2.801a1.45 1.45 0 0 1 1.451 1.449 1.45 1.45 0 0 1-1.451 1.451 1.45 1.45 0 0 1-1.449-1.451 1.45 1.45 0 0 1 1.449-1.449zm-2.428-1.541h13.207v7.355c-2.633-.459-4.017-4.16-5.67-4.16-1.761 0-4.098 4.16-5.358 4.16-1.071 0-1.172-1.101-2.178-1.6v-5.756z" class="B"/><rect x="47.5" y="52.213" width="15.729" height="1.5" rx=".75"/><path d="M66.376 39.205h14.639c.299 0 .545.244.545.545v10.357c0 .301-.246.545-.545.545H66.376c-.299 0-.545-.244-.545-.545V39.75c0-.301.246-.545.545-.545zm3.144 2.801a1.45 1.45 0 0 1 1.451 1.449 1.45 1.45 0 0 1-1.451 1.451 1.45 1.45 0 0 1-1.449-1.451 1.45 1.45 0 0 1 1.449-1.449zm-2.428-1.541h13.207v7.355c-2.633-.459-4.017-4.16-5.67-4.16-1.761 0-4.098 4.16-5.358 4.16-1.071 0-1.172-1.101-2.178-1.6v-5.756z" class="B"/><rect x="65.831" y="52.213" width="15.729" height="1.5" rx=".75"/></g></svg>