<svg xmlns="http://www.w3.org/2000/svg" xmlns:xlink="http://www.w3.org/1999/xlink" width="307" height="186" fill="none"><rect x=".999" y=".999" width="305.001" height="184.001" rx="3.001" fill="#fff"/><rect x=".999" y=".999" width="305.001" height="184.001" rx="3.001" stroke="#8796a1" stroke-width="1.999"/><g fill="#718491"><path fill-rule="evenodd" d="M34 35c-9.941 0-18 8.059-18 18s8.059 18 18 18 18-8.059 18-18-8.059-18-18-18zM22 65.322c3.099 3.018 7.332 4.878 12 4.878s8.901-1.859 12-4.878v-.147c0-1.603-.632-3.14-1.757-4.274s-2.651-1.77-4.243-1.77H28c-1.591 0-3.117.637-4.243 1.77S22 63.572 22 65.175v.147zm18-15.081c0 3.338-2.686 6.044-6 6.044s-6-2.706-6-6.044 2.686-6.044 6-6.044 6 2.706 6 6.044z"/><rect x="62" y="35" width="118" height="7" rx="3.5"/></g><g fill="#8796a1"><rect x="62" y="55" width="210" height="6" rx="3"/><rect x="62" y="69" width="210" height="6" rx="3"/><rect x="62" y="83" width="210" height="6" rx="3"/><rect x="62" y="97" width="190.048" height="6" rx="3"/></g><rect x="62" y="116" width="97.948" height="7" rx="3.5" fill="#718491"/><g clip-path="url(#A)"><use xlink:href="#F" fill="#718491"/></g><g clip-path="url(#B)"><path d="M77 129.5l1.5 3 3 .375-2.06 2.31.56 3.315-3-1.5-3 1.5.565-3.315-2.065-2.31 3-.375 1.5-3z" fill="#718491"/></g><g clip-path="url(#C)"><path d="M87 129.5l1.5 3 3 .375-2.06 2.31.56 3.315-3-1.5-3 1.5.565-3.315-2.065-2.31 3-.375 1.5-3z" fill="#718491"/></g><g clip-path="url(#D)"><path d="M97 129.5l1.5 3 3 .375-2.06 2.31.56 3.315-3-1.5-3 1.5.565-3.315-2.065-2.31 3-.375 1.5-3z" fill="#718491"/></g><g clip-path="url(#E)"><path d="M107 129.5l1.5 3 3 .375-2.06 2.31.56 3.315-3-1.5-3 1.5.565-3.315-2.065-2.31 3-.375 1.5-3z" fill="#718491"/></g><rect x="62" y="145" width="77.481" height="6" rx="3" fill="#8d9da7"/><defs><clipPath id="A"><path fill="#fff" transform="translate(62 129)" d="M0 0h10v10H0z"/></clipPath><clipPath id="B"><path fill="#fff" transform="translate(72 129)" d="M0 0h10v10H0z"/></clipPath><clipPath id="C"><path fill="#fff" transform="translate(82 129)" d="M0 0h10v10H0z"/></clipPath><clipPath id="D"><path fill="#fff" transform="translate(92 129)" d="M0 0h10v10H0z"/></clipPath><clipPath id="E"><path fill="#fff" transform="translate(102 129)" d="M0 0h10v10H0z"/></clipPath><path id="F" d="M67 129.5l1.5 3 3 .375-2.06 2.31.56 3.315-3-1.5-3 1.5.565-3.315-2.065-2.31 3-.375 1.5-3z"/></defs></svg>