<svg xmlns="http://www.w3.org/2000/svg" xmlns:xlink="http://www.w3.org/1999/xlink" width="307" height="186" fill="none"><style><![CDATA[.B{fill:#fff}.C{fill:#718491}.D{fill-rule:evenodd}.E{stroke-opacity:.1}.F{color-interpolation-filters:sRGB}]]></style><rect x="1.002" y="1.002" width="304.996" height="183.996" rx="2.998" class="B"/><rect x="1.002" y="1.002" width="304.996" height="183.996" rx="2.998" stroke="#8796a1" stroke-width="2.004"/><g filter="url(#A)"><rect x="20" y="20" width="127.5" height="146" rx="3" class="B"/><rect x="20.5" y="20.5" width="126.5" height="145" rx="2.5" stroke="#000" class="E"/></g><path d="M20 22.924C20 21.309 21.309 20 22.924 20h121.652c1.615 0 2.924 1.309 2.924 2.924V48H20V22.924z" class="C"/><g class="B"><use xlink:href="#M" class="D"/><path d="M71.75 58.322c3.099 3.018 7.332 4.878 12 4.878a17.14 17.14 0 0 0 12-4.878v-.147a6.07 6.07 0 0 0-1.757-4.274c-1.125-1.134-2.651-1.77-4.243-1.77h-12c-1.591 0-3.117.637-4.243 1.77s-1.757 2.671-1.757 4.274v.147zm12-9.036c3.314 0 6-2.706 6-6.044s-2.686-6.044-6-6.044-6 2.706-6 6.044 2.686 6.044 6 6.044z"/></g><use xlink:href="#M" fill="#546069" class="D"/><rect x="62.187" y="72" width="43.126" height="7" rx="3.5" class="C"/><g clip-path="url(#C)" class="C"><use xlink:href="#N"/></g><g clip-path="url(#D)" class="C"><path d="M73.75 85.5l1.5 3 3 .375-2.06 2.31.56 3.315-3-1.5-3 1.5.565-3.315-2.065-2.31 3-.375 1.5-3z"/></g><g clip-path="url(#E)" class="C"><path d="M83.75 85.5l1.5 3 3 .375-2.06 2.31.56 3.315-3-1.5-3 1.5.565-3.315-2.065-2.31 3-.375 1.5-3z"/></g><g clip-path="url(#F)" class="C"><path d="M93.75 85.5l1.5 3 3 .375-2.06 2.31.56 3.315-3-1.5-3 1.5.565-3.315-2.065-2.31 3-.375 1.5-3z"/></g><g clip-path="url(#G)" class="C"><path d="M103.75 85.5l1.5 3 3 .375-2.06 2.31.56 3.315-3-1.5-3 1.5.565-3.315-2.065-2.31 3-.375 1.5-3z"/></g><g fill="#8796a1"><rect x="48.75" y="101" width="70" height="5" rx="2.5"/><rect x="28" y="116" width="111.5" height="6" rx="3"/><rect x="28" y="128" width="111.5" height="6" rx="3"/><rect x="28" y="140" width="111.5" height="6" rx="3"/><rect x="28" y="152" width="95.024" height="6" rx="3"/></g><g filter="url(#B)"><rect x="159.195" y="20" width="127.5" height="146" rx="3" class="B"/><rect x="159.695" y="20.5" width="126.5" height="145" rx="2.5" stroke="#000" class="E"/></g><path d="M159.195 22.924c0-1.615 1.309-2.924 2.924-2.924h121.652c1.615 0 2.924 1.309 2.924 2.924V48h-127.5V22.924z" class="C"/><g class="B"><use xlink:href="#O" class="D"/><path d="M210.945 58.322c3.099 3.018 7.333 4.878 12 4.878a17.14 17.14 0 0 0 12-4.878v-.147a6.07 6.07 0 0 0-1.757-4.274c-1.125-1.134-2.651-1.77-4.243-1.77h-12a5.98 5.98 0 0 0-4.242 1.77 6.07 6.07 0 0 0-1.758 4.274v.147zm12-9.036c3.314 0 6-2.706 6-6.044s-2.686-6.044-6-6.044-6 2.706-6 6.044 2.687 6.044 6 6.044z"/></g><use xlink:href="#O" fill="#546069" class="D"/><rect x="201.382" y="72" width="43.126" height="7" rx="3.5" class="C"/><g clip-path="url(#H)" class="C"><path d="M202.945 85.5l1.5 3 3 .375-2.06 2.31.56 3.315-3-1.5-3 1.5.565-3.315-2.065-2.31 3-.375 1.5-3z"/></g><g clip-path="url(#I)" class="C"><path d="M212.945 85.5l1.5 3 3 .375-2.06 2.31.56 3.315-3-1.5-3 1.5.565-3.315-2.065-2.31 3-.375 1.5-3z"/></g><g clip-path="url(#J)" class="C"><path d="M222.945 85.5l1.5 3 3 .375-2.06 2.31.56 3.315-3-1.5-3 1.5.565-3.315-2.065-2.31 3-.375 1.5-3z"/></g><g clip-path="url(#K)" class="C"><path d="M232.945 85.5l1.5 3 3 .375-2.06 2.31.56 3.315-3-1.5-3 1.5.565-3.315-2.065-2.31 3-.375 1.5-3z"/></g><g clip-path="url(#L)" class="C"><path d="M242.945 85.5l1.5 3 3 .375-2.06 2.31.56 3.315-3-1.5-3 1.5.565-3.315-2.065-2.31 3-.375 1.5-3z"/></g><g fill="#8796a1"><rect x="187.945" y="101" width="70" height="5" rx="2.5"/><rect x="167.195" y="116" width="111.5" height="6" rx="3"/><rect x="167.195" y="128" width="111.5" height="6" rx="3"/><rect x="167.195" y="140" width="111.5" height="6" rx="3"/><rect x="167.195" y="152" width="95.024" height="6" rx="3"/></g><defs><filter id="A" x="18.538" y="20" width="130.424" height="148.924" filterUnits="userSpaceOnUse" class="F"><feFlood flood-opacity="0" result="A"/><feColorMatrix in="SourceAlpha" values="0 0 0 0 0 0 0 0 0 0 0 0 0 0 0 0 0 0 127 0" result="B"/><feOffset dy="1.4619"/><feGaussianBlur stdDeviation=".731"/><feComposite in2="B" operator="out"/><feColorMatrix values="0 0 0 0 0 0 0 0 0 0 0 0 0 0 0 0 0 0 0.1 0"/><feBlend in2="A"/><feBlend in="SourceGraphic"/></filter><filter id="B" x="157.733" y="20" width="130.424" height="148.924" filterUnits="userSpaceOnUse" class="F"><feFlood flood-opacity="0" result="A"/><feColorMatrix in="SourceAlpha" values="0 0 0 0 0 0 0 0 0 0 0 0 0 0 0 0 0 0 127 0" result="B"/><feOffset dy="1.4619"/><feGaussianBlur stdDeviation=".731"/><feComposite in2="B" operator="out"/><feColorMatrix values="0 0 0 0 0 0 0 0 0 0 0 0 0 0 0 0 0 0 0.1 0"/><feBlend in2="A"/><feBlend in="SourceGraphic"/></filter><clipPath id="C"><path transform="translate(58.75 85)" d="M0 0h10v10H0z" class="B"/></clipPath><clipPath id="D"><path transform="translate(68.75 85)" d="M0 0h10v10H0z" class="B"/></clipPath><clipPath id="E"><path transform="translate(78.75 85)" d="M0 0h10v10H0z" class="B"/></clipPath><clipPath id="F"><path transform="translate(88.75 85)" d="M0 0h10v10H0z" class="B"/></clipPath><clipPath id="G"><path transform="translate(98.75 85)" d="M0 0h10v10H0z" class="B"/></clipPath><clipPath id="H"><path transform="translate(197.945 85)" d="M0 0h10v10H0z" class="B"/></clipPath><clipPath id="I"><path transform="translate(207.945 85)" d="M0 0h10v10H0z" class="B"/></clipPath><clipPath id="J"><path transform="translate(217.945 85)" d="M0 0h10v10H0z" class="B"/></clipPath><clipPath id="K"><path transform="translate(227.945 85)" d="M0 0h10v10H0z" class="B"/></clipPath><clipPath id="L"><path transform="translate(237.945 85)" d="M0 0h10v10H0z" class="B"/></clipPath><path id="M" d="M83.75 28c-9.941 0-18 8.059-18 18s8.059 18 18 18 18-8.059 18-18-8.059-18-18-18zm-12 30.322c3.099 3.018 7.332 4.878 12 4.878s8.901-1.859 12-4.878v-.147c0-1.603-.632-3.14-1.757-4.274s-2.651-1.77-4.243-1.77h-12c-1.591 0-3.117.637-4.243 1.77s-1.757 2.671-1.757 4.274v.147zm18-15.081c0 3.338-2.686 6.044-6 6.044s-6-2.706-6-6.044 2.686-6.044 6-6.044 6 2.706 6 6.044z"/><path id="N" d="M63.75 85.5l1.5 3 3 .375-2.06 2.31.56 3.315-3-1.5-3 1.5.565-3.315-2.065-2.31 3-.375 1.5-3z"/><path id="O" d="M222.945 28c-9.941 0-18 8.059-18 18s8.059 18 18 18 18-8.059 18-18-8.059-18-18-18zm-12 30.322c3.099 3.018 7.333 4.878 12 4.878s8.901-1.859 12-4.878v-.147c0-1.603-.632-3.14-1.757-4.274s-2.651-1.77-4.243-1.77h-12c-1.591 0-3.117.637-4.242 1.77s-1.758 2.671-1.758 4.274v.147zm18-15.081c0 3.338-2.686 6.044-6 6.044s-6-2.706-6-6.044 2.687-6.044 6-6.044 6 2.706 6 6.044z"/></defs></svg>