<svg xmlns="http://www.w3.org/2000/svg" width="307" height="186" fill="none" ><g clip-path="url(#A)"><use href="#B" fill="#fff"/><use href="#B" stroke="#8796a1" stroke-width="2"/><path d="M238 20H69a3.5 3.5 0 1 0 0 7h169a3.5 3.5 0 1 0 0-7z" fill="#718491"/><g fill="#8796a1"><use href="#C"/><path d="M276 52H31a3 3 0 1 0 0 6h245a3 3 0 1 0 0-6zm-6.611 13H37.61a3 3 0 1 0 0 6h231.779a3 3 0 1 0 0-6zm-43.031 13H80.643a3 3 0 1 0 0 6h145.715a3 3 0 1 0 0-6z"/></g><g fill="#718491"><use href="#D"/><path d="M143.5 98.5l1.5 3 3 .375-2.06 2.31.56 3.315-3-1.5-3 1.5.565-3.315-2.065-2.31 3-.375 1.5-3zm10 0l1.5 3 3 .375-2.06 2.31.56 3.315-3-1.5-3 1.5.565-3.315-2.065-2.31 3-.375 1.5-3zm10 0l1.5 3 3 .375-2.06 2.31.56 3.315-3-1.5-3 1.5.565-3.315-2.065-2.31 3-.375 1.5-3zm10 0l1.5 3 3 .375-2.06 2.31.56 3.315-3-1.5-3 1.5.565-3.315-2.065-2.31 3-.375 1.5-3z"/></g><path d="M189.241 114H117.76a3 3 0 1 0 0 6h71.481a3 3 0 1 0 0-6z" fill="#8796a1"/><g fill="#718491"><path fill-rule="evenodd" d="M153.5 133c-8.837 0-16 7.163-16 16s7.163 16 16 16 16-7.163 16-16-7.163-16-16-16zm-10.667 26.953a15.24 15.24 0 0 0 21.334 0v-.131c0-1.425-.562-2.792-1.562-3.799s-2.357-1.574-3.772-1.574h-10.666c-1.415 0-2.771.566-3.772 1.574a5.39 5.39 0 0 0-1.562 3.799v.131zm16-13.405c0 2.967-2.387 5.373-5.333 5.373s-5.333-2.405-5.333-5.373 2.387-5.373 5.333-5.373 5.333 2.406 5.333 5.373z"/><path d="M15.346 97.885l-4.568-4.568 4.568-4.568-.914-1.827-6.396 6.396 6.396 6.396.914-1.827v-.002zm276.309 0l4.569-4.568-4.569-4.568.914-1.827 6.396 6.396-6.396 6.396-.914-1.827v-.002z"/></g></g><defs><clipPath id="A"><path fill="#fff" d="M0 0h307v186H0z"/></clipPath><path id="B" d="M299 1H8a7 7 0 0 0-7 7v170a7 7 0 0 0 7 7h291a7 7 0 0 0 7-7V8a7 7 0 0 0-7-7z"/><path id="C" d="M276 39H31a3 3 0 1 0 0 6h245a3 3 0 1 0 0-6z"/><path id="D" d="M133.5 98.5l1.5 3 3 .375-2.06 2.31.56 3.315-3-1.5-3 1.5.565-3.315-2.065-2.31 3-.375 1.5-3z"/></defs></svg>