<svg xmlns="http://www.w3.org/2000/svg" xmlns:xlink="http://www.w3.org/1999/xlink" width="307" height="186" fill="none" xmlns:v="https://vecta.io/nano"><style><![CDATA[.B{fill:#718491}.C{fill:#8796a1}.D{shape-rendering:crispEdges}]]></style><rect x="1" y="1" width="305" height="184" rx="7" fill="#fff"/><rect x="1" y="1" width="305" height="184" rx="7" stroke="#8796a1" stroke-width="2"/><g fill-rule="evenodd"><path d="M32 43c-7.18 0-13 5.82-13 13s5.82 13 13 13 13-5.82 13-13-5.82-13-13-13zm-8.667 21.9A12.38 12.38 0 0 0 32 68.422a12.38 12.38 0 0 0 8.667-3.523v-.106a4.38 4.38 0 0 0-1.269-3.087c-.813-.819-1.915-1.279-3.064-1.279h-8.667c-1.149 0-2.251.46-3.064 1.279a4.38 4.38 0 0 0-1.269 3.087v.106zm13-10.892c0 2.411-1.94 4.365-4.333 4.365s-4.333-1.954-4.333-4.365 1.94-4.365 4.333-4.365 4.333 1.954 4.333 4.365z" fill="#bbc2c7"/><path d="M32 77c-8.837 0-16 7.163-16 16s7.163 16 16 16 16-7.163 16-16-7.163-16-16-16zm-10.667 26.953A15.24 15.24 0 0 0 32 108.289a15.24 15.24 0 0 0 10.667-4.336v-.131c0-1.425-.562-2.791-1.562-3.799s-2.357-1.574-3.771-1.574H26.667c-1.415 0-2.771.566-3.771 1.574s-1.562 2.374-1.562 3.799v.131zm16-13.405c0 2.967-2.388 5.373-5.333 5.373s-5.333-2.406-5.333-5.373 2.388-5.373 5.333-5.373 5.333 2.406 5.333 5.373z" class="B"/><path d="M32 117c-7.18 0-13 5.82-13 13s5.82 13 13 13 13-5.82 13-13-5.82-13-13-13zm-8.667 21.899A12.38 12.38 0 0 0 32 142.422a12.38 12.38 0 0 0 8.667-3.523v-.106c0-1.158-.457-2.268-1.269-3.087a4.32 4.32 0 0 0-3.064-1.278h-8.667a4.32 4.32 0 0 0-3.064 1.278c-.813.819-1.269 1.929-1.269 3.087v.106zm13-10.891c0 2.411-1.94 4.365-4.333 4.365s-4.333-1.954-4.333-4.365 1.94-4.366 4.333-4.366 4.333 1.955 4.333 4.366z" fill="#bbc2c7"/></g><g filter="url(#A)"><rect x="62" y="28.5" width="229" height="129" rx="4" fill="#fff" class="D"/><rect x="62.5" y="29" width="228" height="128" rx="3.5" stroke="#000" stroke-opacity=".05" class="D"/><rect x="100.5" y="48.5" width="152" height="8" rx="4" class="B"/><rect x="78" y="68.5" width="197" height="6" rx="3" class="C"/><rect x="78" y="81.5" width="197" height="6" rx="3" class="C"/><rect x="116.5" y="94.5" width="120" height="6" rx="3" class="C"/><rect x="136.5" y="112.5" width="80" height="7" rx="3.5" class="B"/><use xlink:href="#B" class="B"/><use xlink:href="#B" x="12" class="B"/><use xlink:href="#B" x="24" class="B"/><use xlink:href="#B" x="36" class="B"/><use xlink:href="#B" x="48" class="B"/></g><defs><filter id="A" x="52" y="18.5" width="249" height="149" filterUnits="userSpaceOnUse" color-interpolation-filters="sRGB"><feFlood flood-opacity="0" result="A"/><feColorMatrix in="SourceAlpha" values="0 0 0 0 0 0 0 0 0 0 0 0 0 0 0 0 0 0 127 0" result="B"/><feOffset/><feGaussianBlur stdDeviation="5"/><feComposite in2="B" operator="out"/><feColorMatrix values="0 0 0 0 0 0 0 0 0 0 0 0 0 0 0 0 0 0 0.08 0"/><feBlend in2="A"/><feBlend in="SourceGraphic"/></filter><path id="B" d="M152.5 126.1l1.8 3.6 3.6.45-2.472 2.772.672 3.978-3.6-1.8-3.6 1.8.678-3.978-2.478-2.772 3.6-.45 1.8-3.6z"/></defs></svg>