<svg xmlns="http://www.w3.org/2000/svg" xmlns:xlink="http://www.w3.org/1999/xlink" width="307" height="186" fill="none" xmlns:v="https://vecta.io/nano"><rect x="1" y="1" width="305" height="184" rx="7" fill="#fff"/><rect x="1" y="1" width="305" height="184" rx="7" stroke="#8796a1" stroke-width="2"/><g fill-rule="evenodd"><use xlink:href="#B" fill="#bbc2c7"/><path d="M153.5 26c-8.837 0-16 7.163-16 16s7.163 16 16 16 16-7.163 16-16-7.163-16-16-16zm-10.667 26.953a15.24 15.24 0 0 0 21.334 0v-.131c0-1.425-.562-2.792-1.562-3.799s-2.357-1.574-3.772-1.574h-10.666c-1.415 0-2.771.566-3.772 1.574s-1.562 2.374-1.562 3.799v.131zm16-13.405c0 2.967-2.387 5.373-5.333 5.373s-5.333-2.405-5.333-5.373 2.387-5.373 5.333-5.373 5.333 2.406 5.333 5.373z" fill="#718491"/><use xlink:href="#B" x="74" fill="#bbc2c7"/></g><rect x="68.5" y="71" width="170" height="8" rx="4" fill="#718491"/><g fill="#8796a1"><rect x="28" y="91" width="251" height="6" rx="3"/><rect x="28" y="104" width="251" height="6" rx="3"/><rect x="77.642" y="117" width="151.715" height="6" rx="3"/></g><g fill="#718491"><rect x="109.5" y="135" width="88" height="7" rx="3.5"/><use xlink:href="#C"/><use xlink:href="#C" x="12"/><use xlink:href="#C" x="24"/><use xlink:href="#C" x="36"/><use xlink:href="#C" x="48"/><path d="M13.346 97.885l-4.568-4.568 4.568-4.568-.914-1.827-6.396 6.396 6.396 6.396.914-1.827zm281.385 0l4.568-4.568-4.568-4.568.914-1.827 6.395 6.396-6.395 6.396-.914-1.827z"/></g><defs ><path id="B" d="M116.5 29c-7.18 0-13 5.82-13 13s5.82 13 13 13 13-5.82 13-13-5.82-13-13-13zm-8.667 21.9a12.38 12.38 0 0 0 17.334 0v-.106a4.38 4.38 0 0 0-1.27-3.087c-.812-.819-1.914-1.279-3.064-1.279h-8.666c-1.15 0-2.252.46-3.064 1.279a4.38 4.38 0 0 0-1.27 3.087v.106zm13-10.892c0 2.411-1.94 4.365-4.333 4.365s-4.333-1.954-4.333-4.365 1.94-4.365 4.333-4.365 4.333 1.954 4.333 4.365z"/><path id="C" d="M129.5 148.6l1.8 3.6 3.6.45-2.472 2.772.672 3.978-3.6-1.8-3.6 1.8.678-3.978-2.478-2.772 3.6-.45 1.8-3.6z"/></defs></svg>