<svg xmlns="http://www.w3.org/2000/svg" xmlns:xlink="http://www.w3.org/1999/xlink" width="307" height="186" fill="none" xmlns:v="https://vecta.io/nano"><rect x="1" y="1" width="305" height="184" rx="7" fill="#fff"/><rect x="1" y="1" width="305" height="184" rx="7" stroke="#8796a1" stroke-width="2"/><rect x="65.5" y="26" width="176" height="8" rx="4" fill="#718491"/><g fill="#8796a1"><rect x="28" y="46" width="251" height="6" rx="3"/><rect x="28" y="59" width="251" height="6" rx="3"/><rect x="77.642" y="72" width="151.715" height="6" rx="3"/></g><g fill="#718491"><rect x="109.5" y="90" width="88" height="7" rx="3.5"/><use xlink:href="#B"/><use xlink:href="#B" x="12"/><use xlink:href="#B" x="24"/><use xlink:href="#B" x="36"/><use xlink:href="#B" x="48"/></g><g fill-rule="evenodd"><use xlink:href="#C" fill="#bbc2c7"/><path d="M153.5 128c-8.837 0-16 7.163-16 16s7.163 16 16 16 16-7.163 16-16-7.163-16-16-16zm-10.667 26.953a15.24 15.24 0 0 0 21.334 0v-.131c0-1.425-.562-2.791-1.562-3.799s-2.357-1.574-3.772-1.574h-10.666c-1.415 0-2.771.566-3.772 1.574s-1.562 2.374-1.562 3.799v.131zm16-13.405c0 2.968-2.387 5.373-5.333 5.373s-5.333-2.405-5.333-5.373 2.387-5.373 5.333-5.373 5.333 2.406 5.333 5.373z" fill="#718491"/><use xlink:href="#C" x="74" fill="#bbc2c7"/></g><defs ><path id="B" d="M129.5 103.6l1.8 3.6 3.6.45-2.472 2.772.672 3.978-3.6-1.8-3.6 1.8.678-3.978-2.478-2.772 3.6-.45 1.8-3.6z"/><path id="C" d="M116.5 131c-7.18 0-13 5.82-13 13s5.82 13 13 13 13-5.82 13-13-5.82-13-13-13zm-8.667 21.899a12.38 12.38 0 0 0 17.334 0v-.106a4.38 4.38 0 0 0-1.27-3.087c-.812-.818-1.914-1.278-3.064-1.278h-8.666c-1.15 0-2.252.46-3.064 1.278a4.38 4.38 0 0 0-1.27 3.087v.106zm13-10.891c0 2.411-1.94 4.365-4.333 4.365s-4.333-1.954-4.333-4.365 1.94-4.366 4.333-4.366 4.333 1.955 4.333 4.366z"/></defs></svg>