<svg xmlns="http://www.w3.org/2000/svg" width="250" height="161" fill="none" xmlns:v="https://vecta.io/nano"><path fill="#fff" d="M0 0h250v161H0z"/><rect x="72.5" y="130.5" width="11" height="11" rx="5.5" fill="#ffd9f1" stroke="#f21197"/><text fill="#546069" xml:space="preserve" style="white-space:pre" font-family="Roboto" font-size="12" font-weight="600" letter-spacing="0em"><tspan x="88" y="140.031">Contain Padding</tspan></text><rect x="26.5" y="31.5" width="197" height="84" rx="3.5" fill="#fff"/><rect x="26.5" y="31.5" width="197" height="84" rx="3.5" stroke="#bbc2c7"/><rect x="38.463" y="41.957" width="48.074" height="63.087" rx="2.007" stroke="#718491" stroke-width=".926"/><g fill="#58707f"><path fill-rule="evenodd" d="M39.698 41.493h45.604c.932 0 1.698.761 1.698 1.698v32.265 1.698H38v-1.698-32.265c0-.937.766-1.698 1.698-1.698zm9.794 8.726a4.52 4.52 0 0 1 4.519 4.514c0 2.494-2.025 4.519-4.519 4.519a4.52 4.52 0 0 1-4.514-4.519c0-2.494 2.02-4.514 4.514-4.514zm-7.562-4.801h41.142v22.914c-8.202-1.431-12.515-12.958-17.664-12.958-5.487 0-12.767 12.958-16.692 12.958-3.335 0-3.653-3.431-6.786-4.983V45.418z"/><rect x="45.206" y="83.154" width="34.588" height="3.706" rx="1.853"/><rect x="45.206" y="90.86" width="34.588" height="3.088" rx="1.544"/><rect x="50.148" y="96.419" width="24.706" height="3.088" rx="1.544"/></g><rect x="97.464" y="41.957" width="48.074" height="63.087" rx="2.007" stroke="#718491" stroke-width=".926"/><g fill="#58707f"><path fill-rule="evenodd" d="M98.698 41.493h45.605c.932 0 1.698.761 1.698 1.698v32.265 1.698h-49v-1.698-32.265c0-.937.766-1.698 1.698-1.698zm9.795 8.726a4.52 4.52 0 0 1 4.519 4.514c0 2.494-2.025 4.519-4.519 4.519a4.52 4.52 0 0 1-4.515-4.519c0-2.494 2.021-4.514 4.515-4.514zm-7.563-4.801h41.142v22.914c-8.202-1.431-12.515-12.958-17.664-12.958-5.486 0-12.766 12.958-16.691 12.958-3.336 0-3.653-3.431-6.787-4.983V45.418z"/><rect x="104.207" y="83.154" width="34.588" height="3.706" rx="1.853"/><rect x="104.207" y="90.86" width="34.588" height="3.088" rx="1.544"/><rect x="109.148" y="96.419" width="24.706" height="3.088" rx="1.544"/></g><rect x="156.464" y="41.957" width="48.074" height="63.087" rx="2.007" stroke="#718491" stroke-width=".926"/><g fill="#58707f"><path fill-rule="evenodd" d="M157.699 41.493h45.604c.932 0 1.698.761 1.698 1.698v32.265 1.698h-49v-1.698-32.265a1.7 1.7 0 0 1 1.698-1.698zm9.794 8.726a4.52 4.52 0 0 1 4.519 4.514c0 2.494-2.025 4.519-4.519 4.519a4.52 4.52 0 0 1-4.514-4.519c0-2.494 2.02-4.514 4.514-4.514zm-7.562-4.801h41.142v22.914c-8.203-1.431-12.515-12.958-17.664-12.958-5.487 0-12.767 12.958-16.692 12.958-3.335 0-3.653-3.431-6.786-4.983V45.418z"/><rect x="163.207" y="83.154" width="34.588" height="3.706" rx="1.853"/><rect x="163.207" y="90.86" width="34.588" height="3.088" rx="1.544"/><rect x="168.148" y="96.419" width="24.706" height="3.088" rx="1.544"/></g><path d="M198.5 81.813h-36v-3h36zm0 21.58h-36v-3h36zm4.5 0h-3v-24.6h3zm-42 0h-3v-24.6h3z" fill="#ffd9f1" stroke="#f21197"/><path d="M185 137a4 4 0 1 0 8 0 4 4 0 1 0-8 0zm49 0v.75a.75.75 0 0 0 .75-.75H234zm0-47h.75a.75.75 0 0 0-.75-.75V90zm-27.5 0l7.5 4.33v-8.66L206.5 90zM189 137.75h45v-1.5h-45v1.5zm45.75-.75V90h-1.5v47h1.5zM234 89.25h-20.75v1.5H234v-1.5z" fill="#f21197"/></svg>