<svg xmlns="http://www.w3.org/2000/svg" width="250" height="180" fill="none" xmlns:v="https://vecta.io/nano"><style><![CDATA[.B{stroke-width:.75}.C{stroke:#718491}.D{fill:#58707f}.E{fill-rule:evenodd}]]></style><path fill="#fff" d="M0 0h250v180H0z"/><rect x="61.5" y="152.5" width="11" height="11" rx="5.5" fill="#ffd9f1" stroke="#f21197"/><text fill="#546069" xml:space="preserve" style="white-space:pre" font-family="Roboto" font-size="12" font-weight="600" letter-spacing="0em"><tspan x="77" y="162.031">Equalize Post Height</tspan></text><rect x="61.375" y="82.375" width="128.25" height="59.25" rx="2.053" fill="#fff"/><rect x="61.375" y="82.375" width="128.25" height="59.25" rx="2.053" stroke="#bbc2c7" class="B"/><rect x="64.5" y="85.5" width="122" height="53" rx=".5" stroke="#f21197"/><rect x="71.193" y="89.375" width="33.25" height="45.25" rx="1.625" class="B C"/><g class="D"><path d="M71.997 89h31.644a1.18 1.18 0 0 1 1.178 1.178V113h-1.178-31.644-1.178V90.178A1.18 1.18 0 0 1 71.997 89zm6.796 6.055c1.73 0 3.136 1.402 3.136 3.132a3.14 3.14 0 0 1-3.136 3.136c-1.73 0-3.132-1.405-3.132-3.136a3.13 3.13 0 0 1 3.132-3.132zm-5.247-3.332h28.548v15.9c-5.692-.993-8.684-8.992-12.257-8.992-3.807 0-8.859 8.992-11.582 8.992-2.314 0-2.535-2.381-4.709-3.458V91.723z" class="E"/><rect x="73.818" y="117" width="28" height="3" rx="1.5"/><rect x="73.818" y="124" width="28" height="2.5" rx="1.25"/><rect x="77.818" y="128.5" width="20" height="2.5" rx="1.25"/></g><rect x="108.875" y="89.375" width="33.25" height="45.25" rx="1.625" class="B C"/><g class="D"><path d="M109.678 89h31.644a1.18 1.18 0 0 1 1.178 1.178V113h-1.178-31.644-1.178V90.178A1.18 1.18 0 0 1 109.678 89zm6.796 6.055c1.731 0 3.136 1.402 3.136 3.132a3.14 3.14 0 0 1-3.136 3.136c-1.73 0-3.132-1.405-3.132-3.136a3.13 3.13 0 0 1 3.132-3.132zm-5.247-3.332h28.548v15.9c-5.692-.993-8.684-8.992-12.257-8.992-3.807 0-8.859 8.992-11.582 8.992-2.314 0-2.534-2.381-4.709-3.458V91.723z" class="E"/><rect x="111.5" y="117" width="28" height="3" rx="1.5"/><rect x="111.5" y="124" width="28" height="2.5" rx="1.25"/></g><rect x="146.557" y="89.375" width="33.25" height="45.25" rx="1.625" class="B C"/><g class="D"><path d="M147.36 89h31.644a1.18 1.18 0 0 1 1.178 1.178V113h-1.178-31.644-1.178V90.178A1.18 1.18 0 0 1 147.36 89zm6.796 6.055c1.731 0 3.136 1.402 3.136 3.132a3.14 3.14 0 0 1-3.136 3.136c-1.73 0-3.132-1.405-3.132-3.136a3.13 3.13 0 0 1 3.132-3.132zm-5.247-3.332h28.547v15.9c-5.691-.993-8.683-8.992-12.256-8.992-3.807 0-8.859 8.992-11.582 8.992-2.314 0-2.535-2.381-4.709-3.458V91.723z" class="E"/><rect x="149.182" y="117" width="28" height="3" rx="1.5"/><rect x="149.182" y="124" width="28" height="2.5" rx="1.25"/><rect x="153.182" y="128.5" width="20" height="2.5" rx="1.25"/></g><rect x="61.375" y="16.375" width="128.25" height="57.25" rx="2.053" fill="#fff"/><g class="B"><rect x="61.375" y="16.375" width="128.25" height="57.25" rx="2.053" stroke="#bbc2c7"/><rect x="71.193" y="22.375" width="33.25" height="45.25" rx="1.625" class="C"/></g><g class="D"><path d="M71.996 22h31.644a1.18 1.18 0 0 1 1.178 1.178V46h-1.178-31.644-1.178V23.178A1.18 1.18 0 0 1 71.996 22zm6.796 6.055c1.73 0 3.136 1.402 3.136 3.132a3.14 3.14 0 0 1-3.136 3.136c-1.73 0-3.132-1.405-3.132-3.136a3.13 3.13 0 0 1 3.132-3.132zm-5.247-3.332h28.547v15.899c-5.691-.993-8.683-8.992-12.256-8.992-3.807 0-8.859 8.992-11.582 8.992-2.314 0-2.535-2.381-4.709-3.458V24.723z" class="E"/><rect x="73.818" y="50" width="28" height="3" rx="1.5"/><rect x="73.818" y="57" width="28" height="2.5" rx="1.25"/><rect x="77.818" y="61.5" width="20" height="2.5" rx="1.25"/></g><rect x="108.875" y="22.375" width="33.25" height="40.75" rx="1.625" class="B C"/><g class="D"><path d="M109.678 22h31.644a1.18 1.18 0 0 1 1.178 1.178V46h-1.178-31.644-1.178V23.178A1.18 1.18 0 0 1 109.678 22zm6.796 6.055c1.731 0 3.136 1.402 3.136 3.132a3.14 3.14 0 0 1-3.136 3.136c-1.73 0-3.132-1.405-3.132-3.136a3.13 3.13 0 0 1 3.132-3.132zm-5.247-3.332h28.547v15.899c-5.691-.993-8.683-8.992-12.256-8.992-3.807 0-8.859 8.992-11.582 8.992-2.315 0-2.535-2.381-4.709-3.458V24.723z" class="E"/><rect x="111.5" y="50" width="28" height="3" rx="1.5"/><rect x="111.5" y="57" width="28" height="2.5" rx="1.25"/></g><rect x="146.557" y="22.375" width="33.25" height="45.25" rx="1.625" class="B C"/><g class="D"><path d="M147.36 22h31.644a1.18 1.18 0 0 1 1.178 1.178V46h-1.178-31.644-1.178V23.178A1.18 1.18 0 0 1 147.36 22zm6.796 6.055c1.73 0 3.136 1.402 3.136 3.132a3.14 3.14 0 0 1-3.136 3.136c-1.73 0-3.132-1.405-3.132-3.136a3.13 3.13 0 0 1 3.132-3.132zm-5.247-3.332h28.547v15.899c-5.691-.993-8.684-8.992-12.256-8.992-3.807 0-8.859 8.992-11.582 8.992-2.315 0-2.535-2.381-4.709-3.458V24.723z" class="E"/><rect x="149.182" y="50" width="28" height="3" rx="1.5"/><rect x="149.182" y="57" width="28" height="2.5" rx="1.25"/><rect x="153.182" y="61.5" width="20" height="2.5" rx="1.25"/></g><path d="M193 159a4 4 0 1 0 8 0 4 4 0 1 0-8 0zm42 0v.75a.75.75 0 0 0 .75-.75H235zm0-48h.75a.75.75 0 0 0-.75-.75v.75zm-47.5 0l7.5 4.33v-8.66l-7.5 4.33zm9.5 48.75h38v-1.5h-38v1.5zm38.75-.75v-48h-1.5v48h1.5zm-.75-48.75h-40.75v1.5H235v-1.5z" fill="#f21197"/></svg>