<svg xmlns="http://www.w3.org/2000/svg" xmlns:xlink="http://www.w3.org/1999/xlink" width="250" height="180" fill="none" xmlns:v="https://vecta.io/nano"><style><![CDATA[.B{fill:#fff}.C{stroke:#8796a1}.D{stroke-width:.645}.E{fill-rule:evenodd}.F{fill:#58707f}.G{stroke:#f21197}.H{fill-opacity:.6}.I{font-family:Roboto}.J{stroke-width:.607}]]></style><path d="M0 0h250v180H0z" class="B"/><rect x="60.5" y="158.5" width="11" height="11" rx="5.5" fill="#ffd9f1" class="G"/><text fill="#546069" xml:space="preserve" style="white-space:pre" font-size="12" font-weight="600" letter-spacing="0em" class="I"><tspan x="76" y="168.031">Always</tspan></text><rect x="125.5" y="158.5" width="11" height="11" rx="5.5" fill="#ffd9f1" class="G"/><text fill="#546069" xml:space="preserve" style="white-space:pre" font-size="12" font-weight="600" letter-spacing="0em" class="I"><tspan x="141" y="168.031">On Hover</tspan></text><rect x="57.304" y="84.304" width="138.393" height="65.393" rx="2.125" class="B"/><rect x="57.304" y="84.304" width="138.393" height="65.393" rx="2.125" stroke="#bbc2c7" class="J"/><rect x="65.5" y="90.5" width="122" height="53" rx=".5" class="G"/><rect x="71.541" y="98.183" width="33.755" height="37.625" rx=".968" fill="#d8dadb"/><rect x="71.541" y="98.183" width="33.755" height="37.625" rx=".968" class="C D"/><path d="M75.212 106.89h26.413c.54 0 .983.441.983.983v18.688c0 .542-.443.983-.983.983H75.212c-.54 0-.983-.441-.983-.983v-18.688c0-.542.444-.983.983-.983zm5.673 5.054c1.444 0 2.617 1.17 2.617 2.615a2.62 2.62 0 0 1-2.617 2.617c-1.444 0-2.615-1.173-2.615-2.617s1.17-2.615 2.615-2.615zm-4.38-2.781h23.829v13.271c-4.75-.828-7.248-7.505-10.23-7.505-3.178 0-7.394 7.505-9.668 7.505-1.932 0-2.116-1.987-3.931-2.886v-10.385z" class="E F"/><rect x="109.623" y="98.183" width="33.755" height="37.625" rx=".968" fill="#d8dadb"/><rect x="109.623" y="98.183" width="33.755" height="37.625" rx=".968" class="C D"/><use xlink:href="#B" class="E F"/><rect x="147.705" y="98.183" width="33.755" height="37.625" rx=".968" class="B"/><rect x="147.705" y="98.183" width="33.755" height="37.625" rx=".968" class="C D"/><use xlink:href="#B" x="38.082" class="E F"/><path d="M180.492 98.505h-31.82c-.356 0-.645.289-.645.645v35.69c0 .356.289.645.645.645h31.82c.356 0 .645-.289.645-.645V99.15c0-.356-.289-.645-.645-.645z" fill="#000" class="H"/><g class="B"><rect x="152.582" y="110.884" width="24" height="3" rx="1.5"/><rect x="151.582" y="117.884" width="26" height="2" rx="1"/><rect x="158.582" y="121.884" width="12" height="2" rx="1"/><path d="M178.07 134.622h-2.971c-.314 0-.535-.141-.645-.393-.078-.188-.078-.392-.078-.55v-.094c-.362-.189-1.195-.754-1.195-2.059 0-.597-.157-1.65-.503-2.138-.424-.581-.11-.911 0-1.006.315-.267.896-.251 1.179.048a2.04 2.04 0 0 1 .283.393v-2.767c0-.267.11-.534.283-.723.157-.157.346-.236.535-.236.502 0 .833.488.833.959v1.525a.67.67 0 0 1 .345-.094c.378 0 .66.282.786.613a.7.7 0 0 1 .409-.126c.456 0 .786.408.849.817.11-.063.22-.094.361-.094.503 0 .849.503.849.959v2.09c0 1.1 0 1.163-.424 1.713l-.063.079v.157c0 .252-.016.927-.833.927zm-4.826-5.941a.43.43 0 0 0-.251.079c-.095.078-.016.251.078.361.44.598.598 1.808.598 2.421 0 1.273.99 1.666 1.037 1.682.094.031.157.125.157.22v.235c0 .126 0 .268.047.362.016.063.063.11.205.11h2.97c.315 0 .346-.126.362-.456v-.251c0-.048.016-.095.047-.142l.11-.141c.33-.425.33-.425.314-1.431v-2.09c0-.189-.157-.472-.361-.472s-.346.283-.346.472c0 .126-.11.236-.236.236s-.235-.11-.235-.236v-.707c0-.189-.158-.472-.378-.472-.173 0-.345.267-.345.472 0 .125-.11.235-.236.235s-.236-.11-.236-.235v-.472c0-.189-.157-.471-.361-.471-.189 0-.346.267-.346.471 0 .126-.11.236-.236.236s-.236-.11-.236-.236v-2.389c0-.22-.157-.472-.361-.472-.079 0-.142.032-.205.095a.55.55 0 0 0-.157.377v4.291c0 .126-.094.236-.22.236-.094 0-.22-.032-.251-.236-.252-1.132-.503-1.478-.613-1.572-.095-.078-.205-.11-.315-.11z"/><path d="M173.244 128.681a.43.43 0 0 0-.251.079c-.095.078-.016.251.078.361.44.598.598 1.808.598 2.421 0 1.273.99 1.666 1.037 1.682.094.031.157.125.157.22v.235c0 .126 0 .268.047.362.016.063.063.11.205.11h2.97c.315 0 .346-.126.362-.456v-.251c0-.048.016-.095.047-.142l.11-.141c.33-.425.33-.425.314-1.431v-2.09c0-.189-.157-.472-.361-.472s-.346.283-.346.472c0 .126-.11.236-.236.236s-.235-.11-.235-.236v-.707c0-.189-.158-.472-.378-.472-.173 0-.345.267-.345.472 0 .125-.11.235-.236.235s-.236-.11-.236-.235v-.472c0-.189-.157-.471-.361-.471-.189 0-.346.267-.346.471 0 .126-.11.236-.236.236s-.236-.11-.236-.236v-2.389c0-.22-.157-.472-.361-.472-.079 0-.142.032-.205.095a.55.55 0 0 0-.157.377v4.291c0 .126-.094.236-.22.236-.094 0-.22-.032-.251-.236-.252-1.132-.503-1.478-.613-1.572-.095-.078-.205-.11-.315-.11z"/><rect x="57.304" y="10.304" width="138.393" height="65.393" rx="2.125"/></g><rect x="57.304" y="10.304" width="138.393" height="65.393" rx="2.125" stroke="#bbc2c7" class="J"/><rect x="65.5" y="16.5" width="122" height="53" rx=".5" class="G"/><rect x="71.541" y="24.183" width="33.755" height="37.625" rx=".968" class="B"/><rect x="71.541" y="24.183" width="33.755" height="37.625" rx=".968" class="C D"/><path d="M75.212 32.89h26.413c.54 0 .983.441.983.983v18.687c0 .543-.443.983-.983.983H75.212c-.54 0-.983-.441-.983-.983V33.873c0-.543.444-.983.983-.983zm5.673 5.054c1.444 0 2.617 1.17 2.617 2.614a2.62 2.62 0 0 1-2.617 2.617c-1.444 0-2.615-1.173-2.615-2.617s1.17-2.614 2.615-2.614zm-4.38-2.781h23.829v13.271c-4.75-.829-7.248-7.505-10.23-7.505-3.178 0-7.394 7.505-9.668 7.505-1.932 0-2.116-1.987-3.931-2.886V35.163z" class="E F"/><path d="M104.328 24.505h-31.82c-.356 0-.645.289-.645.645v35.69c0 .356.289.645.645.645h31.82c.357 0 .645-.289.645-.645V25.15c0-.356-.288-.645-.645-.645z" fill="#000" class="H"/><g class="B"><rect x="76.418" y="36.884" width="24" height="3" rx="1.5"/><rect x="75.418" y="43.884" width="26" height="2" rx="1"/><rect x="82.418" y="47.884" width="12" height="2" rx="1"/><rect x="109.623" y="24.183" width="33.755" height="37.625" rx=".968"/></g><rect x="109.623" y="24.183" width="33.755" height="37.625" rx=".968" class="C D"/><use xlink:href="#C" class="E F"/><use xlink:href="#D" fill="#000" class="H"/><g class="B"><rect x="114.5" y="36.884" width="24" height="3" rx="1.5"/><rect x="113.5" y="43.884" width="26" height="2" rx="1"/><rect x="120.5" y="47.884" width="12" height="2" rx="1"/><rect x="147.705" y="24.183" width="33.755" height="37.625" rx=".968"/></g><rect x="147.705" y="24.183" width="33.755" height="37.625" rx=".968" class="C D"/><use xlink:href="#C" x="38.082" class="E F"/><use xlink:href="#D" x="38.082" fill="#000" class="H"/><g class="B"><rect x="152.582" y="36.884" width="24" height="3" rx="1.5"/><rect x="151.582" y="43.884" width="26" height="2" rx="1"/><rect x="158.582" y="47.884" width="12" height="2" rx="1"/></g><path d="M193 164a4 4 0 1 0 8 0 4 4 0 1 0-8 0zm42 0v.75a.75.75 0 0 0 .75-.75H235zm0-54h.75a.75.75 0 0 0-.75-.75v.75zm-49.5 0l7.5 4.33v-8.66l-7.5 4.33zm11.5 54.75h38v-1.5h-38v1.5zm38.75-.75v-54h-1.5v54h1.5zm-.75-54.75h-42.75v1.5H235v-1.5zM58.5 164a4 4 0 1 1-8 0 4 4 0 1 1 8 0zm-41 0v.75a.75.75 0 0 1-.75-.75h.75zm0-118h-.75a.75.75 0 0 1 .75-.75V46zM67 46l-7.5 4.33v-8.66L67 46zM54.5 164.75h-37v-1.5h37v1.5zM16.75 164V46h1.5v118h-1.5zm.75-118.75h42.75v1.5H17.5v-1.5z" fill="#f21197"/><defs ><path id="B" d="M113.293 106.89h26.414c.539 0 .983.441.983.983v18.688c0 .542-.443.983-.983.983h-26.414c-.539 0-.983-.441-.983-.983v-18.688c0-.542.444-.983.983-.983zm5.673 5.054c1.445 0 2.618 1.17 2.618 2.615a2.62 2.62 0 0 1-2.618 2.617c-1.444 0-2.614-1.173-2.614-2.617s1.17-2.615 2.614-2.615zm-4.38-2.781h23.829v13.271c-4.751-.828-7.248-7.505-10.231-7.505-3.177 0-7.394 7.505-9.667 7.505-1.932 0-2.116-1.987-3.931-2.886v-10.385z"/><path id="C" d="M113.293 32.89h26.414c.539 0 .983.441.983.983v18.687c0 .543-.443.983-.983.983h-26.414c-.539 0-.983-.441-.983-.983V33.873c0-.543.444-.983.983-.983zm5.673 5.054c1.445 0 2.618 1.17 2.618 2.614a2.62 2.62 0 0 1-2.618 2.617c-1.444 0-2.614-1.173-2.614-2.617s1.17-2.614 2.614-2.614zm-4.38-2.781h23.829v13.271c-4.751-.829-7.248-7.505-10.231-7.505-3.177 0-7.394 7.505-9.667 7.505-1.932 0-2.116-1.987-3.931-2.886V35.163z"/><path id="D" d="M142.41 24.505h-31.82c-.356 0-.645.289-.645.645v35.69c0 .356.289.645.645.645h31.82c.356 0 .645-.289.645-.645V25.15c0-.356-.289-.645-.645-.645z"/></defs></svg>