<svg xmlns="http://www.w3.org/2000/svg" width="80" height="84" fill="none" xmlns:v="https://vecta.io/nano"><rect x=".85" y=".85" width="78.3" height="82.3" rx="2.15" fill="#fff"/><rect x=".85" y=".85" width="78.3" height="82.3" rx="2.15" stroke="#8796a1" stroke-width="1.7"/><g fill="#58707f"><path fill-rule="evenodd" d="M13.01 9.64h53.98c1.103 0 2.01.901 2.01 2.01v38.191c0 1.109-.906 2.01-2.01 2.01H13.01c-1.103 0-2.01-.901-2.01-2.01V11.65c0-1.109.906-2.01 2.01-2.01zm11.593 10.329a5.35 5.35 0 0 1 5.349 5.343c0 2.952-2.397 5.349-5.349 5.349a5.35 5.35 0 0 1-5.343-5.349c0-2.952 2.392-5.343 5.343-5.343zm-8.951-5.683H64.35v27.122C54.642 39.715 49.537 26.07 43.442 26.07c-6.494 0-15.112 15.338-19.757 15.338-3.948 0-4.324-4.061-8.033-5.898V14.286z"/><rect x="11" y="55.851" width="54" height="3" rx="1.5"/><rect x="11" y="62.851" width="54" height="2.5" rx="1.25"/><rect x="11" y="67.351" width="54" height="2.5" rx="1.25"/><rect x="11" y="71.851" width="20" height="2.5" rx="1.25"/></g></svg>