<svg xmlns="http://www.w3.org/2000/svg" width="80" height="84" fill="none" xmlns:v="https://vecta.io/nano"><rect x=".85" y=".85" width="78.3" height="82.3" rx="2.15" fill="#fff"/><rect x=".85" y=".85" width="78.3" height="82.3" rx="2.15" stroke="#8796a1" stroke-width="1.7"/><rect x="10.5" y="8.05" width="59" height="67.888" rx="1.5" fill="#58707f"/><rect x="10.5" y="8.05" width="59" height="67.888" rx="1.5" stroke="#58707f"/><g fill="#fff"><path fill-rule="evenodd" d="M16.733 12.55h46.535c.951 0 1.733.776 1.733 1.733v32.923c0 .956-.781 1.732-1.733 1.732H16.733c-.951 0-1.733-.776-1.733-1.732V14.283c0-.956.781-1.733 1.733-1.733zm9.994 8.904a4.61 4.61 0 0 1 4.611 4.606c0 2.545-2.067 4.611-4.611 4.611a4.61 4.61 0 0 1-4.606-4.611c0-2.545 2.062-4.606 4.606-4.606zm-7.717-4.899h41.982v23.381c-8.37-1.46-12.77-13.223-18.025-13.223-5.599 0-13.027 13.223-17.032 13.223-3.403 0-3.727-3.501-6.925-5.085V16.555z"/><rect x="16" y="52.938" width="48" height="3" rx="1.5"/><rect x="16" y="59.938" width="48" height="2.5" rx="1.25"/><rect x="16" y="64.438" width="48" height="2.5" rx="1.25"/><rect x="30" y="68.938" width="20" height="2.5" rx="1.25"/></g></svg>