<svg xmlns="http://www.w3.org/2000/svg" width="80" height="84" fill="none" xmlns:v="https://vecta.io/nano"><rect x=".85" y=".85" width="78.3" height="82.3" rx="2.15" fill="#fff"/><rect x=".85" y=".85" width="78.3" height="82.3" rx="2.15" stroke="#8796a1" stroke-width="1.7"/><g fill="#58707f"><rect x="10" y="32.744" width="28" height="3" rx="1.5"/><rect x="6" y="39.744" width="32" height="2.5" rx="1.25"/><rect x="6" y="44.244" width="32" height="2.5" rx="1.25"/><rect x="18" y="48.744" width="20" height="2.5" rx="1.25"/><path fill-rule="evenodd" d="M43.109 30.35h29.782A1.11 1.11 0 0 1 74 31.459V52.53a1.11 1.11 0 0 1-1.109 1.109H43.109A1.11 1.11 0 0 1 42 52.53V31.459a1.11 1.11 0 0 1 1.109-1.109zm6.396 5.699a2.95 2.95 0 0 1 2.951 2.948c0 1.629-1.323 2.951-2.951 2.951a2.95 2.95 0 0 1-2.948-2.951 2.95 2.95 0 0 1 2.948-2.948zm-4.939-3.136h26.868v14.964c-5.357-.934-8.173-8.463-11.536-8.463-3.583 0-8.337 8.463-10.901 8.463-2.178 0-2.385-2.241-4.432-3.254v-11.71z"/></g></svg>