<svg xmlns="http://www.w3.org/2000/svg" xmlns:xlink="http://www.w3.org/1999/xlink" width="94" height="60" fill="none"><style><![CDATA[.B{fill:#718491}.C{stroke:#8796a1}.D{fill-rule:evenodd}.E{stroke-width:.7}.F{fill:#8796a1}]]></style><rect x=".6" y=".6" width="92.8" height="58.8" rx="2.4" fill="#fff"/><rect x=".6" y=".6" width="92.8" height="58.8" rx="2.4" stroke-width="1.2" class="C"/><g clip-path="url(#A)"><rect x="-10.55" y="23.785" width="32" height="24.332" rx="1.601" class="C E"/><g class="B"><path d="M5.45 25.785a4 4 0 1 0 0 8 4 4 0 1 0 0-8zm-2.667 6.738a3.81 3.81 0 0 0 2.667 1.084 3.81 3.81 0 0 0 2.667-1.084v-.033a1.35 1.35 0 0 0-.391-.95 1.33 1.33 0 0 0-.943-.393H4.117a1.33 1.33 0 0 0-.943.393 1.35 1.35 0 0 0-.391.95v.033zm4-3.351a1.34 1.34 0 0 1-1.333 1.343 1.34 1.34 0 1 1 0-2.686 1.34 1.34 0 0 1 1.333 1.343z" class="D"/><use xlink:href="#B"/></g><path d="M-8.55 40.035a.75.75 0 0 1 .75-.75h26.5a.75.75 0 1 1 0 1.5H-7.8a.75.75 0 0 1-.75-.75z" class="F"/><g class="B"><use xlink:href="#C"/><path d="M1.748 42.785l.555 1.111 1.111.139-.763.855.207 1.227-1.111-.555-1.111.555.209-1.227-.764-.855 1.111-.139.555-1.111zm3.702 0l.555 1.111 1.111.139-.763.855.207 1.227-1.111-.555-1.111.555.209-1.227-.764-.855 1.111-.139.555-1.111zm3.702 0l.555 1.111 1.111.139-.763.855.207 1.227-1.111-.555-1.111.555.209-1.227-.764-.855 1.111-.139.555-1.111zm3.702 0l.555 1.111 1.111.139-.763.855.207 1.227-1.11-.555-1.111.555.209-1.227-.764-.855 1.111-.139.555-1.111z"/></g><rect x="26.45" y="23.785" width="32" height="24.332" rx="1.601" class="C E"/><g class="B"><path d="M42.45 25.785a4 4 0 1 0 0 8 4 4 0 1 0 0-8zm-2.667 6.738a3.81 3.81 0 0 0 5.333 0v-.033a1.35 1.35 0 0 0-.39-.95 1.33 1.33 0 0 0-.943-.393h-2.667a1.33 1.33 0 0 0-.943.393 1.35 1.35 0 0 0-.391.95v.033zm4-3.351a1.34 1.34 0 0 1-1.333 1.343 1.34 1.34 0 1 1 0-2.686 1.34 1.34 0 0 1 1.333 1.343z" class="D"/><path d="M32.45 36.785a1 1 0 0 1 1-1h18a1 1 0 1 1 0 2h-18a1 1 0 0 1-1-1z"/></g><path d="M28.45 40.035a.75.75 0 0 1 .75-.75h26.5a.75.75 0 1 1 0 1.5H29.2a.75.75 0 0 1-.75-.75z" class="F"/><g class="B"><path d="M35.046 42.785l.555 1.111 1.111.139-.763.855.207 1.227-1.111-.555-1.111.555.209-1.227-.764-.855 1.111-.139.555-1.111zm3.702 0l.555 1.111 1.111.139-.763.855.207 1.227-1.111-.555-1.111.555.209-1.227-.764-.855 1.111-.139.555-1.111zm3.702 0l.555 1.111 1.11.139-.763.855.207 1.227-1.111-.555-1.111.555.209-1.227-.764-.855 1.11-.139.555-1.111zm3.702 0l.555 1.111 1.111.139-.763.855.207 1.227-1.111-.555-1.11.555.209-1.227-.764-.855 1.111-.139.555-1.111zm3.702 0l.555 1.111 1.111.139-.763.855.207 1.227-1.111-.555-1.111.555.209-1.227-.764-.855 1.111-.139.555-1.111z"/></g><rect x="63.45" y="23.785" width="32" height="24.332" rx="1.601" class="C E"/><g class="B"><path d="M79.45 25.785a4 4 0 1 0 0 8 4 4 0 1 0 0-8zm-2.667 6.738a3.81 3.81 0 0 0 5.333 0v-.033a1.35 1.35 0 0 0-.391-.95 1.33 1.33 0 0 0-.943-.393h-2.667a1.33 1.33 0 0 0-.943.393 1.35 1.35 0 0 0-.391.95v.033zm4-3.351a1.34 1.34 0 0 1-1.333 1.343 1.34 1.34 0 1 1 0-2.686 1.34 1.34 0 0 1 1.333 1.343z" class="D"/><path d="M69.45 36.785a1 1 0 0 1 1-1h18a1 1 0 1 1 0 2h-18a1 1 0 0 1-1-1z"/></g><path d="M65.45 40.035a.75.75 0 0 1 .75-.75h26.5a.75.75 0 1 1 0 1.5H66.2a.75.75 0 0 1-.75-.75z" class="F"/><g class="B"><path d="M72.046 42.785l.555 1.111 1.111.139-.763.855.207 1.227-1.111-.555-1.111.555.209-1.227-.764-.855 1.111-.139.555-1.111zm3.702 0l.555 1.111 1.111.139-.763.855.207 1.227-1.111-.555-1.111.555.209-1.227-.764-.855 1.111-.139.555-1.111zm3.702 0l.555 1.111 1.111.139-.763.855.207 1.227-1.111-.555-1.111.555.209-1.227-.764-.855 1.111-.139.555-1.111zm3.702 0l.555 1.111 1.111.139-.763.855.207 1.227-1.111-.555-1.111.555.209-1.227-.764-.855 1.111-.139.555-1.111zm3.702 0l.555 1.111 1.111.139-.763.855.207 1.227-1.111-.555-1.111.555.209-1.227-.764-.855 1.111-.139.555-1.111z"/></g></g><path d="M61.875 12.5a.5.5 0 0 1 .5-.5h.5a.5.5 0 0 1 .5.5v.5a.5.5 0 0 1-.5.5h-.5a.5.5 0 0 1-.5-.5v-.5zm-3.5 0a.5.5 0 0 1 .5-.5h1.5a.5.5 0 0 1 .5.5v.5a.5.5 0 0 1-.5.5h-1.5a.5.5 0 0 1-.5-.5v-.5zm-4.5 0a.5.5 0 0 1 .5-.5h2.5a.5.5 0 0 1 .5.5v.5a.5.5 0 0 1-.5.5h-2.5a.5.5 0 0 1-.5-.5v-.5z" class="B D"/><path d="M36.405 9.28a.75.75 0 0 0-1.061-1.061l-4 4a.75.75 0 0 0 0 1.061l4 4a.75.75 0 0 0 1.061-1.061l-2.72-2.72h18.189.75a.5.5 0 0 0 .5-.5v-.5a.5.5 0 0 0-.5-.5h-1-17.939l2.72-2.72z" class="B"/><defs><clipPath id="A"><path fill="#fff" transform="translate(13 23)" d="M0 0h68v26H0z"/></clipPath><path id="B" d="M-4.55 36.785a1 1 0 0 1 1-1h18a1 1 0 1 1 0 2h-18a1 1 0 0 1-1-1z"/><path id="C" d="M-1.954 42.785l.555 1.111 1.111.139-.763.855.207 1.227-1.111-.555-1.111.555.209-1.227-.764-.855 1.111-.139.555-1.111z"/></defs></svg>