<svg xmlns="http://www.w3.org/2000/svg" xmlns:xlink="http://www.w3.org/1999/xlink" width="94" height="60" fill="none"><style><![CDATA[.B{fill:#718491}.C{fill:#fff}.D{stroke:#718491}.E{stroke-width:.7}.F{fill-rule:evenodd}]]></style><rect x=".6" y=".6" width="92.8" height="58.8" rx="2.4" class="C"/><rect x=".6" y=".6" width="92.8" height="58.8" rx="2.4" stroke="#8796a1" stroke-width="1.2"/><rect x="37.5" y="44" width="4" height="4" rx="2" fill="#9ea9b2"/><rect x="44.5" y="44" width="4" height="4" rx="2" class="B"/><rect x="51.5" y="44" width="4" height="4" rx="2" fill="#9ea9b2"/><rect x="13.85" y="17.46" width="19.662" height="21.066" rx="1.054" class="C D E"/><g class="B"><rect x="18.766" y="25.536" width="9.83" height="1.404" rx=".702"/><rect x="15.606" y="28.345" width="16.149" height="1.404" rx=".702"/><rect x="18.766" y="31.153" width="9.83" height="1.404" rx=".702"/></g><g clip-path="url(#A)" class="B"><use xlink:href="#P"/></g><g clip-path="url(#B)" class="B"><path d="M20.872 34.102l.421.843.843.105-.579.649.157.931-.843-.421-.843.421.159-.931-.58-.649.843-.105.421-.843z"/></g><g clip-path="url(#C)" class="B"><path d="M23.681 34.102l.421.843.843.105-.579.649.157.931-.843-.421-.843.421.159-.931-.58-.649.843-.105.421-.843z"/></g><g clip-path="url(#D)" class="B"><use xlink:href="#Q"/></g><g clip-path="url(#E)" class="B"><use xlink:href="#R"/></g><path d="M23.681 19.217c-1.163 0-2.106.943-2.106 2.106s.943 2.106 2.106 2.106 2.106-.943 2.106-2.106-.943-2.106-2.106-2.106zm-1.404 3.548c.363.353.858.571 1.404.571s1.042-.217 1.404-.571v-.017a.71.71 0 0 0-.206-.5.7.7 0 0 0-.497-.207h-1.404a.7.7 0 0 0-.496.207.71.71 0 0 0-.206.5v.017zM24.383 21c0 .391-.314.707-.702.707s-.702-.317-.702-.707.314-.707.702-.707.702.317.702.707z" class="B F"/><rect x="36.669" y="17.46" width="19.662" height="21.066" rx="1.054" class="C D E"/><g class="B"><rect x="41.585" y="25.536" width="9.83" height="1.404" rx=".702"/><rect x="38.426" y="28.345" width="16.149" height="1.404" rx=".702"/><rect x="41.585" y="31.153" width="9.83" height="1.404" rx=".702"/></g><g clip-path="url(#F)" class="B"><path d="M40.883 34.102l.421.843.843.105-.579.649.157.931-.842-.421-.843.421.159-.931-.58-.649.843-.105.421-.843z"/></g><g clip-path="url(#G)" class="B"><path d="M43.691 34.102l.421.843.843.105-.579.649.157.931-.843-.421-.843.421.159-.931-.58-.649.843-.105.421-.843z"/></g><g clip-path="url(#H)" class="B"><path d="M46.5 34.102l.421.843.843.105-.579.649.157.931-.843-.421-.843.421.159-.931-.58-.649.843-.105.421-.843z"/></g><g clip-path="url(#I)" class="B"><path d="M49.309 34.102l.421.843.843.105-.578.649.157.931-.843-.421-.843.421.159-.931-.58-.649.843-.105.421-.843z"/></g><g clip-path="url(#J)" class="B"><path d="M52.117 34.102l.421.843.843.105-.578.649.157.931-.843-.421-.843.421.159-.931-.58-.649.843-.105.421-.843z"/></g><path d="M46.5 19.217c-1.163 0-2.106.943-2.106 2.106s.943 2.106 2.106 2.106 2.106-.943 2.106-2.106-.943-2.106-2.106-2.106zm-1.404 3.548c.363.353.858.571 1.404.571s1.042-.217 1.404-.571v-.017a.71.71 0 0 0-.206-.5.7.7 0 0 0-.497-.207h-1.404a.7.7 0 0 0-.496.207.71.71 0 0 0-.206.5v.017zM47.202 21c0 .391-.314.707-.702.707s-.702-.317-.702-.707.314-.707.702-.707.702.317.702.707z" class="B F"/><rect x="59.488" y="17.46" width="19.662" height="21.066" rx="1.054" class="C D E"/><g class="B"><rect x="64.404" y="25.536" width="9.83" height="1.404" rx=".702"/><rect x="61.245" y="28.345" width="16.149" height="1.404" rx=".702"/><rect x="64.404" y="31.153" width="9.83" height="1.404" rx=".702"/></g><g clip-path="url(#K)" class="B"><path d="M63.702 34.102l.421.843.842.105-.578.649.157.931-.843-.421-.843.421.159-.931-.58-.649.843-.105.421-.843z"/></g><g clip-path="url(#L)" class="B"><path d="M66.511 34.102l.421.843.843.105-.579.649.157.931-.843-.421-.843.421.159-.931-.58-.649.843-.105.421-.843z"/></g><g clip-path="url(#M)" class="B"><path d="M69.319 34.102l.421.843.843.105-.579.649.157.931-.843-.421-.843.421.159-.931-.58-.649.843-.105.421-.843z"/></g><g clip-path="url(#N)" class="B"><path d="M72.128 34.102l.421.843.843.105-.579.649.157.931-.843-.421-.843.421.159-.931-.58-.649.843-.105.421-.843z"/></g><g clip-path="url(#O)" class="B"><path d="M74.936 34.102l.421.843.843.105-.579.649.157.931-.843-.421-.843.421.159-.931-.58-.649.843-.105.421-.843z"/></g><path d="M69.319 19.217c-1.163 0-2.106.943-2.106 2.106s.943 2.106 2.106 2.106 2.106-.943 2.106-2.106-.943-2.106-2.106-2.106zm-1.404 3.548c.363.353.858.571 1.404.571s1.042-.217 1.404-.571v-.017a.71.71 0 0 0-.206-.5.7.7 0 0 0-.496-.207h-1.404a.7.7 0 0 0-.496.207.71.71 0 0 0-.206.5v.017zM70.021 21c0 .391-.314.707-.702.707s-.702-.317-.702-.707.314-.707.702-.707.702.317.702.707z" class="B F"/><path d="M83 32l4-4-4-4m-73 0l-4 4 4 4" stroke-width="1.8" stroke-linecap="round" stroke-linejoin="round" class="D"/><defs><clipPath id="A"><path transform="translate(16.66 33.961)" d="M0 0h2.809v2.809H0z" class="C"/></clipPath><clipPath id="B"><path transform="translate(19.468 33.961)" d="M0 0h2.809v2.809H0z" class="C"/></clipPath><clipPath id="C"><path transform="translate(22.277 33.961)" d="M0 0h2.809v2.809H0z" class="C"/></clipPath><clipPath id="D"><path transform="translate(25.085 33.961)" d="M0 0h2.809v2.809H0z" class="C"/></clipPath><clipPath id="E"><path transform="translate(27.894 33.961)" d="M0 0h2.809v2.809H0z" class="C"/></clipPath><clipPath id="F"><path transform="translate(39.479 33.961)" d="M0 0h2.809v2.809H0z" class="C"/></clipPath><clipPath id="G"><path transform="translate(42.287 33.961)" d="M0 0h2.809v2.809H0z" class="C"/></clipPath><clipPath id="H"><path transform="translate(45.096 33.961)" d="M0 0h2.809v2.809H0z" class="C"/></clipPath><clipPath id="I"><path transform="translate(47.904 33.961)" d="M0 0h2.809v2.809H0z" class="C"/></clipPath><clipPath id="J"><path transform="translate(50.713 33.961)" d="M0 0h2.809v2.809H0z" class="C"/></clipPath><clipPath id="K"><path transform="translate(62.298 33.961)" d="M0 0h2.809v2.809H0z" class="C"/></clipPath><clipPath id="L"><path transform="translate(65.106 33.961)" d="M0 0h2.809v2.809H0z" class="C"/></clipPath><clipPath id="M"><path transform="translate(67.915 33.961)" d="M0 0h2.809v2.809H0z" class="C"/></clipPath><clipPath id="N"><path transform="translate(70.724 33.961)" d="M0 0h2.809v2.809H0z" class="C"/></clipPath><clipPath id="O"><path transform="translate(73.532 33.961)" d="M0 0h2.809v2.809H0z" class="C"/></clipPath><path id="P" d="M18.064 34.102l.421.843.843.105-.579.649.157.931-.843-.421-.843.421.159-.931-.58-.649.843-.105.421-.843z"/><path id="Q" d="M26.489 34.102l.421.843.843.105-.578.649.157.931-.843-.421-.843.421.159-.931-.58-.649.843-.105.421-.843z"/><path id="R" d="M29.298 34.102l.421.843.842.105-.578.649.157.931-.843-.421-.843.421.159-.931-.58-.649.843-.105.421-.843z"/></defs></svg>