<svg xmlns="http://www.w3.org/2000/svg" xmlns:xlink="http://www.w3.org/1999/xlink" width="200" height="125" fill="none"><rect x=".75" y=".75" width="198.5" height="123.5" rx="7.583" fill="#fff"/><rect x=".75" y=".75" width="198.5" height="123.5" rx="7.583" stroke="#8796a1" stroke-width="1.5"/><rect x="133.5" y="21.5" width="19" height="19" rx="1.5" fill="#546069" stroke="#546069"/><path d="M147 26l-5 5 5 5-1 2-7-7 7-7 1 2z" fill="#fff"/><rect x="159.5" y="21.5" width="19" height="19" rx="1.5" fill="#546069" stroke="#546069"/><path d="M165 36l5-5-5-5 1-2 7 7-7 7-1-2z" fill="#fff"/><g clip-path="url(#A)"><rect x="22" y="49" width="74" height="54" rx="2" stroke="#8796a1" stroke-width="2"/><g fill="#718491"><path fill-rule="evenodd" d="M59 53a9.08 9.08 0 0 0-9.077 9.077A9.08 9.08 0 0 0 59 71.154a9.08 9.08 0 0 0 9.077-9.077A9.08 9.08 0 0 0 59 53zm-6.051 15.291c1.563 1.522 3.697 2.46 6.051 2.46s4.489-.938 6.051-2.46v-.074a3.06 3.06 0 0 0-.886-2.155c-.568-.572-1.337-.893-2.14-.893h-6.051c-.802 0-1.572.321-2.139.893a3.06 3.06 0 0 0-.886 2.155v.074zm9.077-7.605c0 1.683-1.355 3.048-3.026 3.048s-3.026-1.365-3.026-3.048 1.355-3.048 3.026-3.048 3.026 1.365 3.026 3.048z"/><rect x="36.308" y="75.154" width="45.385" height="4.538" rx="2.269"/><rect x="26" y="83.097" width="66" height="3.404" rx="1.702"/><use xlink:href="#B"/><path d="M50.6 90.5l1.26 2.52 2.52.315-1.73 1.941.471 2.785-2.52-1.26-2.52 1.26.475-2.785-1.735-1.94 2.52-.315 1.26-2.52zm9.66 2.52L59 90.5l-1.26 2.52-2.52.315 1.735 1.941-.475 2.785L59 96.8l2.52 1.26-.47-2.785 1.731-1.94-2.52-.315zm7.141-2.52l1.26 2.52 2.52.315-1.73 1.941.47 2.785-2.52-1.26-2.52 1.26.475-2.785-1.735-1.94 2.52-.315 1.26-2.52zm9.66 2.52l-1.26-2.52-1.26 2.52-2.52.315 1.735 1.941-.475 2.785 2.52-1.26 2.52 1.26-.47-2.785 1.73-1.94-2.52-.315z"/></g><rect x="104" y="49" width="74" height="54" rx="2" stroke="#8796a1" stroke-width="2"/><g fill="#718491"><path fill-rule="evenodd" d="M141 53a9.08 9.08 0 0 0-9.077 9.077A9.08 9.08 0 0 0 141 71.154a9.08 9.08 0 0 0 9.077-9.077A9.08 9.08 0 0 0 141 53zm-6.052 15.291c1.563 1.522 3.698 2.46 6.052 2.46s4.488-.938 6.051-2.46v-.074a3.06 3.06 0 0 0-.886-2.155c-.568-.572-1.337-.893-2.14-.893h-6.051c-.802 0-1.572.321-2.139.893a3.06 3.06 0 0 0-.887 2.155v.074zm9.077-7.605c0 1.683-1.354 3.048-3.025 3.048s-3.026-1.365-3.026-3.048 1.355-3.048 3.026-3.048 3.025 1.365 3.025 3.048z"/><rect x="118.308" y="75.154" width="45.385" height="4.538" rx="2.269"/><rect x="108" y="83.097" width="66" height="3.404" rx="1.702"/><path d="M124.2 90.5l1.26 2.52 2.52.315-1.731 1.941.471 2.785-2.52-1.26-2.521 1.26.475-2.785-1.735-1.94 2.521-.315 1.26-2.52zm8.4 0l1.26 2.52 2.52.315-1.73 1.941.47 2.785-2.52-1.26-2.52 1.26.474-2.785-1.734-1.94 2.52-.315 1.26-2.52zm9.66 2.52L141 90.5l-1.26 2.52-2.52.315 1.735 1.941-.475 2.785L141 96.8l2.52 1.26-.47-2.785 1.73-1.94-2.52-.315zm7.141-2.52l1.26 2.52 2.52.315-1.731 1.941.471 2.785-2.52-1.26-2.52 1.26.474-2.785-1.734-1.94 2.52-.315 1.26-2.52zm9.66 2.52l-1.26-2.52-1.26 2.52-2.52.315 1.734 1.941-.474 2.785 2.52-1.26 2.52 1.26-.471-2.785 1.731-1.94-2.52-.315z"/></g></g><defs><clipPath id="A"><path fill="#fff" transform="translate(21 48)" d="M0 0h158v56H0z"/></clipPath><path id="B" d="M42.2 90.5l1.26 2.52 2.52.315-1.73 1.941.471 2.785-2.52-1.26-2.52 1.26.475-2.785-1.735-1.94 2.52-.315 1.26-2.52z"/></defs></svg>