<svg xmlns="http://www.w3.org/2000/svg" width="80" height="84" fill="none" xmlns:v="https://vecta.io/nano"><rect x=".85" y=".85" width="78.3" height="82.3" rx="2.15" fill="#fff"/><rect x=".85" y=".85" width="78.3" height="82.3" rx="2.15" stroke="#8796a1" stroke-width="1.7"/><path fill-rule="evenodd" d="M6.495 16h67.01C74.875 16 76 17.109 76 18.476v47.048C76 66.891 74.875 68 73.505 68H6.495C5.125 68 4 66.891 4 65.524V18.476C4 17.109 5.125 16 6.495 16zm14.392 12.724c3.664 0 6.64 2.946 6.64 6.583s-2.976 6.59-6.64 6.59-6.633-2.953-6.633-6.59 2.969-6.583 6.633-6.583zM9.774 21.723h60.454v33.413C58.176 53.05 51.839 36.24 44.273 36.24c-8.062 0-18.759 18.896-24.526 18.896-4.901 0-5.367-5.003-9.972-7.266V21.723z" fill="#58707f"/><path d="M65 25H15a2 2 0 0 0-2 2v30a2 2 0 0 0 2 2h50a2 2 0 0 0 2-2V27a2 2 0 0 0-2-2z" fill="#000" fill-opacity=".8"/><g fill="#fff"><rect x="24" y="32" width="32" height="4" rx="2"/><rect x="20" y="40.5" width="40" height="2.5" rx="1.25"/><rect x="20" y="45" width="40" height="2.5" rx="1.25"/><rect x="30" y="49.5" width="20" height="2.5" rx="1.25"/></g></svg>