<svg xmlns="http://www.w3.org/2000/svg" viewBox="0 0 50 50"><path d="M46.2 0H3.7c-.8.1-1.5.4-2.1.8-.9.8-1.5 1.8-1.6 3V46.3c.1 2.1 1.9 3.8 4 3.8h41.9c1.5 0 2.8-.8 3.5-2.1.3-.6.5-1.3.5-1.9V4c.1-2.1-1.6-3.9-3.7-4zM14.8 41.9c0 .6-.1.7-.7.7h-6c-.6 0-.7-.2-.7-.7V19.6c0-.6.1-.8.8-.8h6c.5 0 .7.1.7.7-.1 7.5-.1 14.9-.1 22.4zm-3.7-26.3c-2.4 0-4.3-1.9-4.3-4.3C6.8 9 8.7 7 11.1 7s4.3 1.9 4.3 4.3c-.1 2.4-2 4.3-4.3 4.3zm30.6 27H36c-.6 0-.9-.1-.9-.8V30.7c0-1-.1-2.1-.3-3.1-.2-1.5-1.4-2.7-2.9-2.8-1.8-.4-3.6.4-4.4 2-.4.9-.7 2-.7 3v11.9c0 .8-.2 1-1 .9-1.9-.1-3.8 0-5.7 0-.5 0-.7-.2-.7-.7V19.5c0-.5.1-.7.6-.7h5.8c.5 0 .6.2.6.6v2.5c1.1-1.5 2.6-2.7 4.4-3.3 2.4-.7 5.1-.5 7.4.6 2 1.1 3.4 3 3.7 5.3.3 1.5.5 3.1.5 4.7v12.6c.1.7-.1.8-.7.8z"/></svg>