<svg xmlns="http://www.w3.org/2000/svg" viewBox="0 0 50 50"><path d="M49.9 23.4c-.4-8.2-4.9-16-12.4-20.3-1.7-.9-3.5-1.7-5.3-2.2-8.7-2.4-19.4 0-25.7 6.7C-.5 15-2 26.8 2.8 35.7c1.1 2.1 2.5 4.1 4.3 5.7 1 1 1.4 1.6 1.5 3 0 1.4-.4 4 .8 5.1 1.2 1.2 3.3 0 4.6-.6 2.2-1.1 3.5-1.4 5.9-.9 2.7.5 5.4.6 8.2.3 7.7-.8 15-5.3 18.9-12.4 2.2-3.9 3.1-8.2 2.9-12.5zm-18.3-1.3zm-.4.3zm0 0zm0 0c0-.1 0-.1 0 0 0-.1 0-.1 0 0zm3.7 4.3zm.1 0v-.1.1zm.3-.6zm.1 0s0-.1 0 0c0-.1 0 0 0 0zm-1.7 2.5c-.5.9-1 1.9-1.8 2.5-1.3 1.2-3.3 1.2-4.7.1-1.9-1.4-3.8-2.8-5.7-4.3-.6-.4-1.4-.5-2 0-2.6 2-5.2 3.9-7.8 5.9-1 .8-2.4-.5-1.7-1.6 2.1-3.3 4.2-6.7 6.3-10 .3-.5.7-1 1-1.6.7-1.1 1.9-1.9 3.2-1.8.8 0 1.6.3 2.3.8 1.8 1.1 3.5 2.7 5.3 4l.9.6c1.1.4 2.3-.9 3.1-1.5 1.4-1.1 2.8-2.1 4.2-3.2.7-.5 1.3-1 2-1.5.4-.3 1-.4 1.6.1.5.4.5 1 .2 1.5l-6.4 10z"/></svg>