<svg xmlns="http://www.w3.org/2000/svg" viewBox="0 0 50 50"><path d="M13.541 47.145c-12.3-6.4-17-21.4-10.7-33.7 6.4-12.3 21.4-17 33.7-10.7 12.3 6.4 17 21.4 10.7 33.7-6.4 12.3-21.4 17.1-33.7 10.7h.1c2.3-1.9 4.1-4.4 5-7.2.8-2.4 1.5-4.8 1.8-7.3v-.2c.1-.4.2-.4.5-.2.1 0 .1.1.2.1 1.2 1.2 2.8 2 4.5 2.2 2.6.5 5.4.2 7.8-1 1.8-1 3.4-2.3 4.7-3.8 2.1-2.5 3.3-5.7 3.6-9 .2-1.7.2-3.5 0-5.2-.5-3.9-2.7-7.4-6-9.5-2.5-1.7-5.4-2.8-8.4-3.1-3.8-.6-7.7-.2-11.3 1.2-4.2 1.5-7.5 4.6-9.4 8.6-1.6 3.2-1.7 7-.3 10.3 1.1 2.6 3.4 4.6 6.1 5.2.3.1.4 0 .4-.3.2-1.1.4-2.2.6-3.2 0-.2 0-.4-.2-.5-.8-.8-1.4-1.7-1.9-2.8-.7-1.8-.7-3.8.1-5.6 1.3-3.9 4.4-6.9 8.2-8.1 2.5-.9 5.1-1.1 7.7-.7 3 .5 5.6 2.5 6.7 5.4 2.1 4.8 1.4 10.3-1.7 14.5-1 1.5-2.6 2.6-4.3 3.1-1.5.4-3.1.1-4.4-.8-.8-.6-1.2-1.5-1.2-2.4 0-1.4.3-2.7.8-3.9.5-1.5 1.1-2.9 1.5-4.4.3-1 .4-2.1.4-3.2-.2-2-1.9-3.4-3.9-3.2-.2 0-.4.1-.6.1-2 .5-3.6 1.9-4.1 3.9-.7 1.7-.8 3.6-.2 5.4.5 1.7.5 3.4-.1 5.1-.9 3.1-1.9 6.3-2.6 9.5-.6 2.6-.8 5.2-.7 7.8 0 1.1.2 2.2.6 3.2z"/></svg>