<svg xmlns="http://www.w3.org/2000/svg" viewBox="0 0 50 50"><path d="M47.4 26.2c1.8-2.4 1.9-5.7.2-8.1-2.3-3.2-6.8-3.8-9.9-1.2-.2.1-.3.2-.4.1-3.2-1.5-6.6-2.3-10.1-2.6-.2 0-.3-.1-.2-.3.3-1 .7-1.9 1.1-2.9.9-2.1 1.9-4.1 3.2-5.9.6-.8 1.3-1.5 2.1-2 .9-.5 1.7-.5 2.6 0 .5.3.9.6 1.3 1 .2.2.2.3.2.6-.4 2.3 1.2 4.4 3.4 4.7 2.4.3 4.5-1.5 4.5-3.9.1-3-3-5-5.7-3.7-.2.1-.4.1-.5-.1-.4-.4-.8-.7-1.2-.9-2.1-1.4-4.4-1.4-6.5-.1C30.1 2 29 3.3 28.1 4.7c-1.9 2.9-3.2 6.1-4.3 9.4-.1.3-.2.4-.5.4-3.7.2-7.2 1-10.6 2.6-.2.1-.3.1-.5-.1-2.4-2-5.9-2.2-8.4-.4-3.2 2.3-3.7 6.7-1.3 9.8.2.2.2.3.1.5-.5 1.3-.9 2.6-1 3.9-.2 3.3.6 6.4 2.4 9.2 1.9 2.9 4.5 5.1 7.5 6.8C15.8 49 20.3 50 24.8 50c4.7 0 9-.9 13-2.9 3-1.5 5.7-3.5 7.6-6.2 3.2-4.4 4-9.1 1.9-14.2 0-.2 0-.3.1-.5zm-13.8 5.7c-2.1 0-3.8-1.7-3.8-3.8 0-2.1 1.7-3.8 3.8-3.8 2.1 0 3.8 1.7 3.8 3.8 0 2.1-1.7 3.8-3.8 3.8zm.4 8.4c-2.7 2.1-5.6 3.3-9.4 3.4-3.1-.1-6.1-1.2-8.9-3.3-.7-.5-.9-1.5-.3-2.2.5-.7 1.5-.8 2.2-.2 2.4 1.9 5.1 2.8 8.2 2.6 2.1-.2 3.9-1 5.6-2.1.3-.2.5-.4.8-.6.7-.5 1.6-.3 2.1.3.4.7.3 1.6-.3 2.1zm-17.4-16c2.1 0 3.8 1.7 3.8 3.8s-1.7 3.8-3.8 3.8c-2.1 0-3.8-1.7-3.8-3.8-.1-2.1 1.6-3.8 3.8-3.8zm-13 .8c-1.2-1.6-1.6-4.7.7-6.9 2.2-2 5.3-1.4 6.7-.2-3 1.7-5.6 4-7.4 7.1zm42.8-.3c-1.7-2.9-4.2-5-7.1-6.7-.1-.1-.2-.1-.3-.2.8-.5 1.6-.9 2.5-1 2.1-.2 3.8.5 5 2.3 1.1 1.8 1.1 3.6.1 5.5 0 .1-.1.4-.2.1z"/></svg>