<svg xmlns="http://www.w3.org/2000/svg" viewBox="0 0 100 100"><path d="M98 62a4 4 0 0 1-1-3c3-16-1-30-13-42A46 46 0 0 0 57 4a46 46 0 0 0-13 0 4 4 0 0 1-3 0 28 28 0 0 0-37 9 27 27 0 0 0-1 27 2 2 0 0 1 1 2c-4 22 7 43 27 51a49 49 0 0 0 27 3 3 3 0 0 1 2 1 28 28 0 0 0 15 3 25 25 0 0 0 11-3 28 28 0 0 0 14-20 26 26 0 0 0-2-15Zm-23 2c-1 6-5 10-11 12a35 35 0 0 1-25 0 18 18 0 0 1-10-10 11 11 0 0 1-1-3 5 5 0 0 1 3-5 5 5 0 0 1 6 1 8 8 0 0 1 2 2l1 4a10 10 0 0 0 9 5c3 0 7 0 11-2 3-2 4-5 3-8a7 7 0 0 0-4-4 37 37 0 0 0-8-2l-14-5c-6-3-9-9-7-15a13 13 0 0 1 6-8 26 26 0 0 1 12-4h3l15 3c3 2 5 4 6 8a5 5 0 0 1-1 6 5 5 0 0 1-8-1l-3-4a9 9 0 0 0-6-4l-10 1a6 6 0 0 0-4 4c0 2 1 4 3 5 2 2 5 3 8 3a124 124 0 0 1 12 4 20 20 0 0 1 9 4c3 4 4 8 3 13Z"/></svg>