<svg xmlns="http://www.w3.org/2000/svg" width="36" height="71" fill="none" xmlns:v="https://vecta.io/nano"><g clip-path="url(#A)"><path d="M18 25.1c3.3-1.4 5.7-3.8 7-6.2s1.5-4.8.3-6.2c-1-1.3-2.4-1.8-3.7-1.7-1.4 0-2.7.6-3.6 1.5-1-.8-2.3-1.4-3.6-1.5s-2.7.4-3.7 1.7c-1.1 1.4-1 3.8.3 6.2s3.7 4.8 7 6.2z" fill="#7d868a"/><path d="M18 60.6c3.3-1.4 5.7-3.8 7-6.2s1.5-4.8.3-6.2c-1-1.3-2.4-1.8-3.7-1.7-1.4 0-2.7.6-3.6 1.5-1-.8-2.3-1.4-3.6-1.5-1.4 0-2.7.5-3.7 1.7-1.1 1.4-1 3.8.3 6.2s3.7 4.8 7 6.2z" fill="#ffb900"/><path d="M35 0H1C0.5 0 0 0.5 0 1V70C0 70.5 0.5 71 1 71H35C35.5 71 36 70.5 36 70V1C36 0.5 35.5 0 35 0ZM35 70H1V36H35V70ZM35 35H1V1H35V35Z" fill="#bbc2c7"/></g><defs><clipPath id="A"><path fill="#fff" d="M0 0h36v71H0z"/></clipPath></defs></svg>