<svg xmlns="http://www.w3.org/2000/svg" width="36" height="71" fill="none" xmlns:v="https://vecta.io/nano"><g clip-path="url(#A)"><path fill-rule="evenodd" d="M18.5 10c-4.4 0-8 3.6-8 8s3.6 8 8 8 8-3.6 8-8-3.6-8-8-8zm0 14.5A6.49 6.49 0 0 1 12 18a6.49 6.49 0 0 1 6.5-6.5A6.49 6.49 0 0 1 25 18a6.49 6.49 0 0 1-6.5 6.5z" fill="#7d868a"/><path d="M18 61.5a8 8 0 1 0 0-16 8 8 0 1 0 0 16z" fill="#ffb900"/><path d="M35 0H1C0.5 0 0 0.5 0 1V70C0 70.5 0.5 71 1 71H35C35.5 71 36 70.5 36 70V1C36 0.5 35.5 0 35 0ZM35 70H1V36H35V70ZM35 35H1V1H35V35Z" fill="#bbc2c7"/></g><defs><clipPath id="A"><path fill="#fff" d="M0 0h36v71H0z"/></clipPath></defs></svg>