<svg xmlns="http://www.w3.org/2000/svg" width="36" height="71" fill="none" xmlns:v="https://vecta.io/nano"><g clip-path="url(#A)"><path d="M13 26V11h-2v15h2zm1-6v-8c3-1 7 1 11 0v8c-3 1.3-8-1-11 0z" fill="#7d868a"/><path d="M13 61.5v-15h-2v15h2zm1-6v-8c3-1 7 1 11 0v8c-3 1.3-8-1-11 0z" fill="#ffb900"/><path d="M35 0H1C0.5 0 0 0.5 0 1V70C0 70.5 0.5 71 1 71H35C35.5 71 36 70.5 36 70V1C36 0.5 35.5 0 35 0ZM35 70H1V36H35V70ZM35 35H1V1H35V35Z" fill="#bbc2c7"/></g><defs><clipPath id="A"><path fill="#fff" d="M0 0h36v71H0z"/></clipPath></defs></svg>