<svg xmlns="http://www.w3.org/2000/svg" width="36" height="71" fill="none" xmlns:v="https://vecta.io/nano"><g clip-path="url(#A)"><path d="M20.7 10h.4c.6.2.8.8.7 1.4-.2.6-1 3-1 3.6s.8 1 1.3 1h3a.94.94 0 0 1 1 1c0 .6-2 7-2 7-.2.4-.5 1-1 1H14v-9h2.1c.4-.4 3.3-4.7 3.6-5.3.2-.4.6-.7 1-.7zM10 16h2v9h-2v-9z" fill="#7d868a"/><path d="M20.7 45.5h.4c.6.2.8.8.7 1.3-.2.6-1 3-1 3.6s.8 1 1.3 1h3a.94.94 0 0 1 1 1c0 .6-2 7-2 7-.2.4-.5 1-1 1H14v-9h2.1c.4-.4 3.3-4.7 3.6-5.3.2-.4.6-.7 1-.7v.1zm-10.7 6h2v9h-2v-9z" fill="#ffb900"/><path d="M35 0H1C0.5 0 0 0.5 0 1V70C0 70.5 0.5 71 1 71H35C35.5 71 36 70.5 36 70V1C36 0.5 35.5 0 35 0ZM35 70H1V36H35V70ZM35 35H1V1H35V35Z" fill="#bbc2c7"/></g><defs><clipPath id="A"><path fill="#fff" d="M0 0h36v71H0z"/></clipPath></defs></svg>