<svg xmlns="http://www.w3.org/2000/svg" width="36" height="71" fill="none" xmlns:v="https://vecta.io/nano"><g clip-path="url(#A)"><path fill-rule="evenodd" d="M23 24c0-1.1-.2-2.1-.7-3-.4-.9-1.1-1.7-2.2-2.5 1-.7 1.7-1.5 2.1-2.4.5-.9.7-2 .7-3.1.4 0 .8-.1 1.1-.4s.4-.7.4-1.1-.1-.8-.4-1.1-.7-.4-1.1-.4H12c-.4 0-.8 0-1.1.4-.3.3-.4.7-.4 1.1s.1.8.4 1.1.7.4 1.1.4c0 1.1.2 2.1.7 3 .4.9 1.1 1.7 2.2 2.5-1 .7-1.7 1.5-2.1 2.4-.5.9-.7 2-.7 3.1-.4 0-.8.1-1.1.4s-.4.7-.4 1.1 0 .8.4 1.1c.3.3.7.4 1.1.4h11c.4 0 .8-.1 1.1-.4s.4-.7.4-1.1 0-.8-.4-1.1c-.3-.3-.7-.4-1.1-.4H23zm.4 1.9s-.2.1-.4.1H12c-.2 0-.3 0-.4-.1 0 0-.1-.2-.1-.4s0-.3.1-.4c0 0 .2-.1.4-.1h1v-.5c0-1.2.2-2.2.7-3.1.4-.9 1.2-1.7 2.4-2.5l.7-.4-.7-.4c-1.3-.8-2-1.6-2.4-2.5s-.6-1.9-.6-3.1V12h-1c-.2 0-.3 0-.4-.1v-.4-.4h.4 11 .4v.4.4c-.1.1-.2.1-.4.1h-1v.5c0 1.2-.2 2.2-.7 3.1-.4.9-1.2 1.7-2.4 2.5l-.7.4.7.4c1.3.8 2 1.6 2.4 2.5s.6 1.9.6 3.1v.5h1c.2 0 .3 0 .4.1.1 0 .1.2.1.4s0 .3-.1.4z" fill="#7d868a"/><path d="M23.5 59.5H23c-.1-2.5-.6-4.4-3.3-6 2.6-1.6 3.2-3.5 3.3-6h.5a.94.94 0 0 0 1-1 .94.94 0 0 0-1-1h-11a.94.94 0 0 0-1 1 .94.94 0 0 0 1 1h.5c.1 2.5.6 4.4 3.3 6-2.6 1.6-3.2 3.5-3.3 6h-.5a.94.94 0 0 0-1 1 .94.94 0 0 0 1 1h11a.94.94 0 0 0 1-1 .94.94 0 0 0-1-1z" fill="#ffb900"/><path d="M35 0H1C0.5 0 0 0.5 0 1V70C0 70.5 0.5 71 1 71H35C35.5 71 36 70.5 36 70V1C36 0.5 35.5 0 35 0ZM35 70H1V36H35V70ZM35 35H1V1H35V35Z" fill="#bbc2c7"/></g><defs><clipPath id="A"><path fill="#fff" d="M0 0h36v71H0z"/></clipPath></defs></svg>